<?xml version="1.0" encoding="utf-8"?>
<svg xmlns="http://www.w3.org/2000/svg" xmlns:xlink="http://www.w3.org/1999/xlink" width="400" height="500" viewBox="0 0 1600 2000">
<defs>
  <clipPath id="clip380">
    <rect x="0" y="0" width="1600" height="2000"/>
  </clipPath>
</defs>
<path clip-path="url(#clip380)" d="M0 2000 L1600 2000 L1600 0 L0 0  Z" fill="#ffffff" fill-rule="evenodd" fill-opacity="1"/>
<defs>
  <clipPath id="clip381">
    <rect x="400" y="200" width="1401" height="1401"/>
  </clipPath>
</defs>
<path clip-path="url(#clip380)" d="M466.496 1800.37 L1552.76 1800.37 L1552.76 47.2441 L466.496 47.2441  Z" fill="#ffffff" fill-rule="evenodd" fill-opacity="1"/>
<defs>
  <clipPath id="clip382">
    <rect x="466" y="47" width="1087" height="1754"/>
  </clipPath>
</defs>
<polyline clip-path="url(#clip382)" style="stroke:#d3d3d3; stroke-linecap:round; stroke-linejoin:round; stroke-width:2; stroke-opacity:0.1; fill:none" points="1009.63,1800.37 1009.63,47.2441 "/>
<polyline clip-path="url(#clip380)" style="stroke:#000000; stroke-linecap:round; stroke-linejoin:round; stroke-width:4; stroke-opacity:1; fill:none" points="466.496,1800.37 1552.76,1800.37 "/>
<polyline clip-path="url(#clip380)" style="stroke:#000000; stroke-linecap:round; stroke-linejoin:round; stroke-width:4; stroke-opacity:1; fill:none" points="1009.63,1800.37 1009.63,1781.47 "/>
<path clip-path="url(#clip380)" d="M957.933 1857.46 Q957.933 1861.15 952.663 1861.15 L940.331 1861.15 Q938.433 1869.9 938.433 1878.33 Q938.433 1888.4 941.543 1896.14 Q942.175 1897.67 942.175 1898.51 Q942.175 1900.1 940.752 1901.36 Q939.382 1902.63 937.748 1902.63 Q936.378 1902.63 935.482 1901.57 Q934.639 1900.52 933.901 1897.2 Q933.005 1893.3 933.005 1888.98 Q933.005 1883.81 933.848 1878.86 Q934.692 1873.85 937.537 1861.15 L925.364 1861.15 L919.303 1885.02 Q917.142 1893.09 916.405 1895.56 Q915.93 1897.04 915.772 1897.51 Q915.614 1897.99 915.14 1899.15 Q914.718 1900.25 914.402 1900.68 Q914.086 1901.04 913.559 1901.62 Q913.032 1902.26 912.399 1902.41 Q911.767 1902.63 910.976 1902.63 Q909.764 1902.63 908.816 1901.83 Q907.867 1901.1 907.867 1899.67 Q907.867 1898.73 908.71 1897.09 Q918.723 1875.48 922.518 1861.15 L916.405 1861.15 Q907.972 1861.15 902.702 1869.48 Q901.859 1870.58 901.385 1870.69 Q901.174 1870.74 900.963 1870.74 Q900.384 1870.74 900.015 1870.48 Q899.698 1870.21 899.698 1869.95 L899.646 1869.69 Q899.646 1869.37 900.436 1867.95 Q901.28 1866.47 902.861 1864.21 Q904.494 1861.94 906.233 1859.99 Q907.92 1858.2 909.553 1857.09 Q911.24 1855.93 912.821 1855.51 Q914.402 1855.09 915.298 1854.98 Q916.194 1854.88 917.459 1854.88 L953.611 1854.88 Q954.981 1854.88 955.719 1854.98 Q956.457 1855.04 957.195 1855.67 Q957.933 1856.25 957.933 1857.46 Z" fill="#000000" fill-rule="nonzero" fill-opacity="1" /><path clip-path="url(#clip380)" d="M972.225 1874.43 Q972.225 1856.2 979.023 1841.49 Q981.921 1835.33 985.979 1830.16 Q990.037 1825 992.725 1822.73 Q995.413 1820.47 996.151 1820.47 Q997.205 1820.47 997.257 1821.52 Q997.257 1822.05 995.834 1823.36 Q978.443 1841.07 978.496 1874.43 Q978.496 1907.9 995.413 1924.92 Q997.257 1926.76 997.257 1927.34 Q997.257 1928.4 996.151 1928.4 Q995.413 1928.4 992.83 1926.24 Q990.248 1924.07 986.243 1919.12 Q982.238 1914.17 979.339 1908.11 Q972.225 1893.4 972.225 1874.43 Z" fill="#000000" fill-rule="nonzero" fill-opacity="1" /><path clip-path="url(#clip380)" d="M1067.74 1860.1 Q1067.64 1860.62 1067.43 1861.57 Q1067.22 1862.47 1066.27 1865.31 Q1065.32 1868.16 1064.05 1871.06 Q1062.84 1873.9 1060.47 1877.91 Q1058.15 1881.86 1055.31 1885.44 Q1054.51 1886.39 1054.36 1886.97 Q1054.25 1887.5 1054.25 1889.24 Q1054.25 1900.2 1057.57 1900.2 Q1057.73 1900.2 1057.99 1900.2 Q1058.31 1900.15 1059.1 1899.88 Q1059.94 1899.57 1060.68 1899.09 Q1061.42 1898.57 1062.26 1897.51 Q1063.1 1896.41 1063.63 1894.93 Q1064.11 1893.88 1065.05 1893.88 Q1066.32 1893.88 1066.32 1894.93 Q1066.32 1896.83 1063.68 1899.73 Q1061.05 1902.63 1057.26 1902.63 Q1053.62 1902.63 1051.04 1900.25 Q1048.51 1897.83 1047.45 1893.51 Q1036.07 1902.63 1024.69 1902.63 Q1016.68 1902.63 1011.93 1897.41 Q1007.19 1892.14 1007.19 1884.34 Q1007.19 1876.85 1011.3 1869.74 Q1015.46 1862.63 1022.21 1858.2 Q1029.01 1853.72 1036.23 1853.72 Q1038.76 1853.72 1041.18 1854.4 Q1043.61 1855.04 1046.03 1856.67 Q1048.45 1858.3 1050.25 1860.78 Q1052.04 1863.26 1053.14 1867.16 Q1054.25 1871.06 1054.25 1875.96 L1054.25 1882.65 Q1061.21 1873.85 1064.84 1861.26 Q1065.37 1859.36 1065.69 1859.15 Q1065.9 1858.99 1066.42 1858.99 Q1066.95 1858.99 1067.27 1859.31 Q1067.64 1859.57 1067.69 1859.83 L1067.74 1860.1 M1047.03 1890.71 Q1046.82 1888.87 1046.82 1878.65 Q1046.82 1876.7 1046.82 1875.64 Q1046.82 1874.54 1046.72 1872.43 Q1046.61 1870.32 1046.4 1869 Q1046.24 1867.68 1045.87 1865.79 Q1045.5 1863.89 1044.98 1862.68 Q1044.45 1861.47 1043.61 1860.1 Q1042.82 1858.73 1041.76 1857.94 Q1040.76 1857.14 1039.28 1856.62 Q1037.86 1856.09 1036.12 1856.09 Q1033.96 1856.09 1031.7 1856.88 Q1029.48 1857.62 1026.64 1859.99 Q1023.79 1862.31 1021.42 1866 Q1018.94 1869.9 1017.04 1877.07 Q1015.2 1884.18 1015.2 1888.45 Q1015.2 1893.82 1017.68 1897.04 Q1020.15 1900.2 1024.9 1900.2 Q1036.23 1900.2 1047.03 1890.71 Z" fill="#000000" fill-rule="nonzero" fill-opacity="1" /><path clip-path="url(#clip380)" d="M1078.16 1927.34 Q1078.16 1926.81 1079.53 1925.5 Q1096.92 1907.79 1096.92 1874.43 Q1096.92 1840.97 1080.22 1824.05 Q1078.16 1822.1 1078.16 1821.52 Q1078.16 1820.47 1079.21 1820.47 Q1079.95 1820.47 1082.53 1822.63 Q1085.17 1824.79 1089.12 1829.74 Q1093.13 1834.69 1096.08 1840.75 Q1103.19 1855.46 1103.19 1874.43 Q1103.19 1892.66 1096.4 1907.37 Q1093.5 1913.53 1089.44 1918.7 Q1085.38 1923.86 1082.69 1926.13 Q1080.01 1928.4 1079.21 1928.4 Q1078.16 1928.4 1078.16 1927.34 Z" fill="#000000" fill-rule="nonzero" fill-opacity="1" /><polyline clip-path="url(#clip382)" style="stroke:#d3d3d3; stroke-linecap:round; stroke-linejoin:round; stroke-width:2; stroke-opacity:0.1; fill:none" points="466.496,1800.37 1552.76,1800.37 "/>
<polyline clip-path="url(#clip382)" style="stroke:#d3d3d3; stroke-linecap:round; stroke-linejoin:round; stroke-width:2; stroke-opacity:0.1; fill:none" points="466.496,1449.74 1552.76,1449.74 "/>
<polyline clip-path="url(#clip382)" style="stroke:#d3d3d3; stroke-linecap:round; stroke-linejoin:round; stroke-width:2; stroke-opacity:0.1; fill:none" points="466.496,1099.12 1552.76,1099.12 "/>
<polyline clip-path="url(#clip382)" style="stroke:#d3d3d3; stroke-linecap:round; stroke-linejoin:round; stroke-width:2; stroke-opacity:0.1; fill:none" points="466.496,748.494 1552.76,748.494 "/>
<polyline clip-path="url(#clip382)" style="stroke:#d3d3d3; stroke-linecap:round; stroke-linejoin:round; stroke-width:2; stroke-opacity:0.1; fill:none" points="466.496,397.869 1552.76,397.869 "/>
<polyline clip-path="url(#clip382)" style="stroke:#d3d3d3; stroke-linecap:round; stroke-linejoin:round; stroke-width:2; stroke-opacity:0.1; fill:none" points="466.496,47.2441 1552.76,47.2441 "/>
<polyline clip-path="url(#clip380)" style="stroke:#000000; stroke-linecap:round; stroke-linejoin:round; stroke-width:4; stroke-opacity:1; fill:none" points="466.496,1800.37 466.496,47.2441 "/>
<polyline clip-path="url(#clip380)" style="stroke:#000000; stroke-linecap:round; stroke-linejoin:round; stroke-width:4; stroke-opacity:1; fill:none" points="466.496,1800.37 485.393,1800.37 "/>
<polyline clip-path="url(#clip380)" style="stroke:#000000; stroke-linecap:round; stroke-linejoin:round; stroke-width:4; stroke-opacity:1; fill:none" points="466.496,1449.74 485.393,1449.74 "/>
<polyline clip-path="url(#clip380)" style="stroke:#000000; stroke-linecap:round; stroke-linejoin:round; stroke-width:4; stroke-opacity:1; fill:none" points="466.496,1099.12 485.393,1099.12 "/>
<polyline clip-path="url(#clip380)" style="stroke:#000000; stroke-linecap:round; stroke-linejoin:round; stroke-width:4; stroke-opacity:1; fill:none" points="466.496,748.494 485.393,748.494 "/>
<polyline clip-path="url(#clip380)" style="stroke:#000000; stroke-linecap:round; stroke-linejoin:round; stroke-width:4; stroke-opacity:1; fill:none" points="466.496,397.869 485.393,397.869 "/>
<polyline clip-path="url(#clip380)" style="stroke:#000000; stroke-linecap:round; stroke-linejoin:round; stroke-width:4; stroke-opacity:1; fill:none" points="466.496,47.2441 485.393,47.2441 "/>
<path clip-path="url(#clip380)" d="M295.191 1800.9 Q295.191 1787.11 298.002 1778.73 Q300.867 1770.29 306.436 1765.73 Q312.058 1761.17 320.545 1761.17 Q326.804 1761.17 331.525 1763.72 Q336.246 1766.21 339.322 1770.98 Q342.399 1775.7 344.149 1782.55 Q345.899 1789.34 345.899 1800.9 Q345.899 1814.58 343.088 1823.02 Q340.277 1831.4 334.654 1836.01 Q329.085 1840.57 320.545 1840.57 Q309.3 1840.57 302.882 1832.51 Q295.191 1822.8 295.191 1800.9 M305.004 1800.9 Q305.004 1820.05 309.459 1826.41 Q313.968 1832.72 320.545 1832.72 Q327.122 1832.72 331.578 1826.36 Q336.087 1819.99 336.087 1800.9 Q336.087 1781.7 331.578 1775.38 Q327.122 1769.07 320.439 1769.07 Q313.862 1769.07 309.937 1774.64 Q305.004 1781.75 305.004 1800.9 Z" fill="#000000" fill-rule="nonzero" fill-opacity="1" /><path clip-path="url(#clip380)" d="M360.963 1839.25 L360.963 1828.37 L371.837 1828.37 L371.837 1839.25 L360.963 1839.25 Z" fill="#000000" fill-rule="nonzero" fill-opacity="1" /><path clip-path="url(#clip380)" d="M385.787 1800.9 Q385.787 1787.11 388.598 1778.73 Q391.463 1770.29 397.032 1765.73 Q402.655 1761.17 411.141 1761.17 Q417.4 1761.17 422.121 1763.72 Q426.842 1766.21 429.918 1770.98 Q432.995 1775.7 434.745 1782.55 Q436.496 1789.34 436.496 1800.9 Q436.496 1814.58 433.684 1823.02 Q430.873 1831.4 425.251 1836.01 Q419.681 1840.57 411.141 1840.57 Q399.896 1840.57 393.478 1832.51 Q385.787 1822.8 385.787 1800.9 M395.6 1800.9 Q395.6 1820.05 400.056 1826.41 Q404.564 1832.72 411.141 1832.72 Q417.719 1832.72 422.174 1826.36 Q426.683 1819.99 426.683 1800.9 Q426.683 1781.7 422.174 1775.38 Q417.719 1769.07 411.035 1769.07 Q404.458 1769.07 400.533 1774.64 Q395.6 1781.75 395.6 1800.9 Z" fill="#000000" fill-rule="nonzero" fill-opacity="1" /><path clip-path="url(#clip380)" d="M295.721 1450.27 Q295.721 1436.48 298.533 1428.1 Q301.397 1419.67 306.966 1415.11 Q312.589 1410.54 321.076 1410.54 Q327.335 1410.54 332.055 1413.09 Q336.776 1415.58 339.853 1420.36 Q342.929 1425.08 344.679 1431.92 Q346.43 1438.71 346.43 1450.27 Q346.43 1463.96 343.619 1472.39 Q340.807 1480.77 335.185 1485.39 Q329.615 1489.95 321.076 1489.95 Q309.831 1489.95 303.413 1481.89 Q295.721 1472.18 295.721 1450.27 M305.534 1450.27 Q305.534 1469.42 309.99 1475.79 Q314.498 1482.1 321.076 1482.1 Q327.653 1482.1 332.108 1475.73 Q336.617 1469.37 336.617 1450.27 Q336.617 1431.07 332.108 1424.76 Q327.653 1418.45 320.97 1418.45 Q314.392 1418.45 310.467 1424.02 Q305.534 1431.13 305.534 1450.27 Z" fill="#000000" fill-rule="nonzero" fill-opacity="1" /><path clip-path="url(#clip380)" d="M361.494 1488.62 L361.494 1477.75 L372.368 1477.75 L372.368 1488.62 L361.494 1488.62 Z" fill="#000000" fill-rule="nonzero" fill-opacity="1" /><path clip-path="url(#clip380)" d="M436.496 1479.45 L436.496 1488.62 L385.098 1488.62 Q384.992 1485.18 386.212 1481.99 Q388.174 1476.74 392.471 1471.65 Q396.82 1466.56 404.989 1459.87 Q417.666 1449.48 422.121 1443.43 Q426.577 1437.33 426.577 1431.92 Q426.577 1426.25 422.492 1422.37 Q418.461 1418.45 411.937 1418.45 Q405.042 1418.45 400.904 1422.59 Q396.767 1426.72 396.714 1434.04 L386.901 1433.03 Q387.909 1422.06 394.486 1416.33 Q401.063 1410.54 412.149 1410.54 Q423.341 1410.54 429.865 1416.75 Q436.39 1422.96 436.39 1432.13 Q436.39 1436.8 434.48 1441.31 Q432.571 1445.82 428.115 1450.8 Q423.712 1455.79 413.422 1464.49 Q404.829 1471.7 402.389 1474.3 Q399.95 1476.85 398.358 1479.45 L436.496 1479.45 Z" fill="#000000" fill-rule="nonzero" fill-opacity="1" /><path clip-path="url(#clip380)" d="M295.244 1099.65 Q295.244 1085.86 298.055 1077.48 Q300.92 1069.04 306.489 1064.48 Q312.111 1059.92 320.598 1059.92 Q326.857 1059.92 331.578 1062.47 Q336.299 1064.96 339.375 1069.73 Q342.452 1074.45 344.202 1081.3 Q345.952 1088.09 345.952 1099.65 Q345.952 1113.33 343.141 1121.77 Q340.33 1130.15 334.707 1134.76 Q329.138 1139.32 320.598 1139.32 Q309.353 1139.32 302.935 1131.26 Q295.244 1121.56 295.244 1099.65 M305.057 1099.65 Q305.057 1118.8 309.512 1125.16 Q314.021 1131.47 320.598 1131.47 Q327.175 1131.47 331.631 1125.11 Q336.14 1118.74 336.14 1099.65 Q336.14 1080.45 331.631 1074.14 Q327.175 1067.82 320.492 1067.82 Q313.915 1067.82 309.99 1073.39 Q305.057 1080.5 305.057 1099.65 Z" fill="#000000" fill-rule="nonzero" fill-opacity="1" /><path clip-path="url(#clip380)" d="M361.016 1138 L361.016 1127.12 L371.89 1127.12 L371.89 1138 L361.016 1138 Z" fill="#000000" fill-rule="nonzero" fill-opacity="1" /><path clip-path="url(#clip380)" d="M416.446 1138 L416.446 1119.38 L382.711 1119.38 L382.711 1110.63 L418.196 1060.24 L425.993 1060.24 L425.993 1110.63 L436.496 1110.63 L436.496 1119.38 L425.993 1119.38 L425.993 1138 L416.446 1138 M416.446 1110.63 L416.446 1075.57 L392.099 1110.63 L416.446 1110.63 Z" fill="#000000" fill-rule="nonzero" fill-opacity="1" /><path clip-path="url(#clip380)" d="M294.979 749.024 Q294.979 735.233 297.79 726.852 Q300.654 718.419 306.224 713.857 Q311.846 709.295 320.333 709.295 Q326.592 709.295 331.313 711.841 Q336.034 714.334 339.11 719.108 Q342.186 723.829 343.937 730.671 Q345.687 737.461 345.687 749.024 Q345.687 762.709 342.876 771.143 Q340.065 779.523 334.442 784.138 Q328.873 788.7 320.333 788.7 Q309.088 788.7 302.67 780.637 Q294.979 770.93 294.979 749.024 M304.792 749.024 Q304.792 768.172 309.247 774.537 Q313.756 780.849 320.333 780.849 Q326.91 780.849 331.366 774.484 Q335.874 768.119 335.874 749.024 Q335.874 729.823 331.366 723.511 Q326.91 717.199 320.227 717.199 Q313.65 717.199 309.725 722.768 Q304.792 729.876 304.792 749.024 Z" fill="#000000" fill-rule="nonzero" fill-opacity="1" /><path clip-path="url(#clip380)" d="M360.751 787.374 L360.751 776.5 L371.625 776.5 L371.625 787.374 L360.751 787.374 Z" fill="#000000" fill-rule="nonzero" fill-opacity="1" /><path clip-path="url(#clip380)" d="M435.117 728.656 L425.622 729.398 Q424.349 723.776 422.015 721.23 Q418.143 717.146 412.467 717.146 Q407.906 717.146 404.458 719.692 Q399.95 722.98 397.35 729.292 Q394.751 735.604 394.645 747.274 Q398.093 742.022 403.079 739.476 Q408.065 736.93 413.528 736.93 Q423.076 736.93 429.759 743.985 Q436.496 750.987 436.496 762.125 Q436.496 769.445 433.313 775.757 Q430.184 782.016 424.667 785.358 Q419.151 788.7 412.149 788.7 Q400.215 788.7 392.683 779.948 Q385.151 771.143 385.151 750.987 Q385.151 728.444 393.478 718.206 Q400.745 709.295 413.051 709.295 Q422.227 709.295 428.062 714.44 Q433.95 719.586 435.117 728.656 M396.13 762.179 Q396.13 767.111 398.199 771.62 Q400.321 776.129 404.087 778.516 Q407.853 780.849 411.99 780.849 Q418.037 780.849 422.386 775.97 Q426.736 771.09 426.736 762.709 Q426.736 754.647 422.439 750.032 Q418.143 745.364 411.619 745.364 Q405.148 745.364 400.639 750.032 Q396.13 754.647 396.13 762.179 Z" fill="#000000" fill-rule="nonzero" fill-opacity="1" /><path clip-path="url(#clip380)" d="M294.767 398.399 Q294.767 384.608 297.578 376.228 Q300.442 367.794 306.012 363.232 Q311.634 358.671 320.121 358.671 Q326.38 358.671 331.101 361.217 Q335.821 363.71 338.898 368.483 Q341.974 373.204 343.725 380.047 Q345.475 386.836 345.475 398.399 Q345.475 412.084 342.664 420.518 Q339.853 428.899 334.23 433.513 Q328.661 438.075 320.121 438.075 Q308.876 438.075 302.458 430.012 Q294.767 420.306 294.767 398.399 M304.579 398.399 Q304.579 417.548 309.035 423.913 Q313.544 430.225 320.121 430.225 Q326.698 430.225 331.154 423.86 Q335.662 417.494 335.662 398.399 Q335.662 379.198 331.154 372.886 Q326.698 366.574 320.015 366.574 Q313.438 366.574 309.512 372.143 Q304.579 379.251 304.579 398.399 Z" fill="#000000" fill-rule="nonzero" fill-opacity="1" /><path clip-path="url(#clip380)" d="M360.539 436.749 L360.539 425.875 L371.413 425.875 L371.413 436.749 L360.539 436.749 Z" fill="#000000" fill-rule="nonzero" fill-opacity="1" /><path clip-path="url(#clip380)" d="M400.056 394.58 Q394.115 392.405 391.251 388.374 Q388.386 384.343 388.386 378.721 Q388.386 370.234 394.486 364.452 Q400.586 358.671 410.717 358.671 Q420.901 358.671 427.107 364.611 Q433.313 370.499 433.313 378.986 Q433.313 384.396 430.449 388.427 Q427.638 392.405 421.856 394.58 Q429.017 396.914 432.73 402.112 Q436.496 407.31 436.496 414.524 Q436.496 424.496 429.441 431.285 Q422.386 438.075 410.876 438.075 Q399.366 438.075 392.311 431.285 Q385.257 424.443 385.257 414.259 Q385.257 406.674 389.076 401.582 Q392.948 396.437 400.056 394.58 M398.146 378.402 Q398.146 383.919 401.7 387.42 Q405.254 390.92 410.929 390.92 Q416.446 390.92 419.946 387.473 Q423.5 383.972 423.5 378.933 Q423.5 373.682 419.84 370.128 Q416.233 366.521 410.823 366.521 Q405.36 366.521 401.753 370.022 Q398.146 373.522 398.146 378.402 M395.07 414.312 Q395.07 418.396 396.979 422.215 Q398.942 426.034 402.761 428.156 Q406.58 430.225 410.982 430.225 Q417.825 430.225 422.28 425.822 Q426.736 421.42 426.736 414.63 Q426.736 407.735 422.121 403.226 Q417.56 398.718 410.664 398.718 Q403.928 398.718 399.472 403.173 Q395.07 407.629 395.07 414.312 Z" fill="#000000" fill-rule="nonzero" fill-opacity="1" /><path clip-path="url(#clip380)" d="M331.154 86.1241 L321.606 86.1241 L321.606 25.2846 Q318.158 28.5732 312.536 31.8618 Q306.966 35.1505 302.511 36.7948 L302.511 27.5654 Q310.52 23.7994 316.514 18.4421 Q322.508 13.0849 325.001 8.04584 L331.154 8.04584 L331.154 86.1241 Z" fill="#000000" fill-rule="nonzero" fill-opacity="1" /><path clip-path="url(#clip380)" d="M360.963 86.1241 L360.963 75.2504 L371.837 75.2504 L371.837 86.1241 L360.963 86.1241 Z" fill="#000000" fill-rule="nonzero" fill-opacity="1" /><path clip-path="url(#clip380)" d="M385.787 47.7745 Q385.787 33.9835 388.598 25.6028 Q391.463 17.1691 397.032 12.6075 Q402.655 8.04584 411.141 8.04584 Q417.4 8.04584 422.121 10.5919 Q426.842 13.0849 429.918 17.8587 Q432.995 22.5794 434.745 29.4219 Q436.496 36.2113 436.496 47.7745 Q436.496 61.4594 433.684 69.8932 Q430.873 78.2738 425.251 82.8885 Q419.681 87.4502 411.141 87.4502 Q399.896 87.4502 393.478 79.3877 Q385.787 69.681 385.787 47.7745 M395.6 47.7745 Q395.6 66.9228 400.056 73.2879 Q404.564 79.5999 411.141 79.5999 Q417.719 79.5999 422.174 73.2348 Q426.683 66.8697 426.683 47.7745 Q426.683 28.5732 422.174 22.2612 Q417.719 15.9491 411.035 15.9491 Q404.458 15.9491 400.533 21.5186 Q395.6 28.6263 395.6 47.7745 Z" fill="#000000" fill-rule="nonzero" fill-opacity="1" /><path clip-path="url(#clip380)" d="M216.456 1262.06 L215.607 1252.35 Q221.442 1251.66 225.208 1249.17 Q228.921 1246.62 231.255 1241.32 Q233.535 1236.01 233.535 1229.38 Q233.535 1223.49 231.785 1218.99 Q230.035 1214.48 227.011 1212.3 Q223.935 1210.08 220.328 1210.08 Q216.668 1210.08 213.963 1212.2 Q211.205 1214.32 209.348 1219.2 Q208.128 1222.33 205.582 1233.04 Q202.983 1243.76 200.702 1248.05 Q197.785 1253.62 193.488 1256.38 Q189.139 1259.09 183.782 1259.09 Q177.894 1259.09 172.802 1255.74 Q167.657 1252.4 165.005 1245.98 Q162.353 1239.57 162.353 1231.72 Q162.353 1223.07 165.164 1216.49 Q167.922 1209.86 173.332 1206.31 Q178.743 1202.76 185.585 1202.49 L186.328 1212.36 Q178.955 1213.15 175.189 1217.77 Q171.423 1222.33 171.423 1231.29 Q171.423 1240.63 174.871 1244.92 Q178.265 1249.17 183.092 1249.17 Q187.282 1249.17 189.988 1246.14 Q192.693 1243.17 195.557 1230.66 Q198.368 1218.08 200.49 1213.42 Q203.619 1206.63 208.446 1203.39 Q213.22 1200.16 219.479 1200.16 Q225.685 1200.16 231.201 1203.71 Q236.665 1207.26 239.741 1213.95 Q242.765 1220.58 242.765 1228.91 Q242.765 1239.46 239.688 1246.62 Q236.612 1253.73 230.459 1257.81 Q224.253 1261.84 216.456 1262.06 Z" fill="#000000" fill-rule="nonzero" fill-opacity="1" /><path clip-path="url(#clip380)" d="M263.027 1151.41 L235.445 1151.41 Q238.574 1153.64 240.643 1157.67 Q242.712 1161.65 242.712 1166.16 Q242.712 1176.18 234.702 1183.45 Q226.693 1190.66 212.743 1190.66 Q204.256 1190.66 197.52 1187.74 Q190.783 1184.77 187.336 1179.2 Q183.835 1173.58 183.835 1166.9 Q183.835 1156.45 192.64 1150.46 L185.108 1150.46 L185.108 1141.86 L263.027 1141.86 L263.027 1151.41 M213.114 1180.85 Q223.988 1180.85 229.451 1176.29 Q234.861 1171.73 234.861 1165.36 Q234.861 1159.26 229.716 1154.86 Q224.518 1150.46 213.963 1150.46 Q202.718 1150.46 197.042 1155.12 Q191.367 1159.74 191.367 1166 Q191.367 1172.2 196.671 1176.55 Q201.922 1180.85 213.114 1180.85 Z" fill="#000000" fill-rule="nonzero" fill-opacity="1" /><path clip-path="url(#clip380)" d="M241.439 1089.99 L233.164 1089.99 Q242.712 1096.56 242.712 1107.86 Q242.712 1112.85 240.802 1117.2 Q238.893 1121.49 236.028 1123.62 Q233.111 1125.68 228.921 1126.53 Q226.109 1127.12 220.01 1127.12 L185.108 1127.12 L185.108 1117.57 L216.35 1117.57 Q223.829 1117.57 226.428 1116.99 Q230.194 1116.08 232.368 1113.17 Q234.49 1110.25 234.49 1105.95 Q234.49 1101.66 232.315 1097.89 Q230.088 1094.12 226.322 1092.59 Q222.503 1091 215.289 1091 L185.108 1091 L185.108 1081.45 L241.439 1081.45 L241.439 1089.99 Z" fill="#000000" fill-rule="nonzero" fill-opacity="1" /><path clip-path="url(#clip380)" d="M234.49 1029.73 Q238.999 1035.04 240.855 1039.97 Q242.712 1044.85 242.712 1050.47 Q242.712 1059.75 238.203 1064.74 Q233.641 1069.73 226.587 1069.73 Q222.449 1069.73 219.055 1067.87 Q215.607 1065.96 213.538 1062.94 Q211.47 1059.86 210.409 1056.04 Q209.666 1053.23 208.977 1047.55 Q207.598 1035.99 205.688 1030.53 Q203.726 1030.47 203.195 1030.47 Q197.36 1030.47 194.974 1033.18 Q191.738 1036.84 191.738 1044.05 Q191.738 1050.79 194.125 1054.02 Q196.459 1057.21 202.453 1058.75 L201.18 1068.08 Q195.186 1066.81 191.526 1063.89 Q187.813 1060.97 185.85 1055.46 Q183.835 1049.94 183.835 1042.67 Q183.835 1035.46 185.532 1030.95 Q187.229 1026.44 189.828 1024.32 Q192.375 1022.2 196.3 1021.35 Q198.74 1020.87 205.105 1020.87 L217.835 1020.87 Q231.148 1020.87 234.702 1020.29 Q238.203 1019.65 241.439 1017.85 L241.439 1027.82 Q238.468 1029.31 234.49 1029.73 M213.167 1030.53 Q215.289 1035.73 216.774 1046.12 Q217.623 1052.01 218.683 1054.45 Q219.744 1056.89 221.813 1058.22 Q223.829 1059.54 226.322 1059.54 Q230.141 1059.54 232.687 1056.68 Q235.233 1053.76 235.233 1048.19 Q235.233 1042.67 232.846 1038.38 Q230.406 1034.08 226.216 1032.07 Q222.98 1030.53 216.668 1030.53 L213.167 1030.53 Z" fill="#000000" fill-rule="nonzero" fill-opacity="1" /><path clip-path="url(#clip380)" d="M241.439 1006.18 L185.108 1006.18 L185.108 997.588 L193.648 997.588 Q187.654 994.299 185.744 991.541 Q183.835 988.73 183.835 985.388 Q183.835 980.561 186.911 975.575 L195.769 978.864 Q193.701 982.365 193.701 985.865 Q193.701 988.995 195.61 991.488 Q197.467 993.981 200.808 995.042 Q205.9 996.633 211.947 996.633 L241.439 996.633 L241.439 1006.18 Z" fill="#000000" fill-rule="nonzero" fill-opacity="1" /><path clip-path="url(#clip380)" d="M223.298 931.338 L224.518 921.472 Q233.164 923.806 237.938 930.118 Q242.712 936.43 242.712 946.243 Q242.712 958.602 235.127 965.869 Q227.489 973.082 213.751 973.082 Q199.535 973.082 191.685 965.762 Q183.835 958.443 183.835 946.773 Q183.835 935.475 191.526 928.315 Q199.217 921.154 213.167 921.154 Q214.016 921.154 215.713 921.207 L215.713 963.216 Q224.996 962.686 229.928 957.965 Q234.861 953.244 234.861 946.19 Q234.861 940.939 232.103 937.226 Q229.345 933.513 223.298 931.338 M207.863 962.686 L207.863 931.232 Q200.755 931.868 197.201 934.839 Q191.685 939.4 191.685 946.667 Q191.685 953.244 196.087 957.753 Q200.49 962.209 207.863 962.686 Z" fill="#000000" fill-rule="nonzero" fill-opacity="1" /><path clip-path="url(#clip380)" d="M241.439 872.938 L234.331 872.938 Q242.712 878.296 242.712 888.692 Q242.712 895.428 238.999 901.104 Q235.286 906.726 228.655 909.856 Q221.972 912.932 213.326 912.932 Q204.893 912.932 198.05 910.121 Q191.155 907.31 187.495 901.687 Q183.835 896.065 183.835 889.116 Q183.835 884.024 186.009 880.046 Q188.131 876.068 191.579 873.575 L163.679 873.575 L163.679 864.08 L241.439 864.08 L241.439 872.938 M213.326 903.119 Q224.147 903.119 229.504 898.558 Q234.861 893.996 234.861 887.79 Q234.861 881.531 229.769 877.182 Q224.624 872.779 214.122 872.779 Q202.559 872.779 197.148 877.235 Q191.738 881.69 191.738 888.215 Q191.738 894.58 196.936 898.876 Q202.134 903.119 213.326 903.119 Z" fill="#000000" fill-rule="nonzero" fill-opacity="1" /><path clip-path="url(#clip380)" d="M241.439 818.888 L185.108 818.888 L185.108 810.295 L193.117 810.295 Q183.835 804.09 183.835 792.367 Q183.835 787.275 185.691 783.032 Q187.495 778.735 190.465 776.614 Q193.435 774.492 197.52 773.643 Q200.172 773.113 206.802 773.113 L241.439 773.113 L241.439 782.66 L207.173 782.66 Q201.339 782.66 198.474 783.774 Q195.557 784.888 193.86 787.753 Q192.109 790.564 192.109 794.383 Q192.109 800.483 195.981 804.938 Q199.853 809.341 210.674 809.341 L241.439 809.341 L241.439 818.888 Z" fill="#000000" fill-rule="nonzero" fill-opacity="1" /><path clip-path="url(#clip380)" d="M213.273 762.027 Q197.626 762.027 190.094 753.328 Q183.835 746.061 183.835 735.612 Q183.835 723.996 191.473 716.623 Q199.058 709.25 212.478 709.25 Q223.351 709.25 229.61 712.539 Q235.816 715.774 239.264 722.033 Q242.712 728.239 242.712 735.612 Q242.712 747.44 235.127 754.76 Q227.542 762.027 213.273 762.027 M213.273 752.214 Q224.094 752.214 229.504 747.493 Q234.861 742.773 234.861 735.612 Q234.861 728.504 229.451 723.784 Q224.041 719.063 212.955 719.063 Q202.506 719.063 197.148 723.837 Q191.738 728.557 191.738 735.612 Q191.738 742.773 197.095 747.493 Q202.453 752.214 213.273 752.214 Z" fill="#000000" fill-rule="nonzero" fill-opacity="1" /><path clip-path="url(#clip380)" d="M241.439 698.164 L185.108 698.164 L185.108 689.571 L193.648 689.571 Q187.654 686.283 185.744 683.524 Q183.835 680.713 183.835 677.371 Q183.835 672.545 186.911 667.559 L195.769 670.847 Q193.701 674.348 193.701 677.849 Q193.701 680.978 195.61 683.471 Q197.467 685.964 200.808 687.025 Q205.9 688.616 211.947 688.616 L241.439 688.616 L241.439 698.164 Z" fill="#000000" fill-rule="nonzero" fill-opacity="1" /><path clip-path="url(#clip380)" d="M241.439 661.883 L185.108 661.883 L185.108 653.343 L193.011 653.343 Q188.874 650.691 186.381 646.289 Q183.835 641.886 183.835 636.264 Q183.835 630.005 186.434 626.027 Q189.033 621.995 193.701 620.351 Q183.835 613.668 183.835 602.953 Q183.835 594.572 188.502 590.064 Q193.117 585.555 202.771 585.555 L241.439 585.555 L241.439 595.05 L205.953 595.05 Q200.225 595.05 197.732 596.005 Q195.186 596.906 193.648 599.346 Q192.109 601.786 192.109 605.075 Q192.109 611.016 196.087 614.941 Q200.013 618.866 208.712 618.866 L241.439 618.866 L241.439 628.413 L204.839 628.413 Q198.474 628.413 195.292 630.747 Q192.109 633.081 192.109 638.385 Q192.109 642.417 194.231 645.864 Q196.353 649.259 200.437 650.797 Q204.521 652.336 212.212 652.336 L241.439 652.336 L241.439 661.883 Z" fill="#000000" fill-rule="nonzero" fill-opacity="1" /><path clip-path="url(#clip382)" d="M670.169 1232.87 L670.169 1416.57 L1349.08 1416.57 L1349.08 1232.87 L670.169 1232.87 L670.169 1232.87  Z" fill="#9f0162" fill-rule="evenodd" fill-opacity="1"/>
<polyline clip-path="url(#clip382)" style="stroke:#000000; stroke-linecap:round; stroke-linejoin:round; stroke-width:4; stroke-opacity:1; fill:none" points="670.169,1232.87 670.169,1416.57 1349.08,1416.57 1349.08,1232.87 670.169,1232.87 "/>
<circle clip-path="url(#clip382)" style="fill:#9f0162; stroke:none; fill-opacity:0" cx="1009.63" cy="1232.87" r="2"/>
<path clip-path="url(#clip382)" d="M670.169 1416.57 L670.169 1800.37 L1349.08 1800.37 L1349.08 1416.57 L670.169 1416.57 L670.169 1416.57  Z" fill="#009f81" fill-rule="evenodd" fill-opacity="1"/>
<polyline clip-path="url(#clip382)" style="stroke:#000000; stroke-linecap:round; stroke-linejoin:round; stroke-width:4; stroke-opacity:1; fill:none" points="670.169,1416.57 670.169,1800.37 1349.08,1800.37 1349.08,1416.57 670.169,1416.57 "/>
<circle clip-path="url(#clip382)" style="fill:#009f81; stroke:none; fill-opacity:0" cx="1009.63" cy="1416.57" r="2"/>
<polyline clip-path="url(#clip382)" style="stroke:#ff0000; stroke-linecap:round; stroke-linejoin:round; stroke-width:8; stroke-opacity:1; fill:none" stroke-dasharray="4, 8" points="-619.765,1712.71 2639.02,1712.71 "/>
</svg>
