<?xml version="1.0" encoding="utf-8"?>
<svg xmlns="http://www.w3.org/2000/svg" xmlns:xlink="http://www.w3.org/1999/xlink" width="1500" height="450" viewBox="0 0 6000 1800">
<defs>
  <clipPath id="clip820">
    <rect x="0" y="0" width="6000" height="1800"/>
  </clipPath>
</defs>
<path clip-path="url(#clip820)" d="M0 1800 L6000 1800 L6000 0 L0 0  Z" fill="#ffffff" fill-rule="evenodd" fill-opacity="1"/>
<defs>
  <clipPath id="clip821">
    <rect x="1200" y="0" width="4201" height="1800"/>
  </clipPath>
</defs>
<path clip-path="url(#clip820)" d="M1092.82 1101.28 L5952.76 1101.28 L5952.76 47.2441 L1092.82 47.2441  Z" fill="#ffffff" fill-rule="evenodd" fill-opacity="1"/>
<defs>
  <clipPath id="clip822">
    <rect x="1092" y="47" width="4861" height="1055"/>
  </clipPath>
</defs>
<polyline clip-path="url(#clip822)" style="stroke:#000000; stroke-linecap:round; stroke-linejoin:round; stroke-width:2; stroke-opacity:0.1; fill:none" points="1230.37,1101.28 1230.37,47.2441 "/>
<polyline clip-path="url(#clip822)" style="stroke:#000000; stroke-linecap:round; stroke-linejoin:round; stroke-width:2; stroke-opacity:0.1; fill:none" points="2147.34,1101.28 2147.34,47.2441 "/>
<polyline clip-path="url(#clip822)" style="stroke:#000000; stroke-linecap:round; stroke-linejoin:round; stroke-width:2; stroke-opacity:0.1; fill:none" points="3064.31,1101.28 3064.31,47.2441 "/>
<polyline clip-path="url(#clip822)" style="stroke:#000000; stroke-linecap:round; stroke-linejoin:round; stroke-width:2; stroke-opacity:0.1; fill:none" points="3981.27,1101.28 3981.27,47.2441 "/>
<polyline clip-path="url(#clip822)" style="stroke:#000000; stroke-linecap:round; stroke-linejoin:round; stroke-width:2; stroke-opacity:0.1; fill:none" points="4898.24,1101.28 4898.24,47.2441 "/>
<polyline clip-path="url(#clip822)" style="stroke:#000000; stroke-linecap:round; stroke-linejoin:round; stroke-width:2; stroke-opacity:0.1; fill:none" points="5815.21,1101.28 5815.21,47.2441 "/>
<polyline clip-path="url(#clip820)" style="stroke:#000000; stroke-linecap:round; stroke-linejoin:round; stroke-width:4; stroke-opacity:1; fill:none" points="1092.82,1101.28 5952.76,1101.28 "/>
<polyline clip-path="url(#clip820)" style="stroke:#000000; stroke-linecap:round; stroke-linejoin:round; stroke-width:4; stroke-opacity:1; fill:none" points="1230.37,1101.28 1230.37,1088.93 "/>
<polyline clip-path="url(#clip820)" style="stroke:#000000; stroke-linecap:round; stroke-linejoin:round; stroke-width:4; stroke-opacity:1; fill:none" points="2147.34,1101.28 2147.34,1088.93 "/>
<polyline clip-path="url(#clip820)" style="stroke:#000000; stroke-linecap:round; stroke-linejoin:round; stroke-width:4; stroke-opacity:1; fill:none" points="3064.31,1101.28 3064.31,1088.93 "/>
<polyline clip-path="url(#clip820)" style="stroke:#000000; stroke-linecap:round; stroke-linejoin:round; stroke-width:4; stroke-opacity:1; fill:none" points="3981.27,1101.28 3981.27,1088.93 "/>
<polyline clip-path="url(#clip820)" style="stroke:#000000; stroke-linecap:round; stroke-linejoin:round; stroke-width:4; stroke-opacity:1; fill:none" points="4898.24,1101.28 4898.24,1088.93 "/>
<polyline clip-path="url(#clip820)" style="stroke:#000000; stroke-linecap:round; stroke-linejoin:round; stroke-width:4; stroke-opacity:1; fill:none" points="5815.21,1101.28 5815.21,1088.93 "/>
<path clip-path="url(#clip820)" d="M1216.28 1181.97 Q1216.28 1174.31 1217.85 1169.65 Q1219.44 1164.97 1222.53 1162.43 Q1225.65 1159.9 1230.37 1159.9 Q1233.85 1159.9 1236.47 1161.31 Q1239.09 1162.7 1240.8 1165.35 Q1242.51 1167.97 1243.48 1171.78 Q1244.45 1175.55 1244.45 1181.97 Q1244.45 1189.57 1242.89 1194.26 Q1241.33 1198.92 1238.21 1201.48 Q1235.11 1204.01 1230.37 1204.01 Q1224.12 1204.01 1220.56 1199.53 Q1216.28 1194.14 1216.28 1181.97 M1221.74 1181.97 Q1221.74 1192.61 1224.21 1196.15 Q1226.72 1199.65 1230.37 1199.65 Q1234.02 1199.65 1236.5 1196.12 Q1239 1192.58 1239 1181.97 Q1239 1171.3 1236.5 1167.8 Q1234.02 1164.29 1230.31 1164.29 Q1226.66 1164.29 1224.48 1167.38 Q1221.74 1171.33 1221.74 1181.97 Z" fill="#000000" fill-rule="nonzero" fill-opacity="1" /><path clip-path="url(#clip820)" d="M2155.29 1203.28 L2149.99 1203.28 L2149.99 1169.48 Q2148.07 1171.3 2144.95 1173.13 Q2141.86 1174.96 2139.38 1175.87 L2139.38 1170.74 Q2143.83 1168.65 2147.16 1165.68 Q2150.49 1162.7 2151.88 1159.9 L2155.29 1159.9 L2155.29 1203.28 Z" fill="#000000" fill-rule="nonzero" fill-opacity="1" /><path clip-path="url(#clip820)" d="M3078.61 1198.18 L3078.61 1203.28 L3050.06 1203.28 Q3050 1201.36 3050.68 1199.59 Q3051.77 1196.68 3054.15 1193.85 Q3056.57 1191.02 3061.11 1187.31 Q3068.15 1181.53 3070.63 1178.17 Q3073.1 1174.78 3073.1 1171.78 Q3073.1 1168.62 3070.83 1166.47 Q3068.59 1164.29 3064.97 1164.29 Q3061.14 1164.29 3058.84 1166.59 Q3056.54 1168.89 3056.51 1172.95 L3051.06 1172.39 Q3051.62 1166.29 3055.27 1163.11 Q3058.93 1159.9 3065.09 1159.9 Q3071.3 1159.9 3074.93 1163.35 Q3078.55 1166.8 3078.55 1171.89 Q3078.55 1174.49 3077.49 1176.99 Q3076.43 1179.5 3073.96 1182.27 Q3071.51 1185.04 3065.79 1189.87 Q3061.02 1193.88 3059.66 1195.32 Q3058.31 1196.74 3057.43 1198.18 L3078.61 1198.18 Z" fill="#000000" fill-rule="nonzero" fill-opacity="1" /><path clip-path="url(#clip820)" d="M3967.13 1191.87 L3972.43 1191.17 Q3973.35 1195.67 3975.53 1197.68 Q3977.74 1199.65 3980.89 1199.65 Q3984.63 1199.65 3987.2 1197.06 Q3989.79 1194.47 3989.79 1190.64 Q3989.79 1186.98 3987.4 1184.62 Q3985.02 1182.24 3981.33 1182.24 Q3979.83 1182.24 3977.59 1182.83 L3978.18 1178.17 Q3978.71 1178.23 3979.03 1178.23 Q3982.42 1178.23 3985.13 1176.46 Q3987.85 1174.69 3987.85 1171.01 Q3987.85 1168.09 3985.87 1166.18 Q3983.9 1164.26 3980.77 1164.26 Q3977.68 1164.26 3975.62 1166.21 Q3973.55 1168.15 3972.96 1172.04 L3967.66 1171.1 Q3968.63 1165.76 3972.08 1162.85 Q3975.53 1159.9 3980.66 1159.9 Q3984.19 1159.9 3987.17 1161.43 Q3990.14 1162.94 3991.71 1165.56 Q3993.3 1168.18 3993.3 1171.13 Q3993.3 1173.93 3991.79 1176.23 Q3990.29 1178.52 3987.34 1179.88 Q3991.18 1180.76 3993.3 1183.56 Q3995.42 1186.33 3995.42 1190.52 Q3995.42 1196.18 3991.29 1200.12 Q3987.17 1204.04 3980.86 1204.04 Q3975.17 1204.04 3971.4 1200.65 Q3967.66 1197.27 3967.13 1191.87 Z" fill="#000000" fill-rule="nonzero" fill-opacity="1" /><path clip-path="url(#clip820)" d="M4902.04 1203.28 L4902.04 1192.93 L4883.3 1192.93 L4883.3 1188.07 L4903.02 1160.08 L4907.35 1160.08 L4907.35 1188.07 L4913.18 1188.07 L4913.18 1192.93 L4907.35 1192.93 L4907.35 1203.28 L4902.04 1203.28 M4902.04 1188.07 L4902.04 1168.59 L4888.52 1188.07 L4902.04 1188.07 Z" fill="#000000" fill-rule="nonzero" fill-opacity="1" /><path clip-path="url(#clip820)" d="M5800.89 1191.96 L5806.46 1191.49 Q5807.08 1195.56 5809.32 1197.62 Q5811.59 1199.65 5814.77 1199.65 Q5818.6 1199.65 5821.25 1196.76 Q5823.9 1193.88 5823.9 1189.1 Q5823.9 1184.56 5821.34 1181.94 Q5818.81 1179.32 5814.68 1179.32 Q5812.12 1179.32 5810.05 1180.5 Q5807.99 1181.65 5806.81 1183.5 L5801.83 1182.86 L5806.02 1160.67 L5827.5 1160.67 L5827.5 1165.73 L5810.26 1165.73 L5807.93 1177.35 Q5811.82 1174.63 5816.09 1174.63 Q5821.75 1174.63 5825.64 1178.55 Q5829.53 1182.47 5829.53 1188.63 Q5829.53 1194.5 5826.11 1198.77 Q5821.96 1204.01 5814.77 1204.01 Q5808.88 1204.01 5805.13 1200.71 Q5801.42 1197.41 5800.89 1191.96 Z" fill="#000000" fill-rule="nonzero" fill-opacity="1" /><path clip-path="url(#clip820)" d="M3421.44 1312.59 L3422.36 1318.21 Q3419.68 1318.78 3417.55 1318.78 Q3414.09 1318.78 3412.18 1317.68 Q3410.27 1316.59 3409.49 1314.82 Q3408.71 1313.02 3408.71 1307.29 L3408.71 1285.68 L3404.05 1285.68 L3404.05 1280.73 L3408.71 1280.73 L3408.71 1271.43 L3415.04 1267.61 L3415.04 1280.73 L3421.44 1280.73 L3421.44 1285.68 L3415.04 1285.68 L3415.04 1307.64 Q3415.04 1310.36 3415.36 1311.14 Q3415.72 1311.92 3416.46 1312.38 Q3417.24 1312.84 3418.65 1312.84 Q3419.71 1312.84 3421.44 1312.59 Z" fill="#000000" fill-rule="nonzero" fill-opacity="1" /><path clip-path="url(#clip820)" d="M3427.7 1273.76 L3427.7 1266.44 L3434.07 1266.44 L3434.07 1273.76 L3427.7 1273.76 M3427.7 1318.28 L3427.7 1280.73 L3434.07 1280.73 L3434.07 1318.28 L3427.7 1318.28 Z" fill="#000000" fill-rule="nonzero" fill-opacity="1" /><path clip-path="url(#clip820)" d="M3443.76 1318.28 L3443.76 1280.73 L3449.45 1280.73 L3449.45 1286 Q3451.22 1283.24 3454.15 1281.58 Q3457.09 1279.88 3460.84 1279.88 Q3465.01 1279.88 3467.66 1281.62 Q3470.35 1283.35 3471.45 1286.46 Q3475.9 1279.88 3483.04 1279.88 Q3488.63 1279.88 3491.64 1282.99 Q3494.64 1286.07 3494.64 1292.51 L3494.64 1318.28 L3488.31 1318.28 L3488.31 1294.63 Q3488.31 1290.81 3487.68 1289.15 Q3487.07 1287.45 3485.45 1286.42 Q3483.82 1285.4 3481.63 1285.4 Q3477.67 1285.4 3475.05 1288.05 Q3472.44 1290.67 3472.44 1296.47 L3472.44 1318.28 L3466.07 1318.28 L3466.07 1293.89 Q3466.07 1289.64 3464.51 1287.52 Q3462.96 1285.4 3459.42 1285.4 Q3456.73 1285.4 3454.44 1286.81 Q3452.17 1288.23 3451.15 1290.95 Q3450.12 1293.67 3450.12 1298.8 L3450.12 1318.28 L3443.76 1318.28 Z" fill="#000000" fill-rule="nonzero" fill-opacity="1" /><path clip-path="url(#clip820)" d="M3529.79 1306.19 L3536.37 1307 Q3534.81 1312.77 3530.6 1315.95 Q3526.4 1319.13 3519.85 1319.13 Q3511.62 1319.13 3506.77 1314.08 Q3501.96 1308.98 3501.96 1299.83 Q3501.96 1290.35 3506.84 1285.12 Q3511.72 1279.88 3519.5 1279.88 Q3527.03 1279.88 3531.81 1285.01 Q3536.58 1290.14 3536.58 1299.44 Q3536.58 1300 3536.55 1301.13 L3508.54 1301.13 Q3508.89 1307.32 3512.04 1310.61 Q3515.19 1313.9 3519.89 1313.9 Q3523.39 1313.9 3525.87 1312.06 Q3528.34 1310.22 3529.79 1306.19 M3508.89 1295.9 L3529.86 1295.9 Q3529.44 1291.16 3527.46 1288.79 Q3524.42 1285.12 3519.57 1285.12 Q3515.19 1285.12 3512.18 1288.05 Q3509.21 1290.99 3508.89 1295.9 Z" fill="#000000" fill-rule="nonzero" fill-opacity="1" /><path clip-path="url(#clip820)" d="M3576.65 1333.53 Q3571.38 1326.88 3567.73 1317.97 Q3564.09 1309.06 3564.09 1299.51 Q3564.09 1291.09 3566.82 1283.38 Q3570 1274.44 3576.65 1265.56 L3581.21 1265.56 Q3576.93 1272.92 3575.55 1276.06 Q3573.39 1280.94 3572.15 1286.25 Q3570.63 1292.86 3570.63 1299.54 Q3570.63 1316.55 3581.21 1333.53 L3576.65 1333.53 Z" fill="#000000" fill-rule="nonzero" fill-opacity="1" /><path clip-path="url(#clip820)" d="M3588.31 1332.75 L3587.61 1326.77 Q3589.69 1327.34 3591.25 1327.34 Q3593.37 1327.34 3594.64 1326.63 Q3595.92 1325.92 3596.73 1324.65 Q3597.33 1323.7 3598.68 1319.91 Q3598.85 1319.38 3599.24 1318.36 L3584.99 1280.73 L3591.85 1280.73 L3599.67 1302.48 Q3601.19 1306.62 3602.39 1311.18 Q3603.48 1306.79 3605.01 1302.62 L3613.03 1280.73 L3619.4 1280.73 L3605.11 1318.92 Q3602.81 1325.11 3601.54 1327.44 Q3599.84 1330.59 3597.65 1332.04 Q3595.46 1333.53 3592.42 1333.53 Q3590.58 1333.53 3588.31 1332.75 Z" fill="#000000" fill-rule="nonzero" fill-opacity="1" /><path clip-path="url(#clip820)" d="M3628.98 1333.53 L3624.42 1333.53 Q3634.99 1316.55 3634.99 1299.54 Q3634.99 1292.9 3633.47 1286.35 Q3632.27 1281.05 3630.11 1276.17 Q3628.73 1272.99 3624.42 1265.56 L3628.98 1265.56 Q3635.63 1274.44 3638.81 1283.38 Q3641.53 1291.09 3641.53 1299.51 Q3641.53 1309.06 3637.86 1317.97 Q3634.21 1326.88 3628.98 1333.53 Z" fill="#000000" fill-rule="nonzero" fill-opacity="1" /><polyline clip-path="url(#clip822)" style="stroke:#000000; stroke-linecap:round; stroke-linejoin:round; stroke-width:2; stroke-opacity:0.1; fill:none" points="1092.82,1093.34 5952.76,1093.34 "/>
<polyline clip-path="url(#clip822)" style="stroke:#000000; stroke-linecap:round; stroke-linejoin:round; stroke-width:2; stroke-opacity:0.1; fill:none" points="1092.82,940.207 5952.76,940.207 "/>
<polyline clip-path="url(#clip822)" style="stroke:#000000; stroke-linecap:round; stroke-linejoin:round; stroke-width:2; stroke-opacity:0.1; fill:none" points="1092.82,787.07 5952.76,787.07 "/>
<polyline clip-path="url(#clip822)" style="stroke:#000000; stroke-linecap:round; stroke-linejoin:round; stroke-width:2; stroke-opacity:0.1; fill:none" points="1092.82,633.933 5952.76,633.933 "/>
<polyline clip-path="url(#clip822)" style="stroke:#000000; stroke-linecap:round; stroke-linejoin:round; stroke-width:2; stroke-opacity:0.1; fill:none" points="1092.82,480.795 5952.76,480.795 "/>
<polyline clip-path="url(#clip822)" style="stroke:#000000; stroke-linecap:round; stroke-linejoin:round; stroke-width:2; stroke-opacity:0.1; fill:none" points="1092.82,327.658 5952.76,327.658 "/>
<polyline clip-path="url(#clip822)" style="stroke:#000000; stroke-linecap:round; stroke-linejoin:round; stroke-width:2; stroke-opacity:0.1; fill:none" points="1092.82,174.521 5952.76,174.521 "/>
<polyline clip-path="url(#clip820)" style="stroke:#000000; stroke-linecap:round; stroke-linejoin:round; stroke-width:4; stroke-opacity:1; fill:none" points="1092.82,1101.28 1092.82,47.2441 "/>
<polyline clip-path="url(#clip820)" style="stroke:#000000; stroke-linecap:round; stroke-linejoin:round; stroke-width:4; stroke-opacity:1; fill:none" points="1092.82,1093.34 1111.72,1093.34 "/>
<polyline clip-path="url(#clip820)" style="stroke:#000000; stroke-linecap:round; stroke-linejoin:round; stroke-width:4; stroke-opacity:1; fill:none" points="1092.82,940.207 1111.72,940.207 "/>
<polyline clip-path="url(#clip820)" style="stroke:#000000; stroke-linecap:round; stroke-linejoin:round; stroke-width:4; stroke-opacity:1; fill:none" points="1092.82,787.07 1111.72,787.07 "/>
<polyline clip-path="url(#clip820)" style="stroke:#000000; stroke-linecap:round; stroke-linejoin:round; stroke-width:4; stroke-opacity:1; fill:none" points="1092.82,633.933 1111.72,633.933 "/>
<polyline clip-path="url(#clip820)" style="stroke:#000000; stroke-linecap:round; stroke-linejoin:round; stroke-width:4; stroke-opacity:1; fill:none" points="1092.82,480.795 1111.72,480.795 "/>
<polyline clip-path="url(#clip820)" style="stroke:#000000; stroke-linecap:round; stroke-linejoin:round; stroke-width:4; stroke-opacity:1; fill:none" points="1092.82,327.658 1111.72,327.658 "/>
<polyline clip-path="url(#clip820)" style="stroke:#000000; stroke-linecap:round; stroke-linejoin:round; stroke-width:4; stroke-opacity:1; fill:none" points="1092.82,174.521 1111.72,174.521 "/>
<path clip-path="url(#clip820)" d="M910.737 1114.94 L905.433 1114.94 L905.433 1081.14 Q903.517 1082.97 900.394 1084.8 Q897.299 1086.63 894.824 1087.54 L894.824 1082.41 Q899.274 1080.32 902.604 1077.34 Q905.933 1074.37 907.318 1071.57 L910.737 1071.57 L910.737 1114.94 Z" fill="#000000" fill-rule="nonzero" fill-opacity="1" /><path clip-path="url(#clip820)" d="M927.298 1114.94 L927.298 1108.9 L933.339 1108.9 L933.339 1114.94 L927.298 1114.94 Z" fill="#000000" fill-rule="nonzero" fill-opacity="1" /><path clip-path="url(#clip820)" d="M941.089 1103.63 L946.658 1103.16 Q947.277 1107.22 949.517 1109.29 Q951.786 1111.32 954.968 1111.32 Q958.799 1111.32 961.451 1108.43 Q964.103 1105.54 964.103 1100.77 Q964.103 1096.23 961.539 1093.61 Q959.005 1090.99 954.88 1090.99 Q952.316 1090.99 950.253 1092.17 Q948.191 1093.31 947.012 1095.17 L942.032 1094.52 L946.216 1072.33 L967.698 1072.33 L967.698 1077.4 L950.46 1077.4 L948.132 1089.01 Q952.021 1086.3 956.294 1086.3 Q961.952 1086.3 965.842 1090.22 Q969.732 1094.14 969.732 1100.3 Q969.732 1106.16 966.313 1110.44 Q962.158 1115.68 954.968 1115.68 Q949.075 1115.68 945.332 1112.38 Q941.619 1109.08 941.089 1103.63 Z" fill="#000000" fill-rule="nonzero" fill-opacity="1" /><path clip-path="url(#clip820)" d="M974.653 1093.64 Q974.653 1085.98 976.215 1081.32 Q977.806 1076.64 980.9 1074.1 Q984.024 1071.57 988.738 1071.57 Q992.216 1071.57 994.838 1072.98 Q997.461 1074.37 999.17 1077.02 Q1000.88 1079.64 1001.85 1083.44 Q1002.82 1087.22 1002.82 1093.64 Q1002.82 1101.24 1001.26 1105.93 Q999.7 1110.58 996.577 1113.15 Q993.483 1115.68 988.738 1115.68 Q982.491 1115.68 978.926 1111.2 Q974.653 1105.81 974.653 1093.64 M980.104 1093.64 Q980.104 1104.28 982.58 1107.81 Q985.084 1111.32 988.738 1111.32 Q992.392 1111.32 994.868 1107.78 Q997.372 1104.25 997.372 1093.64 Q997.372 1082.97 994.868 1079.46 Q992.392 1075.96 988.679 1075.96 Q985.025 1075.96 982.845 1079.05 Q980.104 1083 980.104 1093.64 Z" fill="#000000" fill-rule="nonzero" fill-opacity="1" /><path clip-path="url(#clip820)" d="M910.265 961.807 L904.961 961.807 L904.961 928.007 Q903.046 929.834 899.922 931.661 Q896.828 933.488 894.353 934.402 L894.353 929.275 Q898.802 927.182 902.132 924.206 Q905.462 921.23 906.847 918.43 L910.265 918.43 L910.265 961.807 Z" fill="#000000" fill-rule="nonzero" fill-opacity="1" /><path clip-path="url(#clip820)" d="M926.826 961.807 L926.826 955.766 L932.867 955.766 L932.867 961.807 L926.826 961.807 Z" fill="#000000" fill-rule="nonzero" fill-opacity="1" /><path clip-path="url(#clip820)" d="M940.971 924.265 L940.971 919.167 L968.936 919.167 L968.936 923.293 Q964.81 927.683 960.744 934.962 Q956.707 942.24 954.497 949.932 Q952.905 955.354 952.463 961.807 L947.012 961.807 Q947.1 956.709 949.016 949.49 Q950.931 942.27 954.497 935.581 Q958.092 928.862 962.129 924.265 L940.971 924.265 Z" fill="#000000" fill-rule="nonzero" fill-opacity="1" /><path clip-path="url(#clip820)" d="M974.181 950.491 L979.751 950.02 Q980.369 954.087 982.609 956.149 Q984.878 958.183 988.061 958.183 Q991.891 958.183 994.544 955.295 Q997.196 952.407 997.196 947.633 Q997.196 943.095 994.632 940.472 Q992.098 937.85 987.972 937.85 Q985.409 937.85 983.346 939.028 Q981.283 940.178 980.104 942.034 L975.124 941.386 L979.309 919.196 L1000.79 919.196 L1000.79 924.265 L983.552 924.265 L981.224 935.875 Q985.114 933.164 989.387 933.164 Q995.045 933.164 998.934 937.084 Q1002.82 941.003 1002.82 947.162 Q1002.82 953.026 999.406 957.299 Q995.251 962.544 988.061 962.544 Q982.167 962.544 978.425 959.243 Q974.712 955.943 974.181 950.491 Z" fill="#000000" fill-rule="nonzero" fill-opacity="1" /><path clip-path="url(#clip820)" d="M918.634 803.572 L918.634 808.67 L890.08 808.67 Q890.021 806.754 890.699 804.986 Q891.789 802.069 894.176 799.24 Q896.592 796.411 901.13 792.698 Q908.173 786.923 910.648 783.563 Q913.124 780.174 913.124 777.169 Q913.124 774.016 910.855 771.864 Q908.615 769.684 904.991 769.684 Q901.16 769.684 898.861 771.982 Q896.563 774.281 896.533 778.347 L891.082 777.787 Q891.642 771.688 895.296 768.505 Q898.95 765.293 905.108 765.293 Q911.326 765.293 914.951 768.741 Q918.575 772.189 918.575 777.287 Q918.575 779.88 917.514 782.384 Q916.454 784.889 913.978 787.659 Q911.532 790.429 905.816 795.262 Q901.042 799.27 899.686 800.714 Q898.331 802.128 897.447 803.572 L918.634 803.572 Z" fill="#000000" fill-rule="nonzero" fill-opacity="1" /><path clip-path="url(#clip820)" d="M927.298 808.67 L927.298 802.629 L933.339 802.629 L933.339 808.67 L927.298 808.67 Z" fill="#000000" fill-rule="nonzero" fill-opacity="1" /><path clip-path="url(#clip820)" d="M941.089 787.365 Q941.089 779.703 942.651 775.047 Q944.242 770.362 947.336 767.827 Q950.46 765.293 955.174 765.293 Q958.652 765.293 961.274 766.708 Q963.897 768.093 965.606 770.745 Q967.315 773.367 968.288 777.169 Q969.26 780.941 969.26 787.365 Q969.26 794.967 967.698 799.653 Q966.136 804.309 963.013 806.872 Q959.919 809.407 955.174 809.407 Q948.927 809.407 945.362 804.927 Q941.089 799.535 941.089 787.365 M946.54 787.365 Q946.54 798.002 949.016 801.539 Q951.52 805.045 955.174 805.045 Q958.828 805.045 961.304 801.509 Q963.809 797.973 963.809 787.365 Q963.809 776.697 961.304 773.19 Q958.828 769.684 955.115 769.684 Q951.461 769.684 949.281 772.778 Q946.54 776.727 946.54 787.365 Z" fill="#000000" fill-rule="nonzero" fill-opacity="1" /><path clip-path="url(#clip820)" d="M974.653 787.365 Q974.653 779.703 976.215 775.047 Q977.806 770.362 980.9 767.827 Q984.024 765.293 988.738 765.293 Q992.216 765.293 994.838 766.708 Q997.461 768.093 999.17 770.745 Q1000.88 773.367 1001.85 777.169 Q1002.82 780.941 1002.82 787.365 Q1002.82 794.967 1001.26 799.653 Q999.7 804.309 996.577 806.872 Q993.483 809.407 988.738 809.407 Q982.491 809.407 978.926 804.927 Q974.653 799.535 974.653 787.365 M980.104 787.365 Q980.104 798.002 982.58 801.539 Q985.084 805.045 988.738 805.045 Q992.392 805.045 994.868 801.509 Q997.372 797.973 997.372 787.365 Q997.372 776.697 994.868 773.19 Q992.392 769.684 988.679 769.684 Q985.025 769.684 982.845 772.778 Q980.104 776.727 980.104 787.365 Z" fill="#000000" fill-rule="nonzero" fill-opacity="1" /><path clip-path="url(#clip820)" d="M918.163 650.435 L918.163 655.533 L889.608 655.533 Q889.549 653.617 890.227 651.849 Q891.317 648.932 893.704 646.103 Q896.121 643.274 900.659 639.561 Q907.702 633.785 910.177 630.426 Q912.652 627.037 912.652 624.031 Q912.652 620.878 910.383 618.727 Q908.144 616.547 904.519 616.547 Q900.688 616.547 898.39 618.845 Q896.091 621.144 896.062 625.21 L890.61 624.65 Q891.17 618.55 894.824 615.368 Q898.478 612.156 904.637 612.156 Q910.855 612.156 914.479 615.604 Q918.104 619.051 918.104 624.149 Q918.104 626.742 917.043 629.247 Q915.982 631.752 913.507 634.522 Q911.061 637.292 905.344 642.125 Q900.57 646.132 899.215 647.576 Q897.859 648.991 896.975 650.435 L918.163 650.435 Z" fill="#000000" fill-rule="nonzero" fill-opacity="1" /><path clip-path="url(#clip820)" d="M926.826 655.533 L926.826 649.492 L932.867 649.492 L932.867 655.533 L926.826 655.533 Z" fill="#000000" fill-rule="nonzero" fill-opacity="1" /><path clip-path="url(#clip820)" d="M968.494 650.435 L968.494 655.533 L939.939 655.533 Q939.881 653.617 940.558 651.849 Q941.649 648.932 944.036 646.103 Q946.452 643.274 950.99 639.561 Q958.033 633.785 960.508 630.426 Q962.983 627.037 962.983 624.031 Q962.983 620.878 960.714 618.727 Q958.475 616.547 954.85 616.547 Q951.019 616.547 948.721 618.845 Q946.422 621.144 946.393 625.21 L940.941 624.65 Q941.501 618.55 945.155 615.368 Q948.809 612.156 954.968 612.156 Q961.186 612.156 964.81 615.604 Q968.435 619.051 968.435 624.149 Q968.435 626.742 967.374 629.247 Q966.313 631.752 963.838 634.522 Q961.392 637.292 955.675 642.125 Q950.902 646.132 949.546 647.576 Q948.191 648.991 947.306 650.435 L968.494 650.435 Z" fill="#000000" fill-rule="nonzero" fill-opacity="1" /><path clip-path="url(#clip820)" d="M974.181 644.217 L979.751 643.745 Q980.369 647.812 982.609 649.875 Q984.878 651.908 988.061 651.908 Q991.891 651.908 994.544 649.02 Q997.196 646.132 997.196 641.359 Q997.196 636.82 994.632 634.198 Q992.098 631.575 987.972 631.575 Q985.409 631.575 983.346 632.754 Q981.283 633.903 980.104 635.76 L975.124 635.111 L979.309 612.922 L1000.79 612.922 L1000.79 617.99 L983.552 617.99 L981.224 629.601 Q985.114 626.89 989.387 626.89 Q995.045 626.89 998.934 630.809 Q1002.82 634.728 1002.82 640.887 Q1002.82 646.751 999.406 651.024 Q995.251 656.269 988.061 656.269 Q982.167 656.269 978.425 652.969 Q974.712 649.669 974.181 644.217 Z" fill="#000000" fill-rule="nonzero" fill-opacity="1" /><path clip-path="url(#clip820)" d="M918.634 497.297 L918.634 502.395 L890.08 502.395 Q890.021 500.48 890.699 498.712 Q891.789 495.795 894.176 492.966 Q896.592 490.137 901.13 486.424 Q908.173 480.648 910.648 477.289 Q913.124 473.9 913.124 470.894 Q913.124 467.741 910.855 465.59 Q908.615 463.409 904.991 463.409 Q901.16 463.409 898.861 465.708 Q896.563 468.006 896.533 472.073 L891.082 471.513 Q891.642 465.413 895.296 462.231 Q898.95 459.019 905.108 459.019 Q911.326 459.019 914.951 462.466 Q918.575 465.914 918.575 471.012 Q918.575 473.605 917.514 476.11 Q916.454 478.615 913.978 481.385 Q911.532 484.155 905.816 488.987 Q901.042 492.995 899.686 494.439 Q898.331 495.854 897.447 497.297 L918.634 497.297 Z" fill="#000000" fill-rule="nonzero" fill-opacity="1" /><path clip-path="url(#clip820)" d="M927.298 502.395 L927.298 496.354 L933.339 496.354 L933.339 502.395 L927.298 502.395 Z" fill="#000000" fill-rule="nonzero" fill-opacity="1" /><path clip-path="url(#clip820)" d="M941.089 491.08 L946.658 490.608 Q947.277 494.675 949.517 496.738 Q951.786 498.771 954.968 498.771 Q958.799 498.771 961.451 495.883 Q964.103 492.995 964.103 488.221 Q964.103 483.683 961.539 481.061 Q959.005 478.438 954.88 478.438 Q952.316 478.438 950.253 479.617 Q948.191 480.766 947.012 482.622 L942.032 481.974 L946.216 459.785 L967.698 459.785 L967.698 464.853 L950.46 464.853 L948.132 476.464 Q952.021 473.753 956.294 473.753 Q961.952 473.753 965.842 477.672 Q969.732 481.591 969.732 487.75 Q969.732 493.614 966.313 497.887 Q962.158 503.132 954.968 503.132 Q949.075 503.132 945.332 499.832 Q941.619 496.531 941.089 491.08 Z" fill="#000000" fill-rule="nonzero" fill-opacity="1" /><path clip-path="url(#clip820)" d="M974.653 481.09 Q974.653 473.428 976.215 468.772 Q977.806 464.087 980.9 461.553 Q984.024 459.019 988.738 459.019 Q992.216 459.019 994.838 460.433 Q997.461 461.818 999.17 464.47 Q1000.88 467.093 1001.85 470.894 Q1002.82 474.666 1002.82 481.09 Q1002.82 488.693 1001.26 493.378 Q999.7 498.034 996.577 500.598 Q993.483 503.132 988.738 503.132 Q982.491 503.132 978.926 498.653 Q974.653 493.26 974.653 481.09 M980.104 481.09 Q980.104 491.728 982.58 495.264 Q985.084 498.771 988.738 498.771 Q992.392 498.771 994.868 495.235 Q997.372 491.699 997.372 481.09 Q997.372 470.423 994.868 466.916 Q992.392 463.409 988.679 463.409 Q985.025 463.409 982.845 466.503 Q980.104 470.452 980.104 481.09 Z" fill="#000000" fill-rule="nonzero" fill-opacity="1" /><path clip-path="url(#clip820)" d="M918.163 344.16 L918.163 349.258 L889.608 349.258 Q889.549 347.343 890.227 345.575 Q891.317 342.657 893.704 339.828 Q896.121 336.999 900.659 333.287 Q907.702 327.511 910.177 324.151 Q912.652 320.763 912.652 317.757 Q912.652 314.604 910.383 312.453 Q908.144 310.272 904.519 310.272 Q900.688 310.272 898.39 312.571 Q896.091 314.869 896.062 318.936 L890.61 318.376 Q891.17 312.276 894.824 309.093 Q898.478 305.881 904.637 305.881 Q910.855 305.881 914.479 309.329 Q918.104 312.777 918.104 317.875 Q918.104 320.468 917.043 322.973 Q915.982 325.478 913.507 328.248 Q911.061 331.017 905.344 335.85 Q900.57 339.858 899.215 341.302 Q897.859 342.716 896.975 344.16 L918.163 344.16 Z" fill="#000000" fill-rule="nonzero" fill-opacity="1" /><path clip-path="url(#clip820)" d="M926.826 349.258 L926.826 343.217 L932.867 343.217 L932.867 349.258 L926.826 349.258 Z" fill="#000000" fill-rule="nonzero" fill-opacity="1" /><path clip-path="url(#clip820)" d="M940.971 311.716 L940.971 306.618 L968.936 306.618 L968.936 310.744 Q964.81 315.134 960.744 322.413 Q956.707 329.691 954.497 337.383 Q952.905 342.805 952.463 349.258 L947.012 349.258 Q947.1 344.16 949.016 336.941 Q950.931 329.721 954.497 323.032 Q958.092 316.313 962.129 311.716 L940.971 311.716 Z" fill="#000000" fill-rule="nonzero" fill-opacity="1" /><path clip-path="url(#clip820)" d="M974.181 337.942 L979.751 337.471 Q980.369 341.538 982.609 343.6 Q984.878 345.634 988.061 345.634 Q991.891 345.634 994.544 342.746 Q997.196 339.858 997.196 335.084 Q997.196 330.546 994.632 327.923 Q992.098 325.301 987.972 325.301 Q985.409 325.301 983.346 326.479 Q981.283 327.629 980.104 329.485 L975.124 328.837 L979.309 306.648 L1000.79 306.648 L1000.79 311.716 L983.552 311.716 L981.224 323.326 Q985.114 320.615 989.387 320.615 Q995.045 320.615 998.934 324.535 Q1002.82 328.454 1002.82 334.613 Q1002.82 340.477 999.406 344.75 Q995.251 349.995 988.061 349.995 Q982.167 349.995 978.425 346.694 Q974.712 343.394 974.181 337.942 Z" fill="#000000" fill-rule="nonzero" fill-opacity="1" /><path clip-path="url(#clip820)" d="M890.787 184.717 L896.091 184.01 Q897.005 188.518 899.185 190.522 Q901.395 192.496 904.548 192.496 Q908.291 192.496 910.855 189.903 Q913.448 187.31 913.448 183.479 Q913.448 179.825 911.061 177.468 Q908.674 175.081 904.991 175.081 Q903.488 175.081 901.248 175.67 L901.837 171.014 Q902.368 171.073 902.692 171.073 Q906.081 171.073 908.792 169.305 Q911.503 167.537 911.503 163.854 Q911.503 160.936 909.529 159.021 Q907.554 157.105 904.431 157.105 Q901.336 157.105 899.274 159.05 Q897.211 160.995 896.622 164.885 L891.317 163.942 Q892.29 158.608 895.738 155.691 Q899.185 152.744 904.313 152.744 Q907.849 152.744 910.825 154.276 Q913.801 155.779 915.363 158.402 Q916.954 161.025 916.954 163.971 Q916.954 166.771 915.452 169.069 Q913.949 171.368 911.002 172.723 Q914.833 173.607 916.954 176.407 Q919.076 179.177 919.076 183.361 Q919.076 189.019 914.951 192.968 Q910.825 196.887 904.519 196.887 Q898.832 196.887 895.06 193.498 Q891.317 190.109 890.787 184.717 Z" fill="#000000" fill-rule="nonzero" fill-opacity="1" /><path clip-path="url(#clip820)" d="M927.298 196.121 L927.298 190.08 L933.339 190.08 L933.339 196.121 L927.298 196.121 Z" fill="#000000" fill-rule="nonzero" fill-opacity="1" /><path clip-path="url(#clip820)" d="M941.089 174.816 Q941.089 167.154 942.651 162.498 Q944.242 157.813 947.336 155.278 Q950.46 152.744 955.174 152.744 Q958.652 152.744 961.274 154.159 Q963.897 155.544 965.606 158.196 Q967.315 160.818 968.288 164.62 Q969.26 168.392 969.26 174.816 Q969.26 182.418 967.698 187.104 Q966.136 191.76 963.013 194.323 Q959.919 196.858 955.174 196.858 Q948.927 196.858 945.362 192.378 Q941.089 186.986 941.089 174.816 M946.54 174.816 Q946.54 185.454 949.016 188.99 Q951.52 192.496 955.174 192.496 Q958.828 192.496 961.304 188.96 Q963.809 185.424 963.809 174.816 Q963.809 164.148 961.304 160.641 Q958.828 157.135 955.115 157.135 Q951.461 157.135 949.281 160.229 Q946.54 164.178 946.54 174.816 Z" fill="#000000" fill-rule="nonzero" fill-opacity="1" /><path clip-path="url(#clip820)" d="M974.653 174.816 Q974.653 167.154 976.215 162.498 Q977.806 157.813 980.9 155.278 Q984.024 152.744 988.738 152.744 Q992.216 152.744 994.838 154.159 Q997.461 155.544 999.17 158.196 Q1000.88 160.818 1001.85 164.62 Q1002.82 168.392 1002.82 174.816 Q1002.82 182.418 1001.26 187.104 Q999.7 191.76 996.577 194.323 Q993.483 196.858 988.738 196.858 Q982.491 196.858 978.926 192.378 Q974.653 186.986 974.653 174.816 M980.104 174.816 Q980.104 185.454 982.58 188.99 Q985.084 192.496 988.738 192.496 Q992.392 192.496 994.868 188.96 Q997.372 185.424 997.372 174.816 Q997.372 164.148 994.868 160.641 Q992.392 157.135 988.679 157.135 Q985.025 157.135 982.845 160.229 Q980.104 164.178 980.104 174.816 Z" fill="#000000" fill-rule="nonzero" fill-opacity="1" /><path clip-path="url(#clip820)" d="M798.46 601.949 L792.484 602.656 Q793.05 600.569 793.05 599.014 Q793.05 596.892 792.343 595.619 Q791.635 594.346 790.362 593.533 Q789.408 592.931 785.624 591.588 Q785.094 591.411 784.068 591.022 L746.443 605.273 L746.443 598.412 L768.191 590.598 Q772.328 589.077 776.89 587.875 Q772.505 586.778 768.332 585.258 L746.443 577.231 L746.443 570.866 L784.634 585.152 Q790.822 587.45 793.156 588.723 Q796.303 590.421 797.753 592.613 Q799.238 594.806 799.238 597.847 Q799.238 599.685 798.46 601.949 Z" fill="#000000" fill-rule="nonzero" fill-opacity="1" /><path clip-path="url(#clip820)" d="M783.997 543.248 L783.997 549.614 L743.438 549.614 Q745.63 551.912 747.822 555.66 Q750.015 559.373 751.111 562.344 L744.958 562.344 Q742.448 557.004 738.876 553.008 Q735.304 549.012 731.945 547.35 L731.945 543.248 L783.997 543.248 Z" fill="#000000" fill-rule="nonzero" fill-opacity="1" /><polyline clip-path="url(#clip822)" style="stroke:#90ee90; stroke-linecap:round; stroke-linejoin:round; stroke-width:40; stroke-opacity:1; fill:none" points="1230.37,84.955 1239.54,86.6483 1248.71,88.5319 1257.88,90.6061 1267.05,92.8709 1276.22,95.3261 1285.39,97.9714 1294.56,100.807 1303.73,103.831 1312.9,107.044 1322.07,110.445 1331.24,114.033 1340.41,117.807 1349.58,121.765 1358.74,125.907 1367.91,130.23 1377.08,134.734 1386.25,139.415 1395.42,144.274 1404.59,149.306 1413.76,154.51 1422.93,159.885 1432.1,165.426 1441.27,171.133 1450.44,177.001 1459.61,183.028 1468.78,189.211 1477.95,195.547 1487.12,202.033 1496.29,208.665 1505.46,215.44 1514.63,222.354 1523.8,229.404 1532.97,236.585 1542.14,243.895 1551.31,251.328 1560.48,258.881 1569.65,266.551 1578.82,274.332 1587.99,282.22 1597.16,290.212 1606.33,298.302 1615.5,306.487 1624.67,314.761 1633.84,323.121 1643.01,331.563 1652.17,340.08 1661.34,348.67 1670.51,357.327 1679.68,366.047 1688.85,374.826 1698.02,383.658 1707.19,392.54 1716.36,401.466 1725.53,410.434 1734.7,419.437 1743.87,428.471 1753.04,437.533 1762.21,446.618 1771.38,455.722 1780.55,464.84 1789.72,473.969 1798.89,483.104 1808.06,492.241 1817.23,501.376 1826.4,510.506 1835.57,519.626 1844.74,528.733 1853.91,537.823 1863.08,546.892 1872.25,555.938 1881.42,564.956 1890.59,573.943 1899.76,582.896 1908.93,591.812 1918.1,600.687 1927.27,609.519 1936.43,618.304 1945.6,627.04 1954.77,635.724 1963.94,644.353 1973.11,652.926 1982.28,661.438 1991.45,669.888 2000.62,678.274 2009.79,686.593 2018.96,694.843 2028.13,703.022 2037.3,711.128 2046.47,719.16 2055.64,727.115 2064.81,734.991 2073.98,742.788 2083.15,750.503 2092.32,758.135 2101.49,765.683 2110.66,773.146 2119.83,780.521 2129,787.808 2138.17,795.006 2147.34,802.114 2156.51,809.131 2165.68,816.056 2174.85,822.888 2184.02,829.627 2193.19,836.271 2202.36,842.821 2211.53,849.275 2220.7,855.633 2229.86,861.895 2239.03,868.06 2248.2,874.129 2257.37,880.099 2266.54,885.973 2275.71,891.748 2284.88,897.426 2294.05,903.006 2303.22,908.488 2312.39,913.872 2321.56,919.158 2330.73,924.346 2339.9,929.437 2349.07,934.429 2358.24,939.325 2367.41,944.123 2376.58,948.824 2385.75,953.429 2394.92,957.937 2404.09,962.349 2413.26,966.666 2422.43,970.887 2431.6,975.013 2440.77,979.045 2449.94,982.982 2459.11,986.826 2468.28,990.576 2477.45,994.234 2486.62,997.8 2495.79,1001.27 2504.96,1004.66 2514.12,1007.95 2523.29,1011.15 2532.46,1014.26 2541.63,1017.29 2550.8,1020.22 2559.97,1023.07 2569.14,1025.82 2578.31,1028.5 2587.48,1031.08 2596.65,1033.58 2605.82,1036 2614.99,1038.33 2624.16,1040.57 2633.33,1042.73 2642.5,1044.81 2651.67,1046.81 2660.84,1048.72 2670.01,1050.56 2679.18,1052.31 2688.35,1053.98 2697.52,1055.57 2706.69,1057.09 2715.86,1058.52 2725.03,1059.88 2734.2,1061.15 2743.37,1062.35 2752.54,1063.48 2761.71,1064.53 2770.88,1065.5 2780.05,1066.4 2789.22,1067.22 2798.39,1067.96 2807.55,1068.64 2816.72,1069.24 2825.89,1069.77 2835.06,1070.22 2844.23,1070.6 2853.4,1070.91 2862.57,1071.15 2871.74,1071.32 2880.91,1071.42 2890.08,1071.45 2899.25,1071.4 2908.42,1071.29 2917.59,1071.11 2926.76,1070.86 2935.93,1070.54 2945.1,1070.16 2954.27,1069.71 2963.44,1069.19 2972.61,1068.6 2981.78,1067.94 2990.95,1067.22 3000.12,1066.44 3009.29,1065.59 3018.46,1064.67 3027.63,1063.69 3036.8,1062.64 3045.97,1061.53 3055.14,1060.35 3064.31,1059.11 3073.48,1057.81 3082.65,1056.44 3091.81,1055.01 3100.98,1053.52 3110.15,1051.97 3119.32,1050.35 3128.49,1048.67 3137.66,1046.93 3146.83,1045.12 3156,1043.26 3165.17,1041.33 3174.34,1039.35 3183.51,1037.3 3192.68,1035.19 3201.85,1033.03 3211.02,1030.8 3220.19,1028.51 3229.36,1026.16 3238.53,1023.76 3247.7,1021.29 3256.87,1018.77 3266.04,1016.18 3275.21,1013.54 3284.38,1010.84 3293.55,1008.08 3302.72,1005.26 3311.89,1002.39 3321.06,999.457 3330.23,996.468 3339.4,993.421 3348.57,990.317 3357.74,987.156 3366.91,983.939 3376.07,980.665 3385.24,977.335 3394.41,973.948 3403.58,970.506 3412.75,967.008 3421.92,963.454 3431.09,959.845 3440.26,956.18 3449.43,952.461 3458.6,948.687 3467.77,944.858 3476.94,940.974 3486.11,937.036 3495.28,933.044 3504.45,928.998 3513.62,924.899 3522.79,920.745 3531.96,916.539 3541.13,912.279 3550.3,907.966 3559.47,903.601 3568.64,899.183 3577.81,894.713 3586.98,890.19 3596.15,885.616 3605.32,880.99 3614.49,876.312 3623.66,871.583 3632.83,866.803 3642,861.973 3651.17,857.092 3660.34,852.16 3669.5,847.179 3678.67,842.148 3687.84,837.067 3697.01,831.938 3706.18,826.759 3715.35,821.532 3724.52,816.257 3733.69,810.933 3742.86,805.563 3752.03,800.144 3761.2,794.679 3770.37,789.167 3779.54,783.61 3788.71,778.006 3797.88,772.357 3807.05,766.663 3816.22,760.924 3825.39,755.141 3834.56,749.314 3843.73,743.445 3852.9,737.532 3862.07,731.577 3871.24,725.581 3880.41,719.543 3889.58,713.465 3898.75,707.346 3907.92,701.188 3917.09,694.992 3926.26,688.757 3935.43,682.484 3944.6,676.174 3953.77,669.828 3962.93,663.446 3972.1,657.03 3981.27,650.579 3990.44,644.095 3999.61,637.579 4008.78,631.031 4017.95,624.452 4027.12,617.843 4036.29,611.204 4045.46,604.538 4054.63,597.844 4063.8,591.124 4072.97,584.378 4082.14,577.608 4091.31,570.815 4100.48,564 4109.65,557.163 4118.82,550.307 4127.99,543.431 4137.16,536.538 4146.33,529.629 4155.5,522.704 4164.67,515.765 4173.84,508.814 4183.01,501.851 4192.18,494.878 4201.35,487.897 4210.52,480.909 4219.69,473.914 4228.86,466.916 4238.03,459.914 4247.19,452.912 4256.36,445.91 4265.53,438.909 4274.7,431.913 4283.87,424.921 4293.04,417.937 4302.21,410.961 4311.38,403.995 4320.55,397.042 4329.72,390.102 4338.89,383.179 4348.06,376.273 4357.23,369.387 4366.4,362.523 4375.57,355.682 4384.74,348.867 4393.91,342.079 4403.08,335.321 4412.25,328.596 4421.42,321.904 4430.59,315.248 4439.76,308.63 4448.93,302.053 4458.1,295.52 4467.27,289.031 4476.44,282.59 4485.61,276.198 4494.78,269.859 4503.95,263.575 4513.12,257.347 4522.29,251.18 4531.45,245.074 4540.62,239.033 4549.79,233.059 4558.96,227.155 4568.13,221.324 4577.3,215.567 4586.47,209.889 4595.64,204.29 4604.81,198.775 4613.98,193.345 4623.15,188.004 4632.32,182.755 4641.49,177.599 4650.66,172.54 4659.83,167.581 4669,162.724 4678.17,157.973 4687.34,153.329 4696.51,148.796 4705.68,144.377 4714.85,140.075 4724.02,135.892 4733.19,131.831 4742.36,127.895 4751.53,124.086 4760.7,120.408 4769.87,116.864 4779.04,113.455 4788.21,110.185 4797.38,107.056 4806.55,104.071 4815.72,101.233 4824.89,98.5443 4834.05,96.0072 4843.22,93.6242 4852.39,91.398 4861.56,89.3308 4870.73,87.4249 4879.9,85.6827 4889.07,84.1064 4898.24,82.698 4907.41,81.4596 4916.58,80.3934 4925.75,79.501 4934.92,78.7844 4944.09,78.2453 4953.26,77.8854 4962.43,77.7061 4971.6,77.709 4980.77,77.8954 4989.94,78.2664 4999.11,78.8233 5008.28,79.5671 5017.45,80.4987 5026.62,81.6187 5035.79,82.9281 5044.96,84.4271 5054.13,86.1164 5063.3,87.9961 5072.47,90.0665 5081.64,92.3276 5090.81,94.7793 5099.98,97.4212 5109.15,100.253 5118.31,103.275 5127.48,106.485 5136.65,109.883 5145.82,113.468 5154.99,117.24 5164.16,121.196 5173.33,125.336 5182.5,129.657 5191.67,134.159 5200.84,138.839 5210.01,143.695 5219.18,148.726 5228.35,153.93 5237.52,159.303 5246.69,164.844 5255.86,170.549 5265.03,176.417 5274.2,182.444 5283.37,188.627 5292.54,194.963 5301.71,201.449 5310.88,208.082 5320.05,214.858 5329.22,221.773 5338.39,228.824 5347.56,236.006 5356.73,243.317 5365.9,250.753 5375.07,258.308 5384.24,265.979 5393.41,273.762 5402.58,281.653 5411.74,289.647 5420.91,297.741 5430.08,305.928 5439.25,314.206 5448.42,322.569 5457.59,331.015 5466.76,339.536 5475.93,348.13 5485.1,356.791 5494.27,365.515 5503.44,374.298 5512.61,383.135 5521.78,392.021 5530.95,400.953 5540.12,409.925 5549.29,418.933 5558.46,427.973 5567.63,437.041 5576.8,446.131 5585.97,455.241 5595.14,464.365 5604.31,473.5 5613.48,482.641 5622.65,491.784 5631.82,500.926 5640.99,510.062 5650.16,519.189 5659.33,528.302 5668.5,537.399 5677.67,546.475 5686.84,555.528 5696,564.553 5705.17,573.547 5714.34,582.507 5723.51,591.43 5732.68,600.312 5741.85,609.152 5751.02,617.944 5760.19,626.688 5769.36,635.379 5778.53,644.016 5787.7,652.596 5796.87,661.116 5806.04,669.573 5815.21,677.967 "/>
<polyline clip-path="url(#clip822)" style="stroke:#0000ff; stroke-linecap:round; stroke-linejoin:round; stroke-width:12; stroke-opacity:1; fill:none" points="1230.37,84.8037 1239.54,86.5141 1248.71,88.4145 1257.88,90.5053 1267.05,92.7862 1276.22,95.2573 1285.39,97.9181 1294.56,100.768 1303.73,103.807 1312.9,107.034 1322.07,110.449 1331.24,114.05 1340.41,117.835 1349.58,121.805 1358.74,125.957 1367.91,130.29 1377.08,134.803 1386.25,139.493 1395.42,144.358 1404.59,149.397 1413.76,154.607 1422.93,159.986 1432.1,165.532 1441.27,171.241 1450.44,177.111 1459.61,183.139 1468.78,189.323 1477.95,195.658 1487.12,202.142 1496.29,208.772 1505.46,215.543 1514.63,222.454 1523.8,229.499 1532.97,236.675 1542.14,243.978 1551.31,251.405 1560.48,258.951 1569.65,266.612 1578.82,274.385 1587.99,282.265 1597.16,290.247 1606.33,298.328 1615.5,306.503 1624.67,314.768 1633.84,323.119 1643.01,331.55 1652.17,340.058 1661.34,348.638 1670.51,357.285 1679.68,365.995 1688.85,374.764 1698.02,383.588 1707.19,392.461 1716.36,401.379 1725.53,410.338 1734.7,419.333 1743.87,428.36 1753.04,437.416 1762.21,446.494 1771.38,455.592 1780.55,464.705 1789.72,473.829 1798.89,482.959 1808.06,492.092 1817.23,501.224 1826.4,510.351 1835.57,519.469 1844.74,528.574 1853.91,537.663 1863.08,546.731 1872.25,555.776 1881.42,564.794 1890.59,573.781 1899.76,582.735 1908.93,591.652 1918.1,600.528 1927.27,609.361 1936.43,618.148 1945.6,626.886 1954.77,635.572 1963.94,644.203 1973.11,652.778 1982.28,661.292 1991.45,669.745 2000.62,678.133 2009.79,686.454 2018.96,694.706 2028.13,702.887 2037.3,710.995 2046.47,719.029 2055.64,726.985 2064.81,734.864 2073.98,742.661 2083.15,750.378 2092.32,758.011 2101.49,765.559 2110.66,773.022 2119.83,780.398 2129,787.685 2138.17,794.882 2147.34,801.99 2156.51,809.006 2165.68,815.929 2174.85,822.76 2184.02,829.496 2193.19,836.139 2202.36,842.686 2211.53,849.138 2220.7,855.493 2229.86,861.752 2239.03,867.914 2248.2,873.978 2257.37,879.945 2266.54,885.815 2275.71,891.586 2284.88,897.26 2294.05,902.835 2303.22,908.312 2312.39,913.692 2321.56,918.973 2330.73,924.156 2339.9,929.241 2349.07,934.229 2358.24,939.119 2367.41,943.912 2376.58,948.608 2385.75,953.208 2394.92,957.71 2404.09,962.117 2413.26,966.429 2422.43,970.645 2431.6,974.766 2440.77,978.792 2449.94,982.725 2459.11,986.564 2468.28,990.31 2477.45,993.963 2486.62,997.524 2495.79,1000.99 2504.96,1004.37 2514.12,1007.66 2523.29,1010.86 2532.46,1013.97 2541.63,1016.99 2550.8,1019.92 2559.97,1022.76 2569.14,1025.52 2578.31,1028.19 2587.48,1030.77 2596.65,1033.27 2605.82,1035.68 2614.99,1038.01 2624.16,1040.25 2633.33,1042.41 2642.5,1044.49 2651.67,1046.49 2660.84,1048.4 2670.01,1050.23 2679.18,1051.98 2688.35,1053.66 2697.52,1055.25 2706.69,1056.76 2715.86,1058.2 2725.03,1059.55 2734.2,1060.83 2743.37,1062.03 2752.54,1063.16 2761.71,1064.21 2770.88,1065.18 2780.05,1066.08 2789.22,1066.91 2798.39,1067.66 2807.55,1068.33 2816.72,1068.94 2825.89,1069.47 2835.06,1069.92 2844.23,1070.31 2853.4,1070.62 2862.57,1070.87 2871.74,1071.04 2880.91,1071.14 2890.08,1071.17 2899.25,1071.13 2908.42,1071.03 2917.59,1070.85 2926.76,1070.61 2935.93,1070.29 2945.1,1069.91 2954.27,1069.46 2963.44,1068.95 2972.61,1068.37 2981.78,1067.72 2990.95,1067 3000.12,1066.22 3009.29,1065.37 3018.46,1064.46 3027.63,1063.48 3036.8,1062.44 3045.97,1061.34 3055.14,1060.17 3064.31,1058.93 3073.48,1057.63 3082.65,1056.27 3091.81,1054.85 3100.98,1053.36 3110.15,1051.81 3119.32,1050.2 3128.49,1048.52 3137.66,1046.79 3146.83,1044.99 3156,1043.13 3165.17,1041.21 3174.34,1039.23 3183.51,1037.18 3192.68,1035.08 3201.85,1032.92 3211.02,1030.69 3220.19,1028.41 3229.36,1026.07 3238.53,1023.66 3247.7,1021.2 3256.87,1018.68 3266.04,1016.1 3275.21,1013.46 3284.38,1010.77 3293.55,1008.01 3302.72,1005.2 3311.89,1002.33 3321.06,999.4 3330.23,996.414 3339.4,993.37 3348.57,990.27 3357.74,987.112 3366.91,983.898 3376.07,980.628 3385.24,977.301 3394.41,973.917 3403.58,970.478 3412.75,966.983 3421.92,963.433 3431.09,959.827 3440.26,956.165 3449.43,952.449 3458.6,948.678 3467.77,944.852 3476.94,940.972 3486.11,937.037 3495.28,933.049 3504.45,929.006 3513.62,924.91 3522.79,920.76 3531.96,916.557 3541.13,912.301 3550.3,907.992 3559.47,903.63 3568.64,899.216 3577.81,894.749 3586.98,890.231 3596.15,885.66 3605.32,881.039 3614.49,876.365 3623.66,871.641 3632.83,866.866 3642,862.04 3651.17,857.164 3660.34,852.238 3669.5,847.262 3678.67,842.236 3687.84,837.161 3697.01,832.038 3706.18,826.865 3715.35,821.644 3724.52,816.375 3733.69,811.059 3742.86,805.694 3752.03,800.283 3761.2,794.825 3770.37,789.321 3779.54,783.771 3788.71,778.175 3797.88,772.533 3807.05,766.847 3816.22,761.117 3825.39,755.343 3834.56,749.525 3843.73,743.664 3852.9,737.76 3862.07,731.815 3871.24,725.828 3880.41,719.799 3889.58,713.731 3898.75,707.622 3907.92,701.474 3917.09,695.287 3926.26,689.062 3935.43,682.799 3944.6,676.5 3953.77,670.164 3962.93,663.793 3972.1,657.387 3981.27,650.946 3990.44,644.473 3999.61,637.967 4008.78,631.429 4017.95,624.86 4027.12,618.26 4036.29,611.632 4045.46,604.975 4054.63,598.291 4063.8,591.58 4072.97,584.844 4082.14,578.083 4091.31,571.299 4100.48,564.492 4109.65,557.664 4118.82,550.815 4127.99,543.948 4137.16,537.062 4146.33,530.159 4155.5,523.241 4164.67,516.308 4173.84,509.363 4183.01,502.405 4192.18,495.437 4201.35,488.46 4210.52,481.476 4219.69,474.485 4228.86,467.489 4238.03,460.49 4247.19,453.489 4256.36,446.487 4265.53,439.488 4274.7,432.491 4283.87,425.498 4293.04,418.512 4302.21,411.534 4311.38,404.566 4320.55,397.609 4329.72,390.665 4338.89,383.737 4348.06,376.825 4357.23,369.933 4366.4,363.062 4375.57,356.213 4384.74,349.39 4393.91,342.593 4403.08,335.826 4412.25,329.09 4421.42,322.387 4430.59,315.719 4439.76,309.09 4448.93,302.5 4458.1,295.952 4467.27,289.449 4476.44,282.994 4485.61,276.587 4494.78,270.232 4503.95,263.931 4513.12,257.687 4522.29,251.502 4531.45,245.379 4540.62,239.319 4549.79,233.327 4558.96,227.404 4568.13,221.553 4577.3,215.777 4586.47,210.078 4595.64,204.459 4604.81,198.923 4613.98,193.473 4623.15,188.111 4632.32,182.84 4641.49,177.663 4650.66,172.583 4659.83,167.602 4669,162.723 4678.17,157.95 4687.34,153.285 4696.51,148.731 4705.68,144.29 4714.85,139.966 4724.02,135.761 4733.19,131.679 4742.36,127.722 4751.53,123.892 4760.7,120.193 4769.87,116.628 4779.04,113.199 4788.21,109.908 4797.38,106.759 4806.55,103.755 4815.72,100.897 4824.89,98.1888 4834.05,95.6325 4843.22,93.2308 4852.39,90.9859 4861.56,88.9003 4870.73,86.9764 4879.9,85.2163 4889.07,83.6224 4898.24,82.1966 4907.41,80.9411 4916.58,79.8579 4925.75,78.9487 4934.92,78.2156 4944.09,77.6601 4953.26,77.2838 4962.43,77.0884 4971.6,77.0752 4980.77,77.2456 4989.94,77.6007 4999.11,78.1417 5008.28,78.8695 5017.45,79.7851 5026.62,80.8892 5035.79,82.1825 5044.96,83.6654 5054.13,85.3384 5063.3,87.2016 5072.47,89.2554 5081.64,91.4995 5090.81,93.9341 5099.98,96.5586 5109.15,99.373 5118.31,102.376 5127.48,105.568 5136.65,108.948 5145.82,112.514 5154.99,116.266 5164.16,120.202 5173.33,124.322 5182.5,128.622 5191.67,133.103 5200.84,137.762 5210.01,142.596 5219.18,147.605 5228.35,152.786 5237.52,158.136 5246.69,163.653 5255.86,169.335 5265.03,175.179 5274.2,181.181 5283.37,187.339 5292.54,193.65 5301.71,200.111 5310.88,206.718 5320.05,213.468 5329.22,220.357 5338.39,227.383 5347.56,234.54 5356.73,241.825 5365.9,249.235 5375.07,256.765 5384.24,264.411 5393.41,272.17 5402.58,280.036 5411.74,288.007 5420.91,296.077 5430.08,304.241 5439.25,312.497 5448.42,320.839 5457.59,329.264 5466.76,337.765 5475.93,346.34 5485.1,354.983 5494.27,363.691 5503.44,372.458 5512.61,381.28 5521.78,390.153 5530.95,399.072 5540.12,408.033 5549.29,417.031 5558.46,426.062 5567.63,435.122 5576.8,444.206 5585.97,453.311 5595.14,462.432 5604.31,471.563 5613.48,480.703 5622.65,489.846 5631.82,498.99 5640.99,508.128 5650.16,517.258 5659.33,526.377 5668.5,535.48 5677.67,544.563 5686.84,553.623 5696,562.657 5705.17,571.661 5714.34,580.632 5723.51,589.567 5732.68,598.462 5741.85,607.315 5751.02,616.122 5760.19,624.88 5769.36,633.587 5778.53,642.24 5787.7,650.836 5796.87,659.373 5806.04,667.848 5815.21,676.259 "/>
<polyline clip-path="url(#clip822)" style="stroke:#ff0000; stroke-linecap:round; stroke-linejoin:round; stroke-width:12; stroke-opacity:1; fill:none" points="1230.37,84.955 1239.54,85.0985 1248.71,85.4311 1257.88,85.9536 1267.05,86.6665 1276.22,87.5704 1285.39,88.6655 1294.56,89.9521 1303.73,91.4302 1312.9,93.0998 1322.07,94.9606 1331.24,97.0124 1340.41,99.2545 1349.58,101.687 1358.74,104.308 1367.91,107.117 1377.08,110.113 1386.25,113.296 1395.42,116.663 1404.59,120.213 1413.76,123.945 1422.93,127.857 1432.1,131.947 1441.27,136.214 1450.44,140.654 1459.61,145.267 1468.78,150.05 1477.95,154.999 1487.12,160.114 1496.29,165.39 1505.46,170.826 1514.63,176.418 1523.8,182.164 1532.97,188.061 1542.14,194.104 1551.31,200.292 1560.48,206.62 1569.65,213.085 1578.82,219.685 1587.99,226.414 1597.16,233.271 1606.33,240.25 1615.5,247.348 1624.67,254.562 1633.84,261.887 1643.01,269.319 1652.17,276.856 1661.34,284.491 1670.51,292.223 1679.68,300.046 1688.85,307.957 1698.02,315.951 1707.19,324.024 1716.36,332.173 1725.53,340.392 1734.7,348.679 1743.87,357.029 1753.04,365.437 1762.21,373.9 1771.38,382.414 1780.55,390.974 1789.72,399.577 1798.89,408.219 1808.06,416.895 1817.23,425.602 1826.4,434.335 1835.57,443.092 1844.74,451.867 1853.91,460.658 1863.08,469.46 1872.25,478.27 1881.42,487.084 1890.59,495.899 1899.76,504.711 1908.93,513.516 1918.1,522.312 1927.27,531.094 1936.43,539.86 1945.6,548.605 1954.77,557.328 1963.94,566.025 1973.11,574.693 1982.28,583.329 1991.45,591.929 2000.62,600.492 2009.79,609.014 2018.96,617.493 2028.13,625.925 2037.3,634.309 2046.47,642.643 2055.64,650.922 2064.81,659.146 2073.98,667.312 2083.15,675.418 2092.32,683.461 2101.49,691.44 2110.66,699.352 2119.83,707.196 2129,714.97 2138.17,722.672 2147.34,730.3 2156.51,737.853 2165.68,745.329 2174.85,752.727 2184.02,760.045 2193.19,767.282 2202.36,774.437 2211.53,781.508 2220.7,788.494 2229.86,795.395 2239.03,802.209 2248.2,808.934 2257.37,815.572 2266.54,822.119 2275.71,828.577 2284.88,834.943 2294.05,841.217 2303.22,847.4 2312.39,853.489 2321.56,859.485 2330.73,865.387 2339.9,871.194 2349.07,876.907 2358.24,882.525 2367.41,888.048 2376.58,893.476 2385.75,898.807 2394.92,904.044 2404.09,909.184 2413.26,914.228 2422.43,919.176 2431.6,924.029 2440.77,928.786 2449.94,933.446 2459.11,938.012 2468.28,942.481 2477.45,946.856 2486.62,951.135 2495.79,955.32 2504.96,959.409 2514.12,963.405 2523.29,967.306 2532.46,971.114 2541.63,974.829 2550.8,978.45 2559.97,981.979 2569.14,985.416 2578.31,988.761 2587.48,992.014 2596.65,995.177 2605.82,998.249 2614.99,1001.23 2624.16,1004.12 2633.33,1006.93 2642.5,1009.64 2651.67,1012.27 2660.84,1014.81 2670.01,1017.26 2679.18,1019.63 2688.35,1021.91 2697.52,1024.1 2706.69,1026.21 2715.86,1028.24 2725.03,1030.18 2734.2,1032.04 2743.37,1033.81 2752.54,1035.51 2761.71,1037.12 2770.88,1038.65 2780.05,1040.1 2789.22,1041.47 2798.39,1042.76 2807.55,1043.97 2816.72,1045.1 2825.89,1046.15 2835.06,1047.13 2844.23,1048.03 2853.4,1048.85 2862.57,1049.6 2871.74,1050.27 2880.91,1050.86 2890.08,1051.38 2899.25,1051.83 2908.42,1052.2 2917.59,1052.5 2926.76,1052.73 2935.93,1052.88 2945.1,1052.96 2954.27,1052.97 2963.44,1052.91 2972.61,1052.78 2981.78,1052.57 2990.95,1052.3 3000.12,1051.96 3009.29,1051.55 3018.46,1051.07 3027.63,1050.52 3036.8,1049.9 3045.97,1049.22 3055.14,1048.47 3064.31,1047.65 3073.48,1046.76 3082.65,1045.81 3091.81,1044.79 3100.98,1043.71 3110.15,1042.56 3119.32,1041.35 3128.49,1040.07 3137.66,1038.73 3146.83,1037.32 3156,1035.86 3165.17,1034.32 3174.34,1032.73 3183.51,1031.07 3192.68,1029.35 3201.85,1027.56 3211.02,1025.72 3220.19,1023.81 3229.36,1021.84 3238.53,1019.81 3247.7,1017.72 3256.87,1015.57 3266.04,1013.36 3275.21,1011.09 3284.38,1008.76 3293.55,1006.37 3302.72,1003.92 3311.89,1001.41 3321.06,998.847 3330.23,996.222 3339.4,993.539 3348.57,990.798 3357.74,987.999 3366.91,985.143 3376.07,982.229 3385.24,979.259 3394.41,976.232 3403.58,973.149 3412.75,970.009 3421.92,966.813 3431.09,963.562 3440.26,960.255 3449.43,956.893 3458.6,953.476 3467.77,950.005 3476.94,946.479 3486.11,942.898 3495.28,939.264 3504.45,935.576 3513.62,931.834 3522.79,928.039 3531.96,924.191 3541.13,920.291 3550.3,916.338 3559.47,912.332 3568.64,908.275 3577.81,904.166 3586.98,900.006 3596.15,895.794 3605.32,891.532 3614.49,887.219 3623.66,882.855 3632.83,878.442 3642,873.979 3651.17,869.466 3660.34,864.904 3669.5,860.294 3678.67,855.635 3687.84,850.927 3697.01,846.172 3706.18,841.37 3715.35,836.52 3724.52,831.623 3733.69,826.68 3742.86,821.691 3752.03,816.656 3761.2,811.575 3770.37,806.45 3779.54,801.28 3788.71,796.066 3797.88,790.808 3807.05,785.507 3816.22,780.163 3825.39,774.776 3834.56,769.348 3843.73,763.878 3852.9,758.368 3862.07,752.816 3871.24,747.225 3880.41,741.595 3889.58,735.926 3898.75,730.218 3907.92,724.473 3917.09,718.691 3926.26,712.872 3935.43,707.018 3944.6,701.129 3953.77,695.205 3962.93,689.247 3972.1,683.256 3981.27,677.233 3990.44,671.178 3999.61,665.093 4008.78,658.978 4017.95,652.833 4027.12,646.661 4036.29,640.46 4045.46,634.234 4054.63,627.981 4063.8,621.704 4072.97,615.404 4082.14,609.08 4091.31,602.735 4100.48,596.369 4109.65,589.984 4118.82,583.58 4127.99,577.159 4137.16,570.722 4146.33,564.27 4155.5,557.804 4164.67,551.325 4173.84,544.836 4183.01,538.336 4192.18,531.828 4201.35,525.312 4210.52,518.791 4219.69,512.265 4228.86,505.736 4238.03,499.206 4247.19,492.676 4256.36,486.148 4265.53,479.623 4274.7,473.103 4283.87,466.589 4293.04,460.084 4302.21,453.588 4311.38,447.105 4320.55,440.634 4329.72,434.18 4338.89,427.742 4348.06,421.324 4357.23,414.927 4366.4,408.552 4375.57,402.203 4384.74,395.881 4393.91,389.588 4403.08,383.326 4412.25,377.098 4421.42,370.905 4430.59,364.75 4439.76,358.635 4448.93,352.562 4458.1,346.534 4467.27,340.553 4476.44,334.62 4485.61,328.74 4494.78,322.913 4503.95,317.143 4513.12,311.431 4522.29,305.781 4531.45,300.195 4540.62,294.675 4549.79,289.224 4558.96,283.845 4568.13,278.539 4577.3,273.311 4586.47,268.162 4595.64,263.094 4604.81,258.112 4613.98,253.217 4623.15,248.411 4632.32,243.699 4641.49,239.081 4650.66,234.562 4659.83,230.143 4669,225.828 4678.17,221.619 4687.34,217.518 4696.51,213.529 4705.68,209.654 4714.85,205.896 4724.02,202.256 4733.19,198.739 4742.36,195.346 4751.53,192.08 4760.7,188.943 4769.87,185.938 4779.04,183.067 4788.21,180.333 4797.38,177.739 4806.55,175.285 4815.72,172.975 4824.89,170.81 4834.05,168.794 4843.22,166.927 4852.39,165.212 4861.56,163.651 4870.73,162.245 4879.9,160.997 4889.07,159.908 4898.24,158.979 4907.41,158.212 4916.58,157.609 4925.75,157.171 4934.92,156.898 4944.09,156.793 4953.26,156.856 4962.43,157.087 4971.6,157.489 4980.77,158.061 4989.94,158.803 4999.11,159.718 5008.28,160.804 5017.45,162.062 5026.62,163.492 5035.79,165.094 5044.96,166.868 5054.13,168.813 5063.3,170.93 5072.47,173.217 5081.64,175.674 5090.81,178.3 5099.98,181.095 5109.15,184.056 5118.31,187.184 5127.48,190.476 5136.65,193.931 5145.82,197.548 5154.99,201.325 5164.16,205.26 5173.33,209.352 5182.5,213.597 5191.67,217.996 5200.84,222.543 5210.01,227.239 5219.18,232.079 5228.35,237.062 5237.52,242.185 5246.69,247.446 5255.86,252.84 5265.03,258.366 5274.2,264.02 5283.37,269.799 5292.54,275.701 5301.71,281.721 5310.88,287.857 5320.05,294.106 5329.22,300.462 5338.39,306.925 5347.56,313.489 5356.73,320.151 5365.9,326.908 5375.07,333.756 5384.24,340.691 5393.41,347.71 5402.58,354.809 5411.74,361.984 5420.91,369.232 5430.08,376.548 5439.25,383.929 5448.42,391.371 5457.59,398.871 5466.76,406.424 5475.93,414.027 5485.1,421.677 5494.27,429.369 5503.44,437.1 5512.61,444.866 5521.78,452.664 5530.95,460.49 5540.12,468.34 5549.29,476.212 5558.46,484.1 5567.63,492.003 5576.8,499.916 5585.97,507.837 5595.14,515.761 5604.31,523.686 5613.48,531.609 5622.65,539.526 5631.82,547.435 5640.99,555.331 5650.16,563.213 5659.33,571.076 5668.5,578.92 5677.67,586.739 5686.84,594.533 5696,602.298 5705.17,610.032 5714.34,617.731 5723.51,625.394 5732.68,633.017 5741.85,640.6 5751.02,648.139 5760.19,655.632 5769.36,663.077 5778.53,670.472 5787.7,677.814 5796.87,685.103 5806.04,692.335 5815.21,699.51 "/>
<path clip-path="url(#clip820)" d="M2501.95 1660.49 L4543.63 1660.49 L4543.63 1297.61 L2501.95 1297.61  Z" fill="#ffffff" fill-rule="evenodd" fill-opacity="1"/>
<polyline clip-path="url(#clip820)" style="stroke:#000000; stroke-linecap:round; stroke-linejoin:round; stroke-width:4; stroke-opacity:0; fill:none" points="2501.95,1660.49 4543.63,1660.49 4543.63,1297.61 2501.95,1297.61 2501.95,1660.49 "/>
<polyline clip-path="url(#clip820)" style="stroke:#90ee90; stroke-linecap:round; stroke-linejoin:round; stroke-width:35; stroke-opacity:1; fill:none" points="2555.95,1388.33 2879.94,1388.33 "/>
<path clip-path="url(#clip820)" d="M2933.94 1389.12 Q2933.94 1374.06 2942.03 1365.56 Q2950.11 1357.02 2962.9 1357.02 Q2971.28 1357.02 2978 1361.02 Q2984.73 1365.02 2988.23 1372.2 Q2991.78 1379.34 2991.78 1388.41 Q2991.78 1397.61 2988.07 1404.88 Q2984.36 1412.14 2977.55 1415.89 Q2970.74 1419.6 2962.86 1419.6 Q2954.32 1419.6 2947.6 1415.48 Q2940.87 1411.35 2937.41 1404.22 Q2933.94 1397.08 2933.94 1389.12 M2942.19 1389.24 Q2942.19 1400.17 2948.05 1406.48 Q2953.95 1412.75 2962.82 1412.75 Q2971.86 1412.75 2977.67 1406.4 Q2983.53 1400.05 2983.53 1388.37 Q2983.53 1380.99 2981.01 1375.5 Q2978.54 1369.97 2973.71 1366.96 Q2968.93 1363.91 2962.95 1363.91 Q2954.45 1363.91 2948.3 1369.77 Q2942.19 1375.58 2942.19 1389.24 Z" fill="#000000" fill-rule="nonzero" fill-opacity="1" /><path clip-path="url(#clip820)" d="M3001.06 1418.57 L3001.06 1374.76 L3007.75 1374.76 L3007.75 1381.4 Q3010.31 1376.74 3012.45 1375.25 Q3014.64 1373.77 3017.24 1373.77 Q3020.99 1373.77 3024.87 1376.16 L3022.31 1383.05 Q3019.59 1381.44 3016.87 1381.44 Q3014.43 1381.44 3012.49 1382.93 Q3010.55 1384.37 3009.73 1386.97 Q3008.49 1390.93 3008.49 1395.63 L3008.49 1418.57 L3001.06 1418.57 Z" fill="#000000" fill-rule="nonzero" fill-opacity="1" /><path clip-path="url(#clip820)" d="M3029.32 1366.63 L3029.32 1358.09 L3036.75 1358.09 L3036.75 1366.63 L3029.32 1366.63 M3029.32 1418.57 L3029.32 1374.76 L3036.75 1374.76 L3036.75 1418.57 L3029.32 1418.57 Z" fill="#000000" fill-rule="nonzero" fill-opacity="1" /><path clip-path="url(#clip820)" d="M3046.69 1422.2 L3053.91 1423.27 Q3054.37 1426.62 3056.43 1428.14 Q3059.19 1430.21 3063.98 1430.21 Q3069.14 1430.21 3071.94 1428.14 Q3074.75 1426.08 3075.74 1422.37 Q3076.31 1420.1 3076.27 1412.84 Q3071.4 1418.57 3064.14 1418.57 Q3055.11 1418.57 3050.16 1412.05 Q3045.21 1405.54 3045.21 1396.42 Q3045.21 1390.15 3047.48 1384.87 Q3049.75 1379.54 3054.04 1376.66 Q3058.37 1373.77 3064.19 1373.77 Q3071.94 1373.77 3076.97 1380.04 L3076.97 1374.76 L3083.82 1374.76 L3083.82 1412.63 Q3083.82 1422.86 3081.72 1427.11 Q3079.66 1431.4 3075.12 1433.88 Q3070.62 1436.35 3064.02 1436.35 Q3056.18 1436.35 3051.35 1432.8 Q3046.53 1429.3 3046.69 1422.2 M3052.84 1395.88 Q3052.84 1404.5 3056.26 1408.46 Q3059.69 1412.42 3064.85 1412.42 Q3069.96 1412.42 3073.43 1408.51 Q3076.89 1404.55 3076.89 1396.13 Q3076.89 1388.08 3073.3 1384 Q3069.75 1379.92 3064.72 1379.92 Q3059.77 1379.92 3056.31 1383.96 Q3052.84 1387.96 3052.84 1395.88 Z" fill="#000000" fill-rule="nonzero" fill-opacity="1" /><path clip-path="url(#clip820)" d="M3095.09 1366.63 L3095.09 1358.09 L3102.51 1358.09 L3102.51 1366.63 L3095.09 1366.63 M3095.09 1418.57 L3095.09 1374.76 L3102.51 1374.76 L3102.51 1418.57 L3095.09 1418.57 Z" fill="#000000" fill-rule="nonzero" fill-opacity="1" /><path clip-path="url(#clip820)" d="M3113.82 1418.57 L3113.82 1374.76 L3120.5 1374.76 L3120.5 1380.99 Q3125.33 1373.77 3134.44 1373.77 Q3138.4 1373.77 3141.7 1375.21 Q3145.05 1376.62 3146.7 1378.93 Q3148.35 1381.24 3149.01 1384.41 Q3149.42 1386.48 3149.42 1391.63 L3149.42 1418.57 L3141.99 1418.57 L3141.99 1391.92 Q3141.99 1387.38 3141.13 1385.16 Q3140.26 1382.89 3138.03 1381.57 Q3135.85 1380.2 3132.87 1380.2 Q3128.13 1380.2 3124.67 1383.22 Q3121.24 1386.23 3121.24 1394.64 L3121.24 1418.57 L3113.82 1418.57 Z" fill="#000000" fill-rule="nonzero" fill-opacity="1" /><path clip-path="url(#clip820)" d="M3189.39 1413.17 Q3185.27 1416.67 3181.43 1418.12 Q3177.64 1419.56 3173.26 1419.56 Q3166.04 1419.56 3162.17 1416.06 Q3158.29 1412.51 3158.29 1407.02 Q3158.29 1403.8 3159.73 1401.16 Q3161.22 1398.48 3163.57 1396.87 Q3165.96 1395.26 3168.93 1394.44 Q3171.12 1393.86 3175.53 1393.32 Q3184.53 1392.25 3188.78 1390.77 Q3188.82 1389.24 3188.82 1388.83 Q3188.82 1384.29 3186.71 1382.43 Q3183.87 1379.92 3178.26 1379.92 Q3173.02 1379.92 3170.5 1381.77 Q3168.02 1383.59 3166.83 1388.25 L3159.57 1387.26 Q3160.56 1382.6 3162.83 1379.75 Q3165.1 1376.86 3169.39 1375.34 Q3173.68 1373.77 3179.33 1373.77 Q3184.94 1373.77 3188.45 1375.09 Q3191.95 1376.41 3193.6 1378.43 Q3195.25 1380.41 3195.91 1383.46 Q3196.28 1385.36 3196.28 1390.31 L3196.28 1400.21 Q3196.28 1410.57 3196.74 1413.33 Q3197.23 1416.06 3198.64 1418.57 L3190.88 1418.57 Q3189.72 1416.26 3189.39 1413.17 M3188.78 1396.58 Q3184.73 1398.23 3176.65 1399.39 Q3172.07 1400.05 3170.17 1400.87 Q3168.27 1401.7 3167.24 1403.31 Q3166.21 1404.88 3166.21 1406.81 Q3166.21 1409.78 3168.44 1411.76 Q3170.71 1413.74 3175.04 1413.74 Q3179.33 1413.74 3182.67 1411.89 Q3186.01 1409.99 3187.58 1406.73 Q3188.78 1404.22 3188.78 1399.31 L3188.78 1396.58 Z" fill="#000000" fill-rule="nonzero" fill-opacity="1" /><path clip-path="url(#clip820)" d="M3207.63 1418.57 L3207.63 1358.09 L3215.06 1358.09 L3215.06 1418.57 L3207.63 1418.57 Z" fill="#000000" fill-rule="nonzero" fill-opacity="1" /><polyline clip-path="url(#clip820)" style="stroke:#0000ff; stroke-linecap:round; stroke-linejoin:round; stroke-width:21; stroke-opacity:1; fill:none" points="2555.95,1479.05 2879.94,1479.05 "/>
<path clip-path="url(#clip820)" d="M2956.22 1509.29 L2948.79 1509.29 L2948.79 1461.97 Q2946.11 1464.53 2941.74 1467.09 Q2937.41 1469.65 2933.94 1470.92 L2933.94 1463.75 Q2940.17 1460.82 2944.83 1456.65 Q2949.5 1452.48 2951.43 1448.56 L2956.22 1448.56 L2956.22 1509.29 Z" fill="#000000" fill-rule="nonzero" fill-opacity="1" /><path clip-path="url(#clip820)" d="M2975.24 1479.46 Q2975.24 1468.74 2977.43 1462.22 Q2979.65 1455.66 2983.99 1452.11 Q2988.36 1448.56 2994.96 1448.56 Q2999.83 1448.56 3003.5 1450.54 Q3007.17 1452.48 3009.56 1456.2 Q3011.96 1459.87 3013.32 1465.19 Q3014.68 1470.47 3014.68 1479.46 Q3014.68 1490.11 3012.49 1496.67 Q3010.31 1503.19 3005.93 1506.78 Q3001.6 1510.32 2994.96 1510.32 Q2986.21 1510.32 2981.22 1504.05 Q2975.24 1496.5 2975.24 1479.46 M2982.87 1479.46 Q2982.87 1494.36 2986.34 1499.31 Q2989.84 1504.22 2994.96 1504.22 Q3000.07 1504.22 3003.54 1499.27 Q3007.05 1494.32 3007.05 1479.46 Q3007.05 1464.53 3003.54 1459.62 Q3000.07 1454.71 2994.88 1454.71 Q2989.76 1454.71 2986.71 1459.04 Q2982.87 1464.57 2982.87 1479.46 Z" fill="#000000" fill-rule="nonzero" fill-opacity="1" /><path clip-path="url(#clip820)" d="M3023.63 1463.33 Q3023.63 1456.86 3026.89 1452.32 Q3030.15 1447.78 3036.34 1447.78 Q3042.03 1447.78 3045.74 1451.86 Q3049.5 1455.91 3049.5 1463.79 Q3049.5 1471.46 3045.7 1475.63 Q3041.95 1479.75 3036.42 1479.75 Q3030.93 1479.75 3027.26 1475.67 Q3023.63 1471.58 3023.63 1463.33 M3036.54 1452.9 Q3033.78 1452.9 3031.92 1455.29 Q3030.11 1457.68 3030.11 1464.08 Q3030.11 1469.89 3031.96 1472.29 Q3033.82 1474.64 3036.54 1474.64 Q3039.35 1474.64 3041.16 1472.24 Q3043.02 1469.85 3043.02 1463.5 Q3043.02 1457.64 3041.16 1455.29 Q3039.31 1452.9 3036.54 1452.9 M3036.59 1511.52 L3069.67 1447.78 L3075.7 1447.78 L3042.73 1511.52 L3036.59 1511.52 M3062.74 1495.1 Q3062.74 1488.58 3066 1484.08 Q3069.26 1479.55 3075.49 1479.55 Q3081.18 1479.55 3084.9 1483.63 Q3088.65 1487.67 3088.65 1495.55 Q3088.65 1503.23 3084.85 1507.39 Q3081.1 1511.52 3075.53 1511.52 Q3070.04 1511.52 3066.37 1507.44 Q3062.74 1503.31 3062.74 1495.1 M3075.7 1484.66 Q3072.89 1484.66 3071.03 1487.06 Q3069.22 1489.45 3069.22 1495.84 Q3069.22 1501.62 3071.07 1504.01 Q3072.93 1506.4 3075.65 1506.4 Q3078.5 1506.4 3080.32 1504.01 Q3082.17 1501.62 3082.17 1495.27 Q3082.17 1489.41 3080.32 1487.06 Q3078.46 1484.66 3075.7 1484.66 Z" fill="#000000" fill-rule="nonzero" fill-opacity="1" /><path clip-path="url(#clip820)" d="M3122.89 1526.08 L3122.89 1465.48 L3129.66 1465.48 L3129.66 1471.17 Q3132.05 1467.83 3135.06 1466.18 Q3138.07 1464.49 3142.36 1464.49 Q3147.97 1464.49 3152.26 1467.38 Q3156.56 1470.26 3158.74 1475.55 Q3160.93 1480.78 3160.93 1487.06 Q3160.93 1493.78 3158.49 1499.18 Q3156.1 1504.55 3151.48 1507.44 Q3146.9 1510.28 3141.83 1510.28 Q3138.11 1510.28 3135.14 1508.71 Q3132.21 1507.15 3130.32 1504.75 L3130.32 1526.08 L3122.89 1526.08 M3129.62 1487.63 Q3129.62 1496.09 3133.04 1500.13 Q3136.46 1504.18 3141.33 1504.18 Q3146.28 1504.18 3149.79 1500.01 Q3153.34 1495.8 3153.34 1487.01 Q3153.34 1478.64 3149.87 1474.47 Q3146.45 1470.31 3141.66 1470.31 Q3136.92 1470.31 3133.25 1474.76 Q3129.62 1479.18 3129.62 1487.63 Z" fill="#000000" fill-rule="nonzero" fill-opacity="1" /><path clip-path="url(#clip820)" d="M3199.87 1495.18 L3207.55 1496.13 Q3205.73 1502.86 3200.82 1506.57 Q3195.91 1510.28 3188.28 1510.28 Q3178.67 1510.28 3173.02 1504.38 Q3167.41 1498.44 3167.41 1487.76 Q3167.41 1476.7 3173.1 1470.59 Q3178.79 1464.49 3187.87 1464.49 Q3196.66 1464.49 3202.22 1470.47 Q3207.79 1476.45 3207.79 1487.3 Q3207.79 1487.96 3207.75 1489.28 L3175.08 1489.28 Q3175.49 1496.5 3179.16 1500.34 Q3182.83 1504.18 3188.32 1504.18 Q3192.41 1504.18 3195.29 1502.03 Q3198.18 1499.89 3199.87 1495.18 M3175.49 1483.18 L3199.96 1483.18 Q3199.46 1477.65 3197.15 1474.89 Q3193.6 1470.59 3187.95 1470.59 Q3182.83 1470.59 3179.33 1474.02 Q3175.86 1477.44 3175.49 1483.18 Z" fill="#000000" fill-rule="nonzero" fill-opacity="1" /><path clip-path="url(#clip820)" d="M3216.79 1509.29 L3216.79 1465.48 L3223.47 1465.48 L3223.47 1472.12 Q3226.03 1467.46 3228.17 1465.97 Q3230.36 1464.49 3232.96 1464.49 Q3236.71 1464.49 3240.59 1466.88 L3238.03 1473.77 Q3235.31 1472.16 3232.59 1472.16 Q3230.15 1472.16 3228.22 1473.65 Q3226.28 1475.09 3225.45 1477.69 Q3224.21 1481.65 3224.21 1486.35 L3224.21 1509.29 L3216.79 1509.29 Z" fill="#000000" fill-rule="nonzero" fill-opacity="1" /><path clip-path="url(#clip820)" d="M3261.22 1502.65 L3262.29 1509.21 Q3259.16 1509.87 3256.68 1509.87 Q3252.64 1509.87 3250.41 1508.59 Q3248.18 1507.31 3247.28 1505.25 Q3246.37 1503.14 3246.37 1496.46 L3246.37 1471.25 L3240.92 1471.25 L3240.92 1465.48 L3246.37 1465.48 L3246.37 1454.63 L3253.75 1450.17 L3253.75 1465.48 L3261.22 1465.48 L3261.22 1471.25 L3253.75 1471.25 L3253.75 1496.87 Q3253.75 1500.05 3254.12 1500.96 Q3254.54 1501.87 3255.4 1502.4 Q3256.31 1502.94 3257.96 1502.94 Q3259.2 1502.94 3261.22 1502.65 Z" fill="#000000" fill-rule="nonzero" fill-opacity="1" /><path clip-path="url(#clip820)" d="M3297.19 1509.29 L3297.19 1502.86 Q3292.08 1510.28 3283.29 1510.28 Q3279.41 1510.28 3276.03 1508.8 Q3272.69 1507.31 3271.04 1505.08 Q3269.43 1502.81 3268.77 1499.56 Q3268.32 1497.37 3268.32 1492.62 L3268.32 1465.48 L3275.74 1465.48 L3275.74 1489.78 Q3275.74 1495.6 3276.2 1497.62 Q3276.9 1500.55 3279.17 1502.24 Q3281.43 1503.89 3284.78 1503.89 Q3288.12 1503.89 3291.05 1502.2 Q3293.98 1500.46 3295.17 1497.53 Q3296.41 1494.56 3296.41 1488.95 L3296.41 1465.48 L3303.84 1465.48 L3303.84 1509.29 L3297.19 1509.29 Z" fill="#000000" fill-rule="nonzero" fill-opacity="1" /><path clip-path="url(#clip820)" d="M3315.39 1509.29 L3315.39 1465.48 L3322.07 1465.48 L3322.07 1472.12 Q3324.63 1467.46 3326.77 1465.97 Q3328.96 1464.49 3331.56 1464.49 Q3335.31 1464.49 3339.19 1466.88 L3336.63 1473.77 Q3333.91 1472.16 3331.19 1472.16 Q3328.75 1472.16 3326.82 1473.65 Q3324.88 1475.09 3324.05 1477.69 Q3322.81 1481.65 3322.81 1486.35 L3322.81 1509.29 L3315.39 1509.29 Z" fill="#000000" fill-rule="nonzero" fill-opacity="1" /><path clip-path="url(#clip820)" d="M3350.45 1509.29 L3343.56 1509.29 L3343.56 1448.81 L3350.99 1448.81 L3350.99 1470.39 Q3355.69 1464.49 3363 1464.49 Q3367.04 1464.49 3370.63 1466.14 Q3374.26 1467.75 3376.57 1470.72 Q3378.92 1473.65 3380.24 1477.81 Q3381.56 1481.98 3381.56 1486.73 Q3381.56 1497.99 3375.99 1504.13 Q3370.42 1510.28 3362.62 1510.28 Q3354.87 1510.28 3350.45 1503.8 L3350.45 1509.29 M3350.37 1487.06 Q3350.37 1494.94 3352.52 1498.44 Q3356.02 1504.18 3362.01 1504.18 Q3366.87 1504.18 3370.42 1499.97 Q3373.97 1495.72 3373.97 1487.34 Q3373.97 1478.76 3370.55 1474.68 Q3367.16 1470.59 3362.34 1470.59 Q3357.47 1470.59 3353.92 1474.84 Q3350.37 1479.05 3350.37 1487.06 Z" fill="#000000" fill-rule="nonzero" fill-opacity="1" /><path clip-path="url(#clip820)" d="M3419.19 1503.89 Q3415.06 1507.39 3411.22 1508.84 Q3407.43 1510.28 3403.05 1510.28 Q3395.84 1510.28 3391.96 1506.78 Q3388.08 1503.23 3388.08 1497.74 Q3388.08 1494.52 3389.52 1491.88 Q3391.01 1489.2 3393.36 1487.59 Q3395.75 1485.98 3398.72 1485.16 Q3400.91 1484.58 3405.32 1484.04 Q3414.32 1482.97 3418.57 1481.49 Q3418.61 1479.96 3418.61 1479.55 Q3418.61 1475.01 3416.5 1473.15 Q3413.66 1470.64 3408.05 1470.64 Q3402.81 1470.64 3400.29 1472.49 Q3397.82 1474.31 3396.62 1478.97 L3389.36 1477.98 Q3390.35 1473.32 3392.62 1470.47 Q3394.89 1467.58 3399.18 1466.06 Q3403.47 1464.49 3409.12 1464.49 Q3414.73 1464.49 3418.24 1465.81 Q3421.74 1467.13 3423.39 1469.15 Q3425.04 1471.13 3425.7 1474.18 Q3426.08 1476.08 3426.08 1481.03 L3426.08 1490.93 Q3426.08 1501.29 3426.53 1504.05 Q3427.02 1506.78 3428.43 1509.29 L3420.67 1509.29 Q3419.52 1506.98 3419.19 1503.89 M3418.57 1487.3 Q3414.52 1488.95 3406.44 1490.11 Q3401.86 1490.77 3399.96 1491.59 Q3398.06 1492.42 3397.03 1494.03 Q3396 1495.6 3396 1497.53 Q3396 1500.5 3398.23 1502.48 Q3400.5 1504.46 3404.83 1504.46 Q3409.12 1504.46 3412.46 1502.61 Q3415.8 1500.71 3417.37 1497.45 Q3418.57 1494.94 3418.57 1490.03 L3418.57 1487.3 Z" fill="#000000" fill-rule="nonzero" fill-opacity="1" /><path clip-path="url(#clip820)" d="M3453.8 1502.65 L3454.87 1509.21 Q3451.74 1509.87 3449.26 1509.87 Q3445.22 1509.87 3442.99 1508.59 Q3440.76 1507.31 3439.85 1505.25 Q3438.95 1503.14 3438.95 1496.46 L3438.95 1471.25 L3433.5 1471.25 L3433.5 1465.48 L3438.95 1465.48 L3438.95 1454.63 L3446.33 1450.17 L3446.33 1465.48 L3453.8 1465.48 L3453.8 1471.25 L3446.33 1471.25 L3446.33 1496.87 Q3446.33 1500.05 3446.7 1500.96 Q3447.12 1501.87 3447.98 1502.4 Q3448.89 1502.94 3450.54 1502.94 Q3451.78 1502.94 3453.8 1502.65 Z" fill="#000000" fill-rule="nonzero" fill-opacity="1" /><path clip-path="url(#clip820)" d="M3461.1 1457.35 L3461.1 1448.81 L3468.53 1448.81 L3468.53 1457.35 L3461.1 1457.35 M3461.1 1509.29 L3461.1 1465.48 L3468.53 1465.48 L3468.53 1509.29 L3461.1 1509.29 Z" fill="#000000" fill-rule="nonzero" fill-opacity="1" /><path clip-path="url(#clip820)" d="M3477.07 1487.39 Q3477.07 1475.22 3483.83 1469.36 Q3489.48 1464.49 3497.61 1464.49 Q3506.65 1464.49 3512.38 1470.43 Q3518.12 1476.33 3518.12 1486.77 Q3518.12 1495.22 3515.56 1500.09 Q3513.04 1504.92 3508.17 1507.6 Q3503.35 1510.28 3497.61 1510.28 Q3488.41 1510.28 3482.72 1504.38 Q3477.07 1498.48 3477.07 1487.39 M3484.7 1487.39 Q3484.7 1495.8 3488.37 1500.01 Q3492.04 1504.18 3497.61 1504.18 Q3503.14 1504.18 3506.81 1499.97 Q3510.48 1495.76 3510.48 1487.14 Q3510.48 1479.01 3506.77 1474.84 Q3503.1 1470.64 3497.61 1470.64 Q3492.04 1470.64 3488.37 1474.8 Q3484.7 1478.97 3484.7 1487.39 Z" fill="#000000" fill-rule="nonzero" fill-opacity="1" /><path clip-path="url(#clip820)" d="M3526.82 1509.29 L3526.82 1465.48 L3533.5 1465.48 L3533.5 1471.71 Q3538.33 1464.49 3547.45 1464.49 Q3551.41 1464.49 3554.71 1465.93 Q3558.05 1467.34 3559.7 1469.65 Q3561.35 1471.96 3562.01 1475.13 Q3562.42 1477.2 3562.42 1482.35 L3562.42 1509.29 L3555 1509.29 L3555 1482.64 Q3555 1478.1 3554.13 1475.88 Q3553.26 1473.61 3551.04 1472.29 Q3548.85 1470.92 3545.88 1470.92 Q3541.14 1470.92 3537.67 1473.94 Q3534.25 1476.95 3534.25 1485.36 L3534.25 1509.29 L3526.82 1509.29 Z" fill="#000000" fill-rule="nonzero" fill-opacity="1" /><path clip-path="url(#clip820)" d="M3594.52 1487.39 Q3594.52 1475.22 3601.29 1469.36 Q3606.94 1464.49 3615.06 1464.49 Q3624.1 1464.49 3629.83 1470.43 Q3635.57 1476.33 3635.57 1486.77 Q3635.57 1495.22 3633.01 1500.09 Q3630.49 1504.92 3625.63 1507.6 Q3620.8 1510.28 3615.06 1510.28 Q3605.86 1510.28 3600.17 1504.38 Q3594.52 1498.48 3594.52 1487.39 M3602.15 1487.39 Q3602.15 1495.8 3605.82 1500.01 Q3609.5 1504.18 3615.06 1504.18 Q3620.59 1504.18 3624.26 1499.97 Q3627.94 1495.76 3627.94 1487.14 Q3627.94 1479.01 3624.22 1474.84 Q3620.55 1470.64 3615.06 1470.64 Q3609.5 1470.64 3605.82 1474.8 Q3602.15 1478.97 3602.15 1487.39 Z" fill="#000000" fill-rule="nonzero" fill-opacity="1" /><path clip-path="url(#clip820)" d="M3646.05 1509.29 L3646.05 1471.25 L3639.49 1471.25 L3639.49 1465.48 L3646.05 1465.48 L3646.05 1460.82 Q3646.05 1456.4 3646.83 1454.26 Q3647.9 1451.37 3650.59 1449.6 Q3653.31 1447.78 3658.18 1447.78 Q3661.31 1447.78 3665.11 1448.52 L3663.99 1455 Q3661.68 1454.59 3659.62 1454.59 Q3656.24 1454.59 3654.83 1456.03 Q3653.43 1457.48 3653.43 1461.44 L3653.43 1465.48 L3661.97 1465.48 L3661.97 1471.25 L3653.43 1471.25 L3653.43 1509.29 L3646.05 1509.29 Z" fill="#000000" fill-rule="nonzero" fill-opacity="1" /><path clip-path="url(#clip820)" d="M3723.73 1465.48 L3731.32 1465.48 Q3728.43 1474.56 3726 1487.39 Q3728.89 1503.31 3731.32 1509.29 L3723.94 1509.29 Q3722.16 1505.17 3721.26 1501.29 Q3717.83 1510.28 3706.94 1510.28 Q3698.69 1510.28 3693.66 1504.09 Q3688.62 1497.91 3688.62 1487.3 Q3688.62 1476.41 3693.66 1470.47 Q3698.73 1464.49 3707.06 1464.49 Q3712.22 1464.49 3715.48 1466.59 Q3718.74 1468.66 3721.54 1472.9 Q3721.83 1471.46 3723.73 1465.48 M3708.3 1470.64 Q3702.98 1470.64 3699.89 1474.93 Q3696.79 1479.22 3696.79 1487.3 Q3696.79 1495.18 3699.72 1499.68 Q3702.65 1504.18 3707.89 1504.18 Q3713 1504.18 3716.43 1499.76 Q3719.85 1495.31 3719.85 1486.97 Q3719.85 1478.89 3716.63 1474.76 Q3713.46 1470.64 3708.3 1470.64 Z" fill="#000000" fill-rule="nonzero" fill-opacity="1" /><path clip-path="url(#clip820)" d="M3792.13 1503.89 Q3788.01 1507.39 3784.17 1508.84 Q3780.37 1510.28 3776 1510.28 Q3768.78 1510.28 3764.9 1506.78 Q3761.03 1503.23 3761.03 1497.74 Q3761.03 1494.52 3762.47 1491.88 Q3763.95 1489.2 3766.31 1487.59 Q3768.7 1485.98 3771.67 1485.16 Q3773.86 1484.58 3778.27 1484.04 Q3787.26 1482.97 3791.51 1481.49 Q3791.55 1479.96 3791.55 1479.55 Q3791.55 1475.01 3789.45 1473.15 Q3786.6 1470.64 3780.99 1470.64 Q3775.75 1470.64 3773.24 1472.49 Q3770.76 1474.31 3769.57 1478.97 L3762.3 1477.98 Q3763.29 1473.32 3765.56 1470.47 Q3767.83 1467.58 3772.12 1466.06 Q3776.41 1464.49 3782.07 1464.49 Q3787.68 1464.49 3791.18 1465.81 Q3794.69 1467.13 3796.34 1469.15 Q3797.99 1471.13 3798.65 1474.18 Q3799.02 1476.08 3799.02 1481.03 L3799.02 1490.93 Q3799.02 1501.29 3799.48 1504.05 Q3799.97 1506.78 3801.37 1509.29 L3793.62 1509.29 Q3792.46 1506.98 3792.13 1503.89 M3791.51 1487.3 Q3787.47 1488.95 3779.38 1490.11 Q3774.8 1490.77 3772.91 1491.59 Q3771.01 1492.42 3769.98 1494.03 Q3768.95 1495.6 3768.95 1497.53 Q3768.95 1500.5 3771.17 1502.48 Q3773.44 1504.46 3777.77 1504.46 Q3782.07 1504.46 3785.41 1502.61 Q3788.75 1500.71 3790.32 1497.45 Q3791.51 1494.94 3791.51 1490.03 L3791.51 1487.3 Z" fill="#000000" fill-rule="nonzero" fill-opacity="1" /><path clip-path="url(#clip820)" d="M3810.37 1509.29 L3810.37 1448.81 L3817.79 1448.81 L3817.79 1509.29 L3810.37 1509.29 Z" fill="#000000" fill-rule="nonzero" fill-opacity="1" /><path clip-path="url(#clip820)" d="M3826.54 1487.39 Q3826.54 1475.22 3833.3 1469.36 Q3838.96 1464.49 3847.08 1464.49 Q3856.12 1464.49 3861.85 1470.43 Q3867.59 1476.33 3867.59 1486.77 Q3867.59 1495.22 3865.03 1500.09 Q3862.51 1504.92 3857.64 1507.6 Q3852.82 1510.28 3847.08 1510.28 Q3837.88 1510.28 3832.19 1504.38 Q3826.54 1498.48 3826.54 1487.39 M3834.17 1487.39 Q3834.17 1495.8 3837.84 1500.01 Q3841.51 1504.18 3847.08 1504.18 Q3852.61 1504.18 3856.28 1499.97 Q3859.96 1495.76 3859.96 1487.14 Q3859.96 1479.01 3856.24 1474.84 Q3852.57 1470.64 3847.08 1470.64 Q3841.51 1470.64 3837.84 1474.8 Q3834.17 1478.97 3834.17 1487.39 Z" fill="#000000" fill-rule="nonzero" fill-opacity="1" /><path clip-path="url(#clip820)" d="M3876.29 1509.29 L3876.29 1465.48 L3882.98 1465.48 L3882.98 1471.71 Q3887.8 1464.49 3896.92 1464.49 Q3900.88 1464.49 3904.18 1465.93 Q3907.52 1467.34 3909.17 1469.65 Q3910.82 1471.96 3911.48 1475.13 Q3911.9 1477.2 3911.9 1482.35 L3911.9 1509.29 L3904.47 1509.29 L3904.47 1482.64 Q3904.47 1478.1 3903.6 1475.88 Q3902.74 1473.61 3900.51 1472.29 Q3898.32 1470.92 3895.35 1470.92 Q3890.61 1470.92 3887.14 1473.94 Q3883.72 1476.95 3883.72 1485.36 L3883.72 1509.29 L3876.29 1509.29 Z" fill="#000000" fill-rule="nonzero" fill-opacity="1" /><path clip-path="url(#clip820)" d="M3921.92 1512.92 L3929.14 1513.99 Q3929.59 1517.34 3931.66 1518.86 Q3934.42 1520.93 3939.21 1520.93 Q3944.36 1520.93 3947.17 1518.86 Q3949.97 1516.8 3950.96 1513.09 Q3951.54 1510.82 3951.5 1503.56 Q3946.63 1509.29 3939.37 1509.29 Q3930.34 1509.29 3925.39 1502.77 Q3920.44 1496.26 3920.44 1487.14 Q3920.44 1480.87 3922.7 1475.59 Q3924.97 1470.26 3929.26 1467.38 Q3933.6 1464.49 3939.41 1464.49 Q3947.17 1464.49 3952.2 1470.76 L3952.2 1465.48 L3959.05 1465.48 L3959.05 1503.35 Q3959.05 1513.58 3956.95 1517.83 Q3954.88 1522.12 3950.35 1524.6 Q3945.85 1527.07 3939.25 1527.07 Q3931.41 1527.07 3926.58 1523.52 Q3921.76 1520.02 3921.92 1512.92 M3928.07 1486.6 Q3928.07 1495.22 3931.49 1499.18 Q3934.92 1503.14 3940.07 1503.14 Q3945.19 1503.14 3948.65 1499.23 Q3952.12 1495.27 3952.12 1486.85 Q3952.12 1478.8 3948.53 1474.72 Q3944.98 1470.64 3939.95 1470.64 Q3935 1470.64 3931.53 1474.68 Q3928.07 1478.68 3928.07 1486.6 Z" fill="#000000" fill-rule="nonzero" fill-opacity="1" /><path clip-path="url(#clip820)" d="M4009.96 1502.65 L4011.03 1509.21 Q4007.9 1509.87 4005.42 1509.87 Q4001.38 1509.87 3999.15 1508.59 Q3996.92 1507.31 3996.01 1505.25 Q3995.11 1503.14 3995.11 1496.46 L3995.11 1471.25 L3989.66 1471.25 L3989.66 1465.48 L3995.11 1465.48 L3995.11 1454.63 L4002.49 1450.17 L4002.49 1465.48 L4009.96 1465.48 L4009.96 1471.25 L4002.49 1471.25 L4002.49 1496.87 Q4002.49 1500.05 4002.86 1500.96 Q4003.28 1501.87 4004.14 1502.4 Q4005.05 1502.94 4006.7 1502.94 Q4007.94 1502.94 4009.96 1502.65 Z" fill="#000000" fill-rule="nonzero" fill-opacity="1" /><path clip-path="url(#clip820)" d="M4017.22 1509.29 L4017.22 1448.81 L4024.65 1448.81 L4024.65 1470.51 Q4029.84 1464.49 4037.76 1464.49 Q4042.63 1464.49 4046.22 1466.43 Q4049.81 1468.33 4051.34 1471.71 Q4052.91 1475.09 4052.91 1481.53 L4052.91 1509.29 L4045.48 1509.29 L4045.48 1481.53 Q4045.48 1475.96 4043.05 1473.44 Q4040.65 1470.88 4036.24 1470.88 Q4032.94 1470.88 4030.01 1472.62 Q4027.12 1474.31 4025.88 1477.24 Q4024.65 1480.17 4024.65 1485.32 L4024.65 1509.29 L4017.22 1509.29 Z" fill="#000000" fill-rule="nonzero" fill-opacity="1" /><path clip-path="url(#clip820)" d="M4094.2 1495.18 L4101.88 1496.13 Q4100.06 1502.86 4095.15 1506.57 Q4090.24 1510.28 4082.61 1510.28 Q4073 1510.28 4067.34 1504.38 Q4061.73 1498.44 4061.73 1487.76 Q4061.73 1476.7 4067.43 1470.59 Q4073.12 1464.49 4082.2 1464.49 Q4090.98 1464.49 4096.55 1470.47 Q4102.12 1476.45 4102.12 1487.3 Q4102.12 1487.96 4102.08 1489.28 L4069.41 1489.28 Q4069.82 1496.5 4073.49 1500.34 Q4077.16 1504.18 4082.65 1504.18 Q4086.73 1504.18 4089.62 1502.03 Q4092.51 1499.89 4094.2 1495.18 M4069.82 1483.18 L4094.28 1483.18 Q4093.79 1477.65 4091.48 1474.89 Q4087.93 1470.59 4082.28 1470.59 Q4077.16 1470.59 4073.66 1474.02 Q4070.19 1477.44 4069.82 1483.18 Z" fill="#000000" fill-rule="nonzero" fill-opacity="1" /><path clip-path="url(#clip820)" d="M4134.67 1526.08 L4134.67 1465.48 L4141.44 1465.48 L4141.44 1471.17 Q4143.83 1467.83 4146.84 1466.18 Q4149.85 1464.49 4154.15 1464.49 Q4159.76 1464.49 4164.05 1467.38 Q4168.34 1470.26 4170.52 1475.55 Q4172.71 1480.78 4172.71 1487.06 Q4172.71 1493.78 4170.28 1499.18 Q4167.88 1504.55 4163.26 1507.44 Q4158.68 1510.28 4153.61 1510.28 Q4149.9 1510.28 4146.93 1508.71 Q4144 1507.15 4142.1 1504.75 L4142.1 1526.08 L4134.67 1526.08 M4141.4 1487.63 Q4141.4 1496.09 4144.82 1500.13 Q4148.25 1504.18 4153.11 1504.18 Q4158.06 1504.18 4161.57 1500.01 Q4165.12 1495.8 4165.12 1487.01 Q4165.12 1478.64 4161.65 1474.47 Q4158.23 1470.31 4153.44 1470.31 Q4148.7 1470.31 4145.03 1474.76 Q4141.4 1479.18 4141.4 1487.63 Z" fill="#000000" fill-rule="nonzero" fill-opacity="1" /><path clip-path="url(#clip820)" d="M4181.58 1509.29 L4181.58 1465.48 L4188.26 1465.48 L4188.26 1472.12 Q4190.82 1467.46 4192.97 1465.97 Q4195.15 1464.49 4197.75 1464.49 Q4201.51 1464.49 4205.38 1466.88 L4202.83 1473.77 Q4200.1 1472.16 4197.38 1472.16 Q4194.95 1472.16 4193.01 1473.65 Q4191.07 1475.09 4190.24 1477.69 Q4189.01 1481.65 4189.01 1486.35 L4189.01 1509.29 L4181.58 1509.29 Z" fill="#000000" fill-rule="nonzero" fill-opacity="1" /><path clip-path="url(#clip820)" d="M4207.03 1487.39 Q4207.03 1475.22 4213.8 1469.36 Q4219.45 1464.49 4227.58 1464.49 Q4236.61 1464.49 4242.35 1470.43 Q4248.08 1476.33 4248.08 1486.77 Q4248.08 1495.22 4245.53 1500.09 Q4243.01 1504.92 4238.14 1507.6 Q4233.31 1510.28 4227.58 1510.28 Q4218.38 1510.28 4212.69 1504.38 Q4207.03 1498.48 4207.03 1487.39 M4214.67 1487.39 Q4214.67 1495.8 4218.34 1500.01 Q4222.01 1504.18 4227.58 1504.18 Q4233.11 1504.18 4236.78 1499.97 Q4240.45 1495.76 4240.45 1487.14 Q4240.45 1479.01 4236.74 1474.84 Q4233.07 1470.64 4227.58 1470.64 Q4222.01 1470.64 4218.34 1474.8 Q4214.67 1478.97 4214.67 1487.39 Z" fill="#000000" fill-rule="nonzero" fill-opacity="1" /><path clip-path="url(#clip820)" d="M4256.75 1457.43 L4256.75 1448.81 L4264.17 1448.81 L4264.17 1457.43 L4256.75 1457.43 M4247.34 1526.29 L4248.74 1519.98 Q4250.97 1520.55 4252.25 1520.55 Q4254.52 1520.55 4255.63 1519.03 Q4256.75 1517.54 4256.75 1511.52 L4256.75 1465.48 L4264.17 1465.48 L4264.17 1511.68 Q4264.17 1519.77 4262.07 1522.95 Q4259.39 1527.07 4253.16 1527.07 Q4250.15 1527.07 4247.34 1526.29 Z" fill="#000000" fill-rule="nonzero" fill-opacity="1" /><path clip-path="url(#clip820)" d="M4305.55 1495.18 L4313.23 1496.13 Q4311.41 1502.86 4306.5 1506.57 Q4301.59 1510.28 4293.96 1510.28 Q4284.35 1510.28 4278.69 1504.38 Q4273.08 1498.44 4273.08 1487.76 Q4273.08 1476.7 4278.78 1470.59 Q4284.47 1464.49 4293.55 1464.49 Q4302.33 1464.49 4307.9 1470.47 Q4313.47 1476.45 4313.47 1487.3 Q4313.47 1487.96 4313.43 1489.28 L4280.76 1489.28 Q4281.17 1496.5 4284.84 1500.34 Q4288.51 1504.18 4294 1504.18 Q4298.08 1504.18 4300.97 1502.03 Q4303.86 1499.89 4305.55 1495.18 M4281.17 1483.18 L4305.63 1483.18 Q4305.14 1477.65 4302.83 1474.89 Q4299.28 1470.59 4293.63 1470.59 Q4288.51 1470.59 4285.01 1474.02 Q4281.54 1477.44 4281.17 1483.18 Z" fill="#000000" fill-rule="nonzero" fill-opacity="1" /><path clip-path="url(#clip820)" d="M4351.14 1493.24 L4358.44 1494.19 Q4357.24 1501.74 4352.29 1506.03 Q4347.38 1510.28 4340.21 1510.28 Q4331.21 1510.28 4325.73 1504.42 Q4320.28 1498.52 4320.28 1487.55 Q4320.28 1480.45 4322.63 1475.13 Q4324.98 1469.81 4329.77 1467.17 Q4334.6 1464.49 4340.25 1464.49 Q4347.38 1464.49 4351.92 1468.12 Q4356.46 1471.71 4357.74 1478.35 L4350.52 1479.46 Q4349.49 1475.05 4346.85 1472.82 Q4344.25 1470.59 4340.54 1470.59 Q4334.93 1470.59 4331.42 1474.64 Q4327.91 1478.64 4327.91 1487.34 Q4327.91 1496.17 4331.29 1500.17 Q4334.68 1504.18 4340.12 1504.18 Q4344.5 1504.18 4347.43 1501.49 Q4350.35 1498.81 4351.14 1493.24 Z" fill="#000000" fill-rule="nonzero" fill-opacity="1" /><path clip-path="url(#clip820)" d="M4381.01 1502.65 L4382.08 1509.21 Q4378.94 1509.87 4376.47 1509.87 Q4372.43 1509.87 4370.2 1508.59 Q4367.97 1507.31 4367.06 1505.25 Q4366.16 1503.14 4366.16 1496.46 L4366.16 1471.25 L4360.71 1471.25 L4360.71 1465.48 L4366.16 1465.48 L4366.16 1454.63 L4373.54 1450.17 L4373.54 1465.48 L4381.01 1465.48 L4381.01 1471.25 L4373.54 1471.25 L4373.54 1496.87 Q4373.54 1500.05 4373.91 1500.96 Q4374.32 1501.87 4375.19 1502.4 Q4376.1 1502.94 4377.75 1502.94 Q4378.99 1502.94 4381.01 1502.65 Z" fill="#000000" fill-rule="nonzero" fill-opacity="1" /><path clip-path="url(#clip820)" d="M4388.31 1457.35 L4388.31 1448.81 L4395.74 1448.81 L4395.74 1457.35 L4388.31 1457.35 M4388.31 1509.29 L4388.31 1465.48 L4395.74 1465.48 L4395.74 1509.29 L4388.31 1509.29 Z" fill="#000000" fill-rule="nonzero" fill-opacity="1" /><path clip-path="url(#clip820)" d="M4404.28 1487.39 Q4404.28 1475.22 4411.04 1469.36 Q4416.69 1464.49 4424.82 1464.49 Q4433.86 1464.49 4439.59 1470.43 Q4445.32 1476.33 4445.32 1486.77 Q4445.32 1495.22 4442.77 1500.09 Q4440.25 1504.92 4435.38 1507.6 Q4430.55 1510.28 4424.82 1510.28 Q4415.62 1510.28 4409.93 1504.38 Q4404.28 1498.48 4404.28 1487.39 M4411.91 1487.39 Q4411.91 1495.8 4415.58 1500.01 Q4419.25 1504.18 4424.82 1504.18 Q4430.35 1504.18 4434.02 1499.97 Q4437.69 1495.76 4437.69 1487.14 Q4437.69 1479.01 4433.98 1474.84 Q4430.31 1470.64 4424.82 1470.64 Q4419.25 1470.64 4415.58 1474.8 Q4411.91 1478.97 4411.91 1487.39 Z" fill="#000000" fill-rule="nonzero" fill-opacity="1" /><path clip-path="url(#clip820)" d="M4454.03 1509.29 L4454.03 1465.48 L4460.71 1465.48 L4460.71 1471.71 Q4465.54 1464.49 4474.66 1464.49 Q4478.62 1464.49 4481.92 1465.93 Q4485.26 1467.34 4486.91 1469.65 Q4488.56 1471.96 4489.22 1475.13 Q4489.63 1477.2 4489.63 1482.35 L4489.63 1509.29 L4482.21 1509.29 L4482.21 1482.64 Q4482.21 1478.1 4481.34 1475.88 Q4480.47 1473.61 4478.25 1472.29 Q4476.06 1470.92 4473.09 1470.92 Q4468.34 1470.92 4464.88 1473.94 Q4461.45 1476.95 4461.45 1485.36 L4461.45 1509.29 L4454.03 1509.29 Z" fill="#000000" fill-rule="nonzero" fill-opacity="1" /><polyline clip-path="url(#clip820)" style="stroke:#ff0000; stroke-linecap:round; stroke-linejoin:round; stroke-width:21; stroke-opacity:1; fill:none" points="2555.95,1569.77 2879.94,1569.77 "/>
<path clip-path="url(#clip820)" d="M2956.22 1600.01 L2948.79 1600.01 L2948.79 1552.69 Q2946.11 1555.25 2941.74 1557.81 Q2937.41 1560.37 2933.94 1561.64 L2933.94 1554.47 Q2940.17 1551.54 2944.83 1547.37 Q2949.5 1543.2 2951.43 1539.28 L2956.22 1539.28 L2956.22 1600.01 Z" fill="#000000" fill-rule="nonzero" fill-opacity="1" /><path clip-path="url(#clip820)" d="M2975.24 1570.18 Q2975.24 1559.46 2977.43 1552.94 Q2979.65 1546.38 2983.99 1542.83 Q2988.36 1539.28 2994.96 1539.28 Q2999.83 1539.28 3003.5 1541.26 Q3007.17 1543.2 3009.56 1546.92 Q3011.96 1550.59 3013.32 1555.91 Q3014.68 1561.19 3014.68 1570.18 Q3014.68 1580.83 3012.49 1587.39 Q3010.31 1593.91 3005.93 1597.5 Q3001.6 1601.04 2994.96 1601.04 Q2986.21 1601.04 2981.22 1594.77 Q2975.24 1587.22 2975.24 1570.18 M2982.87 1570.18 Q2982.87 1585.08 2986.34 1590.03 Q2989.84 1594.94 2994.96 1594.94 Q3000.07 1594.94 3003.54 1589.99 Q3007.05 1585.04 3007.05 1570.18 Q3007.05 1555.25 3003.54 1550.34 Q3000.07 1545.43 2994.88 1545.43 Q2989.76 1545.43 2986.71 1549.76 Q2982.87 1555.29 2982.87 1570.18 Z" fill="#000000" fill-rule="nonzero" fill-opacity="1" /><path clip-path="url(#clip820)" d="M3023.63 1554.05 Q3023.63 1547.58 3026.89 1543.04 Q3030.15 1538.5 3036.34 1538.5 Q3042.03 1538.5 3045.74 1542.58 Q3049.5 1546.63 3049.5 1554.51 Q3049.5 1562.18 3045.7 1566.35 Q3041.95 1570.47 3036.42 1570.47 Q3030.93 1570.47 3027.26 1566.39 Q3023.63 1562.3 3023.63 1554.05 M3036.54 1543.62 Q3033.78 1543.62 3031.92 1546.01 Q3030.11 1548.4 3030.11 1554.8 Q3030.11 1560.61 3031.96 1563.01 Q3033.82 1565.36 3036.54 1565.36 Q3039.35 1565.36 3041.16 1562.96 Q3043.02 1560.57 3043.02 1554.22 Q3043.02 1548.36 3041.16 1546.01 Q3039.31 1543.62 3036.54 1543.62 M3036.59 1602.24 L3069.67 1538.5 L3075.7 1538.5 L3042.73 1602.24 L3036.59 1602.24 M3062.74 1585.82 Q3062.74 1579.3 3066 1574.8 Q3069.26 1570.27 3075.49 1570.27 Q3081.18 1570.27 3084.9 1574.35 Q3088.65 1578.39 3088.65 1586.27 Q3088.65 1593.95 3084.85 1598.11 Q3081.1 1602.24 3075.53 1602.24 Q3070.04 1602.24 3066.37 1598.16 Q3062.74 1594.03 3062.74 1585.82 M3075.7 1575.38 Q3072.89 1575.38 3071.03 1577.78 Q3069.22 1580.17 3069.22 1586.56 Q3069.22 1592.34 3071.07 1594.73 Q3072.93 1597.12 3075.65 1597.12 Q3078.5 1597.12 3080.32 1594.73 Q3082.17 1592.34 3082.17 1585.99 Q3082.17 1580.13 3080.32 1577.78 Q3078.46 1575.38 3075.7 1575.38 Z" fill="#000000" fill-rule="nonzero" fill-opacity="1" /><path clip-path="url(#clip820)" d="M3122.89 1616.8 L3122.89 1556.2 L3129.66 1556.2 L3129.66 1561.89 Q3132.05 1558.55 3135.06 1556.9 Q3138.07 1555.21 3142.36 1555.21 Q3147.97 1555.21 3152.26 1558.1 Q3156.56 1560.98 3158.74 1566.27 Q3160.93 1571.5 3160.93 1577.78 Q3160.93 1584.5 3158.49 1589.9 Q3156.1 1595.27 3151.48 1598.16 Q3146.9 1601 3141.83 1601 Q3138.11 1601 3135.14 1599.43 Q3132.21 1597.87 3130.32 1595.47 L3130.32 1616.8 L3122.89 1616.8 M3129.62 1578.35 Q3129.62 1586.81 3133.04 1590.85 Q3136.46 1594.9 3141.33 1594.9 Q3146.28 1594.9 3149.79 1590.73 Q3153.34 1586.52 3153.34 1577.73 Q3153.34 1569.36 3149.87 1565.19 Q3146.45 1561.03 3141.66 1561.03 Q3136.92 1561.03 3133.25 1565.48 Q3129.62 1569.9 3129.62 1578.35 Z" fill="#000000" fill-rule="nonzero" fill-opacity="1" /><path clip-path="url(#clip820)" d="M3199.87 1585.9 L3207.55 1586.85 Q3205.73 1593.58 3200.82 1597.29 Q3195.91 1601 3188.28 1601 Q3178.67 1601 3173.02 1595.1 Q3167.41 1589.16 3167.41 1578.48 Q3167.41 1567.42 3173.1 1561.31 Q3178.79 1555.21 3187.87 1555.21 Q3196.66 1555.21 3202.22 1561.19 Q3207.79 1567.17 3207.79 1578.02 Q3207.79 1578.68 3207.75 1580 L3175.08 1580 Q3175.49 1587.22 3179.16 1591.06 Q3182.83 1594.9 3188.32 1594.9 Q3192.41 1594.9 3195.29 1592.75 Q3198.18 1590.61 3199.87 1585.9 M3175.49 1573.9 L3199.96 1573.9 Q3199.46 1568.37 3197.15 1565.61 Q3193.6 1561.31 3187.95 1561.31 Q3182.83 1561.31 3179.33 1564.74 Q3175.86 1568.16 3175.49 1573.9 Z" fill="#000000" fill-rule="nonzero" fill-opacity="1" /><path clip-path="url(#clip820)" d="M3216.79 1600.01 L3216.79 1556.2 L3223.47 1556.2 L3223.47 1562.84 Q3226.03 1558.18 3228.17 1556.69 Q3230.36 1555.21 3232.96 1555.21 Q3236.71 1555.21 3240.59 1557.6 L3238.03 1564.49 Q3235.31 1562.88 3232.59 1562.88 Q3230.15 1562.88 3228.22 1564.37 Q3226.28 1565.81 3225.45 1568.41 Q3224.21 1572.37 3224.21 1577.07 L3224.21 1600.01 L3216.79 1600.01 Z" fill="#000000" fill-rule="nonzero" fill-opacity="1" /><path clip-path="url(#clip820)" d="M3261.22 1593.37 L3262.29 1599.93 Q3259.16 1600.59 3256.68 1600.59 Q3252.64 1600.59 3250.41 1599.31 Q3248.18 1598.03 3247.28 1595.97 Q3246.37 1593.86 3246.37 1587.18 L3246.37 1561.97 L3240.92 1561.97 L3240.92 1556.2 L3246.37 1556.2 L3246.37 1545.35 L3253.75 1540.89 L3253.75 1556.2 L3261.22 1556.2 L3261.22 1561.97 L3253.75 1561.97 L3253.75 1587.59 Q3253.75 1590.77 3254.12 1591.68 Q3254.54 1592.59 3255.4 1593.12 Q3256.31 1593.66 3257.96 1593.66 Q3259.2 1593.66 3261.22 1593.37 Z" fill="#000000" fill-rule="nonzero" fill-opacity="1" /><path clip-path="url(#clip820)" d="M3297.19 1600.01 L3297.19 1593.58 Q3292.08 1601 3283.29 1601 Q3279.41 1601 3276.03 1599.52 Q3272.69 1598.03 3271.04 1595.8 Q3269.43 1593.53 3268.77 1590.28 Q3268.32 1588.09 3268.32 1583.34 L3268.32 1556.2 L3275.74 1556.2 L3275.74 1580.5 Q3275.74 1586.32 3276.2 1588.34 Q3276.9 1591.27 3279.17 1592.96 Q3281.43 1594.61 3284.78 1594.61 Q3288.12 1594.61 3291.05 1592.92 Q3293.98 1591.18 3295.17 1588.25 Q3296.41 1585.28 3296.41 1579.67 L3296.41 1556.2 L3303.84 1556.2 L3303.84 1600.01 L3297.19 1600.01 Z" fill="#000000" fill-rule="nonzero" fill-opacity="1" /><path clip-path="url(#clip820)" d="M3315.39 1600.01 L3315.39 1556.2 L3322.07 1556.2 L3322.07 1562.84 Q3324.63 1558.18 3326.77 1556.69 Q3328.96 1555.21 3331.56 1555.21 Q3335.31 1555.21 3339.19 1557.6 L3336.63 1564.49 Q3333.91 1562.88 3331.19 1562.88 Q3328.75 1562.88 3326.82 1564.37 Q3324.88 1565.81 3324.05 1568.41 Q3322.81 1572.37 3322.81 1577.07 L3322.81 1600.01 L3315.39 1600.01 Z" fill="#000000" fill-rule="nonzero" fill-opacity="1" /><path clip-path="url(#clip820)" d="M3350.45 1600.01 L3343.56 1600.01 L3343.56 1539.53 L3350.99 1539.53 L3350.99 1561.11 Q3355.69 1555.21 3363 1555.21 Q3367.04 1555.21 3370.63 1556.86 Q3374.26 1558.47 3376.57 1561.44 Q3378.92 1564.37 3380.24 1568.53 Q3381.56 1572.7 3381.56 1577.45 Q3381.56 1588.71 3375.99 1594.85 Q3370.42 1601 3362.62 1601 Q3354.87 1601 3350.45 1594.52 L3350.45 1600.01 M3350.37 1577.78 Q3350.37 1585.66 3352.52 1589.16 Q3356.02 1594.9 3362.01 1594.9 Q3366.87 1594.9 3370.42 1590.69 Q3373.97 1586.44 3373.97 1578.06 Q3373.97 1569.48 3370.55 1565.4 Q3367.16 1561.31 3362.34 1561.31 Q3357.47 1561.31 3353.92 1565.56 Q3350.37 1569.77 3350.37 1577.78 Z" fill="#000000" fill-rule="nonzero" fill-opacity="1" /><path clip-path="url(#clip820)" d="M3419.19 1594.61 Q3415.06 1598.11 3411.22 1599.56 Q3407.43 1601 3403.05 1601 Q3395.84 1601 3391.96 1597.5 Q3388.08 1593.95 3388.08 1588.46 Q3388.08 1585.24 3389.52 1582.6 Q3391.01 1579.92 3393.36 1578.31 Q3395.75 1576.7 3398.72 1575.88 Q3400.91 1575.3 3405.32 1574.76 Q3414.32 1573.69 3418.57 1572.21 Q3418.61 1570.68 3418.61 1570.27 Q3418.61 1565.73 3416.5 1563.87 Q3413.66 1561.36 3408.05 1561.36 Q3402.81 1561.36 3400.29 1563.21 Q3397.82 1565.03 3396.62 1569.69 L3389.36 1568.7 Q3390.35 1564.04 3392.62 1561.19 Q3394.89 1558.3 3399.18 1556.78 Q3403.47 1555.21 3409.12 1555.21 Q3414.73 1555.21 3418.24 1556.53 Q3421.74 1557.85 3423.39 1559.87 Q3425.04 1561.85 3425.7 1564.9 Q3426.08 1566.8 3426.08 1571.75 L3426.08 1581.65 Q3426.08 1592.01 3426.53 1594.77 Q3427.02 1597.5 3428.43 1600.01 L3420.67 1600.01 Q3419.52 1597.7 3419.19 1594.61 M3418.57 1578.02 Q3414.52 1579.67 3406.44 1580.83 Q3401.86 1581.49 3399.96 1582.31 Q3398.06 1583.14 3397.03 1584.75 Q3396 1586.32 3396 1588.25 Q3396 1591.22 3398.23 1593.2 Q3400.5 1595.18 3404.83 1595.18 Q3409.12 1595.18 3412.46 1593.33 Q3415.8 1591.43 3417.37 1588.17 Q3418.57 1585.66 3418.57 1580.75 L3418.57 1578.02 Z" fill="#000000" fill-rule="nonzero" fill-opacity="1" /><path clip-path="url(#clip820)" d="M3453.8 1593.37 L3454.87 1599.93 Q3451.74 1600.59 3449.26 1600.59 Q3445.22 1600.59 3442.99 1599.31 Q3440.76 1598.03 3439.85 1595.97 Q3438.95 1593.86 3438.95 1587.18 L3438.95 1561.97 L3433.5 1561.97 L3433.5 1556.2 L3438.95 1556.2 L3438.95 1545.35 L3446.33 1540.89 L3446.33 1556.2 L3453.8 1556.2 L3453.8 1561.97 L3446.33 1561.97 L3446.33 1587.59 Q3446.33 1590.77 3446.7 1591.68 Q3447.12 1592.59 3447.98 1593.12 Q3448.89 1593.66 3450.54 1593.66 Q3451.78 1593.66 3453.8 1593.37 Z" fill="#000000" fill-rule="nonzero" fill-opacity="1" /><path clip-path="url(#clip820)" d="M3461.1 1548.07 L3461.1 1539.53 L3468.53 1539.53 L3468.53 1548.07 L3461.1 1548.07 M3461.1 1600.01 L3461.1 1556.2 L3468.53 1556.2 L3468.53 1600.01 L3461.1 1600.01 Z" fill="#000000" fill-rule="nonzero" fill-opacity="1" /><path clip-path="url(#clip820)" d="M3477.07 1578.11 Q3477.07 1565.94 3483.83 1560.08 Q3489.48 1555.21 3497.61 1555.21 Q3506.65 1555.21 3512.38 1561.15 Q3518.12 1567.05 3518.12 1577.49 Q3518.12 1585.94 3515.56 1590.81 Q3513.04 1595.64 3508.17 1598.32 Q3503.35 1601 3497.61 1601 Q3488.41 1601 3482.72 1595.1 Q3477.07 1589.2 3477.07 1578.11 M3484.7 1578.11 Q3484.7 1586.52 3488.37 1590.73 Q3492.04 1594.9 3497.61 1594.9 Q3503.14 1594.9 3506.81 1590.69 Q3510.48 1586.48 3510.48 1577.86 Q3510.48 1569.73 3506.77 1565.56 Q3503.1 1561.36 3497.61 1561.36 Q3492.04 1561.36 3488.37 1565.52 Q3484.7 1569.69 3484.7 1578.11 Z" fill="#000000" fill-rule="nonzero" fill-opacity="1" /><path clip-path="url(#clip820)" d="M3526.82 1600.01 L3526.82 1556.2 L3533.5 1556.2 L3533.5 1562.43 Q3538.33 1555.21 3547.45 1555.21 Q3551.41 1555.21 3554.71 1556.65 Q3558.05 1558.06 3559.7 1560.37 Q3561.35 1562.68 3562.01 1565.85 Q3562.42 1567.92 3562.42 1573.07 L3562.42 1600.01 L3555 1600.01 L3555 1573.36 Q3555 1568.82 3554.13 1566.6 Q3553.26 1564.33 3551.04 1563.01 Q3548.85 1561.64 3545.88 1561.64 Q3541.14 1561.64 3537.67 1564.66 Q3534.25 1567.67 3534.25 1576.08 L3534.25 1600.01 L3526.82 1600.01 Z" fill="#000000" fill-rule="nonzero" fill-opacity="1" /><path clip-path="url(#clip820)" d="M3594.31 1586.93 L3601.66 1585.78 Q3602.28 1590.19 3605.08 1592.54 Q3607.93 1594.9 3613 1594.9 Q3618.12 1594.9 3620.59 1592.83 Q3623.07 1590.73 3623.07 1587.92 Q3623.07 1585.41 3620.88 1583.96 Q3619.36 1582.97 3613.29 1581.45 Q3605.12 1579.38 3601.95 1577.9 Q3598.81 1576.37 3597.16 1573.73 Q3595.55 1571.05 3595.55 1567.83 Q3595.55 1564.9 3596.87 1562.43 Q3598.23 1559.91 3600.54 1558.26 Q3602.28 1556.98 3605.25 1556.12 Q3608.26 1555.21 3611.68 1555.21 Q3616.84 1555.21 3620.72 1556.69 Q3624.64 1558.18 3626.49 1560.74 Q3628.35 1563.25 3629.05 1567.5 L3621.79 1568.49 Q3621.29 1565.11 3618.9 1563.21 Q3616.55 1561.31 3612.22 1561.31 Q3607.1 1561.31 3604.92 1563.01 Q3602.73 1564.7 3602.73 1566.97 Q3602.73 1568.41 3603.64 1569.57 Q3604.54 1570.76 3606.48 1571.55 Q3607.6 1571.96 3613.04 1573.44 Q3620.92 1575.55 3624.02 1576.91 Q3627.15 1578.23 3628.93 1580.79 Q3630.7 1583.34 3630.7 1587.14 Q3630.7 1590.85 3628.51 1594.15 Q3626.37 1597.41 3622.28 1599.23 Q3618.2 1601 3613.04 1601 Q3604.5 1601 3600.01 1597.45 Q3595.55 1593.91 3594.31 1586.93 Z" fill="#000000" fill-rule="nonzero" fill-opacity="1" /><path clip-path="url(#clip820)" d="M3636.76 1578.11 Q3636.76 1565.94 3643.53 1560.08 Q3649.18 1555.21 3657.31 1555.21 Q3666.34 1555.21 3672.08 1561.15 Q3677.81 1567.05 3677.81 1577.49 Q3677.81 1585.94 3675.26 1590.81 Q3672.74 1595.64 3667.87 1598.32 Q3663.04 1601 3657.31 1601 Q3648.11 1601 3642.42 1595.1 Q3636.76 1589.2 3636.76 1578.11 M3644.4 1578.11 Q3644.4 1586.52 3648.07 1590.73 Q3651.74 1594.9 3657.31 1594.9 Q3662.84 1594.9 3666.51 1590.69 Q3670.18 1586.48 3670.18 1577.86 Q3670.18 1569.73 3666.47 1565.56 Q3662.8 1561.36 3657.31 1561.36 Q3651.74 1561.36 3648.07 1565.52 Q3644.4 1569.69 3644.4 1578.11 Z" fill="#000000" fill-rule="nonzero" fill-opacity="1" /><path clip-path="url(#clip820)" d="M3686.35 1600.01 L3686.35 1539.53 L3693.78 1539.53 L3693.78 1600.01 L3686.35 1600.01 Z" fill="#000000" fill-rule="nonzero" fill-opacity="1" /><path clip-path="url(#clip820)" d="M3735.28 1585.9 L3742.96 1586.85 Q3741.14 1593.58 3736.23 1597.29 Q3731.32 1601 3723.69 1601 Q3714.08 1601 3708.43 1595.1 Q3702.81 1589.16 3702.81 1578.48 Q3702.81 1567.42 3708.51 1561.31 Q3714.2 1555.21 3723.28 1555.21 Q3732.06 1555.21 3737.63 1561.19 Q3743.2 1567.17 3743.2 1578.02 Q3743.2 1578.68 3743.16 1580 L3710.49 1580 Q3710.9 1587.22 3714.57 1591.06 Q3718.24 1594.9 3723.73 1594.9 Q3727.81 1594.9 3730.7 1592.75 Q3733.59 1590.61 3735.28 1585.9 M3710.9 1573.9 L3735.36 1573.9 Q3734.87 1568.37 3732.56 1565.61 Q3729.01 1561.31 3723.36 1561.31 Q3718.24 1561.31 3714.74 1564.74 Q3711.27 1568.16 3710.9 1573.9 Z" fill="#000000" fill-rule="nonzero" fill-opacity="1" /><path clip-path="url(#clip820)" d="M3752.11 1600.01 L3752.11 1539.53 L3759.54 1539.53 L3759.54 1600.01 L3752.11 1600.01 Z" fill="#000000" fill-rule="nonzero" fill-opacity="1" /><path clip-path="url(#clip820)" d="M3770.72 1616.89 L3769.9 1609.91 Q3772.33 1610.57 3774.14 1610.57 Q3776.62 1610.57 3778.1 1609.75 Q3779.59 1608.92 3780.54 1607.44 Q3781.24 1606.32 3782.81 1601.91 Q3783.01 1601.29 3783.47 1600.09 L3766.84 1556.2 L3774.85 1556.2 L3783.96 1581.57 Q3785.74 1586.4 3787.14 1591.72 Q3788.42 1586.6 3790.19 1581.74 L3799.56 1556.2 L3806.98 1556.2 L3790.32 1600.75 Q3787.63 1607.97 3786.15 1610.7 Q3784.17 1614.37 3781.61 1616.06 Q3779.05 1617.79 3775.51 1617.79 Q3773.36 1617.79 3770.72 1616.89 Z" fill="#000000" fill-rule="nonzero" fill-opacity="1" /><path clip-path="url(#clip820)" d="M3834.01 1578.11 Q3834.01 1565.94 3840.77 1560.08 Q3846.42 1555.21 3854.55 1555.21 Q3863.59 1555.21 3869.32 1561.15 Q3875.05 1567.05 3875.05 1577.49 Q3875.05 1585.94 3872.5 1590.81 Q3869.98 1595.64 3865.11 1598.32 Q3860.29 1601 3854.55 1601 Q3845.35 1601 3839.66 1595.1 Q3834.01 1589.2 3834.01 1578.11 M3841.64 1578.11 Q3841.64 1586.52 3845.31 1590.73 Q3848.98 1594.9 3854.55 1594.9 Q3860.08 1594.9 3863.75 1590.69 Q3867.42 1586.48 3867.42 1577.86 Q3867.42 1569.73 3863.71 1565.56 Q3860.04 1561.36 3854.55 1561.36 Q3848.98 1561.36 3845.31 1565.52 Q3841.64 1569.69 3841.64 1578.11 Z" fill="#000000" fill-rule="nonzero" fill-opacity="1" /><path clip-path="url(#clip820)" d="M3885.53 1600.01 L3885.53 1561.97 L3878.97 1561.97 L3878.97 1556.2 L3885.53 1556.2 L3885.53 1551.54 Q3885.53 1547.12 3886.32 1544.98 Q3887.39 1542.09 3890.07 1540.32 Q3892.79 1538.5 3897.66 1538.5 Q3900.8 1538.5 3904.59 1539.24 L3903.48 1545.72 Q3901.17 1545.31 3899.11 1545.31 Q3895.72 1545.31 3894.32 1546.75 Q3892.92 1548.2 3892.92 1552.16 L3892.92 1556.2 L3901.46 1556.2 L3901.46 1561.97 L3892.92 1561.97 L3892.92 1600.01 L3885.53 1600.01 Z" fill="#000000" fill-rule="nonzero" fill-opacity="1" /><path clip-path="url(#clip820)" d="M3963.22 1556.2 L3970.81 1556.2 Q3967.92 1565.28 3965.49 1578.11 Q3968.37 1594.03 3970.81 1600.01 L3963.42 1600.01 Q3961.65 1595.89 3960.74 1592.01 Q3957.32 1601 3946.43 1601 Q3938.17 1601 3933.14 1594.81 Q3928.11 1588.63 3928.11 1578.02 Q3928.11 1567.13 3933.14 1561.19 Q3938.22 1555.21 3946.55 1555.21 Q3951.71 1555.21 3954.97 1557.31 Q3958.22 1559.38 3961.03 1563.62 Q3961.32 1562.18 3963.22 1556.2 M3947.79 1561.36 Q3942.47 1561.36 3939.37 1565.65 Q3936.28 1569.94 3936.28 1578.02 Q3936.28 1585.9 3939.21 1590.4 Q3942.14 1594.9 3947.37 1594.9 Q3952.49 1594.9 3955.91 1590.48 Q3959.34 1586.03 3959.34 1577.69 Q3959.34 1569.61 3956.12 1565.48 Q3952.94 1561.36 3947.79 1561.36 Z" fill="#000000" fill-rule="nonzero" fill-opacity="1" /></svg>
