<?xml version="1.0" encoding="utf-8"?>
<svg xmlns="http://www.w3.org/2000/svg" xmlns:xlink="http://www.w3.org/1999/xlink" width="800" height="600" viewBox="0 0 3200 2400">
<defs>
  <clipPath id="clip650">
    <rect x="0" y="0" width="3200" height="2400"/>
  </clipPath>
</defs>
<path clip-path="url(#clip650)" d="M0 2400 L3200 2400 L3200 0 L0 0  Z" fill="#ffffff" fill-rule="evenodd" fill-opacity="1"/>
<defs>
  <clipPath id="clip651">
    <rect x="640" y="0" width="2241" height="2241"/>
  </clipPath>
</defs>
<path clip-path="url(#clip650)" d="M406.445 1642.95 L3152.76 1642.95 L3152.76 47.2441 L406.445 47.2441  Z" fill="#ffffff" fill-rule="evenodd" fill-opacity="1"/>
<defs>
  <clipPath id="clip652">
    <rect x="406" y="47" width="2747" height="1597"/>
  </clipPath>
</defs>
<polyline clip-path="url(#clip652)" style="stroke:#000000; stroke-linecap:round; stroke-linejoin:round; stroke-width:2; stroke-opacity:0.1; fill:none" points="484.171,1642.95 484.171,47.2441 "/>
<polyline clip-path="url(#clip652)" style="stroke:#000000; stroke-linecap:round; stroke-linejoin:round; stroke-width:2; stroke-opacity:0.1; fill:none" points="1002.34,1642.95 1002.34,47.2441 "/>
<polyline clip-path="url(#clip652)" style="stroke:#000000; stroke-linecap:round; stroke-linejoin:round; stroke-width:2; stroke-opacity:0.1; fill:none" points="1520.51,1642.95 1520.51,47.2441 "/>
<polyline clip-path="url(#clip652)" style="stroke:#000000; stroke-linecap:round; stroke-linejoin:round; stroke-width:2; stroke-opacity:0.1; fill:none" points="2038.69,1642.95 2038.69,47.2441 "/>
<polyline clip-path="url(#clip652)" style="stroke:#000000; stroke-linecap:round; stroke-linejoin:round; stroke-width:2; stroke-opacity:0.1; fill:none" points="2556.86,1642.95 2556.86,47.2441 "/>
<polyline clip-path="url(#clip652)" style="stroke:#000000; stroke-linecap:round; stroke-linejoin:round; stroke-width:2; stroke-opacity:0.1; fill:none" points="3075.03,1642.95 3075.03,47.2441 "/>
<polyline clip-path="url(#clip650)" style="stroke:#000000; stroke-linecap:round; stroke-linejoin:round; stroke-width:4; stroke-opacity:1; fill:none" points="406.445,1642.95 3152.76,1642.95 "/>
<polyline clip-path="url(#clip650)" style="stroke:#000000; stroke-linecap:round; stroke-linejoin:round; stroke-width:4; stroke-opacity:1; fill:none" points="484.171,1642.95 484.171,1628.81 "/>
<polyline clip-path="url(#clip650)" style="stroke:#000000; stroke-linecap:round; stroke-linejoin:round; stroke-width:4; stroke-opacity:1; fill:none" points="1002.34,1642.95 1002.34,1628.81 "/>
<polyline clip-path="url(#clip650)" style="stroke:#000000; stroke-linecap:round; stroke-linejoin:round; stroke-width:4; stroke-opacity:1; fill:none" points="1520.51,1642.95 1520.51,1628.81 "/>
<polyline clip-path="url(#clip650)" style="stroke:#000000; stroke-linecap:round; stroke-linejoin:round; stroke-width:4; stroke-opacity:1; fill:none" points="2038.69,1642.95 2038.69,1628.81 "/>
<polyline clip-path="url(#clip650)" style="stroke:#000000; stroke-linecap:round; stroke-linejoin:round; stroke-width:4; stroke-opacity:1; fill:none" points="2556.86,1642.95 2556.86,1628.81 "/>
<polyline clip-path="url(#clip650)" style="stroke:#000000; stroke-linecap:round; stroke-linejoin:round; stroke-width:4; stroke-opacity:1; fill:none" points="3075.03,1642.95 3075.03,1628.81 "/>
<path clip-path="url(#clip650)" d="M467.268 1707.78 Q467.268 1698.59 469.142 1693 Q471.052 1687.38 474.765 1684.34 Q478.513 1681.3 484.171 1681.3 Q488.344 1681.3 491.491 1682.99 Q494.638 1684.65 496.689 1687.84 Q498.74 1690.98 499.907 1695.55 Q501.074 1700.07 501.074 1707.78 Q501.074 1716.9 499.2 1722.53 Q497.326 1728.11 493.577 1731.19 Q489.864 1734.23 484.171 1734.23 Q476.674 1734.23 472.396 1728.86 Q467.268 1722.39 467.268 1707.78 M473.81 1707.78 Q473.81 1720.55 476.781 1724.79 Q479.786 1729 484.171 1729 Q488.556 1729 491.526 1724.75 Q494.532 1720.51 494.532 1707.78 Q494.532 1694.98 491.526 1690.77 Q488.556 1686.56 484.1 1686.56 Q479.716 1686.56 477.099 1690.28 Q473.81 1695.02 473.81 1707.78 Z" fill="#000000" fill-rule="nonzero" fill-opacity="1" /><path clip-path="url(#clip650)" d="M1011.89 1733.35 L1005.53 1733.35 L1005.53 1692.79 Q1003.23 1694.98 999.479 1697.17 Q995.766 1699.36 992.795 1700.46 L992.795 1694.31 Q998.135 1691.8 1002.13 1688.23 Q1006.13 1684.65 1007.79 1681.3 L1011.89 1681.3 L1011.89 1733.35 Z" fill="#000000" fill-rule="nonzero" fill-opacity="1" /><path clip-path="url(#clip650)" d="M1537.68 1727.23 L1537.68 1733.35 L1503.42 1733.35 Q1503.35 1731.05 1504.16 1728.93 Q1505.47 1725.43 1508.33 1722.03 Q1511.23 1718.64 1516.68 1714.18 Q1525.13 1707.25 1528.1 1703.22 Q1531.07 1699.15 1531.07 1695.55 Q1531.07 1691.76 1528.35 1689.18 Q1525.66 1686.56 1521.31 1686.56 Q1516.71 1686.56 1513.96 1689.32 Q1511.2 1692.08 1511.16 1696.96 L1504.62 1696.29 Q1505.29 1688.97 1509.68 1685.15 Q1514.06 1681.3 1521.45 1681.3 Q1528.91 1681.3 1533.26 1685.43 Q1537.61 1689.57 1537.61 1695.69 Q1537.61 1698.8 1536.34 1701.8 Q1535.07 1704.81 1532.1 1708.13 Q1529.16 1711.46 1522.3 1717.26 Q1516.57 1722.07 1514.95 1723.8 Q1513.32 1725.5 1512.26 1727.23 L1537.68 1727.23 Z" fill="#000000" fill-rule="nonzero" fill-opacity="1" /><path clip-path="url(#clip650)" d="M2021.71 1719.66 L2028.08 1718.81 Q2029.17 1724.22 2031.79 1726.63 Q2034.44 1729 2038.23 1729 Q2042.72 1729 2045.79 1725.89 Q2048.91 1722.77 2048.91 1718.18 Q2048.91 1713.79 2046.04 1710.96 Q2043.18 1708.1 2038.76 1708.1 Q2036.95 1708.1 2034.27 1708.81 L2034.97 1703.22 Q2035.61 1703.29 2036 1703.29 Q2040.07 1703.29 2043.32 1701.17 Q2046.57 1699.05 2046.57 1694.63 Q2046.57 1691.13 2044.2 1688.83 Q2041.83 1686.53 2038.09 1686.53 Q2034.37 1686.53 2031.9 1688.86 Q2029.42 1691.2 2028.71 1695.86 L2022.35 1694.73 Q2023.52 1688.33 2027.65 1684.83 Q2031.79 1681.3 2037.94 1681.3 Q2042.19 1681.3 2045.76 1683.13 Q2049.33 1684.94 2051.2 1688.08 Q2053.11 1691.23 2053.11 1694.77 Q2053.11 1698.13 2051.31 1700.89 Q2049.51 1703.64 2045.97 1705.27 Q2050.57 1706.33 2053.11 1709.69 Q2055.66 1713.01 2055.66 1718.04 Q2055.66 1724.83 2050.71 1729.56 Q2045.76 1734.27 2038.19 1734.27 Q2031.37 1734.27 2026.84 1730.2 Q2022.35 1726.13 2021.71 1719.66 Z" fill="#000000" fill-rule="nonzero" fill-opacity="1" /><path clip-path="url(#clip650)" d="M2561.42 1733.35 L2561.42 1720.94 L2538.93 1720.94 L2538.93 1715.1 L2562.59 1681.51 L2567.79 1681.51 L2567.79 1715.1 L2574.79 1715.1 L2574.79 1720.94 L2567.79 1720.94 L2567.79 1733.35 L2561.42 1733.35 M2561.42 1715.1 L2561.42 1691.73 L2545.19 1715.1 L2561.42 1715.1 Z" fill="#000000" fill-rule="nonzero" fill-opacity="1" /><path clip-path="url(#clip650)" d="M3057.84 1719.77 L3064.53 1719.2 Q3065.27 1724.08 3067.96 1726.56 Q3070.68 1729 3074.5 1729 Q3079.1 1729 3082.28 1725.53 Q3085.46 1722.07 3085.46 1716.34 Q3085.46 1710.89 3082.39 1707.75 Q3079.34 1704.6 3074.39 1704.6 Q3071.32 1704.6 3068.84 1706.01 Q3066.37 1707.39 3064.95 1709.62 L3058.98 1708.84 L3064 1682.21 L3089.78 1682.21 L3089.78 1688.3 L3069.09 1688.3 L3066.3 1702.23 Q3070.96 1698.98 3076.09 1698.98 Q3082.88 1698.98 3087.55 1703.68 Q3092.22 1708.38 3092.22 1715.77 Q3092.22 1722.81 3088.11 1727.94 Q3083.13 1734.23 3074.5 1734.23 Q3067.43 1734.23 3062.94 1730.27 Q3058.48 1726.31 3057.84 1719.77 Z" fill="#000000" fill-rule="nonzero" fill-opacity="1" /><path clip-path="url(#clip650)" d="M1678.25 1825.22 L1679.17 1830.84 Q1676.49 1831.41 1674.36 1831.41 Q1670.9 1831.41 1668.99 1830.31 Q1667.08 1829.22 1666.3 1827.45 Q1665.52 1825.65 1665.52 1819.92 L1665.52 1798.31 L1660.86 1798.31 L1660.86 1793.36 L1665.52 1793.36 L1665.52 1784.06 L1671.85 1780.24 L1671.85 1793.36 L1678.25 1793.36 L1678.25 1798.31 L1671.85 1798.31 L1671.85 1820.27 Q1671.85 1822.99 1672.17 1823.77 Q1672.53 1824.55 1673.27 1825.01 Q1674.05 1825.47 1675.46 1825.47 Q1676.52 1825.47 1678.25 1825.22 Z" fill="#000000" fill-rule="nonzero" fill-opacity="1" /><path clip-path="url(#clip650)" d="M1684.51 1786.4 L1684.51 1779.08 L1690.88 1779.08 L1690.88 1786.4 L1684.51 1786.4 M1684.51 1830.92 L1684.51 1793.36 L1690.88 1793.36 L1690.88 1830.92 L1684.51 1830.92 Z" fill="#000000" fill-rule="nonzero" fill-opacity="1" /><path clip-path="url(#clip650)" d="M1700.57 1830.92 L1700.57 1793.36 L1706.26 1793.36 L1706.26 1798.63 Q1708.03 1795.87 1710.96 1794.21 Q1713.9 1792.51 1717.65 1792.51 Q1721.82 1792.51 1724.47 1794.25 Q1727.16 1795.98 1728.26 1799.09 Q1732.71 1792.51 1739.85 1792.51 Q1745.44 1792.51 1748.45 1795.62 Q1751.45 1798.7 1751.45 1805.14 L1751.45 1830.92 L1745.12 1830.92 L1745.12 1807.26 Q1745.12 1803.44 1744.49 1801.78 Q1743.89 1800.08 1742.26 1799.05 Q1740.63 1798.03 1738.44 1798.03 Q1734.48 1798.03 1731.86 1800.68 Q1729.25 1803.3 1729.25 1809.1 L1729.25 1830.92 L1722.88 1830.92 L1722.88 1806.52 Q1722.88 1802.27 1721.32 1800.15 Q1719.77 1798.03 1716.23 1798.03 Q1713.55 1798.03 1711.25 1799.44 Q1708.98 1800.86 1707.96 1803.58 Q1706.93 1806.3 1706.93 1811.43 L1706.93 1830.92 L1700.57 1830.92 Z" fill="#000000" fill-rule="nonzero" fill-opacity="1" /><path clip-path="url(#clip650)" d="M1786.6 1818.82 L1793.18 1819.63 Q1791.62 1825.4 1787.42 1828.58 Q1783.21 1831.76 1776.67 1831.76 Q1768.43 1831.76 1763.58 1826.71 Q1758.77 1821.62 1758.77 1812.46 Q1758.77 1802.98 1763.65 1797.75 Q1768.53 1792.51 1776.31 1792.51 Q1783.84 1792.51 1788.62 1797.64 Q1793.39 1802.77 1793.39 1812.07 Q1793.39 1812.63 1793.36 1813.76 L1765.35 1813.76 Q1765.7 1819.95 1768.85 1823.24 Q1772 1826.53 1776.7 1826.53 Q1780.2 1826.53 1782.68 1824.69 Q1785.15 1822.85 1786.6 1818.82 M1765.7 1808.53 L1786.67 1808.53 Q1786.25 1803.79 1784.27 1801.42 Q1781.23 1797.75 1776.38 1797.75 Q1772 1797.75 1768.99 1800.68 Q1766.02 1803.62 1765.7 1808.53 Z" fill="#000000" fill-rule="nonzero" fill-opacity="1" /><path clip-path="url(#clip650)" d="M1833.46 1846.16 Q1828.19 1839.51 1824.55 1830.6 Q1820.9 1821.69 1820.9 1812.14 Q1820.9 1803.72 1823.63 1796.01 Q1826.81 1787.07 1833.46 1778.19 L1838.02 1778.19 Q1833.74 1785.55 1832.36 1788.69 Q1830.2 1793.57 1828.97 1798.88 Q1827.44 1805.49 1827.44 1812.17 Q1827.44 1829.18 1838.02 1846.16 L1833.46 1846.16 Z" fill="#000000" fill-rule="nonzero" fill-opacity="1" /><path clip-path="url(#clip650)" d="M1845.13 1845.38 L1844.42 1839.4 Q1846.5 1839.97 1848.06 1839.97 Q1850.18 1839.97 1851.46 1839.26 Q1852.73 1838.55 1853.54 1837.28 Q1854.14 1836.33 1855.49 1832.54 Q1855.66 1832.01 1856.05 1830.99 L1841.8 1793.36 L1848.66 1793.36 L1856.48 1815.11 Q1858 1819.25 1859.2 1823.81 Q1860.3 1819.42 1861.82 1815.25 L1869.84 1793.36 L1876.21 1793.36 L1861.92 1831.55 Q1859.62 1837.74 1858.35 1840.07 Q1856.65 1843.22 1854.46 1844.67 Q1852.27 1846.16 1849.23 1846.16 Q1847.39 1846.16 1845.13 1845.38 Z" fill="#000000" fill-rule="nonzero" fill-opacity="1" /><path clip-path="url(#clip650)" d="M1885.79 1846.16 L1881.23 1846.16 Q1891.8 1829.18 1891.8 1812.17 Q1891.8 1805.53 1890.28 1798.98 Q1889.08 1793.68 1886.92 1788.8 Q1885.54 1785.62 1881.23 1778.19 L1885.79 1778.19 Q1892.44 1787.07 1895.62 1796.01 Q1898.34 1803.72 1898.34 1812.14 Q1898.34 1821.69 1894.67 1830.6 Q1891.02 1839.51 1885.79 1846.16 Z" fill="#000000" fill-rule="nonzero" fill-opacity="1" /><polyline clip-path="url(#clip652)" style="stroke:#000000; stroke-linecap:round; stroke-linejoin:round; stroke-width:2; stroke-opacity:0.1; fill:none" points="406.445,1515.65 3152.76,1515.65 "/>
<polyline clip-path="url(#clip652)" style="stroke:#000000; stroke-linecap:round; stroke-linejoin:round; stroke-width:2; stroke-opacity:0.1; fill:none" points="406.445,1104.98 3152.76,1104.98 "/>
<polyline clip-path="url(#clip652)" style="stroke:#000000; stroke-linecap:round; stroke-linejoin:round; stroke-width:2; stroke-opacity:0.1; fill:none" points="406.445,694.309 3152.76,694.309 "/>
<polyline clip-path="url(#clip652)" style="stroke:#000000; stroke-linecap:round; stroke-linejoin:round; stroke-width:2; stroke-opacity:0.1; fill:none" points="406.445,283.64 3152.76,283.64 "/>
<polyline clip-path="url(#clip650)" style="stroke:#000000; stroke-linecap:round; stroke-linejoin:round; stroke-width:4; stroke-opacity:1; fill:none" points="406.445,1642.95 406.445,47.2441 "/>
<polyline clip-path="url(#clip650)" style="stroke:#000000; stroke-linecap:round; stroke-linejoin:round; stroke-width:4; stroke-opacity:1; fill:none" points="406.445,1515.65 425.343,1515.65 "/>
<polyline clip-path="url(#clip650)" style="stroke:#000000; stroke-linecap:round; stroke-linejoin:round; stroke-width:4; stroke-opacity:1; fill:none" points="406.445,1104.98 425.343,1104.98 "/>
<polyline clip-path="url(#clip650)" style="stroke:#000000; stroke-linecap:round; stroke-linejoin:round; stroke-width:4; stroke-opacity:1; fill:none" points="406.445,694.309 425.343,694.309 "/>
<polyline clip-path="url(#clip650)" style="stroke:#000000; stroke-linecap:round; stroke-linejoin:round; stroke-width:4; stroke-opacity:1; fill:none" points="406.445,283.64 425.343,283.64 "/>
<path clip-path="url(#clip650)" d="M287.652 1541.57 L281.287 1541.57 L281.287 1501.01 Q278.988 1503.2 275.24 1505.39 Q271.527 1507.58 268.556 1508.68 L268.556 1502.53 Q273.896 1500.02 277.892 1496.45 Q281.888 1492.87 283.55 1489.52 L287.652 1489.52 L287.652 1541.57 Z" fill="#000000" fill-rule="nonzero" fill-opacity="1" /><path clip-path="url(#clip650)" d="M307.525 1541.57 L307.525 1534.32 L314.774 1534.32 L314.774 1541.57 L307.525 1541.57 Z" fill="#000000" fill-rule="nonzero" fill-opacity="1" /><path clip-path="url(#clip650)" d="M324.074 1527.99 L330.757 1527.42 Q331.5 1532.3 334.187 1534.78 Q336.91 1537.22 340.729 1537.22 Q345.326 1537.22 348.509 1533.75 Q351.691 1530.29 351.691 1524.56 Q351.691 1519.11 348.615 1515.97 Q345.574 1512.82 340.623 1512.82 Q337.547 1512.82 335.071 1514.23 Q332.596 1515.61 331.182 1517.84 L325.206 1517.06 L330.227 1490.43 L356.005 1490.43 L356.005 1496.52 L335.319 1496.52 L332.525 1510.45 Q337.193 1507.2 342.321 1507.2 Q349.11 1507.2 353.778 1511.9 Q358.445 1516.6 358.445 1523.99 Q358.445 1531.03 354.343 1536.16 Q349.357 1542.45 340.729 1542.45 Q333.657 1542.45 329.166 1538.49 Q324.71 1534.53 324.074 1527.99 Z" fill="#000000" fill-rule="nonzero" fill-opacity="1" /><path clip-path="url(#clip650)" d="M297.694 1124.78 L297.694 1130.9 L263.429 1130.9 Q263.358 1128.6 264.172 1126.48 Q265.48 1122.98 268.344 1119.58 Q271.244 1116.19 276.69 1111.73 Q285.141 1104.8 288.111 1100.77 Q291.082 1096.7 291.082 1093.1 Q291.082 1089.31 288.359 1086.73 Q285.671 1084.11 281.322 1084.11 Q276.725 1084.11 273.967 1086.87 Q271.208 1089.63 271.173 1094.51 L264.631 1093.84 Q265.303 1086.52 269.688 1082.7 Q274.073 1078.85 281.463 1078.85 Q288.925 1078.85 293.274 1082.98 Q297.624 1087.12 297.624 1093.24 Q297.624 1096.35 296.351 1099.36 Q295.078 1102.36 292.107 1105.69 Q289.172 1109.01 282.312 1114.81 Q276.583 1119.62 274.957 1121.35 Q273.33 1123.05 272.269 1124.78 L297.694 1124.78 Z" fill="#000000" fill-rule="nonzero" fill-opacity="1" /><path clip-path="url(#clip650)" d="M308.091 1130.9 L308.091 1123.65 L315.34 1123.65 L315.34 1130.9 L308.091 1130.9 Z" fill="#000000" fill-rule="nonzero" fill-opacity="1" /><path clip-path="url(#clip650)" d="M324.64 1105.33 Q324.64 1096.14 326.514 1090.55 Q328.423 1084.93 332.136 1081.89 Q335.885 1078.85 341.543 1078.85 Q345.715 1078.85 348.862 1080.54 Q352.01 1082.21 354.061 1085.39 Q356.112 1088.54 357.278 1093.1 Q358.445 1097.62 358.445 1105.33 Q358.445 1114.46 356.571 1120.08 Q354.697 1125.66 350.949 1128.74 Q347.236 1131.78 341.543 1131.78 Q334.046 1131.78 329.767 1126.41 Q324.64 1119.94 324.64 1105.33 M331.182 1105.33 Q331.182 1118.1 334.152 1122.34 Q337.158 1126.55 341.543 1126.55 Q345.927 1126.55 348.898 1122.31 Q351.903 1118.06 351.903 1105.33 Q351.903 1092.53 348.898 1088.32 Q345.927 1084.11 341.472 1084.11 Q337.087 1084.11 334.47 1087.83 Q331.182 1092.57 331.182 1105.33 Z" fill="#000000" fill-rule="nonzero" fill-opacity="1" /><path clip-path="url(#clip650)" d="M297.128 714.111 L297.128 720.229 L262.863 720.229 Q262.792 717.93 263.606 715.809 Q264.914 712.308 267.778 708.913 Q270.678 705.518 276.124 701.063 Q284.575 694.132 287.546 690.101 Q290.516 686.034 290.516 682.427 Q290.516 678.644 287.793 676.062 Q285.106 673.446 280.756 673.446 Q276.159 673.446 273.401 676.204 Q270.643 678.962 270.607 683.842 L264.065 683.17 Q264.737 675.85 269.122 672.031 Q273.507 668.177 280.898 668.177 Q288.359 668.177 292.708 672.314 Q297.058 676.451 297.058 682.569 Q297.058 685.681 295.785 688.686 Q294.512 691.692 291.541 695.016 Q288.606 698.34 281.746 704.139 Q276.018 708.949 274.391 710.681 Q272.764 712.379 271.704 714.111 L297.128 714.111 Z" fill="#000000" fill-rule="nonzero" fill-opacity="1" /><path clip-path="url(#clip650)" d="M307.525 720.229 L307.525 712.98 L314.774 712.98 L314.774 720.229 L307.525 720.229 Z" fill="#000000" fill-rule="nonzero" fill-opacity="1" /><path clip-path="url(#clip650)" d="M324.074 706.65 L330.757 706.084 Q331.5 710.964 334.187 713.439 Q336.91 715.879 340.729 715.879 Q345.326 715.879 348.509 712.414 Q351.691 708.949 351.691 703.22 Q351.691 697.774 348.615 694.627 Q345.574 691.48 340.623 691.48 Q337.547 691.48 335.071 692.894 Q332.596 694.274 331.182 696.501 L325.206 695.723 L330.227 669.096 L356.005 669.096 L356.005 675.178 L335.319 675.178 L332.525 689.111 Q337.193 685.857 342.321 685.857 Q349.11 685.857 353.778 690.561 Q358.445 695.264 358.445 702.654 Q358.445 709.691 354.343 714.819 Q349.357 721.113 340.729 721.113 Q333.657 721.113 329.166 717.152 Q324.71 713.192 324.074 706.65 Z" fill="#000000" fill-rule="nonzero" fill-opacity="1" /><path clip-path="url(#clip650)" d="M264.278 295.875 L270.643 295.026 Q271.739 300.436 274.356 302.841 Q277.008 305.21 280.791 305.21 Q285.282 305.21 288.359 302.098 Q291.471 298.987 291.471 294.39 Q291.471 290.005 288.606 287.176 Q285.742 284.312 281.322 284.312 Q279.518 284.312 276.831 285.019 L277.538 279.432 Q278.175 279.502 278.564 279.502 Q282.63 279.502 285.884 277.381 Q289.137 275.259 289.137 270.839 Q289.137 267.338 286.768 265.039 Q284.398 262.741 280.65 262.741 Q276.937 262.741 274.462 265.075 Q271.986 267.409 271.279 272.076 L264.914 270.945 Q266.081 264.544 270.218 261.044 Q274.356 257.507 280.509 257.507 Q284.752 257.507 288.323 259.346 Q291.895 261.15 293.769 264.297 Q295.679 267.444 295.679 270.98 Q295.679 274.34 293.875 277.098 Q292.072 279.856 288.536 281.483 Q293.133 282.543 295.679 285.903 Q298.225 289.227 298.225 294.248 Q298.225 301.038 293.274 305.776 Q288.323 310.479 280.756 310.479 Q273.931 310.479 269.405 306.412 Q264.914 302.346 264.278 295.875 Z" fill="#000000" fill-rule="nonzero" fill-opacity="1" /><path clip-path="url(#clip650)" d="M308.091 309.56 L308.091 302.311 L315.34 302.311 L315.34 309.56 L308.091 309.56 Z" fill="#000000" fill-rule="nonzero" fill-opacity="1" /><path clip-path="url(#clip650)" d="M324.64 283.993 Q324.64 274.799 326.514 269.212 Q328.423 263.59 332.136 260.549 Q335.885 257.507 341.543 257.507 Q345.715 257.507 348.862 259.205 Q352.01 260.867 354.061 264.049 Q356.112 267.197 357.278 271.758 Q358.445 276.284 358.445 283.993 Q358.445 293.117 356.571 298.739 Q354.697 304.326 350.949 307.403 Q347.236 310.444 341.543 310.444 Q334.046 310.444 329.767 305.069 Q324.64 298.598 324.64 283.993 M331.182 283.993 Q331.182 296.759 334.152 301.002 Q337.158 305.21 341.543 305.21 Q345.927 305.21 348.898 300.967 Q351.903 296.723 351.903 283.993 Q351.903 271.192 348.898 266.984 Q345.927 262.776 341.472 262.776 Q337.087 262.776 334.47 266.489 Q331.182 271.228 331.182 283.993 Z" fill="#000000" fill-rule="nonzero" fill-opacity="1" /><path clip-path="url(#clip650)" d="M213.703 872.784 L207.727 873.491 Q208.293 871.405 208.293 869.849 Q208.293 867.727 207.586 866.454 Q206.879 865.181 205.606 864.368 Q204.651 863.767 200.867 862.423 Q200.337 862.246 199.311 861.857 L161.686 876.108 L161.686 869.248 L183.434 861.433 Q187.571 859.912 192.133 858.71 Q187.748 857.614 183.575 856.093 L161.686 848.066 L161.686 841.701 L199.877 855.987 Q206.065 858.286 208.399 859.559 Q211.546 861.256 212.996 863.448 Q214.481 865.641 214.481 868.682 Q214.481 870.521 213.703 872.784 Z" fill="#000000" fill-rule="nonzero" fill-opacity="1" /><path clip-path="url(#clip650)" d="M199.24 814.084 L199.24 820.449 L158.681 820.449 Q160.873 822.747 163.066 826.496 Q165.258 830.209 166.354 833.179 L160.201 833.179 Q157.691 827.839 154.119 823.843 Q150.548 819.848 147.188 818.186 L147.188 814.084 L199.24 814.084 Z" fill="#000000" fill-rule="nonzero" fill-opacity="1" /><polyline clip-path="url(#clip652)" style="stroke:#90ee90; stroke-linecap:round; stroke-linejoin:round; stroke-width:40; stroke-opacity:1; fill:none" points="484.171,227.044 489.353,230.427 494.535,234.003 499.716,237.771 504.898,241.73 510.08,245.877 515.261,250.211 520.443,254.73 525.625,259.432 530.807,264.315 535.988,269.378 541.17,274.618 546.352,280.033 551.533,285.621 556.715,291.38 561.897,297.308 567.079,303.403 572.26,309.662 577.442,316.083 582.624,322.664 587.806,329.403 592.987,336.296 598.169,343.343 603.351,350.54 608.532,357.886 613.714,365.377 618.896,373.011 624.078,380.786 629.259,388.7 634.441,396.75 639.623,404.934 644.804,413.249 649.986,421.692 655.168,430.262 660.35,438.955 665.531,447.77 670.713,456.704 675.895,465.753 681.076,474.917 686.258,484.192 691.44,493.575 696.622,503.065 701.803,512.658 706.985,522.353 712.167,532.145 717.348,542.034 722.53,552.015 727.712,562.087 732.894,572.247 738.075,582.492 743.257,592.819 748.439,603.226 753.62,613.71 758.802,624.267 763.984,634.896 769.166,645.594 774.347,656.356 779.529,667.181 784.711,678.065 789.892,689.006 795.074,700 800.256,711.045 805.438,722.136 810.619,733.271 815.801,744.447 820.983,755.66 826.165,766.907 831.346,778.184 836.528,789.489 841.71,800.817 846.891,812.164 852.073,823.529 857.255,834.906 862.437,846.292 867.618,857.683 872.8,869.076 877.982,880.467 883.163,891.851 888.345,903.225 893.527,914.585 898.709,925.927 903.89,937.247 909.072,948.541 914.254,959.805 919.435,971.034 924.617,982.226 929.799,993.374 934.981,1004.48 940.162,1015.53 945.344,1026.53 950.526,1037.46 955.707,1048.34 960.889,1059.15 966.071,1069.89 971.253,1080.55 976.434,1091.14 981.616,1101.65 986.798,1112.07 991.98,1122.4 997.161,1132.64 1002.34,1142.78 1007.52,1152.82 1012.71,1162.77 1017.89,1172.6 1023.07,1182.33 1028.25,1191.95 1033.43,1201.45 1038.61,1210.84 1043.8,1220.11 1048.98,1229.26 1054.16,1238.29 1059.34,1247.19 1064.52,1255.97 1069.71,1264.62 1074.89,1273.13 1080.07,1281.52 1085.25,1289.78 1090.43,1297.9 1095.61,1305.89 1100.8,1313.74 1105.98,1321.46 1111.16,1329.04 1116.34,1336.48 1121.52,1343.79 1126.7,1350.95 1131.89,1357.98 1137.07,1364.87 1142.25,1371.63 1147.43,1378.24 1152.61,1384.72 1157.79,1391.06 1162.98,1397.26 1168.16,1403.33 1173.34,1409.26 1178.52,1415.05 1183.7,1420.71 1188.88,1426.23 1194.07,1431.62 1199.25,1436.87 1204.43,1441.99 1209.61,1446.98 1214.79,1451.84 1219.98,1456.57 1225.16,1461.16 1230.34,1465.63 1235.52,1469.97 1240.7,1474.18 1245.88,1478.27 1251.07,1482.23 1256.25,1486.06 1261.43,1489.77 1266.61,1493.36 1271.79,1496.83 1276.97,1500.17 1282.16,1503.4 1287.34,1506.5 1292.52,1509.49 1297.7,1512.36 1302.88,1515.11 1308.06,1517.75 1313.25,1520.28 1318.43,1522.69 1323.61,1524.98 1328.79,1527.17 1333.97,1529.24 1339.15,1531.21 1344.34,1533.06 1349.52,1534.81 1354.7,1536.45 1359.88,1537.98 1365.06,1539.4 1370.24,1540.72 1375.43,1541.94 1380.61,1543.05 1385.79,1544.06 1390.97,1544.97 1396.15,1545.78 1401.34,1546.48 1406.52,1547.09 1411.7,1547.6 1416.88,1548.01 1422.06,1548.32 1427.24,1548.54 1432.43,1548.66 1437.61,1548.68 1442.79,1548.61 1447.97,1548.45 1453.15,1548.19 1458.33,1547.84 1463.52,1547.39 1468.7,1546.86 1473.88,1546.23 1479.06,1545.52 1484.24,1544.71 1489.42,1543.82 1494.61,1542.83 1499.79,1541.76 1504.97,1540.6 1510.15,1539.36 1515.33,1538.03 1520.51,1536.61 1525.7,1535.1 1530.88,1533.52 1536.06,1531.84 1541.24,1530.09 1546.42,1528.25 1551.61,1526.32 1556.79,1524.32 1561.97,1522.23 1567.15,1520.06 1572.33,1517.81 1577.51,1515.48 1582.7,1513.06 1587.88,1510.57 1593.06,1508 1598.24,1505.35 1603.42,1502.62 1608.6,1499.81 1613.79,1496.92 1618.97,1493.96 1624.15,1490.92 1629.33,1487.8 1634.51,1484.61 1639.69,1481.34 1644.88,1477.99 1650.06,1474.57 1655.24,1471.07 1660.42,1467.49 1665.6,1463.85 1670.78,1460.12 1675.97,1456.33 1681.15,1452.46 1686.33,1448.51 1691.51,1444.5 1696.69,1440.41 1701.87,1436.24 1707.06,1432.01 1712.24,1427.7 1717.42,1423.32 1722.6,1418.87 1727.78,1414.35 1732.97,1409.76 1738.15,1405.09 1743.33,1400.36 1748.51,1395.56 1753.69,1390.68 1758.87,1385.74 1764.06,1380.72 1769.24,1375.64 1774.42,1370.49 1779.6,1365.27 1784.78,1359.98 1789.96,1354.62 1795.15,1349.19 1800.33,1343.7 1805.51,1338.14 1810.69,1332.51 1815.87,1326.81 1821.05,1321.05 1826.24,1315.22 1831.42,1309.33 1836.6,1303.36 1841.78,1297.34 1846.96,1291.24 1852.14,1285.09 1857.33,1278.86 1862.51,1272.58 1867.69,1266.22 1872.87,1259.81 1878.05,1253.33 1883.24,1246.78 1888.42,1240.18 1893.6,1233.51 1898.78,1226.78 1903.96,1219.98 1909.14,1213.12 1914.33,1206.21 1919.51,1199.23 1924.69,1192.19 1929.87,1185.09 1935.05,1177.92 1940.23,1170.7 1945.42,1163.42 1950.6,1156.08 1955.78,1148.68 1960.96,1141.23 1966.14,1133.71 1971.32,1126.14 1976.51,1118.51 1981.69,1110.83 1986.87,1103.09 1992.05,1095.29 1997.23,1087.44 2002.41,1079.54 2007.6,1071.58 2012.78,1063.57 2017.96,1055.5 2023.14,1047.39 2028.32,1039.22 2033.5,1031 2038.69,1022.73 2043.87,1014.41 2049.05,1006.05 2054.23,997.632 2059.41,989.17 2064.6,980.661 2069.78,972.107 2074.96,963.508 2080.14,954.865 2085.32,946.179 2090.5,937.45 2095.69,928.681 2100.87,919.871 2106.05,911.021 2111.23,902.133 2116.41,893.208 2121.59,884.247 2126.78,875.25 2131.96,866.22 2137.14,857.156 2142.32,848.061 2147.5,838.936 2152.68,829.781 2157.87,820.599 2163.05,811.39 2168.23,802.156 2173.41,792.898 2178.59,783.618 2183.77,774.318 2188.96,764.998 2194.14,755.661 2199.32,746.308 2204.5,736.94 2209.68,727.56 2214.86,718.17 2220.05,708.77 2225.23,699.364 2230.41,689.952 2235.59,680.536 2240.77,671.12 2245.96,661.705 2251.14,652.293 2256.32,642.885 2261.5,633.485 2266.68,624.095 2271.86,614.716 2277.05,605.352 2282.23,596.004 2287.41,586.676 2292.59,577.369 2297.77,568.087 2302.95,558.831 2308.14,549.605 2313.32,540.411 2318.5,531.252 2323.68,522.131 2328.86,513.05 2334.04,504.014 2339.23,495.024 2344.41,486.084 2349.59,477.196 2354.77,468.365 2359.95,459.593 2365.13,450.883 2370.32,442.238 2375.5,433.663 2380.68,425.16 2385.86,416.733 2391.04,408.385 2396.23,400.12 2401.41,391.941 2406.59,383.851 2411.77,375.855 2416.95,367.956 2422.13,360.157 2427.32,352.462 2432.5,344.875 2437.68,337.399 2442.86,330.039 2448.04,322.797 2453.22,315.677 2458.41,308.684 2463.59,301.82 2468.77,295.089 2473.95,288.496 2479.13,282.043 2484.31,275.734 2489.5,269.573 2494.68,263.563 2499.86,257.708 2505.04,252.011 2510.22,246.475 2515.4,241.104 2520.59,235.901 2525.77,230.87 2530.95,226.012 2536.13,221.332 2541.31,216.831 2546.49,212.514 2551.68,208.382 2556.86,204.439 2562.04,200.687 2567.22,197.128 2572.4,193.765 2577.59,190.599 2582.77,187.634 2587.95,184.87 2593.13,182.31 2598.31,179.956 2603.49,177.809 2608.68,175.87 2613.86,174.141 2619.04,172.623 2624.22,171.317 2629.4,170.224 2634.58,169.344 2639.77,168.679 2644.95,168.229 2650.13,167.994 2655.31,167.974 2660.49,168.17 2665.67,168.581 2670.86,169.208 2676.04,170.05 2681.22,171.107 2686.4,172.378 2691.58,173.862 2696.76,175.559 2701.95,177.468 2707.13,179.588 2712.31,181.918 2717.49,184.457 2722.67,187.203 2727.85,190.155 2733.04,193.312 2738.22,196.672 2743.4,200.233 2748.58,203.994 2753.76,207.954 2758.95,212.109 2764.13,216.459 2769.31,221.001 2774.49,225.734 2779.67,230.655 2784.85,235.763 2790.04,241.054 2795.22,246.528 2800.4,252.181 2805.58,258.012 2810.76,264.018 2815.94,270.197 2821.13,276.546 2826.31,283.064 2831.49,289.747 2836.67,296.594 2841.85,303.603 2847.03,310.769 2852.22,318.092 2857.4,325.569 2862.58,333.197 2867.76,340.974 2872.94,348.898 2878.12,356.965 2883.31,365.174 2888.49,373.522 2893.67,382.007 2898.85,390.625 2904.03,399.376 2909.22,408.256 2914.4,417.262 2919.58,426.393 2924.76,435.646 2929.94,445.017 2935.12,454.506 2940.31,464.109 2945.49,473.824 2950.67,483.648 2955.85,493.579 2961.03,503.614 2966.21,513.751 2971.4,523.987 2976.58,534.319 2981.76,544.746 2986.94,555.264 2992.12,565.871 2997.3,576.563 3002.49,587.34 3007.67,598.197 3012.85,609.132 3018.03,620.142 3023.21,631.225 3028.39,642.377 3033.58,653.597 3038.76,664.879 3043.94,676.223 3049.12,687.625 3054.3,699.081 3059.48,710.589 3064.67,722.146 3069.85,733.748 3075.03,745.392 "/>
<polyline clip-path="url(#clip652)" style="stroke:#0000ff; stroke-linecap:round; stroke-linejoin:round; stroke-width:12; stroke-opacity:1; fill:none" points="484.171,226.899 489.353,230.269 494.535,233.828 499.716,237.575 504.898,241.507 510.08,245.624 515.261,249.923 520.443,254.403 525.625,259.062 530.807,263.897 535.988,268.908 541.17,274.091 546.352,279.446 551.533,284.969 556.715,290.66 561.897,296.515 567.079,302.533 572.26,308.712 577.442,315.049 582.624,321.542 587.806,328.19 592.987,334.989 598.169,341.938 603.351,349.035 608.532,356.277 613.714,363.662 618.896,371.187 624.078,378.851 629.259,386.652 634.441,394.586 639.623,402.653 644.804,410.848 649.986,419.171 655.168,427.619 660.35,436.189 665.531,444.879 670.713,453.687 675.895,462.611 681.076,471.648 686.258,480.795 691.44,490.051 696.622,499.413 701.803,508.879 706.985,518.446 712.167,528.111 717.348,537.873 722.53,547.729 727.712,557.676 732.894,567.711 738.075,577.833 743.257,588.038 748.439,598.324 753.62,608.689 758.802,619.129 763.984,629.642 769.166,640.225 774.347,650.875 779.529,661.59 784.711,672.366 789.892,683.201 795.074,694.092 800.256,705.035 805.438,716.028 810.619,727.068 815.801,738.151 820.983,749.274 826.165,760.434 831.346,771.627 836.528,782.851 841.71,794.101 846.891,805.375 852.073,816.669 857.255,827.979 862.437,839.301 867.618,850.633 872.8,861.97 877.982,873.308 883.163,884.645 888.345,895.975 893.527,907.295 898.709,918.602 903.89,929.89 909.072,941.158 914.254,952.399 919.435,963.611 924.617,974.789 929.799,985.929 934.981,997.027 940.162,1008.08 945.344,1019.08 950.526,1030.03 955.707,1040.93 960.889,1051.76 966.071,1062.52 971.253,1073.22 976.434,1083.84 981.616,1094.39 986.798,1104.85 991.98,1115.23 997.161,1125.53 1002.34,1135.73 1007.52,1145.84 1012.71,1155.85 1017.89,1165.76 1023.07,1175.57 1028.25,1185.27 1033.43,1194.87 1038.61,1204.35 1043.8,1213.72 1048.98,1222.97 1054.16,1232.1 1059.34,1241.11 1064.52,1250 1069.71,1258.76 1074.89,1267.4 1080.07,1275.91 1085.25,1284.28 1090.43,1292.53 1095.61,1300.65 1100.8,1308.63 1105.98,1316.48 1111.16,1324.2 1116.34,1331.77 1121.52,1339.22 1126.7,1346.52 1131.89,1353.69 1137.07,1360.72 1142.25,1367.61 1147.43,1374.37 1152.61,1380.99 1157.79,1387.47 1162.98,1393.81 1168.16,1400.02 1173.34,1406.09 1178.52,1412.02 1183.7,1417.81 1188.88,1423.47 1194.07,1429 1199.25,1434.39 1204.43,1439.64 1209.61,1444.76 1214.79,1449.75 1219.98,1454.61 1225.16,1459.34 1230.34,1463.93 1235.52,1468.4 1240.7,1472.73 1245.88,1476.94 1251.07,1481.02 1256.25,1484.98 1261.43,1488.81 1266.61,1492.51 1271.79,1496.1 1276.97,1499.55 1282.16,1502.89 1287.34,1506.11 1292.52,1509.21 1297.7,1512.18 1302.88,1515.04 1308.06,1517.79 1313.25,1520.41 1318.43,1522.93 1323.61,1525.32 1328.79,1527.61 1333.97,1529.78 1339.15,1531.84 1344.34,1533.8 1349.52,1535.64 1354.7,1537.37 1359.88,1539 1365.06,1540.51 1370.24,1541.93 1375.43,1543.24 1380.61,1544.44 1385.79,1545.54 1390.97,1546.54 1396.15,1547.44 1401.34,1548.23 1406.52,1548.93 1411.7,1549.52 1416.88,1550.02 1422.06,1550.42 1427.24,1550.73 1432.43,1550.93 1437.61,1551.05 1442.79,1551.07 1447.97,1550.99 1453.15,1550.82 1458.33,1550.56 1463.52,1550.21 1468.7,1549.76 1473.88,1549.23 1479.06,1548.6 1484.24,1547.89 1489.42,1547.08 1494.61,1546.19 1499.79,1545.21 1504.97,1544.15 1510.15,1543 1515.33,1541.76 1520.51,1540.44 1525.7,1539.04 1530.88,1537.54 1536.06,1535.97 1541.24,1534.31 1546.42,1532.58 1551.61,1530.76 1556.79,1528.85 1561.97,1526.87 1567.15,1524.81 1572.33,1522.66 1577.51,1520.44 1582.7,1518.14 1587.88,1515.75 1593.06,1513.29 1598.24,1510.76 1603.42,1508.14 1608.6,1505.45 1613.79,1502.68 1618.97,1499.83 1624.15,1496.91 1629.33,1493.92 1634.51,1490.84 1639.69,1487.7 1644.88,1484.47 1650.06,1481.18 1655.24,1477.81 1660.42,1474.36 1665.6,1470.84 1670.78,1467.25 1675.97,1463.59 1681.15,1459.86 1686.33,1456.05 1691.51,1452.17 1696.69,1448.22 1701.87,1444.19 1707.06,1440.1 1712.24,1435.94 1717.42,1431.7 1722.6,1427.4 1727.78,1423.02 1732.97,1418.58 1738.15,1414.06 1743.33,1409.48 1748.51,1404.82 1753.69,1400.1 1758.87,1395.31 1764.06,1390.45 1769.24,1385.52 1774.42,1380.53 1779.6,1375.47 1784.78,1370.34 1789.96,1365.14 1795.15,1359.87 1800.33,1354.54 1805.51,1349.14 1810.69,1343.68 1815.87,1338.15 1821.05,1332.55 1826.24,1326.89 1831.42,1321.16 1836.6,1315.37 1841.78,1309.51 1846.96,1303.58 1852.14,1297.6 1857.33,1291.54 1862.51,1285.43 1867.69,1279.25 1872.87,1273 1878.05,1266.69 1883.24,1260.32 1888.42,1253.89 1893.6,1247.39 1898.78,1240.83 1903.96,1234.21 1909.14,1227.53 1914.33,1220.79 1919.51,1213.98 1924.69,1207.11 1929.87,1200.19 1935.05,1193.2 1940.23,1186.15 1945.42,1179.04 1950.6,1171.88 1955.78,1164.65 1960.96,1157.37 1966.14,1150.02 1971.32,1142.62 1976.51,1135.17 1981.69,1127.65 1986.87,1120.08 1992.05,1112.45 1997.23,1104.77 2002.41,1097.03 2007.6,1089.24 2012.78,1081.39 2017.96,1073.49 2023.14,1065.53 2028.32,1057.52 2033.5,1049.47 2038.69,1041.35 2043.87,1033.19 2049.05,1024.98 2054.23,1016.72 2059.41,1008.41 2064.6,1000.05 2069.78,991.639 2074.96,983.185 2080.14,974.685 2085.32,966.14 2090.5,957.55 2095.69,948.916 2100.87,940.239 2106.05,931.52 2111.23,922.761 2116.41,913.961 2121.59,905.122 2126.78,896.245 2131.96,887.331 2137.14,878.381 2142.32,869.396 2147.5,860.377 2152.68,851.326 2157.87,842.243 2163.05,833.13 2168.23,823.988 2173.41,814.819 2178.59,805.624 2183.77,796.403 2188.96,787.16 2194.14,777.894 2199.32,768.608 2204.5,759.303 2209.68,749.981 2214.86,740.644 2220.05,731.293 2225.23,721.93 2230.41,712.556 2235.59,703.174 2240.77,693.785 2245.96,684.392 2251.14,674.996 2256.32,665.6 2261.5,656.205 2266.68,646.814 2271.86,637.429 2277.05,628.051 2282.23,618.684 2287.41,609.33 2292.59,599.991 2297.77,590.67 2302.95,581.369 2308.14,572.09 2313.32,562.837 2318.5,553.612 2323.68,544.417 2328.86,535.256 2334.04,526.132 2339.23,517.047 2344.41,508.003 2349.59,499.005 2354.77,490.056 2359.95,481.157 2365.13,472.313 2370.32,463.527 2375.5,454.802 2380.68,446.141 2385.86,437.547 2391.04,429.025 2396.23,420.576 2401.41,412.206 2406.59,403.917 2411.77,395.712 2416.95,387.596 2422.13,379.572 2427.32,371.644 2432.5,363.815 2437.68,356.088 2442.86,348.468 2448.04,340.958 2453.22,333.562 2458.41,326.284 2463.59,319.127 2468.77,312.095 2473.95,305.191 2479.13,298.42 2484.31,291.785 2489.5,285.289 2494.68,278.936 2499.86,272.73 2505.04,266.674 2510.22,260.772 2515.4,255.027 2520.59,249.443 2525.77,244.022 2530.95,238.768 2536.13,233.685 2541.31,228.774 2546.49,224.04 2551.68,219.486 2556.86,215.113 2562.04,210.925 2567.22,206.924 2572.4,203.113 2577.59,199.495 2582.77,196.071 2587.95,192.844 2593.13,189.816 2598.31,186.988 2603.49,184.363 2608.68,181.942 2613.86,179.727 2619.04,177.718 2624.22,175.918 2629.4,174.328 2634.58,172.947 2639.77,171.778 2644.95,170.821 2650.13,170.076 2655.31,169.544 2660.49,169.226 2665.67,169.12 2670.86,169.228 2676.04,169.549 2681.22,170.083 2686.4,170.829 2691.58,171.787 2696.76,172.957 2701.95,174.338 2707.13,175.928 2712.31,177.728 2717.49,179.735 2722.67,181.949 2727.85,184.369 2733.04,186.993 2738.22,189.819 2743.4,192.847 2748.58,196.075 2753.76,199.501 2758.95,203.124 2764.13,206.941 2769.31,210.951 2774.49,215.152 2779.67,219.542 2784.85,224.12 2790.04,228.882 2795.22,233.828 2800.4,238.954 2805.58,244.26 2810.76,249.742 2815.94,255.399 2821.13,261.229 2826.31,267.228 2831.49,273.396 2836.67,279.73 2841.85,286.227 2847.03,292.885 2852.22,299.703 2857.4,306.677 2862.58,313.806 2867.76,321.087 2872.94,328.518 2878.12,336.097 2883.31,343.821 2888.49,351.688 2893.67,359.696 2898.85,367.843 2904.03,376.126 2909.22,384.542 2914.4,393.091 2919.58,401.768 2924.76,410.573 2929.94,419.502 2935.12,428.555 2940.31,437.726 2945.49,447.017 2950.67,456.422 2955.85,465.94 2961.03,475.57 2966.21,485.307 2971.4,495.151 2976.58,505.099 2981.76,515.148 2986.94,525.295 2992.12,535.539 2997.3,545.877 3002.49,556.307 3007.67,566.825 3012.85,577.43 3018.03,588.119 3023.21,598.889 3028.39,609.738 3033.58,620.663 3038.76,631.66 3043.94,642.729 3049.12,653.865 3054.3,665.066 3059.48,676.329 3064.67,687.651 3069.85,699.029 3075.03,710.461 "/>
<polyline clip-path="url(#clip652)" style="stroke:#ff0000; stroke-linecap:round; stroke-linejoin:round; stroke-width:12; stroke-opacity:1; fill:none" points="484.171,227.044 489.353,228.554 494.535,230.261 499.716,232.166 504.898,234.266 510.08,236.56 515.261,239.047 520.443,241.725 525.625,244.593 530.807,247.649 535.988,250.892 541.17,254.319 546.352,257.929 551.533,261.721 556.715,265.691 561.897,269.839 567.079,274.163 572.26,278.66 577.442,283.328 582.624,288.165 587.806,293.17 592.987,298.341 598.169,303.674 603.351,309.169 608.532,314.822 613.714,320.633 618.896,326.598 624.078,332.716 629.259,338.984 634.441,345.401 639.623,351.965 644.804,358.672 649.986,365.522 655.168,372.512 660.35,379.639 665.531,386.903 670.713,394.3 675.895,401.829 681.076,409.488 686.258,417.274 691.44,425.186 696.622,433.221 701.803,441.378 706.985,449.654 712.167,458.047 717.348,466.556 722.53,475.178 727.712,483.911 732.894,492.754 738.075,501.704 743.257,510.759 748.439,519.917 753.62,529.177 758.802,538.535 763.984,547.991 769.166,557.541 774.347,567.185 779.529,576.919 784.711,586.742 789.892,596.651 795.074,606.645 800.256,616.721 805.438,626.878 810.619,637.112 815.801,647.421 820.983,657.804 826.165,668.257 831.346,678.78 836.528,689.368 841.71,700.02 846.891,710.733 852.073,721.505 857.255,732.334 862.437,743.215 867.618,754.148 872.8,765.129 877.982,776.155 883.163,787.223 888.345,798.331 893.527,809.476 898.709,820.655 903.89,831.864 909.072,843.1 914.254,854.361 919.435,865.642 924.617,876.942 929.799,888.255 934.981,899.579 940.162,910.911 945.344,922.246 950.526,933.582 955.707,944.913 960.889,956.238 966.071,967.551 971.253,978.849 976.434,990.128 981.616,1001.38 986.798,1012.61 991.98,1023.81 997.161,1034.98 1002.34,1046.1 1007.52,1057.18 1012.71,1068.22 1017.89,1079.2 1023.07,1090.13 1028.25,1101 1033.43,1111.81 1038.61,1122.55 1043.8,1133.22 1048.98,1143.81 1054.16,1154.32 1059.34,1164.75 1064.52,1175.1 1069.71,1185.35 1074.89,1195.51 1080.07,1205.58 1085.25,1215.54 1090.43,1225.4 1095.61,1235.16 1100.8,1244.8 1105.98,1254.33 1111.16,1263.75 1116.34,1273.05 1121.52,1282.23 1126.7,1291.29 1131.89,1300.22 1137.07,1309.02 1142.25,1317.7 1147.43,1326.25 1152.61,1334.66 1157.79,1342.95 1162.98,1351.1 1168.16,1359.11 1173.34,1366.99 1178.52,1374.73 1183.7,1382.33 1188.88,1389.79 1194.07,1397.12 1199.25,1404.3 1204.43,1411.35 1209.61,1418.25 1214.79,1425.02 1219.98,1431.64 1225.16,1438.13 1230.34,1444.47 1235.52,1450.68 1240.7,1456.75 1245.88,1462.67 1251.07,1468.46 1256.25,1474.11 1261.43,1479.62 1266.61,1485 1271.79,1490.24 1276.97,1495.34 1282.16,1500.31 1287.34,1505.15 1292.52,1509.85 1297.7,1514.41 1302.88,1518.85 1308.06,1523.15 1313.25,1527.33 1318.43,1531.37 1323.61,1535.29 1328.79,1539.08 1333.97,1542.74 1339.15,1546.27 1344.34,1549.68 1349.52,1552.96 1354.7,1556.12 1359.88,1559.16 1365.06,1562.08 1370.24,1564.87 1375.43,1567.55 1380.61,1570.1 1385.79,1572.54 1390.97,1574.86 1396.15,1577.06 1401.34,1579.15 1406.52,1581.12 1411.7,1582.98 1416.88,1584.72 1422.06,1586.35 1427.24,1587.87 1432.43,1589.28 1437.61,1590.58 1442.79,1591.76 1447.97,1592.84 1453.15,1593.81 1458.33,1594.68 1463.52,1595.43 1468.7,1596.08 1473.88,1596.63 1479.06,1597.06 1484.24,1597.4 1489.42,1597.63 1494.61,1597.76 1499.79,1597.79 1504.97,1597.71 1510.15,1597.53 1515.33,1597.26 1520.51,1596.88 1525.7,1596.4 1530.88,1595.83 1536.06,1595.16 1541.24,1594.39 1546.42,1593.52 1551.61,1592.55 1556.79,1591.49 1561.97,1590.34 1567.15,1589.09 1572.33,1587.74 1577.51,1586.3 1582.7,1584.77 1587.88,1583.14 1593.06,1581.42 1598.24,1579.6 1603.42,1577.7 1608.6,1575.7 1613.79,1573.62 1618.97,1571.44 1624.15,1569.17 1629.33,1566.81 1634.51,1564.36 1639.69,1561.82 1644.88,1559.19 1650.06,1556.47 1655.24,1553.67 1660.42,1550.78 1665.6,1547.79 1670.78,1544.73 1675.97,1541.57 1681.15,1538.33 1686.33,1535 1691.51,1531.58 1696.69,1528.08 1701.87,1524.49 1707.06,1520.82 1712.24,1517.06 1717.42,1513.21 1722.6,1509.28 1727.78,1505.27 1732.97,1501.17 1738.15,1496.99 1743.33,1492.72 1748.51,1488.37 1753.69,1483.94 1758.87,1479.42 1764.06,1474.82 1769.24,1470.13 1774.42,1465.37 1779.6,1460.52 1784.78,1455.59 1789.96,1450.57 1795.15,1445.48 1800.33,1440.3 1805.51,1435.04 1810.69,1429.7 1815.87,1424.28 1821.05,1418.77 1826.24,1413.19 1831.42,1407.52 1836.6,1401.78 1841.78,1395.95 1846.96,1390.04 1852.14,1384.06 1857.33,1377.99 1862.51,1371.84 1867.69,1365.62 1872.87,1359.31 1878.05,1352.93 1883.24,1346.46 1888.42,1339.92 1893.6,1333.3 1898.78,1326.6 1903.96,1319.82 1909.14,1312.96 1914.33,1306.03 1919.51,1299.01 1924.69,1291.92 1929.87,1284.76 1935.05,1277.51 1940.23,1270.19 1945.42,1262.8 1950.6,1255.32 1955.78,1247.77 1960.96,1240.15 1966.14,1232.45 1971.32,1224.67 1976.51,1216.82 1981.69,1208.9 1986.87,1200.9 1992.05,1192.83 1997.23,1184.68 2002.41,1176.46 2007.6,1168.17 2012.78,1159.81 2017.96,1151.37 2023.14,1142.87 2028.32,1134.29 2033.5,1125.64 2038.69,1116.93 2043.87,1108.14 2049.05,1099.28 2054.23,1090.36 2059.41,1081.37 2064.6,1072.31 2069.78,1063.19 2074.96,1054 2080.14,1044.74 2085.32,1035.42 2090.5,1026.04 2095.69,1016.59 2100.87,1007.09 2106.05,997.518 2111.23,987.889 2116.41,978.201 2121.59,968.454 2126.78,958.65 2131.96,948.79 2137.14,938.874 2142.32,928.905 2147.5,918.882 2152.68,908.807 2157.87,898.681 2163.05,888.506 2168.23,878.283 2173.41,868.013 2178.59,857.697 2183.77,847.338 2188.96,836.936 2194.14,826.493 2199.32,816.011 2204.5,805.492 2209.68,794.936 2214.86,784.347 2220.05,773.725 2225.23,763.072 2230.41,752.392 2235.59,741.684 2240.77,730.953 2245.96,720.199 2251.14,709.426 2256.32,698.634 2261.5,687.828 2266.68,677.008 2271.86,666.179 2277.05,655.341 2282.23,644.498 2287.41,633.653 2292.59,622.808 2297.77,611.967 2302.95,601.131 2308.14,590.305 2313.32,579.491 2318.5,568.693 2323.68,557.914 2328.86,547.156 2334.04,536.425 2339.23,525.722 2344.41,515.052 2349.59,504.419 2354.77,493.825 2359.95,483.276 2365.13,472.774 2370.32,462.324 2375.5,451.931 2380.68,441.597 2385.86,431.327 2391.04,421.126 2396.23,410.998 2401.41,400.947 2406.59,390.977 2411.77,381.094 2416.95,371.302 2422.13,361.605 2427.32,352.008 2432.5,342.516 2437.68,333.133 2442.86,323.864 2448.04,314.714 2453.22,305.688 2458.41,296.791 2463.59,288.027 2468.77,279.401 2473.95,270.918 2479.13,262.582 2484.31,254.399 2489.5,246.373 2494.68,238.509 2499.86,230.811 2505.04,223.283 2510.22,215.931 2515.4,208.758 2520.59,201.769 2525.77,194.968 2530.95,188.358 2536.13,181.944 2541.31,175.73 2546.49,169.719 2551.68,163.915 2556.86,158.32 2562.04,152.938 2567.22,147.773 2572.4,142.826 2577.59,138.101 2582.77,133.6 2587.95,129.324 2593.13,125.277 2598.31,121.46 2603.49,117.875 2608.68,114.522 2613.86,111.404 2619.04,108.522 2624.22,105.875 2629.4,103.465 2634.58,101.293 2639.77,99.3584 2644.95,97.6614 2650.13,96.2019 2655.31,94.9796 2660.49,93.9942 2665.67,93.2449 2670.86,92.7311 2676.04,92.4516 2681.22,92.4055 2686.4,92.5915 2691.58,93.0083 2696.76,93.6544 2701.95,94.5281 2707.13,95.6277 2712.31,96.9515 2717.49,98.4974 2722.67,100.264 2727.85,102.248 2733.04,104.448 2738.22,106.862 2743.4,109.487 2748.58,112.322 2753.76,115.363 2758.95,118.609 2764.13,122.056 2769.31,125.703 2774.49,129.546 2779.67,133.584 2784.85,137.814 2790.04,142.233 2795.22,146.839 2800.4,151.629 2805.58,156.6 2810.76,161.751 2815.94,167.079 2821.13,172.581 2826.31,178.254 2831.49,184.097 2836.67,190.106 2841.85,196.28 2847.03,202.616 2852.22,209.112 2857.4,215.765 2862.58,222.574 2867.76,229.535 2872.94,236.647 2878.12,243.908 2883.31,251.315 2888.49,258.866 2893.67,266.56 2898.85,274.394 2904.03,282.366 2909.22,290.474 2914.4,298.717 2919.58,307.093 2924.76,315.599 2929.94,324.233 2935.12,332.995 2940.31,341.881 2945.49,350.891 2950.67,360.023 2955.85,369.274 2961.03,378.644 2966.21,388.13 2971.4,397.732 2976.58,407.446 2981.76,417.272 2986.94,427.208 2992.12,437.252 2997.3,447.403 3002.49,457.659 3007.67,468.019 3012.85,478.481 3018.03,489.043 3023.21,499.704 3028.39,510.461 3033.58,521.315 3038.76,532.262 3043.94,543.302 3049.12,554.431 3054.3,565.65 3059.48,576.956 3064.67,588.348 3069.85,599.822 3075.03,611.379 "/>
<path clip-path="url(#clip650)" d="M975.561 2180.62 L2583.64 2180.62 L2583.64 1869.58 L975.561 1869.58  Z" fill="#ffffff" fill-rule="evenodd" fill-opacity="1"/>
<polyline clip-path="url(#clip650)" style="stroke:#000000; stroke-linecap:round; stroke-linejoin:round; stroke-width:4; stroke-opacity:1; fill:none" points="975.561,2180.62 2583.64,2180.62 2583.64,1869.58 975.561,1869.58 975.561,2180.62 "/>
<polyline clip-path="url(#clip650)" style="stroke:#90ee90; stroke-linecap:round; stroke-linejoin:round; stroke-width:30; stroke-opacity:1; fill:none" points="1006.08,1947.34 1189.16,1947.34 "/>
<path clip-path="url(#clip650)" d="M1219.68 1948.01 Q1219.68 1935.1 1226.61 1927.82 Q1233.54 1920.5 1244.5 1920.5 Q1251.68 1920.5 1257.44 1923.93 Q1263.21 1927.36 1266.21 1933.51 Q1269.25 1939.63 1269.25 1947.41 Q1269.25 1955.3 1266.07 1961.52 Q1262.89 1967.74 1257.05 1970.96 Q1251.22 1974.14 1244.47 1974.14 Q1237.15 1974.14 1231.38 1970.61 Q1225.62 1967.07 1222.65 1960.95 Q1219.68 1954.84 1219.68 1948.01 M1226.75 1948.12 Q1226.75 1957.49 1231.77 1962.9 Q1236.83 1968.27 1244.43 1968.27 Q1252.17 1968.27 1257.16 1962.83 Q1262.18 1957.38 1262.18 1947.38 Q1262.18 1941.05 1260.03 1936.34 Q1257.9 1931.6 1253.77 1929.02 Q1249.66 1926.41 1244.54 1926.41 Q1237.25 1926.41 1231.98 1931.43 Q1226.75 1936.41 1226.75 1948.12 Z" fill="#000000" fill-rule="nonzero" fill-opacity="1" /><path clip-path="url(#clip650)" d="M1277.21 1973.26 L1277.21 1935.71 L1282.94 1935.71 L1282.94 1941.4 Q1285.13 1937.4 1286.97 1936.13 Q1288.84 1934.86 1291.07 1934.86 Q1294.29 1934.86 1297.61 1936.91 L1295.42 1942.81 Q1293.09 1941.43 1290.75 1941.43 Q1288.67 1941.43 1287.01 1942.71 Q1285.34 1943.95 1284.64 1946.17 Q1283.58 1949.57 1283.58 1953.6 L1283.58 1973.26 L1277.21 1973.26 Z" fill="#000000" fill-rule="nonzero" fill-opacity="1" /><path clip-path="url(#clip650)" d="M1301.43 1928.74 L1301.43 1921.42 L1307.8 1921.42 L1307.8 1928.74 L1301.43 1928.74 M1301.43 1973.26 L1301.43 1935.71 L1307.8 1935.71 L1307.8 1973.26 L1301.43 1973.26 Z" fill="#000000" fill-rule="nonzero" fill-opacity="1" /><path clip-path="url(#clip650)" d="M1316.32 1976.37 L1322.51 1977.29 Q1322.9 1980.16 1324.67 1981.46 Q1327.04 1983.23 1331.14 1983.23 Q1335.56 1983.23 1337.96 1981.46 Q1340.37 1979.7 1341.22 1976.51 Q1341.71 1974.57 1341.67 1968.34 Q1337.5 1973.26 1331.28 1973.26 Q1323.53 1973.26 1319.29 1967.67 Q1315.05 1962.09 1315.05 1954.27 Q1315.05 1948.9 1316.99 1944.37 Q1318.94 1939.81 1322.62 1937.33 Q1326.33 1934.86 1331.31 1934.86 Q1337.96 1934.86 1342.28 1940.23 L1342.28 1935.71 L1348.15 1935.71 L1348.15 1968.17 Q1348.15 1976.94 1346.34 1980.58 Q1344.57 1984.26 1340.68 1986.38 Q1336.83 1988.5 1331.17 1988.5 Q1324.45 1988.5 1320.32 1985.46 Q1316.18 1982.45 1316.32 1976.37 M1321.59 1953.81 Q1321.59 1961.2 1324.52 1964.6 Q1327.46 1967.99 1331.88 1967.99 Q1336.26 1967.99 1339.24 1964.63 Q1342.21 1961.24 1342.21 1954.02 Q1342.21 1947.13 1339.13 1943.63 Q1336.09 1940.13 1331.77 1940.13 Q1327.53 1940.13 1324.56 1943.59 Q1321.59 1947.02 1321.59 1953.81 Z" fill="#000000" fill-rule="nonzero" fill-opacity="1" /><path clip-path="url(#clip650)" d="M1357.8 1928.74 L1357.8 1921.42 L1364.16 1921.42 L1364.16 1928.74 L1357.8 1928.74 M1357.8 1973.26 L1357.8 1935.71 L1364.16 1935.71 L1364.16 1973.26 L1357.8 1973.26 Z" fill="#000000" fill-rule="nonzero" fill-opacity="1" /><path clip-path="url(#clip650)" d="M1373.85 1973.26 L1373.85 1935.71 L1379.58 1935.71 L1379.58 1941.05 Q1383.72 1934.86 1391.53 1934.86 Q1394.93 1934.86 1397.76 1936.09 Q1400.62 1937.3 1402.04 1939.28 Q1403.45 1941.26 1404.02 1943.98 Q1404.37 1945.75 1404.37 1950.17 L1404.37 1973.26 L1398.01 1973.26 L1398.01 1950.42 Q1398.01 1946.53 1397.26 1944.62 Q1396.52 1942.67 1394.61 1941.54 Q1392.74 1940.37 1390.19 1940.37 Q1386.12 1940.37 1383.15 1942.96 Q1380.22 1945.54 1380.22 1952.75 L1380.22 1973.26 L1373.85 1973.26 Z" fill="#000000" fill-rule="nonzero" fill-opacity="1" /><path clip-path="url(#clip650)" d="M1438.64 1968.63 Q1435.1 1971.63 1431.81 1972.87 Q1428.56 1974.11 1424.81 1974.11 Q1418.62 1974.11 1415.3 1971.1 Q1411.97 1968.06 1411.97 1963.36 Q1411.97 1960.6 1413.21 1958.34 Q1414.48 1956.04 1416.5 1954.66 Q1418.55 1953.28 1421.1 1952.57 Q1422.97 1952.08 1426.75 1951.62 Q1434.46 1950.7 1438.11 1949.43 Q1438.14 1948.12 1438.14 1947.76 Q1438.14 1943.87 1436.34 1942.28 Q1433.9 1940.13 1429.09 1940.13 Q1424.6 1940.13 1422.44 1941.72 Q1420.32 1943.27 1419.29 1947.27 L1413.07 1946.42 Q1413.92 1942.42 1415.86 1939.98 Q1417.81 1937.51 1421.49 1936.2 Q1425.16 1934.86 1430.01 1934.86 Q1434.82 1934.86 1437.82 1935.99 Q1440.83 1937.12 1442.24 1938.85 Q1443.66 1940.55 1444.22 1943.17 Q1444.54 1944.79 1444.54 1949.04 L1444.54 1957.52 Q1444.54 1966.4 1444.93 1968.77 Q1445.35 1971.1 1446.56 1973.26 L1439.91 1973.26 Q1438.92 1971.28 1438.64 1968.63 M1438.11 1954.41 Q1434.64 1955.83 1427.71 1956.82 Q1423.78 1957.38 1422.16 1958.09 Q1420.53 1958.8 1419.65 1960.18 Q1418.76 1961.52 1418.76 1963.18 Q1418.76 1965.73 1420.67 1967.43 Q1422.62 1969.12 1426.33 1969.12 Q1430.01 1969.12 1432.87 1967.53 Q1435.74 1965.9 1437.08 1963.11 Q1438.11 1960.95 1438.11 1956.75 L1438.11 1954.41 Z" fill="#000000" fill-rule="nonzero" fill-opacity="1" /><path clip-path="url(#clip650)" d="M1454.27 1973.26 L1454.27 1921.42 L1460.63 1921.42 L1460.63 1973.26 L1454.27 1973.26 Z" fill="#000000" fill-rule="nonzero" fill-opacity="1" /><polyline clip-path="url(#clip650)" style="stroke:#0000ff; stroke-linecap:round; stroke-linejoin:round; stroke-width:18; stroke-opacity:1; fill:none" points="1006.08,2025.1 1189.16,2025.1 "/>
<path clip-path="url(#clip650)" d="M1238.77 2051.02 L1232.41 2051.02 L1232.41 2010.46 Q1230.11 2012.65 1226.36 2014.84 Q1222.65 2017.04 1219.68 2018.13 L1219.68 2011.98 Q1225.02 2009.47 1229.01 2005.9 Q1233.01 2002.33 1234.67 1998.97 L1238.77 1998.97 L1238.77 2051.02 Z" fill="#000000" fill-rule="nonzero" fill-opacity="1" /><path clip-path="url(#clip650)" d="M1255.07 2025.45 Q1255.07 2016.26 1256.95 2010.67 Q1258.86 2005.05 1262.57 2002.01 Q1266.32 1998.97 1271.98 1998.97 Q1276.15 1998.97 1279.3 2000.67 Q1282.44 2002.33 1284.5 2005.51 Q1286.55 2008.66 1287.71 2013.22 Q1288.88 2017.74 1288.88 2025.45 Q1288.88 2034.58 1287.01 2040.2 Q1285.13 2045.79 1281.38 2048.86 Q1277.67 2051.9 1271.98 2051.9 Q1264.48 2051.9 1260.2 2046.53 Q1255.07 2040.06 1255.07 2025.45 M1261.62 2025.45 Q1261.62 2038.22 1264.59 2042.46 Q1267.59 2046.67 1271.98 2046.67 Q1276.36 2046.67 1279.33 2042.43 Q1282.34 2038.18 1282.34 2025.45 Q1282.34 2012.65 1279.33 2008.44 Q1276.36 2004.24 1271.91 2004.24 Q1267.52 2004.24 1264.91 2007.95 Q1261.62 2012.69 1261.62 2025.45 Z" fill="#000000" fill-rule="nonzero" fill-opacity="1" /><path clip-path="url(#clip650)" d="M1296.55 2011.63 Q1296.55 2006.08 1299.35 2002.19 Q1302.14 1998.3 1307.44 1998.3 Q1312.32 1998.3 1315.51 2001.8 Q1318.73 2005.26 1318.73 2012.02 Q1318.73 2018.59 1315.47 2022.16 Q1312.25 2025.7 1307.52 2025.7 Q1302.81 2025.7 1299.67 2022.2 Q1296.55 2018.7 1296.55 2011.63 M1307.62 2002.68 Q1305.25 2002.68 1303.66 2004.73 Q1302.11 2006.78 1302.11 2012.26 Q1302.11 2017.25 1303.7 2019.3 Q1305.29 2021.32 1307.62 2021.32 Q1310.03 2021.32 1311.58 2019.27 Q1313.17 2017.21 1313.17 2011.77 Q1313.17 2006.75 1311.58 2004.73 Q1309.99 2002.68 1307.62 2002.68 M1307.66 2052.93 L1336.02 1998.3 L1341.18 1998.3 L1312.93 2052.93 L1307.66 2052.93 M1330.08 2038.86 Q1330.08 2033.27 1332.87 2029.41 Q1335.66 2025.52 1341 2025.52 Q1345.88 2025.52 1349.07 2029.02 Q1352.28 2032.49 1352.28 2039.24 Q1352.28 2045.82 1349.03 2049.39 Q1345.81 2052.93 1341.04 2052.93 Q1336.34 2052.93 1333.19 2049.43 Q1330.08 2045.89 1330.08 2038.86 M1341.18 2029.91 Q1338.78 2029.91 1337.18 2031.96 Q1335.63 2034.01 1335.63 2039.49 Q1335.63 2044.44 1337.22 2046.49 Q1338.81 2048.54 1341.14 2048.54 Q1343.58 2048.54 1345.14 2046.49 Q1346.73 2044.44 1346.73 2039 Q1346.73 2033.98 1345.14 2031.96 Q1343.55 2029.91 1341.18 2029.91 Z" fill="#000000" fill-rule="nonzero" fill-opacity="1" /><path clip-path="url(#clip650)" d="M1381.63 2065.41 L1381.63 2013.47 L1387.43 2013.47 L1387.43 2018.35 Q1389.48 2015.48 1392.07 2014.07 Q1394.65 2012.62 1398.32 2012.62 Q1403.13 2012.62 1406.81 2015.09 Q1410.49 2017.57 1412.36 2022.09 Q1414.24 2026.59 1414.24 2031.96 Q1414.24 2037.72 1412.15 2042.36 Q1410.1 2046.95 1406.14 2049.43 Q1402.21 2051.87 1397.86 2051.87 Q1394.68 2051.87 1392.14 2050.52 Q1389.63 2049.18 1388 2047.13 L1388 2065.41 L1381.63 2065.41 M1387.4 2032.46 Q1387.4 2039.7 1390.33 2043.17 Q1393.27 2046.64 1397.44 2046.64 Q1401.68 2046.64 1404.69 2043.06 Q1407.73 2039.46 1407.73 2031.92 Q1407.73 2024.75 1404.76 2021.17 Q1401.82 2017.6 1397.72 2017.6 Q1393.66 2017.6 1390.51 2021.42 Q1387.4 2025.21 1387.4 2032.46 Z" fill="#000000" fill-rule="nonzero" fill-opacity="1" /><path clip-path="url(#clip650)" d="M1447.62 2038.93 L1454.2 2039.74 Q1452.64 2045.5 1448.43 2048.69 Q1444.22 2051.87 1437.68 2051.87 Q1429.44 2051.87 1424.6 2046.81 Q1419.79 2041.72 1419.79 2032.56 Q1419.79 2023.08 1424.67 2017.85 Q1429.55 2012.62 1437.33 2012.62 Q1444.86 2012.62 1449.63 2017.74 Q1454.41 2022.87 1454.41 2032.17 Q1454.41 2032.74 1454.37 2033.87 L1426.37 2033.87 Q1426.72 2040.06 1429.87 2043.35 Q1433.01 2046.64 1437.72 2046.64 Q1441.22 2046.64 1443.69 2044.8 Q1446.17 2042.96 1447.62 2038.93 M1426.72 2028.64 L1447.69 2028.64 Q1447.26 2023.9 1445.28 2021.53 Q1442.24 2017.85 1437.4 2017.85 Q1433.01 2017.85 1430.01 2020.79 Q1427.04 2023.72 1426.72 2028.64 Z" fill="#000000" fill-rule="nonzero" fill-opacity="1" /><path clip-path="url(#clip650)" d="M1462.12 2051.02 L1462.12 2013.47 L1467.84 2013.47 L1467.84 2019.16 Q1470.04 2015.16 1471.88 2013.89 Q1473.75 2012.62 1475.98 2012.62 Q1479.2 2012.62 1482.52 2014.67 L1480.33 2020.57 Q1477.99 2019.19 1475.66 2019.19 Q1473.57 2019.19 1471.91 2020.47 Q1470.25 2021.71 1469.54 2023.93 Q1468.48 2027.33 1468.48 2031.36 L1468.48 2051.02 L1462.12 2051.02 Z" fill="#000000" fill-rule="nonzero" fill-opacity="1" /><path clip-path="url(#clip650)" d="M1500.2 2045.33 L1501.12 2050.95 Q1498.43 2051.51 1496.31 2051.51 Q1492.85 2051.51 1490.94 2050.42 Q1489.03 2049.32 1488.25 2047.55 Q1487.47 2045.75 1487.47 2040.02 L1487.47 2018.42 L1482.8 2018.42 L1482.8 2013.47 L1487.47 2013.47 L1487.47 2004.17 L1493.8 2000.35 L1493.8 2013.47 L1500.2 2013.47 L1500.2 2018.42 L1493.8 2018.42 L1493.8 2040.38 Q1493.8 2043.1 1494.12 2043.88 Q1494.47 2044.65 1495.21 2045.11 Q1495.99 2045.57 1497.41 2045.57 Q1498.47 2045.57 1500.2 2045.33 Z" fill="#000000" fill-rule="nonzero" fill-opacity="1" /><path clip-path="url(#clip650)" d="M1531.04 2051.02 L1531.04 2045.5 Q1526.65 2051.87 1519.12 2051.87 Q1515.8 2051.87 1512.9 2050.6 Q1510.03 2049.32 1508.62 2047.41 Q1507.24 2045.47 1506.67 2042.67 Q1506.28 2040.8 1506.28 2036.73 L1506.28 2013.47 L1512.65 2013.47 L1512.65 2034.29 Q1512.65 2039.28 1513.04 2041.01 Q1513.64 2043.52 1515.58 2044.97 Q1517.53 2046.39 1520.39 2046.39 Q1523.26 2046.39 1525.77 2044.94 Q1528.28 2043.45 1529.3 2040.94 Q1530.36 2038.4 1530.36 2033.59 L1530.36 2013.47 L1536.73 2013.47 L1536.73 2051.02 L1531.04 2051.02 Z" fill="#000000" fill-rule="nonzero" fill-opacity="1" /><path clip-path="url(#clip650)" d="M1546.63 2051.02 L1546.63 2013.47 L1552.36 2013.47 L1552.36 2019.16 Q1554.55 2015.16 1556.39 2013.89 Q1558.26 2012.62 1560.49 2012.62 Q1563.71 2012.62 1567.03 2014.67 L1564.84 2020.57 Q1562.51 2019.19 1560.17 2019.19 Q1558.09 2019.19 1556.43 2020.47 Q1554.76 2021.71 1554.06 2023.93 Q1553 2027.33 1553 2031.36 L1553 2051.02 L1546.63 2051.02 Z" fill="#000000" fill-rule="nonzero" fill-opacity="1" /><path clip-path="url(#clip650)" d="M1576.69 2051.02 L1570.78 2051.02 L1570.78 1999.18 L1577.15 1999.18 L1577.15 2017.67 Q1581.18 2012.62 1587.44 2012.62 Q1590.9 2012.62 1593.98 2014.03 Q1597.09 2015.41 1599.07 2017.96 Q1601.09 2020.47 1602.22 2024.04 Q1603.35 2027.61 1603.35 2031.68 Q1603.35 2041.33 1598.58 2046.6 Q1593.8 2051.87 1587.12 2051.87 Q1580.47 2051.87 1576.69 2046.32 L1576.69 2051.02 M1576.62 2031.96 Q1576.62 2038.71 1578.46 2041.72 Q1581.46 2046.64 1586.59 2046.64 Q1590.76 2046.64 1593.8 2043.03 Q1596.84 2039.39 1596.84 2032.21 Q1596.84 2024.85 1593.91 2021.35 Q1591.01 2017.85 1586.87 2017.85 Q1582.7 2017.85 1579.66 2021.49 Q1576.62 2025.1 1576.62 2031.96 Z" fill="#000000" fill-rule="nonzero" fill-opacity="1" /><path clip-path="url(#clip650)" d="M1635.6 2046.39 Q1632.06 2049.39 1628.78 2050.63 Q1625.52 2051.87 1621.77 2051.87 Q1615.59 2051.87 1612.26 2048.86 Q1608.94 2045.82 1608.94 2041.12 Q1608.94 2038.36 1610.18 2036.1 Q1611.45 2033.8 1613.46 2032.42 Q1615.51 2031.04 1618.06 2030.33 Q1619.93 2029.84 1623.72 2029.38 Q1631.43 2028.46 1635.07 2027.19 Q1635.1 2025.88 1635.1 2025.52 Q1635.1 2021.63 1633.3 2020.04 Q1630.86 2017.89 1626.05 2017.89 Q1621.56 2017.89 1619.4 2019.48 Q1617.28 2021.03 1616.26 2025.03 L1610.03 2024.18 Q1610.88 2020.18 1612.83 2017.74 Q1614.77 2015.27 1618.45 2013.96 Q1622.13 2012.62 1626.97 2012.62 Q1631.78 2012.62 1634.79 2013.75 Q1637.79 2014.88 1639.21 2016.61 Q1640.62 2018.31 1641.19 2020.93 Q1641.51 2022.55 1641.51 2026.8 L1641.51 2035.28 Q1641.51 2044.16 1641.89 2046.53 Q1642.32 2048.86 1643.52 2051.02 L1636.87 2051.02 Q1635.88 2049.04 1635.6 2046.39 M1635.07 2032.17 Q1631.6 2033.59 1624.67 2034.58 Q1620.75 2035.14 1619.12 2035.85 Q1617.49 2036.56 1616.61 2037.94 Q1615.73 2039.28 1615.73 2040.94 Q1615.73 2043.49 1617.64 2045.19 Q1619.58 2046.88 1623.29 2046.88 Q1626.97 2046.88 1629.84 2045.29 Q1632.7 2043.66 1634.04 2040.87 Q1635.07 2038.71 1635.07 2034.51 L1635.07 2032.17 Z" fill="#000000" fill-rule="nonzero" fill-opacity="1" /><path clip-path="url(#clip650)" d="M1665.27 2045.33 L1666.19 2050.95 Q1663.5 2051.51 1661.38 2051.51 Q1657.91 2051.51 1656 2050.42 Q1654.09 2049.32 1653.32 2047.55 Q1652.54 2045.75 1652.54 2040.02 L1652.54 2018.42 L1647.87 2018.42 L1647.87 2013.47 L1652.54 2013.47 L1652.54 2004.17 L1658.87 2000.35 L1658.87 2013.47 L1665.27 2013.47 L1665.27 2018.42 L1658.87 2018.42 L1658.87 2040.38 Q1658.87 2043.1 1659.19 2043.88 Q1659.54 2044.65 1660.28 2045.11 Q1661.06 2045.57 1662.47 2045.57 Q1663.54 2045.57 1665.27 2045.33 Z" fill="#000000" fill-rule="nonzero" fill-opacity="1" /><path clip-path="url(#clip650)" d="M1671.53 2006.5 L1671.53 1999.18 L1677.89 1999.18 L1677.89 2006.5 L1671.53 2006.5 M1671.53 2051.02 L1671.53 2013.47 L1677.89 2013.47 L1677.89 2051.02 L1671.53 2051.02 Z" fill="#000000" fill-rule="nonzero" fill-opacity="1" /><path clip-path="url(#clip650)" d="M1685.21 2032.24 Q1685.21 2021.81 1691.01 2016.79 Q1695.86 2012.62 1702.82 2012.62 Q1710.57 2012.62 1715.48 2017.71 Q1720.4 2022.77 1720.4 2031.71 Q1720.4 2038.96 1718.2 2043.13 Q1716.05 2047.27 1711.87 2049.57 Q1707.74 2051.87 1702.82 2051.87 Q1694.94 2051.87 1690.06 2046.81 Q1685.21 2041.76 1685.21 2032.24 M1691.75 2032.24 Q1691.75 2039.46 1694.9 2043.06 Q1698.05 2046.64 1702.82 2046.64 Q1707.56 2046.64 1710.71 2043.03 Q1713.86 2039.42 1713.86 2032.03 Q1713.86 2025.06 1710.67 2021.49 Q1707.53 2017.89 1702.82 2017.89 Q1698.05 2017.89 1694.9 2021.46 Q1691.75 2025.03 1691.75 2032.24 Z" fill="#000000" fill-rule="nonzero" fill-opacity="1" /><path clip-path="url(#clip650)" d="M1727.86 2051.02 L1727.86 2013.47 L1733.59 2013.47 L1733.59 2018.81 Q1737.72 2012.62 1745.54 2012.62 Q1748.93 2012.62 1751.76 2013.85 Q1754.63 2015.06 1756.04 2017.04 Q1757.46 2019.02 1758.02 2021.74 Q1758.38 2023.51 1758.38 2027.93 L1758.38 2051.02 L1752.01 2051.02 L1752.01 2028.18 Q1752.01 2024.29 1751.27 2022.38 Q1750.52 2020.43 1748.62 2019.3 Q1746.74 2018.13 1744.2 2018.13 Q1740.13 2018.13 1737.16 2020.72 Q1734.22 2023.3 1734.22 2030.51 L1734.22 2051.02 L1727.86 2051.02 Z" fill="#000000" fill-rule="nonzero" fill-opacity="1" /><path clip-path="url(#clip650)" d="M1785.89 2032.24 Q1785.89 2021.81 1791.69 2016.79 Q1796.53 2012.62 1803.5 2012.62 Q1811.24 2012.62 1816.16 2017.71 Q1821.07 2022.77 1821.07 2031.71 Q1821.07 2038.96 1818.88 2043.13 Q1816.72 2047.27 1812.55 2049.57 Q1808.41 2051.87 1803.5 2051.87 Q1795.61 2051.87 1790.73 2046.81 Q1785.89 2041.76 1785.89 2032.24 M1792.43 2032.24 Q1792.43 2039.46 1795.58 2043.06 Q1798.72 2046.64 1803.5 2046.64 Q1808.23 2046.64 1811.38 2043.03 Q1814.53 2039.42 1814.53 2032.03 Q1814.53 2025.06 1811.35 2021.49 Q1808.2 2017.89 1803.5 2017.89 Q1798.72 2017.89 1795.58 2021.46 Q1792.43 2025.03 1792.43 2032.24 Z" fill="#000000" fill-rule="nonzero" fill-opacity="1" /><path clip-path="url(#clip650)" d="M1830.05 2051.02 L1830.05 2018.42 L1824.43 2018.42 L1824.43 2013.47 L1830.05 2013.47 L1830.05 2009.47 Q1830.05 2005.69 1830.72 2003.85 Q1831.64 2001.37 1833.94 1999.85 Q1836.28 1998.3 1840.45 1998.3 Q1843.14 1998.3 1846.39 1998.93 L1845.44 2004.48 Q1843.46 2004.13 1841.69 2004.13 Q1838.79 2004.13 1837.59 2005.37 Q1836.38 2006.61 1836.38 2010 L1836.38 2013.47 L1843.7 2013.47 L1843.7 2018.42 L1836.38 2018.42 L1836.38 2051.02 L1830.05 2051.02 Z" fill="#000000" fill-rule="nonzero" fill-opacity="1" /><path clip-path="url(#clip650)" d="M1896.64 2013.47 L1903.15 2013.47 Q1900.67 2021.25 1898.58 2032.24 Q1901.06 2045.89 1903.15 2051.02 L1896.82 2051.02 Q1895.3 2047.48 1894.52 2044.16 Q1891.58 2051.87 1882.25 2051.87 Q1875.17 2051.87 1870.86 2046.56 Q1866.55 2041.26 1866.55 2032.17 Q1866.55 2022.84 1870.86 2017.74 Q1875.21 2012.62 1882.35 2012.62 Q1886.77 2012.62 1889.57 2014.42 Q1892.36 2016.19 1894.76 2019.83 Q1895.01 2018.59 1896.64 2013.47 M1883.41 2017.89 Q1878.85 2017.89 1876.2 2021.56 Q1873.55 2025.24 1873.55 2032.17 Q1873.55 2038.93 1876.06 2042.78 Q1878.57 2046.64 1883.06 2046.64 Q1887.44 2046.64 1890.38 2042.85 Q1893.31 2039.03 1893.31 2031.89 Q1893.31 2024.96 1890.56 2021.42 Q1887.83 2017.89 1883.41 2017.89 Z" fill="#000000" fill-rule="nonzero" fill-opacity="1" /><path clip-path="url(#clip650)" d="M1955.27 2046.39 Q1951.73 2049.39 1948.44 2050.63 Q1945.19 2051.87 1941.44 2051.87 Q1935.25 2051.87 1931.93 2048.86 Q1928.61 2045.82 1928.61 2041.12 Q1928.61 2038.36 1929.84 2036.1 Q1931.12 2033.8 1933.13 2032.42 Q1935.18 2031.04 1937.73 2030.33 Q1939.6 2029.84 1943.39 2029.38 Q1951.1 2028.46 1954.74 2027.19 Q1954.77 2025.88 1954.77 2025.52 Q1954.77 2021.63 1952.97 2020.04 Q1950.53 2017.89 1945.72 2017.89 Q1941.23 2017.89 1939.07 2019.48 Q1936.95 2021.03 1935.93 2025.03 L1929.7 2024.18 Q1930.55 2020.18 1932.5 2017.74 Q1934.44 2015.27 1938.12 2013.96 Q1941.8 2012.62 1946.64 2012.62 Q1951.45 2012.62 1954.45 2013.75 Q1957.46 2014.88 1958.88 2016.61 Q1960.29 2018.31 1960.86 2020.93 Q1961.17 2022.55 1961.17 2026.8 L1961.17 2035.28 Q1961.17 2044.16 1961.56 2046.53 Q1961.99 2048.86 1963.19 2051.02 L1956.54 2051.02 Q1955.55 2049.04 1955.27 2046.39 M1954.74 2032.17 Q1951.27 2033.59 1944.34 2034.58 Q1940.42 2035.14 1938.79 2035.85 Q1937.16 2036.56 1936.28 2037.94 Q1935.4 2039.28 1935.4 2040.94 Q1935.4 2043.49 1937.3 2045.19 Q1939.25 2046.88 1942.96 2046.88 Q1946.64 2046.88 1949.5 2045.29 Q1952.37 2043.66 1953.71 2040.87 Q1954.74 2038.71 1954.74 2034.51 L1954.74 2032.17 Z" fill="#000000" fill-rule="nonzero" fill-opacity="1" /><path clip-path="url(#clip650)" d="M1970.9 2051.02 L1970.9 1999.18 L1977.26 1999.18 L1977.26 2051.02 L1970.9 2051.02 Z" fill="#000000" fill-rule="nonzero" fill-opacity="1" /><path clip-path="url(#clip650)" d="M1984.76 2032.24 Q1984.76 2021.81 1990.56 2016.79 Q1995.4 2012.62 2002.37 2012.62 Q2010.11 2012.62 2015.03 2017.71 Q2019.94 2022.77 2019.94 2031.71 Q2019.94 2038.96 2017.75 2043.13 Q2015.59 2047.27 2011.42 2049.57 Q2007.28 2051.87 2002.37 2051.87 Q1994.48 2051.87 1989.6 2046.81 Q1984.76 2041.76 1984.76 2032.24 M1991.3 2032.24 Q1991.3 2039.46 1994.45 2043.06 Q1997.6 2046.64 2002.37 2046.64 Q2007.11 2046.64 2010.26 2043.03 Q2013.4 2039.42 2013.4 2032.03 Q2013.4 2025.06 2010.22 2021.49 Q2007.07 2017.89 2002.37 2017.89 Q1997.6 2017.89 1994.45 2021.46 Q1991.3 2025.03 1991.3 2032.24 Z" fill="#000000" fill-rule="nonzero" fill-opacity="1" /><path clip-path="url(#clip650)" d="M2027.41 2051.02 L2027.41 2013.47 L2033.13 2013.47 L2033.13 2018.81 Q2037.27 2012.62 2045.09 2012.62 Q2048.48 2012.62 2051.31 2013.85 Q2054.17 2015.06 2055.59 2017.04 Q2057 2019.02 2057.57 2021.74 Q2057.92 2023.51 2057.92 2027.93 L2057.92 2051.02 L2051.56 2051.02 L2051.56 2028.18 Q2051.56 2024.29 2050.82 2022.38 Q2050.07 2020.43 2048.16 2019.3 Q2046.29 2018.13 2043.74 2018.13 Q2039.68 2018.13 2036.71 2020.72 Q2033.77 2023.3 2033.77 2030.51 L2033.77 2051.02 L2027.41 2051.02 Z" fill="#000000" fill-rule="nonzero" fill-opacity="1" /><path clip-path="url(#clip650)" d="M2066.52 2054.13 L2072.7 2055.05 Q2073.09 2057.92 2074.86 2059.22 Q2077.23 2060.99 2081.33 2060.99 Q2085.75 2060.99 2088.16 2059.22 Q2090.56 2057.46 2091.41 2054.27 Q2091.91 2052.33 2091.87 2046.1 Q2087.7 2051.02 2081.47 2051.02 Q2073.73 2051.02 2069.49 2045.43 Q2065.24 2039.85 2065.24 2032.03 Q2065.24 2026.66 2067.19 2022.13 Q2069.13 2017.57 2072.81 2015.09 Q2076.52 2012.62 2081.51 2012.62 Q2088.16 2012.62 2092.47 2017.99 L2092.47 2013.47 L2098.34 2013.47 L2098.34 2045.93 Q2098.34 2054.7 2096.54 2058.34 Q2094.77 2062.02 2090.88 2064.14 Q2087.03 2066.26 2081.37 2066.26 Q2074.65 2066.26 2070.51 2063.22 Q2066.37 2060.21 2066.52 2054.13 M2071.78 2031.57 Q2071.78 2038.96 2074.72 2042.36 Q2077.65 2045.75 2082.07 2045.75 Q2086.46 2045.75 2089.43 2042.39 Q2092.4 2039 2092.4 2031.78 Q2092.4 2024.89 2089.32 2021.39 Q2086.28 2017.89 2081.97 2017.89 Q2077.73 2017.89 2074.75 2021.35 Q2071.78 2024.78 2071.78 2031.57 Z" fill="#000000" fill-rule="nonzero" fill-opacity="1" /><path clip-path="url(#clip650)" d="M2141.98 2045.33 L2142.9 2050.95 Q2140.21 2051.51 2138.09 2051.51 Q2134.62 2051.51 2132.71 2050.42 Q2130.8 2049.32 2130.02 2047.55 Q2129.25 2045.75 2129.25 2040.02 L2129.25 2018.42 L2124.58 2018.42 L2124.58 2013.47 L2129.25 2013.47 L2129.25 2004.17 L2135.58 2000.35 L2135.58 2013.47 L2141.98 2013.47 L2141.98 2018.42 L2135.58 2018.42 L2135.58 2040.38 Q2135.58 2043.1 2135.89 2043.88 Q2136.25 2044.65 2136.99 2045.11 Q2137.77 2045.57 2139.18 2045.57 Q2140.24 2045.57 2141.98 2045.33 Z" fill="#000000" fill-rule="nonzero" fill-opacity="1" /><path clip-path="url(#clip650)" d="M2148.2 2051.02 L2148.2 1999.18 L2154.57 1999.18 L2154.57 2017.78 Q2159.02 2012.62 2165.81 2012.62 Q2169.98 2012.62 2173.06 2014.28 Q2176.14 2015.91 2177.44 2018.81 Q2178.79 2021.71 2178.79 2027.22 L2178.79 2051.02 L2172.42 2051.02 L2172.42 2027.22 Q2172.42 2022.45 2170.34 2020.29 Q2168.29 2018.1 2164.5 2018.1 Q2161.67 2018.1 2159.16 2019.58 Q2156.69 2021.03 2155.63 2023.54 Q2154.57 2026.05 2154.57 2030.47 L2154.57 2051.02 L2148.2 2051.02 Z" fill="#000000" fill-rule="nonzero" fill-opacity="1" /><path clip-path="url(#clip650)" d="M2214.19 2038.93 L2220.76 2039.74 Q2219.21 2045.5 2215 2048.69 Q2210.79 2051.87 2204.25 2051.87 Q2196.01 2051.87 2191.16 2046.81 Q2186.36 2041.72 2186.36 2032.56 Q2186.36 2023.08 2191.24 2017.85 Q2196.12 2012.62 2203.9 2012.62 Q2211.43 2012.62 2216.2 2017.74 Q2220.97 2022.87 2220.97 2032.17 Q2220.97 2032.74 2220.94 2033.87 L2192.93 2033.87 Q2193.29 2040.06 2196.43 2043.35 Q2199.58 2046.64 2204.28 2046.64 Q2207.78 2046.64 2210.26 2044.8 Q2212.74 2042.96 2214.19 2038.93 M2193.29 2028.64 L2214.26 2028.64 Q2213.83 2023.9 2211.85 2021.53 Q2208.81 2017.85 2203.97 2017.85 Q2199.58 2017.85 2196.58 2020.79 Q2193.6 2023.72 2193.29 2028.64 Z" fill="#000000" fill-rule="nonzero" fill-opacity="1" /><path clip-path="url(#clip650)" d="M2248.87 2065.41 L2248.87 2013.47 L2254.67 2013.47 L2254.67 2018.35 Q2256.73 2015.48 2259.31 2014.07 Q2261.89 2012.62 2265.57 2012.62 Q2270.37 2012.62 2274.05 2015.09 Q2277.73 2017.57 2279.6 2022.09 Q2281.48 2026.59 2281.48 2031.96 Q2281.48 2037.72 2279.39 2042.36 Q2277.34 2046.95 2273.38 2049.43 Q2269.46 2051.87 2265.11 2051.87 Q2261.92 2051.87 2259.38 2050.52 Q2256.87 2049.18 2255.24 2047.13 L2255.24 2065.41 L2248.87 2065.41 M2254.64 2032.46 Q2254.64 2039.7 2257.57 2043.17 Q2260.51 2046.64 2264.68 2046.64 Q2268.92 2046.64 2271.93 2043.06 Q2274.97 2039.46 2274.97 2031.92 Q2274.97 2024.75 2272 2021.17 Q2269.07 2017.6 2264.96 2017.6 Q2260.9 2017.6 2257.75 2021.42 Q2254.64 2025.21 2254.64 2032.46 Z" fill="#000000" fill-rule="nonzero" fill-opacity="1" /><path clip-path="url(#clip650)" d="M2289.08 2051.02 L2289.08 2013.47 L2294.81 2013.47 L2294.81 2019.16 Q2297 2015.16 2298.84 2013.89 Q2300.71 2012.62 2302.94 2012.62 Q2306.16 2012.62 2309.48 2014.67 L2307.29 2020.57 Q2304.96 2019.19 2302.62 2019.19 Q2300.54 2019.19 2298.88 2020.47 Q2297.21 2021.71 2296.51 2023.93 Q2295.45 2027.33 2295.45 2031.36 L2295.45 2051.02 L2289.08 2051.02 Z" fill="#000000" fill-rule="nonzero" fill-opacity="1" /><path clip-path="url(#clip650)" d="M2310.9 2032.24 Q2310.9 2021.81 2316.7 2016.79 Q2321.54 2012.62 2328.51 2012.62 Q2336.25 2012.62 2341.17 2017.71 Q2346.08 2022.77 2346.08 2031.71 Q2346.08 2038.96 2343.89 2043.13 Q2341.73 2047.27 2337.56 2049.57 Q2333.42 2051.87 2328.51 2051.87 Q2320.62 2051.87 2315.74 2046.81 Q2310.9 2041.76 2310.9 2032.24 M2317.44 2032.24 Q2317.44 2039.46 2320.59 2043.06 Q2323.74 2046.64 2328.51 2046.64 Q2333.25 2046.64 2336.39 2043.03 Q2339.54 2039.42 2339.54 2032.03 Q2339.54 2025.06 2336.36 2021.49 Q2333.21 2017.89 2328.51 2017.89 Q2323.74 2017.89 2320.59 2021.46 Q2317.44 2025.03 2317.44 2032.24 Z" fill="#000000" fill-rule="nonzero" fill-opacity="1" /><path clip-path="url(#clip650)" d="M2353.51 2006.57 L2353.51 1999.18 L2359.87 1999.18 L2359.87 2006.57 L2353.51 2006.57 M2345.45 2065.59 L2346.65 2060.18 Q2348.56 2060.67 2349.66 2060.67 Q2351.6 2060.67 2352.55 2059.37 Q2353.51 2058.09 2353.51 2052.93 L2353.51 2013.47 L2359.87 2013.47 L2359.87 2053.07 Q2359.87 2060 2358.07 2062.72 Q2355.77 2066.26 2350.43 2066.26 Q2347.85 2066.26 2345.45 2065.59 Z" fill="#000000" fill-rule="nonzero" fill-opacity="1" /><path clip-path="url(#clip650)" d="M2395.34 2038.93 L2401.92 2039.74 Q2400.36 2045.5 2396.16 2048.69 Q2391.95 2051.87 2385.41 2051.87 Q2377.17 2051.87 2372.32 2046.81 Q2367.51 2041.72 2367.51 2032.56 Q2367.51 2023.08 2372.39 2017.85 Q2377.27 2012.62 2385.05 2012.62 Q2392.58 2012.62 2397.36 2017.74 Q2402.13 2022.87 2402.13 2032.17 Q2402.13 2032.74 2402.1 2033.87 L2374.09 2033.87 Q2374.44 2040.06 2377.59 2043.35 Q2380.74 2046.64 2385.44 2046.64 Q2388.94 2046.64 2391.42 2044.8 Q2393.89 2042.96 2395.34 2038.93 M2374.44 2028.64 L2395.41 2028.64 Q2394.99 2023.9 2393.01 2021.53 Q2389.97 2017.85 2385.12 2017.85 Q2380.74 2017.85 2377.73 2020.79 Q2374.76 2023.72 2374.44 2028.64 Z" fill="#000000" fill-rule="nonzero" fill-opacity="1" /><path clip-path="url(#clip650)" d="M2434.42 2037.26 L2440.68 2038.08 Q2439.65 2044.55 2435.41 2048.23 Q2431.2 2051.87 2425.05 2051.87 Q2417.34 2051.87 2412.63 2046.85 Q2407.97 2041.79 2407.97 2032.38 Q2407.97 2026.3 2409.98 2021.74 Q2412 2017.18 2416.1 2014.92 Q2420.24 2012.62 2425.08 2012.62 Q2431.2 2012.62 2435.09 2015.73 Q2438.98 2018.81 2440.07 2024.5 L2433.89 2025.45 Q2433 2021.67 2430.74 2019.76 Q2428.51 2017.85 2425.33 2017.85 Q2420.52 2017.85 2417.51 2021.32 Q2414.51 2024.75 2414.51 2032.21 Q2414.51 2039.77 2417.41 2043.2 Q2420.31 2046.64 2424.98 2046.64 Q2428.72 2046.64 2431.23 2044.34 Q2433.75 2042.04 2434.42 2037.26 Z" fill="#000000" fill-rule="nonzero" fill-opacity="1" /><path clip-path="url(#clip650)" d="M2460.02 2045.33 L2460.94 2050.95 Q2458.25 2051.51 2456.13 2051.51 Q2452.66 2051.51 2450.75 2050.42 Q2448.84 2049.32 2448.07 2047.55 Q2447.29 2045.75 2447.29 2040.02 L2447.29 2018.42 L2442.62 2018.42 L2442.62 2013.47 L2447.29 2013.47 L2447.29 2004.17 L2453.62 2000.35 L2453.62 2013.47 L2460.02 2013.47 L2460.02 2018.42 L2453.62 2018.42 L2453.62 2040.38 Q2453.62 2043.1 2453.94 2043.88 Q2454.29 2044.65 2455.03 2045.11 Q2455.81 2045.57 2457.23 2045.57 Q2458.29 2045.57 2460.02 2045.33 Z" fill="#000000" fill-rule="nonzero" fill-opacity="1" /><path clip-path="url(#clip650)" d="M2466.28 2006.5 L2466.28 1999.18 L2472.64 1999.18 L2472.64 2006.5 L2466.28 2006.5 M2466.28 2051.02 L2466.28 2013.47 L2472.64 2013.47 L2472.64 2051.02 L2466.28 2051.02 Z" fill="#000000" fill-rule="nonzero" fill-opacity="1" /><path clip-path="url(#clip650)" d="M2479.96 2032.24 Q2479.96 2021.81 2485.76 2016.79 Q2490.61 2012.62 2497.57 2012.62 Q2505.32 2012.62 2510.23 2017.71 Q2515.15 2022.77 2515.15 2031.71 Q2515.15 2038.96 2512.95 2043.13 Q2510.8 2047.27 2506.63 2049.57 Q2502.49 2051.87 2497.57 2051.87 Q2489.69 2051.87 2484.81 2046.81 Q2479.96 2041.76 2479.96 2032.24 M2486.5 2032.24 Q2486.5 2039.46 2489.65 2043.06 Q2492.8 2046.64 2497.57 2046.64 Q2502.31 2046.64 2505.46 2043.03 Q2508.61 2039.42 2508.61 2032.03 Q2508.61 2025.06 2505.42 2021.49 Q2502.28 2017.89 2497.57 2017.89 Q2492.8 2017.89 2489.65 2021.46 Q2486.5 2025.03 2486.5 2032.24 Z" fill="#000000" fill-rule="nonzero" fill-opacity="1" /><path clip-path="url(#clip650)" d="M2522.61 2051.02 L2522.61 2013.47 L2528.34 2013.47 L2528.34 2018.81 Q2532.47 2012.62 2540.29 2012.62 Q2543.68 2012.62 2546.51 2013.85 Q2549.38 2015.06 2550.79 2017.04 Q2552.21 2019.02 2552.77 2021.74 Q2553.13 2023.51 2553.13 2027.93 L2553.13 2051.02 L2546.76 2051.02 L2546.76 2028.18 Q2546.76 2024.29 2546.02 2022.38 Q2545.28 2020.43 2543.37 2019.3 Q2541.49 2018.13 2538.95 2018.13 Q2534.88 2018.13 2531.91 2020.72 Q2528.97 2023.3 2528.97 2030.51 L2528.97 2051.02 L2522.61 2051.02 Z" fill="#000000" fill-rule="nonzero" fill-opacity="1" /><polyline clip-path="url(#clip650)" style="stroke:#ff0000; stroke-linecap:round; stroke-linejoin:round; stroke-width:18; stroke-opacity:1; fill:none" points="1006.08,2102.86 1189.16,2102.86 "/>
<path clip-path="url(#clip650)" d="M1238.77 2128.78 L1232.41 2128.78 L1232.41 2088.22 Q1230.11 2090.41 1226.36 2092.6 Q1222.65 2094.8 1219.68 2095.89 L1219.68 2089.74 Q1225.02 2087.23 1229.01 2083.66 Q1233.01 2080.09 1234.67 2076.73 L1238.77 2076.73 L1238.77 2128.78 Z" fill="#000000" fill-rule="nonzero" fill-opacity="1" /><path clip-path="url(#clip650)" d="M1255.07 2103.21 Q1255.07 2094.02 1256.95 2088.43 Q1258.86 2082.81 1262.57 2079.77 Q1266.32 2076.73 1271.98 2076.73 Q1276.15 2076.73 1279.3 2078.43 Q1282.44 2080.09 1284.5 2083.27 Q1286.55 2086.42 1287.71 2090.98 Q1288.88 2095.5 1288.88 2103.21 Q1288.88 2112.34 1287.01 2117.96 Q1285.13 2123.55 1281.38 2126.62 Q1277.67 2129.66 1271.98 2129.66 Q1264.48 2129.66 1260.2 2124.29 Q1255.07 2117.82 1255.07 2103.21 M1261.62 2103.21 Q1261.62 2115.98 1264.59 2120.22 Q1267.59 2124.43 1271.98 2124.43 Q1276.36 2124.43 1279.33 2120.19 Q1282.34 2115.94 1282.34 2103.21 Q1282.34 2090.41 1279.33 2086.2 Q1276.36 2082 1271.91 2082 Q1267.52 2082 1264.91 2085.71 Q1261.62 2090.45 1261.62 2103.21 Z" fill="#000000" fill-rule="nonzero" fill-opacity="1" /><path clip-path="url(#clip650)" d="M1296.55 2089.39 Q1296.55 2083.84 1299.35 2079.95 Q1302.14 2076.06 1307.44 2076.06 Q1312.32 2076.06 1315.51 2079.56 Q1318.73 2083.02 1318.73 2089.78 Q1318.73 2096.35 1315.47 2099.92 Q1312.25 2103.46 1307.52 2103.46 Q1302.81 2103.46 1299.67 2099.96 Q1296.55 2096.46 1296.55 2089.39 M1307.62 2080.44 Q1305.25 2080.44 1303.66 2082.49 Q1302.11 2084.54 1302.11 2090.02 Q1302.11 2095.01 1303.7 2097.06 Q1305.29 2099.08 1307.62 2099.08 Q1310.03 2099.08 1311.58 2097.03 Q1313.17 2094.97 1313.17 2089.53 Q1313.17 2084.51 1311.58 2082.49 Q1309.99 2080.44 1307.62 2080.44 M1307.66 2130.69 L1336.02 2076.06 L1341.18 2076.06 L1312.93 2130.69 L1307.66 2130.69 M1330.08 2116.62 Q1330.08 2111.03 1332.87 2107.17 Q1335.66 2103.28 1341 2103.28 Q1345.88 2103.28 1349.07 2106.78 Q1352.28 2110.25 1352.28 2117 Q1352.28 2123.58 1349.03 2127.15 Q1345.81 2130.69 1341.04 2130.69 Q1336.34 2130.69 1333.19 2127.19 Q1330.08 2123.65 1330.08 2116.62 M1341.18 2107.67 Q1338.78 2107.67 1337.18 2109.72 Q1335.63 2111.77 1335.63 2117.25 Q1335.63 2122.2 1337.22 2124.25 Q1338.81 2126.3 1341.14 2126.3 Q1343.58 2126.3 1345.14 2124.25 Q1346.73 2122.2 1346.73 2116.76 Q1346.73 2111.74 1345.14 2109.72 Q1343.55 2107.67 1341.18 2107.67 Z" fill="#000000" fill-rule="nonzero" fill-opacity="1" /><path clip-path="url(#clip650)" d="M1381.63 2143.17 L1381.63 2091.23 L1387.43 2091.23 L1387.43 2096.11 Q1389.48 2093.24 1392.07 2091.83 Q1394.65 2090.38 1398.32 2090.38 Q1403.13 2090.38 1406.81 2092.85 Q1410.49 2095.33 1412.36 2099.85 Q1414.24 2104.35 1414.24 2109.72 Q1414.24 2115.48 1412.15 2120.12 Q1410.1 2124.71 1406.14 2127.19 Q1402.21 2129.63 1397.86 2129.63 Q1394.68 2129.63 1392.14 2128.28 Q1389.63 2126.94 1388 2124.89 L1388 2143.17 L1381.63 2143.17 M1387.4 2110.22 Q1387.4 2117.46 1390.33 2120.93 Q1393.27 2124.4 1397.44 2124.4 Q1401.68 2124.4 1404.69 2120.82 Q1407.73 2117.22 1407.73 2109.68 Q1407.73 2102.51 1404.76 2098.93 Q1401.82 2095.36 1397.72 2095.36 Q1393.66 2095.36 1390.51 2099.18 Q1387.4 2102.97 1387.4 2110.22 Z" fill="#000000" fill-rule="nonzero" fill-opacity="1" /><path clip-path="url(#clip650)" d="M1447.62 2116.69 L1454.2 2117.5 Q1452.64 2123.26 1448.43 2126.45 Q1444.22 2129.63 1437.68 2129.63 Q1429.44 2129.63 1424.6 2124.57 Q1419.79 2119.48 1419.79 2110.32 Q1419.79 2100.84 1424.67 2095.61 Q1429.55 2090.38 1437.33 2090.38 Q1444.86 2090.38 1449.63 2095.5 Q1454.41 2100.63 1454.41 2109.93 Q1454.41 2110.5 1454.37 2111.63 L1426.37 2111.63 Q1426.72 2117.82 1429.87 2121.11 Q1433.01 2124.4 1437.72 2124.4 Q1441.22 2124.4 1443.69 2122.56 Q1446.17 2120.72 1447.62 2116.69 M1426.72 2106.4 L1447.69 2106.4 Q1447.26 2101.66 1445.28 2099.29 Q1442.24 2095.61 1437.4 2095.61 Q1433.01 2095.61 1430.01 2098.55 Q1427.04 2101.48 1426.72 2106.4 Z" fill="#000000" fill-rule="nonzero" fill-opacity="1" /><path clip-path="url(#clip650)" d="M1462.12 2128.78 L1462.12 2091.23 L1467.84 2091.23 L1467.84 2096.92 Q1470.04 2092.92 1471.88 2091.65 Q1473.75 2090.38 1475.98 2090.38 Q1479.2 2090.38 1482.52 2092.43 L1480.33 2098.33 Q1477.99 2096.95 1475.66 2096.95 Q1473.57 2096.95 1471.91 2098.23 Q1470.25 2099.47 1469.54 2101.69 Q1468.48 2105.09 1468.48 2109.12 L1468.48 2128.78 L1462.12 2128.78 Z" fill="#000000" fill-rule="nonzero" fill-opacity="1" /><path clip-path="url(#clip650)" d="M1500.2 2123.09 L1501.12 2128.71 Q1498.43 2129.27 1496.31 2129.27 Q1492.85 2129.27 1490.94 2128.18 Q1489.03 2127.08 1488.25 2125.31 Q1487.47 2123.51 1487.47 2117.78 L1487.47 2096.18 L1482.8 2096.18 L1482.8 2091.23 L1487.47 2091.23 L1487.47 2081.93 L1493.8 2078.11 L1493.8 2091.23 L1500.2 2091.23 L1500.2 2096.18 L1493.8 2096.18 L1493.8 2118.14 Q1493.8 2120.86 1494.12 2121.64 Q1494.47 2122.41 1495.21 2122.87 Q1495.99 2123.33 1497.41 2123.33 Q1498.47 2123.33 1500.2 2123.09 Z" fill="#000000" fill-rule="nonzero" fill-opacity="1" /><path clip-path="url(#clip650)" d="M1531.04 2128.78 L1531.04 2123.26 Q1526.65 2129.63 1519.12 2129.63 Q1515.8 2129.63 1512.9 2128.36 Q1510.03 2127.08 1508.62 2125.17 Q1507.24 2123.23 1506.67 2120.43 Q1506.28 2118.56 1506.28 2114.49 L1506.28 2091.23 L1512.65 2091.23 L1512.65 2112.05 Q1512.65 2117.04 1513.04 2118.77 Q1513.64 2121.28 1515.58 2122.73 Q1517.53 2124.15 1520.39 2124.15 Q1523.26 2124.15 1525.77 2122.7 Q1528.28 2121.21 1529.3 2118.7 Q1530.36 2116.16 1530.36 2111.35 L1530.36 2091.23 L1536.73 2091.23 L1536.73 2128.78 L1531.04 2128.78 Z" fill="#000000" fill-rule="nonzero" fill-opacity="1" /><path clip-path="url(#clip650)" d="M1546.63 2128.78 L1546.63 2091.23 L1552.36 2091.23 L1552.36 2096.92 Q1554.55 2092.92 1556.39 2091.65 Q1558.26 2090.38 1560.49 2090.38 Q1563.71 2090.38 1567.03 2092.43 L1564.84 2098.33 Q1562.51 2096.95 1560.17 2096.95 Q1558.09 2096.95 1556.43 2098.23 Q1554.76 2099.47 1554.06 2101.69 Q1553 2105.09 1553 2109.12 L1553 2128.78 L1546.63 2128.78 Z" fill="#000000" fill-rule="nonzero" fill-opacity="1" /><path clip-path="url(#clip650)" d="M1576.69 2128.78 L1570.78 2128.78 L1570.78 2076.94 L1577.15 2076.94 L1577.15 2095.43 Q1581.18 2090.38 1587.44 2090.38 Q1590.9 2090.38 1593.98 2091.79 Q1597.09 2093.17 1599.07 2095.72 Q1601.09 2098.23 1602.22 2101.8 Q1603.35 2105.37 1603.35 2109.44 Q1603.35 2119.09 1598.58 2124.36 Q1593.8 2129.63 1587.12 2129.63 Q1580.47 2129.63 1576.69 2124.08 L1576.69 2128.78 M1576.62 2109.72 Q1576.62 2116.47 1578.46 2119.48 Q1581.46 2124.4 1586.59 2124.4 Q1590.76 2124.4 1593.8 2120.79 Q1596.84 2117.15 1596.84 2109.97 Q1596.84 2102.61 1593.91 2099.11 Q1591.01 2095.61 1586.87 2095.61 Q1582.7 2095.61 1579.66 2099.25 Q1576.62 2102.86 1576.62 2109.72 Z" fill="#000000" fill-rule="nonzero" fill-opacity="1" /><path clip-path="url(#clip650)" d="M1635.6 2124.15 Q1632.06 2127.15 1628.78 2128.39 Q1625.52 2129.63 1621.77 2129.63 Q1615.59 2129.63 1612.26 2126.62 Q1608.94 2123.58 1608.94 2118.88 Q1608.94 2116.12 1610.18 2113.86 Q1611.45 2111.56 1613.46 2110.18 Q1615.51 2108.8 1618.06 2108.09 Q1619.93 2107.6 1623.72 2107.14 Q1631.43 2106.22 1635.07 2104.95 Q1635.1 2103.64 1635.1 2103.28 Q1635.1 2099.39 1633.3 2097.8 Q1630.86 2095.65 1626.05 2095.65 Q1621.56 2095.65 1619.4 2097.24 Q1617.28 2098.79 1616.26 2102.79 L1610.03 2101.94 Q1610.88 2097.94 1612.83 2095.5 Q1614.77 2093.03 1618.45 2091.72 Q1622.13 2090.38 1626.97 2090.38 Q1631.78 2090.38 1634.79 2091.51 Q1637.79 2092.64 1639.21 2094.37 Q1640.62 2096.07 1641.19 2098.69 Q1641.51 2100.31 1641.51 2104.56 L1641.51 2113.04 Q1641.51 2121.92 1641.89 2124.29 Q1642.32 2126.62 1643.52 2128.78 L1636.87 2128.78 Q1635.88 2126.8 1635.6 2124.15 M1635.07 2109.93 Q1631.6 2111.35 1624.67 2112.34 Q1620.75 2112.9 1619.12 2113.61 Q1617.49 2114.32 1616.61 2115.7 Q1615.73 2117.04 1615.73 2118.7 Q1615.73 2121.25 1617.64 2122.95 Q1619.58 2124.64 1623.29 2124.64 Q1626.97 2124.64 1629.84 2123.05 Q1632.7 2121.42 1634.04 2118.63 Q1635.07 2116.47 1635.07 2112.27 L1635.07 2109.93 Z" fill="#000000" fill-rule="nonzero" fill-opacity="1" /><path clip-path="url(#clip650)" d="M1665.27 2123.09 L1666.19 2128.71 Q1663.5 2129.27 1661.38 2129.27 Q1657.91 2129.27 1656 2128.18 Q1654.09 2127.08 1653.32 2125.31 Q1652.54 2123.51 1652.54 2117.78 L1652.54 2096.18 L1647.87 2096.18 L1647.87 2091.23 L1652.54 2091.23 L1652.54 2081.93 L1658.87 2078.11 L1658.87 2091.23 L1665.27 2091.23 L1665.27 2096.18 L1658.87 2096.18 L1658.87 2118.14 Q1658.87 2120.86 1659.19 2121.64 Q1659.54 2122.41 1660.28 2122.87 Q1661.06 2123.33 1662.47 2123.33 Q1663.54 2123.33 1665.27 2123.09 Z" fill="#000000" fill-rule="nonzero" fill-opacity="1" /><path clip-path="url(#clip650)" d="M1671.53 2084.26 L1671.53 2076.94 L1677.89 2076.94 L1677.89 2084.26 L1671.53 2084.26 M1671.53 2128.78 L1671.53 2091.23 L1677.89 2091.23 L1677.89 2128.78 L1671.53 2128.78 Z" fill="#000000" fill-rule="nonzero" fill-opacity="1" /><path clip-path="url(#clip650)" d="M1685.21 2110 Q1685.21 2099.57 1691.01 2094.55 Q1695.86 2090.38 1702.82 2090.38 Q1710.57 2090.38 1715.48 2095.47 Q1720.4 2100.53 1720.4 2109.47 Q1720.4 2116.72 1718.2 2120.89 Q1716.05 2125.03 1711.87 2127.33 Q1707.74 2129.63 1702.82 2129.63 Q1694.94 2129.63 1690.06 2124.57 Q1685.21 2119.52 1685.21 2110 M1691.75 2110 Q1691.75 2117.22 1694.9 2120.82 Q1698.05 2124.4 1702.82 2124.4 Q1707.56 2124.4 1710.71 2120.79 Q1713.86 2117.18 1713.86 2109.79 Q1713.86 2102.82 1710.67 2099.25 Q1707.53 2095.65 1702.82 2095.65 Q1698.05 2095.65 1694.9 2099.22 Q1691.75 2102.79 1691.75 2110 Z" fill="#000000" fill-rule="nonzero" fill-opacity="1" /><path clip-path="url(#clip650)" d="M1727.86 2128.78 L1727.86 2091.23 L1733.59 2091.23 L1733.59 2096.57 Q1737.72 2090.38 1745.54 2090.38 Q1748.93 2090.38 1751.76 2091.61 Q1754.63 2092.82 1756.04 2094.8 Q1757.46 2096.78 1758.02 2099.5 Q1758.38 2101.27 1758.38 2105.69 L1758.38 2128.78 L1752.01 2128.78 L1752.01 2105.94 Q1752.01 2102.05 1751.27 2100.14 Q1750.52 2098.19 1748.62 2097.06 Q1746.74 2095.89 1744.2 2095.89 Q1740.13 2095.89 1737.16 2098.48 Q1734.22 2101.06 1734.22 2108.27 L1734.22 2128.78 L1727.86 2128.78 Z" fill="#000000" fill-rule="nonzero" fill-opacity="1" /><path clip-path="url(#clip650)" d="M1785.71 2117.57 L1792 2116.58 Q1792.53 2120.36 1794.94 2122.38 Q1797.38 2124.4 1801.73 2124.4 Q1806.11 2124.4 1808.23 2122.63 Q1810.36 2120.82 1810.36 2118.42 Q1810.36 2116.26 1808.48 2115.02 Q1807.17 2114.18 1801.98 2112.87 Q1794.97 2111.1 1792.25 2109.83 Q1789.56 2108.52 1788.15 2106.25 Q1786.77 2103.96 1786.77 2101.2 Q1786.77 2098.69 1787.9 2096.57 Q1789.07 2094.41 1791.05 2092.99 Q1792.53 2091.9 1795.08 2091.16 Q1797.66 2090.38 1800.6 2090.38 Q1805.02 2090.38 1808.34 2091.65 Q1811.7 2092.92 1813.29 2095.12 Q1814.88 2097.27 1815.48 2100.91 L1809.26 2101.76 Q1808.84 2098.86 1806.79 2097.24 Q1804.77 2095.61 1801.06 2095.61 Q1796.67 2095.61 1794.8 2097.06 Q1792.92 2098.51 1792.92 2100.46 Q1792.92 2101.69 1793.7 2102.68 Q1794.48 2103.71 1796.14 2104.38 Q1797.1 2104.73 1801.76 2106.01 Q1808.52 2107.81 1811.17 2108.98 Q1813.86 2110.11 1815.38 2112.3 Q1816.9 2114.49 1816.9 2117.75 Q1816.9 2120.93 1815.02 2123.76 Q1813.19 2126.55 1809.68 2128.11 Q1806.18 2129.63 1801.76 2129.63 Q1794.44 2129.63 1790.59 2126.59 Q1786.77 2123.55 1785.71 2117.57 Z" fill="#000000" fill-rule="nonzero" fill-opacity="1" /><path clip-path="url(#clip650)" d="M1822.1 2110 Q1822.1 2099.57 1827.9 2094.55 Q1832.74 2090.38 1839.71 2090.38 Q1847.45 2090.38 1852.37 2095.47 Q1857.28 2100.53 1857.28 2109.47 Q1857.28 2116.72 1855.09 2120.89 Q1852.93 2125.03 1848.76 2127.33 Q1844.62 2129.63 1839.71 2129.63 Q1831.82 2129.63 1826.94 2124.57 Q1822.1 2119.52 1822.1 2110 M1828.64 2110 Q1828.64 2117.22 1831.79 2120.82 Q1834.93 2124.4 1839.71 2124.4 Q1844.45 2124.4 1847.59 2120.79 Q1850.74 2117.18 1850.74 2109.79 Q1850.74 2102.82 1847.56 2099.25 Q1844.41 2095.65 1839.71 2095.65 Q1834.93 2095.65 1831.79 2099.22 Q1828.64 2102.79 1828.64 2110 Z" fill="#000000" fill-rule="nonzero" fill-opacity="1" /><path clip-path="url(#clip650)" d="M1864.6 2128.78 L1864.6 2076.94 L1870.97 2076.94 L1870.97 2128.78 L1864.6 2128.78 Z" fill="#000000" fill-rule="nonzero" fill-opacity="1" /><path clip-path="url(#clip650)" d="M1906.54 2116.69 L1913.12 2117.5 Q1911.56 2123.26 1907.35 2126.45 Q1903.15 2129.63 1896.6 2129.63 Q1888.36 2129.63 1883.52 2124.57 Q1878.71 2119.48 1878.71 2110.32 Q1878.71 2100.84 1883.59 2095.61 Q1888.47 2090.38 1896.25 2090.38 Q1903.78 2090.38 1908.56 2095.5 Q1913.33 2100.63 1913.33 2109.93 Q1913.33 2110.5 1913.29 2111.63 L1885.29 2111.63 Q1885.64 2117.82 1888.79 2121.11 Q1891.94 2124.4 1896.64 2124.4 Q1900.14 2124.4 1902.61 2122.56 Q1905.09 2120.72 1906.54 2116.69 M1885.64 2106.4 L1906.61 2106.4 Q1906.19 2101.66 1904.21 2099.29 Q1901.17 2095.61 1896.32 2095.61 Q1891.94 2095.61 1888.93 2098.55 Q1885.96 2101.48 1885.64 2106.4 Z" fill="#000000" fill-rule="nonzero" fill-opacity="1" /><path clip-path="url(#clip650)" d="M1920.97 2128.78 L1920.97 2076.94 L1927.33 2076.94 L1927.33 2128.78 L1920.97 2128.78 Z" fill="#000000" fill-rule="nonzero" fill-opacity="1" /><path clip-path="url(#clip650)" d="M1936.92 2143.24 L1936.21 2137.27 Q1938.29 2137.83 1939.85 2137.83 Q1941.97 2137.83 1943.25 2137.13 Q1944.52 2136.42 1945.33 2135.14 Q1945.93 2134.19 1947.28 2130.41 Q1947.45 2129.88 1947.84 2128.85 L1933.59 2091.23 L1940.45 2091.23 L1948.27 2112.97 Q1949.79 2117.11 1950.99 2121.67 Q1952.09 2117.29 1953.61 2113.11 L1961.63 2091.23 L1968 2091.23 L1953.71 2129.42 Q1951.41 2135.6 1950.14 2137.94 Q1948.44 2141.09 1946.25 2142.54 Q1944.06 2144.02 1941.02 2144.02 Q1939.18 2144.02 1936.92 2143.24 Z" fill="#000000" fill-rule="nonzero" fill-opacity="1" /><path clip-path="url(#clip650)" d="M1991.16 2110 Q1991.16 2099.57 1996.96 2094.55 Q2001.8 2090.38 2008.77 2090.38 Q2016.51 2090.38 2021.43 2095.47 Q2026.34 2100.53 2026.34 2109.47 Q2026.34 2116.72 2024.15 2120.89 Q2022 2125.03 2017.82 2127.33 Q2013.69 2129.63 2008.77 2129.63 Q2000.88 2129.63 1996 2124.57 Q1991.16 2119.52 1991.16 2110 M1997.7 2110 Q1997.7 2117.22 2000.85 2120.82 Q2004 2124.4 2008.77 2124.4 Q2013.51 2124.4 2016.66 2120.79 Q2019.8 2117.18 2019.8 2109.79 Q2019.8 2102.82 2016.62 2099.25 Q2013.47 2095.65 2008.77 2095.65 Q2004 2095.65 2000.85 2099.22 Q1997.7 2102.79 1997.7 2110 Z" fill="#000000" fill-rule="nonzero" fill-opacity="1" /><path clip-path="url(#clip650)" d="M2035.33 2128.78 L2035.33 2096.18 L2029.7 2096.18 L2029.7 2091.23 L2035.33 2091.23 L2035.33 2087.23 Q2035.33 2083.45 2036 2081.61 Q2036.92 2079.13 2039.22 2077.61 Q2041.55 2076.06 2045.72 2076.06 Q2048.41 2076.06 2051.66 2076.69 L2050.71 2082.24 Q2048.73 2081.89 2046.96 2081.89 Q2044.06 2081.89 2042.86 2083.13 Q2041.66 2084.37 2041.66 2087.76 L2041.66 2091.23 L2048.98 2091.23 L2048.98 2096.18 L2041.66 2096.18 L2041.66 2128.78 L2035.33 2128.78 Z" fill="#000000" fill-rule="nonzero" fill-opacity="1" /><path clip-path="url(#clip650)" d="M2101.91 2091.23 L2108.42 2091.23 Q2105.94 2099.01 2103.86 2110 Q2106.33 2123.65 2108.42 2128.78 L2102.09 2128.78 Q2100.57 2125.24 2099.79 2121.92 Q2096.86 2129.63 2087.52 2129.63 Q2080.45 2129.63 2076.13 2124.32 Q2071.82 2119.02 2071.82 2109.93 Q2071.82 2100.6 2076.13 2095.5 Q2080.48 2090.38 2087.63 2090.38 Q2092.05 2090.38 2094.84 2092.18 Q2097.63 2093.95 2100.04 2097.59 Q2100.29 2096.35 2101.91 2091.23 M2088.69 2095.65 Q2084.13 2095.65 2081.47 2099.32 Q2078.82 2103 2078.82 2109.93 Q2078.82 2116.69 2081.33 2120.54 Q2083.84 2124.4 2088.33 2124.4 Q2092.72 2124.4 2095.65 2120.61 Q2098.59 2116.79 2098.59 2109.65 Q2098.59 2102.72 2095.83 2099.18 Q2093.11 2095.65 2088.69 2095.65 Z" fill="#000000" fill-rule="nonzero" fill-opacity="1" /></svg>
