<?xml version="1.0" encoding="utf-8"?>
<svg xmlns="http://www.w3.org/2000/svg" xmlns:xlink="http://www.w3.org/1999/xlink" width="1500" height="450" viewBox="0 0 6000 1800">
<defs>
  <clipPath id="clip500">
    <rect x="0" y="0" width="6000" height="1800"/>
  </clipPath>
</defs>
<path clip-path="url(#clip500)" d="M0 1800 L6000 1800 L6000 0 L0 0  Z" fill="#ffffff" fill-rule="evenodd" fill-opacity="1"/>
<defs>
  <clipPath id="clip501">
    <rect x="1200" y="0" width="4201" height="1800"/>
  </clipPath>
</defs>
<path clip-path="url(#clip500)" d="M1092.82 997.597 L5952.76 997.597 L5952.76 47.2441 L1092.82 47.2441  Z" fill="#ffffff" fill-rule="evenodd" fill-opacity="1"/>
<defs>
  <clipPath id="clip502">
    <rect x="1092" y="47" width="4861" height="951"/>
  </clipPath>
</defs>
<polyline clip-path="url(#clip502)" style="stroke:#000000; stroke-linecap:round; stroke-linejoin:round; stroke-width:2; stroke-opacity:0.1; fill:none" points="1230.37,997.597 1230.37,47.2441 "/>
<polyline clip-path="url(#clip502)" style="stroke:#000000; stroke-linecap:round; stroke-linejoin:round; stroke-width:2; stroke-opacity:0.1; fill:none" points="2147.34,997.597 2147.34,47.2441 "/>
<polyline clip-path="url(#clip502)" style="stroke:#000000; stroke-linecap:round; stroke-linejoin:round; stroke-width:2; stroke-opacity:0.1; fill:none" points="3064.31,997.597 3064.31,47.2441 "/>
<polyline clip-path="url(#clip502)" style="stroke:#000000; stroke-linecap:round; stroke-linejoin:round; stroke-width:2; stroke-opacity:0.1; fill:none" points="3981.27,997.597 3981.27,47.2441 "/>
<polyline clip-path="url(#clip502)" style="stroke:#000000; stroke-linecap:round; stroke-linejoin:round; stroke-width:2; stroke-opacity:0.1; fill:none" points="4898.24,997.597 4898.24,47.2441 "/>
<polyline clip-path="url(#clip502)" style="stroke:#000000; stroke-linecap:round; stroke-linejoin:round; stroke-width:2; stroke-opacity:0.1; fill:none" points="5815.21,997.597 5815.21,47.2441 "/>
<polyline clip-path="url(#clip500)" style="stroke:#000000; stroke-linecap:round; stroke-linejoin:round; stroke-width:4; stroke-opacity:1; fill:none" points="1092.82,997.597 5952.76,997.597 "/>
<polyline clip-path="url(#clip500)" style="stroke:#000000; stroke-linecap:round; stroke-linejoin:round; stroke-width:4; stroke-opacity:1; fill:none" points="1230.37,997.597 1230.37,986.464 "/>
<polyline clip-path="url(#clip500)" style="stroke:#000000; stroke-linecap:round; stroke-linejoin:round; stroke-width:4; stroke-opacity:1; fill:none" points="2147.34,997.597 2147.34,986.464 "/>
<polyline clip-path="url(#clip500)" style="stroke:#000000; stroke-linecap:round; stroke-linejoin:round; stroke-width:4; stroke-opacity:1; fill:none" points="3064.31,997.597 3064.31,986.464 "/>
<polyline clip-path="url(#clip500)" style="stroke:#000000; stroke-linecap:round; stroke-linejoin:round; stroke-width:4; stroke-opacity:1; fill:none" points="3981.27,997.597 3981.27,986.464 "/>
<polyline clip-path="url(#clip500)" style="stroke:#000000; stroke-linecap:round; stroke-linejoin:round; stroke-width:4; stroke-opacity:1; fill:none" points="4898.24,997.597 4898.24,986.464 "/>
<polyline clip-path="url(#clip500)" style="stroke:#000000; stroke-linecap:round; stroke-linejoin:round; stroke-width:4; stroke-opacity:1; fill:none" points="5815.21,997.597 5815.21,986.464 "/>
<path clip-path="url(#clip500)" d="M1216.28 1078.29 Q1216.28 1070.63 1217.85 1065.97 Q1219.44 1061.29 1222.53 1058.75 Q1225.65 1056.22 1230.37 1056.22 Q1233.85 1056.22 1236.47 1057.63 Q1239.09 1059.02 1240.8 1061.67 Q1242.51 1064.29 1243.48 1068.1 Q1244.45 1071.87 1244.45 1078.29 Q1244.45 1085.89 1242.89 1090.58 Q1241.33 1095.24 1238.21 1097.8 Q1235.11 1100.33 1230.37 1100.33 Q1224.12 1100.33 1220.56 1095.85 Q1216.28 1090.46 1216.28 1078.29 M1221.74 1078.29 Q1221.74 1088.93 1224.21 1092.47 Q1226.72 1095.97 1230.37 1095.97 Q1234.02 1095.97 1236.5 1092.44 Q1239 1088.9 1239 1078.29 Q1239 1067.62 1236.5 1064.12 Q1234.02 1060.61 1230.31 1060.61 Q1226.66 1060.61 1224.48 1063.7 Q1221.74 1067.65 1221.74 1078.29 Z" fill="#000000" fill-rule="nonzero" fill-opacity="1" /><path clip-path="url(#clip500)" d="M2155.29 1099.6 L2149.99 1099.6 L2149.99 1065.8 Q2148.07 1067.62 2144.95 1069.45 Q2141.86 1071.28 2139.38 1072.19 L2139.38 1067.06 Q2143.83 1064.97 2147.16 1062 Q2150.49 1059.02 2151.88 1056.22 L2155.29 1056.22 L2155.29 1099.6 Z" fill="#000000" fill-rule="nonzero" fill-opacity="1" /><path clip-path="url(#clip500)" d="M3078.61 1094.5 L3078.61 1099.6 L3050.06 1099.6 Q3050 1097.68 3050.68 1095.91 Q3051.77 1093 3054.15 1090.17 Q3056.57 1087.34 3061.11 1083.63 Q3068.15 1077.85 3070.63 1074.49 Q3073.1 1071.1 3073.1 1068.1 Q3073.1 1064.94 3070.83 1062.79 Q3068.59 1060.61 3064.97 1060.61 Q3061.14 1060.61 3058.84 1062.91 Q3056.54 1065.21 3056.51 1069.27 L3051.06 1068.71 Q3051.62 1062.61 3055.27 1059.43 Q3058.93 1056.22 3065.09 1056.22 Q3071.3 1056.22 3074.93 1059.67 Q3078.55 1063.12 3078.55 1068.21 Q3078.55 1070.81 3077.49 1073.31 Q3076.43 1075.82 3073.96 1078.59 Q3071.51 1081.36 3065.79 1086.19 Q3061.02 1090.2 3059.66 1091.64 Q3058.31 1093.06 3057.43 1094.5 L3078.61 1094.5 Z" fill="#000000" fill-rule="nonzero" fill-opacity="1" /><path clip-path="url(#clip500)" d="M3967.13 1088.19 L3972.43 1087.49 Q3973.35 1091.99 3975.53 1094 Q3977.74 1095.97 3980.89 1095.97 Q3984.63 1095.97 3987.2 1093.38 Q3989.79 1090.79 3989.79 1086.96 Q3989.79 1083.3 3987.4 1080.94 Q3985.02 1078.56 3981.33 1078.56 Q3979.83 1078.56 3977.59 1079.15 L3978.18 1074.49 Q3978.71 1074.55 3979.03 1074.55 Q3982.42 1074.55 3985.13 1072.78 Q3987.85 1071.01 3987.85 1067.33 Q3987.85 1064.41 3985.87 1062.5 Q3983.9 1060.58 3980.77 1060.58 Q3977.68 1060.58 3975.62 1062.53 Q3973.55 1064.47 3972.96 1068.36 L3967.66 1067.42 Q3968.63 1062.08 3972.08 1059.17 Q3975.53 1056.22 3980.66 1056.22 Q3984.19 1056.22 3987.17 1057.75 Q3990.14 1059.26 3991.71 1061.88 Q3993.3 1064.5 3993.3 1067.45 Q3993.3 1070.25 3991.79 1072.55 Q3990.29 1074.84 3987.34 1076.2 Q3991.18 1077.08 3993.3 1079.88 Q3995.42 1082.65 3995.42 1086.84 Q3995.42 1092.5 3991.29 1096.44 Q3987.17 1100.36 3980.86 1100.36 Q3975.17 1100.36 3971.4 1096.97 Q3967.66 1093.59 3967.13 1088.19 Z" fill="#000000" fill-rule="nonzero" fill-opacity="1" /><path clip-path="url(#clip500)" d="M4902.04 1099.6 L4902.04 1089.25 L4883.3 1089.25 L4883.3 1084.39 L4903.02 1056.4 L4907.35 1056.4 L4907.35 1084.39 L4913.18 1084.39 L4913.18 1089.25 L4907.35 1089.25 L4907.35 1099.6 L4902.04 1099.6 M4902.04 1084.39 L4902.04 1064.91 L4888.52 1084.39 L4902.04 1084.39 Z" fill="#000000" fill-rule="nonzero" fill-opacity="1" /><path clip-path="url(#clip500)" d="M5800.89 1088.28 L5806.46 1087.81 Q5807.08 1091.88 5809.32 1093.94 Q5811.59 1095.97 5814.77 1095.97 Q5818.6 1095.97 5821.25 1093.08 Q5823.9 1090.2 5823.9 1085.42 Q5823.9 1080.88 5821.34 1078.26 Q5818.81 1075.64 5814.68 1075.64 Q5812.12 1075.64 5810.05 1076.82 Q5807.99 1077.97 5806.81 1079.82 L5801.83 1079.18 L5806.02 1056.99 L5827.5 1056.99 L5827.5 1062.05 L5810.26 1062.05 L5807.93 1073.67 Q5811.82 1070.95 5816.09 1070.95 Q5821.75 1070.95 5825.64 1074.87 Q5829.53 1078.79 5829.53 1084.95 Q5829.53 1090.82 5826.11 1095.09 Q5821.96 1100.33 5814.77 1100.33 Q5808.88 1100.33 5805.13 1097.03 Q5801.42 1093.73 5800.89 1088.28 Z" fill="#000000" fill-rule="nonzero" fill-opacity="1" /><path clip-path="url(#clip500)" d="M3421.44 1208.91 L3422.36 1214.53 Q3419.68 1215.1 3417.55 1215.1 Q3414.09 1215.1 3412.18 1214 Q3410.27 1212.91 3409.49 1211.14 Q3408.71 1209.34 3408.71 1203.61 L3408.71 1182 L3404.05 1182 L3404.05 1177.05 L3408.71 1177.05 L3408.71 1167.75 L3415.04 1163.93 L3415.04 1177.05 L3421.44 1177.05 L3421.44 1182 L3415.04 1182 L3415.04 1203.96 Q3415.04 1206.68 3415.36 1207.46 Q3415.72 1208.24 3416.46 1208.7 Q3417.24 1209.16 3418.65 1209.16 Q3419.71 1209.16 3421.44 1208.91 Z" fill="#000000" fill-rule="nonzero" fill-opacity="1" /><path clip-path="url(#clip500)" d="M3427.7 1170.08 L3427.7 1162.76 L3434.07 1162.76 L3434.07 1170.08 L3427.7 1170.08 M3427.7 1214.6 L3427.7 1177.05 L3434.07 1177.05 L3434.07 1214.6 L3427.7 1214.6 Z" fill="#000000" fill-rule="nonzero" fill-opacity="1" /><path clip-path="url(#clip500)" d="M3443.76 1214.6 L3443.76 1177.05 L3449.45 1177.05 L3449.45 1182.32 Q3451.22 1179.56 3454.15 1177.9 Q3457.09 1176.2 3460.84 1176.2 Q3465.01 1176.2 3467.66 1177.94 Q3470.35 1179.67 3471.45 1182.78 Q3475.9 1176.2 3483.04 1176.2 Q3488.63 1176.2 3491.64 1179.31 Q3494.64 1182.39 3494.64 1188.83 L3494.64 1214.6 L3488.31 1214.6 L3488.31 1190.95 Q3488.31 1187.13 3487.68 1185.47 Q3487.07 1183.77 3485.45 1182.74 Q3483.82 1181.72 3481.63 1181.72 Q3477.67 1181.72 3475.05 1184.37 Q3472.44 1186.99 3472.44 1192.79 L3472.44 1214.6 L3466.07 1214.6 L3466.07 1190.21 Q3466.07 1185.96 3464.51 1183.84 Q3462.96 1181.72 3459.42 1181.72 Q3456.73 1181.72 3454.44 1183.13 Q3452.17 1184.55 3451.15 1187.27 Q3450.12 1189.99 3450.12 1195.12 L3450.12 1214.6 L3443.76 1214.6 Z" fill="#000000" fill-rule="nonzero" fill-opacity="1" /><path clip-path="url(#clip500)" d="M3529.79 1202.51 L3536.37 1203.32 Q3534.81 1209.09 3530.6 1212.27 Q3526.4 1215.45 3519.85 1215.45 Q3511.62 1215.45 3506.77 1210.4 Q3501.96 1205.3 3501.96 1196.15 Q3501.96 1186.67 3506.84 1181.44 Q3511.72 1176.2 3519.5 1176.2 Q3527.03 1176.2 3531.81 1181.33 Q3536.58 1186.46 3536.58 1195.76 Q3536.58 1196.32 3536.55 1197.45 L3508.54 1197.45 Q3508.89 1203.64 3512.04 1206.93 Q3515.19 1210.22 3519.89 1210.22 Q3523.39 1210.22 3525.87 1208.38 Q3528.34 1206.54 3529.79 1202.51 M3508.89 1192.22 L3529.86 1192.22 Q3529.44 1187.48 3527.46 1185.11 Q3524.42 1181.44 3519.57 1181.44 Q3515.19 1181.44 3512.18 1184.37 Q3509.21 1187.31 3508.89 1192.22 Z" fill="#000000" fill-rule="nonzero" fill-opacity="1" /><path clip-path="url(#clip500)" d="M3576.65 1229.85 Q3571.38 1223.2 3567.73 1214.29 Q3564.09 1205.38 3564.09 1195.83 Q3564.09 1187.41 3566.82 1179.7 Q3570 1170.76 3576.65 1161.88 L3581.21 1161.88 Q3576.93 1169.24 3575.55 1172.38 Q3573.39 1177.26 3572.15 1182.57 Q3570.63 1189.18 3570.63 1195.86 Q3570.63 1212.87 3581.21 1229.85 L3576.65 1229.85 Z" fill="#000000" fill-rule="nonzero" fill-opacity="1" /><path clip-path="url(#clip500)" d="M3588.31 1229.07 L3587.61 1223.09 Q3589.69 1223.66 3591.25 1223.66 Q3593.37 1223.66 3594.64 1222.95 Q3595.92 1222.24 3596.73 1220.97 Q3597.33 1220.02 3598.68 1216.23 Q3598.85 1215.7 3599.24 1214.68 L3584.99 1177.05 L3591.85 1177.05 L3599.67 1198.8 Q3601.19 1202.94 3602.39 1207.5 Q3603.48 1203.11 3605.01 1198.94 L3613.03 1177.05 L3619.4 1177.05 L3605.11 1215.24 Q3602.81 1221.43 3601.54 1223.76 Q3599.84 1226.91 3597.65 1228.36 Q3595.46 1229.85 3592.42 1229.85 Q3590.58 1229.85 3588.31 1229.07 Z" fill="#000000" fill-rule="nonzero" fill-opacity="1" /><path clip-path="url(#clip500)" d="M3628.98 1229.85 L3624.42 1229.85 Q3634.99 1212.87 3634.99 1195.86 Q3634.99 1189.22 3633.47 1182.67 Q3632.27 1177.37 3630.11 1172.49 Q3628.73 1169.31 3624.42 1161.88 L3628.98 1161.88 Q3635.63 1170.76 3638.81 1179.7 Q3641.53 1187.41 3641.53 1195.83 Q3641.53 1205.38 3637.86 1214.29 Q3634.21 1223.2 3628.98 1229.85 Z" fill="#000000" fill-rule="nonzero" fill-opacity="1" /><polyline clip-path="url(#clip502)" style="stroke:#000000; stroke-linecap:round; stroke-linejoin:round; stroke-width:2; stroke-opacity:0.1; fill:none" points="1092.82,990.12 5952.76,990.12 "/>
<polyline clip-path="url(#clip502)" style="stroke:#000000; stroke-linecap:round; stroke-linejoin:round; stroke-width:2; stroke-opacity:0.1; fill:none" points="1092.82,852.01 5952.76,852.01 "/>
<polyline clip-path="url(#clip502)" style="stroke:#000000; stroke-linecap:round; stroke-linejoin:round; stroke-width:2; stroke-opacity:0.1; fill:none" points="1092.82,713.899 5952.76,713.899 "/>
<polyline clip-path="url(#clip502)" style="stroke:#000000; stroke-linecap:round; stroke-linejoin:round; stroke-width:2; stroke-opacity:0.1; fill:none" points="1092.82,575.788 5952.76,575.788 "/>
<polyline clip-path="url(#clip502)" style="stroke:#000000; stroke-linecap:round; stroke-linejoin:round; stroke-width:2; stroke-opacity:0.1; fill:none" points="1092.82,437.677 5952.76,437.677 "/>
<polyline clip-path="url(#clip502)" style="stroke:#000000; stroke-linecap:round; stroke-linejoin:round; stroke-width:2; stroke-opacity:0.1; fill:none" points="1092.82,299.566 5952.76,299.566 "/>
<polyline clip-path="url(#clip502)" style="stroke:#000000; stroke-linecap:round; stroke-linejoin:round; stroke-width:2; stroke-opacity:0.1; fill:none" points="1092.82,161.456 5952.76,161.456 "/>
<polyline clip-path="url(#clip500)" style="stroke:#000000; stroke-linecap:round; stroke-linejoin:round; stroke-width:4; stroke-opacity:1; fill:none" points="1092.82,997.597 1092.82,47.2441 "/>
<polyline clip-path="url(#clip500)" style="stroke:#000000; stroke-linecap:round; stroke-linejoin:round; stroke-width:4; stroke-opacity:1; fill:none" points="1092.82,990.12 1111.72,990.12 "/>
<polyline clip-path="url(#clip500)" style="stroke:#000000; stroke-linecap:round; stroke-linejoin:round; stroke-width:4; stroke-opacity:1; fill:none" points="1092.82,852.01 1111.72,852.01 "/>
<polyline clip-path="url(#clip500)" style="stroke:#000000; stroke-linecap:round; stroke-linejoin:round; stroke-width:4; stroke-opacity:1; fill:none" points="1092.82,713.899 1111.72,713.899 "/>
<polyline clip-path="url(#clip500)" style="stroke:#000000; stroke-linecap:round; stroke-linejoin:round; stroke-width:4; stroke-opacity:1; fill:none" points="1092.82,575.788 1111.72,575.788 "/>
<polyline clip-path="url(#clip500)" style="stroke:#000000; stroke-linecap:round; stroke-linejoin:round; stroke-width:4; stroke-opacity:1; fill:none" points="1092.82,437.677 1111.72,437.677 "/>
<polyline clip-path="url(#clip500)" style="stroke:#000000; stroke-linecap:round; stroke-linejoin:round; stroke-width:4; stroke-opacity:1; fill:none" points="1092.82,299.566 1111.72,299.566 "/>
<polyline clip-path="url(#clip500)" style="stroke:#000000; stroke-linecap:round; stroke-linejoin:round; stroke-width:4; stroke-opacity:1; fill:none" points="1092.82,161.456 1111.72,161.456 "/>
<path clip-path="url(#clip500)" d="M910.737 1011.72 L905.433 1011.72 L905.433 977.921 Q903.517 979.748 900.394 981.575 Q897.299 983.402 894.824 984.315 L894.824 979.188 Q899.274 977.095 902.604 974.119 Q905.933 971.143 907.318 968.343 L910.737 968.343 L910.737 1011.72 Z" fill="#000000" fill-rule="nonzero" fill-opacity="1" /><path clip-path="url(#clip500)" d="M927.298 1011.72 L927.298 1005.68 L933.339 1005.68 L933.339 1011.72 L927.298 1011.72 Z" fill="#000000" fill-rule="nonzero" fill-opacity="1" /><path clip-path="url(#clip500)" d="M941.089 1000.4 L946.658 999.933 Q947.277 1004 949.517 1006.06 Q951.786 1008.1 954.968 1008.1 Q958.799 1008.1 961.451 1005.21 Q964.103 1002.32 964.103 997.546 Q964.103 993.008 961.539 990.385 Q959.005 987.763 954.88 987.763 Q952.316 987.763 950.253 988.942 Q948.191 990.091 947.012 991.947 L942.032 991.299 L946.216 969.11 L967.698 969.11 L967.698 974.178 L950.46 974.178 L948.132 985.788 Q952.021 983.077 956.294 983.077 Q961.952 983.077 965.842 986.997 Q969.732 990.916 969.732 997.075 Q969.732 1002.94 966.313 1007.21 Q962.158 1012.46 954.968 1012.46 Q949.075 1012.46 945.332 1009.16 Q941.619 1005.86 941.089 1000.4 Z" fill="#000000" fill-rule="nonzero" fill-opacity="1" /><path clip-path="url(#clip500)" d="M974.653 990.415 Q974.653 982.753 976.215 978.097 Q977.806 973.412 980.9 970.878 Q984.024 968.343 988.738 968.343 Q992.216 968.343 994.838 969.758 Q997.461 971.143 999.17 973.795 Q1000.88 976.418 1001.85 980.219 Q1002.82 983.991 1002.82 990.415 Q1002.82 998.018 1001.26 1002.7 Q999.7 1007.36 996.577 1009.92 Q993.483 1012.46 988.738 1012.46 Q982.491 1012.46 978.926 1007.98 Q974.653 1002.59 974.653 990.415 M980.104 990.415 Q980.104 1001.05 982.58 1004.59 Q985.084 1008.1 988.738 1008.1 Q992.392 1008.1 994.868 1004.56 Q997.372 1001.02 997.372 990.415 Q997.372 979.748 994.868 976.241 Q992.392 972.734 988.679 972.734 Q985.025 972.734 982.845 975.828 Q980.104 979.777 980.104 990.415 Z" fill="#000000" fill-rule="nonzero" fill-opacity="1" /><path clip-path="url(#clip500)" d="M910.265 873.61 L904.961 873.61 L904.961 839.81 Q903.046 841.637 899.922 843.464 Q896.828 845.291 894.353 846.204 L894.353 841.077 Q898.802 838.985 902.132 836.008 Q905.462 833.032 906.847 830.233 L910.265 830.233 L910.265 873.61 Z" fill="#000000" fill-rule="nonzero" fill-opacity="1" /><path clip-path="url(#clip500)" d="M926.826 873.61 L926.826 867.569 L932.867 867.569 L932.867 873.61 L926.826 873.61 Z" fill="#000000" fill-rule="nonzero" fill-opacity="1" /><path clip-path="url(#clip500)" d="M940.971 836.067 L940.971 830.969 L968.936 830.969 L968.936 835.095 Q964.81 839.486 960.744 846.764 Q956.707 854.043 954.497 861.734 Q952.905 867.156 952.463 873.61 L947.012 873.61 Q947.1 868.512 949.016 861.292 Q950.931 854.072 954.497 847.383 Q958.092 840.664 962.129 836.067 L940.971 836.067 Z" fill="#000000" fill-rule="nonzero" fill-opacity="1" /><path clip-path="url(#clip500)" d="M974.181 862.294 L979.751 861.822 Q980.369 865.889 982.609 867.952 Q984.878 869.985 988.061 869.985 Q991.891 869.985 994.544 867.097 Q997.196 864.209 997.196 859.435 Q997.196 854.897 994.632 852.275 Q992.098 849.652 987.972 849.652 Q985.409 849.652 983.346 850.831 Q981.283 851.98 980.104 853.837 L975.124 853.188 L979.309 830.999 L1000.79 830.999 L1000.79 836.067 L983.552 836.067 L981.224 847.678 Q985.114 844.967 989.387 844.967 Q995.045 844.967 998.934 848.886 Q1002.82 852.805 1002.82 858.964 Q1002.82 864.828 999.406 869.101 Q995.251 874.346 988.061 874.346 Q982.167 874.346 978.425 871.046 Q974.712 867.745 974.181 862.294 Z" fill="#000000" fill-rule="nonzero" fill-opacity="1" /><path clip-path="url(#clip500)" d="M918.634 730.401 L918.634 735.499 L890.08 735.499 Q890.021 733.583 890.699 731.815 Q891.789 728.898 894.176 726.069 Q896.592 723.24 901.13 719.527 Q908.173 713.751 910.648 710.392 Q913.124 707.003 913.124 703.998 Q913.124 700.844 910.855 698.693 Q908.615 696.513 904.991 696.513 Q901.16 696.513 898.861 698.811 Q896.563 701.11 896.533 705.176 L891.082 704.616 Q891.642 698.516 895.296 695.334 Q898.95 692.122 905.108 692.122 Q911.326 692.122 914.951 695.57 Q918.575 699.017 918.575 704.115 Q918.575 706.709 917.514 709.213 Q916.454 711.718 913.978 714.488 Q911.532 717.258 905.816 722.091 Q901.042 726.098 899.686 727.542 Q898.331 728.957 897.447 730.401 L918.634 730.401 Z" fill="#000000" fill-rule="nonzero" fill-opacity="1" /><path clip-path="url(#clip500)" d="M927.298 735.499 L927.298 729.458 L933.339 729.458 L933.339 735.499 L927.298 735.499 Z" fill="#000000" fill-rule="nonzero" fill-opacity="1" /><path clip-path="url(#clip500)" d="M941.089 714.193 Q941.089 706.532 942.651 701.876 Q944.242 697.19 947.336 694.656 Q950.46 692.122 955.174 692.122 Q958.652 692.122 961.274 693.536 Q963.897 694.921 965.606 697.574 Q967.315 700.196 968.288 703.998 Q969.26 707.769 969.26 714.193 Q969.26 721.796 967.698 726.482 Q966.136 731.138 963.013 733.701 Q959.919 736.235 955.174 736.235 Q948.927 736.235 945.362 731.756 Q941.089 726.364 941.089 714.193 M946.54 714.193 Q946.54 724.831 949.016 728.368 Q951.52 731.874 955.174 731.874 Q958.828 731.874 961.304 728.338 Q963.809 724.802 963.809 714.193 Q963.809 703.526 961.304 700.019 Q958.828 696.513 955.115 696.513 Q951.461 696.513 949.281 699.607 Q946.54 703.556 946.54 714.193 Z" fill="#000000" fill-rule="nonzero" fill-opacity="1" /><path clip-path="url(#clip500)" d="M974.653 714.193 Q974.653 706.532 976.215 701.876 Q977.806 697.19 980.9 694.656 Q984.024 692.122 988.738 692.122 Q992.216 692.122 994.838 693.536 Q997.461 694.921 999.17 697.574 Q1000.88 700.196 1001.85 703.998 Q1002.82 707.769 1002.82 714.193 Q1002.82 721.796 1001.26 726.482 Q999.7 731.138 996.577 733.701 Q993.483 736.235 988.738 736.235 Q982.491 736.235 978.926 731.756 Q974.653 726.364 974.653 714.193 M980.104 714.193 Q980.104 724.831 982.58 728.368 Q985.084 731.874 988.738 731.874 Q992.392 731.874 994.868 728.338 Q997.372 724.802 997.372 714.193 Q997.372 703.526 994.868 700.019 Q992.392 696.513 988.679 696.513 Q985.025 696.513 982.845 699.607 Q980.104 703.556 980.104 714.193 Z" fill="#000000" fill-rule="nonzero" fill-opacity="1" /><path clip-path="url(#clip500)" d="M918.163 592.29 L918.163 597.388 L889.608 597.388 Q889.549 595.473 890.227 593.705 Q891.317 590.787 893.704 587.958 Q896.121 585.129 900.659 581.416 Q907.702 575.641 910.177 572.281 Q912.652 568.893 912.652 565.887 Q912.652 562.734 910.383 560.583 Q908.144 558.402 904.519 558.402 Q900.688 558.402 898.39 560.7 Q896.091 562.999 896.062 567.065 L890.61 566.506 Q891.17 560.406 894.824 557.223 Q898.478 554.011 904.637 554.011 Q910.855 554.011 914.479 557.459 Q918.104 560.907 918.104 566.005 Q918.104 568.598 917.043 571.103 Q915.982 573.607 913.507 576.377 Q911.061 579.147 905.344 583.98 Q900.57 587.988 899.215 589.432 Q897.859 590.846 896.975 592.29 L918.163 592.29 Z" fill="#000000" fill-rule="nonzero" fill-opacity="1" /><path clip-path="url(#clip500)" d="M926.826 597.388 L926.826 591.347 L932.867 591.347 L932.867 597.388 L926.826 597.388 Z" fill="#000000" fill-rule="nonzero" fill-opacity="1" /><path clip-path="url(#clip500)" d="M968.494 592.29 L968.494 597.388 L939.939 597.388 Q939.881 595.473 940.558 593.705 Q941.649 590.787 944.036 587.958 Q946.452 585.129 950.99 581.416 Q958.033 575.641 960.508 572.281 Q962.983 568.893 962.983 565.887 Q962.983 562.734 960.714 560.583 Q958.475 558.402 954.85 558.402 Q951.019 558.402 948.721 560.7 Q946.422 562.999 946.393 567.065 L940.941 566.506 Q941.501 560.406 945.155 557.223 Q948.809 554.011 954.968 554.011 Q961.186 554.011 964.81 557.459 Q968.435 560.907 968.435 566.005 Q968.435 568.598 967.374 571.103 Q966.313 573.607 963.838 576.377 Q961.392 579.147 955.675 583.98 Q950.902 587.988 949.546 589.432 Q948.191 590.846 947.306 592.29 L968.494 592.29 Z" fill="#000000" fill-rule="nonzero" fill-opacity="1" /><path clip-path="url(#clip500)" d="M974.181 586.072 L979.751 585.601 Q980.369 589.667 982.609 591.73 Q984.878 593.763 988.061 593.763 Q991.891 593.763 994.544 590.876 Q997.196 587.988 997.196 583.214 Q997.196 578.676 994.632 576.053 Q992.098 573.431 987.972 573.431 Q985.409 573.431 983.346 574.609 Q981.283 575.759 980.104 577.615 L975.124 576.967 L979.309 554.777 L1000.79 554.777 L1000.79 559.846 L983.552 559.846 L981.224 571.456 Q985.114 568.745 989.387 568.745 Q995.045 568.745 998.934 572.664 Q1002.82 576.584 1002.82 582.742 Q1002.82 588.607 999.406 592.879 Q995.251 598.125 988.061 598.125 Q982.167 598.125 978.425 594.824 Q974.712 591.524 974.181 586.072 Z" fill="#000000" fill-rule="nonzero" fill-opacity="1" /><path clip-path="url(#clip500)" d="M918.634 454.179 L918.634 459.277 L890.08 459.277 Q890.021 457.362 890.699 455.594 Q891.789 452.676 894.176 449.848 Q896.592 447.019 901.13 443.306 Q908.173 437.53 910.648 434.171 Q913.124 430.782 913.124 427.776 Q913.124 424.623 910.855 422.472 Q908.615 420.291 904.991 420.291 Q901.16 420.291 898.861 422.59 Q896.563 424.888 896.533 428.955 L891.082 428.395 Q891.642 422.295 895.296 419.112 Q898.95 415.9 905.108 415.9 Q911.326 415.9 914.951 419.348 Q918.575 422.796 918.575 427.894 Q918.575 430.487 917.514 432.992 Q916.454 435.497 913.978 438.267 Q911.532 441.037 905.816 445.869 Q901.042 449.877 899.686 451.321 Q898.331 452.735 897.447 454.179 L918.634 454.179 Z" fill="#000000" fill-rule="nonzero" fill-opacity="1" /><path clip-path="url(#clip500)" d="M927.298 459.277 L927.298 453.236 L933.339 453.236 L933.339 459.277 L927.298 459.277 Z" fill="#000000" fill-rule="nonzero" fill-opacity="1" /><path clip-path="url(#clip500)" d="M941.089 447.962 L946.658 447.49 Q947.277 451.557 949.517 453.619 Q951.786 455.653 954.968 455.653 Q958.799 455.653 961.451 452.765 Q964.103 449.877 964.103 445.103 Q964.103 440.565 961.539 437.942 Q959.005 435.32 954.88 435.32 Q952.316 435.32 950.253 436.499 Q948.191 437.648 947.012 439.504 L942.032 438.856 L946.216 416.667 L967.698 416.667 L967.698 421.735 L950.46 421.735 L948.132 433.345 Q952.021 430.634 956.294 430.634 Q961.952 430.634 965.842 434.554 Q969.732 438.473 969.732 444.632 Q969.732 450.496 966.313 454.769 Q962.158 460.014 954.968 460.014 Q949.075 460.014 945.332 456.714 Q941.619 453.413 941.089 447.962 Z" fill="#000000" fill-rule="nonzero" fill-opacity="1" /><path clip-path="url(#clip500)" d="M974.653 437.972 Q974.653 430.31 976.215 425.654 Q977.806 420.969 980.9 418.435 Q984.024 415.9 988.738 415.9 Q992.216 415.9 994.838 417.315 Q997.461 418.7 999.17 421.352 Q1000.88 423.975 1001.85 427.776 Q1002.82 431.548 1002.82 437.972 Q1002.82 445.575 1001.26 450.26 Q999.7 454.916 996.577 457.48 Q993.483 460.014 988.738 460.014 Q982.491 460.014 978.926 455.535 Q974.653 450.142 974.653 437.972 M980.104 437.972 Q980.104 448.61 982.58 452.146 Q985.084 455.653 988.738 455.653 Q992.392 455.653 994.868 452.117 Q997.372 448.58 997.372 437.972 Q997.372 427.305 994.868 423.798 Q992.392 420.291 988.679 420.291 Q985.025 420.291 982.845 423.385 Q980.104 427.334 980.104 437.972 Z" fill="#000000" fill-rule="nonzero" fill-opacity="1" /><path clip-path="url(#clip500)" d="M918.163 316.069 L918.163 321.166 L889.608 321.166 Q889.549 319.251 890.227 317.483 Q891.317 314.566 893.704 311.737 Q896.121 308.908 900.659 305.195 Q907.702 299.419 910.177 296.06 Q912.652 292.671 912.652 289.665 Q912.652 286.512 910.383 284.361 Q908.144 282.18 904.519 282.18 Q900.688 282.18 898.39 284.479 Q896.091 286.777 896.062 290.844 L890.61 290.284 Q891.17 284.184 894.824 281.002 Q898.478 277.79 904.637 277.79 Q910.855 277.79 914.479 281.237 Q918.104 284.685 918.104 289.783 Q918.104 292.376 917.043 294.881 Q915.982 297.386 913.507 300.156 Q911.061 302.926 905.344 307.759 Q900.57 311.766 899.215 313.21 Q897.859 314.625 896.975 316.069 L918.163 316.069 Z" fill="#000000" fill-rule="nonzero" fill-opacity="1" /><path clip-path="url(#clip500)" d="M926.826 321.166 L926.826 315.126 L932.867 315.126 L932.867 321.166 L926.826 321.166 Z" fill="#000000" fill-rule="nonzero" fill-opacity="1" /><path clip-path="url(#clip500)" d="M940.971 283.624 L940.971 278.526 L968.936 278.526 L968.936 282.652 Q964.81 287.043 960.744 294.321 Q956.707 301.6 954.497 309.291 Q952.905 314.713 952.463 321.166 L947.012 321.166 Q947.1 316.069 949.016 308.849 Q950.931 301.629 954.497 294.94 Q958.092 288.221 962.129 283.624 L940.971 283.624 Z" fill="#000000" fill-rule="nonzero" fill-opacity="1" /><path clip-path="url(#clip500)" d="M974.181 309.851 L979.751 309.379 Q980.369 313.446 982.609 315.509 Q984.878 317.542 988.061 317.542 Q991.891 317.542 994.544 314.654 Q997.196 311.766 997.196 306.992 Q997.196 302.454 994.632 299.832 Q992.098 297.209 987.972 297.209 Q985.409 297.209 983.346 298.388 Q981.283 299.537 980.104 301.394 L975.124 300.745 L979.309 278.556 L1000.79 278.556 L1000.79 283.624 L983.552 283.624 L981.224 295.235 Q985.114 292.524 989.387 292.524 Q995.045 292.524 998.934 296.443 Q1002.82 300.362 1002.82 306.521 Q1002.82 312.385 999.406 316.658 Q995.251 321.903 988.061 321.903 Q982.167 321.903 978.425 318.603 Q974.712 315.302 974.181 309.851 Z" fill="#000000" fill-rule="nonzero" fill-opacity="1" /><path clip-path="url(#clip500)" d="M890.787 171.652 L896.091 170.944 Q897.005 175.453 899.185 177.457 Q901.395 179.431 904.548 179.431 Q908.291 179.431 910.855 176.838 Q913.448 174.245 913.448 170.414 Q913.448 166.76 911.061 164.403 Q908.674 162.016 904.991 162.016 Q903.488 162.016 901.248 162.605 L901.837 157.949 Q902.368 158.008 902.692 158.008 Q906.081 158.008 908.792 156.24 Q911.503 154.472 911.503 150.788 Q911.503 147.871 909.529 145.956 Q907.554 144.04 904.431 144.04 Q901.336 144.04 899.274 145.985 Q897.211 147.93 896.622 151.82 L891.317 150.877 Q892.29 145.543 895.738 142.626 Q899.185 139.679 904.313 139.679 Q907.849 139.679 910.825 141.211 Q913.801 142.714 915.363 145.337 Q916.954 147.959 916.954 150.906 Q916.954 153.706 915.452 156.004 Q913.949 158.303 911.002 159.658 Q914.833 160.542 916.954 163.342 Q919.076 166.112 919.076 170.296 Q919.076 175.954 914.951 179.903 Q910.825 183.822 904.519 183.822 Q898.832 183.822 895.06 180.433 Q891.317 177.044 890.787 171.652 Z" fill="#000000" fill-rule="nonzero" fill-opacity="1" /><path clip-path="url(#clip500)" d="M927.298 183.056 L927.298 177.015 L933.339 177.015 L933.339 183.056 L927.298 183.056 Z" fill="#000000" fill-rule="nonzero" fill-opacity="1" /><path clip-path="url(#clip500)" d="M941.089 161.75 Q941.089 154.089 942.651 149.433 Q944.242 144.747 947.336 142.213 Q950.46 139.679 955.174 139.679 Q958.652 139.679 961.274 141.093 Q963.897 142.478 965.606 145.131 Q967.315 147.753 968.288 151.555 Q969.26 155.326 969.26 161.75 Q969.26 169.353 967.698 174.039 Q966.136 178.694 963.013 181.258 Q959.919 183.792 955.174 183.792 Q948.927 183.792 945.362 179.313 Q941.089 173.921 941.089 161.75 M946.54 161.75 Q946.54 172.388 949.016 175.925 Q951.52 179.431 955.174 179.431 Q958.828 179.431 961.304 175.895 Q963.809 172.359 963.809 161.75 Q963.809 151.083 961.304 147.576 Q958.828 144.07 955.115 144.07 Q951.461 144.07 949.281 147.164 Q946.54 151.112 946.54 161.75 Z" fill="#000000" fill-rule="nonzero" fill-opacity="1" /><path clip-path="url(#clip500)" d="M974.653 161.75 Q974.653 154.089 976.215 149.433 Q977.806 144.747 980.9 142.213 Q984.024 139.679 988.738 139.679 Q992.216 139.679 994.838 141.093 Q997.461 142.478 999.17 145.131 Q1000.88 147.753 1001.85 151.555 Q1002.82 155.326 1002.82 161.75 Q1002.82 169.353 1001.26 174.039 Q999.7 178.694 996.577 181.258 Q993.483 183.792 988.738 183.792 Q982.491 183.792 978.926 179.313 Q974.653 173.921 974.653 161.75 M980.104 161.75 Q980.104 172.388 982.58 175.925 Q985.084 179.431 988.738 179.431 Q992.392 179.431 994.868 175.895 Q997.372 172.359 997.372 161.75 Q997.372 151.083 994.868 147.576 Q992.392 144.07 988.679 144.07 Q985.025 144.07 982.845 147.164 Q980.104 151.112 980.104 161.75 Z" fill="#000000" fill-rule="nonzero" fill-opacity="1" /><path clip-path="url(#clip500)" d="M798.46 550.109 L792.484 550.816 Q793.05 548.729 793.05 547.174 Q793.05 545.052 792.343 543.779 Q791.635 542.506 790.362 541.693 Q789.408 541.091 785.624 539.748 Q785.094 539.571 784.068 539.182 L746.443 553.433 L746.443 546.572 L768.191 538.758 Q772.328 537.237 776.89 536.035 Q772.505 534.938 768.332 533.418 L746.443 525.391 L746.443 519.026 L784.634 533.312 Q790.822 535.61 793.156 536.883 Q796.303 538.581 797.753 540.773 Q799.238 542.966 799.238 546.007 Q799.238 547.845 798.46 550.109 Z" fill="#000000" fill-rule="nonzero" fill-opacity="1" /><path clip-path="url(#clip500)" d="M783.997 491.408 L783.997 497.774 L743.438 497.774 Q745.63 500.072 747.822 503.82 Q750.015 507.533 751.111 510.504 L744.958 510.504 Q742.448 505.164 738.876 501.168 Q735.304 497.172 731.945 495.51 L731.945 491.408 L783.997 491.408 Z" fill="#000000" fill-rule="nonzero" fill-opacity="1" /><polyline clip-path="url(#clip502)" style="stroke:#90ee90; stroke-linecap:round; stroke-linejoin:round; stroke-width:40; stroke-opacity:1; fill:none" points="1230.37,80.6784 1239.54,82.2056 1248.71,83.9044 1257.88,85.7751 1267.05,87.8176 1276.22,90.0318 1285.39,92.4177 1294.56,94.9746 1303.73,97.7024 1312.9,100.6 1322.07,103.667 1331.24,106.903 1340.41,110.307 1349.58,113.877 1358.74,117.612 1367.91,121.511 1377.08,125.573 1386.25,129.795 1395.42,134.176 1404.59,138.715 1413.76,143.409 1422.93,148.256 1432.1,153.254 1441.27,158.4 1450.44,163.692 1459.61,169.128 1468.78,174.704 1477.95,180.419 1487.12,186.268 1496.29,192.249 1505.46,198.359 1514.63,204.595 1523.8,210.953 1532.97,217.43 1542.14,224.022 1551.31,230.726 1560.48,237.539 1569.65,244.455 1578.82,251.473 1587.99,258.587 1597.16,265.794 1606.33,273.091 1615.5,280.472 1624.67,287.935 1633.84,295.475 1643.01,303.088 1652.17,310.77 1661.34,318.517 1670.51,326.324 1679.68,334.189 1688.85,342.106 1698.02,350.071 1707.19,358.082 1716.36,366.132 1725.53,374.22 1734.7,382.339 1743.87,390.487 1753.04,398.66 1762.21,406.854 1771.38,415.064 1780.55,423.288 1789.72,431.521 1798.89,439.759 1808.06,448 1817.23,456.238 1826.4,464.472 1835.57,472.698 1844.74,480.911 1853.91,489.109 1863.08,497.289 1872.25,505.446 1881.42,513.58 1890.59,521.685 1899.76,529.759 1908.93,537.8 1918.1,545.804 1927.27,553.77 1936.43,561.693 1945.6,569.572 1954.77,577.404 1963.94,585.186 1973.11,592.917 1982.28,600.594 1991.45,608.215 2000.62,615.778 2009.79,623.281 2018.96,630.721 2028.13,638.098 2037.3,645.409 2046.47,652.652 2055.64,659.827 2064.81,666.93 2073.98,673.962 2083.15,680.92 2092.32,687.803 2101.49,694.611 2110.66,701.341 2119.83,707.992 2129,714.565 2138.17,721.057 2147.34,727.467 2156.51,733.795 2165.68,740.041 2174.85,746.203 2184.02,752.28 2193.19,758.272 2202.36,764.179 2211.53,770 2220.7,775.734 2229.86,781.382 2239.03,786.942 2248.2,792.415 2257.37,797.8 2266.54,803.097 2275.71,808.306 2284.88,813.427 2294.05,818.459 2303.22,823.403 2312.39,828.258 2321.56,833.026 2330.73,837.705 2339.9,842.296 2349.07,846.799 2358.24,851.214 2367.41,855.541 2376.58,859.781 2385.75,863.934 2394.92,868 2404.09,871.979 2413.26,875.872 2422.43,879.679 2431.6,883.4 2440.77,887.036 2449.94,890.587 2459.11,894.054 2468.28,897.436 2477.45,900.735 2486.62,903.951 2495.79,907.084 2504.96,910.135 2514.12,913.104 2523.29,915.991 2532.46,918.798 2541.63,921.524 2550.8,924.171 2559.97,926.738 2569.14,929.226 2578.31,931.636 2587.48,933.968 2596.65,936.222 2605.82,938.4 2614.99,940.501 2624.16,942.526 2633.33,944.476 2642.5,946.351 2651.67,948.151 2660.84,949.878 2670.01,951.531 2679.18,953.112 2688.35,954.619 2697.52,956.055 2706.69,957.42 2715.86,958.713 2725.03,959.936 2734.2,961.089 2743.37,962.172 2752.54,963.185 2761.71,964.13 2770.88,965.007 2780.05,965.816 2789.22,966.557 2798.39,967.231 2807.55,967.839 2816.72,968.38 2825.89,968.855 2835.06,969.265 2844.23,969.61 2853.4,969.89 2862.57,970.106 2871.74,970.257 2880.91,970.346 2890.08,970.37 2899.25,970.332 2908.42,970.232 2917.59,970.069 2926.76,969.844 2935.93,969.558 2945.1,969.21 2954.27,968.801 2963.44,968.332 2972.61,967.802 2981.78,967.213 2990.95,966.563 3000.12,965.854 3009.29,965.086 3018.46,964.259 3027.63,963.373 3036.8,962.428 3045.97,961.426 3055.14,960.366 3064.31,959.248 3073.48,958.073 3082.65,956.84 3091.81,955.551 3100.98,954.205 3110.15,952.802 3119.32,951.343 3128.49,949.829 3137.66,948.258 3146.83,946.632 3156,944.951 3165.17,943.214 3174.34,941.422 3183.51,939.576 3192.68,937.675 3201.85,935.72 3211.02,933.711 3220.19,931.648 3229.36,929.531 3238.53,927.361 3247.7,925.137 3256.87,922.86 3266.04,920.53 3275.21,918.147 3284.38,915.711 3293.55,913.223 3302.72,910.683 3311.89,908.09 3321.06,905.446 3330.23,902.75 3339.4,900.002 3348.57,897.202 3357.74,894.352 3366.91,891.45 3376.07,888.497 3385.24,885.494 3394.41,882.44 3403.58,879.335 3412.75,876.18 3421.92,872.975 3431.09,869.72 3440.26,866.415 3449.43,863.061 3458.6,859.657 3467.77,856.204 3476.94,852.701 3486.11,849.15 3495.28,845.549 3504.45,841.901 3513.62,838.203 3522.79,834.458 3531.96,830.664 3541.13,826.822 3550.3,822.932 3559.47,818.995 3568.64,815.011 3577.81,810.979 3586.98,806.9 3596.15,802.775 3605.32,798.603 3614.49,794.384 3623.66,790.119 3632.83,785.809 3642,781.452 3651.17,777.05 3660.34,772.602 3669.5,768.11 3678.67,763.572 3687.84,758.99 3697.01,754.364 3706.18,749.694 3715.35,744.979 3724.52,740.222 3733.69,735.421 3742.86,730.577 3752.03,725.69 3761.2,720.761 3770.37,715.791 3779.54,710.778 3788.71,705.724 3797.88,700.629 3807.05,695.494 3816.22,690.318 3825.39,685.103 3834.56,679.848 3843.73,674.554 3852.9,669.222 3862.07,663.851 3871.24,658.443 3880.41,652.998 3889.58,647.516 3898.75,641.998 3907.92,636.444 3917.09,630.856 3926.26,625.232 3935.43,619.575 3944.6,613.885 3953.77,608.161 3962.93,602.406 3972.1,596.619 3981.27,590.801 3990.44,584.954 3999.61,579.077 4008.78,573.171 4017.95,567.237 4027.12,561.277 4036.29,555.29 4045.46,549.277 4054.63,543.24 4063.8,537.18 4072.97,531.096 4082.14,524.99 4091.31,518.864 4100.48,512.717 4109.65,506.551 4118.82,500.368 4127.99,494.167 4137.16,487.95 4146.33,481.719 4155.5,475.473 4164.67,469.216 4173.84,462.946 4183.01,456.667 4192.18,450.378 4201.35,444.082 4210.52,437.779 4219.69,431.471 4228.86,425.16 4238.03,418.845 4247.19,412.53 4256.36,406.215 4265.53,399.901 4274.7,393.591 4283.87,387.286 4293.04,380.987 4302.21,374.695 4311.38,368.413 4320.55,362.142 4329.72,355.883 4338.89,349.639 4348.06,343.411 4357.23,337.201 4366.4,331.01 4375.57,324.841 4384.74,318.694 4393.91,312.573 4403.08,306.478 4412.25,300.412 4421.42,294.377 4430.59,288.374 4439.76,282.406 4448.93,276.474 4458.1,270.581 4467.27,264.729 4476.44,258.92 4485.61,253.156 4494.78,247.439 4503.95,241.771 4513.12,236.155 4522.29,230.592 4531.45,225.086 4540.62,219.638 4549.79,214.25 4558.96,208.926 4568.13,203.666 4577.3,198.475 4586.47,193.353 4595.64,188.304 4604.81,183.33 4613.98,178.433 4623.15,173.616 4632.32,168.882 4641.49,164.232 4650.66,159.669 4659.83,155.197 4669,150.817 4678.17,146.531 4687.34,142.343 4696.51,138.255 4705.68,134.27 4714.85,130.39 4724.02,126.617 4733.19,122.954 4742.36,119.405 4751.53,115.97 4760.7,112.653 4769.87,109.456 4779.04,106.382 4788.21,103.432 4797.38,100.611 4806.55,97.9189 4815.72,95.3593 4824.89,92.9343 4834.05,90.6461 4843.22,88.497 4852.39,86.4892 4861.56,84.6248 4870.73,82.906 4879.9,81.3348 4889.07,79.9131 4898.24,78.6429 4907.41,77.5261 4916.58,76.5644 4925.75,75.7596 4934.92,75.1134 4944.09,74.6272 4953.26,74.3025 4962.43,74.1409 4971.6,74.1435 4980.77,74.3115 4989.94,74.6462 4999.11,75.1484 5008.28,75.8192 5017.45,76.6594 5026.62,77.6695 5035.79,78.8504 5044.96,80.2023 5054.13,81.7259 5063.3,83.4211 5072.47,85.2884 5081.64,87.3276 5090.81,89.5387 5099.98,91.9214 5109.15,94.4755 5118.31,97.2004 5127.48,100.096 5136.65,103.161 5145.82,106.394 5154.99,109.795 5164.16,113.363 5173.33,117.097 5182.5,120.994 5191.67,125.054 5200.84,129.275 5210.01,133.655 5219.18,138.192 5228.35,142.885 5237.52,147.731 5246.69,152.728 5255.86,157.874 5265.03,163.166 5274.2,168.601 5283.37,174.178 5292.54,179.892 5301.71,185.742 5310.88,191.724 5320.05,197.834 5329.22,204.071 5338.39,210.43 5347.56,216.908 5356.73,223.502 5365.9,230.207 5375.07,237.021 5384.24,243.94 5393.41,250.959 5402.58,258.076 5411.74,265.285 5420.91,272.585 5430.08,279.969 5439.25,287.434 5448.42,294.977 5457.59,302.594 5466.76,310.279 5475.93,318.029 5485.1,325.84 5494.27,333.709 5503.44,341.63 5512.61,349.6 5521.78,357.614 5530.95,365.669 5540.12,373.761 5549.29,381.885 5558.46,390.038 5567.63,398.216 5576.8,406.415 5585.97,414.63 5595.14,422.859 5604.31,431.098 5613.48,439.342 5622.65,447.588 5631.82,455.832 5640.99,464.072 5650.16,472.303 5659.33,480.522 5668.5,488.727 5677.67,496.912 5686.84,505.077 5696,513.216 5705.17,521.328 5714.34,529.408 5723.51,537.456 5732.68,545.467 5741.85,553.439 5751.02,561.368 5760.19,569.254 5769.36,577.093 5778.53,584.882 5787.7,592.62 5796.87,600.304 5806.04,607.931 5815.21,615.501 "/>
<polyline clip-path="url(#clip502)" style="stroke:#0000ff; stroke-linecap:round; stroke-linejoin:round; stroke-width:12; stroke-opacity:1; fill:none" points="1230.37,80.6537 1239.54,82.2108 1248.71,83.9395 1257.88,85.8397 1267.05,87.9112 1276.22,90.154 1285.39,92.5674 1294.56,95.1511 1303.73,97.9045 1312.9,100.827 1322.07,103.917 1331.24,107.174 1340.41,110.597 1349.58,114.185 1358.74,117.936 1367.91,121.848 1377.08,125.921 1386.25,130.152 1395.42,134.54 1404.59,139.082 1413.76,143.776 1422.93,148.621 1432.1,153.614 1441.27,158.752 1450.44,164.034 1459.61,169.455 1468.78,175.014 1477.95,180.708 1487.12,186.534 1496.29,192.489 1505.46,198.569 1514.63,204.772 1523.8,211.094 1532.97,217.533 1542.14,224.083 1551.31,230.743 1560.48,237.508 1569.65,244.375 1578.82,251.341 1587.99,258.401 1597.16,265.552 1606.33,272.79 1615.5,280.111 1624.67,287.512 1633.84,294.988 1643.01,302.536 1652.17,310.152 1661.34,317.832 1670.51,325.572 1679.68,333.368 1688.85,341.217 1698.02,349.114 1707.19,357.056 1716.36,365.038 1725.53,373.058 1734.7,381.11 1743.87,389.192 1753.04,397.299 1762.21,405.428 1771.38,413.576 1780.55,421.738 1789.72,429.911 1798.89,438.091 1808.06,446.275 1817.23,454.46 1826.4,462.642 1835.57,470.817 1844.74,478.983 1853.91,487.136 1863.08,495.274 1872.25,503.392 1881.42,511.488 1890.59,519.559 1899.76,527.602 1908.93,535.614 1918.1,543.592 1927.27,551.534 1936.43,559.438 1945.6,567.299 1954.77,575.117 1963.94,582.889 1973.11,590.611 1982.28,598.283 1991.45,605.901 2000.62,613.464 2009.79,620.97 2018.96,628.416 2028.13,635.801 2037.3,643.123 2046.47,650.38 2055.64,657.57 2064.81,664.693 2073.98,671.745 2083.15,678.726 2092.32,685.635 2101.49,692.47 2110.66,699.229 2119.83,705.912 2129,712.517 2138.17,719.044 2147.34,725.491 2156.51,731.858 2165.68,738.143 2174.85,744.345 2184.02,750.465 2193.19,756.501 2202.36,762.452 2211.53,768.318 2220.7,774.099 2229.86,779.794 2239.03,785.402 2248.2,790.923 2257.37,796.357 2266.54,801.703 2275.71,806.962 2284.88,812.132 2294.05,817.215 2303.22,822.209 2312.39,827.115 2321.56,831.932 2330.73,836.661 2339.9,841.301 2349.07,845.854 2358.24,850.318 2367.41,854.693 2376.58,858.981 2385.75,863.182 2394.92,867.294 2404.09,871.32 2413.26,875.258 2422.43,879.109 2431.6,882.874 2440.77,886.553 2449.94,890.147 2459.11,893.654 2468.28,897.077 2477.45,900.415 2486.62,903.669 2495.79,906.839 2504.96,909.926 2514.12,912.929 2523.29,915.851 2532.46,918.69 2541.63,921.448 2550.8,924.124 2559.97,926.72 2569.14,929.236 2578.31,931.673 2587.48,934.03 2596.65,936.309 2605.82,938.51 2614.99,940.633 2624.16,942.679 2633.33,944.649 2642.5,946.543 2651.67,948.361 2660.84,950.104 2670.01,951.773 2679.18,953.367 2688.35,954.888 2697.52,956.336 2706.69,957.712 2715.86,959.015 2725.03,960.247 2734.2,961.408 2743.37,962.498 2752.54,963.518 2761.71,964.468 2770.88,965.349 2780.05,966.161 2789.22,966.905 2798.39,967.581 2807.55,968.19 2816.72,968.732 2825.89,969.207 2835.06,969.615 2844.23,969.958 2853.4,970.236 2862.57,970.448 2871.74,970.596 2880.91,970.68 2890.08,970.7 2899.25,970.657 2908.42,970.55 2917.59,970.381 2926.76,970.149 2935.93,969.855 2945.1,969.499 2954.27,969.082 2963.44,968.604 2972.61,968.066 2981.78,967.466 2990.95,966.807 3000.12,966.088 3009.29,965.31 3018.46,964.472 3027.63,963.575 3036.8,962.62 3045.97,961.606 3055.14,960.535 3064.31,959.405 3073.48,958.218 3082.65,956.974 3091.81,955.673 3100.98,954.315 3110.15,952.9 3119.32,951.43 3128.49,949.903 3137.66,948.32 3146.83,946.682 3156,944.989 3165.17,943.24 3174.34,941.437 3183.51,939.579 3192.68,937.666 3201.85,935.7 3211.02,933.679 3220.19,931.604 3229.36,929.476 3238.53,927.295 3247.7,925.06 3256.87,922.773 3266.04,920.432 3275.21,918.039 3284.38,915.594 3293.55,913.096 3302.72,910.547 3311.89,907.945 3321.06,905.292 3330.23,902.588 3339.4,899.832 3348.57,897.025 3357.74,894.167 3366.91,891.258 3376.07,888.299 3385.24,885.29 3394.41,882.23 3403.58,879.12 3412.75,875.96 3421.92,872.751 3431.09,869.492 3440.26,866.184 3449.43,862.827 3458.6,859.42 3467.77,855.965 3476.94,852.461 3486.11,848.909 3495.28,845.308 3504.45,841.66 3513.62,837.963 3522.79,834.219 3531.96,830.427 3541.13,826.588 3550.3,822.702 3559.47,818.768 3568.64,814.788 3577.81,810.761 3586.98,806.688 3596.15,802.569 3605.32,798.404 3614.49,794.192 3623.66,789.936 3632.83,785.634 3642,781.286 3651.17,776.894 3660.34,772.457 3669.5,767.976 3678.67,763.45 3687.84,758.881 3697.01,754.267 3706.18,749.61 3715.35,744.911 3724.52,740.168 3733.69,735.382 3742.86,730.554 3752.03,725.684 3761.2,720.772 3770.37,715.819 3779.54,710.825 3788.71,705.79 3797.88,700.714 3807.05,695.598 3816.22,690.443 3825.39,685.248 3834.56,680.014 3843.73,674.742 3852.9,669.431 3862.07,664.083 3871.24,658.697 3880.41,653.274 3889.58,647.815 3898.75,642.321 3907.92,636.79 3917.09,631.225 3926.26,625.626 3935.43,619.992 3944.6,614.326 3953.77,608.627 3962.93,602.895 3972.1,597.132 3981.27,591.339 3990.44,585.515 3999.61,579.662 4008.78,573.779 4017.95,567.869 4027.12,561.932 4036.29,555.967 4045.46,549.978 4054.63,543.963 4063.8,537.923 4072.97,531.861 4082.14,525.776 4091.31,519.669 4100.48,513.542 4109.65,507.395 4118.82,501.23 4127.99,495.047 4137.16,488.847 4146.33,482.631 4155.5,476.401 4164.67,470.157 4173.84,463.902 4183.01,457.635 4192.18,451.357 4201.35,445.072 4210.52,438.778 4219.69,432.479 4228.86,426.174 4238.03,419.866 4247.19,413.556 4256.36,407.245 4265.53,400.934 4274.7,394.626 4283.87,388.321 4293.04,382.021 4302.21,375.727 4311.38,369.442 4320.55,363.166 4329.72,356.902 4338.89,350.651 4348.06,344.415 4357.23,338.195 4366.4,331.994 4375.57,325.813 4384.74,319.653 4393.91,313.517 4403.08,307.408 4412.25,301.325 4421.42,295.272 4430.59,289.251 4439.76,283.264 4448.93,277.312 4458.1,271.398 4467.27,265.523 4476.44,259.691 4485.61,253.903 4494.78,248.161 4503.95,242.468 4513.12,236.825 4522.29,231.236 4531.45,225.703 4540.62,220.227 4549.79,214.811 4558.96,209.459 4568.13,204.171 4577.3,198.95 4586.47,193.8 4595.64,188.722 4604.81,183.719 4613.98,178.794 4623.15,173.949 4632.32,169.186 4641.49,164.509 4650.66,159.919 4659.83,155.42 4669,151.013 4678.17,146.703 4687.34,142.49 4696.51,138.379 4705.68,134.37 4714.85,130.468 4724.02,126.675 4733.19,122.993 4742.36,119.424 4751.53,115.973 4760.7,112.64 4769.87,109.428 4779.04,106.341 4788.21,103.38 4797.38,100.549 4806.55,97.8485 4815.72,95.2821 4824.89,92.8518 4834.05,90.5601 4843.22,88.4091 4852.39,86.401 4861.56,84.538 4870.73,82.8221 4879.9,81.2555 4889.07,79.8401 4898.24,78.5777 4907.41,77.4702 4916.58,76.5193 4925.75,75.7268 4934.92,75.0941 4944.09,74.6229 4953.26,74.3144 4962.43,74.17 4971.6,74.1909 4980.77,74.3782 4989.94,74.7329 4999.11,75.256 5008.28,75.9481 5017.45,76.8102 5026.62,77.8425 5035.79,79.0458 5044.96,80.4203 5054.13,81.9663 5063.3,83.6837 5072.47,85.5728 5081.64,87.6333 5090.81,89.865 5099.98,92.2675 5109.15,94.8404 5118.31,97.5829 5127.48,100.495 5136.65,103.574 5145.82,106.821 5154.99,110.234 5164.16,113.811 5173.33,117.552 5182.5,121.455 5191.67,125.518 5200.84,129.739 5210.01,134.117 5219.18,138.65 5228.35,143.335 5237.52,148.171 5246.69,153.155 5255.86,158.285 5265.03,163.558 5274.2,168.971 5283.37,174.522 5292.54,180.208 5301.71,186.027 5310.88,191.974 5320.05,198.047 5329.22,204.243 5338.39,210.559 5347.56,216.99 5356.73,223.535 5365.9,230.189 5375.07,236.948 5384.24,243.81 5393.41,250.77 5402.58,257.826 5411.74,264.972 5420.91,272.206 5430.08,279.523 5439.25,286.92 5448.42,294.393 5457.59,301.938 5466.76,309.551 5475.93,317.228 5485.1,324.966 5494.27,332.76 5503.44,340.607 5512.61,348.503 5521.78,356.443 5530.95,364.425 5540.12,372.443 5549.29,380.495 5558.46,388.577 5567.63,396.684 5576.8,404.813 5585.97,412.962 5595.14,421.125 5604.31,429.298 5613.48,437.48 5622.65,445.666 5631.82,453.852 5640.99,462.036 5650.16,470.214 5659.33,478.382 5668.5,486.538 5677.67,494.678 5686.84,502.799 5696,510.898 5705.17,518.973 5714.34,527.019 5723.51,535.035 5732.68,543.017 5741.85,550.964 5751.02,558.871 5760.19,566.738 5769.36,574.56 5778.53,582.337 5787.7,590.064 5796.87,597.741 5806.04,605.364 5815.21,612.933 "/>
<polyline clip-path="url(#clip502)" style="stroke:#ff0000; stroke-linecap:round; stroke-linejoin:round; stroke-width:12; stroke-opacity:1; fill:none" points="1230.37,80.6784 1239.54,80.8078 1248.71,81.1078 1257.88,81.5791 1267.05,82.222 1276.22,83.0372 1285.39,84.0249 1294.56,85.1852 1303.73,86.5183 1312.9,88.024 1322.07,89.7023 1331.24,91.5527 1340.41,93.5748 1349.58,95.7682 1358.74,98.1321 1367.91,100.666 1377.08,103.368 1386.25,106.238 1395.42,109.275 1404.59,112.477 1413.76,115.843 1422.93,119.371 1432.1,123.06 1441.27,126.907 1450.44,130.912 1459.61,135.073 1468.78,139.386 1477.95,143.85 1487.12,148.462 1496.29,153.221 1505.46,158.124 1514.63,163.167 1523.8,168.349 1532.97,173.667 1542.14,179.117 1551.31,184.698 1560.48,190.405 1569.65,196.236 1578.82,202.188 1587.99,208.257 1597.16,214.441 1606.33,220.735 1615.5,227.137 1624.67,233.643 1633.84,240.249 1643.01,246.952 1652.17,253.749 1661.34,260.635 1670.51,267.608 1679.68,274.664 1688.85,281.798 1698.02,289.008 1707.19,296.289 1716.36,303.638 1725.53,311.051 1734.7,318.525 1743.87,326.055 1753.04,333.638 1762.21,341.271 1771.38,348.949 1780.55,356.67 1789.72,364.429 1798.89,372.222 1808.06,380.047 1817.23,387.9 1826.4,395.776 1835.57,403.673 1844.74,411.588 1853.91,419.516 1863.08,427.454 1872.25,435.4 1881.42,443.349 1890.59,451.299 1899.76,459.246 1908.93,467.187 1918.1,475.12 1927.27,483.04 1936.43,490.946 1945.6,498.834 1954.77,506.701 1963.94,514.544 1973.11,522.361 1982.28,530.149 1991.45,537.906 2000.62,545.629 2009.79,553.314 2018.96,560.961 2028.13,568.566 2037.3,576.128 2046.47,583.643 2055.64,591.111 2064.81,598.528 2073.98,605.892 2083.15,613.202 2092.32,620.456 2101.49,627.652 2110.66,634.788 2119.83,641.862 2129,648.873 2138.17,655.82 2147.34,662.699 2156.51,669.511 2165.68,676.254 2174.85,682.926 2184.02,689.526 2193.19,696.053 2202.36,702.505 2211.53,708.883 2220.7,715.183 2229.86,721.407 2239.03,727.552 2248.2,733.618 2257.37,739.604 2266.54,745.509 2275.71,751.333 2284.88,757.074 2294.05,762.733 2303.22,768.309 2312.39,773.8 2321.56,779.208 2330.73,784.531 2339.9,789.769 2349.07,794.921 2358.24,799.988 2367.41,804.969 2376.58,809.864 2385.75,814.672 2394.92,819.394 2404.09,824.03 2413.26,828.58 2422.43,833.042 2431.6,837.419 2440.77,841.709 2449.94,845.912 2459.11,850.029 2468.28,854.061 2477.45,858.006 2486.62,861.865 2495.79,865.639 2504.96,869.328 2514.12,872.931 2523.29,876.45 2532.46,879.884 2541.63,883.234 2550.8,886.5 2559.97,889.683 2569.14,892.782 2578.31,895.799 2587.48,898.733 2596.65,901.585 2605.82,904.356 2614.99,907.046 2624.16,909.654 2633.33,912.183 2642.5,914.632 2651.67,917.001 2660.84,919.292 2670.01,921.504 2679.18,923.638 2688.35,925.694 2697.52,927.673 2706.69,929.576 2715.86,931.403 2725.03,933.154 2734.2,934.83 2743.37,936.431 2752.54,937.958 2761.71,939.412 2770.88,940.792 2780.05,942.099 2789.22,943.334 2798.39,944.497 2807.55,945.589 2816.72,946.609 2825.89,947.56 2835.06,948.44 2844.23,949.251 2853.4,949.992 2862.57,950.665 2871.74,951.27 2880.91,951.807 2890.08,952.276 2899.25,952.678 2908.42,953.014 2917.59,953.284 2926.76,953.488 2935.93,953.626 2945.1,953.699 2954.27,953.708 2963.44,953.653 2972.61,953.534 2981.78,953.351 2990.95,953.105 3000.12,952.797 3009.29,952.426 3018.46,951.993 3027.63,951.498 3036.8,950.942 3045.97,950.325 3055.14,949.647 3064.31,948.909 3073.48,948.11 3082.65,947.252 3091.81,946.335 3100.98,945.358 3110.15,944.322 3119.32,943.228 3128.49,942.076 3137.66,940.866 3146.83,939.598 3156,938.272 3165.17,936.89 3174.34,935.45 3183.51,933.954 3192.68,932.402 3201.85,930.793 3211.02,929.129 3220.19,927.409 3229.36,925.634 3238.53,923.804 3247.7,921.919 3256.87,919.98 3266.04,917.986 3275.21,915.938 3284.38,913.836 3293.55,911.681 3302.72,909.472 3311.89,907.21 3321.06,904.896 3330.23,902.528 3339.4,900.108 3348.57,897.636 3357.74,895.112 3366.91,892.536 3376.07,889.908 3385.24,887.23 3394.41,884.5 3403.58,881.719 3412.75,878.887 3421.92,876.005 3431.09,873.073 3440.26,870.091 3449.43,867.058 3458.6,863.977 3467.77,860.846 3476.94,857.666 3486.11,854.437 3495.28,851.159 3504.45,847.833 3513.62,844.458 3522.79,841.036 3531.96,837.565 3541.13,834.047 3550.3,830.482 3559.47,826.87 3568.64,823.211 3577.81,819.505 3586.98,815.753 3596.15,811.954 3605.32,808.11 3614.49,804.22 3623.66,800.285 3632.83,796.305 3642,792.28 3651.17,788.21 3660.34,784.096 3669.5,779.938 3678.67,775.736 3687.84,771.49 3697.01,767.202 3706.18,762.87 3715.35,758.496 3724.52,754.08 3733.69,749.622 3742.86,745.122 3752.03,740.581 3761.2,735.999 3770.37,731.377 3779.54,726.714 3788.71,722.012 3797.88,717.27 3807.05,712.489 3816.22,707.669 3825.39,702.812 3834.56,697.916 3843.73,692.983 3852.9,688.013 3862.07,683.006 3871.24,677.964 3880.41,672.886 3889.58,667.773 3898.75,662.626 3907.92,657.444 3917.09,652.229 3926.26,646.982 3935.43,641.702 3944.6,636.39 3953.77,631.048 3962.93,625.675 3972.1,620.272 3981.27,614.84 3990.44,609.379 3999.61,603.891 4008.78,598.376 4017.95,592.834 4027.12,587.267 4036.29,581.675 4045.46,576.06 4054.63,570.421 4063.8,564.76 4072.97,559.077 4082.14,553.374 4091.31,547.652 4100.48,541.911 4109.65,536.152 4118.82,530.377 4127.99,524.586 4137.16,518.78 4146.33,512.961 4155.5,507.129 4164.67,501.286 4173.84,495.434 4183.01,489.572 4192.18,483.702 4201.35,477.826 4210.52,471.944 4219.69,466.059 4228.86,460.171 4238.03,454.281 4247.19,448.392 4256.36,442.504 4265.53,436.62 4274.7,430.739 4283.87,424.865 4293.04,418.998 4302.21,413.14 4311.38,407.292 4320.55,401.457 4329.72,395.636 4338.89,389.83 4348.06,384.041 4357.23,378.272 4366.4,372.523 4375.57,366.797 4384.74,361.095 4393.91,355.42 4403.08,349.772 4412.25,344.155 4421.42,338.57 4430.59,333.019 4439.76,327.504 4448.93,322.027 4458.1,316.59 4467.27,311.196 4476.44,305.845 4485.61,300.542 4494.78,295.287 4503.95,290.083 4513.12,284.932 4522.29,279.836 4531.45,274.798 4540.62,269.82 4549.79,264.904 4558.96,260.052 4568.13,255.267 4577.3,250.552 4586.47,245.908 4595.64,241.338 4604.81,236.844 4613.98,232.429 4623.15,228.096 4632.32,223.845 4641.49,219.681 4650.66,215.605 4659.83,211.62 4669,207.728 4678.17,203.932 4687.34,200.234 4696.51,196.636 4705.68,193.141 4714.85,189.752 4724.02,186.47 4733.19,183.297 4742.36,180.237 4751.53,177.292 4760.7,174.463 4769.87,171.753 4779.04,169.164 4788.21,166.698 4797.38,164.358 4806.55,162.145 4815.72,160.061 4824.89,158.109 4834.05,156.291 4843.22,154.607 4852.39,153.06 4861.56,151.652 4870.73,150.385 4879.9,149.259 4889.07,148.276 4898.24,147.439 4907.41,146.747 4916.58,146.203 4925.75,145.808 4934.92,145.562 4944.09,145.467 4953.26,145.524 4962.43,145.733 4971.6,146.095 4980.77,146.611 4989.94,147.281 4999.11,148.105 5008.28,149.085 5017.45,150.219 5026.62,151.509 5035.79,152.954 5044.96,154.554 5054.13,156.308 5063.3,158.217 5072.47,160.28 5081.64,162.496 5090.81,164.864 5099.98,167.384 5109.15,170.055 5118.31,172.876 5127.48,175.845 5136.65,178.961 5145.82,182.223 5154.99,185.63 5164.16,189.179 5173.33,192.869 5182.5,196.698 5191.67,200.664 5200.84,204.766 5210.01,209.001 5219.18,213.366 5228.35,217.86 5237.52,222.481 5246.69,227.225 5255.86,232.09 5265.03,237.073 5274.2,242.173 5283.37,247.385 5292.54,252.707 5301.71,258.137 5310.88,263.671 5320.05,269.306 5329.22,275.039 5338.39,280.868 5347.56,286.787 5356.73,292.796 5365.9,298.89 5375.07,305.066 5384.24,311.321 5393.41,317.651 5402.58,324.053 5411.74,330.524 5420.91,337.061 5430.08,343.659 5439.25,350.316 5448.42,357.027 5457.59,363.791 5466.76,370.603 5475.93,377.461 5485.1,384.36 5494.27,391.297 5503.44,398.269 5512.61,405.274 5521.78,412.306 5530.95,419.364 5540.12,426.444 5549.29,433.543 5558.46,440.658 5567.63,447.785 5576.8,454.922 5585.97,462.065 5595.14,469.212 5604.31,476.36 5613.48,483.505 5622.65,490.645 5631.82,497.778 5640.99,504.899 5650.16,512.007 5659.33,519.099 5668.5,526.173 5677.67,533.226 5686.84,540.255 5696,547.258 5705.17,554.232 5714.34,561.176 5723.51,568.087 5732.68,574.962 5741.85,581.801 5751.02,588.6 5760.19,595.358 5769.36,602.072 5778.53,608.742 5787.7,615.364 5796.87,621.937 5806.04,628.46 5815.21,634.93 "/>
<path clip-path="url(#clip500)" d="M2279.71 1660.49 L4765.87 1660.49 L4765.87 1193.93 L2279.71 1193.93  Z" fill="#ffffff" fill-rule="evenodd" fill-opacity="1"/>
<polyline clip-path="url(#clip500)" style="stroke:#000000; stroke-linecap:round; stroke-linejoin:round; stroke-width:4; stroke-opacity:0; fill:none" points="2279.71,1660.49 4765.87,1660.49 4765.87,1193.93 2279.71,1193.93 2279.71,1660.49 "/>
<polyline clip-path="url(#clip500)" style="stroke:#90ee90; stroke-linecap:round; stroke-linejoin:round; stroke-width:45; stroke-opacity:1; fill:none" points="2333.71,1310.57 2657.7,1310.57 "/>
<path clip-path="url(#clip500)" d="M2711.7 1311.58 Q2711.7 1292.22 2722.1 1281.29 Q2732.49 1270.31 2748.94 1270.31 Q2759.7 1270.31 2768.35 1275.46 Q2777 1280.6 2781.51 1289.83 Q2786.07 1299.01 2786.07 1310.68 Q2786.07 1322.51 2781.29 1331.84 Q2776.52 1341.18 2767.77 1346 Q2759.02 1350.78 2748.88 1350.78 Q2737.9 1350.78 2729.26 1345.47 Q2720.61 1340.17 2716.16 1330.99 Q2711.7 1321.82 2711.7 1311.58 M2722.31 1311.74 Q2722.31 1325.79 2729.84 1333.91 Q2737.43 1341.97 2748.83 1341.97 Q2760.45 1341.97 2767.93 1333.8 Q2775.46 1325.64 2775.46 1310.62 Q2775.46 1301.13 2772.22 1294.08 Q2769.04 1286.97 2762.83 1283.1 Q2756.68 1279.17 2748.99 1279.17 Q2738.06 1279.17 2730.16 1286.7 Q2722.31 1294.18 2722.31 1311.74 Z" fill="#000000" fill-rule="nonzero" fill-opacity="1" /><path clip-path="url(#clip500)" d="M2798 1349.45 L2798 1293.12 L2806.59 1293.12 L2806.59 1301.66 Q2809.88 1295.67 2812.64 1293.76 Q2815.45 1291.85 2818.79 1291.85 Q2823.62 1291.85 2828.61 1294.92 L2825.32 1303.78 Q2821.82 1301.71 2818.32 1301.71 Q2815.19 1301.71 2812.69 1303.62 Q2810.2 1305.48 2809.14 1308.82 Q2807.55 1313.91 2807.55 1319.96 L2807.55 1349.45 L2798 1349.45 Z" fill="#000000" fill-rule="nonzero" fill-opacity="1" /><path clip-path="url(#clip500)" d="M2834.34 1282.67 L2834.34 1271.69 L2843.88 1271.69 L2843.88 1282.67 L2834.34 1282.67 M2834.34 1349.45 L2834.34 1293.12 L2843.88 1293.12 L2843.88 1349.45 L2834.34 1349.45 Z" fill="#000000" fill-rule="nonzero" fill-opacity="1" /><path clip-path="url(#clip500)" d="M2856.67 1354.12 L2865.95 1355.5 Q2866.53 1359.8 2869.18 1361.76 Q2872.74 1364.41 2878.89 1364.41 Q2885.52 1364.41 2889.13 1361.76 Q2892.73 1359.11 2894.01 1354.33 Q2894.75 1351.41 2894.7 1342.08 Q2888.44 1349.45 2879.1 1349.45 Q2867.49 1349.45 2861.12 1341.07 Q2854.76 1332.69 2854.76 1320.97 Q2854.76 1312.91 2857.67 1306.12 Q2860.59 1299.27 2866.11 1295.56 Q2871.68 1291.85 2879.16 1291.85 Q2889.13 1291.85 2895.6 1299.91 L2895.6 1293.12 L2904.4 1293.12 L2904.4 1341.81 Q2904.4 1354.97 2901.7 1360.43 Q2899.05 1365.95 2893.21 1369.13 Q2887.43 1372.31 2878.94 1372.31 Q2868.87 1372.31 2862.66 1367.75 Q2856.45 1363.24 2856.67 1354.12 M2864.57 1320.28 Q2864.57 1331.36 2868.97 1336.46 Q2873.37 1341.55 2880 1341.55 Q2886.58 1341.55 2891.04 1336.51 Q2895.49 1331.42 2895.49 1320.6 Q2895.49 1310.25 2890.88 1305 Q2886.32 1299.75 2879.85 1299.75 Q2873.48 1299.75 2869.02 1304.95 Q2864.57 1310.09 2864.57 1320.28 Z" fill="#000000" fill-rule="nonzero" fill-opacity="1" /><path clip-path="url(#clip500)" d="M2918.88 1282.67 L2918.88 1271.69 L2928.43 1271.69 L2928.43 1282.67 L2918.88 1282.67 M2918.88 1349.45 L2918.88 1293.12 L2928.43 1293.12 L2928.43 1349.45 L2918.88 1349.45 Z" fill="#000000" fill-rule="nonzero" fill-opacity="1" /><path clip-path="url(#clip500)" d="M2942.97 1349.45 L2942.97 1293.12 L2951.56 1293.12 L2951.56 1301.13 Q2957.76 1291.85 2969.49 1291.85 Q2974.58 1291.85 2978.82 1293.7 Q2983.12 1295.51 2985.24 1298.48 Q2987.36 1301.45 2988.21 1305.53 Q2988.74 1308.18 2988.74 1314.82 L2988.74 1349.45 L2979.19 1349.45 L2979.19 1315.19 Q2979.19 1309.35 2978.08 1306.49 Q2976.97 1303.57 2974.1 1301.87 Q2971.29 1300.12 2967.47 1300.12 Q2961.37 1300.12 2956.92 1303.99 Q2952.51 1307.87 2952.51 1318.69 L2952.51 1349.45 L2942.97 1349.45 Z" fill="#000000" fill-rule="nonzero" fill-opacity="1" /><path clip-path="url(#clip500)" d="M3040.14 1342.5 Q3034.84 1347.01 3029.9 1348.87 Q3025.02 1350.72 3019.4 1350.72 Q3010.12 1350.72 3005.13 1346.22 Q3000.15 1341.65 3000.15 1334.6 Q3000.15 1330.46 3002 1327.07 Q3003.91 1323.62 3006.93 1321.55 Q3010.01 1319.48 3013.83 1318.42 Q3016.64 1317.68 3022.32 1316.99 Q3033.88 1315.61 3039.34 1313.7 Q3039.4 1311.74 3039.4 1311.21 Q3039.4 1305.37 3036.69 1302.99 Q3033.03 1299.75 3025.82 1299.75 Q3019.08 1299.75 3015.85 1302.14 Q3012.66 1304.47 3011.13 1310.47 L3001.79 1309.19 Q3003.06 1303.2 3005.98 1299.54 Q3008.9 1295.83 3014.41 1293.86 Q3019.93 1291.85 3027.2 1291.85 Q3034.41 1291.85 3038.92 1293.55 Q3043.43 1295.24 3045.55 1297.84 Q3047.67 1300.39 3048.52 1304.31 Q3049 1306.75 3049 1313.12 L3049 1325.85 Q3049 1339.16 3049.58 1342.72 Q3050.22 1346.22 3052.02 1349.45 L3042.05 1349.45 Q3040.56 1346.48 3040.14 1342.5 M3039.34 1321.18 Q3034.15 1323.3 3023.75 1324.79 Q3017.86 1325.64 3015.42 1326.7 Q3012.98 1327.76 3011.66 1329.83 Q3010.33 1331.84 3010.33 1334.33 Q3010.33 1338.15 3013.19 1340.7 Q3016.11 1343.25 3021.68 1343.25 Q3027.2 1343.25 3031.49 1340.86 Q3035.79 1338.42 3037.81 1334.23 Q3039.34 1330.99 3039.34 1324.68 L3039.34 1321.18 Z" fill="#000000" fill-rule="nonzero" fill-opacity="1" /><path clip-path="url(#clip500)" d="M3063.58 1349.45 L3063.58 1271.69 L3073.13 1271.69 L3073.13 1349.45 L3063.58 1349.45 Z" fill="#000000" fill-rule="nonzero" fill-opacity="1" /><polyline clip-path="url(#clip500)" style="stroke:#0000ff; stroke-linecap:round; stroke-linejoin:round; stroke-width:27; stroke-opacity:1; fill:none" points="2333.71,1427.21 2657.7,1427.21 "/>
<path clip-path="url(#clip500)" d="M2740.34 1466.09 L2730.8 1466.09 L2730.8 1405.25 Q2727.35 1408.54 2721.73 1411.83 Q2716.16 1415.12 2711.7 1416.76 L2711.7 1407.53 Q2719.71 1403.77 2725.7 1398.41 Q2731.7 1393.05 2734.19 1388.01 L2740.34 1388.01 L2740.34 1466.09 Z" fill="#000000" fill-rule="nonzero" fill-opacity="1" /><path clip-path="url(#clip500)" d="M2764.8 1427.74 Q2764.8 1413.95 2767.61 1405.57 Q2770.47 1397.14 2776.04 1392.58 Q2781.66 1388.01 2790.15 1388.01 Q2796.41 1388.01 2801.13 1390.56 Q2805.85 1393.05 2808.93 1397.83 Q2812 1402.55 2813.75 1409.39 Q2815.51 1416.18 2815.51 1427.74 Q2815.51 1441.43 2812.69 1449.86 Q2809.88 1458.24 2804.26 1462.86 Q2798.69 1467.42 2790.15 1467.42 Q2778.91 1467.42 2772.49 1459.36 Q2764.8 1449.65 2764.8 1427.74 M2774.61 1427.74 Q2774.61 1446.89 2779.07 1453.26 Q2783.57 1459.57 2790.15 1459.57 Q2796.73 1459.57 2801.18 1453.2 Q2805.69 1446.84 2805.69 1427.74 Q2805.69 1408.54 2801.18 1402.23 Q2796.73 1395.92 2790.04 1395.92 Q2783.47 1395.92 2779.54 1401.49 Q2774.61 1408.59 2774.61 1427.74 Z" fill="#000000" fill-rule="nonzero" fill-opacity="1" /><path clip-path="url(#clip500)" d="M2827.02 1407 Q2827.02 1398.68 2831.21 1392.84 Q2835.4 1387.01 2843.35 1387.01 Q2850.67 1387.01 2855.45 1392.26 Q2860.27 1397.46 2860.27 1407.59 Q2860.27 1417.45 2855.39 1422.81 Q2850.57 1428.11 2843.46 1428.11 Q2836.4 1428.11 2831.68 1422.86 Q2827.02 1417.61 2827.02 1407 M2843.62 1393.58 Q2840.06 1393.58 2837.68 1396.66 Q2835.34 1399.74 2835.34 1407.96 Q2835.34 1415.44 2837.73 1418.51 Q2840.12 1421.54 2843.62 1421.54 Q2847.22 1421.54 2849.56 1418.46 Q2851.95 1415.38 2851.95 1407.21 Q2851.95 1399.68 2849.56 1396.66 Q2847.17 1393.58 2843.62 1393.58 M2843.67 1468.96 L2886.21 1387.01 L2893.95 1387.01 L2851.57 1468.96 L2843.67 1468.96 M2877.3 1447.85 Q2877.3 1439.46 2881.49 1433.68 Q2885.68 1427.85 2893.69 1427.85 Q2901.01 1427.85 2905.78 1433.1 Q2910.61 1438.3 2910.61 1448.43 Q2910.61 1458.29 2905.73 1463.65 Q2900.9 1468.96 2893.74 1468.96 Q2886.69 1468.96 2881.97 1463.7 Q2877.3 1458.4 2877.3 1447.85 M2893.95 1434.43 Q2890.35 1434.43 2887.96 1437.5 Q2885.63 1440.58 2885.63 1448.8 Q2885.63 1456.23 2888.01 1459.3 Q2890.4 1462.38 2893.9 1462.38 Q2897.56 1462.38 2899.9 1459.3 Q2902.28 1456.23 2902.28 1448.06 Q2902.28 1440.53 2899.9 1437.5 Q2897.51 1434.43 2893.95 1434.43 Z" fill="#000000" fill-rule="nonzero" fill-opacity="1" /><path clip-path="url(#clip500)" d="M2954.64 1487.68 L2954.64 1409.76 L2963.33 1409.76 L2963.33 1417.08 Q2966.41 1412.78 2970.28 1410.66 Q2974.15 1408.49 2979.67 1408.49 Q2986.88 1408.49 2992.4 1412.2 Q2997.92 1415.91 3000.73 1422.7 Q3003.54 1429.44 3003.54 1437.5 Q3003.54 1446.15 3000.41 1453.1 Q2997.33 1459.99 2991.39 1463.7 Q2985.51 1467.36 2978.98 1467.36 Q2974.21 1467.36 2970.39 1465.35 Q2966.62 1463.33 2964.18 1460.26 L2964.18 1487.68 L2954.64 1487.68 M2963.28 1438.24 Q2963.28 1449.12 2967.68 1454.32 Q2972.09 1459.51 2978.35 1459.51 Q2984.71 1459.51 2989.22 1454.16 Q2993.78 1448.75 2993.78 1437.45 Q2993.78 1426.68 2989.32 1421.32 Q2984.92 1415.97 2978.77 1415.97 Q2972.67 1415.97 2967.95 1421.7 Q2963.28 1427.37 2963.28 1438.24 Z" fill="#000000" fill-rule="nonzero" fill-opacity="1" /><path clip-path="url(#clip500)" d="M3053.61 1447.95 L3063.48 1449.17 Q3061.14 1457.82 3054.83 1462.59 Q3048.52 1467.36 3038.71 1467.36 Q3026.35 1467.36 3019.08 1459.78 Q3011.87 1452.14 3011.87 1438.4 Q3011.87 1424.19 3019.19 1416.34 Q3026.51 1408.49 3038.18 1408.49 Q3049.47 1408.49 3056.64 1416.18 Q3063.8 1423.87 3063.8 1437.82 Q3063.8 1438.67 3063.74 1440.37 L3021.73 1440.37 Q3022.26 1449.65 3026.98 1454.58 Q3031.71 1459.51 3038.76 1459.51 Q3044.01 1459.51 3047.72 1456.76 Q3051.44 1454 3053.61 1447.95 M3022.26 1432.52 L3053.72 1432.52 Q3053.08 1425.41 3050.11 1421.85 Q3045.55 1416.34 3038.28 1416.34 Q3031.71 1416.34 3027.2 1420.74 Q3022.74 1425.14 3022.26 1432.52 Z" fill="#000000" fill-rule="nonzero" fill-opacity="1" /><path clip-path="url(#clip500)" d="M3075.36 1466.09 L3075.36 1409.76 L3083.95 1409.76 L3083.95 1418.3 Q3087.24 1412.31 3090 1410.4 Q3092.81 1408.49 3096.15 1408.49 Q3100.98 1408.49 3105.96 1411.56 L3102.68 1420.42 Q3099.18 1418.35 3095.67 1418.35 Q3092.55 1418.35 3090.05 1420.26 Q3087.56 1422.12 3086.5 1425.46 Q3084.91 1430.55 3084.91 1436.6 L3084.91 1466.09 L3075.36 1466.09 Z" fill="#000000" fill-rule="nonzero" fill-opacity="1" /><path clip-path="url(#clip500)" d="M3132.49 1457.55 L3133.87 1465.99 Q3129.83 1466.83 3126.65 1466.83 Q3121.45 1466.83 3118.59 1465.19 Q3115.72 1463.55 3114.56 1460.89 Q3113.39 1458.19 3113.39 1449.6 L3113.39 1417.19 L3106.39 1417.19 L3106.39 1409.76 L3113.39 1409.76 L3113.39 1395.81 L3122.89 1390.08 L3122.89 1409.76 L3132.49 1409.76 L3132.49 1417.19 L3122.89 1417.19 L3122.89 1450.13 Q3122.89 1454.21 3123.36 1455.38 Q3123.89 1456.54 3125.01 1457.23 Q3126.17 1457.92 3128.3 1457.92 Q3129.89 1457.92 3132.49 1457.55 Z" fill="#000000" fill-rule="nonzero" fill-opacity="1" /><path clip-path="url(#clip500)" d="M3178.74 1466.09 L3178.74 1457.82 Q3172.16 1467.36 3160.86 1467.36 Q3155.88 1467.36 3151.53 1465.46 Q3147.23 1463.55 3145.11 1460.68 Q3143.04 1457.76 3142.19 1453.57 Q3141.61 1450.76 3141.61 1444.66 L3141.61 1409.76 L3151.16 1409.76 L3151.16 1441 Q3151.16 1448.48 3151.74 1451.08 Q3152.64 1454.85 3155.56 1457.02 Q3158.48 1459.14 3162.77 1459.14 Q3167.07 1459.14 3170.84 1456.97 Q3174.6 1454.74 3176.14 1450.97 Q3177.73 1447.16 3177.73 1439.94 L3177.73 1409.76 L3187.28 1409.76 L3187.28 1466.09 L3178.74 1466.09 Z" fill="#000000" fill-rule="nonzero" fill-opacity="1" /><path clip-path="url(#clip500)" d="M3202.13 1466.09 L3202.13 1409.76 L3210.72 1409.76 L3210.72 1418.3 Q3214.01 1412.31 3216.77 1410.4 Q3219.58 1408.49 3222.92 1408.49 Q3227.75 1408.49 3232.74 1411.56 L3229.45 1420.42 Q3225.95 1418.35 3222.45 1418.35 Q3219.32 1418.35 3216.82 1420.26 Q3214.33 1422.12 3213.27 1425.46 Q3211.68 1430.55 3211.68 1436.6 L3211.68 1466.09 L3202.13 1466.09 Z" fill="#000000" fill-rule="nonzero" fill-opacity="1" /><path clip-path="url(#clip500)" d="M3247.22 1466.09 L3238.36 1466.09 L3238.36 1388.33 L3247.91 1388.33 L3247.91 1416.07 Q3253.95 1408.49 3263.34 1408.49 Q3268.54 1408.49 3273.15 1410.61 Q3277.82 1412.68 3280.79 1416.5 Q3283.82 1420.26 3285.51 1425.62 Q3287.21 1430.98 3287.21 1437.08 Q3287.21 1451.56 3280.05 1459.46 Q3272.89 1467.36 3262.86 1467.36 Q3252.89 1467.36 3247.22 1459.04 L3247.22 1466.09 M3247.11 1437.5 Q3247.11 1447.63 3249.87 1452.14 Q3254.38 1459.51 3262.07 1459.51 Q3268.33 1459.51 3272.89 1454.1 Q3277.45 1448.64 3277.45 1437.87 Q3277.45 1426.84 3273.05 1421.59 Q3268.7 1416.34 3262.49 1416.34 Q3256.23 1416.34 3251.67 1421.8 Q3247.11 1427.21 3247.11 1437.5 Z" fill="#000000" fill-rule="nonzero" fill-opacity="1" /><path clip-path="url(#clip500)" d="M3335.58 1459.14 Q3330.28 1463.65 3325.35 1465.51 Q3320.47 1467.36 3314.85 1467.36 Q3305.56 1467.36 3300.58 1462.86 Q3295.59 1458.29 3295.59 1451.24 Q3295.59 1447.1 3297.45 1443.71 Q3299.36 1440.26 3302.38 1438.19 Q3305.46 1436.12 3309.28 1435.06 Q3312.09 1434.32 3317.76 1433.63 Q3329.33 1432.25 3334.79 1430.34 Q3334.84 1428.38 3334.84 1427.85 Q3334.84 1422.01 3332.14 1419.63 Q3328.48 1416.39 3321.26 1416.39 Q3314.53 1416.39 3311.29 1418.78 Q3308.11 1421.11 3306.57 1427.11 L3297.24 1425.83 Q3298.51 1419.84 3301.43 1416.18 Q3304.34 1412.47 3309.86 1410.5 Q3315.38 1408.49 3322.64 1408.49 Q3329.86 1408.49 3334.36 1410.19 Q3338.87 1411.88 3341 1414.48 Q3343.12 1417.03 3343.97 1420.95 Q3344.44 1423.39 3344.44 1429.76 L3344.44 1442.49 Q3344.44 1455.8 3345.03 1459.36 Q3345.66 1462.86 3347.47 1466.09 L3337.49 1466.09 Q3336.01 1463.12 3335.58 1459.14 M3334.79 1437.82 Q3329.59 1439.94 3319.19 1441.43 Q3313.31 1442.28 3310.87 1443.34 Q3308.43 1444.4 3307.1 1446.47 Q3305.78 1448.48 3305.78 1450.97 Q3305.78 1454.79 3308.64 1457.34 Q3311.56 1459.89 3317.13 1459.89 Q3322.64 1459.89 3326.94 1457.5 Q3331.24 1455.06 3333.25 1450.87 Q3334.79 1447.63 3334.79 1441.32 L3334.79 1437.82 Z" fill="#000000" fill-rule="nonzero" fill-opacity="1" /><path clip-path="url(#clip500)" d="M3380.09 1457.55 L3381.47 1465.99 Q3377.44 1466.83 3374.25 1466.83 Q3369.05 1466.83 3366.19 1465.19 Q3363.33 1463.55 3362.16 1460.89 Q3360.99 1458.19 3360.99 1449.6 L3360.99 1417.19 L3353.99 1417.19 L3353.99 1409.76 L3360.99 1409.76 L3360.99 1395.81 L3370.49 1390.08 L3370.49 1409.76 L3380.09 1409.76 L3380.09 1417.19 L3370.49 1417.19 L3370.49 1450.13 Q3370.49 1454.21 3370.96 1455.38 Q3371.49 1456.54 3372.61 1457.23 Q3373.78 1457.92 3375.9 1457.92 Q3377.49 1457.92 3380.09 1457.55 Z" fill="#000000" fill-rule="nonzero" fill-opacity="1" /><path clip-path="url(#clip500)" d="M3389.48 1399.31 L3389.48 1388.33 L3399.02 1388.33 L3399.02 1399.31 L3389.48 1399.31 M3389.48 1466.09 L3389.48 1409.76 L3399.02 1409.76 L3399.02 1466.09 L3389.48 1466.09 Z" fill="#000000" fill-rule="nonzero" fill-opacity="1" /><path clip-path="url(#clip500)" d="M3410 1437.93 Q3410 1422.28 3418.7 1414.75 Q3425.97 1408.49 3436.42 1408.49 Q3448.03 1408.49 3455.41 1416.13 Q3462.78 1423.71 3462.78 1437.13 Q3462.78 1448 3459.49 1454.26 Q3456.26 1460.47 3450 1463.92 Q3443.79 1467.36 3436.42 1467.36 Q3424.59 1467.36 3417.27 1459.78 Q3410 1452.19 3410 1437.93 M3419.82 1437.93 Q3419.82 1448.75 3424.54 1454.16 Q3429.26 1459.51 3436.42 1459.51 Q3443.53 1459.51 3448.25 1454.1 Q3452.97 1448.69 3452.97 1437.61 Q3452.97 1427.16 3448.19 1421.8 Q3443.47 1416.39 3436.42 1416.39 Q3429.26 1416.39 3424.54 1421.75 Q3419.82 1427.11 3419.82 1437.93 Z" fill="#000000" fill-rule="nonzero" fill-opacity="1" /><path clip-path="url(#clip500)" d="M3473.97 1466.09 L3473.97 1409.76 L3482.57 1409.76 L3482.57 1417.77 Q3488.77 1408.49 3500.49 1408.49 Q3505.59 1408.49 3509.83 1410.34 Q3514.13 1412.15 3516.25 1415.12 Q3518.37 1418.09 3519.22 1422.17 Q3519.75 1424.82 3519.75 1431.46 L3519.75 1466.09 L3510.2 1466.09 L3510.2 1431.83 Q3510.2 1425.99 3509.09 1423.13 Q3507.97 1420.21 3505.11 1418.51 Q3502.3 1416.76 3498.48 1416.76 Q3492.38 1416.76 3487.92 1420.63 Q3483.52 1424.51 3483.52 1435.33 L3483.52 1466.09 L3473.97 1466.09 Z" fill="#000000" fill-rule="nonzero" fill-opacity="1" /><path clip-path="url(#clip500)" d="M3561.01 1437.93 Q3561.01 1422.28 3569.71 1414.75 Q3576.98 1408.49 3587.43 1408.49 Q3599.05 1408.49 3606.42 1416.13 Q3613.79 1423.71 3613.79 1437.13 Q3613.79 1448 3610.5 1454.26 Q3607.27 1460.47 3601.01 1463.92 Q3594.8 1467.36 3587.43 1467.36 Q3575.6 1467.36 3568.28 1459.78 Q3561.01 1452.19 3561.01 1437.93 M3570.83 1437.93 Q3570.83 1448.75 3575.55 1454.16 Q3580.27 1459.51 3587.43 1459.51 Q3594.54 1459.51 3599.26 1454.1 Q3603.98 1448.69 3603.98 1437.61 Q3603.98 1427.16 3599.21 1421.8 Q3594.48 1416.39 3587.43 1416.39 Q3580.27 1416.39 3575.55 1421.75 Q3570.83 1427.11 3570.83 1437.93 Z" fill="#000000" fill-rule="nonzero" fill-opacity="1" /><path clip-path="url(#clip500)" d="M3627.26 1466.09 L3627.26 1417.19 L3618.83 1417.19 L3618.83 1409.76 L3627.26 1409.76 L3627.26 1403.77 Q3627.26 1398.09 3628.27 1395.33 Q3629.65 1391.62 3633.1 1389.34 Q3636.6 1387.01 3642.86 1387.01 Q3646.89 1387.01 3651.77 1387.96 L3650.34 1396.29 Q3647.37 1395.76 3644.72 1395.76 Q3640.37 1395.76 3638.56 1397.61 Q3636.76 1399.47 3636.76 1404.56 L3636.76 1409.76 L3647.74 1409.76 L3647.74 1417.19 L3636.76 1417.19 L3636.76 1466.09 L3627.26 1466.09 Z" fill="#000000" fill-rule="nonzero" fill-opacity="1" /><path clip-path="url(#clip500)" d="M3727.14 1409.76 L3736.9 1409.76 Q3733.19 1421.43 3730.06 1437.93 Q3733.77 1458.4 3736.9 1466.09 L3727.41 1466.09 Q3725.13 1460.79 3723.96 1455.8 Q3719.56 1467.36 3705.55 1467.36 Q3694.95 1467.36 3688.48 1459.41 Q3682 1451.45 3682 1437.82 Q3682 1423.82 3688.48 1416.18 Q3695 1408.49 3705.71 1408.49 Q3712.34 1408.49 3716.53 1411.19 Q3720.72 1413.85 3724.33 1419.31 Q3724.7 1417.45 3727.14 1409.76 M3707.31 1416.39 Q3700.46 1416.39 3696.48 1421.91 Q3692.51 1427.42 3692.51 1437.82 Q3692.51 1447.95 3696.27 1453.73 Q3700.04 1459.51 3706.77 1459.51 Q3713.35 1459.51 3717.75 1453.84 Q3722.16 1448.11 3722.16 1437.4 Q3722.16 1427 3718.02 1421.7 Q3713.94 1416.39 3707.31 1416.39 Z" fill="#000000" fill-rule="nonzero" fill-opacity="1" /><path clip-path="url(#clip500)" d="M3815.09 1459.14 Q3809.78 1463.65 3804.85 1465.51 Q3799.97 1467.36 3794.35 1467.36 Q3785.07 1467.36 3780.08 1462.86 Q3775.09 1458.29 3775.09 1451.24 Q3775.09 1447.1 3776.95 1443.71 Q3778.86 1440.26 3781.88 1438.19 Q3784.96 1436.12 3788.78 1435.06 Q3791.59 1434.32 3797.26 1433.63 Q3808.83 1432.25 3814.29 1430.34 Q3814.34 1428.38 3814.34 1427.85 Q3814.34 1422.01 3811.64 1419.63 Q3807.98 1416.39 3800.77 1416.39 Q3794.03 1416.39 3790.79 1418.78 Q3787.61 1421.11 3786.07 1427.11 L3776.74 1425.83 Q3778.01 1419.84 3780.93 1416.18 Q3783.85 1412.47 3789.36 1410.5 Q3794.88 1408.49 3802.14 1408.49 Q3809.36 1408.49 3813.87 1410.19 Q3818.38 1411.88 3820.5 1414.48 Q3822.62 1417.03 3823.47 1420.95 Q3823.95 1423.39 3823.95 1429.76 L3823.95 1442.49 Q3823.95 1455.8 3824.53 1459.36 Q3825.17 1462.86 3826.97 1466.09 L3817 1466.09 Q3815.51 1463.12 3815.09 1459.14 M3814.29 1437.82 Q3809.09 1439.94 3798.7 1441.43 Q3792.81 1442.28 3790.37 1443.34 Q3787.93 1444.4 3786.6 1446.47 Q3785.28 1448.48 3785.28 1450.97 Q3785.28 1454.79 3788.14 1457.34 Q3791.06 1459.89 3796.63 1459.89 Q3802.14 1459.89 3806.44 1457.5 Q3810.74 1455.06 3812.75 1450.87 Q3814.29 1447.63 3814.29 1441.32 L3814.29 1437.82 Z" fill="#000000" fill-rule="nonzero" fill-opacity="1" /><path clip-path="url(#clip500)" d="M3838.53 1466.09 L3838.53 1388.33 L3848.08 1388.33 L3848.08 1466.09 L3838.53 1466.09 Z" fill="#000000" fill-rule="nonzero" fill-opacity="1" /><path clip-path="url(#clip500)" d="M3859.32 1437.93 Q3859.32 1422.28 3868.02 1414.75 Q3875.29 1408.49 3885.74 1408.49 Q3897.36 1408.49 3904.73 1416.13 Q3912.1 1423.71 3912.1 1437.13 Q3912.1 1448 3908.81 1454.26 Q3905.58 1460.47 3899.32 1463.92 Q3893.11 1467.36 3885.74 1467.36 Q3873.91 1467.36 3866.59 1459.78 Q3859.32 1452.19 3859.32 1437.93 M3869.14 1437.93 Q3869.14 1448.75 3873.86 1454.16 Q3878.58 1459.51 3885.74 1459.51 Q3892.85 1459.51 3897.57 1454.1 Q3902.29 1448.69 3902.29 1437.61 Q3902.29 1427.16 3897.51 1421.8 Q3892.79 1416.39 3885.74 1416.39 Q3878.58 1416.39 3873.86 1421.75 Q3869.14 1427.11 3869.14 1437.93 Z" fill="#000000" fill-rule="nonzero" fill-opacity="1" /><path clip-path="url(#clip500)" d="M3923.29 1466.09 L3923.29 1409.76 L3931.89 1409.76 L3931.89 1417.77 Q3938.09 1408.49 3949.81 1408.49 Q3954.91 1408.49 3959.15 1410.34 Q3963.45 1412.15 3965.57 1415.12 Q3967.69 1418.09 3968.54 1422.17 Q3969.07 1424.82 3969.07 1431.46 L3969.07 1466.09 L3959.52 1466.09 L3959.52 1431.83 Q3959.52 1425.99 3958.41 1423.13 Q3957.29 1420.21 3954.43 1418.51 Q3951.62 1416.76 3947.8 1416.76 Q3941.7 1416.76 3937.24 1420.63 Q3932.84 1424.51 3932.84 1435.33 L3932.84 1466.09 L3923.29 1466.09 Z" fill="#000000" fill-rule="nonzero" fill-opacity="1" /><path clip-path="url(#clip500)" d="M3981.96 1470.76 L3991.24 1472.14 Q3991.82 1476.44 3994.48 1478.4 Q3998.03 1481.05 4004.18 1481.05 Q4010.81 1481.05 4014.42 1478.4 Q4018.03 1475.75 4019.3 1470.97 Q4020.04 1468.05 4019.99 1458.72 Q4013.73 1466.09 4004.4 1466.09 Q3992.78 1466.09 3986.41 1457.71 Q3980.05 1449.33 3980.05 1437.61 Q3980.05 1429.55 3982.97 1422.76 Q3985.88 1415.91 3991.4 1412.2 Q3996.97 1408.49 4004.45 1408.49 Q4014.42 1408.49 4020.89 1416.55 L4020.89 1409.76 L4029.7 1409.76 L4029.7 1458.45 Q4029.7 1471.61 4026.99 1477.07 Q4024.34 1482.59 4018.5 1485.77 Q4012.72 1488.95 4004.24 1488.95 Q3994.16 1488.95 3987.95 1484.39 Q3981.75 1479.88 3981.96 1470.76 M3989.86 1436.92 Q3989.86 1448 3994.26 1453.1 Q3998.67 1458.19 4005.3 1458.19 Q4011.87 1458.19 4016.33 1453.15 Q4020.79 1448.06 4020.79 1437.24 Q4020.79 1426.89 4016.17 1421.64 Q4011.61 1416.39 4005.14 1416.39 Q3998.77 1416.39 3994.32 1421.59 Q3989.86 1426.73 3989.86 1436.92 Z" fill="#000000" fill-rule="nonzero" fill-opacity="1" /><path clip-path="url(#clip500)" d="M4095.15 1457.55 L4096.53 1465.99 Q4092.5 1466.83 4089.32 1466.83 Q4084.12 1466.83 4081.25 1465.19 Q4078.39 1463.55 4077.22 1460.89 Q4076.06 1458.19 4076.06 1449.6 L4076.06 1417.19 L4069.05 1417.19 L4069.05 1409.76 L4076.06 1409.76 L4076.06 1395.81 L4085.55 1390.08 L4085.55 1409.76 L4095.15 1409.76 L4095.15 1417.19 L4085.55 1417.19 L4085.55 1450.13 Q4085.55 1454.21 4086.03 1455.38 Q4086.56 1456.54 4087.67 1457.23 Q4088.84 1457.92 4090.96 1457.92 Q4092.55 1457.92 4095.15 1457.55 Z" fill="#000000" fill-rule="nonzero" fill-opacity="1" /><path clip-path="url(#clip500)" d="M4104.49 1466.09 L4104.49 1388.33 L4114.03 1388.33 L4114.03 1416.23 Q4120.72 1408.49 4130.9 1408.49 Q4137.16 1408.49 4141.77 1410.98 Q4146.39 1413.42 4148.35 1417.77 Q4150.37 1422.12 4150.37 1430.39 L4150.37 1466.09 L4140.82 1466.09 L4140.82 1430.39 Q4140.82 1423.23 4137.69 1420 Q4134.61 1416.71 4128.94 1416.71 Q4124.7 1416.71 4120.93 1418.94 Q4117.22 1421.11 4115.62 1424.88 Q4114.03 1428.64 4114.03 1435.27 L4114.03 1466.09 L4104.49 1466.09 Z" fill="#000000" fill-rule="nonzero" fill-opacity="1" /><path clip-path="url(#clip500)" d="M4203.46 1447.95 L4213.33 1449.17 Q4210.99 1457.82 4204.68 1462.59 Q4198.37 1467.36 4188.56 1467.36 Q4176.2 1467.36 4168.93 1459.78 Q4161.72 1452.14 4161.72 1438.4 Q4161.72 1424.19 4169.04 1416.34 Q4176.36 1408.49 4188.03 1408.49 Q4199.33 1408.49 4206.49 1416.18 Q4213.65 1423.87 4213.65 1437.82 Q4213.65 1438.67 4213.59 1440.37 L4171.58 1440.37 Q4172.11 1449.65 4176.84 1454.58 Q4181.56 1459.51 4188.61 1459.51 Q4193.86 1459.51 4197.58 1456.76 Q4201.29 1454 4203.46 1447.95 M4172.11 1432.52 L4203.57 1432.52 Q4202.93 1425.41 4199.96 1421.85 Q4195.4 1416.34 4188.13 1416.34 Q4181.56 1416.34 4177.05 1420.74 Q4172.59 1425.14 4172.11 1432.52 Z" fill="#000000" fill-rule="nonzero" fill-opacity="1" /><path clip-path="url(#clip500)" d="M4255.5 1487.68 L4255.5 1409.76 L4264.2 1409.76 L4264.2 1417.08 Q4267.27 1412.78 4271.14 1410.66 Q4275.02 1408.49 4280.53 1408.49 Q4287.75 1408.49 4293.26 1412.2 Q4298.78 1415.91 4301.59 1422.7 Q4304.4 1429.44 4304.4 1437.5 Q4304.4 1446.15 4301.27 1453.1 Q4298.2 1459.99 4292.26 1463.7 Q4286.37 1467.36 4279.84 1467.36 Q4275.07 1467.36 4271.25 1465.35 Q4267.48 1463.33 4265.04 1460.26 L4265.04 1487.68 L4255.5 1487.68 M4264.14 1438.24 Q4264.14 1449.12 4268.55 1454.32 Q4272.95 1459.51 4279.21 1459.51 Q4285.57 1459.51 4290.08 1454.16 Q4294.64 1448.75 4294.64 1437.45 Q4294.64 1426.68 4290.19 1421.32 Q4285.78 1415.97 4279.63 1415.97 Q4273.53 1415.97 4268.81 1421.7 Q4264.14 1427.37 4264.14 1438.24 Z" fill="#000000" fill-rule="nonzero" fill-opacity="1" /><path clip-path="url(#clip500)" d="M4315.81 1466.09 L4315.81 1409.76 L4324.4 1409.76 L4324.4 1418.3 Q4327.69 1412.31 4330.45 1410.4 Q4333.26 1408.49 4336.6 1408.49 Q4341.43 1408.49 4346.41 1411.56 L4343.12 1420.42 Q4339.62 1418.35 4336.12 1418.35 Q4332.99 1418.35 4330.5 1420.26 Q4328.01 1422.12 4326.95 1425.46 Q4325.35 1430.55 4325.35 1436.6 L4325.35 1466.09 L4315.81 1466.09 Z" fill="#000000" fill-rule="nonzero" fill-opacity="1" /><path clip-path="url(#clip500)" d="M4348.53 1437.93 Q4348.53 1422.28 4357.23 1414.75 Q4364.5 1408.49 4374.95 1408.49 Q4386.56 1408.49 4393.94 1416.13 Q4401.31 1423.71 4401.31 1437.13 Q4401.31 1448 4398.02 1454.26 Q4394.79 1460.47 4388.53 1463.92 Q4382.32 1467.36 4374.95 1467.36 Q4363.12 1467.36 4355.8 1459.78 Q4348.53 1452.19 4348.53 1437.93 M4358.35 1437.93 Q4358.35 1448.75 4363.07 1454.16 Q4367.79 1459.51 4374.95 1459.51 Q4382.06 1459.51 4386.78 1454.1 Q4391.5 1448.69 4391.5 1437.61 Q4391.5 1427.16 4386.72 1421.8 Q4382 1416.39 4374.95 1416.39 Q4367.79 1416.39 4363.07 1421.75 Q4358.35 1427.11 4358.35 1437.93 Z" fill="#000000" fill-rule="nonzero" fill-opacity="1" /><path clip-path="url(#clip500)" d="M4412.45 1399.42 L4412.45 1388.33 L4422 1388.33 L4422 1399.42 L4412.45 1399.42 M4400.36 1487.95 L4402.16 1479.83 Q4405.02 1480.57 4406.67 1480.57 Q4409.59 1480.57 4411.02 1478.61 Q4412.45 1476.7 4412.45 1468.96 L4412.45 1409.76 L4422 1409.76 L4422 1469.17 Q4422 1479.56 4419.29 1483.65 Q4415.84 1488.95 4407.83 1488.95 Q4403.96 1488.95 4400.36 1487.95 Z" fill="#000000" fill-rule="nonzero" fill-opacity="1" /><path clip-path="url(#clip500)" d="M4475.2 1447.95 L4485.06 1449.17 Q4482.73 1457.82 4476.42 1462.59 Q4470.11 1467.36 4460.29 1467.36 Q4447.93 1467.36 4440.67 1459.78 Q4433.45 1452.14 4433.45 1438.4 Q4433.45 1424.19 4440.77 1416.34 Q4448.09 1408.49 4459.76 1408.49 Q4471.06 1408.49 4478.22 1416.18 Q4485.38 1423.87 4485.38 1437.82 Q4485.38 1438.67 4485.33 1440.37 L4443.32 1440.37 Q4443.85 1449.65 4448.57 1454.58 Q4453.29 1459.51 4460.35 1459.51 Q4465.6 1459.51 4469.31 1456.76 Q4473.02 1454 4475.2 1447.95 M4443.85 1432.52 L4475.3 1432.52 Q4474.67 1425.41 4471.7 1421.85 Q4467.14 1416.34 4459.87 1416.34 Q4453.29 1416.34 4448.78 1420.74 Q4444.33 1425.14 4443.85 1432.52 Z" fill="#000000" fill-rule="nonzero" fill-opacity="1" /><path clip-path="url(#clip500)" d="M4533.81 1445.46 L4543.2 1446.68 Q4541.66 1456.39 4535.3 1461.9 Q4528.98 1467.36 4519.75 1467.36 Q4508.19 1467.36 4501.14 1459.83 Q4494.13 1452.25 4494.13 1438.14 Q4494.13 1429.02 4497.16 1422.17 Q4500.18 1415.33 4506.33 1411.94 Q4512.54 1408.49 4519.81 1408.49 Q4528.98 1408.49 4534.82 1413.16 Q4540.65 1417.77 4542.3 1426.31 L4533.01 1427.74 Q4531.69 1422.07 4528.29 1419.2 Q4524.95 1416.34 4520.18 1416.34 Q4512.96 1416.34 4508.46 1421.54 Q4503.95 1426.68 4503.95 1437.87 Q4503.95 1449.22 4508.3 1454.37 Q4512.65 1459.51 4519.65 1459.51 Q4525.27 1459.51 4529.04 1456.07 Q4532.8 1452.62 4533.81 1445.46 Z" fill="#000000" fill-rule="nonzero" fill-opacity="1" /><path clip-path="url(#clip500)" d="M4572.21 1457.55 L4573.59 1465.99 Q4569.56 1466.83 4566.38 1466.83 Q4561.18 1466.83 4558.32 1465.19 Q4555.45 1463.55 4554.28 1460.89 Q4553.12 1458.19 4553.12 1449.6 L4553.12 1417.19 L4546.12 1417.19 L4546.12 1409.76 L4553.12 1409.76 L4553.12 1395.81 L4562.61 1390.08 L4562.61 1409.76 L4572.21 1409.76 L4572.21 1417.19 L4562.61 1417.19 L4562.61 1450.13 Q4562.61 1454.21 4563.09 1455.38 Q4563.62 1456.54 4564.73 1457.23 Q4565.9 1457.92 4568.02 1457.92 Q4569.61 1457.92 4572.21 1457.55 Z" fill="#000000" fill-rule="nonzero" fill-opacity="1" /><path clip-path="url(#clip500)" d="M4581.6 1399.31 L4581.6 1388.33 L4591.15 1388.33 L4591.15 1399.31 L4581.6 1399.31 M4581.6 1466.09 L4581.6 1409.76 L4591.15 1409.76 L4591.15 1466.09 L4581.6 1466.09 Z" fill="#000000" fill-rule="nonzero" fill-opacity="1" /><path clip-path="url(#clip500)" d="M4602.13 1437.93 Q4602.13 1422.28 4610.83 1414.75 Q4618.09 1408.49 4628.54 1408.49 Q4640.16 1408.49 4647.53 1416.13 Q4654.91 1423.71 4654.91 1437.13 Q4654.91 1448 4651.62 1454.26 Q4648.38 1460.47 4642.12 1463.92 Q4635.92 1467.36 4628.54 1467.36 Q4616.72 1467.36 4609.4 1459.78 Q4602.13 1452.19 4602.13 1437.93 M4611.94 1437.93 Q4611.94 1448.75 4616.66 1454.16 Q4621.38 1459.51 4628.54 1459.51 Q4635.65 1459.51 4640.37 1454.1 Q4645.09 1448.69 4645.09 1437.61 Q4645.09 1427.16 4640.32 1421.8 Q4635.6 1416.39 4628.54 1416.39 Q4621.38 1416.39 4616.66 1421.75 Q4611.94 1427.11 4611.94 1437.93 Z" fill="#000000" fill-rule="nonzero" fill-opacity="1" /><path clip-path="url(#clip500)" d="M4666.1 1466.09 L4666.1 1409.76 L4674.69 1409.76 L4674.69 1417.77 Q4680.9 1408.49 4692.62 1408.49 Q4697.71 1408.49 4701.95 1410.34 Q4706.25 1412.15 4708.37 1415.12 Q4710.49 1418.09 4711.34 1422.17 Q4711.87 1424.82 4711.87 1431.46 L4711.87 1466.09 L4702.33 1466.09 L4702.33 1431.83 Q4702.33 1425.99 4701.21 1423.13 Q4700.1 1420.21 4697.23 1418.51 Q4694.42 1416.76 4690.6 1416.76 Q4684.5 1416.76 4680.05 1420.63 Q4675.65 1424.51 4675.65 1435.33 L4675.65 1466.09 L4666.1 1466.09 Z" fill="#000000" fill-rule="nonzero" fill-opacity="1" /><polyline clip-path="url(#clip500)" style="stroke:#ff0000; stroke-linecap:round; stroke-linejoin:round; stroke-width:27; stroke-opacity:1; fill:none" points="2333.71,1543.85 2657.7,1543.85 "/>
<path clip-path="url(#clip500)" d="M2740.34 1582.73 L2730.8 1582.73 L2730.8 1521.89 Q2727.35 1525.18 2721.73 1528.47 Q2716.16 1531.76 2711.7 1533.4 L2711.7 1524.17 Q2719.71 1520.41 2725.7 1515.05 Q2731.7 1509.69 2734.19 1504.65 L2740.34 1504.65 L2740.34 1582.73 Z" fill="#000000" fill-rule="nonzero" fill-opacity="1" /><path clip-path="url(#clip500)" d="M2764.8 1544.38 Q2764.8 1530.59 2767.61 1522.21 Q2770.47 1513.78 2776.04 1509.22 Q2781.66 1504.65 2790.15 1504.65 Q2796.41 1504.65 2801.13 1507.2 Q2805.85 1509.69 2808.93 1514.47 Q2812 1519.19 2813.75 1526.03 Q2815.51 1532.82 2815.51 1544.38 Q2815.51 1558.07 2812.69 1566.5 Q2809.88 1574.88 2804.26 1579.5 Q2798.69 1584.06 2790.15 1584.06 Q2778.91 1584.06 2772.49 1576 Q2764.8 1566.29 2764.8 1544.38 M2774.61 1544.38 Q2774.61 1563.53 2779.07 1569.9 Q2783.57 1576.21 2790.15 1576.21 Q2796.73 1576.21 2801.18 1569.84 Q2805.69 1563.48 2805.69 1544.38 Q2805.69 1525.18 2801.18 1518.87 Q2796.73 1512.56 2790.04 1512.56 Q2783.47 1512.56 2779.54 1518.13 Q2774.61 1525.23 2774.61 1544.38 Z" fill="#000000" fill-rule="nonzero" fill-opacity="1" /><path clip-path="url(#clip500)" d="M2827.02 1523.64 Q2827.02 1515.32 2831.21 1509.48 Q2835.4 1503.65 2843.35 1503.65 Q2850.67 1503.65 2855.45 1508.9 Q2860.27 1514.1 2860.27 1524.23 Q2860.27 1534.09 2855.39 1539.45 Q2850.57 1544.75 2843.46 1544.75 Q2836.4 1544.75 2831.68 1539.5 Q2827.02 1534.25 2827.02 1523.64 M2843.62 1510.22 Q2840.06 1510.22 2837.68 1513.3 Q2835.34 1516.38 2835.34 1524.6 Q2835.34 1532.08 2837.73 1535.15 Q2840.12 1538.18 2843.62 1538.18 Q2847.22 1538.18 2849.56 1535.1 Q2851.95 1532.02 2851.95 1523.85 Q2851.95 1516.32 2849.56 1513.3 Q2847.17 1510.22 2843.62 1510.22 M2843.67 1585.6 L2886.21 1503.65 L2893.95 1503.65 L2851.57 1585.6 L2843.67 1585.6 M2877.3 1564.49 Q2877.3 1556.1 2881.49 1550.32 Q2885.68 1544.49 2893.69 1544.49 Q2901.01 1544.49 2905.78 1549.74 Q2910.61 1554.94 2910.61 1565.07 Q2910.61 1574.93 2905.73 1580.29 Q2900.9 1585.6 2893.74 1585.6 Q2886.69 1585.6 2881.97 1580.34 Q2877.3 1575.04 2877.3 1564.49 M2893.95 1551.07 Q2890.35 1551.07 2887.96 1554.14 Q2885.63 1557.22 2885.63 1565.44 Q2885.63 1572.87 2888.01 1575.94 Q2890.4 1579.02 2893.9 1579.02 Q2897.56 1579.02 2899.9 1575.94 Q2902.28 1572.87 2902.28 1564.7 Q2902.28 1557.17 2899.9 1554.14 Q2897.51 1551.07 2893.95 1551.07 Z" fill="#000000" fill-rule="nonzero" fill-opacity="1" /><path clip-path="url(#clip500)" d="M2954.64 1604.32 L2954.64 1526.4 L2963.33 1526.4 L2963.33 1533.72 Q2966.41 1529.42 2970.28 1527.3 Q2974.15 1525.13 2979.67 1525.13 Q2986.88 1525.13 2992.4 1528.84 Q2997.92 1532.55 3000.73 1539.34 Q3003.54 1546.08 3003.54 1554.14 Q3003.54 1562.79 3000.41 1569.74 Q2997.33 1576.63 2991.39 1580.34 Q2985.51 1584 2978.98 1584 Q2974.21 1584 2970.39 1581.99 Q2966.62 1579.97 2964.18 1576.9 L2964.18 1604.32 L2954.64 1604.32 M2963.28 1554.88 Q2963.28 1565.76 2967.68 1570.96 Q2972.09 1576.15 2978.35 1576.15 Q2984.71 1576.15 2989.22 1570.8 Q2993.78 1565.39 2993.78 1554.09 Q2993.78 1543.32 2989.32 1537.96 Q2984.92 1532.61 2978.77 1532.61 Q2972.67 1532.61 2967.95 1538.34 Q2963.28 1544.01 2963.28 1554.88 Z" fill="#000000" fill-rule="nonzero" fill-opacity="1" /><path clip-path="url(#clip500)" d="M3053.61 1564.59 L3063.48 1565.81 Q3061.14 1574.46 3054.83 1579.23 Q3048.52 1584 3038.71 1584 Q3026.35 1584 3019.08 1576.42 Q3011.87 1568.78 3011.87 1555.04 Q3011.87 1540.83 3019.19 1532.98 Q3026.51 1525.13 3038.18 1525.13 Q3049.47 1525.13 3056.64 1532.82 Q3063.8 1540.51 3063.8 1554.46 Q3063.8 1555.31 3063.74 1557.01 L3021.73 1557.01 Q3022.26 1566.29 3026.98 1571.22 Q3031.71 1576.15 3038.76 1576.15 Q3044.01 1576.15 3047.72 1573.4 Q3051.44 1570.64 3053.61 1564.59 M3022.26 1549.16 L3053.72 1549.16 Q3053.08 1542.05 3050.11 1538.49 Q3045.55 1532.98 3038.28 1532.98 Q3031.71 1532.98 3027.2 1537.38 Q3022.74 1541.78 3022.26 1549.16 Z" fill="#000000" fill-rule="nonzero" fill-opacity="1" /><path clip-path="url(#clip500)" d="M3075.36 1582.73 L3075.36 1526.4 L3083.95 1526.4 L3083.95 1534.94 Q3087.24 1528.95 3090 1527.04 Q3092.81 1525.13 3096.15 1525.13 Q3100.98 1525.13 3105.96 1528.2 L3102.68 1537.06 Q3099.18 1534.99 3095.67 1534.99 Q3092.55 1534.99 3090.05 1536.9 Q3087.56 1538.76 3086.5 1542.1 Q3084.91 1547.19 3084.91 1553.24 L3084.91 1582.73 L3075.36 1582.73 Z" fill="#000000" fill-rule="nonzero" fill-opacity="1" /><path clip-path="url(#clip500)" d="M3132.49 1574.19 L3133.87 1582.63 Q3129.83 1583.47 3126.65 1583.47 Q3121.45 1583.47 3118.59 1581.83 Q3115.72 1580.19 3114.56 1577.53 Q3113.39 1574.83 3113.39 1566.24 L3113.39 1533.83 L3106.39 1533.83 L3106.39 1526.4 L3113.39 1526.4 L3113.39 1512.45 L3122.89 1506.72 L3122.89 1526.4 L3132.49 1526.4 L3132.49 1533.83 L3122.89 1533.83 L3122.89 1566.77 Q3122.89 1570.85 3123.36 1572.02 Q3123.89 1573.18 3125.01 1573.87 Q3126.17 1574.56 3128.3 1574.56 Q3129.89 1574.56 3132.49 1574.19 Z" fill="#000000" fill-rule="nonzero" fill-opacity="1" /><path clip-path="url(#clip500)" d="M3178.74 1582.73 L3178.74 1574.46 Q3172.16 1584 3160.86 1584 Q3155.88 1584 3151.53 1582.1 Q3147.23 1580.19 3145.11 1577.32 Q3143.04 1574.4 3142.19 1570.21 Q3141.61 1567.4 3141.61 1561.3 L3141.61 1526.4 L3151.16 1526.4 L3151.16 1557.64 Q3151.16 1565.12 3151.74 1567.72 Q3152.64 1571.49 3155.56 1573.66 Q3158.48 1575.78 3162.77 1575.78 Q3167.07 1575.78 3170.84 1573.61 Q3174.6 1571.38 3176.14 1567.61 Q3177.73 1563.8 3177.73 1556.58 L3177.73 1526.4 L3187.28 1526.4 L3187.28 1582.73 L3178.74 1582.73 Z" fill="#000000" fill-rule="nonzero" fill-opacity="1" /><path clip-path="url(#clip500)" d="M3202.13 1582.73 L3202.13 1526.4 L3210.72 1526.4 L3210.72 1534.94 Q3214.01 1528.95 3216.77 1527.04 Q3219.58 1525.13 3222.92 1525.13 Q3227.75 1525.13 3232.74 1528.2 L3229.45 1537.06 Q3225.95 1534.99 3222.45 1534.99 Q3219.32 1534.99 3216.82 1536.9 Q3214.33 1538.76 3213.27 1542.1 Q3211.68 1547.19 3211.68 1553.24 L3211.68 1582.73 L3202.13 1582.73 Z" fill="#000000" fill-rule="nonzero" fill-opacity="1" /><path clip-path="url(#clip500)" d="M3247.22 1582.73 L3238.36 1582.73 L3238.36 1504.97 L3247.91 1504.97 L3247.91 1532.71 Q3253.95 1525.13 3263.34 1525.13 Q3268.54 1525.13 3273.15 1527.25 Q3277.82 1529.32 3280.79 1533.14 Q3283.82 1536.9 3285.51 1542.26 Q3287.21 1547.62 3287.21 1553.72 Q3287.21 1568.2 3280.05 1576.1 Q3272.89 1584 3262.86 1584 Q3252.89 1584 3247.22 1575.68 L3247.22 1582.73 M3247.11 1554.14 Q3247.11 1564.27 3249.87 1568.78 Q3254.38 1576.15 3262.07 1576.15 Q3268.33 1576.15 3272.89 1570.74 Q3277.45 1565.28 3277.45 1554.51 Q3277.45 1543.48 3273.05 1538.23 Q3268.7 1532.98 3262.49 1532.98 Q3256.23 1532.98 3251.67 1538.44 Q3247.11 1543.85 3247.11 1554.14 Z" fill="#000000" fill-rule="nonzero" fill-opacity="1" /><path clip-path="url(#clip500)" d="M3335.58 1575.78 Q3330.28 1580.29 3325.35 1582.15 Q3320.47 1584 3314.85 1584 Q3305.56 1584 3300.58 1579.5 Q3295.59 1574.93 3295.59 1567.88 Q3295.59 1563.74 3297.45 1560.35 Q3299.36 1556.9 3302.38 1554.83 Q3305.46 1552.76 3309.28 1551.7 Q3312.09 1550.96 3317.76 1550.27 Q3329.33 1548.89 3334.79 1546.98 Q3334.84 1545.02 3334.84 1544.49 Q3334.84 1538.65 3332.14 1536.27 Q3328.48 1533.03 3321.26 1533.03 Q3314.53 1533.03 3311.29 1535.42 Q3308.11 1537.75 3306.57 1543.75 L3297.24 1542.47 Q3298.51 1536.48 3301.43 1532.82 Q3304.34 1529.11 3309.86 1527.14 Q3315.38 1525.13 3322.64 1525.13 Q3329.86 1525.13 3334.36 1526.83 Q3338.87 1528.52 3341 1531.12 Q3343.12 1533.67 3343.97 1537.59 Q3344.44 1540.03 3344.44 1546.4 L3344.44 1559.13 Q3344.44 1572.44 3345.03 1576 Q3345.66 1579.5 3347.47 1582.73 L3337.49 1582.73 Q3336.01 1579.76 3335.58 1575.78 M3334.79 1554.46 Q3329.59 1556.58 3319.19 1558.07 Q3313.31 1558.92 3310.87 1559.98 Q3308.43 1561.04 3307.1 1563.11 Q3305.78 1565.12 3305.78 1567.61 Q3305.78 1571.43 3308.64 1573.98 Q3311.56 1576.53 3317.13 1576.53 Q3322.64 1576.53 3326.94 1574.14 Q3331.24 1571.7 3333.25 1567.51 Q3334.79 1564.27 3334.79 1557.96 L3334.79 1554.46 Z" fill="#000000" fill-rule="nonzero" fill-opacity="1" /><path clip-path="url(#clip500)" d="M3380.09 1574.19 L3381.47 1582.63 Q3377.44 1583.47 3374.25 1583.47 Q3369.05 1583.47 3366.19 1581.83 Q3363.33 1580.19 3362.16 1577.53 Q3360.99 1574.83 3360.99 1566.24 L3360.99 1533.83 L3353.99 1533.83 L3353.99 1526.4 L3360.99 1526.4 L3360.99 1512.45 L3370.49 1506.72 L3370.49 1526.4 L3380.09 1526.4 L3380.09 1533.83 L3370.49 1533.83 L3370.49 1566.77 Q3370.49 1570.85 3370.96 1572.02 Q3371.49 1573.18 3372.61 1573.87 Q3373.78 1574.56 3375.9 1574.56 Q3377.49 1574.56 3380.09 1574.19 Z" fill="#000000" fill-rule="nonzero" fill-opacity="1" /><path clip-path="url(#clip500)" d="M3389.48 1515.95 L3389.48 1504.97 L3399.02 1504.97 L3399.02 1515.95 L3389.48 1515.95 M3389.48 1582.73 L3389.48 1526.4 L3399.02 1526.4 L3399.02 1582.73 L3389.48 1582.73 Z" fill="#000000" fill-rule="nonzero" fill-opacity="1" /><path clip-path="url(#clip500)" d="M3410 1554.57 Q3410 1538.92 3418.7 1531.39 Q3425.97 1525.13 3436.42 1525.13 Q3448.03 1525.13 3455.41 1532.77 Q3462.78 1540.35 3462.78 1553.77 Q3462.78 1564.64 3459.49 1570.9 Q3456.26 1577.11 3450 1580.56 Q3443.79 1584 3436.42 1584 Q3424.59 1584 3417.27 1576.42 Q3410 1568.83 3410 1554.57 M3419.82 1554.57 Q3419.82 1565.39 3424.54 1570.8 Q3429.26 1576.15 3436.42 1576.15 Q3443.53 1576.15 3448.25 1570.74 Q3452.97 1565.33 3452.97 1554.25 Q3452.97 1543.8 3448.19 1538.44 Q3443.47 1533.03 3436.42 1533.03 Q3429.26 1533.03 3424.54 1538.39 Q3419.82 1543.75 3419.82 1554.57 Z" fill="#000000" fill-rule="nonzero" fill-opacity="1" /><path clip-path="url(#clip500)" d="M3473.97 1582.73 L3473.97 1526.4 L3482.57 1526.4 L3482.57 1534.41 Q3488.77 1525.13 3500.49 1525.13 Q3505.59 1525.13 3509.83 1526.98 Q3514.13 1528.79 3516.25 1531.76 Q3518.37 1534.73 3519.22 1538.81 Q3519.75 1541.46 3519.75 1548.1 L3519.75 1582.73 L3510.2 1582.73 L3510.2 1548.47 Q3510.2 1542.63 3509.09 1539.77 Q3507.97 1536.85 3505.11 1535.15 Q3502.3 1533.4 3498.48 1533.4 Q3492.38 1533.4 3487.92 1537.27 Q3483.52 1541.15 3483.52 1551.97 L3483.52 1582.73 L3473.97 1582.73 Z" fill="#000000" fill-rule="nonzero" fill-opacity="1" /><path clip-path="url(#clip500)" d="M3560.75 1565.92 L3570.19 1564.43 Q3570.99 1570.11 3574.59 1573.13 Q3578.25 1576.15 3584.78 1576.15 Q3591.35 1576.15 3594.54 1573.5 Q3597.72 1570.8 3597.72 1567.19 Q3597.72 1563.95 3594.91 1562.1 Q3592.95 1560.83 3585.15 1558.86 Q3574.65 1556.21 3570.56 1554.3 Q3566.53 1552.34 3564.41 1548.94 Q3562.34 1545.5 3562.34 1541.36 Q3562.34 1537.59 3564.04 1534.41 Q3565.79 1531.17 3568.76 1529.05 Q3570.99 1527.41 3574.81 1526.29 Q3578.68 1525.13 3583.08 1525.13 Q3589.71 1525.13 3594.7 1527.04 Q3599.74 1528.95 3602.12 1532.24 Q3604.51 1535.47 3605.41 1540.93 L3596.08 1542.21 Q3595.44 1537.86 3592.36 1535.42 Q3589.34 1532.98 3583.77 1532.98 Q3577.19 1532.98 3574.38 1535.15 Q3571.57 1537.33 3571.57 1540.24 Q3571.57 1542.1 3572.74 1543.59 Q3573.9 1545.12 3576.4 1546.13 Q3577.83 1546.66 3584.83 1548.57 Q3594.96 1551.28 3598.94 1553.03 Q3602.97 1554.73 3605.25 1558.01 Q3607.53 1561.3 3607.53 1566.18 Q3607.53 1570.96 3604.72 1575.2 Q3601.96 1579.39 3596.71 1581.72 Q3591.46 1584 3584.83 1584 Q3573.85 1584 3568.07 1579.44 Q3562.34 1574.88 3560.75 1565.92 Z" fill="#000000" fill-rule="nonzero" fill-opacity="1" /><path clip-path="url(#clip500)" d="M3615.33 1554.57 Q3615.33 1538.92 3624.03 1531.39 Q3631.3 1525.13 3641.74 1525.13 Q3653.36 1525.13 3660.73 1532.77 Q3668.11 1540.35 3668.11 1553.77 Q3668.11 1564.64 3664.82 1570.9 Q3661.58 1577.11 3655.32 1580.56 Q3649.12 1584 3641.74 1584 Q3629.92 1584 3622.6 1576.42 Q3615.33 1568.83 3615.33 1554.57 M3625.14 1554.57 Q3625.14 1565.39 3629.86 1570.8 Q3634.58 1576.15 3641.74 1576.15 Q3648.85 1576.15 3653.57 1570.74 Q3658.29 1565.33 3658.29 1554.25 Q3658.29 1543.8 3653.52 1538.44 Q3648.8 1533.03 3641.74 1533.03 Q3634.58 1533.03 3629.86 1538.39 Q3625.14 1543.75 3625.14 1554.57 Z" fill="#000000" fill-rule="nonzero" fill-opacity="1" /><path clip-path="url(#clip500)" d="M3679.09 1582.73 L3679.09 1504.97 L3688.63 1504.97 L3688.63 1582.73 L3679.09 1582.73 Z" fill="#000000" fill-rule="nonzero" fill-opacity="1" /><path clip-path="url(#clip500)" d="M3741.99 1564.59 L3751.86 1565.81 Q3749.53 1574.46 3743.21 1579.23 Q3736.9 1584 3727.09 1584 Q3714.73 1584 3707.46 1576.42 Q3700.25 1568.78 3700.25 1555.04 Q3700.25 1540.83 3707.57 1532.98 Q3714.89 1525.13 3726.56 1525.13 Q3737.86 1525.13 3745.02 1532.82 Q3752.18 1540.51 3752.18 1554.46 Q3752.18 1555.31 3752.13 1557.01 L3710.12 1557.01 Q3710.65 1566.29 3715.37 1571.22 Q3720.09 1576.15 3727.14 1576.15 Q3732.39 1576.15 3736.11 1573.4 Q3739.82 1570.64 3741.99 1564.59 M3710.65 1549.16 L3742.1 1549.16 Q3741.46 1542.05 3738.49 1538.49 Q3733.93 1532.98 3726.67 1532.98 Q3720.09 1532.98 3715.58 1537.38 Q3711.12 1541.78 3710.65 1549.16 Z" fill="#000000" fill-rule="nonzero" fill-opacity="1" /><path clip-path="url(#clip500)" d="M3763.64 1582.73 L3763.64 1504.97 L3773.18 1504.97 L3773.18 1582.73 L3763.64 1582.73 Z" fill="#000000" fill-rule="nonzero" fill-opacity="1" /><path clip-path="url(#clip500)" d="M3787.56 1604.43 L3786.5 1595.46 Q3789.63 1596.31 3791.96 1596.31 Q3795.14 1596.31 3797.05 1595.25 Q3798.96 1594.19 3800.18 1592.28 Q3801.08 1590.85 3803.1 1585.17 Q3803.36 1584.38 3803.95 1582.84 L3782.57 1526.4 L3792.86 1526.4 L3804.58 1559.02 Q3806.87 1565.23 3808.67 1572.07 Q3810.31 1565.49 3812.59 1559.23 L3824.63 1526.4 L3834.18 1526.4 L3812.75 1583.69 Q3809.31 1592.97 3807.4 1596.47 Q3804.85 1601.19 3801.56 1603.37 Q3798.27 1605.59 3793.71 1605.59 Q3790.95 1605.59 3787.56 1604.43 Z" fill="#000000" fill-rule="nonzero" fill-opacity="1" /><path clip-path="url(#clip500)" d="M3868.93 1554.57 Q3868.93 1538.92 3877.62 1531.39 Q3884.89 1525.13 3895.34 1525.13 Q3906.96 1525.13 3914.33 1532.77 Q3921.7 1540.35 3921.7 1553.77 Q3921.7 1564.64 3918.41 1570.9 Q3915.18 1577.11 3908.92 1580.56 Q3902.71 1584 3895.34 1584 Q3883.51 1584 3876.19 1576.42 Q3868.93 1568.83 3868.93 1554.57 M3878.74 1554.57 Q3878.74 1565.39 3883.46 1570.8 Q3888.18 1576.15 3895.34 1576.15 Q3902.45 1576.15 3907.17 1570.74 Q3911.89 1565.33 3911.89 1554.25 Q3911.89 1543.8 3907.12 1538.44 Q3902.39 1533.03 3895.34 1533.03 Q3888.18 1533.03 3883.46 1538.39 Q3878.74 1543.75 3878.74 1554.57 Z" fill="#000000" fill-rule="nonzero" fill-opacity="1" /><path clip-path="url(#clip500)" d="M3935.17 1582.73 L3935.17 1533.83 L3926.74 1533.83 L3926.74 1526.4 L3935.17 1526.4 L3935.17 1520.41 Q3935.17 1514.73 3936.18 1511.97 Q3937.56 1508.26 3941.01 1505.98 Q3944.51 1503.65 3950.77 1503.65 Q3954.8 1503.65 3959.68 1504.6 L3958.25 1512.93 Q3955.28 1512.4 3952.63 1512.4 Q3948.28 1512.4 3946.47 1514.25 Q3944.67 1516.11 3944.67 1521.2 L3944.67 1526.4 L3955.65 1526.4 L3955.65 1533.83 L3944.67 1533.83 L3944.67 1582.73 L3935.17 1582.73 Z" fill="#000000" fill-rule="nonzero" fill-opacity="1" /><path clip-path="url(#clip500)" d="M4035.05 1526.4 L4044.81 1526.4 Q4041.1 1538.07 4037.97 1554.57 Q4041.68 1575.04 4044.81 1582.73 L4035.32 1582.73 Q4033.04 1577.43 4031.87 1572.44 Q4027.47 1584 4013.47 1584 Q4002.86 1584 3996.39 1576.05 Q3989.91 1568.09 3989.91 1554.46 Q3989.91 1540.46 3996.39 1532.82 Q4002.91 1525.13 4013.62 1525.13 Q4020.25 1525.13 4024.45 1527.83 Q4028.64 1530.49 4032.24 1535.95 Q4032.61 1534.09 4035.05 1526.4 M4015.22 1533.03 Q4008.37 1533.03 4004.4 1538.55 Q4000.42 1544.06 4000.42 1554.46 Q4000.42 1564.59 4004.18 1570.37 Q4007.95 1576.15 4014.69 1576.15 Q4021.26 1576.15 4025.67 1570.48 Q4030.07 1564.75 4030.07 1554.04 Q4030.07 1543.64 4025.93 1538.34 Q4021.85 1533.03 4015.22 1533.03 Z" fill="#000000" fill-rule="nonzero" fill-opacity="1" /></svg>
