<?xml version="1.0" encoding="utf-8"?>
<svg xmlns="http://www.w3.org/2000/svg" xmlns:xlink="http://www.w3.org/1999/xlink" width="800" height="600" viewBox="0 0 3200 2400">
<defs>
  <clipPath id="clip530">
    <rect x="0" y="0" width="3200" height="2400"/>
  </clipPath>
</defs>
<path clip-path="url(#clip530)" d="M0 2400 L3200 2400 L3200 0 L0 0  Z" fill="#ffffff" fill-rule="evenodd" fill-opacity="1"/>
<defs>
  <clipPath id="clip531">
    <rect x="640" y="0" width="2241" height="2241"/>
  </clipPath>
</defs>
<path clip-path="url(#clip530)" d="M405.88 1642.95 L3152.76 1642.95 L3152.76 47.2441 L405.88 47.2441  Z" fill="#ffffff" fill-rule="evenodd" fill-opacity="1"/>
<defs>
  <clipPath id="clip532">
    <rect x="405" y="47" width="2748" height="1597"/>
  </clipPath>
</defs>
<polyline clip-path="url(#clip532)" style="stroke:#000000; stroke-linecap:round; stroke-linejoin:round; stroke-width:2; stroke-opacity:0.1; fill:none" points="483.621,1642.95 483.621,47.2441 "/>
<polyline clip-path="url(#clip532)" style="stroke:#000000; stroke-linecap:round; stroke-linejoin:round; stroke-width:2; stroke-opacity:0.1; fill:none" points="1001.9,1642.95 1001.9,47.2441 "/>
<polyline clip-path="url(#clip532)" style="stroke:#000000; stroke-linecap:round; stroke-linejoin:round; stroke-width:2; stroke-opacity:0.1; fill:none" points="1520.18,1642.95 1520.18,47.2441 "/>
<polyline clip-path="url(#clip532)" style="stroke:#000000; stroke-linecap:round; stroke-linejoin:round; stroke-width:2; stroke-opacity:0.1; fill:none" points="2038.46,1642.95 2038.46,47.2441 "/>
<polyline clip-path="url(#clip532)" style="stroke:#000000; stroke-linecap:round; stroke-linejoin:round; stroke-width:2; stroke-opacity:0.1; fill:none" points="2556.74,1642.95 2556.74,47.2441 "/>
<polyline clip-path="url(#clip532)" style="stroke:#000000; stroke-linecap:round; stroke-linejoin:round; stroke-width:2; stroke-opacity:0.1; fill:none" points="3075.01,1642.95 3075.01,47.2441 "/>
<polyline clip-path="url(#clip530)" style="stroke:#000000; stroke-linecap:round; stroke-linejoin:round; stroke-width:4; stroke-opacity:1; fill:none" points="405.88,1642.95 3152.76,1642.95 "/>
<polyline clip-path="url(#clip530)" style="stroke:#000000; stroke-linecap:round; stroke-linejoin:round; stroke-width:4; stroke-opacity:1; fill:none" points="483.621,1642.95 483.621,1628.81 "/>
<polyline clip-path="url(#clip530)" style="stroke:#000000; stroke-linecap:round; stroke-linejoin:round; stroke-width:4; stroke-opacity:1; fill:none" points="1001.9,1642.95 1001.9,1628.81 "/>
<polyline clip-path="url(#clip530)" style="stroke:#000000; stroke-linecap:round; stroke-linejoin:round; stroke-width:4; stroke-opacity:1; fill:none" points="1520.18,1642.95 1520.18,1628.81 "/>
<polyline clip-path="url(#clip530)" style="stroke:#000000; stroke-linecap:round; stroke-linejoin:round; stroke-width:4; stroke-opacity:1; fill:none" points="2038.46,1642.95 2038.46,1628.81 "/>
<polyline clip-path="url(#clip530)" style="stroke:#000000; stroke-linecap:round; stroke-linejoin:round; stroke-width:4; stroke-opacity:1; fill:none" points="2556.74,1642.95 2556.74,1628.81 "/>
<polyline clip-path="url(#clip530)" style="stroke:#000000; stroke-linecap:round; stroke-linejoin:round; stroke-width:4; stroke-opacity:1; fill:none" points="3075.01,1642.95 3075.01,1628.81 "/>
<path clip-path="url(#clip530)" d="M466.719 1707.78 Q466.719 1698.59 468.593 1693 Q470.502 1687.38 474.215 1684.34 Q477.964 1681.3 483.621 1681.3 Q487.794 1681.3 490.941 1682.99 Q494.088 1684.65 496.139 1687.84 Q498.19 1690.98 499.357 1695.55 Q500.524 1700.07 500.524 1707.78 Q500.524 1716.9 498.65 1722.53 Q496.776 1728.11 493.028 1731.19 Q489.315 1734.23 483.621 1734.23 Q476.125 1734.23 471.846 1728.86 Q466.719 1722.39 466.719 1707.78 M473.26 1707.78 Q473.26 1720.55 476.231 1724.79 Q479.237 1729 483.621 1729 Q488.006 1729 490.977 1724.75 Q493.982 1720.51 493.982 1707.78 Q493.982 1694.98 490.977 1690.77 Q488.006 1686.56 483.551 1686.56 Q479.166 1686.56 476.549 1690.28 Q473.26 1695.02 473.26 1707.78 Z" fill="#000000" fill-rule="nonzero" fill-opacity="1" /><path clip-path="url(#clip530)" d="M1011.45 1733.35 L1005.08 1733.35 L1005.08 1692.79 Q1002.78 1694.98 999.036 1697.17 Q995.323 1699.36 992.352 1700.46 L992.352 1694.31 Q997.692 1691.8 1001.69 1688.23 Q1005.68 1684.65 1007.35 1681.3 L1011.45 1681.3 L1011.45 1733.35 Z" fill="#000000" fill-rule="nonzero" fill-opacity="1" /><path clip-path="url(#clip530)" d="M1537.35 1727.23 L1537.35 1733.35 L1503.08 1733.35 Q1503.01 1731.05 1503.82 1728.93 Q1505.13 1725.43 1508 1722.03 Q1510.9 1718.64 1516.34 1714.18 Q1524.79 1707.25 1527.76 1703.22 Q1530.73 1699.15 1530.73 1695.55 Q1530.73 1691.76 1528.01 1689.18 Q1525.32 1686.56 1520.97 1686.56 Q1516.38 1686.56 1513.62 1689.32 Q1510.86 1692.08 1510.83 1696.96 L1504.28 1696.29 Q1504.96 1688.97 1509.34 1685.15 Q1513.72 1681.3 1521.12 1681.3 Q1528.58 1681.3 1532.93 1685.43 Q1537.28 1689.57 1537.28 1695.69 Q1537.28 1698.8 1536 1701.8 Q1534.73 1704.81 1531.76 1708.13 Q1528.82 1711.46 1521.96 1717.26 Q1516.24 1722.07 1514.61 1723.8 Q1512.98 1725.5 1511.92 1727.23 L1537.35 1727.23 Z" fill="#000000" fill-rule="nonzero" fill-opacity="1" /><path clip-path="url(#clip530)" d="M2021.48 1719.66 L2027.85 1718.81 Q2028.94 1724.22 2031.56 1726.63 Q2034.21 1729 2038 1729 Q2042.49 1729 2045.56 1725.89 Q2048.68 1722.77 2048.68 1718.18 Q2048.68 1713.79 2045.81 1710.96 Q2042.95 1708.1 2038.53 1708.1 Q2036.72 1708.1 2034.04 1708.81 L2034.74 1703.22 Q2035.38 1703.29 2035.77 1703.29 Q2039.84 1703.29 2043.09 1701.17 Q2046.34 1699.05 2046.34 1694.63 Q2046.34 1691.13 2043.97 1688.83 Q2041.6 1686.53 2037.86 1686.53 Q2034.14 1686.53 2031.67 1688.86 Q2029.19 1691.2 2028.49 1695.86 L2022.12 1694.73 Q2023.29 1688.33 2027.42 1684.83 Q2031.56 1681.3 2037.71 1681.3 Q2041.96 1681.3 2045.53 1683.13 Q2049.1 1684.94 2050.98 1688.08 Q2052.88 1691.23 2052.88 1694.77 Q2052.88 1698.13 2051.08 1700.89 Q2049.28 1703.64 2045.74 1705.27 Q2050.34 1706.33 2052.88 1709.69 Q2055.43 1713.01 2055.43 1718.04 Q2055.43 1724.83 2050.48 1729.56 Q2045.53 1734.27 2037.96 1734.27 Q2031.14 1734.27 2026.61 1730.2 Q2022.12 1726.13 2021.48 1719.66 Z" fill="#000000" fill-rule="nonzero" fill-opacity="1" /><path clip-path="url(#clip530)" d="M2561.3 1733.35 L2561.3 1720.94 L2538.81 1720.94 L2538.81 1715.1 L2562.46 1681.51 L2567.66 1681.51 L2567.66 1715.1 L2574.66 1715.1 L2574.66 1720.94 L2567.66 1720.94 L2567.66 1733.35 L2561.3 1733.35 M2561.3 1715.1 L2561.3 1691.73 L2545.07 1715.1 L2561.3 1715.1 Z" fill="#000000" fill-rule="nonzero" fill-opacity="1" /><path clip-path="url(#clip530)" d="M3057.83 1719.77 L3064.51 1719.2 Q3065.25 1724.08 3067.94 1726.56 Q3070.66 1729 3074.48 1729 Q3079.08 1729 3082.26 1725.53 Q3085.45 1722.07 3085.45 1716.34 Q3085.45 1710.89 3082.37 1707.75 Q3079.33 1704.6 3074.38 1704.6 Q3071.3 1704.6 3068.83 1706.01 Q3066.35 1707.39 3064.94 1709.62 L3058.96 1708.84 L3063.98 1682.21 L3089.76 1682.21 L3089.76 1688.3 L3069.07 1688.3 L3066.28 1702.23 Q3070.95 1698.98 3076.07 1698.98 Q3082.86 1698.98 3087.53 1703.68 Q3092.2 1708.38 3092.2 1715.77 Q3092.2 1722.81 3088.1 1727.94 Q3083.11 1734.23 3074.48 1734.23 Q3067.41 1734.23 3062.92 1730.27 Q3058.46 1726.31 3057.83 1719.77 Z" fill="#000000" fill-rule="nonzero" fill-opacity="1" /><path clip-path="url(#clip530)" d="M1677.97 1825.22 L1678.89 1830.84 Q1676.2 1831.41 1674.08 1831.41 Q1670.62 1831.41 1668.71 1830.31 Q1666.8 1829.22 1666.02 1827.45 Q1665.24 1825.65 1665.24 1819.92 L1665.24 1798.31 L1660.57 1798.31 L1660.57 1793.36 L1665.24 1793.36 L1665.24 1784.06 L1671.57 1780.24 L1671.57 1793.36 L1677.97 1793.36 L1677.97 1798.31 L1671.57 1798.31 L1671.57 1820.27 Q1671.57 1822.99 1671.89 1823.77 Q1672.24 1824.55 1672.99 1825.01 Q1673.76 1825.47 1675.18 1825.47 Q1676.24 1825.47 1677.97 1825.22 Z" fill="#000000" fill-rule="nonzero" fill-opacity="1" /><path clip-path="url(#clip530)" d="M1684.23 1786.4 L1684.23 1779.08 L1690.6 1779.08 L1690.6 1786.4 L1684.23 1786.4 M1684.23 1830.92 L1684.23 1793.36 L1690.6 1793.36 L1690.6 1830.92 L1684.23 1830.92 Z" fill="#000000" fill-rule="nonzero" fill-opacity="1" /><path clip-path="url(#clip530)" d="M1700.28 1830.92 L1700.28 1793.36 L1705.98 1793.36 L1705.98 1798.63 Q1707.75 1795.87 1710.68 1794.21 Q1713.62 1792.51 1717.36 1792.51 Q1721.54 1792.51 1724.19 1794.25 Q1726.88 1795.98 1727.97 1799.09 Q1732.43 1792.51 1739.57 1792.51 Q1745.16 1792.51 1748.16 1795.62 Q1751.17 1798.7 1751.17 1805.14 L1751.17 1830.92 L1744.84 1830.92 L1744.84 1807.26 Q1744.84 1803.44 1744.2 1801.78 Q1743.6 1800.08 1741.98 1799.05 Q1740.35 1798.03 1738.16 1798.03 Q1734.2 1798.03 1731.58 1800.68 Q1728.96 1803.3 1728.96 1809.1 L1728.96 1830.92 L1722.6 1830.92 L1722.6 1806.52 Q1722.6 1802.27 1721.04 1800.15 Q1719.49 1798.03 1715.95 1798.03 Q1713.26 1798.03 1710.96 1799.44 Q1708.7 1800.86 1707.68 1803.58 Q1706.65 1806.3 1706.65 1811.43 L1706.65 1830.92 L1700.28 1830.92 Z" fill="#000000" fill-rule="nonzero" fill-opacity="1" /><path clip-path="url(#clip530)" d="M1786.32 1818.82 L1792.9 1819.63 Q1791.34 1825.4 1787.13 1828.58 Q1782.92 1831.76 1776.38 1831.76 Q1768.14 1831.76 1763.3 1826.71 Q1758.49 1821.62 1758.49 1812.46 Q1758.49 1802.98 1763.37 1797.75 Q1768.25 1792.51 1776.03 1792.51 Q1783.56 1792.51 1788.33 1797.64 Q1793.11 1802.77 1793.11 1812.07 Q1793.11 1812.63 1793.07 1813.76 L1765.07 1813.76 Q1765.42 1819.95 1768.57 1823.24 Q1771.72 1826.53 1776.42 1826.53 Q1779.92 1826.53 1782.39 1824.69 Q1784.87 1822.85 1786.32 1818.82 M1765.42 1808.53 L1786.39 1808.53 Q1785.97 1803.79 1783.99 1801.42 Q1780.94 1797.75 1776.1 1797.75 Q1771.72 1797.75 1768.71 1800.68 Q1765.74 1803.62 1765.42 1808.53 Z" fill="#000000" fill-rule="nonzero" fill-opacity="1" /><path clip-path="url(#clip530)" d="M1833.17 1846.16 Q1827.9 1839.51 1824.26 1830.6 Q1820.62 1821.69 1820.62 1812.14 Q1820.62 1803.72 1823.34 1796.01 Q1826.53 1787.07 1833.17 1778.19 L1837.73 1778.19 Q1833.46 1785.55 1832.08 1788.69 Q1829.92 1793.57 1828.68 1798.88 Q1827.16 1805.49 1827.16 1812.17 Q1827.16 1829.18 1837.73 1846.16 L1833.17 1846.16 Z" fill="#000000" fill-rule="nonzero" fill-opacity="1" /><path clip-path="url(#clip530)" d="M1844.84 1845.38 L1844.14 1839.4 Q1846.22 1839.97 1847.78 1839.97 Q1849.9 1839.97 1851.17 1839.26 Q1852.45 1838.55 1853.26 1837.28 Q1853.86 1836.33 1855.2 1832.54 Q1855.38 1832.01 1855.77 1830.99 L1841.52 1793.36 L1848.38 1793.36 L1856.19 1815.11 Q1857.71 1819.25 1858.92 1823.81 Q1860.01 1819.42 1861.53 1815.25 L1869.56 1793.36 L1875.93 1793.36 L1861.64 1831.55 Q1859.34 1837.74 1858.07 1840.07 Q1856.37 1843.22 1854.18 1844.67 Q1851.99 1846.16 1848.94 1846.16 Q1847.11 1846.16 1844.84 1845.38 Z" fill="#000000" fill-rule="nonzero" fill-opacity="1" /><path clip-path="url(#clip530)" d="M1885.51 1846.16 L1880.95 1846.16 Q1891.52 1829.18 1891.52 1812.17 Q1891.52 1805.53 1890 1798.98 Q1888.8 1793.68 1886.64 1788.8 Q1885.26 1785.62 1880.95 1778.19 L1885.51 1778.19 Q1892.16 1787.07 1895.34 1796.01 Q1898.06 1803.72 1898.06 1812.14 Q1898.06 1821.69 1894.38 1830.6 Q1890.74 1839.51 1885.51 1846.16 Z" fill="#000000" fill-rule="nonzero" fill-opacity="1" /><polyline clip-path="url(#clip532)" style="stroke:#000000; stroke-linecap:round; stroke-linejoin:round; stroke-width:2; stroke-opacity:0.1; fill:none" points="405.88,1502.11 3152.76,1502.11 "/>
<polyline clip-path="url(#clip532)" style="stroke:#000000; stroke-linecap:round; stroke-linejoin:round; stroke-width:2; stroke-opacity:0.1; fill:none" points="405.88,1272.2 3152.76,1272.2 "/>
<polyline clip-path="url(#clip532)" style="stroke:#000000; stroke-linecap:round; stroke-linejoin:round; stroke-width:2; stroke-opacity:0.1; fill:none" points="405.88,1042.29 3152.76,1042.29 "/>
<polyline clip-path="url(#clip532)" style="stroke:#000000; stroke-linecap:round; stroke-linejoin:round; stroke-width:2; stroke-opacity:0.1; fill:none" points="405.88,812.374 3152.76,812.374 "/>
<polyline clip-path="url(#clip532)" style="stroke:#000000; stroke-linecap:round; stroke-linejoin:round; stroke-width:2; stroke-opacity:0.1; fill:none" points="405.88,582.461 3152.76,582.461 "/>
<polyline clip-path="url(#clip532)" style="stroke:#000000; stroke-linecap:round; stroke-linejoin:round; stroke-width:2; stroke-opacity:0.1; fill:none" points="405.88,352.548 3152.76,352.548 "/>
<polyline clip-path="url(#clip532)" style="stroke:#000000; stroke-linecap:round; stroke-linejoin:round; stroke-width:2; stroke-opacity:0.1; fill:none" points="405.88,122.635 3152.76,122.635 "/>
<polyline clip-path="url(#clip530)" style="stroke:#000000; stroke-linecap:round; stroke-linejoin:round; stroke-width:4; stroke-opacity:1; fill:none" points="405.88,1642.95 405.88,47.2441 "/>
<polyline clip-path="url(#clip530)" style="stroke:#000000; stroke-linecap:round; stroke-linejoin:round; stroke-width:4; stroke-opacity:1; fill:none" points="405.88,1502.11 424.777,1502.11 "/>
<polyline clip-path="url(#clip530)" style="stroke:#000000; stroke-linecap:round; stroke-linejoin:round; stroke-width:4; stroke-opacity:1; fill:none" points="405.88,1272.2 424.777,1272.2 "/>
<polyline clip-path="url(#clip530)" style="stroke:#000000; stroke-linecap:round; stroke-linejoin:round; stroke-width:4; stroke-opacity:1; fill:none" points="405.88,1042.29 424.777,1042.29 "/>
<polyline clip-path="url(#clip530)" style="stroke:#000000; stroke-linecap:round; stroke-linejoin:round; stroke-width:4; stroke-opacity:1; fill:none" points="405.88,812.374 424.777,812.374 "/>
<polyline clip-path="url(#clip530)" style="stroke:#000000; stroke-linecap:round; stroke-linejoin:round; stroke-width:4; stroke-opacity:1; fill:none" points="405.88,582.461 424.777,582.461 "/>
<polyline clip-path="url(#clip530)" style="stroke:#000000; stroke-linecap:round; stroke-linejoin:round; stroke-width:4; stroke-opacity:1; fill:none" points="405.88,352.548 424.777,352.548 "/>
<polyline clip-path="url(#clip530)" style="stroke:#000000; stroke-linecap:round; stroke-linejoin:round; stroke-width:4; stroke-opacity:1; fill:none" points="405.88,122.635 424.777,122.635 "/>
<path clip-path="url(#clip530)" d="M287.652 1528.03 L281.287 1528.03 L281.287 1487.47 Q278.988 1489.67 275.24 1491.86 Q271.527 1494.05 268.556 1495.15 L268.556 1488.99 Q273.896 1486.48 277.892 1482.91 Q281.888 1479.34 283.55 1475.98 L287.652 1475.98 L287.652 1528.03 Z" fill="#000000" fill-rule="nonzero" fill-opacity="1" /><path clip-path="url(#clip530)" d="M307.525 1528.03 L307.525 1520.78 L314.774 1520.78 L314.774 1528.03 L307.525 1528.03 Z" fill="#000000" fill-rule="nonzero" fill-opacity="1" /><path clip-path="url(#clip530)" d="M324.074 1502.47 Q324.074 1493.27 325.948 1487.69 Q327.858 1482.06 331.571 1479.02 Q335.319 1475.98 340.977 1475.98 Q345.149 1475.98 348.297 1477.68 Q351.444 1479.34 353.495 1482.52 Q355.546 1485.67 356.713 1490.23 Q357.88 1494.76 357.88 1502.47 Q357.88 1511.59 356.005 1517.21 Q354.131 1522.8 350.383 1525.88 Q346.67 1528.92 340.977 1528.92 Q333.48 1528.92 329.201 1523.54 Q324.074 1517.07 324.074 1502.47 M330.616 1502.47 Q330.616 1515.23 333.586 1519.48 Q336.592 1523.68 340.977 1523.68 Q345.362 1523.68 348.332 1519.44 Q351.338 1515.2 351.338 1502.47 Q351.338 1489.67 348.332 1485.46 Q345.362 1481.25 340.906 1481.25 Q336.521 1481.25 333.904 1484.96 Q330.616 1489.7 330.616 1502.47 Z" fill="#000000" fill-rule="nonzero" fill-opacity="1" /><path clip-path="url(#clip530)" d="M288.005 1298.12 L281.64 1298.12 L281.64 1257.56 Q279.342 1259.75 275.593 1261.94 Q271.88 1264.14 268.91 1265.23 L268.91 1259.08 Q274.25 1256.57 278.245 1253 Q282.241 1249.43 283.903 1246.07 L288.005 1246.07 L288.005 1298.12 Z" fill="#000000" fill-rule="nonzero" fill-opacity="1" /><path clip-path="url(#clip530)" d="M307.878 1298.12 L307.878 1290.87 L315.128 1290.87 L315.128 1298.12 L307.878 1298.12 Z" fill="#000000" fill-rule="nonzero" fill-opacity="1" /><path clip-path="url(#clip530)" d="M357.88 1292 L357.88 1298.12 L323.614 1298.12 Q323.544 1295.82 324.357 1293.7 Q325.665 1290.2 328.53 1286.8 Q331.429 1283.41 336.875 1278.95 Q345.326 1272.02 348.297 1267.99 Q351.267 1263.93 351.267 1260.32 Q351.267 1256.53 348.544 1253.95 Q345.857 1251.34 341.507 1251.34 Q336.91 1251.34 334.152 1254.09 Q331.394 1256.85 331.358 1261.73 L324.817 1261.06 Q325.488 1253.74 329.873 1249.92 Q334.258 1246.07 341.649 1246.07 Q349.11 1246.07 353.459 1250.2 Q357.809 1254.34 357.809 1260.46 Q357.809 1263.57 356.536 1266.58 Q355.263 1269.58 352.292 1272.91 Q349.357 1276.23 342.497 1282.03 Q336.769 1286.84 335.142 1288.57 Q333.515 1290.27 332.455 1292 L357.88 1292 Z" fill="#000000" fill-rule="nonzero" fill-opacity="1" /><path clip-path="url(#clip530)" d="M287.687 1068.21 L281.322 1068.21 L281.322 1027.65 Q279.023 1029.84 275.275 1032.03 Q271.562 1034.22 268.592 1035.32 L268.592 1029.17 Q273.931 1026.66 277.927 1023.09 Q281.923 1019.51 283.585 1016.15 L287.687 1016.15 L287.687 1068.21 Z" fill="#000000" fill-rule="nonzero" fill-opacity="1" /><path clip-path="url(#clip530)" d="M307.56 1068.21 L307.56 1060.96 L314.809 1060.96 L314.809 1068.21 L307.56 1068.21 Z" fill="#000000" fill-rule="nonzero" fill-opacity="1" /><path clip-path="url(#clip530)" d="M344.513 1068.21 L344.513 1055.79 L322.023 1055.79 L322.023 1049.96 L345.68 1016.37 L350.878 1016.37 L350.878 1049.96 L357.88 1049.96 L357.88 1055.79 L350.878 1055.79 L350.878 1068.21 L344.513 1068.21 M344.513 1049.96 L344.513 1026.59 L328.282 1049.96 L344.513 1049.96 Z" fill="#000000" fill-rule="nonzero" fill-opacity="1" /><path clip-path="url(#clip530)" d="M287.51 838.294 L281.145 838.294 L281.145 797.734 Q278.847 799.927 275.098 802.119 Q271.385 804.311 268.415 805.408 L268.415 799.255 Q273.755 796.744 277.75 793.172 Q281.746 789.601 283.408 786.242 L287.51 786.242 L287.51 838.294 Z" fill="#000000" fill-rule="nonzero" fill-opacity="1" /><path clip-path="url(#clip530)" d="M307.383 838.294 L307.383 831.045 L314.632 831.045 L314.632 838.294 L307.383 838.294 Z" fill="#000000" fill-rule="nonzero" fill-opacity="1" /><path clip-path="url(#clip530)" d="M356.96 799.149 L350.63 799.644 Q349.782 795.895 348.226 794.198 Q345.645 791.475 341.861 791.475 Q338.82 791.475 336.521 793.172 Q333.515 795.365 331.783 799.573 Q330.05 803.781 329.979 811.56 Q332.278 808.06 335.602 806.362 Q338.926 804.665 342.568 804.665 Q348.933 804.665 353.389 809.368 Q357.88 814.036 357.88 821.462 Q357.88 826.342 355.758 830.55 Q353.672 834.722 349.994 836.95 Q346.316 839.178 341.649 839.178 Q333.692 839.178 328.671 833.343 Q323.65 827.473 323.65 814.036 Q323.65 799.007 329.201 792.182 Q334.046 786.242 342.25 786.242 Q348.367 786.242 352.257 789.672 Q356.182 793.102 356.96 799.149 M330.969 821.497 Q330.969 824.786 332.349 827.791 Q333.763 830.797 336.274 832.388 Q338.784 833.944 341.543 833.944 Q345.574 833.944 348.473 830.691 Q351.373 827.438 351.373 821.851 Q351.373 816.476 348.509 813.399 Q345.645 810.287 341.295 810.287 Q336.981 810.287 333.975 813.399 Q330.969 816.476 330.969 821.497 Z" fill="#000000" fill-rule="nonzero" fill-opacity="1" /><path clip-path="url(#clip530)" d="M287.369 608.381 L281.004 608.381 L281.004 567.821 Q278.705 570.014 274.957 572.206 Q271.244 574.398 268.273 575.495 L268.273 569.342 Q273.613 566.831 277.609 563.259 Q281.605 559.688 283.267 556.329 L287.369 556.329 L287.369 608.381 Z" fill="#000000" fill-rule="nonzero" fill-opacity="1" /><path clip-path="url(#clip530)" d="M307.242 608.381 L307.242 601.132 L314.491 601.132 L314.491 608.381 L307.242 608.381 Z" fill="#000000" fill-rule="nonzero" fill-opacity="1" /><path clip-path="url(#clip530)" d="M333.586 580.268 Q329.626 578.819 327.716 576.131 Q325.807 573.444 325.807 569.695 Q325.807 564.037 329.873 560.183 Q333.94 556.329 340.694 556.329 Q347.483 556.329 351.621 560.289 Q355.758 564.214 355.758 569.872 Q355.758 573.479 353.848 576.166 Q351.974 578.819 348.12 580.268 Q352.894 581.824 355.369 585.29 Q357.88 588.755 357.88 593.564 Q357.88 600.212 353.177 604.739 Q348.473 609.265 340.8 609.265 Q333.127 609.265 328.423 604.739 Q323.72 600.177 323.72 593.387 Q323.72 588.331 326.266 584.936 Q328.848 581.506 333.586 580.268 M332.313 569.483 Q332.313 573.161 334.682 575.495 Q337.052 577.828 340.835 577.828 Q344.513 577.828 346.847 575.53 Q349.216 573.196 349.216 569.837 Q349.216 566.336 346.776 563.967 Q344.371 561.562 340.765 561.562 Q337.122 561.562 334.718 563.896 Q332.313 566.23 332.313 569.483 M330.262 593.423 Q330.262 596.146 331.535 598.692 Q332.844 601.238 335.39 602.652 Q337.936 604.031 340.871 604.031 Q345.432 604.031 348.403 601.096 Q351.373 598.161 351.373 593.635 Q351.373 589.038 348.297 586.032 Q345.256 583.027 340.659 583.027 Q336.168 583.027 333.197 585.997 Q330.262 588.967 330.262 593.423 Z" fill="#000000" fill-rule="nonzero" fill-opacity="1" /><path clip-path="url(#clip530)" d="M297.128 372.35 L297.128 378.468 L262.863 378.468 Q262.792 376.169 263.606 374.048 Q264.914 370.547 267.778 367.152 Q270.678 363.757 276.124 359.302 Q284.575 352.371 287.546 348.34 Q290.516 344.273 290.516 340.666 Q290.516 336.883 287.793 334.301 Q285.106 331.684 280.756 331.684 Q276.159 331.684 273.401 334.443 Q270.643 337.201 270.607 342.081 L264.065 341.409 Q264.737 334.089 269.122 330.27 Q273.507 326.416 280.898 326.416 Q288.359 326.416 292.708 330.553 Q297.058 334.69 297.058 340.808 Q297.058 343.92 295.785 346.925 Q294.512 349.931 291.541 353.255 Q288.606 356.579 281.746 362.378 Q276.018 367.187 274.391 368.92 Q272.764 370.618 271.704 372.35 L297.128 372.35 Z" fill="#000000" fill-rule="nonzero" fill-opacity="1" /><path clip-path="url(#clip530)" d="M307.525 378.468 L307.525 371.219 L314.774 371.219 L314.774 378.468 L307.525 378.468 Z" fill="#000000" fill-rule="nonzero" fill-opacity="1" /><path clip-path="url(#clip530)" d="M324.074 352.901 Q324.074 343.707 325.948 338.12 Q327.858 332.498 331.571 329.457 Q335.319 326.416 340.977 326.416 Q345.149 326.416 348.297 328.113 Q351.444 329.775 353.495 332.957 Q355.546 336.105 356.713 340.666 Q357.88 345.193 357.88 352.901 Q357.88 362.025 356.005 367.647 Q354.131 373.234 350.383 376.311 Q346.67 379.352 340.977 379.352 Q333.48 379.352 329.201 373.977 Q324.074 367.506 324.074 352.901 M330.616 352.901 Q330.616 365.667 333.586 369.91 Q336.592 374.118 340.977 374.118 Q345.362 374.118 348.332 369.875 Q351.338 365.632 351.338 352.901 Q351.338 340.101 348.332 335.892 Q345.362 331.684 340.906 331.684 Q336.521 331.684 333.904 335.397 Q330.616 340.136 330.616 352.901 Z" fill="#000000" fill-rule="nonzero" fill-opacity="1" /><path clip-path="url(#clip530)" d="M297.482 142.437 L297.482 148.555 L263.217 148.555 Q263.146 146.256 263.959 144.135 Q265.268 140.634 268.132 137.239 Q271.032 133.844 276.477 129.389 Q284.929 122.458 287.899 118.427 Q290.869 114.36 290.869 110.753 Q290.869 106.97 288.147 104.388 Q285.459 101.771 281.11 101.771 Q276.513 101.771 273.755 104.53 Q270.996 107.288 270.961 112.168 L264.419 111.496 Q265.091 104.176 269.476 100.357 Q273.861 96.5026 281.251 96.5026 Q288.712 96.5026 293.062 100.64 Q297.411 104.777 297.411 110.895 Q297.411 114.007 296.138 117.012 Q294.865 120.018 291.895 123.342 Q288.96 126.666 282.1 132.465 Q276.371 137.274 274.745 139.007 Q273.118 140.705 272.057 142.437 L297.482 142.437 Z" fill="#000000" fill-rule="nonzero" fill-opacity="1" /><path clip-path="url(#clip530)" d="M307.878 148.555 L307.878 141.306 L315.128 141.306 L315.128 148.555 L307.878 148.555 Z" fill="#000000" fill-rule="nonzero" fill-opacity="1" /><path clip-path="url(#clip530)" d="M357.88 142.437 L357.88 148.555 L323.614 148.555 Q323.544 146.256 324.357 144.135 Q325.665 140.634 328.53 137.239 Q331.429 133.844 336.875 129.389 Q345.326 122.458 348.297 118.427 Q351.267 114.36 351.267 110.753 Q351.267 106.97 348.544 104.388 Q345.857 101.771 341.507 101.771 Q336.91 101.771 334.152 104.53 Q331.394 107.288 331.358 112.168 L324.817 111.496 Q325.488 104.176 329.873 100.357 Q334.258 96.5026 341.649 96.5026 Q349.11 96.5026 353.459 100.64 Q357.809 104.777 357.809 110.895 Q357.809 114.007 356.536 117.012 Q355.263 120.018 352.292 123.342 Q349.357 126.666 342.497 132.465 Q336.769 137.274 335.142 139.007 Q333.515 140.705 332.455 142.437 L357.88 142.437 Z" fill="#000000" fill-rule="nonzero" fill-opacity="1" /><path clip-path="url(#clip530)" d="M213.703 877.522 L207.727 878.229 Q208.293 876.143 208.293 874.587 Q208.293 872.466 207.586 871.193 Q206.879 869.919 205.606 869.106 Q204.651 868.505 200.867 867.161 Q200.337 866.984 199.311 866.596 L161.686 880.846 L161.686 873.986 L183.434 866.171 Q187.571 864.651 192.133 863.448 Q187.748 862.352 183.575 860.832 L161.686 852.805 L161.686 846.439 L199.877 860.726 Q206.065 863.024 208.399 864.297 Q211.546 865.994 212.996 868.187 Q214.481 870.379 214.481 873.42 Q214.481 875.259 213.703 877.522 Z" fill="#000000" fill-rule="nonzero" fill-opacity="1" /><path clip-path="url(#clip530)" d="M193.123 809.345 L199.24 809.345 L199.24 843.611 Q196.942 843.681 194.82 842.868 Q191.319 841.56 187.925 838.695 Q184.53 835.796 180.074 830.35 Q173.144 821.899 169.112 818.928 Q165.046 815.958 161.439 815.958 Q157.655 815.958 155.074 818.681 Q152.457 821.368 152.457 825.718 Q152.457 830.315 155.215 833.073 Q157.974 835.831 162.853 835.866 L162.182 842.408 Q154.862 841.736 151.043 837.352 Q147.188 832.967 147.188 825.576 Q147.188 818.115 151.326 813.765 Q155.463 809.416 161.58 809.416 Q164.692 809.416 167.698 810.689 Q170.704 811.962 174.028 814.932 Q177.352 817.867 183.151 824.727 Q187.96 830.456 189.693 832.083 Q191.39 833.709 193.123 834.77 L193.123 809.345 Z" fill="#000000" fill-rule="nonzero" fill-opacity="1" /><polyline clip-path="url(#clip532)" style="stroke:#90ee90; stroke-linecap:round; stroke-linejoin:round; stroke-width:40; stroke-opacity:1; fill:none" points="483.621,884.701 488.804,872.008 493.987,859.267 499.17,846.483 504.353,833.66 509.535,820.803 514.718,807.918 519.901,795.01 525.084,782.084 530.266,769.145 535.449,756.2 540.632,743.253 545.815,730.311 550.998,717.379 556.18,704.463 561.363,691.57 566.546,678.705 571.729,665.874 576.912,653.085 582.094,640.343 587.277,627.654 592.46,615.026 597.643,602.464 602.825,589.975 608.008,577.567 613.191,565.244 618.374,553.015 623.557,540.886 628.739,528.863 633.922,516.954 639.105,505.164 644.288,493.501 649.471,481.972 654.653,470.582 659.836,459.339 665.019,448.249 670.202,437.319 675.384,426.554 680.567,415.962 685.75,405.549 690.933,395.32 696.116,385.282 701.298,375.44 706.481,365.801 711.664,356.37 716.847,347.153 722.03,338.154 727.212,329.38 732.395,320.834 737.578,312.523 742.761,304.45 747.943,296.621 753.126,289.039 758.309,281.708 763.492,274.632 768.675,267.816 773.857,261.261 779.04,254.973 784.223,248.953 789.406,243.204 794.589,237.73 799.771,232.531 804.954,227.611 810.137,222.972 815.32,218.614 820.502,214.539 825.685,210.749 830.868,207.245 836.051,204.026 841.234,201.095 846.416,198.45 851.599,196.093 856.782,194.022 861.965,192.238 867.148,190.741 872.33,189.528 877.513,188.6 882.696,187.956 887.879,187.593 893.061,187.511 898.244,187.707 903.427,188.18 908.61,188.928 913.793,189.948 918.975,191.238 924.158,192.796 929.341,194.619 934.524,196.704 939.706,199.048 944.889,201.648 950.072,204.5 955.255,207.602 960.438,210.95 965.62,214.54 970.803,218.369 975.986,222.433 981.169,226.727 986.352,231.249 991.534,235.994 996.717,240.957 1001.9,246.135 1007.08,251.524 1012.27,257.119 1017.45,262.915 1022.63,268.909 1027.81,275.095 1033,281.47 1038.18,288.029 1043.36,294.768 1048.55,301.681 1053.73,308.764 1058.91,316.012 1064.09,323.422 1069.28,330.988 1074.46,338.705 1079.64,346.57 1084.82,354.577 1090.01,362.722 1095.19,371.001 1100.37,379.408 1105.56,387.939 1110.74,396.59 1115.92,405.356 1121.1,414.232 1126.29,423.215 1131.47,432.3 1136.65,441.482 1141.84,450.758 1147.02,460.122 1152.2,469.571 1157.38,479.1 1162.57,488.706 1167.75,498.384 1172.93,508.131 1178.11,517.941 1183.3,527.812 1188.48,537.74 1193.66,547.72 1198.85,557.749 1204.03,567.823 1209.21,577.939 1214.39,588.094 1219.58,598.282 1224.76,608.502 1229.94,618.75 1235.13,629.023 1240.31,639.317 1245.49,649.629 1250.67,659.956 1255.86,670.295 1261.04,680.643 1266.22,690.997 1271.4,701.355 1276.59,711.713 1281.77,722.069 1286.95,732.42 1292.14,742.764 1297.32,753.098 1302.5,763.42 1307.68,773.727 1312.87,784.017 1318.05,794.288 1323.23,804.537 1328.42,814.763 1333.6,824.963 1338.78,835.135 1343.96,845.278 1349.15,855.389 1354.33,865.467 1359.51,875.509 1364.69,885.515 1369.88,895.482 1375.06,905.408 1380.24,915.293 1385.43,925.134 1390.61,934.93 1395.79,944.68 1400.97,954.383 1406.16,964.036 1411.34,973.638 1416.52,983.189 1421.71,992.687 1426.89,1002.13 1432.07,1011.52 1437.25,1020.85 1442.44,1030.13 1447.62,1039.34 1452.8,1048.5 1457.99,1057.6 1463.17,1066.63 1468.35,1075.61 1473.53,1084.52 1478.72,1093.36 1483.9,1102.14 1489.08,1110.86 1494.26,1119.51 1499.45,1128.09 1504.63,1136.61 1509.81,1145.06 1515,1153.44 1520.18,1161.75 1525.36,1169.98 1530.54,1178.15 1535.73,1186.25 1540.91,1194.28 1546.09,1202.23 1551.28,1210.11 1556.46,1217.92 1561.64,1225.65 1566.82,1233.32 1572.01,1240.9 1577.19,1248.41 1582.37,1255.85 1587.55,1263.21 1592.74,1270.5 1597.92,1277.71 1603.1,1284.84 1608.29,1291.9 1613.47,1298.88 1618.65,1305.78 1623.83,1312.6 1629.02,1319.35 1634.2,1326.02 1639.38,1332.61 1644.57,1339.13 1649.75,1345.56 1654.93,1351.92 1660.11,1358.19 1665.3,1364.39 1670.48,1370.51 1675.66,1376.55 1680.84,1382.51 1686.03,1388.39 1691.21,1394.19 1696.39,1399.91 1701.58,1405.55 1706.76,1411.11 1711.94,1416.59 1717.12,1421.99 1722.31,1427.31 1727.49,1432.55 1732.67,1437.71 1737.86,1442.79 1743.04,1447.79 1748.22,1452.7 1753.4,1457.54 1758.59,1462.3 1763.77,1466.97 1768.95,1471.56 1774.13,1476.08 1779.32,1480.51 1784.5,1484.86 1789.68,1489.13 1794.87,1493.32 1800.05,1497.42 1805.23,1501.45 1810.41,1505.39 1815.6,1509.25 1820.78,1513.04 1825.96,1516.74 1831.15,1520.36 1836.33,1523.89 1841.51,1527.35 1846.69,1530.72 1851.88,1534.02 1857.06,1537.23 1862.24,1540.36 1867.43,1543.4 1872.61,1546.37 1877.79,1549.25 1882.97,1552.05 1888.16,1554.77 1893.34,1557.41 1898.52,1559.97 1903.7,1562.44 1908.89,1564.83 1914.07,1567.14 1919.25,1569.36 1924.44,1571.51 1929.62,1573.57 1934.8,1575.54 1939.98,1577.44 1945.17,1579.25 1950.35,1580.97 1955.53,1582.62 1960.72,1584.17 1965.9,1585.65 1971.08,1587.04 1976.26,1588.35 1981.45,1589.57 1986.63,1590.71 1991.81,1591.76 1996.99,1592.72 2002.18,1593.61 2007.36,1594.4 2012.54,1595.11 2017.73,1595.73 2022.91,1596.26 2028.09,1596.71 2033.27,1597.07 2038.46,1597.34 2043.64,1597.53 2048.82,1597.62 2054.01,1597.63 2059.19,1597.54 2064.37,1597.37 2069.55,1597.1 2074.74,1596.75 2079.92,1596.3 2085.1,1595.76 2090.28,1595.13 2095.47,1594.41 2100.65,1593.59 2105.83,1592.67 2111.02,1591.67 2116.2,1590.56 2121.38,1589.37 2126.56,1588.07 2131.75,1586.68 2136.93,1585.19 2142.11,1583.6 2147.3,1581.92 2152.48,1580.13 2157.66,1578.24 2162.84,1576.26 2168.03,1574.17 2173.21,1571.97 2178.39,1569.68 2183.58,1567.28 2188.76,1564.78 2193.94,1562.17 2199.12,1559.45 2204.31,1556.63 2209.49,1553.7 2214.67,1550.67 2219.85,1547.52 2225.04,1544.26 2230.22,1540.89 2235.4,1537.42 2240.59,1533.82 2245.77,1530.12 2250.95,1526.3 2256.13,1522.37 2261.32,1518.32 2266.5,1514.16 2271.68,1509.87 2276.87,1505.48 2282.05,1500.96 2287.23,1496.32 2292.41,1491.56 2297.6,1486.68 2302.78,1481.68 2307.96,1476.56 2313.14,1471.31 2318.33,1465.94 2323.51,1460.45 2328.69,1454.83 2333.88,1449.08 2339.06,1443.21 2344.24,1437.21 2349.42,1431.08 2354.61,1424.82 2359.79,1418.43 2364.97,1411.92 2370.16,1405.27 2375.34,1398.49 2380.52,1391.58 2385.7,1384.54 2390.89,1377.37 2396.07,1370.06 2401.25,1362.62 2406.43,1355.04 2411.62,1347.34 2416.8,1339.5 2421.98,1331.52 2427.17,1323.41 2432.35,1315.17 2437.53,1306.79 2442.71,1298.28 2447.9,1289.64 2453.08,1280.86 2458.26,1271.94 2463.45,1262.9 2468.63,1253.72 2473.81,1244.41 2478.99,1234.96 2484.18,1225.39 2489.36,1215.69 2494.54,1205.85 2499.72,1195.89 2504.91,1185.8 2510.09,1175.59 2515.27,1165.24 2520.46,1154.78 2525.64,1144.19 2530.82,1133.49 2536,1122.66 2541.19,1111.72 2546.37,1100.66 2551.55,1089.49 2556.74,1078.21 2561.92,1066.82 2567.1,1055.32 2572.28,1043.72 2577.47,1032.02 2582.65,1020.22 2587.83,1008.33 2593.02,996.341 2598.2,984.268 2603.38,972.109 2608.56,959.869 2613.75,947.551 2618.93,935.159 2624.11,922.697 2629.29,910.169 2634.48,897.579 2639.66,884.933 2644.84,872.232 2650.03,859.485 2655.21,846.692 2660.39,833.862 2665.57,820.998 2670.76,808.105 2675.94,795.189 2681.12,782.255 2686.31,769.307 2691.49,756.353 2696.67,743.397 2701.85,730.446 2707.04,717.505 2712.22,704.58 2717.4,691.677 2722.58,678.802 2727.77,665.963 2732.95,653.163 2738.13,640.411 2743.32,627.713 2748.5,615.074 2753.68,602.502 2758.86,590.003 2764.05,577.584 2769.23,565.251 2774.41,553.011 2779.6,540.871 2784.78,528.837 2789.96,516.916 2795.14,505.115 2800.33,493.441 2805.51,481.9 2810.69,470.499 2815.87,459.244 2821.06,448.142 2826.24,437.2 2831.42,426.423 2836.61,415.82 2841.79,405.394 2846.97,395.153 2852.15,385.102 2857.34,375.249 2862.52,365.597 2867.7,356.154 2872.89,346.924 2878.07,337.913 2883.25,329.126 2888.43,320.568 2893.62,312.244 2898.8,304.16 2903.98,296.317 2909.16,288.723 2914.35,281.38 2919.53,274.292 2924.71,267.463 2929.9,260.897 2935.08,254.596 2940.26,248.565 2945.44,242.804 2950.63,237.317 2955.81,232.108 2960.99,227.176 2966.18,222.525 2971.36,218.156 2976.54,214.07 2981.72,210.269 2986.91,206.754 2992.09,203.525 2997.27,200.583 3002.46,197.928 3007.64,195.561 3012.82,193.48 3018,191.687 3023.19,190.18 3028.37,188.958 3033.55,188.021 3038.73,187.368 3043.92,186.996 3049.1,186.905 3054.28,187.094 3059.47,187.559 3064.65,188.299 3069.83,189.312 3075.01,190.595 "/>
<polyline clip-path="url(#clip532)" style="stroke:#0000ff; stroke-linecap:round; stroke-linejoin:round; stroke-width:12; stroke-opacity:1; fill:none" points="483.621,884.567 488.804,871.891 493.987,859.167 499.17,846.4 504.353,833.595 509.535,820.758 514.718,807.892 519.901,795.004 525.084,782.099 530.266,769.181 535.449,756.257 540.632,743.332 545.815,730.412 550.998,717.503 556.18,704.611 561.363,691.741 566.546,678.9 571.729,666.093 576.912,653.328 582.094,640.611 587.277,627.947 592.46,615.343 597.643,602.806 602.825,590.342 608.008,577.958 613.191,565.66 618.374,553.455 623.557,541.35 628.739,529.351 633.922,517.465 639.105,505.699 644.288,494.059 649.471,482.552 654.653,471.184 659.836,459.962 665.019,448.892 670.202,437.982 675.384,427.236 680.567,416.662 685.75,406.266 690.933,396.053 696.116,386.03 701.298,376.203 706.481,366.577 711.664,357.158 716.847,347.951 722.03,338.962 727.212,330.196 732.395,321.658 737.578,313.353 742.761,305.285 747.943,297.458 753.126,289.878 758.309,282.548 763.492,275.472 768.675,268.653 773.857,262.096 779.04,255.803 784.223,249.777 789.406,244.022 794.589,238.539 799.771,233.332 804.954,228.402 810.137,223.751 815.32,219.381 820.502,215.294 825.685,211.49 830.868,207.971 836.051,204.738 841.234,201.791 846.416,199.13 851.599,196.756 856.782,194.669 861.965,192.868 867.148,191.353 872.33,190.123 877.513,189.178 882.696,188.516 887.879,188.135 893.061,188.035 898.244,188.215 903.427,188.671 908.61,189.402 913.793,190.406 918.975,191.68 924.158,193.223 929.341,195.031 934.524,197.101 939.706,199.431 944.889,202.018 950.072,204.858 955.255,207.947 960.438,211.284 965.62,214.863 970.803,218.682 975.986,222.736 981.169,227.022 986.352,231.536 991.534,236.273 996.717,241.229 1001.9,246.401 1007.08,251.784 1012.27,257.374 1017.45,263.166 1022.63,269.156 1027.81,275.34 1033,281.712 1038.18,288.269 1043.36,295.005 1048.55,301.917 1053.73,308.999 1058.91,316.247 1064.09,323.657 1069.28,331.223 1074.46,338.941 1079.64,346.807 1084.82,354.815 1090.01,362.961 1095.19,371.241 1100.37,379.649 1105.56,388.182 1110.74,396.835 1115.92,405.603 1121.1,414.481 1126.29,423.466 1131.47,432.553 1136.65,441.737 1141.84,451.014 1147.02,460.38 1152.2,469.831 1157.38,479.362 1162.57,488.969 1167.75,498.648 1172.93,508.396 1178.11,518.208 1183.3,528.079 1188.48,538.008 1193.66,547.988 1198.85,558.018 1204.03,568.092 1209.21,578.208 1214.39,588.362 1219.58,598.551 1224.76,608.77 1229.94,619.017 1235.13,629.288 1240.31,639.581 1245.49,649.891 1250.67,660.217 1255.86,670.554 1261.04,680.9 1266.22,691.252 1271.4,701.608 1276.59,711.963 1281.77,722.317 1286.95,732.665 1292.14,743.006 1297.32,753.337 1302.5,763.656 1307.68,773.96 1312.87,784.247 1318.05,794.514 1323.23,804.76 1328.42,814.982 1333.6,825.179 1338.78,835.348 1343.96,845.487 1349.15,855.594 1354.33,865.668 1359.51,875.707 1364.69,885.709 1369.88,895.672 1375.06,905.595 1380.24,915.477 1385.43,925.315 1390.61,935.108 1395.79,944.854 1400.97,954.553 1406.16,964.203 1411.34,973.803 1416.52,983.351 1421.71,992.846 1426.89,1002.29 1432.07,1011.67 1437.25,1021 1442.44,1030.28 1447.62,1039.49 1452.8,1048.65 1457.99,1057.74 1463.17,1066.78 1468.35,1075.75 1473.53,1084.66 1478.72,1093.5 1483.9,1102.28 1489.08,1111 1494.26,1119.65 1499.45,1128.23 1504.63,1136.75 1509.81,1145.19 1515,1153.57 1520.18,1161.88 1525.36,1170.12 1530.54,1178.29 1535.73,1186.39 1540.91,1194.42 1546.09,1202.37 1551.28,1210.25 1556.46,1218.06 1561.64,1225.8 1566.82,1233.46 1572.01,1241.05 1577.19,1248.56 1582.37,1256 1587.55,1263.37 1592.74,1270.65 1597.92,1277.87 1603.1,1285 1608.29,1292.06 1613.47,1299.04 1618.65,1305.95 1623.83,1312.78 1629.02,1319.53 1634.2,1326.2 1639.38,1332.79 1644.57,1339.31 1649.75,1345.75 1654.93,1352.11 1660.11,1358.39 1665.3,1364.59 1670.48,1370.71 1675.66,1376.75 1680.84,1382.71 1686.03,1388.6 1691.21,1394.4 1696.39,1400.12 1701.58,1405.77 1706.76,1411.33 1711.94,1416.81 1717.12,1422.22 1722.31,1427.54 1727.49,1432.78 1732.67,1437.94 1737.86,1443.02 1743.04,1448.02 1748.22,1452.94 1753.4,1457.78 1758.59,1462.53 1763.77,1467.21 1768.95,1471.8 1774.13,1476.32 1779.32,1480.75 1784.5,1485.1 1789.68,1489.37 1794.87,1493.56 1800.05,1497.67 1805.23,1501.69 1810.41,1505.64 1815.6,1509.5 1820.78,1513.28 1825.96,1516.98 1831.15,1520.6 1836.33,1524.14 1841.51,1527.59 1846.69,1530.96 1851.88,1534.25 1857.06,1537.46 1862.24,1540.59 1867.43,1543.64 1872.61,1546.6 1877.79,1549.48 1882.97,1552.28 1888.16,1555 1893.34,1557.63 1898.52,1560.19 1903.7,1562.66 1908.89,1565.05 1914.07,1567.35 1919.25,1569.57 1924.44,1571.71 1929.62,1573.77 1934.8,1575.74 1939.98,1577.64 1945.17,1579.44 1950.35,1581.17 1955.53,1582.81 1960.72,1584.36 1965.9,1585.84 1971.08,1587.22 1976.26,1588.53 1981.45,1589.75 1986.63,1590.88 1991.81,1591.93 1996.99,1592.89 2002.18,1593.77 2007.36,1594.57 2012.54,1595.27 2017.73,1595.89 2022.91,1596.43 2028.09,1596.87 2033.27,1597.23 2038.46,1597.5 2043.64,1597.69 2048.82,1597.78 2054.01,1597.79 2059.19,1597.7 2064.37,1597.53 2069.55,1597.27 2074.74,1596.91 2079.92,1596.47 2085.1,1595.93 2090.28,1595.3 2095.47,1594.58 2100.65,1593.76 2105.83,1592.86 2111.02,1591.85 2116.2,1590.76 2121.38,1589.56 2126.56,1588.28 2131.75,1586.89 2136.93,1585.41 2142.11,1583.83 2147.3,1582.15 2152.48,1580.37 2157.66,1578.49 2162.84,1576.52 2168.03,1574.44 2173.21,1572.26 2178.39,1569.97 2183.58,1567.58 2188.76,1565.09 2193.94,1562.5 2199.12,1559.8 2204.31,1556.99 2209.49,1554.07 2214.67,1551.05 2219.85,1547.92 2225.04,1544.68 2230.22,1541.33 2235.4,1537.86 2240.59,1534.29 2245.77,1530.6 2250.95,1526.8 2256.13,1522.89 2261.32,1518.86 2266.5,1514.71 2271.68,1510.45 2276.87,1506.07 2282.05,1501.57 2287.23,1496.95 2292.41,1492.22 2297.6,1487.36 2302.78,1482.38 2307.96,1477.27 2313.14,1472.05 2318.33,1466.7 2323.51,1461.23 2328.69,1455.63 2333.88,1449.9 2339.06,1444.05 2344.24,1438.07 2349.42,1431.96 2354.61,1425.73 2359.79,1419.36 2364.97,1412.87 2370.16,1406.24 2375.34,1399.49 2380.52,1392.6 2385.7,1385.58 2390.89,1378.42 2396.07,1371.14 2401.25,1363.72 2406.43,1356.17 2411.62,1348.48 2416.8,1340.66 2421.98,1332.71 2427.17,1324.62 2432.35,1316.4 2437.53,1308.04 2442.71,1299.55 2447.9,1290.93 2453.08,1282.17 2458.26,1273.27 2463.45,1264.25 2468.63,1255.09 2473.81,1245.8 2478.99,1236.38 2484.18,1226.82 2489.36,1217.14 2494.54,1207.33 2499.72,1197.38 2504.91,1187.31 2510.09,1177.12 2515.27,1166.8 2520.46,1156.35 2525.64,1145.79 2530.82,1135.1 2536,1124.29 2541.19,1113.37 2546.37,1102.33 2551.55,1091.18 2556.74,1079.92 2561.92,1068.55 2567.1,1057.07 2572.28,1045.49 2577.47,1033.81 2582.65,1022.03 2587.83,1010.16 2593.02,998.198 2598.2,986.145 2603.38,974.007 2608.56,961.787 2613.75,949.49 2618.93,937.119 2624.11,924.677 2629.29,912.17 2634.48,899.6 2639.66,886.974 2644.84,874.294 2650.03,861.566 2655.21,848.793 2660.39,835.982 2665.57,823.137 2670.76,810.263 2675.94,797.365 2681.12,784.449 2686.31,771.519 2691.49,758.581 2696.67,745.642 2701.85,732.707 2707.04,719.781 2712.22,706.87 2717.4,693.981 2722.58,681.119 2727.77,668.292 2732.95,655.504 2738.13,642.762 2743.32,630.072 2748.5,617.442 2753.68,604.877 2758.86,592.384 2764.05,579.969 2769.23,567.64 2774.41,555.402 2779.6,543.263 2784.78,531.228 2789.96,519.306 2795.14,507.501 2800.33,495.822 2805.51,484.274 2810.69,472.864 2815.87,461.599 2821.06,450.485 2826.24,439.529 2831.42,428.737 2836.61,418.115 2841.79,407.67 2846.97,397.407 2852.15,387.333 2857.34,377.454 2862.52,367.775 2867.7,358.302 2872.89,349.041 2878.07,339.996 2883.25,331.173 2888.43,322.578 2893.62,314.214 2898.8,306.087 2903.98,298.201 2909.16,290.56 2914.35,283.169 2919.53,276.031 2924.71,269.151 2929.9,262.531 2935.08,256.175 2940.26,250.087 2945.44,244.268 2950.63,238.721 2955.81,233.45 2960.99,228.456 2966.18,223.741 2971.36,219.307 2976.54,215.156 2981.72,211.288 2986.91,207.705 2992.09,204.408 2997.27,201.397 3002.46,198.673 3007.64,196.236 3012.82,194.086 3018,192.223 3023.19,190.646 3028.37,189.354 3033.55,188.348 3038.73,187.625 3043.92,187.185 3049.1,187.026 3054.28,187.146 3059.47,187.544 3064.65,188.218 3069.83,189.166 3075.01,190.385 "/>
<polyline clip-path="url(#clip532)" style="stroke:#ff0000; stroke-linecap:round; stroke-linejoin:round; stroke-width:12; stroke-opacity:1; fill:none" points="483.621,884.701 488.804,871.996 493.987,859.217 499.17,846.369 504.353,833.458 509.535,820.486 514.718,807.461 519.901,794.385 525.084,781.266 530.266,768.107 535.449,754.914 540.632,741.693 545.815,728.449 550.998,715.189 556.18,701.916 561.363,688.639 566.546,675.362 571.729,662.091 576.912,648.833 582.094,635.593 587.277,622.378 592.46,609.195 597.643,596.048 602.825,582.946 608.008,569.893 613.191,556.898 618.374,543.965 623.557,531.101 628.739,518.314 633.922,505.608 639.105,492.992 644.288,480.471 649.471,468.052 654.653,455.74 659.836,443.544 665.019,431.468 670.202,419.52 675.384,407.706 680.567,396.031 685.75,384.502 690.933,373.125 696.116,361.906 701.298,350.852 706.481,339.967 711.664,329.258 716.847,318.73 722.03,308.388 727.212,298.239 732.395,288.288 737.578,278.539 742.761,268.998 747.943,259.669 753.126,250.558 758.309,241.668 763.492,233.004 768.675,224.572 773.857,216.373 779.04,208.414 784.223,200.696 789.406,193.225 794.589,186.002 799.771,179.033 804.954,172.318 810.137,165.862 815.32,159.668 820.502,153.736 825.685,148.07 830.868,142.673 836.051,137.545 841.234,132.688 846.416,128.105 851.599,123.796 856.782,119.762 861.965,116.004 867.148,112.524 872.33,109.322 877.513,106.397 882.696,103.751 887.879,101.384 893.061,99.294 898.244,97.4823 903.427,95.9479 908.61,94.6901 913.793,93.708 918.975,93.0008 924.158,92.567 929.341,92.4055 934.524,92.5147 939.706,92.8929 944.889,93.5384 950.072,94.4491 955.255,95.6231 960.438,97.0579 965.62,98.7514 970.803,100.701 975.986,102.904 981.169,105.358 986.352,108.059 991.534,111.006 996.717,114.194 1001.9,117.621 1007.08,121.283 1012.27,125.177 1017.45,129.3 1022.63,133.648 1027.81,138.217 1033,143.003 1038.18,148.003 1043.36,153.214 1048.55,158.63 1053.73,164.248 1058.91,170.064 1064.09,176.075 1069.28,182.275 1074.46,188.66 1079.64,195.227 1084.82,201.972 1090.01,208.889 1095.19,215.975 1100.37,223.225 1105.56,230.636 1110.74,238.201 1115.92,245.919 1121.1,253.783 1126.29,261.789 1131.47,269.934 1136.65,278.213 1141.84,286.621 1147.02,295.154 1152.2,303.808 1157.38,312.578 1162.57,321.461 1167.75,330.451 1172.93,339.545 1178.11,348.739 1183.3,358.027 1188.48,367.406 1193.66,376.873 1198.85,386.422 1204.03,396.049 1209.21,405.752 1214.39,415.524 1219.58,425.364 1224.76,435.267 1229.94,445.228 1235.13,455.245 1240.31,465.313 1245.49,475.428 1250.67,485.588 1255.86,495.788 1261.04,506.025 1266.22,516.296 1271.4,526.596 1276.59,536.924 1281.77,547.274 1286.95,557.645 1292.14,568.032 1297.32,578.434 1302.5,588.846 1307.68,599.266 1312.87,609.69 1318.05,620.116 1323.23,630.541 1328.42,640.963 1333.6,651.378 1338.78,661.784 1343.96,672.178 1349.15,682.558 1354.33,692.921 1359.51,703.266 1364.69,713.588 1369.88,723.887 1375.06,734.16 1380.24,744.405 1385.43,754.62 1390.61,764.802 1395.79,774.95 1400.97,785.062 1406.16,795.136 1411.34,805.169 1416.52,815.161 1421.71,825.109 1426.89,835.013 1432.07,844.869 1437.25,854.676 1442.44,864.434 1447.62,874.141 1452.8,883.794 1457.99,893.393 1463.17,902.936 1468.35,912.423 1473.53,921.851 1478.72,931.219 1483.9,940.527 1489.08,949.774 1494.26,958.957 1499.45,968.076 1504.63,977.13 1509.81,986.118 1515,995.039 1520.18,1003.89 1525.36,1012.68 1530.54,1021.39 1535.73,1030.03 1540.91,1038.61 1546.09,1047.11 1551.28,1055.53 1556.46,1063.89 1561.64,1072.17 1566.82,1080.37 1572.01,1088.5 1577.19,1096.55 1582.37,1104.53 1587.55,1112.43 1592.74,1120.25 1597.92,1127.99 1603.1,1135.65 1608.29,1143.24 1613.47,1150.74 1618.65,1158.16 1623.83,1165.51 1629.02,1172.77 1634.2,1179.95 1639.38,1187.05 1644.57,1194.06 1649.75,1200.99 1654.93,1207.84 1660.11,1214.61 1665.3,1221.29 1670.48,1227.89 1675.66,1234.41 1680.84,1240.84 1686.03,1247.18 1691.21,1253.44 1696.39,1259.62 1701.58,1265.71 1706.76,1271.71 1711.94,1277.63 1717.12,1283.46 1722.31,1289.21 1727.49,1294.87 1732.67,1300.44 1737.86,1305.93 1743.04,1311.33 1748.22,1316.65 1753.4,1321.87 1758.59,1327.01 1763.77,1332.06 1768.95,1337.03 1774.13,1341.91 1779.32,1346.7 1784.5,1351.4 1789.68,1356.01 1794.87,1360.54 1800.05,1364.98 1805.23,1369.33 1810.41,1373.59 1815.6,1377.77 1820.78,1381.85 1825.96,1385.85 1831.15,1389.76 1836.33,1393.58 1841.51,1397.31 1846.69,1400.96 1851.88,1404.51 1857.06,1407.98 1862.24,1411.36 1867.43,1414.65 1872.61,1417.85 1877.79,1420.96 1882.97,1423.99 1888.16,1426.92 1893.34,1429.77 1898.52,1432.52 1903.7,1435.19 1908.89,1437.77 1914.07,1440.26 1919.25,1442.66 1924.44,1444.96 1929.62,1447.18 1934.8,1449.31 1939.98,1451.36 1945.17,1453.31 1950.35,1455.17 1955.53,1456.94 1960.72,1458.62 1965.9,1460.21 1971.08,1461.71 1976.26,1463.12 1981.45,1464.43 1986.63,1465.66 1991.81,1466.8 1996.99,1467.84 2002.18,1468.79 2007.36,1469.66 2012.54,1470.43 2017.73,1471.1 2022.91,1471.69 2028.09,1472.18 2033.27,1472.58 2038.46,1472.89 2043.64,1473.1 2048.82,1473.22 2054.01,1473.24 2059.19,1473.18 2064.37,1473.01 2069.55,1472.75 2074.74,1472.4 2079.92,1471.95 2085.1,1471.41 2090.28,1470.76 2095.47,1470.02 2100.65,1469.19 2105.83,1468.26 2111.02,1467.22 2116.2,1466.09 2121.38,1464.86 2126.56,1463.54 2131.75,1462.11 2136.93,1460.58 2142.11,1458.95 2147.3,1457.22 2152.48,1455.38 2157.66,1453.45 2162.84,1451.41 2168.03,1449.26 2173.21,1447.01 2178.39,1444.66 2183.58,1442.2 2188.76,1439.64 2193.94,1436.97 2199.12,1434.19 2204.31,1431.3 2209.49,1428.3 2214.67,1425.2 2219.85,1421.98 2225.04,1418.66 2230.22,1415.22 2235.4,1411.67 2240.59,1408 2245.77,1404.23 2250.95,1400.34 2256.13,1396.33 2261.32,1392.21 2266.5,1387.97 2271.68,1383.62 2276.87,1379.15 2282.05,1374.56 2287.23,1369.85 2292.41,1365.02 2297.6,1360.07 2302.78,1355 2307.96,1349.81 2313.14,1344.5 2318.33,1339.06 2323.51,1333.5 2328.69,1327.82 2333.88,1322.01 2339.06,1316.08 2344.24,1310.02 2349.42,1303.83 2354.61,1297.52 2359.79,1291.09 2364.97,1284.52 2370.16,1277.83 2375.34,1271.01 2380.52,1264.07 2385.7,1256.99 2390.89,1249.79 2396.07,1242.46 2401.25,1235 2406.43,1227.42 2411.62,1219.7 2416.8,1211.86 2421.98,1203.89 2427.17,1195.79 2432.35,1187.56 2437.53,1179.21 2442.71,1170.73 2447.9,1162.12 2453.08,1153.39 2458.26,1144.54 2463.45,1135.56 2468.63,1126.46 2473.81,1117.24 2478.99,1107.89 2484.18,1098.43 2489.36,1088.85 2494.54,1079.16 2499.72,1069.34 2504.91,1059.42 2510.09,1049.38 2515.27,1039.23 2520.46,1028.98 2525.64,1018.62 2530.82,1008.15 2536,997.589 2541.19,986.925 2546.37,976.166 2551.55,965.312 2556.74,954.368 2561.92,943.337 2567.1,932.221 2572.28,921.024 2577.47,909.75 2582.65,898.4 2587.83,886.981 2593.02,875.494 2598.2,863.944 2603.38,852.335 2608.56,840.671 2613.75,828.956 2618.93,817.195 2624.11,805.392 2629.29,793.552 2634.48,781.679 2639.66,769.779 2644.84,757.855 2650.03,745.914 2655.21,733.959 2660.39,721.998 2665.57,710.033 2670.76,698.073 2675.94,686.12 2681.12,674.182 2686.31,662.262 2691.49,650.369 2696.67,638.507 2701.85,626.681 2707.04,614.898 2712.22,603.163 2717.4,591.483 2722.58,579.862 2727.77,568.309 2732.95,556.827 2738.13,545.424 2743.32,534.104 2748.5,522.875 2753.68,511.741 2758.86,500.71 2764.05,489.786 2769.23,478.977 2774.41,468.286 2779.6,457.721 2784.78,447.287 2789.96,436.99 2795.14,426.835 2800.33,416.828 2805.51,406.973 2810.69,397.278 2815.87,387.746 2821.06,378.382 2826.24,369.194 2831.42,360.183 2836.61,351.356 2841.79,342.717 2846.97,334.271 2852.15,326.022 2857.34,317.974 2862.52,310.131 2867.7,302.498 2872.89,295.077 2878.07,287.874 2883.25,280.89 2888.43,274.129 2893.62,267.595 2898.8,261.291 2903.98,255.218 2909.16,249.38 2914.35,243.779 2919.53,238.417 2924.71,233.296 2929.9,228.419 2935.08,223.787 2940.26,219.401 2945.44,215.263 2950.63,211.374 2955.81,207.735 2960.99,204.346 2966.18,201.209 2971.36,198.324 2976.54,195.691 2981.72,193.31 2986.91,191.181 2992.09,189.305 2997.27,187.68 3002.46,186.306 3007.64,185.182 3012.82,184.308 3018,183.683 3023.19,183.305 3028.37,183.173 3033.55,183.286 3038.73,183.642 3043.92,184.24 3049.1,185.078 3054.28,186.153 3059.47,187.464 3064.65,189.008 3069.83,190.783 3075.01,192.788 "/>
<path clip-path="url(#clip530)" d="M975.25 2180.62 L2583.39 2180.62 L2583.39 1869.58 L975.25 1869.58  Z" fill="#ffffff" fill-rule="evenodd" fill-opacity="1"/>
<polyline clip-path="url(#clip530)" style="stroke:#000000; stroke-linecap:round; stroke-linejoin:round; stroke-width:4; stroke-opacity:1; fill:none" points="975.25,2180.62 2583.39,2180.62 2583.39,1869.58 975.25,1869.58 975.25,2180.62 "/>
<polyline clip-path="url(#clip530)" style="stroke:#90ee90; stroke-linecap:round; stroke-linejoin:round; stroke-width:30; stroke-opacity:1; fill:none" points="1005.77,1947.34 1188.9,1947.34 "/>
<path clip-path="url(#clip530)" d="M1219.42 1948.01 Q1219.42 1935.1 1226.35 1927.82 Q1233.28 1920.5 1244.24 1920.5 Q1251.42 1920.5 1257.18 1923.93 Q1262.95 1927.36 1265.95 1933.51 Q1268.99 1939.63 1268.99 1947.41 Q1268.99 1955.3 1265.81 1961.52 Q1262.63 1967.74 1256.79 1970.96 Q1250.96 1974.14 1244.21 1974.14 Q1236.89 1974.14 1231.12 1970.61 Q1225.36 1967.07 1222.39 1960.95 Q1219.42 1954.84 1219.42 1948.01 M1226.49 1948.12 Q1226.49 1957.49 1231.51 1962.9 Q1236.57 1968.27 1244.17 1968.27 Q1251.91 1968.27 1256.9 1962.83 Q1261.92 1957.38 1261.92 1947.38 Q1261.92 1941.05 1259.76 1936.34 Q1257.64 1931.6 1253.51 1929.02 Q1249.4 1926.41 1244.28 1926.41 Q1236.99 1926.41 1231.72 1931.43 Q1226.49 1936.41 1226.49 1948.12 Z" fill="#000000" fill-rule="nonzero" fill-opacity="1" /><path clip-path="url(#clip530)" d="M1276.95 1973.26 L1276.95 1935.71 L1282.68 1935.71 L1282.68 1941.4 Q1284.87 1937.4 1286.71 1936.13 Q1288.58 1934.86 1290.81 1934.86 Q1294.03 1934.86 1297.35 1936.91 L1295.16 1942.81 Q1292.83 1941.43 1290.49 1941.43 Q1288.41 1941.43 1286.75 1942.71 Q1285.08 1943.95 1284.38 1946.17 Q1283.32 1949.57 1283.32 1953.6 L1283.32 1973.26 L1276.95 1973.26 Z" fill="#000000" fill-rule="nonzero" fill-opacity="1" /><path clip-path="url(#clip530)" d="M1301.17 1928.74 L1301.17 1921.42 L1307.54 1921.42 L1307.54 1928.74 L1301.17 1928.74 M1301.17 1973.26 L1301.17 1935.71 L1307.54 1935.71 L1307.54 1973.26 L1301.17 1973.26 Z" fill="#000000" fill-rule="nonzero" fill-opacity="1" /><path clip-path="url(#clip530)" d="M1316.06 1976.37 L1322.25 1977.29 Q1322.64 1980.16 1324.41 1981.46 Q1326.77 1983.23 1330.88 1983.23 Q1335.3 1983.23 1337.7 1981.46 Q1340.11 1979.7 1340.95 1976.51 Q1341.45 1974.57 1341.41 1968.34 Q1337.24 1973.26 1331.02 1973.26 Q1323.27 1973.26 1319.03 1967.67 Q1314.79 1962.09 1314.79 1954.27 Q1314.79 1948.9 1316.73 1944.37 Q1318.68 1939.81 1322.35 1937.33 Q1326.07 1934.86 1331.05 1934.86 Q1337.7 1934.86 1342.02 1940.23 L1342.02 1935.71 L1347.89 1935.71 L1347.89 1968.17 Q1347.89 1976.94 1346.08 1980.58 Q1344.31 1984.26 1340.42 1986.38 Q1336.57 1988.5 1330.91 1988.5 Q1324.19 1988.5 1320.06 1985.46 Q1315.92 1982.45 1316.06 1976.37 M1321.33 1953.81 Q1321.33 1961.2 1324.26 1964.6 Q1327.2 1967.99 1331.62 1967.99 Q1336 1967.99 1338.97 1964.63 Q1341.94 1961.24 1341.94 1954.02 Q1341.94 1947.13 1338.87 1943.63 Q1335.83 1940.13 1331.51 1940.13 Q1327.27 1940.13 1324.3 1943.59 Q1321.33 1947.02 1321.33 1953.81 Z" fill="#000000" fill-rule="nonzero" fill-opacity="1" /><path clip-path="url(#clip530)" d="M1357.54 1928.74 L1357.54 1921.42 L1363.9 1921.42 L1363.9 1928.74 L1357.54 1928.74 M1357.54 1973.26 L1357.54 1935.71 L1363.9 1935.71 L1363.9 1973.26 L1357.54 1973.26 Z" fill="#000000" fill-rule="nonzero" fill-opacity="1" /><path clip-path="url(#clip530)" d="M1373.59 1973.26 L1373.59 1935.71 L1379.32 1935.71 L1379.32 1941.05 Q1383.46 1934.86 1391.27 1934.86 Q1394.67 1934.86 1397.5 1936.09 Q1400.36 1937.3 1401.78 1939.28 Q1403.19 1941.26 1403.76 1943.98 Q1404.11 1945.75 1404.11 1950.17 L1404.11 1973.26 L1397.74 1973.26 L1397.74 1950.42 Q1397.74 1946.53 1397 1944.62 Q1396.26 1942.67 1394.35 1941.54 Q1392.48 1940.37 1389.93 1940.37 Q1385.86 1940.37 1382.89 1942.96 Q1379.96 1945.54 1379.96 1952.75 L1379.96 1973.26 L1373.59 1973.26 Z" fill="#000000" fill-rule="nonzero" fill-opacity="1" /><path clip-path="url(#clip530)" d="M1438.38 1968.63 Q1434.84 1971.63 1431.55 1972.87 Q1428.3 1974.11 1424.55 1974.11 Q1418.36 1974.11 1415.04 1971.1 Q1411.71 1968.06 1411.71 1963.36 Q1411.71 1960.6 1412.95 1958.34 Q1414.22 1956.04 1416.24 1954.66 Q1418.29 1953.28 1420.84 1952.57 Q1422.71 1952.08 1426.49 1951.62 Q1434.2 1950.7 1437.84 1949.43 Q1437.88 1948.12 1437.88 1947.76 Q1437.88 1943.87 1436.08 1942.28 Q1433.64 1940.13 1428.83 1940.13 Q1424.34 1940.13 1422.18 1941.72 Q1420.06 1943.27 1419.03 1947.27 L1412.81 1946.42 Q1413.66 1942.42 1415.6 1939.98 Q1417.55 1937.51 1421.23 1936.2 Q1424.9 1934.86 1429.75 1934.86 Q1434.56 1934.86 1437.56 1935.99 Q1440.57 1937.12 1441.98 1938.85 Q1443.4 1940.55 1443.96 1943.17 Q1444.28 1944.79 1444.28 1949.04 L1444.28 1957.52 Q1444.28 1966.4 1444.67 1968.77 Q1445.09 1971.1 1446.3 1973.26 L1439.65 1973.26 Q1438.66 1971.28 1438.38 1968.63 M1437.84 1954.41 Q1434.38 1955.83 1427.45 1956.82 Q1423.52 1957.38 1421.9 1958.09 Q1420.27 1958.8 1419.39 1960.18 Q1418.5 1961.52 1418.5 1963.18 Q1418.5 1965.73 1420.41 1967.43 Q1422.36 1969.12 1426.07 1969.12 Q1429.75 1969.12 1432.61 1967.53 Q1435.48 1965.9 1436.82 1963.11 Q1437.84 1960.95 1437.84 1956.75 L1437.84 1954.41 Z" fill="#000000" fill-rule="nonzero" fill-opacity="1" /><path clip-path="url(#clip530)" d="M1454.01 1973.26 L1454.01 1921.42 L1460.37 1921.42 L1460.37 1973.26 L1454.01 1973.26 Z" fill="#000000" fill-rule="nonzero" fill-opacity="1" /><polyline clip-path="url(#clip530)" style="stroke:#0000ff; stroke-linecap:round; stroke-linejoin:round; stroke-width:18; stroke-opacity:1; fill:none" points="1005.77,2025.1 1188.9,2025.1 "/>
<path clip-path="url(#clip530)" d="M1238.51 2051.02 L1232.15 2051.02 L1232.15 2010.46 Q1229.85 2012.65 1226.1 2014.84 Q1222.39 2017.04 1219.42 2018.13 L1219.42 2011.98 Q1224.76 2009.47 1228.75 2005.9 Q1232.75 2002.33 1234.41 1998.97 L1238.51 1998.97 L1238.51 2051.02 Z" fill="#000000" fill-rule="nonzero" fill-opacity="1" /><path clip-path="url(#clip530)" d="M1254.81 2025.45 Q1254.81 2016.26 1256.69 2010.67 Q1258.6 2005.05 1262.31 2002.01 Q1266.06 1998.97 1271.72 1998.97 Q1275.89 1998.97 1279.04 2000.67 Q1282.18 2002.33 1284.23 2005.51 Q1286.29 2008.66 1287.45 2013.22 Q1288.62 2017.74 1288.62 2025.45 Q1288.62 2034.58 1286.75 2040.2 Q1284.87 2045.79 1281.12 2048.86 Q1277.41 2051.9 1271.72 2051.9 Q1264.22 2051.9 1259.94 2046.53 Q1254.81 2040.06 1254.81 2025.45 M1261.36 2025.45 Q1261.36 2038.22 1264.33 2042.46 Q1267.33 2046.67 1271.72 2046.67 Q1276.1 2046.67 1279.07 2042.43 Q1282.08 2038.18 1282.08 2025.45 Q1282.08 2012.65 1279.07 2008.44 Q1276.1 2004.24 1271.65 2004.24 Q1267.26 2004.24 1264.64 2007.95 Q1261.36 2012.69 1261.36 2025.45 Z" fill="#000000" fill-rule="nonzero" fill-opacity="1" /><path clip-path="url(#clip530)" d="M1296.29 2011.63 Q1296.29 2006.08 1299.09 2002.19 Q1301.88 1998.3 1307.18 1998.3 Q1312.06 1998.3 1315.25 2001.8 Q1318.46 2005.26 1318.46 2012.02 Q1318.46 2018.59 1315.21 2022.16 Q1311.99 2025.7 1307.25 2025.7 Q1302.55 2025.7 1299.4 2022.2 Q1296.29 2018.7 1296.29 2011.63 M1307.36 2002.68 Q1304.99 2002.68 1303.4 2004.73 Q1301.84 2006.78 1301.84 2012.26 Q1301.84 2017.25 1303.44 2019.3 Q1305.03 2021.32 1307.36 2021.32 Q1309.77 2021.32 1311.32 2019.27 Q1312.91 2017.21 1312.91 2011.77 Q1312.91 2006.75 1311.32 2004.73 Q1309.73 2002.68 1307.36 2002.68 M1307.4 2052.93 L1335.76 1998.3 L1340.92 1998.3 L1312.67 2052.93 L1307.4 2052.93 M1329.82 2038.86 Q1329.82 2033.27 1332.61 2029.41 Q1335.4 2025.52 1340.74 2025.52 Q1345.62 2025.52 1348.8 2029.02 Q1352.02 2032.49 1352.02 2039.24 Q1352.02 2045.82 1348.77 2049.39 Q1345.55 2052.93 1340.78 2052.93 Q1336.07 2052.93 1332.93 2049.43 Q1329.82 2045.89 1329.82 2038.86 M1340.92 2029.91 Q1338.51 2029.91 1336.92 2031.96 Q1335.37 2034.01 1335.37 2039.49 Q1335.37 2044.44 1336.96 2046.49 Q1338.55 2048.54 1340.88 2048.54 Q1343.32 2048.54 1344.88 2046.49 Q1346.47 2044.44 1346.47 2039 Q1346.47 2033.98 1344.88 2031.96 Q1343.29 2029.91 1340.92 2029.91 Z" fill="#000000" fill-rule="nonzero" fill-opacity="1" /><path clip-path="url(#clip530)" d="M1381.37 2065.41 L1381.37 2013.47 L1387.17 2013.47 L1387.17 2018.35 Q1389.22 2015.48 1391.8 2014.07 Q1394.39 2012.62 1398.06 2012.62 Q1402.87 2012.62 1406.55 2015.09 Q1410.23 2017.57 1412.1 2022.09 Q1413.98 2026.59 1413.98 2031.96 Q1413.98 2037.72 1411.89 2042.36 Q1409.84 2046.95 1405.88 2049.43 Q1401.95 2051.87 1397.6 2051.87 Q1394.42 2051.87 1391.87 2050.52 Q1389.36 2049.18 1387.74 2047.13 L1387.74 2065.41 L1381.37 2065.41 M1387.14 2032.46 Q1387.14 2039.7 1390.07 2043.17 Q1393.01 2046.64 1397.18 2046.64 Q1401.42 2046.64 1404.43 2043.06 Q1407.47 2039.46 1407.47 2031.92 Q1407.47 2024.75 1404.5 2021.17 Q1401.56 2017.6 1397.46 2017.6 Q1393.4 2017.6 1390.25 2021.42 Q1387.14 2025.21 1387.14 2032.46 Z" fill="#000000" fill-rule="nonzero" fill-opacity="1" /><path clip-path="url(#clip530)" d="M1447.36 2038.93 L1453.93 2039.74 Q1452.38 2045.5 1448.17 2048.69 Q1443.96 2051.87 1437.42 2051.87 Q1429.18 2051.87 1424.34 2046.81 Q1419.53 2041.72 1419.53 2032.56 Q1419.53 2023.08 1424.41 2017.85 Q1429.29 2012.62 1437.07 2012.62 Q1444.6 2012.62 1449.37 2017.74 Q1454.15 2022.87 1454.15 2032.17 Q1454.15 2032.74 1454.11 2033.87 L1426.1 2033.87 Q1426.46 2040.06 1429.61 2043.35 Q1432.75 2046.64 1437.46 2046.64 Q1440.96 2046.64 1443.43 2044.8 Q1445.91 2042.96 1447.36 2038.93 M1426.46 2028.64 L1447.43 2028.64 Q1447 2023.9 1445.02 2021.53 Q1441.98 2017.85 1437.14 2017.85 Q1432.75 2017.85 1429.75 2020.79 Q1426.78 2023.72 1426.46 2028.64 Z" fill="#000000" fill-rule="nonzero" fill-opacity="1" /><path clip-path="url(#clip530)" d="M1461.86 2051.02 L1461.86 2013.47 L1467.58 2013.47 L1467.58 2019.16 Q1469.78 2015.16 1471.62 2013.89 Q1473.49 2012.62 1475.72 2012.62 Q1478.94 2012.62 1482.26 2014.67 L1480.07 2020.57 Q1477.73 2019.19 1475.4 2019.19 Q1473.31 2019.19 1471.65 2020.47 Q1469.99 2021.71 1469.28 2023.93 Q1468.22 2027.33 1468.22 2031.36 L1468.22 2051.02 L1461.86 2051.02 Z" fill="#000000" fill-rule="nonzero" fill-opacity="1" /><path clip-path="url(#clip530)" d="M1499.94 2045.33 L1500.86 2050.95 Q1498.17 2051.51 1496.05 2051.51 Q1492.58 2051.51 1490.68 2050.42 Q1488.77 2049.32 1487.99 2047.55 Q1487.21 2045.75 1487.21 2040.02 L1487.21 2018.42 L1482.54 2018.42 L1482.54 2013.47 L1487.21 2013.47 L1487.21 2004.17 L1493.54 2000.35 L1493.54 2013.47 L1499.94 2013.47 L1499.94 2018.42 L1493.54 2018.42 L1493.54 2040.38 Q1493.54 2043.1 1493.86 2043.88 Q1494.21 2044.65 1494.95 2045.11 Q1495.73 2045.57 1497.15 2045.57 Q1498.21 2045.57 1499.94 2045.33 Z" fill="#000000" fill-rule="nonzero" fill-opacity="1" /><path clip-path="url(#clip530)" d="M1530.78 2051.02 L1530.78 2045.5 Q1526.39 2051.87 1518.86 2051.87 Q1515.53 2051.87 1512.63 2050.6 Q1509.77 2049.32 1508.36 2047.41 Q1506.98 2045.47 1506.41 2042.67 Q1506.02 2040.8 1506.02 2036.73 L1506.02 2013.47 L1512.39 2013.47 L1512.39 2034.29 Q1512.39 2039.28 1512.78 2041.01 Q1513.38 2043.52 1515.32 2044.97 Q1517.27 2046.39 1520.13 2046.39 Q1523 2046.39 1525.51 2044.94 Q1528.02 2043.45 1529.04 2040.94 Q1530.1 2038.4 1530.1 2033.59 L1530.1 2013.47 L1536.47 2013.47 L1536.47 2051.02 L1530.78 2051.02 Z" fill="#000000" fill-rule="nonzero" fill-opacity="1" /><path clip-path="url(#clip530)" d="M1546.37 2051.02 L1546.37 2013.47 L1552.1 2013.47 L1552.1 2019.16 Q1554.29 2015.16 1556.13 2013.89 Q1558 2012.62 1560.23 2012.62 Q1563.45 2012.62 1566.77 2014.67 L1564.58 2020.57 Q1562.25 2019.19 1559.91 2019.19 Q1557.83 2019.19 1556.16 2020.47 Q1554.5 2021.71 1553.8 2023.93 Q1552.73 2027.33 1552.73 2031.36 L1552.73 2051.02 L1546.37 2051.02 Z" fill="#000000" fill-rule="nonzero" fill-opacity="1" /><path clip-path="url(#clip530)" d="M1576.43 2051.02 L1570.52 2051.02 L1570.52 1999.18 L1576.89 1999.18 L1576.89 2017.67 Q1580.92 2012.62 1587.18 2012.62 Q1590.64 2012.62 1593.72 2014.03 Q1596.83 2015.41 1598.81 2017.96 Q1600.83 2020.47 1601.96 2024.04 Q1603.09 2027.61 1603.09 2031.68 Q1603.09 2041.33 1598.32 2046.6 Q1593.54 2051.87 1586.86 2051.87 Q1580.21 2051.87 1576.43 2046.32 L1576.43 2051.02 M1576.36 2031.96 Q1576.36 2038.71 1578.19 2041.72 Q1581.2 2046.64 1586.33 2046.64 Q1590.5 2046.64 1593.54 2043.03 Q1596.58 2039.39 1596.58 2032.21 Q1596.58 2024.85 1593.65 2021.35 Q1590.75 2017.85 1586.61 2017.85 Q1582.44 2017.85 1579.4 2021.49 Q1576.36 2025.1 1576.36 2031.96 Z" fill="#000000" fill-rule="nonzero" fill-opacity="1" /><path clip-path="url(#clip530)" d="M1635.34 2046.39 Q1631.8 2049.39 1628.51 2050.63 Q1625.26 2051.87 1621.51 2051.87 Q1615.32 2051.87 1612 2048.86 Q1608.68 2045.82 1608.68 2041.12 Q1608.68 2038.36 1609.91 2036.1 Q1611.19 2033.8 1613.2 2032.42 Q1615.25 2031.04 1617.8 2030.33 Q1619.67 2029.84 1623.46 2029.38 Q1631.17 2028.46 1634.81 2027.19 Q1634.84 2025.88 1634.84 2025.52 Q1634.84 2021.63 1633.04 2020.04 Q1630.6 2017.89 1625.79 2017.89 Q1621.3 2017.89 1619.14 2019.48 Q1617.02 2021.03 1616 2025.03 L1609.77 2024.18 Q1610.62 2020.18 1612.57 2017.74 Q1614.51 2015.27 1618.19 2013.96 Q1621.87 2012.62 1626.71 2012.62 Q1631.52 2012.62 1634.53 2013.75 Q1637.53 2014.88 1638.95 2016.61 Q1640.36 2018.31 1640.93 2020.93 Q1641.24 2022.55 1641.24 2026.8 L1641.24 2035.28 Q1641.24 2044.16 1641.63 2046.53 Q1642.06 2048.86 1643.26 2051.02 L1636.61 2051.02 Q1635.62 2049.04 1635.34 2046.39 M1634.81 2032.17 Q1631.34 2033.59 1624.41 2034.58 Q1620.49 2035.14 1618.86 2035.85 Q1617.23 2036.56 1616.35 2037.94 Q1615.47 2039.28 1615.47 2040.94 Q1615.47 2043.49 1617.38 2045.19 Q1619.32 2046.88 1623.03 2046.88 Q1626.71 2046.88 1629.58 2045.29 Q1632.44 2043.66 1633.78 2040.87 Q1634.81 2038.71 1634.81 2034.51 L1634.81 2032.17 Z" fill="#000000" fill-rule="nonzero" fill-opacity="1" /><path clip-path="url(#clip530)" d="M1665.01 2045.33 L1665.93 2050.95 Q1663.24 2051.51 1661.12 2051.51 Q1657.65 2051.51 1655.74 2050.42 Q1653.83 2049.32 1653.06 2047.55 Q1652.28 2045.75 1652.28 2040.02 L1652.28 2018.42 L1647.61 2018.42 L1647.61 2013.47 L1652.28 2013.47 L1652.28 2004.17 L1658.61 2000.35 L1658.61 2013.47 L1665.01 2013.47 L1665.01 2018.42 L1658.61 2018.42 L1658.61 2040.38 Q1658.61 2043.1 1658.93 2043.88 Q1659.28 2044.65 1660.02 2045.11 Q1660.8 2045.57 1662.21 2045.57 Q1663.27 2045.57 1665.01 2045.33 Z" fill="#000000" fill-rule="nonzero" fill-opacity="1" /><path clip-path="url(#clip530)" d="M1671.27 2006.5 L1671.27 1999.18 L1677.63 1999.18 L1677.63 2006.5 L1671.27 2006.5 M1671.27 2051.02 L1671.27 2013.47 L1677.63 2013.47 L1677.63 2051.02 L1671.27 2051.02 Z" fill="#000000" fill-rule="nonzero" fill-opacity="1" /><path clip-path="url(#clip530)" d="M1684.95 2032.24 Q1684.95 2021.81 1690.75 2016.79 Q1695.6 2012.62 1702.56 2012.62 Q1710.31 2012.62 1715.22 2017.71 Q1720.14 2022.77 1720.14 2031.71 Q1720.14 2038.96 1717.94 2043.13 Q1715.79 2047.27 1711.61 2049.57 Q1707.48 2051.87 1702.56 2051.87 Q1694.68 2051.87 1689.8 2046.81 Q1684.95 2041.76 1684.95 2032.24 M1691.49 2032.24 Q1691.49 2039.46 1694.64 2043.06 Q1697.79 2046.64 1702.56 2046.64 Q1707.3 2046.64 1710.45 2043.03 Q1713.59 2039.42 1713.59 2032.03 Q1713.59 2025.06 1710.41 2021.49 Q1707.26 2017.89 1702.56 2017.89 Q1697.79 2017.89 1694.64 2021.46 Q1691.49 2025.03 1691.49 2032.24 Z" fill="#000000" fill-rule="nonzero" fill-opacity="1" /><path clip-path="url(#clip530)" d="M1727.6 2051.02 L1727.6 2013.47 L1733.33 2013.47 L1733.33 2018.81 Q1737.46 2012.62 1745.28 2012.62 Q1748.67 2012.62 1751.5 2013.85 Q1754.37 2015.06 1755.78 2017.04 Q1757.19 2019.02 1757.76 2021.74 Q1758.11 2023.51 1758.11 2027.93 L1758.11 2051.02 L1751.75 2051.02 L1751.75 2028.18 Q1751.75 2024.29 1751.01 2022.38 Q1750.26 2020.43 1748.35 2019.3 Q1746.48 2018.13 1743.93 2018.13 Q1739.87 2018.13 1736.9 2020.72 Q1733.96 2023.3 1733.96 2030.51 L1733.96 2051.02 L1727.6 2051.02 Z" fill="#000000" fill-rule="nonzero" fill-opacity="1" /><path clip-path="url(#clip530)" d="M1785.63 2032.24 Q1785.63 2021.81 1791.42 2016.79 Q1796.27 2012.62 1803.24 2012.62 Q1810.98 2012.62 1815.9 2017.71 Q1820.81 2022.77 1820.81 2031.71 Q1820.81 2038.96 1818.62 2043.13 Q1816.46 2047.27 1812.29 2049.57 Q1808.15 2051.87 1803.24 2051.87 Q1795.35 2051.87 1790.47 2046.81 Q1785.63 2041.76 1785.63 2032.24 M1792.17 2032.24 Q1792.17 2039.46 1795.31 2043.06 Q1798.46 2046.64 1803.24 2046.64 Q1807.97 2046.64 1811.12 2043.03 Q1814.27 2039.42 1814.27 2032.03 Q1814.27 2025.06 1811.09 2021.49 Q1807.94 2017.89 1803.24 2017.89 Q1798.46 2017.89 1795.31 2021.46 Q1792.17 2025.03 1792.17 2032.24 Z" fill="#000000" fill-rule="nonzero" fill-opacity="1" /><path clip-path="url(#clip530)" d="M1829.79 2051.02 L1829.79 2018.42 L1824.17 2018.42 L1824.17 2013.47 L1829.79 2013.47 L1829.79 2009.47 Q1829.79 2005.69 1830.46 2003.85 Q1831.38 2001.37 1833.68 1999.85 Q1836.02 1998.3 1840.19 1998.3 Q1842.88 1998.3 1846.13 1998.93 L1845.17 2004.48 Q1843.19 2004.13 1841.43 2004.13 Q1838.53 2004.13 1837.32 2005.37 Q1836.12 2006.61 1836.12 2010 L1836.12 2013.47 L1843.44 2013.47 L1843.44 2018.42 L1836.12 2018.42 L1836.12 2051.02 L1829.79 2051.02 Z" fill="#000000" fill-rule="nonzero" fill-opacity="1" /><path clip-path="url(#clip530)" d="M1896.38 2013.47 L1902.88 2013.47 Q1900.41 2021.25 1898.32 2032.24 Q1900.8 2045.89 1902.88 2051.02 L1896.55 2051.02 Q1895.03 2047.48 1894.26 2044.16 Q1891.32 2051.87 1881.99 2051.87 Q1874.91 2051.87 1870.6 2046.56 Q1866.29 2041.26 1866.29 2032.17 Q1866.29 2022.84 1870.6 2017.74 Q1874.95 2012.62 1882.09 2012.62 Q1886.51 2012.62 1889.31 2014.42 Q1892.1 2016.19 1894.5 2019.83 Q1894.75 2018.59 1896.38 2013.47 M1883.15 2017.89 Q1878.59 2017.89 1875.94 2021.56 Q1873.29 2025.24 1873.29 2032.17 Q1873.29 2038.93 1875.8 2042.78 Q1878.31 2046.64 1882.8 2046.64 Q1887.18 2046.64 1890.12 2042.85 Q1893.05 2039.03 1893.05 2031.89 Q1893.05 2024.96 1890.3 2021.42 Q1887.57 2017.89 1883.15 2017.89 Z" fill="#000000" fill-rule="nonzero" fill-opacity="1" /><path clip-path="url(#clip530)" d="M1955.01 2046.39 Q1951.47 2049.39 1948.18 2050.63 Q1944.93 2051.87 1941.18 2051.87 Q1934.99 2051.87 1931.67 2048.86 Q1928.34 2045.82 1928.34 2041.12 Q1928.34 2038.36 1929.58 2036.1 Q1930.86 2033.8 1932.87 2032.42 Q1934.92 2031.04 1937.47 2030.33 Q1939.34 2029.84 1943.13 2029.38 Q1950.83 2028.46 1954.48 2027.19 Q1954.51 2025.88 1954.51 2025.52 Q1954.51 2021.63 1952.71 2020.04 Q1950.27 2017.89 1945.46 2017.89 Q1940.97 2017.89 1938.81 2019.48 Q1936.69 2021.03 1935.66 2025.03 L1929.44 2024.18 Q1930.29 2020.18 1932.23 2017.74 Q1934.18 2015.27 1937.86 2013.96 Q1941.53 2012.62 1946.38 2012.62 Q1951.19 2012.62 1954.19 2013.75 Q1957.2 2014.88 1958.61 2016.61 Q1960.03 2018.31 1960.59 2020.93 Q1960.91 2022.55 1960.91 2026.8 L1960.91 2035.28 Q1960.91 2044.16 1961.3 2046.53 Q1961.73 2048.86 1962.93 2051.02 L1956.28 2051.02 Q1955.29 2049.04 1955.01 2046.39 M1954.48 2032.17 Q1951.01 2033.59 1944.08 2034.58 Q1940.16 2035.14 1938.53 2035.85 Q1936.9 2036.56 1936.02 2037.94 Q1935.13 2039.28 1935.13 2040.94 Q1935.13 2043.49 1937.04 2045.19 Q1938.99 2046.88 1942.7 2046.88 Q1946.38 2046.88 1949.24 2045.29 Q1952.11 2043.66 1953.45 2040.87 Q1954.48 2038.71 1954.48 2034.51 L1954.48 2032.17 Z" fill="#000000" fill-rule="nonzero" fill-opacity="1" /><path clip-path="url(#clip530)" d="M1970.64 2051.02 L1970.64 1999.18 L1977 1999.18 L1977 2051.02 L1970.64 2051.02 Z" fill="#000000" fill-rule="nonzero" fill-opacity="1" /><path clip-path="url(#clip530)" d="M1984.5 2032.24 Q1984.5 2021.81 1990.3 2016.79 Q1995.14 2012.62 2002.11 2012.62 Q2009.85 2012.62 2014.77 2017.71 Q2019.68 2022.77 2019.68 2031.71 Q2019.68 2038.96 2017.49 2043.13 Q2015.33 2047.27 2011.16 2049.57 Q2007.02 2051.87 2002.11 2051.87 Q1994.22 2051.87 1989.34 2046.81 Q1984.5 2041.76 1984.5 2032.24 M1991.04 2032.24 Q1991.04 2039.46 1994.19 2043.06 Q1997.34 2046.64 2002.11 2046.64 Q2006.85 2046.64 2009.99 2043.03 Q2013.14 2039.42 2013.14 2032.03 Q2013.14 2025.06 2009.96 2021.49 Q2006.81 2017.89 2002.11 2017.89 Q1997.34 2017.89 1994.19 2021.46 Q1991.04 2025.03 1991.04 2032.24 Z" fill="#000000" fill-rule="nonzero" fill-opacity="1" /><path clip-path="url(#clip530)" d="M2027.14 2051.02 L2027.14 2013.47 L2032.87 2013.47 L2032.87 2018.81 Q2037.01 2012.62 2044.83 2012.62 Q2048.22 2012.62 2051.05 2013.85 Q2053.91 2015.06 2055.33 2017.04 Q2056.74 2019.02 2057.31 2021.74 Q2057.66 2023.51 2057.66 2027.93 L2057.66 2051.02 L2051.3 2051.02 L2051.3 2028.18 Q2051.3 2024.29 2050.55 2022.38 Q2049.81 2020.43 2047.9 2019.3 Q2046.03 2018.13 2043.48 2018.13 Q2039.42 2018.13 2036.44 2020.72 Q2033.51 2023.3 2033.51 2030.51 L2033.51 2051.02 L2027.14 2051.02 Z" fill="#000000" fill-rule="nonzero" fill-opacity="1" /><path clip-path="url(#clip530)" d="M2066.25 2054.13 L2072.44 2055.05 Q2072.83 2057.92 2074.6 2059.22 Q2076.97 2060.99 2081.07 2060.99 Q2085.49 2060.99 2087.9 2059.22 Q2090.3 2057.46 2091.15 2054.27 Q2091.64 2052.33 2091.61 2046.1 Q2087.44 2051.02 2081.21 2051.02 Q2073.47 2051.02 2069.23 2045.43 Q2064.98 2039.85 2064.98 2032.03 Q2064.98 2026.66 2066.93 2022.13 Q2068.87 2017.57 2072.55 2015.09 Q2076.26 2012.62 2081.25 2012.62 Q2087.9 2012.62 2092.21 2017.99 L2092.21 2013.47 L2098.08 2013.47 L2098.08 2045.93 Q2098.08 2054.7 2096.28 2058.34 Q2094.51 2062.02 2090.62 2064.14 Q2086.76 2066.26 2081.11 2066.26 Q2074.39 2066.26 2070.25 2063.22 Q2066.11 2060.21 2066.25 2054.13 M2071.52 2031.57 Q2071.52 2038.96 2074.46 2042.36 Q2077.39 2045.75 2081.81 2045.75 Q2086.2 2045.75 2089.17 2042.39 Q2092.14 2039 2092.14 2031.78 Q2092.14 2024.89 2089.06 2021.39 Q2086.02 2017.89 2081.71 2017.89 Q2077.46 2017.89 2074.49 2021.35 Q2071.52 2024.78 2071.52 2031.57 Z" fill="#000000" fill-rule="nonzero" fill-opacity="1" /><path clip-path="url(#clip530)" d="M2141.72 2045.33 L2142.64 2050.95 Q2139.95 2051.51 2137.83 2051.51 Q2134.36 2051.51 2132.45 2050.42 Q2130.54 2049.32 2129.76 2047.55 Q2128.99 2045.75 2128.99 2040.02 L2128.99 2018.42 L2124.32 2018.42 L2124.32 2013.47 L2128.99 2013.47 L2128.99 2004.17 L2135.32 2000.35 L2135.32 2013.47 L2141.72 2013.47 L2141.72 2018.42 L2135.32 2018.42 L2135.32 2040.38 Q2135.32 2043.1 2135.63 2043.88 Q2135.99 2044.65 2136.73 2045.11 Q2137.51 2045.57 2138.92 2045.57 Q2139.98 2045.57 2141.72 2045.33 Z" fill="#000000" fill-rule="nonzero" fill-opacity="1" /><path clip-path="url(#clip530)" d="M2147.94 2051.02 L2147.94 1999.18 L2154.3 1999.18 L2154.3 2017.78 Q2158.76 2012.62 2165.55 2012.62 Q2169.72 2012.62 2172.8 2014.28 Q2175.88 2015.91 2177.18 2018.81 Q2178.53 2021.71 2178.53 2027.22 L2178.53 2051.02 L2172.16 2051.02 L2172.16 2027.22 Q2172.16 2022.45 2170.08 2020.29 Q2168.03 2018.1 2164.24 2018.1 Q2161.41 2018.1 2158.9 2019.58 Q2156.43 2021.03 2155.37 2023.54 Q2154.3 2026.05 2154.3 2030.47 L2154.3 2051.02 L2147.94 2051.02 Z" fill="#000000" fill-rule="nonzero" fill-opacity="1" /><path clip-path="url(#clip530)" d="M2213.92 2038.93 L2220.5 2039.74 Q2218.95 2045.5 2214.74 2048.69 Q2210.53 2051.87 2203.99 2051.87 Q2195.75 2051.87 2190.9 2046.81 Q2186.09 2041.72 2186.09 2032.56 Q2186.09 2023.08 2190.97 2017.85 Q2195.85 2012.62 2203.63 2012.62 Q2211.17 2012.62 2215.94 2017.74 Q2220.71 2022.87 2220.71 2032.17 Q2220.71 2032.74 2220.68 2033.87 L2192.67 2033.87 Q2193.03 2040.06 2196.17 2043.35 Q2199.32 2046.64 2204.02 2046.64 Q2207.52 2046.64 2210 2044.8 Q2212.47 2042.96 2213.92 2038.93 M2193.03 2028.64 L2214 2028.64 Q2213.57 2023.9 2211.59 2021.53 Q2208.55 2017.85 2203.7 2017.85 Q2199.32 2017.85 2196.31 2020.79 Q2193.34 2023.72 2193.03 2028.64 Z" fill="#000000" fill-rule="nonzero" fill-opacity="1" /><path clip-path="url(#clip530)" d="M2248.61 2065.41 L2248.61 2013.47 L2254.41 2013.47 L2254.41 2018.35 Q2256.46 2015.48 2259.05 2014.07 Q2261.63 2012.62 2265.3 2012.62 Q2270.11 2012.62 2273.79 2015.09 Q2277.47 2017.57 2279.34 2022.09 Q2281.22 2026.59 2281.22 2031.96 Q2281.22 2037.72 2279.13 2042.36 Q2277.08 2046.95 2273.12 2049.43 Q2269.19 2051.87 2264.84 2051.87 Q2261.66 2051.87 2259.12 2050.52 Q2256.61 2049.18 2254.98 2047.13 L2254.98 2065.41 L2248.61 2065.41 M2254.38 2032.46 Q2254.38 2039.7 2257.31 2043.17 Q2260.25 2046.64 2264.42 2046.64 Q2268.66 2046.64 2271.67 2043.06 Q2274.71 2039.46 2274.71 2031.92 Q2274.71 2024.75 2271.74 2021.17 Q2268.81 2017.6 2264.7 2017.6 Q2260.64 2017.6 2257.49 2021.42 Q2254.38 2025.21 2254.38 2032.46 Z" fill="#000000" fill-rule="nonzero" fill-opacity="1" /><path clip-path="url(#clip530)" d="M2288.82 2051.02 L2288.82 2013.47 L2294.55 2013.47 L2294.55 2019.16 Q2296.74 2015.16 2298.58 2013.89 Q2300.45 2012.62 2302.68 2012.62 Q2305.9 2012.62 2309.22 2014.67 L2307.03 2020.57 Q2304.7 2019.19 2302.36 2019.19 Q2300.28 2019.19 2298.62 2020.47 Q2296.95 2021.71 2296.25 2023.93 Q2295.19 2027.33 2295.19 2031.36 L2295.19 2051.02 L2288.82 2051.02 Z" fill="#000000" fill-rule="nonzero" fill-opacity="1" /><path clip-path="url(#clip530)" d="M2310.64 2032.24 Q2310.64 2021.81 2316.44 2016.79 Q2321.28 2012.62 2328.25 2012.62 Q2335.99 2012.62 2340.91 2017.71 Q2345.82 2022.77 2345.82 2031.71 Q2345.82 2038.96 2343.63 2043.13 Q2341.47 2047.27 2337.3 2049.57 Q2333.16 2051.87 2328.25 2051.87 Q2320.36 2051.87 2315.48 2046.81 Q2310.64 2041.76 2310.64 2032.24 M2317.18 2032.24 Q2317.18 2039.46 2320.33 2043.06 Q2323.47 2046.64 2328.25 2046.64 Q2332.99 2046.64 2336.13 2043.03 Q2339.28 2039.42 2339.28 2032.03 Q2339.28 2025.06 2336.1 2021.49 Q2332.95 2017.89 2328.25 2017.89 Q2323.47 2017.89 2320.33 2021.46 Q2317.18 2025.03 2317.18 2032.24 Z" fill="#000000" fill-rule="nonzero" fill-opacity="1" /><path clip-path="url(#clip530)" d="M2353.25 2006.57 L2353.25 1999.18 L2359.61 1999.18 L2359.61 2006.57 L2353.25 2006.57 M2345.19 2065.59 L2346.39 2060.18 Q2348.3 2060.67 2349.39 2060.67 Q2351.34 2060.67 2352.29 2059.37 Q2353.25 2058.09 2353.25 2052.93 L2353.25 2013.47 L2359.61 2013.47 L2359.61 2053.07 Q2359.61 2060 2357.81 2062.72 Q2355.51 2066.26 2350.17 2066.26 Q2347.59 2066.26 2345.19 2065.59 Z" fill="#000000" fill-rule="nonzero" fill-opacity="1" /><path clip-path="url(#clip530)" d="M2395.08 2038.93 L2401.66 2039.74 Q2400.1 2045.5 2395.89 2048.69 Q2391.69 2051.87 2385.14 2051.87 Q2376.91 2051.87 2372.06 2046.81 Q2367.25 2041.72 2367.25 2032.56 Q2367.25 2023.08 2372.13 2017.85 Q2377.01 2012.62 2384.79 2012.62 Q2392.32 2012.62 2397.1 2017.74 Q2401.87 2022.87 2401.87 2032.17 Q2401.87 2032.74 2401.84 2033.87 L2373.83 2033.87 Q2374.18 2040.06 2377.33 2043.35 Q2380.48 2046.64 2385.18 2046.64 Q2388.68 2046.64 2391.16 2044.8 Q2393.63 2042.96 2395.08 2038.93 M2374.18 2028.64 L2395.15 2028.64 Q2394.73 2023.9 2392.75 2021.53 Q2389.71 2017.85 2384.86 2017.85 Q2380.48 2017.85 2377.47 2020.79 Q2374.5 2023.72 2374.18 2028.64 Z" fill="#000000" fill-rule="nonzero" fill-opacity="1" /><path clip-path="url(#clip530)" d="M2434.16 2037.26 L2440.41 2038.08 Q2439.39 2044.55 2435.15 2048.23 Q2430.94 2051.87 2424.79 2051.87 Q2417.08 2051.87 2412.37 2046.85 Q2407.71 2041.79 2407.71 2032.38 Q2407.71 2026.3 2409.72 2021.74 Q2411.74 2017.18 2415.84 2014.92 Q2419.98 2012.62 2424.82 2012.62 Q2430.94 2012.62 2434.83 2015.73 Q2438.72 2018.81 2439.81 2024.5 L2433.63 2025.45 Q2432.74 2021.67 2430.48 2019.76 Q2428.25 2017.85 2425.07 2017.85 Q2420.26 2017.85 2417.25 2021.32 Q2414.25 2024.75 2414.25 2032.21 Q2414.25 2039.77 2417.15 2043.2 Q2420.05 2046.64 2424.71 2046.64 Q2428.46 2046.64 2430.97 2044.34 Q2433.48 2042.04 2434.16 2037.26 Z" fill="#000000" fill-rule="nonzero" fill-opacity="1" /><path clip-path="url(#clip530)" d="M2459.76 2045.33 L2460.68 2050.95 Q2457.99 2051.51 2455.87 2051.51 Q2452.4 2051.51 2450.49 2050.42 Q2448.58 2049.32 2447.81 2047.55 Q2447.03 2045.75 2447.03 2040.02 L2447.03 2018.42 L2442.36 2018.42 L2442.36 2013.47 L2447.03 2013.47 L2447.03 2004.17 L2453.36 2000.35 L2453.36 2013.47 L2459.76 2013.47 L2459.76 2018.42 L2453.36 2018.42 L2453.36 2040.38 Q2453.36 2043.1 2453.68 2043.88 Q2454.03 2044.65 2454.77 2045.11 Q2455.55 2045.57 2456.96 2045.57 Q2458.03 2045.57 2459.76 2045.33 Z" fill="#000000" fill-rule="nonzero" fill-opacity="1" /><path clip-path="url(#clip530)" d="M2466.02 2006.5 L2466.02 1999.18 L2472.38 1999.18 L2472.38 2006.5 L2466.02 2006.5 M2466.02 2051.02 L2466.02 2013.47 L2472.38 2013.47 L2472.38 2051.02 L2466.02 2051.02 Z" fill="#000000" fill-rule="nonzero" fill-opacity="1" /><path clip-path="url(#clip530)" d="M2479.7 2032.24 Q2479.7 2021.81 2485.5 2016.79 Q2490.35 2012.62 2497.31 2012.62 Q2505.06 2012.62 2509.97 2017.71 Q2514.89 2022.77 2514.89 2031.71 Q2514.89 2038.96 2512.69 2043.13 Q2510.54 2047.27 2506.36 2049.57 Q2502.23 2051.87 2497.31 2051.87 Q2489.43 2051.87 2484.55 2046.81 Q2479.7 2041.76 2479.7 2032.24 M2486.24 2032.24 Q2486.24 2039.46 2489.39 2043.06 Q2492.54 2046.64 2497.31 2046.64 Q2502.05 2046.64 2505.2 2043.03 Q2508.34 2039.42 2508.34 2032.03 Q2508.34 2025.06 2505.16 2021.49 Q2502.01 2017.89 2497.31 2017.89 Q2492.54 2017.89 2489.39 2021.46 Q2486.24 2025.03 2486.24 2032.24 Z" fill="#000000" fill-rule="nonzero" fill-opacity="1" /><path clip-path="url(#clip530)" d="M2522.35 2051.02 L2522.35 2013.47 L2528.08 2013.47 L2528.08 2018.81 Q2532.21 2012.62 2540.03 2012.62 Q2543.42 2012.62 2546.25 2013.85 Q2549.12 2015.06 2550.53 2017.04 Q2551.95 2019.02 2552.51 2021.74 Q2552.86 2023.51 2552.86 2027.93 L2552.86 2051.02 L2546.5 2051.02 L2546.5 2028.18 Q2546.5 2024.29 2545.76 2022.38 Q2545.01 2020.43 2543.1 2019.3 Q2541.23 2018.13 2538.68 2018.13 Q2534.62 2018.13 2531.65 2020.72 Q2528.71 2023.3 2528.71 2030.51 L2528.71 2051.02 L2522.35 2051.02 Z" fill="#000000" fill-rule="nonzero" fill-opacity="1" /><polyline clip-path="url(#clip530)" style="stroke:#ff0000; stroke-linecap:round; stroke-linejoin:round; stroke-width:18; stroke-opacity:1; fill:none" points="1005.77,2102.86 1188.9,2102.86 "/>
<path clip-path="url(#clip530)" d="M1238.51 2128.78 L1232.15 2128.78 L1232.15 2088.22 Q1229.85 2090.41 1226.1 2092.6 Q1222.39 2094.8 1219.42 2095.89 L1219.42 2089.74 Q1224.76 2087.23 1228.75 2083.66 Q1232.75 2080.09 1234.41 2076.73 L1238.51 2076.73 L1238.51 2128.78 Z" fill="#000000" fill-rule="nonzero" fill-opacity="1" /><path clip-path="url(#clip530)" d="M1254.81 2103.21 Q1254.81 2094.02 1256.69 2088.43 Q1258.6 2082.81 1262.31 2079.77 Q1266.06 2076.73 1271.72 2076.73 Q1275.89 2076.73 1279.04 2078.43 Q1282.18 2080.09 1284.23 2083.27 Q1286.29 2086.42 1287.45 2090.98 Q1288.62 2095.5 1288.62 2103.21 Q1288.62 2112.34 1286.75 2117.96 Q1284.87 2123.55 1281.12 2126.62 Q1277.41 2129.66 1271.72 2129.66 Q1264.22 2129.66 1259.94 2124.29 Q1254.81 2117.82 1254.81 2103.21 M1261.36 2103.21 Q1261.36 2115.98 1264.33 2120.22 Q1267.33 2124.43 1271.72 2124.43 Q1276.1 2124.43 1279.07 2120.19 Q1282.08 2115.94 1282.08 2103.21 Q1282.08 2090.41 1279.07 2086.2 Q1276.1 2082 1271.65 2082 Q1267.26 2082 1264.64 2085.71 Q1261.36 2090.45 1261.36 2103.21 Z" fill="#000000" fill-rule="nonzero" fill-opacity="1" /><path clip-path="url(#clip530)" d="M1296.29 2089.39 Q1296.29 2083.84 1299.09 2079.95 Q1301.88 2076.06 1307.18 2076.06 Q1312.06 2076.06 1315.25 2079.56 Q1318.46 2083.02 1318.46 2089.78 Q1318.46 2096.35 1315.21 2099.92 Q1311.99 2103.46 1307.25 2103.46 Q1302.55 2103.46 1299.4 2099.96 Q1296.29 2096.46 1296.29 2089.39 M1307.36 2080.44 Q1304.99 2080.44 1303.4 2082.49 Q1301.84 2084.54 1301.84 2090.02 Q1301.84 2095.01 1303.44 2097.06 Q1305.03 2099.08 1307.36 2099.08 Q1309.77 2099.08 1311.32 2097.03 Q1312.91 2094.97 1312.91 2089.53 Q1312.91 2084.51 1311.32 2082.49 Q1309.73 2080.44 1307.36 2080.44 M1307.4 2130.69 L1335.76 2076.06 L1340.92 2076.06 L1312.67 2130.69 L1307.4 2130.69 M1329.82 2116.62 Q1329.82 2111.03 1332.61 2107.17 Q1335.4 2103.28 1340.74 2103.28 Q1345.62 2103.28 1348.8 2106.78 Q1352.02 2110.25 1352.02 2117 Q1352.02 2123.58 1348.77 2127.15 Q1345.55 2130.69 1340.78 2130.69 Q1336.07 2130.69 1332.93 2127.19 Q1329.82 2123.65 1329.82 2116.62 M1340.92 2107.67 Q1338.51 2107.67 1336.92 2109.72 Q1335.37 2111.77 1335.37 2117.25 Q1335.37 2122.2 1336.96 2124.25 Q1338.55 2126.3 1340.88 2126.3 Q1343.32 2126.3 1344.88 2124.25 Q1346.47 2122.2 1346.47 2116.76 Q1346.47 2111.74 1344.88 2109.72 Q1343.29 2107.67 1340.92 2107.67 Z" fill="#000000" fill-rule="nonzero" fill-opacity="1" /><path clip-path="url(#clip530)" d="M1381.37 2143.17 L1381.37 2091.23 L1387.17 2091.23 L1387.17 2096.11 Q1389.22 2093.24 1391.8 2091.83 Q1394.39 2090.38 1398.06 2090.38 Q1402.87 2090.38 1406.55 2092.85 Q1410.23 2095.33 1412.1 2099.85 Q1413.98 2104.35 1413.98 2109.72 Q1413.98 2115.48 1411.89 2120.12 Q1409.84 2124.71 1405.88 2127.19 Q1401.95 2129.63 1397.6 2129.63 Q1394.42 2129.63 1391.87 2128.28 Q1389.36 2126.94 1387.74 2124.89 L1387.74 2143.17 L1381.37 2143.17 M1387.14 2110.22 Q1387.14 2117.46 1390.07 2120.93 Q1393.01 2124.4 1397.18 2124.4 Q1401.42 2124.4 1404.43 2120.82 Q1407.47 2117.22 1407.47 2109.68 Q1407.47 2102.51 1404.5 2098.93 Q1401.56 2095.36 1397.46 2095.36 Q1393.4 2095.36 1390.25 2099.18 Q1387.14 2102.97 1387.14 2110.22 Z" fill="#000000" fill-rule="nonzero" fill-opacity="1" /><path clip-path="url(#clip530)" d="M1447.36 2116.69 L1453.93 2117.5 Q1452.38 2123.26 1448.17 2126.45 Q1443.96 2129.63 1437.42 2129.63 Q1429.18 2129.63 1424.34 2124.57 Q1419.53 2119.48 1419.53 2110.32 Q1419.53 2100.84 1424.41 2095.61 Q1429.29 2090.38 1437.07 2090.38 Q1444.6 2090.38 1449.37 2095.5 Q1454.15 2100.63 1454.15 2109.93 Q1454.15 2110.5 1454.11 2111.63 L1426.1 2111.63 Q1426.46 2117.82 1429.61 2121.11 Q1432.75 2124.4 1437.46 2124.4 Q1440.96 2124.4 1443.43 2122.56 Q1445.91 2120.72 1447.36 2116.69 M1426.46 2106.4 L1447.43 2106.4 Q1447 2101.66 1445.02 2099.29 Q1441.98 2095.61 1437.14 2095.61 Q1432.75 2095.61 1429.75 2098.55 Q1426.78 2101.48 1426.46 2106.4 Z" fill="#000000" fill-rule="nonzero" fill-opacity="1" /><path clip-path="url(#clip530)" d="M1461.86 2128.78 L1461.86 2091.23 L1467.58 2091.23 L1467.58 2096.92 Q1469.78 2092.92 1471.62 2091.65 Q1473.49 2090.38 1475.72 2090.38 Q1478.94 2090.38 1482.26 2092.43 L1480.07 2098.33 Q1477.73 2096.95 1475.4 2096.95 Q1473.31 2096.95 1471.65 2098.23 Q1469.99 2099.47 1469.28 2101.69 Q1468.22 2105.09 1468.22 2109.12 L1468.22 2128.78 L1461.86 2128.78 Z" fill="#000000" fill-rule="nonzero" fill-opacity="1" /><path clip-path="url(#clip530)" d="M1499.94 2123.09 L1500.86 2128.71 Q1498.17 2129.27 1496.05 2129.27 Q1492.58 2129.27 1490.68 2128.18 Q1488.77 2127.08 1487.99 2125.31 Q1487.21 2123.51 1487.21 2117.78 L1487.21 2096.18 L1482.54 2096.18 L1482.54 2091.23 L1487.21 2091.23 L1487.21 2081.93 L1493.54 2078.11 L1493.54 2091.23 L1499.94 2091.23 L1499.94 2096.18 L1493.54 2096.18 L1493.54 2118.14 Q1493.54 2120.86 1493.86 2121.64 Q1494.21 2122.41 1494.95 2122.87 Q1495.73 2123.33 1497.15 2123.33 Q1498.21 2123.33 1499.94 2123.09 Z" fill="#000000" fill-rule="nonzero" fill-opacity="1" /><path clip-path="url(#clip530)" d="M1530.78 2128.78 L1530.78 2123.26 Q1526.39 2129.63 1518.86 2129.63 Q1515.53 2129.63 1512.63 2128.36 Q1509.77 2127.08 1508.36 2125.17 Q1506.98 2123.23 1506.41 2120.43 Q1506.02 2118.56 1506.02 2114.49 L1506.02 2091.23 L1512.39 2091.23 L1512.39 2112.05 Q1512.39 2117.04 1512.78 2118.77 Q1513.38 2121.28 1515.32 2122.73 Q1517.27 2124.15 1520.13 2124.15 Q1523 2124.15 1525.51 2122.7 Q1528.02 2121.21 1529.04 2118.7 Q1530.1 2116.16 1530.1 2111.35 L1530.1 2091.23 L1536.47 2091.23 L1536.47 2128.78 L1530.78 2128.78 Z" fill="#000000" fill-rule="nonzero" fill-opacity="1" /><path clip-path="url(#clip530)" d="M1546.37 2128.78 L1546.37 2091.23 L1552.1 2091.23 L1552.1 2096.92 Q1554.29 2092.92 1556.13 2091.65 Q1558 2090.38 1560.23 2090.38 Q1563.45 2090.38 1566.77 2092.43 L1564.58 2098.33 Q1562.25 2096.95 1559.91 2096.95 Q1557.83 2096.95 1556.16 2098.23 Q1554.5 2099.47 1553.8 2101.69 Q1552.73 2105.09 1552.73 2109.12 L1552.73 2128.78 L1546.37 2128.78 Z" fill="#000000" fill-rule="nonzero" fill-opacity="1" /><path clip-path="url(#clip530)" d="M1576.43 2128.78 L1570.52 2128.78 L1570.52 2076.94 L1576.89 2076.94 L1576.89 2095.43 Q1580.92 2090.38 1587.18 2090.38 Q1590.64 2090.38 1593.72 2091.79 Q1596.83 2093.17 1598.81 2095.72 Q1600.83 2098.23 1601.96 2101.8 Q1603.09 2105.37 1603.09 2109.44 Q1603.09 2119.09 1598.32 2124.36 Q1593.54 2129.63 1586.86 2129.63 Q1580.21 2129.63 1576.43 2124.08 L1576.43 2128.78 M1576.36 2109.72 Q1576.36 2116.47 1578.19 2119.48 Q1581.2 2124.4 1586.33 2124.4 Q1590.5 2124.4 1593.54 2120.79 Q1596.58 2117.15 1596.58 2109.97 Q1596.58 2102.61 1593.65 2099.11 Q1590.75 2095.61 1586.61 2095.61 Q1582.44 2095.61 1579.4 2099.25 Q1576.36 2102.86 1576.36 2109.72 Z" fill="#000000" fill-rule="nonzero" fill-opacity="1" /><path clip-path="url(#clip530)" d="M1635.34 2124.15 Q1631.8 2127.15 1628.51 2128.39 Q1625.26 2129.63 1621.51 2129.63 Q1615.32 2129.63 1612 2126.62 Q1608.68 2123.58 1608.68 2118.88 Q1608.68 2116.12 1609.91 2113.86 Q1611.19 2111.56 1613.2 2110.18 Q1615.25 2108.8 1617.8 2108.09 Q1619.67 2107.6 1623.46 2107.14 Q1631.17 2106.22 1634.81 2104.95 Q1634.84 2103.64 1634.84 2103.28 Q1634.84 2099.39 1633.04 2097.8 Q1630.6 2095.65 1625.79 2095.65 Q1621.3 2095.65 1619.14 2097.24 Q1617.02 2098.79 1616 2102.79 L1609.77 2101.94 Q1610.62 2097.94 1612.57 2095.5 Q1614.51 2093.03 1618.19 2091.72 Q1621.87 2090.38 1626.71 2090.38 Q1631.52 2090.38 1634.53 2091.51 Q1637.53 2092.64 1638.95 2094.37 Q1640.36 2096.07 1640.93 2098.69 Q1641.24 2100.31 1641.24 2104.56 L1641.24 2113.04 Q1641.24 2121.92 1641.63 2124.29 Q1642.06 2126.62 1643.26 2128.78 L1636.61 2128.78 Q1635.62 2126.8 1635.34 2124.15 M1634.81 2109.93 Q1631.34 2111.35 1624.41 2112.34 Q1620.49 2112.9 1618.86 2113.61 Q1617.23 2114.32 1616.35 2115.7 Q1615.47 2117.04 1615.47 2118.7 Q1615.47 2121.25 1617.38 2122.95 Q1619.32 2124.64 1623.03 2124.64 Q1626.71 2124.64 1629.58 2123.05 Q1632.44 2121.42 1633.78 2118.63 Q1634.81 2116.47 1634.81 2112.27 L1634.81 2109.93 Z" fill="#000000" fill-rule="nonzero" fill-opacity="1" /><path clip-path="url(#clip530)" d="M1665.01 2123.09 L1665.93 2128.71 Q1663.24 2129.27 1661.12 2129.27 Q1657.65 2129.27 1655.74 2128.18 Q1653.83 2127.08 1653.06 2125.31 Q1652.28 2123.51 1652.28 2117.78 L1652.28 2096.18 L1647.61 2096.18 L1647.61 2091.23 L1652.28 2091.23 L1652.28 2081.93 L1658.61 2078.11 L1658.61 2091.23 L1665.01 2091.23 L1665.01 2096.18 L1658.61 2096.18 L1658.61 2118.14 Q1658.61 2120.86 1658.93 2121.64 Q1659.28 2122.41 1660.02 2122.87 Q1660.8 2123.33 1662.21 2123.33 Q1663.27 2123.33 1665.01 2123.09 Z" fill="#000000" fill-rule="nonzero" fill-opacity="1" /><path clip-path="url(#clip530)" d="M1671.27 2084.26 L1671.27 2076.94 L1677.63 2076.94 L1677.63 2084.26 L1671.27 2084.26 M1671.27 2128.78 L1671.27 2091.23 L1677.63 2091.23 L1677.63 2128.78 L1671.27 2128.78 Z" fill="#000000" fill-rule="nonzero" fill-opacity="1" /><path clip-path="url(#clip530)" d="M1684.95 2110 Q1684.95 2099.57 1690.75 2094.55 Q1695.6 2090.38 1702.56 2090.38 Q1710.31 2090.38 1715.22 2095.47 Q1720.14 2100.53 1720.14 2109.47 Q1720.14 2116.72 1717.94 2120.89 Q1715.79 2125.03 1711.61 2127.33 Q1707.48 2129.63 1702.56 2129.63 Q1694.68 2129.63 1689.8 2124.57 Q1684.95 2119.52 1684.95 2110 M1691.49 2110 Q1691.49 2117.22 1694.64 2120.82 Q1697.79 2124.4 1702.56 2124.4 Q1707.3 2124.4 1710.45 2120.79 Q1713.59 2117.18 1713.59 2109.79 Q1713.59 2102.82 1710.41 2099.25 Q1707.26 2095.65 1702.56 2095.65 Q1697.79 2095.65 1694.64 2099.22 Q1691.49 2102.79 1691.49 2110 Z" fill="#000000" fill-rule="nonzero" fill-opacity="1" /><path clip-path="url(#clip530)" d="M1727.6 2128.78 L1727.6 2091.23 L1733.33 2091.23 L1733.33 2096.57 Q1737.46 2090.38 1745.28 2090.38 Q1748.67 2090.38 1751.5 2091.61 Q1754.37 2092.82 1755.78 2094.8 Q1757.19 2096.78 1757.76 2099.5 Q1758.11 2101.27 1758.11 2105.69 L1758.11 2128.78 L1751.75 2128.78 L1751.75 2105.94 Q1751.75 2102.05 1751.01 2100.14 Q1750.26 2098.19 1748.35 2097.06 Q1746.48 2095.89 1743.93 2095.89 Q1739.87 2095.89 1736.9 2098.48 Q1733.96 2101.06 1733.96 2108.27 L1733.96 2128.78 L1727.6 2128.78 Z" fill="#000000" fill-rule="nonzero" fill-opacity="1" /><path clip-path="url(#clip530)" d="M1785.45 2117.57 L1791.74 2116.58 Q1792.27 2120.36 1794.68 2122.38 Q1797.12 2124.4 1801.47 2124.4 Q1805.85 2124.4 1807.97 2122.63 Q1810.1 2120.82 1810.1 2118.42 Q1810.1 2116.26 1808.22 2115.02 Q1806.91 2114.18 1801.72 2112.87 Q1794.71 2111.1 1791.99 2109.83 Q1789.3 2108.52 1787.89 2106.25 Q1786.51 2103.96 1786.51 2101.2 Q1786.51 2098.69 1787.64 2096.57 Q1788.81 2094.41 1790.79 2092.99 Q1792.27 2091.9 1794.82 2091.16 Q1797.4 2090.38 1800.34 2090.38 Q1804.76 2090.38 1808.08 2091.65 Q1811.44 2092.92 1813.03 2095.12 Q1814.62 2097.27 1815.22 2100.91 L1809 2101.76 Q1808.58 2098.86 1806.52 2097.24 Q1804.51 2095.61 1800.8 2095.61 Q1796.41 2095.61 1794.54 2097.06 Q1792.66 2098.51 1792.66 2100.46 Q1792.66 2101.69 1793.44 2102.68 Q1794.22 2103.71 1795.88 2104.38 Q1796.84 2104.73 1801.5 2106.01 Q1808.26 2107.81 1810.91 2108.98 Q1813.6 2110.11 1815.12 2112.3 Q1816.64 2114.49 1816.64 2117.75 Q1816.64 2120.93 1814.76 2123.76 Q1812.92 2126.55 1809.42 2128.11 Q1805.92 2129.63 1801.5 2129.63 Q1794.18 2129.63 1790.33 2126.59 Q1786.51 2123.55 1785.45 2117.57 Z" fill="#000000" fill-rule="nonzero" fill-opacity="1" /><path clip-path="url(#clip530)" d="M1821.84 2110 Q1821.84 2099.57 1827.64 2094.55 Q1832.48 2090.38 1839.45 2090.38 Q1847.19 2090.38 1852.11 2095.47 Q1857.02 2100.53 1857.02 2109.47 Q1857.02 2116.72 1854.83 2120.89 Q1852.67 2125.03 1848.5 2127.33 Q1844.36 2129.63 1839.45 2129.63 Q1831.56 2129.63 1826.68 2124.57 Q1821.84 2119.52 1821.84 2110 M1828.38 2110 Q1828.38 2117.22 1831.52 2120.82 Q1834.67 2124.4 1839.45 2124.4 Q1844.18 2124.4 1847.33 2120.79 Q1850.48 2117.18 1850.48 2109.79 Q1850.48 2102.82 1847.3 2099.25 Q1844.15 2095.65 1839.45 2095.65 Q1834.67 2095.65 1831.52 2099.22 Q1828.38 2102.79 1828.38 2110 Z" fill="#000000" fill-rule="nonzero" fill-opacity="1" /><path clip-path="url(#clip530)" d="M1864.34 2128.78 L1864.34 2076.94 L1870.71 2076.94 L1870.71 2128.78 L1864.34 2128.78 Z" fill="#000000" fill-rule="nonzero" fill-opacity="1" /><path clip-path="url(#clip530)" d="M1906.28 2116.69 L1912.86 2117.5 Q1911.3 2123.26 1907.09 2126.45 Q1902.88 2129.63 1896.34 2129.63 Q1888.1 2129.63 1883.26 2124.57 Q1878.45 2119.48 1878.45 2110.32 Q1878.45 2100.84 1883.33 2095.61 Q1888.21 2090.38 1895.99 2090.38 Q1903.52 2090.38 1908.29 2095.5 Q1913.07 2100.63 1913.07 2109.93 Q1913.07 2110.5 1913.03 2111.63 L1885.03 2111.63 Q1885.38 2117.82 1888.53 2121.11 Q1891.67 2124.4 1896.38 2124.4 Q1899.88 2124.4 1902.35 2122.56 Q1904.83 2120.72 1906.28 2116.69 M1885.38 2106.4 L1906.35 2106.4 Q1905.93 2101.66 1903.95 2099.29 Q1900.9 2095.61 1896.06 2095.61 Q1891.67 2095.61 1888.67 2098.55 Q1885.7 2101.48 1885.38 2106.4 Z" fill="#000000" fill-rule="nonzero" fill-opacity="1" /><path clip-path="url(#clip530)" d="M1920.71 2128.78 L1920.71 2076.94 L1927.07 2076.94 L1927.07 2128.78 L1920.71 2128.78 Z" fill="#000000" fill-rule="nonzero" fill-opacity="1" /><path clip-path="url(#clip530)" d="M1936.65 2143.24 L1935.95 2137.27 Q1938.03 2137.83 1939.59 2137.83 Q1941.71 2137.83 1942.98 2137.13 Q1944.26 2136.42 1945.07 2135.14 Q1945.67 2134.19 1947.02 2130.41 Q1947.19 2129.88 1947.58 2128.85 L1933.33 2091.23 L1940.19 2091.23 L1948.01 2112.97 Q1949.53 2117.11 1950.73 2121.67 Q1951.82 2117.29 1953.35 2113.11 L1961.37 2091.23 L1967.74 2091.23 L1953.45 2129.42 Q1951.15 2135.6 1949.88 2137.94 Q1948.18 2141.09 1945.99 2142.54 Q1943.8 2144.02 1940.76 2144.02 Q1938.92 2144.02 1936.65 2143.24 Z" fill="#000000" fill-rule="nonzero" fill-opacity="1" /><path clip-path="url(#clip530)" d="M1990.9 2110 Q1990.9 2099.57 1996.7 2094.55 Q2001.54 2090.38 2008.51 2090.38 Q2016.25 2090.38 2021.17 2095.47 Q2026.08 2100.53 2026.08 2109.47 Q2026.08 2116.72 2023.89 2120.89 Q2021.73 2125.03 2017.56 2127.33 Q2013.42 2129.63 2008.51 2129.63 Q2000.62 2129.63 1995.74 2124.57 Q1990.9 2119.52 1990.9 2110 M1997.44 2110 Q1997.44 2117.22 2000.59 2120.82 Q2003.74 2124.4 2008.51 2124.4 Q2013.25 2124.4 2016.39 2120.79 Q2019.54 2117.18 2019.54 2109.79 Q2019.54 2102.82 2016.36 2099.25 Q2013.21 2095.65 2008.51 2095.65 Q2003.74 2095.65 2000.59 2099.22 Q1997.44 2102.79 1997.44 2110 Z" fill="#000000" fill-rule="nonzero" fill-opacity="1" /><path clip-path="url(#clip530)" d="M2035.07 2128.78 L2035.07 2096.18 L2029.44 2096.18 L2029.44 2091.23 L2035.07 2091.23 L2035.07 2087.23 Q2035.07 2083.45 2035.74 2081.61 Q2036.66 2079.13 2038.96 2077.61 Q2041.29 2076.06 2045.46 2076.06 Q2048.15 2076.06 2051.4 2076.69 L2050.45 2082.24 Q2048.47 2081.89 2046.7 2081.89 Q2043.8 2081.89 2042.6 2083.13 Q2041.4 2084.37 2041.4 2087.76 L2041.4 2091.23 L2048.72 2091.23 L2048.72 2096.18 L2041.4 2096.18 L2041.4 2128.78 L2035.07 2128.78 Z" fill="#000000" fill-rule="nonzero" fill-opacity="1" /><path clip-path="url(#clip530)" d="M2101.65 2091.23 L2108.16 2091.23 Q2105.68 2099.01 2103.6 2110 Q2106.07 2123.65 2108.16 2128.78 L2101.83 2128.78 Q2100.31 2125.24 2099.53 2121.92 Q2096.59 2129.63 2087.26 2129.63 Q2080.19 2129.63 2075.87 2124.32 Q2071.56 2119.02 2071.56 2109.93 Q2071.56 2100.6 2075.87 2095.5 Q2080.22 2090.38 2087.37 2090.38 Q2091.79 2090.38 2094.58 2092.18 Q2097.37 2093.95 2099.78 2097.59 Q2100.02 2096.35 2101.65 2091.23 M2088.43 2095.65 Q2083.86 2095.65 2081.21 2099.32 Q2078.56 2103 2078.56 2109.93 Q2078.56 2116.69 2081.07 2120.54 Q2083.58 2124.4 2088.07 2124.4 Q2092.46 2124.4 2095.39 2120.61 Q2098.33 2116.79 2098.33 2109.65 Q2098.33 2102.72 2095.57 2099.18 Q2092.85 2095.65 2088.43 2095.65 Z" fill="#000000" fill-rule="nonzero" fill-opacity="1" /></svg>
