<?xml version="1.0" encoding="utf-8"?>
<svg xmlns="http://www.w3.org/2000/svg" xmlns:xlink="http://www.w3.org/1999/xlink" width="800" height="600" viewBox="0 0 3200 2400">
<defs>
  <clipPath id="clip690">
    <rect x="0" y="0" width="3200" height="2400"/>
  </clipPath>
</defs>
<path clip-path="url(#clip690)" d="M0 2400 L3200 2400 L3200 0 L0 0  Z" fill="#ffffff" fill-rule="evenodd" fill-opacity="1"/>
<defs>
  <clipPath id="clip691">
    <rect x="640" y="0" width="2241" height="2241"/>
  </clipPath>
</defs>
<path clip-path="url(#clip690)" d="M405.88 1642.95 L3152.76 1642.95 L3152.76 47.2441 L405.88 47.2441  Z" fill="#ffffff" fill-rule="evenodd" fill-opacity="1"/>
<defs>
  <clipPath id="clip692">
    <rect x="405" y="47" width="2748" height="1597"/>
  </clipPath>
</defs>
<polyline clip-path="url(#clip692)" style="stroke:#000000; stroke-linecap:round; stroke-linejoin:round; stroke-width:2; stroke-opacity:0.1; fill:none" points="483.621,1642.95 483.621,47.2441 "/>
<polyline clip-path="url(#clip692)" style="stroke:#000000; stroke-linecap:round; stroke-linejoin:round; stroke-width:2; stroke-opacity:0.1; fill:none" points="1001.9,1642.95 1001.9,47.2441 "/>
<polyline clip-path="url(#clip692)" style="stroke:#000000; stroke-linecap:round; stroke-linejoin:round; stroke-width:2; stroke-opacity:0.1; fill:none" points="1520.18,1642.95 1520.18,47.2441 "/>
<polyline clip-path="url(#clip692)" style="stroke:#000000; stroke-linecap:round; stroke-linejoin:round; stroke-width:2; stroke-opacity:0.1; fill:none" points="2038.46,1642.95 2038.46,47.2441 "/>
<polyline clip-path="url(#clip692)" style="stroke:#000000; stroke-linecap:round; stroke-linejoin:round; stroke-width:2; stroke-opacity:0.1; fill:none" points="2556.74,1642.95 2556.74,47.2441 "/>
<polyline clip-path="url(#clip692)" style="stroke:#000000; stroke-linecap:round; stroke-linejoin:round; stroke-width:2; stroke-opacity:0.1; fill:none" points="3075.01,1642.95 3075.01,47.2441 "/>
<polyline clip-path="url(#clip690)" style="stroke:#000000; stroke-linecap:round; stroke-linejoin:round; stroke-width:4; stroke-opacity:1; fill:none" points="405.88,1642.95 3152.76,1642.95 "/>
<polyline clip-path="url(#clip690)" style="stroke:#000000; stroke-linecap:round; stroke-linejoin:round; stroke-width:4; stroke-opacity:1; fill:none" points="483.621,1642.95 483.621,1628.81 "/>
<polyline clip-path="url(#clip690)" style="stroke:#000000; stroke-linecap:round; stroke-linejoin:round; stroke-width:4; stroke-opacity:1; fill:none" points="1001.9,1642.95 1001.9,1628.81 "/>
<polyline clip-path="url(#clip690)" style="stroke:#000000; stroke-linecap:round; stroke-linejoin:round; stroke-width:4; stroke-opacity:1; fill:none" points="1520.18,1642.95 1520.18,1628.81 "/>
<polyline clip-path="url(#clip690)" style="stroke:#000000; stroke-linecap:round; stroke-linejoin:round; stroke-width:4; stroke-opacity:1; fill:none" points="2038.46,1642.95 2038.46,1628.81 "/>
<polyline clip-path="url(#clip690)" style="stroke:#000000; stroke-linecap:round; stroke-linejoin:round; stroke-width:4; stroke-opacity:1; fill:none" points="2556.74,1642.95 2556.74,1628.81 "/>
<polyline clip-path="url(#clip690)" style="stroke:#000000; stroke-linecap:round; stroke-linejoin:round; stroke-width:4; stroke-opacity:1; fill:none" points="3075.01,1642.95 3075.01,1628.81 "/>
<path clip-path="url(#clip690)" d="M466.719 1707.78 Q466.719 1698.59 468.593 1693 Q470.502 1687.38 474.215 1684.34 Q477.964 1681.3 483.621 1681.3 Q487.794 1681.3 490.941 1682.99 Q494.088 1684.65 496.139 1687.84 Q498.19 1690.98 499.357 1695.55 Q500.524 1700.07 500.524 1707.78 Q500.524 1716.9 498.65 1722.53 Q496.776 1728.11 493.028 1731.19 Q489.315 1734.23 483.621 1734.23 Q476.125 1734.23 471.846 1728.86 Q466.719 1722.39 466.719 1707.78 M473.26 1707.78 Q473.26 1720.55 476.231 1724.79 Q479.237 1729 483.621 1729 Q488.006 1729 490.977 1724.75 Q493.982 1720.51 493.982 1707.78 Q493.982 1694.98 490.977 1690.77 Q488.006 1686.56 483.551 1686.56 Q479.166 1686.56 476.549 1690.28 Q473.26 1695.02 473.26 1707.78 Z" fill="#000000" fill-rule="nonzero" fill-opacity="1" /><path clip-path="url(#clip690)" d="M1011.45 1733.35 L1005.08 1733.35 L1005.08 1692.79 Q1002.78 1694.98 999.036 1697.17 Q995.323 1699.36 992.352 1700.46 L992.352 1694.31 Q997.692 1691.8 1001.69 1688.23 Q1005.68 1684.65 1007.35 1681.3 L1011.45 1681.3 L1011.45 1733.35 Z" fill="#000000" fill-rule="nonzero" fill-opacity="1" /><path clip-path="url(#clip690)" d="M1537.35 1727.23 L1537.35 1733.35 L1503.08 1733.35 Q1503.01 1731.05 1503.82 1728.93 Q1505.13 1725.43 1508 1722.03 Q1510.9 1718.64 1516.34 1714.18 Q1524.79 1707.25 1527.76 1703.22 Q1530.73 1699.15 1530.73 1695.55 Q1530.73 1691.76 1528.01 1689.18 Q1525.32 1686.56 1520.97 1686.56 Q1516.38 1686.56 1513.62 1689.32 Q1510.86 1692.08 1510.83 1696.96 L1504.28 1696.29 Q1504.96 1688.97 1509.34 1685.15 Q1513.72 1681.3 1521.12 1681.3 Q1528.58 1681.3 1532.93 1685.43 Q1537.28 1689.57 1537.28 1695.69 Q1537.28 1698.8 1536 1701.8 Q1534.73 1704.81 1531.76 1708.13 Q1528.82 1711.46 1521.96 1717.26 Q1516.24 1722.07 1514.61 1723.8 Q1512.98 1725.5 1511.92 1727.23 L1537.35 1727.23 Z" fill="#000000" fill-rule="nonzero" fill-opacity="1" /><path clip-path="url(#clip690)" d="M2021.48 1719.66 L2027.85 1718.81 Q2028.94 1724.22 2031.56 1726.63 Q2034.21 1729 2038 1729 Q2042.49 1729 2045.56 1725.89 Q2048.68 1722.77 2048.68 1718.18 Q2048.68 1713.79 2045.81 1710.96 Q2042.95 1708.1 2038.53 1708.1 Q2036.72 1708.1 2034.04 1708.81 L2034.74 1703.22 Q2035.38 1703.29 2035.77 1703.29 Q2039.84 1703.29 2043.09 1701.17 Q2046.34 1699.05 2046.34 1694.63 Q2046.34 1691.13 2043.97 1688.83 Q2041.6 1686.53 2037.86 1686.53 Q2034.14 1686.53 2031.67 1688.86 Q2029.19 1691.2 2028.49 1695.86 L2022.12 1694.73 Q2023.29 1688.33 2027.42 1684.83 Q2031.56 1681.3 2037.71 1681.3 Q2041.96 1681.3 2045.53 1683.13 Q2049.1 1684.94 2050.98 1688.08 Q2052.88 1691.23 2052.88 1694.77 Q2052.88 1698.13 2051.08 1700.89 Q2049.28 1703.64 2045.74 1705.27 Q2050.34 1706.33 2052.88 1709.69 Q2055.43 1713.01 2055.43 1718.04 Q2055.43 1724.83 2050.48 1729.56 Q2045.53 1734.27 2037.96 1734.27 Q2031.14 1734.27 2026.61 1730.2 Q2022.12 1726.13 2021.48 1719.66 Z" fill="#000000" fill-rule="nonzero" fill-opacity="1" /><path clip-path="url(#clip690)" d="M2561.3 1733.35 L2561.3 1720.94 L2538.81 1720.94 L2538.81 1715.1 L2562.46 1681.51 L2567.66 1681.51 L2567.66 1715.1 L2574.66 1715.1 L2574.66 1720.94 L2567.66 1720.94 L2567.66 1733.35 L2561.3 1733.35 M2561.3 1715.1 L2561.3 1691.73 L2545.07 1715.1 L2561.3 1715.1 Z" fill="#000000" fill-rule="nonzero" fill-opacity="1" /><path clip-path="url(#clip690)" d="M3057.83 1719.77 L3064.51 1719.2 Q3065.25 1724.08 3067.94 1726.56 Q3070.66 1729 3074.48 1729 Q3079.08 1729 3082.26 1725.53 Q3085.45 1722.07 3085.45 1716.34 Q3085.45 1710.89 3082.37 1707.75 Q3079.33 1704.6 3074.38 1704.6 Q3071.3 1704.6 3068.83 1706.01 Q3066.35 1707.39 3064.94 1709.62 L3058.96 1708.84 L3063.98 1682.21 L3089.76 1682.21 L3089.76 1688.3 L3069.07 1688.3 L3066.28 1702.23 Q3070.95 1698.98 3076.07 1698.98 Q3082.86 1698.98 3087.53 1703.68 Q3092.2 1708.38 3092.2 1715.77 Q3092.2 1722.81 3088.1 1727.94 Q3083.11 1734.23 3074.48 1734.23 Q3067.41 1734.23 3062.92 1730.27 Q3058.46 1726.31 3057.83 1719.77 Z" fill="#000000" fill-rule="nonzero" fill-opacity="1" /><path clip-path="url(#clip690)" d="M1677.97 1825.22 L1678.89 1830.84 Q1676.2 1831.41 1674.08 1831.41 Q1670.62 1831.41 1668.71 1830.31 Q1666.8 1829.22 1666.02 1827.45 Q1665.24 1825.65 1665.24 1819.92 L1665.24 1798.31 L1660.57 1798.31 L1660.57 1793.36 L1665.24 1793.36 L1665.24 1784.06 L1671.57 1780.24 L1671.57 1793.36 L1677.97 1793.36 L1677.97 1798.31 L1671.57 1798.31 L1671.57 1820.27 Q1671.57 1822.99 1671.89 1823.77 Q1672.24 1824.55 1672.99 1825.01 Q1673.76 1825.47 1675.18 1825.47 Q1676.24 1825.47 1677.97 1825.22 Z" fill="#000000" fill-rule="nonzero" fill-opacity="1" /><path clip-path="url(#clip690)" d="M1684.23 1786.4 L1684.23 1779.08 L1690.6 1779.08 L1690.6 1786.4 L1684.23 1786.4 M1684.23 1830.92 L1684.23 1793.36 L1690.6 1793.36 L1690.6 1830.92 L1684.23 1830.92 Z" fill="#000000" fill-rule="nonzero" fill-opacity="1" /><path clip-path="url(#clip690)" d="M1700.28 1830.92 L1700.28 1793.36 L1705.98 1793.36 L1705.98 1798.63 Q1707.75 1795.87 1710.68 1794.21 Q1713.62 1792.51 1717.36 1792.51 Q1721.54 1792.51 1724.19 1794.25 Q1726.88 1795.98 1727.97 1799.09 Q1732.43 1792.51 1739.57 1792.51 Q1745.16 1792.51 1748.16 1795.62 Q1751.17 1798.7 1751.17 1805.14 L1751.17 1830.92 L1744.84 1830.92 L1744.84 1807.26 Q1744.84 1803.44 1744.2 1801.78 Q1743.6 1800.08 1741.98 1799.05 Q1740.35 1798.03 1738.16 1798.03 Q1734.2 1798.03 1731.58 1800.68 Q1728.96 1803.3 1728.96 1809.1 L1728.96 1830.92 L1722.6 1830.92 L1722.6 1806.52 Q1722.6 1802.27 1721.04 1800.15 Q1719.49 1798.03 1715.95 1798.03 Q1713.26 1798.03 1710.96 1799.44 Q1708.7 1800.86 1707.68 1803.58 Q1706.65 1806.3 1706.65 1811.43 L1706.65 1830.92 L1700.28 1830.92 Z" fill="#000000" fill-rule="nonzero" fill-opacity="1" /><path clip-path="url(#clip690)" d="M1786.32 1818.82 L1792.9 1819.63 Q1791.34 1825.4 1787.13 1828.58 Q1782.92 1831.76 1776.38 1831.76 Q1768.14 1831.76 1763.3 1826.71 Q1758.49 1821.62 1758.49 1812.46 Q1758.49 1802.98 1763.37 1797.75 Q1768.25 1792.51 1776.03 1792.51 Q1783.56 1792.51 1788.33 1797.64 Q1793.11 1802.77 1793.11 1812.07 Q1793.11 1812.63 1793.07 1813.76 L1765.07 1813.76 Q1765.42 1819.95 1768.57 1823.24 Q1771.72 1826.53 1776.42 1826.53 Q1779.92 1826.53 1782.39 1824.69 Q1784.87 1822.85 1786.32 1818.82 M1765.42 1808.53 L1786.39 1808.53 Q1785.97 1803.79 1783.99 1801.42 Q1780.94 1797.75 1776.1 1797.75 Q1771.72 1797.75 1768.71 1800.68 Q1765.74 1803.62 1765.42 1808.53 Z" fill="#000000" fill-rule="nonzero" fill-opacity="1" /><path clip-path="url(#clip690)" d="M1833.17 1846.16 Q1827.9 1839.51 1824.26 1830.6 Q1820.62 1821.69 1820.62 1812.14 Q1820.62 1803.72 1823.34 1796.01 Q1826.53 1787.07 1833.17 1778.19 L1837.73 1778.19 Q1833.46 1785.55 1832.08 1788.69 Q1829.92 1793.57 1828.68 1798.88 Q1827.16 1805.49 1827.16 1812.17 Q1827.16 1829.18 1837.73 1846.16 L1833.17 1846.16 Z" fill="#000000" fill-rule="nonzero" fill-opacity="1" /><path clip-path="url(#clip690)" d="M1844.84 1845.38 L1844.14 1839.4 Q1846.22 1839.97 1847.78 1839.97 Q1849.9 1839.97 1851.17 1839.26 Q1852.45 1838.55 1853.26 1837.28 Q1853.86 1836.33 1855.2 1832.54 Q1855.38 1832.01 1855.77 1830.99 L1841.52 1793.36 L1848.38 1793.36 L1856.19 1815.11 Q1857.71 1819.25 1858.92 1823.81 Q1860.01 1819.42 1861.53 1815.25 L1869.56 1793.36 L1875.93 1793.36 L1861.64 1831.55 Q1859.34 1837.74 1858.07 1840.07 Q1856.37 1843.22 1854.18 1844.67 Q1851.99 1846.16 1848.94 1846.16 Q1847.11 1846.16 1844.84 1845.38 Z" fill="#000000" fill-rule="nonzero" fill-opacity="1" /><path clip-path="url(#clip690)" d="M1885.51 1846.16 L1880.95 1846.16 Q1891.52 1829.18 1891.52 1812.17 Q1891.52 1805.53 1890 1798.98 Q1888.8 1793.68 1886.64 1788.8 Q1885.26 1785.62 1880.95 1778.19 L1885.51 1778.19 Q1892.16 1787.07 1895.34 1796.01 Q1898.06 1803.72 1898.06 1812.14 Q1898.06 1821.69 1894.38 1830.6 Q1890.74 1839.51 1885.51 1846.16 Z" fill="#000000" fill-rule="nonzero" fill-opacity="1" /><polyline clip-path="url(#clip692)" style="stroke:#000000; stroke-linecap:round; stroke-linejoin:round; stroke-width:2; stroke-opacity:0.1; fill:none" points="405.88,1472.88 3152.76,1472.88 "/>
<polyline clip-path="url(#clip692)" style="stroke:#000000; stroke-linecap:round; stroke-linejoin:round; stroke-width:2; stroke-opacity:0.1; fill:none" points="405.88,1257.55 3152.76,1257.55 "/>
<polyline clip-path="url(#clip692)" style="stroke:#000000; stroke-linecap:round; stroke-linejoin:round; stroke-width:2; stroke-opacity:0.1; fill:none" points="405.88,1042.22 3152.76,1042.22 "/>
<polyline clip-path="url(#clip692)" style="stroke:#000000; stroke-linecap:round; stroke-linejoin:round; stroke-width:2; stroke-opacity:0.1; fill:none" points="405.88,826.891 3152.76,826.891 "/>
<polyline clip-path="url(#clip692)" style="stroke:#000000; stroke-linecap:round; stroke-linejoin:round; stroke-width:2; stroke-opacity:0.1; fill:none" points="405.88,611.562 3152.76,611.562 "/>
<polyline clip-path="url(#clip692)" style="stroke:#000000; stroke-linecap:round; stroke-linejoin:round; stroke-width:2; stroke-opacity:0.1; fill:none" points="405.88,396.233 3152.76,396.233 "/>
<polyline clip-path="url(#clip692)" style="stroke:#000000; stroke-linecap:round; stroke-linejoin:round; stroke-width:2; stroke-opacity:0.1; fill:none" points="405.88,180.904 3152.76,180.904 "/>
<polyline clip-path="url(#clip690)" style="stroke:#000000; stroke-linecap:round; stroke-linejoin:round; stroke-width:4; stroke-opacity:1; fill:none" points="405.88,1642.95 405.88,47.2441 "/>
<polyline clip-path="url(#clip690)" style="stroke:#000000; stroke-linecap:round; stroke-linejoin:round; stroke-width:4; stroke-opacity:1; fill:none" points="405.88,1472.88 424.777,1472.88 "/>
<polyline clip-path="url(#clip690)" style="stroke:#000000; stroke-linecap:round; stroke-linejoin:round; stroke-width:4; stroke-opacity:1; fill:none" points="405.88,1257.55 424.777,1257.55 "/>
<polyline clip-path="url(#clip690)" style="stroke:#000000; stroke-linecap:round; stroke-linejoin:round; stroke-width:4; stroke-opacity:1; fill:none" points="405.88,1042.22 424.777,1042.22 "/>
<polyline clip-path="url(#clip690)" style="stroke:#000000; stroke-linecap:round; stroke-linejoin:round; stroke-width:4; stroke-opacity:1; fill:none" points="405.88,826.891 424.777,826.891 "/>
<polyline clip-path="url(#clip690)" style="stroke:#000000; stroke-linecap:round; stroke-linejoin:round; stroke-width:4; stroke-opacity:1; fill:none" points="405.88,611.562 424.777,611.562 "/>
<polyline clip-path="url(#clip690)" style="stroke:#000000; stroke-linecap:round; stroke-linejoin:round; stroke-width:4; stroke-opacity:1; fill:none" points="405.88,396.233 424.777,396.233 "/>
<polyline clip-path="url(#clip690)" style="stroke:#000000; stroke-linecap:round; stroke-linejoin:round; stroke-width:4; stroke-opacity:1; fill:none" points="405.88,180.904 424.777,180.904 "/>
<path clip-path="url(#clip690)" d="M287.652 1498.8 L281.287 1498.8 L281.287 1458.24 Q278.988 1460.43 275.24 1462.62 Q271.527 1464.82 268.556 1465.91 L268.556 1459.76 Q273.896 1457.25 277.892 1453.68 Q281.888 1450.11 283.55 1446.75 L287.652 1446.75 L287.652 1498.8 Z" fill="#000000" fill-rule="nonzero" fill-opacity="1" /><path clip-path="url(#clip690)" d="M307.525 1498.8 L307.525 1491.55 L314.774 1491.55 L314.774 1498.8 L307.525 1498.8 Z" fill="#000000" fill-rule="nonzero" fill-opacity="1" /><path clip-path="url(#clip690)" d="M324.074 1473.23 Q324.074 1464.04 325.948 1458.45 Q327.858 1452.83 331.571 1449.79 Q335.319 1446.75 340.977 1446.75 Q345.149 1446.75 348.297 1448.44 Q351.444 1450.11 353.495 1453.29 Q355.546 1456.44 356.713 1461 Q357.88 1465.52 357.88 1473.23 Q357.88 1482.36 356.005 1487.98 Q354.131 1493.57 350.383 1496.64 Q346.67 1499.68 340.977 1499.68 Q333.48 1499.68 329.201 1494.31 Q324.074 1487.84 324.074 1473.23 M330.616 1473.23 Q330.616 1486 333.586 1490.24 Q336.592 1494.45 340.977 1494.45 Q345.362 1494.45 348.332 1490.21 Q351.338 1485.96 351.338 1473.23 Q351.338 1460.43 348.332 1456.22 Q345.362 1452.02 340.906 1452.02 Q336.521 1452.02 333.904 1455.73 Q330.616 1460.47 330.616 1473.23 Z" fill="#000000" fill-rule="nonzero" fill-opacity="1" /><path clip-path="url(#clip690)" d="M288.005 1283.47 L281.64 1283.47 L281.64 1242.91 Q279.342 1245.1 275.593 1247.3 Q271.88 1249.49 268.91 1250.58 L268.91 1244.43 Q274.25 1241.92 278.245 1238.35 Q282.241 1234.78 283.903 1231.42 L288.005 1231.42 L288.005 1283.47 Z" fill="#000000" fill-rule="nonzero" fill-opacity="1" /><path clip-path="url(#clip690)" d="M307.878 1283.47 L307.878 1276.22 L315.128 1276.22 L315.128 1283.47 L307.878 1283.47 Z" fill="#000000" fill-rule="nonzero" fill-opacity="1" /><path clip-path="url(#clip690)" d="M357.88 1277.35 L357.88 1283.47 L323.614 1283.47 Q323.544 1281.17 324.357 1279.05 Q325.665 1275.55 328.53 1272.15 Q331.429 1268.76 336.875 1264.3 Q345.326 1257.37 348.297 1253.34 Q351.267 1249.28 351.267 1245.67 Q351.267 1241.88 348.544 1239.3 Q345.857 1236.69 341.507 1236.69 Q336.91 1236.69 334.152 1239.44 Q331.394 1242.2 331.358 1247.08 L324.817 1246.41 Q325.488 1239.09 329.873 1235.27 Q334.258 1231.42 341.649 1231.42 Q349.11 1231.42 353.459 1235.56 Q357.809 1239.69 357.809 1245.81 Q357.809 1248.92 356.536 1251.93 Q355.263 1254.93 352.292 1258.26 Q349.357 1261.58 342.497 1267.38 Q336.769 1272.19 335.142 1273.92 Q333.515 1275.62 332.455 1277.35 L357.88 1277.35 Z" fill="#000000" fill-rule="nonzero" fill-opacity="1" /><path clip-path="url(#clip690)" d="M287.687 1068.14 L281.322 1068.14 L281.322 1027.58 Q279.023 1029.77 275.275 1031.97 Q271.562 1034.16 268.592 1035.25 L268.592 1029.1 Q273.931 1026.59 277.927 1023.02 Q281.923 1019.45 283.585 1016.09 L287.687 1016.09 L287.687 1068.14 Z" fill="#000000" fill-rule="nonzero" fill-opacity="1" /><path clip-path="url(#clip690)" d="M307.56 1068.14 L307.56 1060.89 L314.809 1060.89 L314.809 1068.14 L307.56 1068.14 Z" fill="#000000" fill-rule="nonzero" fill-opacity="1" /><path clip-path="url(#clip690)" d="M344.513 1068.14 L344.513 1055.73 L322.023 1055.73 L322.023 1049.89 L345.68 1016.3 L350.878 1016.3 L350.878 1049.89 L357.88 1049.89 L357.88 1055.73 L350.878 1055.73 L350.878 1068.14 L344.513 1068.14 M344.513 1049.89 L344.513 1026.52 L328.282 1049.89 L344.513 1049.89 Z" fill="#000000" fill-rule="nonzero" fill-opacity="1" /><path clip-path="url(#clip690)" d="M287.51 852.811 L281.145 852.811 L281.145 812.252 Q278.847 814.444 275.098 816.637 Q271.385 818.829 268.415 819.925 L268.415 813.772 Q273.755 811.262 277.75 807.69 Q281.746 804.119 283.408 800.759 L287.51 800.759 L287.51 852.811 Z" fill="#000000" fill-rule="nonzero" fill-opacity="1" /><path clip-path="url(#clip690)" d="M307.383 852.811 L307.383 845.562 L314.632 845.562 L314.632 852.811 L307.383 852.811 Z" fill="#000000" fill-rule="nonzero" fill-opacity="1" /><path clip-path="url(#clip690)" d="M356.96 813.666 L350.63 814.161 Q349.782 810.413 348.226 808.716 Q345.645 805.993 341.861 805.993 Q338.82 805.993 336.521 807.69 Q333.515 809.883 331.783 814.091 Q330.05 818.299 329.979 826.078 Q332.278 822.577 335.602 820.88 Q338.926 819.183 342.568 819.183 Q348.933 819.183 353.389 823.886 Q357.88 828.553 357.88 835.979 Q357.88 840.859 355.758 845.067 Q353.672 849.24 349.994 851.468 Q346.316 853.695 341.649 853.695 Q333.692 853.695 328.671 847.861 Q323.65 841.991 323.65 828.553 Q323.65 813.525 329.201 806.7 Q334.046 800.759 342.25 800.759 Q348.367 800.759 352.257 804.189 Q356.182 807.619 356.96 813.666 M330.969 836.015 Q330.969 839.303 332.349 842.309 Q333.763 845.315 336.274 846.906 Q338.784 848.462 341.543 848.462 Q345.574 848.462 348.473 845.209 Q351.373 841.955 351.373 836.368 Q351.373 830.993 348.509 827.917 Q345.645 824.805 341.295 824.805 Q336.981 824.805 333.975 827.917 Q330.969 830.993 330.969 836.015 Z" fill="#000000" fill-rule="nonzero" fill-opacity="1" /><path clip-path="url(#clip690)" d="M287.369 637.482 L281.004 637.482 L281.004 596.923 Q278.705 599.115 274.957 601.307 Q271.244 603.5 268.273 604.596 L268.273 598.443 Q273.613 595.932 277.609 592.361 Q281.605 588.789 283.267 585.43 L287.369 585.43 L287.369 637.482 Z" fill="#000000" fill-rule="nonzero" fill-opacity="1" /><path clip-path="url(#clip690)" d="M307.242 637.482 L307.242 630.233 L314.491 630.233 L314.491 637.482 L307.242 637.482 Z" fill="#000000" fill-rule="nonzero" fill-opacity="1" /><path clip-path="url(#clip690)" d="M333.586 609.37 Q329.626 607.92 327.716 605.232 Q325.807 602.545 325.807 598.797 Q325.807 593.139 329.873 589.284 Q333.94 585.43 340.694 585.43 Q347.483 585.43 351.621 589.391 Q355.758 593.316 355.758 598.973 Q355.758 602.58 353.848 605.268 Q351.974 607.92 348.12 609.37 Q352.894 610.926 355.369 614.391 Q357.88 617.857 357.88 622.666 Q357.88 629.314 353.177 633.84 Q348.473 638.366 340.8 638.366 Q333.127 638.366 328.423 633.84 Q323.72 629.278 323.72 622.489 Q323.72 617.432 326.266 614.038 Q328.848 610.607 333.586 609.37 M332.313 598.585 Q332.313 602.262 334.682 604.596 Q337.052 606.93 340.835 606.93 Q344.513 606.93 346.847 604.631 Q349.216 602.297 349.216 598.938 Q349.216 595.437 346.776 593.068 Q344.371 590.664 340.765 590.664 Q337.122 590.664 334.718 592.997 Q332.313 595.331 332.313 598.585 M330.262 622.524 Q330.262 625.247 331.535 627.793 Q332.844 630.339 335.39 631.754 Q337.936 633.133 340.871 633.133 Q345.432 633.133 348.403 630.198 Q351.373 627.263 351.373 622.736 Q351.373 618.139 348.297 615.134 Q345.256 612.128 340.659 612.128 Q336.168 612.128 333.197 615.098 Q330.262 618.069 330.262 622.524 Z" fill="#000000" fill-rule="nonzero" fill-opacity="1" /><path clip-path="url(#clip690)" d="M297.128 416.035 L297.128 422.153 L262.863 422.153 Q262.792 419.854 263.606 417.733 Q264.914 414.232 267.778 410.837 Q270.678 407.443 276.124 402.987 Q284.575 396.056 287.546 392.025 Q290.516 387.958 290.516 384.351 Q290.516 380.568 287.793 377.986 Q285.106 375.37 280.756 375.37 Q276.159 375.37 273.401 378.128 Q270.643 380.886 270.607 385.766 L264.065 385.094 Q264.737 377.774 269.122 373.955 Q273.507 370.101 280.898 370.101 Q288.359 370.101 292.708 374.238 Q297.058 378.375 297.058 384.493 Q297.058 387.605 295.785 390.61 Q294.512 393.616 291.541 396.94 Q288.606 400.264 281.746 406.063 Q276.018 410.873 274.391 412.605 Q272.764 414.303 271.704 416.035 L297.128 416.035 Z" fill="#000000" fill-rule="nonzero" fill-opacity="1" /><path clip-path="url(#clip690)" d="M307.525 422.153 L307.525 414.904 L314.774 414.904 L314.774 422.153 L307.525 422.153 Z" fill="#000000" fill-rule="nonzero" fill-opacity="1" /><path clip-path="url(#clip690)" d="M324.074 396.587 Q324.074 387.393 325.948 381.805 Q327.858 376.183 331.571 373.142 Q335.319 370.101 340.977 370.101 Q345.149 370.101 348.297 371.798 Q351.444 373.46 353.495 376.643 Q355.546 379.79 356.713 384.351 Q357.88 388.878 357.88 396.587 Q357.88 405.71 356.005 411.332 Q354.131 416.919 350.383 419.996 Q346.67 423.037 340.977 423.037 Q333.48 423.037 329.201 417.662 Q324.074 411.191 324.074 396.587 M330.616 396.587 Q330.616 409.352 333.586 413.595 Q336.592 417.803 340.977 417.803 Q345.362 417.803 348.332 413.56 Q351.338 409.317 351.338 396.587 Q351.338 383.786 348.332 379.578 Q345.362 375.37 340.906 375.37 Q336.521 375.37 333.904 379.083 Q330.616 383.821 330.616 396.587 Z" fill="#000000" fill-rule="nonzero" fill-opacity="1" /><path clip-path="url(#clip690)" d="M297.482 200.706 L297.482 206.824 L263.217 206.824 Q263.146 204.525 263.959 202.404 Q265.268 198.903 268.132 195.508 Q271.032 192.113 276.477 187.658 Q284.929 180.727 287.899 176.696 Q290.869 172.629 290.869 169.022 Q290.869 165.239 288.147 162.657 Q285.459 160.04 281.11 160.04 Q276.513 160.04 273.755 162.799 Q270.996 165.557 270.961 170.437 L264.419 169.765 Q265.091 162.445 269.476 158.626 Q273.861 154.772 281.251 154.772 Q288.712 154.772 293.062 158.909 Q297.411 163.046 297.411 169.164 Q297.411 172.275 296.138 175.281 Q294.865 178.287 291.895 181.611 Q288.96 184.935 282.1 190.734 Q276.371 195.543 274.745 197.276 Q273.118 198.973 272.057 200.706 L297.482 200.706 Z" fill="#000000" fill-rule="nonzero" fill-opacity="1" /><path clip-path="url(#clip690)" d="M307.878 206.824 L307.878 199.575 L315.128 199.575 L315.128 206.824 L307.878 206.824 Z" fill="#000000" fill-rule="nonzero" fill-opacity="1" /><path clip-path="url(#clip690)" d="M357.88 200.706 L357.88 206.824 L323.614 206.824 Q323.544 204.525 324.357 202.404 Q325.665 198.903 328.53 195.508 Q331.429 192.113 336.875 187.658 Q345.326 180.727 348.297 176.696 Q351.267 172.629 351.267 169.022 Q351.267 165.239 348.544 162.657 Q345.857 160.04 341.507 160.04 Q336.91 160.04 334.152 162.799 Q331.394 165.557 331.358 170.437 L324.817 169.765 Q325.488 162.445 329.873 158.626 Q334.258 154.772 341.649 154.772 Q349.11 154.772 353.459 158.909 Q357.809 163.046 357.809 169.164 Q357.809 172.275 356.536 175.281 Q355.263 178.287 352.292 181.611 Q349.357 184.935 342.497 190.734 Q336.769 195.543 335.142 197.276 Q333.515 198.973 332.455 200.706 L357.88 200.706 Z" fill="#000000" fill-rule="nonzero" fill-opacity="1" /><path clip-path="url(#clip690)" d="M213.703 877.522 L207.727 878.229 Q208.293 876.143 208.293 874.587 Q208.293 872.466 207.586 871.193 Q206.879 869.919 205.606 869.106 Q204.651 868.505 200.867 867.161 Q200.337 866.984 199.311 866.596 L161.686 880.846 L161.686 873.986 L183.434 866.171 Q187.571 864.651 192.133 863.448 Q187.748 862.352 183.575 860.832 L161.686 852.805 L161.686 846.439 L199.877 860.726 Q206.065 863.024 208.399 864.297 Q211.546 865.994 212.996 868.187 Q214.481 870.379 214.481 873.42 Q214.481 875.259 213.703 877.522 Z" fill="#000000" fill-rule="nonzero" fill-opacity="1" /><path clip-path="url(#clip690)" d="M193.123 809.345 L199.24 809.345 L199.24 843.611 Q196.942 843.681 194.82 842.868 Q191.319 841.56 187.925 838.695 Q184.53 835.796 180.074 830.35 Q173.144 821.899 169.112 818.928 Q165.046 815.958 161.439 815.958 Q157.655 815.958 155.074 818.681 Q152.457 821.368 152.457 825.718 Q152.457 830.315 155.215 833.073 Q157.974 835.831 162.853 835.866 L162.182 842.408 Q154.862 841.736 151.043 837.352 Q147.188 832.967 147.188 825.576 Q147.188 818.115 151.326 813.765 Q155.463 809.416 161.58 809.416 Q164.692 809.416 167.698 810.689 Q170.704 811.962 174.028 814.932 Q177.352 817.867 183.151 824.727 Q187.96 830.456 189.693 832.083 Q191.39 833.709 193.123 834.77 L193.123 809.345 Z" fill="#000000" fill-rule="nonzero" fill-opacity="1" /><polyline clip-path="url(#clip692)" style="stroke:#90ee90; stroke-linecap:round; stroke-linejoin:round; stroke-width:40; stroke-opacity:1; fill:none" points="483.621,891.73 488.804,879.615 493.987,867.504 499.17,855.402 504.353,843.313 509.535,831.244 514.718,819.199 519.901,807.183 525.084,795.202 530.266,783.26 535.449,771.362 540.632,759.514 545.815,747.719 550.998,735.982 556.18,724.309 561.363,712.702 566.546,701.167 571.729,689.709 576.912,678.33 582.094,667.036 587.277,655.829 592.46,644.715 597.643,633.698 602.825,622.779 608.008,611.965 613.191,601.257 618.374,590.661 623.557,580.178 628.739,569.813 633.922,559.569 639.105,549.448 644.288,539.455 649.471,529.593 654.653,519.864 659.836,510.271 665.019,500.818 670.202,491.508 675.384,482.343 680.567,473.326 685.75,464.459 690.933,455.747 696.116,447.191 701.298,438.794 706.481,430.56 711.664,422.489 716.847,414.586 722.03,406.853 727.212,399.293 732.395,391.908 737.578,384.7 742.761,377.673 747.943,370.829 753.126,364.171 758.309,357.701 763.492,351.422 768.675,345.337 773.857,339.449 779.04,333.76 784.223,328.272 789.406,322.989 794.589,317.914 799.771,313.048 804.954,308.396 810.137,303.959 815.32,299.741 820.502,295.744 825.685,291.972 830.868,288.426 836.051,285.111 841.234,282.028 846.416,279.18 851.599,276.572 856.782,274.204 861.965,272.08 867.148,270.203 872.33,268.575 877.513,267.199 882.696,266.077 887.879,265.212 893.061,264.607 898.244,264.262 903.427,264.182 908.61,264.366 913.793,264.818 918.975,265.539 924.158,266.529 929.341,267.792 934.524,269.327 939.706,271.134 944.889,273.216 950.072,275.571 955.255,278.201 960.438,281.103 965.62,284.279 970.803,287.726 975.986,291.443 981.169,295.43 986.352,299.682 991.534,304.199 996.717,308.977 1001.9,314.014 1007.08,319.305 1012.27,324.847 1017.45,330.635 1022.63,336.666 1027.81,342.933 1033,349.433 1038.18,356.159 1043.36,363.106 1048.55,370.268 1053.73,377.638 1058.91,385.209 1064.09,392.976 1069.28,400.931 1074.46,409.067 1079.64,417.377 1084.82,425.854 1090.01,434.49 1095.19,443.278 1100.37,452.21 1105.56,461.279 1110.74,470.478 1115.92,479.798 1121.1,489.233 1126.29,498.776 1131.47,508.418 1136.65,518.154 1141.84,527.975 1147.02,537.875 1152.2,547.847 1157.38,557.885 1162.57,567.982 1167.75,578.132 1172.93,588.329 1178.11,598.566 1183.3,608.838 1188.48,619.139 1193.66,629.464 1198.85,639.808 1204.03,650.166 1209.21,660.532 1214.39,670.902 1219.58,681.272 1224.76,691.637 1229.94,701.993 1235.13,712.336 1240.31,722.662 1245.49,732.968 1250.67,743.25 1255.86,753.505 1261.04,763.729 1266.22,773.921 1271.4,784.076 1276.59,794.192 1281.77,804.266 1286.95,814.297 1292.14,824.281 1297.32,834.217 1302.5,844.102 1307.68,853.935 1312.87,863.713 1318.05,873.435 1323.23,883.1 1328.42,892.705 1333.6,902.249 1338.78,911.732 1343.96,921.151 1349.15,930.505 1354.33,939.794 1359.51,949.017 1364.69,958.171 1369.88,967.258 1375.06,976.275 1380.24,985.222 1385.43,994.098 1390.61,1002.9 1395.79,1011.64 1400.97,1020.3 1406.16,1028.89 1411.34,1037.4 1416.52,1045.84 1421.71,1054.21 1426.89,1062.51 1432.07,1070.72 1437.25,1078.87 1442.44,1086.94 1447.62,1094.94 1452.8,1102.86 1457.99,1110.7 1463.17,1118.47 1468.35,1126.17 1473.53,1133.79 1478.72,1141.34 1483.9,1148.81 1489.08,1156.21 1494.26,1163.53 1499.45,1170.78 1504.63,1177.95 1509.81,1185.05 1515,1192.08 1520.18,1199.03 1525.36,1205.91 1530.54,1212.72 1535.73,1219.46 1540.91,1226.12 1546.09,1232.71 1551.28,1239.23 1556.46,1245.68 1561.64,1252.05 1566.82,1258.36 1572.01,1264.59 1577.19,1270.76 1582.37,1276.85 1587.55,1282.88 1592.74,1288.84 1597.92,1294.73 1603.1,1300.55 1608.29,1306.3 1613.47,1311.99 1618.65,1317.6 1623.83,1323.16 1629.02,1328.64 1634.2,1334.06 1639.38,1339.42 1644.57,1344.71 1649.75,1349.93 1654.93,1355.1 1660.11,1360.19 1665.3,1365.23 1670.48,1370.2 1675.66,1375.11 1680.84,1379.96 1686.03,1384.75 1691.21,1389.47 1696.39,1394.13 1701.58,1398.74 1706.76,1403.28 1711.94,1407.77 1717.12,1412.19 1722.31,1416.56 1727.49,1420.87 1732.67,1425.12 1737.86,1429.31 1743.04,1433.45 1748.22,1437.52 1753.4,1441.55 1758.59,1445.51 1763.77,1449.42 1768.95,1453.28 1774.13,1457.08 1779.32,1460.82 1784.5,1464.51 1789.68,1468.15 1794.87,1471.73 1800.05,1475.26 1805.23,1478.74 1810.41,1482.16 1815.6,1485.53 1820.78,1488.85 1825.96,1492.12 1831.15,1495.34 1836.33,1498.5 1841.51,1501.61 1846.69,1504.67 1851.88,1507.69 1857.06,1510.65 1862.24,1513.56 1867.43,1516.42 1872.61,1519.23 1877.79,1521.99 1882.97,1524.7 1888.16,1527.36 1893.34,1529.98 1898.52,1532.54 1903.7,1535.06 1908.89,1537.53 1914.07,1539.94 1919.25,1542.31 1924.44,1544.64 1929.62,1546.91 1934.8,1549.14 1939.98,1551.31 1945.17,1553.44 1950.35,1555.52 1955.53,1557.56 1960.72,1559.54 1965.9,1561.48 1971.08,1563.37 1976.26,1565.21 1981.45,1567 1986.63,1568.75 1991.81,1570.44 1996.99,1572.09 2002.18,1573.69 2007.36,1575.24 2012.54,1576.74 2017.73,1578.2 2022.91,1579.6 2028.09,1580.96 2033.27,1582.26 2038.46,1583.52 2043.64,1584.72 2048.82,1585.88 2054.01,1586.98 2059.19,1588.04 2064.37,1589.04 2069.55,1589.99 2074.74,1590.89 2079.92,1591.73 2085.1,1592.53 2090.28,1593.27 2095.47,1593.95 2100.65,1594.58 2105.83,1595.16 2111.02,1595.68 2116.2,1596.15 2121.38,1596.56 2126.56,1596.91 2131.75,1597.2 2136.93,1597.44 2142.11,1597.62 2147.3,1597.73 2152.48,1597.79 2157.66,1597.78 2162.84,1597.71 2168.03,1597.58 2173.21,1597.38 2178.39,1597.12 2183.58,1596.79 2188.76,1596.39 2193.94,1595.93 2199.12,1595.39 2204.31,1594.79 2209.49,1594.11 2214.67,1593.36 2219.85,1592.53 2225.04,1591.63 2230.22,1590.65 2235.4,1589.6 2240.59,1588.46 2245.77,1587.24 2250.95,1585.94 2256.13,1584.56 2261.32,1583.09 2266.5,1581.53 2271.68,1579.88 2276.87,1578.14 2282.05,1576.31 2287.23,1574.38 2292.41,1572.36 2297.6,1570.24 2302.78,1568.02 2307.96,1565.69 2313.14,1563.26 2318.33,1560.73 2323.51,1558.08 2328.69,1555.33 2333.88,1552.46 2339.06,1549.48 2344.24,1546.38 2349.42,1543.16 2354.61,1539.82 2359.79,1536.36 2364.97,1532.77 2370.16,1529.05 2375.34,1525.2 2380.52,1521.22 2385.7,1517.1 2390.89,1512.84 2396.07,1508.44 2401.25,1503.91 2406.43,1499.22 2411.62,1494.39 2416.8,1489.41 2421.98,1484.28 2427.17,1479 2432.35,1473.56 2437.53,1467.96 2442.71,1462.2 2447.9,1456.28 2453.08,1450.2 2458.26,1443.96 2463.45,1437.54 2468.63,1430.96 2473.81,1424.22 2478.99,1417.3 2484.18,1410.21 2489.36,1402.95 2494.54,1395.51 2499.72,1387.9 2504.91,1380.12 2510.09,1372.16 2515.27,1364.03 2520.46,1355.73 2525.64,1347.25 2530.82,1338.6 2536,1329.78 2541.19,1320.79 2546.37,1311.62 2551.55,1302.29 2556.74,1292.79 2561.92,1283.13 2567.1,1273.3 2572.28,1263.32 2577.47,1253.17 2582.65,1242.88 2587.83,1232.43 2593.02,1221.83 2598.2,1211.09 2603.38,1200.2 2608.56,1189.18 2613.75,1178.03 2618.93,1166.74 2624.11,1155.34 2629.29,1143.81 2634.48,1132.17 2639.66,1120.42 2644.84,1108.56 2650.03,1096.61 2655.21,1084.56 2660.39,1072.42 2665.57,1060.2 2670.76,1047.91 2675.94,1035.54 2681.12,1023.1 2686.31,1010.61 2691.49,998.062 2696.67,985.466 2701.85,972.828 2707.04,960.153 2712.22,947.448 2717.4,934.719 2722.58,921.971 2727.77,909.21 2732.95,896.442 2738.13,883.674 2743.32,870.909 2748.5,858.155 2753.68,845.416 2758.86,832.699 2764.05,820.008 2769.23,807.349 2774.41,794.727 2779.6,782.147 2784.78,769.615 2789.96,757.135 2795.14,744.712 2800.33,732.351 2805.51,720.056 2810.69,707.833 2815.87,695.685 2821.06,683.616 2826.24,671.633 2831.42,659.737 2836.61,647.934 2841.79,636.227 2846.97,624.62 2852.15,613.117 2857.34,601.721 2862.52,590.437 2867.7,579.267 2872.89,568.215 2878.07,557.285 2883.25,546.479 2888.43,535.801 2893.62,525.253 2898.8,514.84 2903.98,504.563 2909.16,494.426 2914.35,484.431 2919.53,474.582 2924.71,464.881 2929.9,455.331 2935.08,445.933 2940.26,436.692 2945.44,427.61 2950.63,418.688 2955.81,409.931 2960.99,401.339 2966.18,392.917 2971.36,384.665 2976.54,376.587 2981.72,368.685 2986.91,360.961 2992.09,353.419 2997.27,346.06 3002.46,338.887 3007.64,331.903 3012.82,325.109 3018,318.509 3023.19,312.105 3028.37,305.9 3033.55,299.896 3038.73,294.096 3043.92,288.502 3049.1,283.118 3054.28,277.946 3059.47,272.989 3064.65,268.249 3069.83,263.73 3075.01,259.434 "/>
<polyline clip-path="url(#clip692)" style="stroke:#0000ff; stroke-linecap:round; stroke-linejoin:round; stroke-width:12; stroke-opacity:1; fill:none" points="483.621,891.73 488.804,879.669 493.987,867.611 499.17,855.56 504.353,843.524 509.535,831.506 514.718,819.513 519.901,807.548 525.084,795.618 530.266,783.727 535.449,771.88 540.632,760.081 545.815,748.337 550.998,736.651 556.18,725.028 561.363,713.472 566.546,701.988 571.729,690.58 576.912,679.253 582.094,668.01 587.277,656.855 592.46,645.793 597.643,634.828 602.825,623.962 608.008,613.201 613.191,602.547 618.374,592.003 623.557,581.575 628.739,571.264 633.922,561.075 639.105,551.01 644.288,541.072 649.471,531.266 654.653,521.593 659.836,512.057 665.019,502.661 670.202,493.408 675.384,484.3 680.567,475.341 685.75,466.533 690.933,457.879 696.116,449.382 701.298,441.044 706.481,432.868 711.664,424.856 716.847,417.012 722.03,409.337 727.212,401.835 732.395,394.508 737.578,387.358 742.761,380.389 747.943,373.602 753.126,367 758.309,360.586 763.492,354.363 768.675,348.332 773.857,342.497 779.04,336.859 784.223,331.422 789.406,326.189 794.589,321.161 799.771,316.342 804.954,311.733 810.137,307.338 815.32,303.16 820.502,299.2 825.685,295.462 830.868,291.948 836.051,288.661 841.234,285.603 846.416,282.777 851.599,280.185 856.782,277.83 861.965,275.715 867.148,273.842 872.33,272.213 877.513,270.831 882.696,269.698 887.879,268.816 893.061,268.186 898.244,267.812 903.427,267.695 908.61,267.836 913.793,268.238 918.975,268.901 924.158,269.826 929.341,271.016 934.524,272.469 939.706,274.189 944.889,276.173 950.072,278.423 955.255,280.939 960.438,283.719 965.62,286.764 970.803,290.073 975.986,293.643 981.169,297.474 986.352,301.564 991.534,305.91 996.717,310.509 1001.9,315.36 1007.08,320.458 1012.27,325.801 1017.45,331.384 1022.63,337.203 1027.81,343.254 1033,349.532 1038.18,356.032 1043.36,362.749 1048.55,369.677 1053.73,376.811 1058.91,384.145 1064.09,391.672 1069.28,399.387 1074.46,407.282 1079.64,415.351 1084.82,423.588 1090.01,431.985 1095.19,440.536 1100.37,449.234 1105.56,458.072 1110.74,467.042 1115.92,476.138 1121.1,485.354 1126.29,494.681 1131.47,504.113 1136.65,513.644 1141.84,523.266 1147.02,532.973 1152.2,542.759 1157.38,552.617 1162.57,562.54 1167.75,572.524 1172.93,582.561 1178.11,592.646 1183.3,602.773 1188.48,612.937 1193.66,623.132 1198.85,633.353 1204.03,643.595 1209.21,653.853 1214.39,664.123 1219.58,674.399 1224.76,684.678 1229.94,694.955 1235.13,705.227 1240.31,715.488 1245.49,725.736 1250.67,735.967 1255.86,746.177 1261.04,756.363 1266.22,766.522 1271.4,776.651 1276.59,786.747 1281.77,796.807 1286.95,806.829 1292.14,816.81 1297.32,826.748 1302.5,836.64 1307.68,846.485 1312.87,856.28 1318.05,866.023 1323.23,875.713 1328.42,885.348 1333.6,894.926 1338.78,904.446 1343.96,913.906 1349.15,923.305 1354.33,932.641 1359.51,941.914 1364.69,951.123 1369.88,960.266 1375.06,969.342 1380.24,978.35 1385.43,987.291 1390.61,996.162 1395.79,1004.96 1400.97,1013.69 1406.16,1022.35 1411.34,1030.94 1416.52,1039.46 1421.71,1047.9 1426.89,1056.27 1432.07,1064.57 1437.25,1072.79 1442.44,1080.94 1447.62,1089.02 1452.8,1097.02 1457.99,1104.95 1463.17,1112.8 1468.35,1120.58 1473.53,1128.29 1478.72,1135.92 1483.9,1143.47 1489.08,1150.95 1494.26,1158.36 1499.45,1165.69 1504.63,1172.94 1509.81,1180.13 1515,1187.23 1520.18,1194.27 1525.36,1201.23 1530.54,1208.12 1535.73,1214.93 1540.91,1221.67 1546.09,1228.34 1551.28,1234.94 1556.46,1241.46 1561.64,1247.91 1566.82,1254.29 1572.01,1260.6 1577.19,1266.84 1582.37,1273 1587.55,1279.1 1592.74,1285.13 1597.92,1291.08 1603.1,1296.97 1608.29,1302.79 1613.47,1308.54 1618.65,1314.22 1623.83,1319.84 1629.02,1325.38 1634.2,1330.86 1639.38,1336.28 1644.57,1341.62 1649.75,1346.91 1654.93,1352.12 1660.11,1357.27 1665.3,1362.36 1670.48,1367.38 1675.66,1372.34 1680.84,1377.24 1686.03,1382.07 1691.21,1386.84 1696.39,1391.55 1701.58,1396.19 1706.76,1400.78 1711.94,1405.3 1717.12,1409.77 1722.31,1414.17 1727.49,1418.52 1732.67,1422.8 1737.86,1427.03 1743.04,1431.2 1748.22,1435.31 1753.4,1439.36 1758.59,1443.35 1763.77,1447.29 1768.95,1451.17 1774.13,1455 1779.32,1458.77 1784.5,1462.48 1789.68,1466.14 1794.87,1469.74 1800.05,1473.29 1805.23,1476.79 1810.41,1480.23 1815.6,1483.62 1820.78,1486.95 1825.96,1490.23 1831.15,1493.46 1836.33,1496.64 1841.51,1499.77 1846.69,1502.84 1851.88,1505.86 1857.06,1508.83 1862.24,1511.75 1867.43,1514.62 1872.61,1517.44 1877.79,1520.21 1882.97,1522.92 1888.16,1525.59 1893.34,1528.21 1898.52,1530.78 1903.7,1533.3 1908.89,1535.77 1914.07,1538.19 1919.25,1540.57 1924.44,1542.89 1929.62,1545.17 1934.8,1547.39 1939.98,1549.57 1945.17,1551.7 1950.35,1553.79 1955.53,1555.82 1960.72,1557.81 1965.9,1559.75 1971.08,1561.64 1976.26,1563.48 1981.45,1565.27 1986.63,1567.02 1991.81,1568.72 1996.99,1570.37 2002.18,1571.97 2007.36,1573.53 2012.54,1575.03 2017.73,1576.49 2022.91,1577.9 2028.09,1579.26 2033.27,1580.57 2038.46,1581.84 2043.64,1583.05 2048.82,1584.21 2054.01,1585.33 2059.19,1586.39 2064.37,1587.41 2069.55,1588.37 2074.74,1589.29 2079.92,1590.15 2085.1,1590.96 2090.28,1591.72 2095.47,1592.43 2100.65,1593.09 2105.83,1593.69 2111.02,1594.24 2116.2,1594.73 2121.38,1595.17 2126.56,1595.56 2131.75,1595.89 2136.93,1596.16 2142.11,1596.38 2147.3,1596.54 2152.48,1596.64 2157.66,1596.68 2162.84,1596.66 2168.03,1596.59 2173.21,1596.45 2178.39,1596.25 2183.58,1595.98 2188.76,1595.66 2193.94,1595.26 2199.12,1594.81 2204.31,1594.28 2209.49,1593.69 2214.67,1593.03 2219.85,1592.3 2225.04,1591.5 2230.22,1590.63 2235.4,1589.68 2240.59,1588.66 2245.77,1587.56 2250.95,1586.39 2256.13,1585.13 2261.32,1583.8 2266.5,1582.38 2271.68,1580.89 2276.87,1579.3 2282.05,1577.63 2287.23,1575.88 2292.41,1574.03 2297.6,1572.09 2302.78,1570.06 2307.96,1567.93 2313.14,1565.71 2318.33,1563.39 2323.51,1560.97 2328.69,1558.44 2333.88,1555.82 2339.06,1553.08 2344.24,1550.24 2349.42,1547.28 2354.61,1544.22 2359.79,1541.03 2364.97,1537.74 2370.16,1534.32 2375.34,1530.78 2380.52,1527.11 2385.7,1523.33 2390.89,1519.41 2396.07,1515.36 2401.25,1511.18 2406.43,1506.86 2411.62,1502.41 2416.8,1497.82 2421.98,1493.08 2427.17,1488.21 2432.35,1483.18 2437.53,1478.01 2442.71,1472.69 2447.9,1467.21 2453.08,1461.58 2458.26,1455.79 2463.45,1449.85 2468.63,1443.75 2473.81,1437.48 2478.99,1431.05 2484.18,1424.46 2489.36,1417.7 2494.54,1410.77 2499.72,1403.68 2504.91,1396.42 2510.09,1388.98 2515.27,1381.38 2520.46,1373.6 2525.64,1365.66 2530.82,1357.54 2536,1349.25 2541.19,1340.79 2546.37,1332.16 2551.55,1323.36 2556.74,1314.39 2561.92,1305.26 2567.1,1295.95 2572.28,1286.49 2577.47,1276.86 2582.65,1267.06 2587.83,1257.11 2593.02,1247.01 2598.2,1236.75 2603.38,1226.34 2608.56,1215.78 2613.75,1205.08 2618.93,1194.24 2624.11,1183.27 2629.29,1172.16 2634.48,1160.92 2639.66,1149.56 2644.84,1138.08 2650.03,1126.49 2655.21,1114.79 2660.39,1102.98 2665.57,1091.07 2670.76,1079.08 2675.94,1066.99 2681.12,1054.82 2686.31,1042.58 2691.49,1030.26 2696.67,1017.88 2701.85,1005.44 2707.04,992.942 2712.22,980.399 2717.4,967.816 2722.58,955.196 2727.77,942.547 2732.95,929.874 2738.13,917.184 2743.32,904.481 2748.5,891.772 2753.68,879.063 2758.86,866.36 2764.05,853.667 2769.23,840.992 2774.41,828.338 2779.6,815.713 2784.78,803.12 2789.96,790.567 2795.14,778.056 2800.33,765.595 2805.51,753.186 2810.69,740.837 2815.87,728.551 2821.06,716.333 2826.24,704.188 2831.42,692.12 2836.61,680.133 2841.79,668.232 2846.97,656.422 2852.15,644.705 2857.34,633.086 2862.52,621.569 2867.7,610.158 2872.89,598.856 2878.07,587.667 2883.25,576.594 2888.43,565.641 2893.62,554.81 2898.8,544.107 2903.98,533.532 2909.16,523.091 2914.35,512.784 2919.53,502.617 2924.71,492.591 2929.9,482.709 2935.08,472.974 2940.26,463.389 2945.44,453.955 2950.63,444.677 2955.81,435.557 2960.99,426.597 2966.18,417.8 2971.36,409.168 2976.54,400.704 2981.72,392.409 2986.91,384.288 2992.09,376.341 2997.27,368.572 3002.46,360.983 3007.64,353.576 3012.82,346.354 3018,339.319 3023.19,332.473 3028.37,325.82 3033.55,319.361 3038.73,313.099 3043.92,307.036 3049.1,301.176 3054.28,295.52 3059.47,290.071 3064.65,284.831 3069.83,279.804 3075.01,274.992 "/>
<polyline clip-path="url(#clip692)" style="stroke:#ff0000; stroke-linecap:round; stroke-linejoin:round; stroke-width:12; stroke-opacity:1; fill:none" points="483.621,891.73 488.804,879.596 493.987,867.428 499.17,855.231 504.353,843.011 509.535,830.775 514.718,818.527 519.901,806.274 525.084,794.021 530.266,781.773 535.449,769.537 540.632,757.317 545.815,745.119 550.998,732.948 556.18,720.809 561.363,708.708 566.546,696.648 571.729,684.636 576.912,672.675 582.094,660.77 587.277,648.926 592.46,637.147 597.643,625.437 602.825,613.8 608.008,602.241 613.191,590.764 618.374,579.371 623.557,568.067 628.739,556.856 633.922,545.74 639.105,534.724 644.288,523.811 649.471,513.003 654.653,502.305 659.836,491.718 665.019,481.246 670.202,470.892 675.384,460.658 680.567,450.548 685.75,440.563 690.933,430.707 696.116,420.981 701.298,411.389 706.481,401.932 711.664,392.613 716.847,383.435 722.03,374.399 727.212,365.507 732.395,356.763 737.578,348.167 742.761,339.722 747.943,331.43 753.126,323.294 758.309,315.314 763.492,307.493 768.675,299.834 773.857,292.337 779.04,285.006 784.223,277.842 789.406,270.847 794.589,264.023 799.771,257.373 804.954,250.897 810.137,244.599 815.32,238.481 820.502,232.544 825.685,226.791 830.868,221.223 836.051,215.844 841.234,210.656 846.416,205.66 851.599,200.859 856.782,196.256 861.965,191.852 867.148,187.652 872.33,183.656 877.513,179.867 882.696,176.289 887.879,172.924 893.061,169.774 898.244,166.842 903.427,164.132 908.61,161.645 913.793,159.385 918.975,157.354 924.158,155.556 929.341,153.993 934.524,152.668 939.706,151.584 944.889,150.744 950.072,150.15 955.255,149.805 960.438,149.713 965.62,149.875 970.803,150.294 975.986,150.973 981.169,151.914 986.352,153.12 991.534,154.591 996.717,156.331 1001.9,158.34 1007.08,160.62 1012.27,163.173 1017.45,166 1022.63,169.1 1027.81,172.476 1033,176.126 1038.18,180.05 1043.36,184.249 1048.55,188.721 1053.73,193.465 1058.91,198.479 1064.09,203.761 1069.28,209.309 1074.46,215.121 1079.64,221.192 1084.82,227.519 1090.01,234.099 1095.19,240.927 1100.37,247.998 1105.56,255.307 1110.74,262.849 1115.92,270.617 1121.1,278.606 1126.29,286.81 1131.47,295.221 1136.65,303.833 1141.84,312.638 1147.02,321.63 1152.2,330.8 1157.38,340.142 1162.57,349.647 1167.75,359.307 1172.93,369.115 1178.11,379.063 1183.3,389.143 1188.48,399.346 1193.66,409.665 1198.85,420.093 1204.03,430.621 1209.21,441.242 1214.39,451.949 1219.58,462.733 1224.76,473.588 1229.94,484.507 1235.13,495.483 1240.31,506.509 1245.49,517.578 1250.67,528.684 1255.86,539.821 1261.04,550.984 1266.22,562.165 1271.4,573.361 1276.59,584.564 1281.77,595.771 1286.95,606.976 1292.14,618.175 1297.32,629.363 1302.5,640.535 1307.68,651.687 1312.87,662.816 1318.05,673.918 1323.23,684.988 1328.42,696.024 1333.6,707.022 1338.78,717.98 1343.96,728.893 1349.15,739.76 1354.33,750.578 1359.51,761.344 1364.69,772.055 1369.88,782.711 1375.06,793.307 1380.24,803.844 1385.43,814.318 1390.61,824.727 1395.79,835.072 1400.97,845.348 1406.16,855.557 1411.34,865.695 1416.52,875.762 1421.71,885.757 1426.89,895.678 1432.07,905.525 1437.25,915.297 1442.44,924.992 1447.62,934.611 1452.8,944.152 1457.99,953.615 1463.17,962.999 1468.35,972.304 1473.53,981.529 1478.72,990.674 1483.9,999.739 1489.08,1008.72 1494.26,1017.63 1499.45,1026.45 1504.63,1035.19 1509.81,1043.85 1515,1052.43 1520.18,1060.92 1525.36,1069.34 1530.54,1077.67 1535.73,1085.93 1540.91,1094.1 1546.09,1102.19 1551.28,1110.2 1556.46,1118.13 1561.64,1125.97 1566.82,1133.74 1572.01,1141.43 1577.19,1149.03 1582.37,1156.56 1587.55,1164.01 1592.74,1171.38 1597.92,1178.67 1603.1,1185.88 1608.29,1193.01 1613.47,1200.07 1618.65,1207.04 1623.83,1213.94 1629.02,1220.77 1634.2,1227.52 1639.38,1234.19 1644.57,1240.78 1649.75,1247.31 1654.93,1253.75 1660.11,1260.13 1665.3,1266.43 1670.48,1272.65 1675.66,1278.8 1680.84,1284.88 1686.03,1290.89 1691.21,1296.83 1696.39,1302.7 1701.58,1308.49 1706.76,1314.22 1711.94,1319.87 1717.12,1325.46 1722.31,1330.98 1727.49,1336.42 1732.67,1341.81 1737.86,1347.12 1743.04,1352.37 1748.22,1357.55 1753.4,1362.66 1758.59,1367.71 1763.77,1372.69 1768.95,1377.61 1774.13,1382.47 1779.32,1387.26 1784.5,1391.98 1789.68,1396.65 1794.87,1401.25 1800.05,1405.79 1805.23,1410.27 1810.41,1414.68 1815.6,1419.04 1820.78,1423.33 1825.96,1427.56 1831.15,1431.74 1836.33,1435.85 1841.51,1439.91 1846.69,1443.9 1851.88,1447.84 1857.06,1451.72 1862.24,1455.54 1867.43,1459.31 1872.61,1463.01 1877.79,1466.66 1882.97,1470.25 1888.16,1473.79 1893.34,1477.27 1898.52,1480.7 1903.7,1484.07 1908.89,1487.38 1914.07,1490.64 1919.25,1493.84 1924.44,1496.99 1929.62,1500.09 1934.8,1503.13 1939.98,1506.11 1945.17,1509.04 1950.35,1511.92 1955.53,1514.74 1960.72,1517.51 1965.9,1520.23 1971.08,1522.89 1976.26,1525.5 1981.45,1528.06 1986.63,1530.56 1991.81,1533.01 1996.99,1535.41 2002.18,1537.75 2007.36,1540.04 2012.54,1542.28 2017.73,1544.46 2022.91,1546.59 2028.09,1548.66 2033.27,1550.68 2038.46,1552.65 2043.64,1554.56 2048.82,1556.42 2054.01,1558.23 2059.19,1559.98 2064.37,1561.67 2069.55,1563.31 2074.74,1564.89 2079.92,1566.42 2085.1,1567.89 2090.28,1569.3 2095.47,1570.66 2100.65,1571.96 2105.83,1573.2 2111.02,1574.38 2116.2,1575.5 2121.38,1576.56 2126.56,1577.57 2131.75,1578.51 2136.93,1579.39 2142.11,1580.2 2147.3,1580.96 2152.48,1581.65 2157.66,1582.27 2162.84,1582.83 2168.03,1583.32 2173.21,1583.75 2178.39,1584.1 2183.58,1584.39 2188.76,1584.61 2193.94,1584.75 2199.12,1584.82 2204.31,1584.82 2209.49,1584.74 2214.67,1584.58 2219.85,1584.35 2225.04,1584.03 2230.22,1583.63 2235.4,1583.15 2240.59,1582.59 2245.77,1581.94 2250.95,1581.2 2256.13,1580.37 2261.32,1579.45 2266.5,1578.44 2271.68,1577.33 2276.87,1576.12 2282.05,1574.81 2287.23,1573.4 2292.41,1571.89 2297.6,1570.27 2302.78,1568.53 2307.96,1566.69 2313.14,1564.73 2318.33,1562.66 2323.51,1560.46 2328.69,1558.14 2333.88,1555.7 2339.06,1553.13 2344.24,1550.42 2349.42,1547.58 2354.61,1544.61 2359.79,1541.49 2364.97,1538.23 2370.16,1534.82 2375.34,1531.26 2380.52,1527.54 2385.7,1523.67 2390.89,1519.64 2396.07,1515.44 2401.25,1511.07 2406.43,1506.53 2411.62,1501.82 2416.8,1496.93 2421.98,1491.85 2427.17,1486.59 2432.35,1481.15 2437.53,1475.51 2442.71,1469.67 2447.9,1463.64 2453.08,1457.4 2458.26,1450.96 2463.45,1444.32 2468.63,1437.46 2473.81,1430.39 2478.99,1423.11 2484.18,1415.61 2489.36,1407.89 2494.54,1399.95 2499.72,1391.79 2504.91,1383.4 2510.09,1374.79 2515.27,1365.96 2520.46,1356.9 2525.64,1347.62 2530.82,1338.12 2536,1328.39 2541.19,1318.43 2546.37,1308.26 2551.55,1297.87 2556.74,1287.26 2561.92,1276.43 2567.1,1265.4 2572.28,1254.16 2577.47,1242.71 2582.65,1231.06 2587.83,1219.22 2593.02,1207.18 2598.2,1194.96 2603.38,1182.56 2608.56,1169.98 2613.75,1157.23 2618.93,1144.33 2624.11,1131.26 2629.29,1118.05 2634.48,1104.69 2639.66,1091.2 2644.84,1077.58 2650.03,1063.84 2655.21,1049.99 2660.39,1036.03 2665.57,1021.98 2670.76,1007.83 2675.94,993.607 2681.12,979.309 2686.31,964.944 2691.49,950.521 2696.67,936.049 2701.85,921.534 2707.04,906.986 2712.22,892.409 2717.4,877.814 2722.58,863.206 2727.77,848.593 2732.95,833.983 2738.13,819.382 2743.32,804.796 2748.5,790.233 2753.68,775.699 2758.86,761.201 2764.05,746.743 2769.23,732.334 2774.41,717.977 2779.6,703.679 2784.78,689.444 2789.96,675.28 2795.14,661.189 2800.33,647.177 2805.51,633.249 2810.69,619.409 2815.87,605.661 2821.06,592.009 2826.24,578.459 2831.42,565.012 2836.61,551.673 2841.79,538.445 2846.97,525.332 2852.15,512.336 2857.34,499.461 2862.52,486.709 2867.7,474.084 2872.89,461.587 2878.07,449.222 2883.25,436.99 2888.43,424.894 2893.62,412.935 2898.8,401.117 2903.98,389.44 2909.16,377.907 2914.35,366.518 2919.53,355.278 2924.71,344.185 2929.9,333.242 2935.08,322.45 2940.26,311.812 2945.44,301.327 2950.63,290.997 2955.81,280.824 2960.99,270.808 2966.18,260.951 2971.36,251.253 2976.54,241.717 2981.72,232.342 2986.91,223.13 2992.09,214.081 2997.27,205.198 3002.46,196.48 3007.64,187.929 3012.82,179.545 3018,171.33 3023.19,163.285 3028.37,155.411 3033.55,147.708 3038.73,140.178 3043.92,132.822 3049.1,125.641 3054.28,118.636 3059.47,111.809 3064.65,105.161 3069.83,98.6925 3075.01,92.4055 "/>
<path clip-path="url(#clip690)" d="M975.25 2180.62 L2583.39 2180.62 L2583.39 1869.58 L975.25 1869.58  Z" fill="#ffffff" fill-rule="evenodd" fill-opacity="1"/>
<polyline clip-path="url(#clip690)" style="stroke:#000000; stroke-linecap:round; stroke-linejoin:round; stroke-width:4; stroke-opacity:1; fill:none" points="975.25,2180.62 2583.39,2180.62 2583.39,1869.58 975.25,1869.58 975.25,2180.62 "/>
<polyline clip-path="url(#clip690)" style="stroke:#90ee90; stroke-linecap:round; stroke-linejoin:round; stroke-width:30; stroke-opacity:1; fill:none" points="1005.77,1947.34 1188.9,1947.34 "/>
<path clip-path="url(#clip690)" d="M1219.42 1948.01 Q1219.42 1935.1 1226.35 1927.82 Q1233.28 1920.5 1244.24 1920.5 Q1251.42 1920.5 1257.18 1923.93 Q1262.95 1927.36 1265.95 1933.51 Q1268.99 1939.63 1268.99 1947.41 Q1268.99 1955.3 1265.81 1961.52 Q1262.63 1967.74 1256.79 1970.96 Q1250.96 1974.14 1244.21 1974.14 Q1236.89 1974.14 1231.12 1970.61 Q1225.36 1967.07 1222.39 1960.95 Q1219.42 1954.84 1219.42 1948.01 M1226.49 1948.12 Q1226.49 1957.49 1231.51 1962.9 Q1236.57 1968.27 1244.17 1968.27 Q1251.91 1968.27 1256.9 1962.83 Q1261.92 1957.38 1261.92 1947.38 Q1261.92 1941.05 1259.76 1936.34 Q1257.64 1931.6 1253.51 1929.02 Q1249.4 1926.41 1244.28 1926.41 Q1236.99 1926.41 1231.72 1931.43 Q1226.49 1936.41 1226.49 1948.12 Z" fill="#000000" fill-rule="nonzero" fill-opacity="1" /><path clip-path="url(#clip690)" d="M1276.95 1973.26 L1276.95 1935.71 L1282.68 1935.71 L1282.68 1941.4 Q1284.87 1937.4 1286.71 1936.13 Q1288.58 1934.86 1290.81 1934.86 Q1294.03 1934.86 1297.35 1936.91 L1295.16 1942.81 Q1292.83 1941.43 1290.49 1941.43 Q1288.41 1941.43 1286.75 1942.71 Q1285.08 1943.95 1284.38 1946.17 Q1283.32 1949.57 1283.32 1953.6 L1283.32 1973.26 L1276.95 1973.26 Z" fill="#000000" fill-rule="nonzero" fill-opacity="1" /><path clip-path="url(#clip690)" d="M1301.17 1928.74 L1301.17 1921.42 L1307.54 1921.42 L1307.54 1928.74 L1301.17 1928.74 M1301.17 1973.26 L1301.17 1935.71 L1307.54 1935.71 L1307.54 1973.26 L1301.17 1973.26 Z" fill="#000000" fill-rule="nonzero" fill-opacity="1" /><path clip-path="url(#clip690)" d="M1316.06 1976.37 L1322.25 1977.29 Q1322.64 1980.16 1324.41 1981.46 Q1326.77 1983.23 1330.88 1983.23 Q1335.3 1983.23 1337.7 1981.46 Q1340.11 1979.7 1340.95 1976.51 Q1341.45 1974.57 1341.41 1968.34 Q1337.24 1973.26 1331.02 1973.26 Q1323.27 1973.26 1319.03 1967.67 Q1314.79 1962.09 1314.79 1954.27 Q1314.79 1948.9 1316.73 1944.37 Q1318.68 1939.81 1322.35 1937.33 Q1326.07 1934.86 1331.05 1934.86 Q1337.7 1934.86 1342.02 1940.23 L1342.02 1935.71 L1347.89 1935.71 L1347.89 1968.17 Q1347.89 1976.94 1346.08 1980.58 Q1344.31 1984.26 1340.42 1986.38 Q1336.57 1988.5 1330.91 1988.5 Q1324.19 1988.5 1320.06 1985.46 Q1315.92 1982.45 1316.06 1976.37 M1321.33 1953.81 Q1321.33 1961.2 1324.26 1964.6 Q1327.2 1967.99 1331.62 1967.99 Q1336 1967.99 1338.97 1964.63 Q1341.94 1961.24 1341.94 1954.02 Q1341.94 1947.13 1338.87 1943.63 Q1335.83 1940.13 1331.51 1940.13 Q1327.27 1940.13 1324.3 1943.59 Q1321.33 1947.02 1321.33 1953.81 Z" fill="#000000" fill-rule="nonzero" fill-opacity="1" /><path clip-path="url(#clip690)" d="M1357.54 1928.74 L1357.54 1921.42 L1363.9 1921.42 L1363.9 1928.74 L1357.54 1928.74 M1357.54 1973.26 L1357.54 1935.71 L1363.9 1935.71 L1363.9 1973.26 L1357.54 1973.26 Z" fill="#000000" fill-rule="nonzero" fill-opacity="1" /><path clip-path="url(#clip690)" d="M1373.59 1973.26 L1373.59 1935.71 L1379.32 1935.71 L1379.32 1941.05 Q1383.46 1934.86 1391.27 1934.86 Q1394.67 1934.86 1397.5 1936.09 Q1400.36 1937.3 1401.78 1939.28 Q1403.19 1941.26 1403.76 1943.98 Q1404.11 1945.75 1404.11 1950.17 L1404.11 1973.26 L1397.74 1973.26 L1397.74 1950.42 Q1397.74 1946.53 1397 1944.62 Q1396.26 1942.67 1394.35 1941.54 Q1392.48 1940.37 1389.93 1940.37 Q1385.86 1940.37 1382.89 1942.96 Q1379.96 1945.54 1379.96 1952.75 L1379.96 1973.26 L1373.59 1973.26 Z" fill="#000000" fill-rule="nonzero" fill-opacity="1" /><path clip-path="url(#clip690)" d="M1438.38 1968.63 Q1434.84 1971.63 1431.55 1972.87 Q1428.3 1974.11 1424.55 1974.11 Q1418.36 1974.11 1415.04 1971.1 Q1411.71 1968.06 1411.71 1963.36 Q1411.71 1960.6 1412.95 1958.34 Q1414.22 1956.04 1416.24 1954.66 Q1418.29 1953.28 1420.84 1952.57 Q1422.71 1952.08 1426.49 1951.62 Q1434.2 1950.7 1437.84 1949.43 Q1437.88 1948.12 1437.88 1947.76 Q1437.88 1943.87 1436.08 1942.28 Q1433.64 1940.13 1428.83 1940.13 Q1424.34 1940.13 1422.18 1941.72 Q1420.06 1943.27 1419.03 1947.27 L1412.81 1946.42 Q1413.66 1942.42 1415.6 1939.98 Q1417.55 1937.51 1421.23 1936.2 Q1424.9 1934.86 1429.75 1934.86 Q1434.56 1934.86 1437.56 1935.99 Q1440.57 1937.12 1441.98 1938.85 Q1443.4 1940.55 1443.96 1943.17 Q1444.28 1944.79 1444.28 1949.04 L1444.28 1957.52 Q1444.28 1966.4 1444.67 1968.77 Q1445.09 1971.1 1446.3 1973.26 L1439.65 1973.26 Q1438.66 1971.28 1438.38 1968.63 M1437.84 1954.41 Q1434.38 1955.83 1427.45 1956.82 Q1423.52 1957.38 1421.9 1958.09 Q1420.27 1958.8 1419.39 1960.18 Q1418.5 1961.52 1418.5 1963.18 Q1418.5 1965.73 1420.41 1967.43 Q1422.36 1969.12 1426.07 1969.12 Q1429.75 1969.12 1432.61 1967.53 Q1435.48 1965.9 1436.82 1963.11 Q1437.84 1960.95 1437.84 1956.75 L1437.84 1954.41 Z" fill="#000000" fill-rule="nonzero" fill-opacity="1" /><path clip-path="url(#clip690)" d="M1454.01 1973.26 L1454.01 1921.42 L1460.37 1921.42 L1460.37 1973.26 L1454.01 1973.26 Z" fill="#000000" fill-rule="nonzero" fill-opacity="1" /><polyline clip-path="url(#clip690)" style="stroke:#0000ff; stroke-linecap:round; stroke-linejoin:round; stroke-width:18; stroke-opacity:1; fill:none" points="1005.77,2025.1 1188.9,2025.1 "/>
<path clip-path="url(#clip690)" d="M1238.51 2051.02 L1232.15 2051.02 L1232.15 2010.46 Q1229.85 2012.65 1226.1 2014.84 Q1222.39 2017.04 1219.42 2018.13 L1219.42 2011.98 Q1224.76 2009.47 1228.75 2005.9 Q1232.75 2002.33 1234.41 1998.97 L1238.51 1998.97 L1238.51 2051.02 Z" fill="#000000" fill-rule="nonzero" fill-opacity="1" /><path clip-path="url(#clip690)" d="M1254.81 2025.45 Q1254.81 2016.26 1256.69 2010.67 Q1258.6 2005.05 1262.31 2002.01 Q1266.06 1998.97 1271.72 1998.97 Q1275.89 1998.97 1279.04 2000.67 Q1282.18 2002.33 1284.23 2005.51 Q1286.29 2008.66 1287.45 2013.22 Q1288.62 2017.74 1288.62 2025.45 Q1288.62 2034.58 1286.75 2040.2 Q1284.87 2045.79 1281.12 2048.86 Q1277.41 2051.9 1271.72 2051.9 Q1264.22 2051.9 1259.94 2046.53 Q1254.81 2040.06 1254.81 2025.45 M1261.36 2025.45 Q1261.36 2038.22 1264.33 2042.46 Q1267.33 2046.67 1271.72 2046.67 Q1276.1 2046.67 1279.07 2042.43 Q1282.08 2038.18 1282.08 2025.45 Q1282.08 2012.65 1279.07 2008.44 Q1276.1 2004.24 1271.65 2004.24 Q1267.26 2004.24 1264.64 2007.95 Q1261.36 2012.69 1261.36 2025.45 Z" fill="#000000" fill-rule="nonzero" fill-opacity="1" /><path clip-path="url(#clip690)" d="M1296.29 2011.63 Q1296.29 2006.08 1299.09 2002.19 Q1301.88 1998.3 1307.18 1998.3 Q1312.06 1998.3 1315.25 2001.8 Q1318.46 2005.26 1318.46 2012.02 Q1318.46 2018.59 1315.21 2022.16 Q1311.99 2025.7 1307.25 2025.7 Q1302.55 2025.7 1299.4 2022.2 Q1296.29 2018.7 1296.29 2011.63 M1307.36 2002.68 Q1304.99 2002.68 1303.4 2004.73 Q1301.84 2006.78 1301.84 2012.26 Q1301.84 2017.25 1303.44 2019.3 Q1305.03 2021.32 1307.36 2021.32 Q1309.77 2021.32 1311.32 2019.27 Q1312.91 2017.21 1312.91 2011.77 Q1312.91 2006.75 1311.32 2004.73 Q1309.73 2002.68 1307.36 2002.68 M1307.4 2052.93 L1335.76 1998.3 L1340.92 1998.3 L1312.67 2052.93 L1307.4 2052.93 M1329.82 2038.86 Q1329.82 2033.27 1332.61 2029.41 Q1335.4 2025.52 1340.74 2025.52 Q1345.62 2025.52 1348.8 2029.02 Q1352.02 2032.49 1352.02 2039.24 Q1352.02 2045.82 1348.77 2049.39 Q1345.55 2052.93 1340.78 2052.93 Q1336.07 2052.93 1332.93 2049.43 Q1329.82 2045.89 1329.82 2038.86 M1340.92 2029.91 Q1338.51 2029.91 1336.92 2031.96 Q1335.37 2034.01 1335.37 2039.49 Q1335.37 2044.44 1336.96 2046.49 Q1338.55 2048.54 1340.88 2048.54 Q1343.32 2048.54 1344.88 2046.49 Q1346.47 2044.44 1346.47 2039 Q1346.47 2033.98 1344.88 2031.96 Q1343.29 2029.91 1340.92 2029.91 Z" fill="#000000" fill-rule="nonzero" fill-opacity="1" /><path clip-path="url(#clip690)" d="M1381.37 2065.41 L1381.37 2013.47 L1387.17 2013.47 L1387.17 2018.35 Q1389.22 2015.48 1391.8 2014.07 Q1394.39 2012.62 1398.06 2012.62 Q1402.87 2012.62 1406.55 2015.09 Q1410.23 2017.57 1412.1 2022.09 Q1413.98 2026.59 1413.98 2031.96 Q1413.98 2037.72 1411.89 2042.36 Q1409.84 2046.95 1405.88 2049.43 Q1401.95 2051.87 1397.6 2051.87 Q1394.42 2051.87 1391.87 2050.52 Q1389.36 2049.18 1387.74 2047.13 L1387.74 2065.41 L1381.37 2065.41 M1387.14 2032.46 Q1387.14 2039.7 1390.07 2043.17 Q1393.01 2046.64 1397.18 2046.64 Q1401.42 2046.64 1404.43 2043.06 Q1407.47 2039.46 1407.47 2031.92 Q1407.47 2024.75 1404.5 2021.17 Q1401.56 2017.6 1397.46 2017.6 Q1393.4 2017.6 1390.25 2021.42 Q1387.14 2025.21 1387.14 2032.46 Z" fill="#000000" fill-rule="nonzero" fill-opacity="1" /><path clip-path="url(#clip690)" d="M1447.36 2038.93 L1453.93 2039.74 Q1452.38 2045.5 1448.17 2048.69 Q1443.96 2051.87 1437.42 2051.87 Q1429.18 2051.87 1424.34 2046.81 Q1419.53 2041.72 1419.53 2032.56 Q1419.53 2023.08 1424.41 2017.85 Q1429.29 2012.62 1437.07 2012.62 Q1444.6 2012.62 1449.37 2017.74 Q1454.15 2022.87 1454.15 2032.17 Q1454.15 2032.74 1454.11 2033.87 L1426.1 2033.87 Q1426.46 2040.06 1429.61 2043.35 Q1432.75 2046.64 1437.46 2046.64 Q1440.96 2046.64 1443.43 2044.8 Q1445.91 2042.96 1447.36 2038.93 M1426.46 2028.64 L1447.43 2028.64 Q1447 2023.9 1445.02 2021.53 Q1441.98 2017.85 1437.14 2017.85 Q1432.75 2017.85 1429.75 2020.79 Q1426.78 2023.72 1426.46 2028.64 Z" fill="#000000" fill-rule="nonzero" fill-opacity="1" /><path clip-path="url(#clip690)" d="M1461.86 2051.02 L1461.86 2013.47 L1467.58 2013.47 L1467.58 2019.16 Q1469.78 2015.16 1471.62 2013.89 Q1473.49 2012.62 1475.72 2012.62 Q1478.94 2012.62 1482.26 2014.67 L1480.07 2020.57 Q1477.73 2019.19 1475.4 2019.19 Q1473.31 2019.19 1471.65 2020.47 Q1469.99 2021.71 1469.28 2023.93 Q1468.22 2027.33 1468.22 2031.36 L1468.22 2051.02 L1461.86 2051.02 Z" fill="#000000" fill-rule="nonzero" fill-opacity="1" /><path clip-path="url(#clip690)" d="M1499.94 2045.33 L1500.86 2050.95 Q1498.17 2051.51 1496.05 2051.51 Q1492.58 2051.51 1490.68 2050.42 Q1488.77 2049.32 1487.99 2047.55 Q1487.21 2045.75 1487.21 2040.02 L1487.21 2018.42 L1482.54 2018.42 L1482.54 2013.47 L1487.21 2013.47 L1487.21 2004.17 L1493.54 2000.35 L1493.54 2013.47 L1499.94 2013.47 L1499.94 2018.42 L1493.54 2018.42 L1493.54 2040.38 Q1493.54 2043.1 1493.86 2043.88 Q1494.21 2044.65 1494.95 2045.11 Q1495.73 2045.57 1497.15 2045.57 Q1498.21 2045.57 1499.94 2045.33 Z" fill="#000000" fill-rule="nonzero" fill-opacity="1" /><path clip-path="url(#clip690)" d="M1530.78 2051.02 L1530.78 2045.5 Q1526.39 2051.87 1518.86 2051.87 Q1515.53 2051.87 1512.63 2050.6 Q1509.77 2049.32 1508.36 2047.41 Q1506.98 2045.47 1506.41 2042.67 Q1506.02 2040.8 1506.02 2036.73 L1506.02 2013.47 L1512.39 2013.47 L1512.39 2034.29 Q1512.39 2039.28 1512.78 2041.01 Q1513.38 2043.52 1515.32 2044.97 Q1517.27 2046.39 1520.13 2046.39 Q1523 2046.39 1525.51 2044.94 Q1528.02 2043.45 1529.04 2040.94 Q1530.1 2038.4 1530.1 2033.59 L1530.1 2013.47 L1536.47 2013.47 L1536.47 2051.02 L1530.78 2051.02 Z" fill="#000000" fill-rule="nonzero" fill-opacity="1" /><path clip-path="url(#clip690)" d="M1546.37 2051.02 L1546.37 2013.47 L1552.1 2013.47 L1552.1 2019.16 Q1554.29 2015.16 1556.13 2013.89 Q1558 2012.62 1560.23 2012.62 Q1563.45 2012.62 1566.77 2014.67 L1564.58 2020.57 Q1562.25 2019.19 1559.91 2019.19 Q1557.83 2019.19 1556.16 2020.47 Q1554.5 2021.71 1553.8 2023.93 Q1552.73 2027.33 1552.73 2031.36 L1552.73 2051.02 L1546.37 2051.02 Z" fill="#000000" fill-rule="nonzero" fill-opacity="1" /><path clip-path="url(#clip690)" d="M1576.43 2051.02 L1570.52 2051.02 L1570.52 1999.18 L1576.89 1999.18 L1576.89 2017.67 Q1580.92 2012.62 1587.18 2012.62 Q1590.64 2012.62 1593.72 2014.03 Q1596.83 2015.41 1598.81 2017.96 Q1600.83 2020.47 1601.96 2024.04 Q1603.09 2027.61 1603.09 2031.68 Q1603.09 2041.33 1598.32 2046.6 Q1593.54 2051.87 1586.86 2051.87 Q1580.21 2051.87 1576.43 2046.32 L1576.43 2051.02 M1576.36 2031.96 Q1576.36 2038.71 1578.19 2041.72 Q1581.2 2046.64 1586.33 2046.64 Q1590.5 2046.64 1593.54 2043.03 Q1596.58 2039.39 1596.58 2032.21 Q1596.58 2024.85 1593.65 2021.35 Q1590.75 2017.85 1586.61 2017.85 Q1582.44 2017.85 1579.4 2021.49 Q1576.36 2025.1 1576.36 2031.96 Z" fill="#000000" fill-rule="nonzero" fill-opacity="1" /><path clip-path="url(#clip690)" d="M1635.34 2046.39 Q1631.8 2049.39 1628.51 2050.63 Q1625.26 2051.87 1621.51 2051.87 Q1615.32 2051.87 1612 2048.86 Q1608.68 2045.82 1608.68 2041.12 Q1608.68 2038.36 1609.91 2036.1 Q1611.19 2033.8 1613.2 2032.42 Q1615.25 2031.04 1617.8 2030.33 Q1619.67 2029.84 1623.46 2029.38 Q1631.17 2028.46 1634.81 2027.19 Q1634.84 2025.88 1634.84 2025.52 Q1634.84 2021.63 1633.04 2020.04 Q1630.6 2017.89 1625.79 2017.89 Q1621.3 2017.89 1619.14 2019.48 Q1617.02 2021.03 1616 2025.03 L1609.77 2024.18 Q1610.62 2020.18 1612.57 2017.74 Q1614.51 2015.27 1618.19 2013.96 Q1621.87 2012.62 1626.71 2012.62 Q1631.52 2012.62 1634.53 2013.75 Q1637.53 2014.88 1638.95 2016.61 Q1640.36 2018.31 1640.93 2020.93 Q1641.24 2022.55 1641.24 2026.8 L1641.24 2035.28 Q1641.24 2044.16 1641.63 2046.53 Q1642.06 2048.86 1643.26 2051.02 L1636.61 2051.02 Q1635.62 2049.04 1635.34 2046.39 M1634.81 2032.17 Q1631.34 2033.59 1624.41 2034.58 Q1620.49 2035.14 1618.86 2035.85 Q1617.23 2036.56 1616.35 2037.94 Q1615.47 2039.28 1615.47 2040.94 Q1615.47 2043.49 1617.38 2045.19 Q1619.32 2046.88 1623.03 2046.88 Q1626.71 2046.88 1629.58 2045.29 Q1632.44 2043.66 1633.78 2040.87 Q1634.81 2038.71 1634.81 2034.51 L1634.81 2032.17 Z" fill="#000000" fill-rule="nonzero" fill-opacity="1" /><path clip-path="url(#clip690)" d="M1665.01 2045.33 L1665.93 2050.95 Q1663.24 2051.51 1661.12 2051.51 Q1657.65 2051.51 1655.74 2050.42 Q1653.83 2049.32 1653.06 2047.55 Q1652.28 2045.75 1652.28 2040.02 L1652.28 2018.42 L1647.61 2018.42 L1647.61 2013.47 L1652.28 2013.47 L1652.28 2004.17 L1658.61 2000.35 L1658.61 2013.47 L1665.01 2013.47 L1665.01 2018.42 L1658.61 2018.42 L1658.61 2040.38 Q1658.61 2043.1 1658.93 2043.88 Q1659.28 2044.65 1660.02 2045.11 Q1660.8 2045.57 1662.21 2045.57 Q1663.27 2045.57 1665.01 2045.33 Z" fill="#000000" fill-rule="nonzero" fill-opacity="1" /><path clip-path="url(#clip690)" d="M1671.27 2006.5 L1671.27 1999.18 L1677.63 1999.18 L1677.63 2006.5 L1671.27 2006.5 M1671.27 2051.02 L1671.27 2013.47 L1677.63 2013.47 L1677.63 2051.02 L1671.27 2051.02 Z" fill="#000000" fill-rule="nonzero" fill-opacity="1" /><path clip-path="url(#clip690)" d="M1684.95 2032.24 Q1684.95 2021.81 1690.75 2016.79 Q1695.6 2012.62 1702.56 2012.62 Q1710.31 2012.62 1715.22 2017.71 Q1720.14 2022.77 1720.14 2031.71 Q1720.14 2038.96 1717.94 2043.13 Q1715.79 2047.27 1711.61 2049.57 Q1707.48 2051.87 1702.56 2051.87 Q1694.68 2051.87 1689.8 2046.81 Q1684.95 2041.76 1684.95 2032.24 M1691.49 2032.24 Q1691.49 2039.46 1694.64 2043.06 Q1697.79 2046.64 1702.56 2046.64 Q1707.3 2046.64 1710.45 2043.03 Q1713.59 2039.42 1713.59 2032.03 Q1713.59 2025.06 1710.41 2021.49 Q1707.26 2017.89 1702.56 2017.89 Q1697.79 2017.89 1694.64 2021.46 Q1691.49 2025.03 1691.49 2032.24 Z" fill="#000000" fill-rule="nonzero" fill-opacity="1" /><path clip-path="url(#clip690)" d="M1727.6 2051.02 L1727.6 2013.47 L1733.33 2013.47 L1733.33 2018.81 Q1737.46 2012.62 1745.28 2012.62 Q1748.67 2012.62 1751.5 2013.85 Q1754.37 2015.06 1755.78 2017.04 Q1757.19 2019.02 1757.76 2021.74 Q1758.11 2023.51 1758.11 2027.93 L1758.11 2051.02 L1751.75 2051.02 L1751.75 2028.18 Q1751.75 2024.29 1751.01 2022.38 Q1750.26 2020.43 1748.35 2019.3 Q1746.48 2018.13 1743.93 2018.13 Q1739.87 2018.13 1736.9 2020.72 Q1733.96 2023.3 1733.96 2030.51 L1733.96 2051.02 L1727.6 2051.02 Z" fill="#000000" fill-rule="nonzero" fill-opacity="1" /><path clip-path="url(#clip690)" d="M1785.63 2032.24 Q1785.63 2021.81 1791.42 2016.79 Q1796.27 2012.62 1803.24 2012.62 Q1810.98 2012.62 1815.9 2017.71 Q1820.81 2022.77 1820.81 2031.71 Q1820.81 2038.96 1818.62 2043.13 Q1816.46 2047.27 1812.29 2049.57 Q1808.15 2051.87 1803.24 2051.87 Q1795.35 2051.87 1790.47 2046.81 Q1785.63 2041.76 1785.63 2032.24 M1792.17 2032.24 Q1792.17 2039.46 1795.31 2043.06 Q1798.46 2046.64 1803.24 2046.64 Q1807.97 2046.64 1811.12 2043.03 Q1814.27 2039.42 1814.27 2032.03 Q1814.27 2025.06 1811.09 2021.49 Q1807.94 2017.89 1803.24 2017.89 Q1798.46 2017.89 1795.31 2021.46 Q1792.17 2025.03 1792.17 2032.24 Z" fill="#000000" fill-rule="nonzero" fill-opacity="1" /><path clip-path="url(#clip690)" d="M1829.79 2051.02 L1829.79 2018.42 L1824.17 2018.42 L1824.17 2013.47 L1829.79 2013.47 L1829.79 2009.47 Q1829.79 2005.69 1830.46 2003.85 Q1831.38 2001.37 1833.68 1999.85 Q1836.02 1998.3 1840.19 1998.3 Q1842.88 1998.3 1846.13 1998.93 L1845.17 2004.48 Q1843.19 2004.13 1841.43 2004.13 Q1838.53 2004.13 1837.32 2005.37 Q1836.12 2006.61 1836.12 2010 L1836.12 2013.47 L1843.44 2013.47 L1843.44 2018.42 L1836.12 2018.42 L1836.12 2051.02 L1829.79 2051.02 Z" fill="#000000" fill-rule="nonzero" fill-opacity="1" /><path clip-path="url(#clip690)" d="M1896.38 2013.47 L1902.88 2013.47 Q1900.41 2021.25 1898.32 2032.24 Q1900.8 2045.89 1902.88 2051.02 L1896.55 2051.02 Q1895.03 2047.48 1894.26 2044.16 Q1891.32 2051.87 1881.99 2051.87 Q1874.91 2051.87 1870.6 2046.56 Q1866.29 2041.26 1866.29 2032.17 Q1866.29 2022.84 1870.6 2017.74 Q1874.95 2012.62 1882.09 2012.62 Q1886.51 2012.62 1889.31 2014.42 Q1892.1 2016.19 1894.5 2019.83 Q1894.75 2018.59 1896.38 2013.47 M1883.15 2017.89 Q1878.59 2017.89 1875.94 2021.56 Q1873.29 2025.24 1873.29 2032.17 Q1873.29 2038.93 1875.8 2042.78 Q1878.31 2046.64 1882.8 2046.64 Q1887.18 2046.64 1890.12 2042.85 Q1893.05 2039.03 1893.05 2031.89 Q1893.05 2024.96 1890.3 2021.42 Q1887.57 2017.89 1883.15 2017.89 Z" fill="#000000" fill-rule="nonzero" fill-opacity="1" /><path clip-path="url(#clip690)" d="M1955.01 2046.39 Q1951.47 2049.39 1948.18 2050.63 Q1944.93 2051.87 1941.18 2051.87 Q1934.99 2051.87 1931.67 2048.86 Q1928.34 2045.82 1928.34 2041.12 Q1928.34 2038.36 1929.58 2036.1 Q1930.86 2033.8 1932.87 2032.42 Q1934.92 2031.04 1937.47 2030.33 Q1939.34 2029.84 1943.13 2029.38 Q1950.83 2028.46 1954.48 2027.19 Q1954.51 2025.88 1954.51 2025.52 Q1954.51 2021.63 1952.71 2020.04 Q1950.27 2017.89 1945.46 2017.89 Q1940.97 2017.89 1938.81 2019.48 Q1936.69 2021.03 1935.66 2025.03 L1929.44 2024.18 Q1930.29 2020.18 1932.23 2017.74 Q1934.18 2015.27 1937.86 2013.96 Q1941.53 2012.62 1946.38 2012.62 Q1951.19 2012.62 1954.19 2013.75 Q1957.2 2014.88 1958.61 2016.61 Q1960.03 2018.31 1960.59 2020.93 Q1960.91 2022.55 1960.91 2026.8 L1960.91 2035.28 Q1960.91 2044.16 1961.3 2046.53 Q1961.73 2048.86 1962.93 2051.02 L1956.28 2051.02 Q1955.29 2049.04 1955.01 2046.39 M1954.48 2032.17 Q1951.01 2033.59 1944.08 2034.58 Q1940.16 2035.14 1938.53 2035.85 Q1936.9 2036.56 1936.02 2037.94 Q1935.13 2039.28 1935.13 2040.94 Q1935.13 2043.49 1937.04 2045.19 Q1938.99 2046.88 1942.7 2046.88 Q1946.38 2046.88 1949.24 2045.29 Q1952.11 2043.66 1953.45 2040.87 Q1954.48 2038.71 1954.48 2034.51 L1954.48 2032.17 Z" fill="#000000" fill-rule="nonzero" fill-opacity="1" /><path clip-path="url(#clip690)" d="M1970.64 2051.02 L1970.64 1999.18 L1977 1999.18 L1977 2051.02 L1970.64 2051.02 Z" fill="#000000" fill-rule="nonzero" fill-opacity="1" /><path clip-path="url(#clip690)" d="M1984.5 2032.24 Q1984.5 2021.81 1990.3 2016.79 Q1995.14 2012.62 2002.11 2012.62 Q2009.85 2012.62 2014.77 2017.71 Q2019.68 2022.77 2019.68 2031.71 Q2019.68 2038.96 2017.49 2043.13 Q2015.33 2047.27 2011.16 2049.57 Q2007.02 2051.87 2002.11 2051.87 Q1994.22 2051.87 1989.34 2046.81 Q1984.5 2041.76 1984.5 2032.24 M1991.04 2032.24 Q1991.04 2039.46 1994.19 2043.06 Q1997.34 2046.64 2002.11 2046.64 Q2006.85 2046.64 2009.99 2043.03 Q2013.14 2039.42 2013.14 2032.03 Q2013.14 2025.06 2009.96 2021.49 Q2006.81 2017.89 2002.11 2017.89 Q1997.34 2017.89 1994.19 2021.46 Q1991.04 2025.03 1991.04 2032.24 Z" fill="#000000" fill-rule="nonzero" fill-opacity="1" /><path clip-path="url(#clip690)" d="M2027.14 2051.02 L2027.14 2013.47 L2032.87 2013.47 L2032.87 2018.81 Q2037.01 2012.62 2044.83 2012.62 Q2048.22 2012.62 2051.05 2013.85 Q2053.91 2015.06 2055.33 2017.04 Q2056.74 2019.02 2057.31 2021.74 Q2057.66 2023.51 2057.66 2027.93 L2057.66 2051.02 L2051.3 2051.02 L2051.3 2028.18 Q2051.3 2024.29 2050.55 2022.38 Q2049.81 2020.43 2047.9 2019.3 Q2046.03 2018.13 2043.48 2018.13 Q2039.42 2018.13 2036.44 2020.72 Q2033.51 2023.3 2033.51 2030.51 L2033.51 2051.02 L2027.14 2051.02 Z" fill="#000000" fill-rule="nonzero" fill-opacity="1" /><path clip-path="url(#clip690)" d="M2066.25 2054.13 L2072.44 2055.05 Q2072.83 2057.92 2074.6 2059.22 Q2076.97 2060.99 2081.07 2060.99 Q2085.49 2060.99 2087.9 2059.22 Q2090.3 2057.46 2091.15 2054.27 Q2091.64 2052.33 2091.61 2046.1 Q2087.44 2051.02 2081.21 2051.02 Q2073.47 2051.02 2069.23 2045.43 Q2064.98 2039.85 2064.98 2032.03 Q2064.98 2026.66 2066.93 2022.13 Q2068.87 2017.57 2072.55 2015.09 Q2076.26 2012.62 2081.25 2012.62 Q2087.9 2012.62 2092.21 2017.99 L2092.21 2013.47 L2098.08 2013.47 L2098.08 2045.93 Q2098.08 2054.7 2096.28 2058.34 Q2094.51 2062.02 2090.62 2064.14 Q2086.76 2066.26 2081.11 2066.26 Q2074.39 2066.26 2070.25 2063.22 Q2066.11 2060.21 2066.25 2054.13 M2071.52 2031.57 Q2071.52 2038.96 2074.46 2042.36 Q2077.39 2045.75 2081.81 2045.75 Q2086.2 2045.75 2089.17 2042.39 Q2092.14 2039 2092.14 2031.78 Q2092.14 2024.89 2089.06 2021.39 Q2086.02 2017.89 2081.71 2017.89 Q2077.46 2017.89 2074.49 2021.35 Q2071.52 2024.78 2071.52 2031.57 Z" fill="#000000" fill-rule="nonzero" fill-opacity="1" /><path clip-path="url(#clip690)" d="M2141.72 2045.33 L2142.64 2050.95 Q2139.95 2051.51 2137.83 2051.51 Q2134.36 2051.51 2132.45 2050.42 Q2130.54 2049.32 2129.76 2047.55 Q2128.99 2045.75 2128.99 2040.02 L2128.99 2018.42 L2124.32 2018.42 L2124.32 2013.47 L2128.99 2013.47 L2128.99 2004.17 L2135.32 2000.35 L2135.32 2013.47 L2141.72 2013.47 L2141.72 2018.42 L2135.32 2018.42 L2135.32 2040.38 Q2135.32 2043.1 2135.63 2043.88 Q2135.99 2044.65 2136.73 2045.11 Q2137.51 2045.57 2138.92 2045.57 Q2139.98 2045.57 2141.72 2045.33 Z" fill="#000000" fill-rule="nonzero" fill-opacity="1" /><path clip-path="url(#clip690)" d="M2147.94 2051.02 L2147.94 1999.18 L2154.3 1999.18 L2154.3 2017.78 Q2158.76 2012.62 2165.55 2012.62 Q2169.72 2012.62 2172.8 2014.28 Q2175.88 2015.91 2177.18 2018.81 Q2178.53 2021.71 2178.53 2027.22 L2178.53 2051.02 L2172.16 2051.02 L2172.16 2027.22 Q2172.16 2022.45 2170.08 2020.29 Q2168.03 2018.1 2164.24 2018.1 Q2161.41 2018.1 2158.9 2019.58 Q2156.43 2021.03 2155.37 2023.54 Q2154.3 2026.05 2154.3 2030.47 L2154.3 2051.02 L2147.94 2051.02 Z" fill="#000000" fill-rule="nonzero" fill-opacity="1" /><path clip-path="url(#clip690)" d="M2213.92 2038.93 L2220.5 2039.74 Q2218.95 2045.5 2214.74 2048.69 Q2210.53 2051.87 2203.99 2051.87 Q2195.75 2051.87 2190.9 2046.81 Q2186.09 2041.72 2186.09 2032.56 Q2186.09 2023.08 2190.97 2017.85 Q2195.85 2012.62 2203.63 2012.62 Q2211.17 2012.62 2215.94 2017.74 Q2220.71 2022.87 2220.71 2032.17 Q2220.71 2032.74 2220.68 2033.87 L2192.67 2033.87 Q2193.03 2040.06 2196.17 2043.35 Q2199.32 2046.64 2204.02 2046.64 Q2207.52 2046.64 2210 2044.8 Q2212.47 2042.96 2213.92 2038.93 M2193.03 2028.64 L2214 2028.64 Q2213.57 2023.9 2211.59 2021.53 Q2208.55 2017.85 2203.7 2017.85 Q2199.32 2017.85 2196.31 2020.79 Q2193.34 2023.72 2193.03 2028.64 Z" fill="#000000" fill-rule="nonzero" fill-opacity="1" /><path clip-path="url(#clip690)" d="M2248.61 2065.41 L2248.61 2013.47 L2254.41 2013.47 L2254.41 2018.35 Q2256.46 2015.48 2259.05 2014.07 Q2261.63 2012.62 2265.3 2012.62 Q2270.11 2012.62 2273.79 2015.09 Q2277.47 2017.57 2279.34 2022.09 Q2281.22 2026.59 2281.22 2031.96 Q2281.22 2037.72 2279.13 2042.36 Q2277.08 2046.95 2273.12 2049.43 Q2269.19 2051.87 2264.84 2051.87 Q2261.66 2051.87 2259.12 2050.52 Q2256.61 2049.18 2254.98 2047.13 L2254.98 2065.41 L2248.61 2065.41 M2254.38 2032.46 Q2254.38 2039.7 2257.31 2043.17 Q2260.25 2046.64 2264.42 2046.64 Q2268.66 2046.64 2271.67 2043.06 Q2274.71 2039.46 2274.71 2031.92 Q2274.71 2024.75 2271.74 2021.17 Q2268.81 2017.6 2264.7 2017.6 Q2260.64 2017.6 2257.49 2021.42 Q2254.38 2025.21 2254.38 2032.46 Z" fill="#000000" fill-rule="nonzero" fill-opacity="1" /><path clip-path="url(#clip690)" d="M2288.82 2051.02 L2288.82 2013.47 L2294.55 2013.47 L2294.55 2019.16 Q2296.74 2015.16 2298.58 2013.89 Q2300.45 2012.62 2302.68 2012.62 Q2305.9 2012.62 2309.22 2014.67 L2307.03 2020.57 Q2304.7 2019.19 2302.36 2019.19 Q2300.28 2019.19 2298.62 2020.47 Q2296.95 2021.71 2296.25 2023.93 Q2295.19 2027.33 2295.19 2031.36 L2295.19 2051.02 L2288.82 2051.02 Z" fill="#000000" fill-rule="nonzero" fill-opacity="1" /><path clip-path="url(#clip690)" d="M2310.64 2032.24 Q2310.64 2021.81 2316.44 2016.79 Q2321.28 2012.62 2328.25 2012.62 Q2335.99 2012.62 2340.91 2017.71 Q2345.82 2022.77 2345.82 2031.71 Q2345.82 2038.96 2343.63 2043.13 Q2341.47 2047.27 2337.3 2049.57 Q2333.16 2051.87 2328.25 2051.87 Q2320.36 2051.87 2315.48 2046.81 Q2310.64 2041.76 2310.64 2032.24 M2317.18 2032.24 Q2317.18 2039.46 2320.33 2043.06 Q2323.47 2046.64 2328.25 2046.64 Q2332.99 2046.64 2336.13 2043.03 Q2339.28 2039.42 2339.28 2032.03 Q2339.28 2025.06 2336.1 2021.49 Q2332.95 2017.89 2328.25 2017.89 Q2323.47 2017.89 2320.33 2021.46 Q2317.18 2025.03 2317.18 2032.24 Z" fill="#000000" fill-rule="nonzero" fill-opacity="1" /><path clip-path="url(#clip690)" d="M2353.25 2006.57 L2353.25 1999.18 L2359.61 1999.18 L2359.61 2006.57 L2353.25 2006.57 M2345.19 2065.59 L2346.39 2060.18 Q2348.3 2060.67 2349.39 2060.67 Q2351.34 2060.67 2352.29 2059.37 Q2353.25 2058.09 2353.25 2052.93 L2353.25 2013.47 L2359.61 2013.47 L2359.61 2053.07 Q2359.61 2060 2357.81 2062.72 Q2355.51 2066.26 2350.17 2066.26 Q2347.59 2066.26 2345.19 2065.59 Z" fill="#000000" fill-rule="nonzero" fill-opacity="1" /><path clip-path="url(#clip690)" d="M2395.08 2038.93 L2401.66 2039.74 Q2400.1 2045.5 2395.89 2048.69 Q2391.69 2051.87 2385.14 2051.87 Q2376.91 2051.87 2372.06 2046.81 Q2367.25 2041.72 2367.25 2032.56 Q2367.25 2023.08 2372.13 2017.85 Q2377.01 2012.62 2384.79 2012.62 Q2392.32 2012.62 2397.1 2017.74 Q2401.87 2022.87 2401.87 2032.17 Q2401.87 2032.74 2401.84 2033.87 L2373.83 2033.87 Q2374.18 2040.06 2377.33 2043.35 Q2380.48 2046.64 2385.18 2046.64 Q2388.68 2046.64 2391.16 2044.8 Q2393.63 2042.96 2395.08 2038.93 M2374.18 2028.64 L2395.15 2028.64 Q2394.73 2023.9 2392.75 2021.53 Q2389.71 2017.85 2384.86 2017.85 Q2380.48 2017.85 2377.47 2020.79 Q2374.5 2023.72 2374.18 2028.64 Z" fill="#000000" fill-rule="nonzero" fill-opacity="1" /><path clip-path="url(#clip690)" d="M2434.16 2037.26 L2440.41 2038.08 Q2439.39 2044.55 2435.15 2048.23 Q2430.94 2051.87 2424.79 2051.87 Q2417.08 2051.87 2412.37 2046.85 Q2407.71 2041.79 2407.71 2032.38 Q2407.71 2026.3 2409.72 2021.74 Q2411.74 2017.18 2415.84 2014.92 Q2419.98 2012.62 2424.82 2012.62 Q2430.94 2012.62 2434.83 2015.73 Q2438.72 2018.81 2439.81 2024.5 L2433.63 2025.45 Q2432.74 2021.67 2430.48 2019.76 Q2428.25 2017.85 2425.07 2017.85 Q2420.26 2017.85 2417.25 2021.32 Q2414.25 2024.75 2414.25 2032.21 Q2414.25 2039.77 2417.15 2043.2 Q2420.05 2046.64 2424.71 2046.64 Q2428.46 2046.64 2430.97 2044.34 Q2433.48 2042.04 2434.16 2037.26 Z" fill="#000000" fill-rule="nonzero" fill-opacity="1" /><path clip-path="url(#clip690)" d="M2459.76 2045.33 L2460.68 2050.95 Q2457.99 2051.51 2455.87 2051.51 Q2452.4 2051.51 2450.49 2050.42 Q2448.58 2049.32 2447.81 2047.55 Q2447.03 2045.75 2447.03 2040.02 L2447.03 2018.42 L2442.36 2018.42 L2442.36 2013.47 L2447.03 2013.47 L2447.03 2004.17 L2453.36 2000.35 L2453.36 2013.47 L2459.76 2013.47 L2459.76 2018.42 L2453.36 2018.42 L2453.36 2040.38 Q2453.36 2043.1 2453.68 2043.88 Q2454.03 2044.65 2454.77 2045.11 Q2455.55 2045.57 2456.96 2045.57 Q2458.03 2045.57 2459.76 2045.33 Z" fill="#000000" fill-rule="nonzero" fill-opacity="1" /><path clip-path="url(#clip690)" d="M2466.02 2006.5 L2466.02 1999.18 L2472.38 1999.18 L2472.38 2006.5 L2466.02 2006.5 M2466.02 2051.02 L2466.02 2013.47 L2472.38 2013.47 L2472.38 2051.02 L2466.02 2051.02 Z" fill="#000000" fill-rule="nonzero" fill-opacity="1" /><path clip-path="url(#clip690)" d="M2479.7 2032.24 Q2479.7 2021.81 2485.5 2016.79 Q2490.35 2012.62 2497.31 2012.62 Q2505.06 2012.62 2509.97 2017.71 Q2514.89 2022.77 2514.89 2031.71 Q2514.89 2038.96 2512.69 2043.13 Q2510.54 2047.27 2506.36 2049.57 Q2502.23 2051.87 2497.31 2051.87 Q2489.43 2051.87 2484.55 2046.81 Q2479.7 2041.76 2479.7 2032.24 M2486.24 2032.24 Q2486.24 2039.46 2489.39 2043.06 Q2492.54 2046.64 2497.31 2046.64 Q2502.05 2046.64 2505.2 2043.03 Q2508.34 2039.42 2508.34 2032.03 Q2508.34 2025.06 2505.16 2021.49 Q2502.01 2017.89 2497.31 2017.89 Q2492.54 2017.89 2489.39 2021.46 Q2486.24 2025.03 2486.24 2032.24 Z" fill="#000000" fill-rule="nonzero" fill-opacity="1" /><path clip-path="url(#clip690)" d="M2522.35 2051.02 L2522.35 2013.47 L2528.08 2013.47 L2528.08 2018.81 Q2532.21 2012.62 2540.03 2012.62 Q2543.42 2012.62 2546.25 2013.85 Q2549.12 2015.06 2550.53 2017.04 Q2551.95 2019.02 2552.51 2021.74 Q2552.86 2023.51 2552.86 2027.93 L2552.86 2051.02 L2546.5 2051.02 L2546.5 2028.18 Q2546.5 2024.29 2545.76 2022.38 Q2545.01 2020.43 2543.1 2019.3 Q2541.23 2018.13 2538.68 2018.13 Q2534.62 2018.13 2531.65 2020.72 Q2528.71 2023.3 2528.71 2030.51 L2528.71 2051.02 L2522.35 2051.02 Z" fill="#000000" fill-rule="nonzero" fill-opacity="1" /><polyline clip-path="url(#clip690)" style="stroke:#ff0000; stroke-linecap:round; stroke-linejoin:round; stroke-width:18; stroke-opacity:1; fill:none" points="1005.77,2102.86 1188.9,2102.86 "/>
<path clip-path="url(#clip690)" d="M1238.51 2128.78 L1232.15 2128.78 L1232.15 2088.22 Q1229.85 2090.41 1226.1 2092.6 Q1222.39 2094.8 1219.42 2095.89 L1219.42 2089.74 Q1224.76 2087.23 1228.75 2083.66 Q1232.75 2080.09 1234.41 2076.73 L1238.51 2076.73 L1238.51 2128.78 Z" fill="#000000" fill-rule="nonzero" fill-opacity="1" /><path clip-path="url(#clip690)" d="M1254.81 2103.21 Q1254.81 2094.02 1256.69 2088.43 Q1258.6 2082.81 1262.31 2079.77 Q1266.06 2076.73 1271.72 2076.73 Q1275.89 2076.73 1279.04 2078.43 Q1282.18 2080.09 1284.23 2083.27 Q1286.29 2086.42 1287.45 2090.98 Q1288.62 2095.5 1288.62 2103.21 Q1288.62 2112.34 1286.75 2117.96 Q1284.87 2123.55 1281.12 2126.62 Q1277.41 2129.66 1271.72 2129.66 Q1264.22 2129.66 1259.94 2124.29 Q1254.81 2117.82 1254.81 2103.21 M1261.36 2103.21 Q1261.36 2115.98 1264.33 2120.22 Q1267.33 2124.43 1271.72 2124.43 Q1276.1 2124.43 1279.07 2120.19 Q1282.08 2115.94 1282.08 2103.21 Q1282.08 2090.41 1279.07 2086.2 Q1276.1 2082 1271.65 2082 Q1267.26 2082 1264.64 2085.71 Q1261.36 2090.45 1261.36 2103.21 Z" fill="#000000" fill-rule="nonzero" fill-opacity="1" /><path clip-path="url(#clip690)" d="M1296.29 2089.39 Q1296.29 2083.84 1299.09 2079.95 Q1301.88 2076.06 1307.18 2076.06 Q1312.06 2076.06 1315.25 2079.56 Q1318.46 2083.02 1318.46 2089.78 Q1318.46 2096.35 1315.21 2099.92 Q1311.99 2103.46 1307.25 2103.46 Q1302.55 2103.46 1299.4 2099.96 Q1296.29 2096.46 1296.29 2089.39 M1307.36 2080.44 Q1304.99 2080.44 1303.4 2082.49 Q1301.84 2084.54 1301.84 2090.02 Q1301.84 2095.01 1303.44 2097.06 Q1305.03 2099.08 1307.36 2099.08 Q1309.77 2099.08 1311.32 2097.03 Q1312.91 2094.97 1312.91 2089.53 Q1312.91 2084.51 1311.32 2082.49 Q1309.73 2080.44 1307.36 2080.44 M1307.4 2130.69 L1335.76 2076.06 L1340.92 2076.06 L1312.67 2130.69 L1307.4 2130.69 M1329.82 2116.62 Q1329.82 2111.03 1332.61 2107.17 Q1335.4 2103.28 1340.74 2103.28 Q1345.62 2103.28 1348.8 2106.78 Q1352.02 2110.25 1352.02 2117 Q1352.02 2123.58 1348.77 2127.15 Q1345.55 2130.69 1340.78 2130.69 Q1336.07 2130.69 1332.93 2127.19 Q1329.82 2123.65 1329.82 2116.62 M1340.92 2107.67 Q1338.51 2107.67 1336.92 2109.72 Q1335.37 2111.77 1335.37 2117.25 Q1335.37 2122.2 1336.96 2124.25 Q1338.55 2126.3 1340.88 2126.3 Q1343.32 2126.3 1344.88 2124.25 Q1346.47 2122.2 1346.47 2116.76 Q1346.47 2111.74 1344.88 2109.72 Q1343.29 2107.67 1340.92 2107.67 Z" fill="#000000" fill-rule="nonzero" fill-opacity="1" /><path clip-path="url(#clip690)" d="M1381.37 2143.17 L1381.37 2091.23 L1387.17 2091.23 L1387.17 2096.11 Q1389.22 2093.24 1391.8 2091.83 Q1394.39 2090.38 1398.06 2090.38 Q1402.87 2090.38 1406.55 2092.85 Q1410.23 2095.33 1412.1 2099.85 Q1413.98 2104.35 1413.98 2109.72 Q1413.98 2115.48 1411.89 2120.12 Q1409.84 2124.71 1405.88 2127.19 Q1401.95 2129.63 1397.6 2129.63 Q1394.42 2129.63 1391.87 2128.28 Q1389.36 2126.94 1387.74 2124.89 L1387.74 2143.17 L1381.37 2143.17 M1387.14 2110.22 Q1387.14 2117.46 1390.07 2120.93 Q1393.01 2124.4 1397.18 2124.4 Q1401.42 2124.4 1404.43 2120.82 Q1407.47 2117.22 1407.47 2109.68 Q1407.47 2102.51 1404.5 2098.93 Q1401.56 2095.36 1397.46 2095.36 Q1393.4 2095.36 1390.25 2099.18 Q1387.14 2102.97 1387.14 2110.22 Z" fill="#000000" fill-rule="nonzero" fill-opacity="1" /><path clip-path="url(#clip690)" d="M1447.36 2116.69 L1453.93 2117.5 Q1452.38 2123.26 1448.17 2126.45 Q1443.96 2129.63 1437.42 2129.63 Q1429.18 2129.63 1424.34 2124.57 Q1419.53 2119.48 1419.53 2110.32 Q1419.53 2100.84 1424.41 2095.61 Q1429.29 2090.38 1437.07 2090.38 Q1444.6 2090.38 1449.37 2095.5 Q1454.15 2100.63 1454.15 2109.93 Q1454.15 2110.5 1454.11 2111.63 L1426.1 2111.63 Q1426.46 2117.82 1429.61 2121.11 Q1432.75 2124.4 1437.46 2124.4 Q1440.96 2124.4 1443.43 2122.56 Q1445.91 2120.72 1447.36 2116.69 M1426.46 2106.4 L1447.43 2106.4 Q1447 2101.66 1445.02 2099.29 Q1441.98 2095.61 1437.14 2095.61 Q1432.75 2095.61 1429.75 2098.55 Q1426.78 2101.48 1426.46 2106.4 Z" fill="#000000" fill-rule="nonzero" fill-opacity="1" /><path clip-path="url(#clip690)" d="M1461.86 2128.78 L1461.86 2091.23 L1467.58 2091.23 L1467.58 2096.92 Q1469.78 2092.92 1471.62 2091.65 Q1473.49 2090.38 1475.72 2090.38 Q1478.94 2090.38 1482.26 2092.43 L1480.07 2098.33 Q1477.73 2096.95 1475.4 2096.95 Q1473.31 2096.95 1471.65 2098.23 Q1469.99 2099.47 1469.28 2101.69 Q1468.22 2105.09 1468.22 2109.12 L1468.22 2128.78 L1461.86 2128.78 Z" fill="#000000" fill-rule="nonzero" fill-opacity="1" /><path clip-path="url(#clip690)" d="M1499.94 2123.09 L1500.86 2128.71 Q1498.17 2129.27 1496.05 2129.27 Q1492.58 2129.27 1490.68 2128.18 Q1488.77 2127.08 1487.99 2125.31 Q1487.21 2123.51 1487.21 2117.78 L1487.21 2096.18 L1482.54 2096.18 L1482.54 2091.23 L1487.21 2091.23 L1487.21 2081.93 L1493.54 2078.11 L1493.54 2091.23 L1499.94 2091.23 L1499.94 2096.18 L1493.54 2096.18 L1493.54 2118.14 Q1493.54 2120.86 1493.86 2121.64 Q1494.21 2122.41 1494.95 2122.87 Q1495.73 2123.33 1497.15 2123.33 Q1498.21 2123.33 1499.94 2123.09 Z" fill="#000000" fill-rule="nonzero" fill-opacity="1" /><path clip-path="url(#clip690)" d="M1530.78 2128.78 L1530.78 2123.26 Q1526.39 2129.63 1518.86 2129.63 Q1515.53 2129.63 1512.63 2128.36 Q1509.77 2127.08 1508.36 2125.17 Q1506.98 2123.23 1506.41 2120.43 Q1506.02 2118.56 1506.02 2114.49 L1506.02 2091.23 L1512.39 2091.23 L1512.39 2112.05 Q1512.39 2117.04 1512.78 2118.77 Q1513.38 2121.28 1515.32 2122.73 Q1517.27 2124.15 1520.13 2124.15 Q1523 2124.15 1525.51 2122.7 Q1528.02 2121.21 1529.04 2118.7 Q1530.1 2116.16 1530.1 2111.35 L1530.1 2091.23 L1536.47 2091.23 L1536.47 2128.78 L1530.78 2128.78 Z" fill="#000000" fill-rule="nonzero" fill-opacity="1" /><path clip-path="url(#clip690)" d="M1546.37 2128.78 L1546.37 2091.23 L1552.1 2091.23 L1552.1 2096.92 Q1554.29 2092.92 1556.13 2091.65 Q1558 2090.38 1560.23 2090.38 Q1563.45 2090.38 1566.77 2092.43 L1564.58 2098.33 Q1562.25 2096.95 1559.91 2096.95 Q1557.83 2096.95 1556.16 2098.23 Q1554.5 2099.47 1553.8 2101.69 Q1552.73 2105.09 1552.73 2109.12 L1552.73 2128.78 L1546.37 2128.78 Z" fill="#000000" fill-rule="nonzero" fill-opacity="1" /><path clip-path="url(#clip690)" d="M1576.43 2128.78 L1570.52 2128.78 L1570.52 2076.94 L1576.89 2076.94 L1576.89 2095.43 Q1580.92 2090.38 1587.18 2090.38 Q1590.64 2090.38 1593.72 2091.79 Q1596.83 2093.17 1598.81 2095.72 Q1600.83 2098.23 1601.96 2101.8 Q1603.09 2105.37 1603.09 2109.44 Q1603.09 2119.09 1598.32 2124.36 Q1593.54 2129.63 1586.86 2129.63 Q1580.21 2129.63 1576.43 2124.08 L1576.43 2128.78 M1576.36 2109.72 Q1576.36 2116.47 1578.19 2119.48 Q1581.2 2124.4 1586.33 2124.4 Q1590.5 2124.4 1593.54 2120.79 Q1596.58 2117.15 1596.58 2109.97 Q1596.58 2102.61 1593.65 2099.11 Q1590.75 2095.61 1586.61 2095.61 Q1582.44 2095.61 1579.4 2099.25 Q1576.36 2102.86 1576.36 2109.72 Z" fill="#000000" fill-rule="nonzero" fill-opacity="1" /><path clip-path="url(#clip690)" d="M1635.34 2124.15 Q1631.8 2127.15 1628.51 2128.39 Q1625.26 2129.63 1621.51 2129.63 Q1615.32 2129.63 1612 2126.62 Q1608.68 2123.58 1608.68 2118.88 Q1608.68 2116.12 1609.91 2113.86 Q1611.19 2111.56 1613.2 2110.18 Q1615.25 2108.8 1617.8 2108.09 Q1619.67 2107.6 1623.46 2107.14 Q1631.17 2106.22 1634.81 2104.95 Q1634.84 2103.64 1634.84 2103.28 Q1634.84 2099.39 1633.04 2097.8 Q1630.6 2095.65 1625.79 2095.65 Q1621.3 2095.65 1619.14 2097.24 Q1617.02 2098.79 1616 2102.79 L1609.77 2101.94 Q1610.62 2097.94 1612.57 2095.5 Q1614.51 2093.03 1618.19 2091.72 Q1621.87 2090.38 1626.71 2090.38 Q1631.52 2090.38 1634.53 2091.51 Q1637.53 2092.64 1638.95 2094.37 Q1640.36 2096.07 1640.93 2098.69 Q1641.24 2100.31 1641.24 2104.56 L1641.24 2113.04 Q1641.24 2121.92 1641.63 2124.29 Q1642.06 2126.62 1643.26 2128.78 L1636.61 2128.78 Q1635.62 2126.8 1635.34 2124.15 M1634.81 2109.93 Q1631.34 2111.35 1624.41 2112.34 Q1620.49 2112.9 1618.86 2113.61 Q1617.23 2114.32 1616.35 2115.7 Q1615.47 2117.04 1615.47 2118.7 Q1615.47 2121.25 1617.38 2122.95 Q1619.32 2124.64 1623.03 2124.64 Q1626.71 2124.64 1629.58 2123.05 Q1632.44 2121.42 1633.78 2118.63 Q1634.81 2116.47 1634.81 2112.27 L1634.81 2109.93 Z" fill="#000000" fill-rule="nonzero" fill-opacity="1" /><path clip-path="url(#clip690)" d="M1665.01 2123.09 L1665.93 2128.71 Q1663.24 2129.27 1661.12 2129.27 Q1657.65 2129.27 1655.74 2128.18 Q1653.83 2127.08 1653.06 2125.31 Q1652.28 2123.51 1652.28 2117.78 L1652.28 2096.18 L1647.61 2096.18 L1647.61 2091.23 L1652.28 2091.23 L1652.28 2081.93 L1658.61 2078.11 L1658.61 2091.23 L1665.01 2091.23 L1665.01 2096.18 L1658.61 2096.18 L1658.61 2118.14 Q1658.61 2120.86 1658.93 2121.64 Q1659.28 2122.41 1660.02 2122.87 Q1660.8 2123.33 1662.21 2123.33 Q1663.27 2123.33 1665.01 2123.09 Z" fill="#000000" fill-rule="nonzero" fill-opacity="1" /><path clip-path="url(#clip690)" d="M1671.27 2084.26 L1671.27 2076.94 L1677.63 2076.94 L1677.63 2084.26 L1671.27 2084.26 M1671.27 2128.78 L1671.27 2091.23 L1677.63 2091.23 L1677.63 2128.78 L1671.27 2128.78 Z" fill="#000000" fill-rule="nonzero" fill-opacity="1" /><path clip-path="url(#clip690)" d="M1684.95 2110 Q1684.95 2099.57 1690.75 2094.55 Q1695.6 2090.38 1702.56 2090.38 Q1710.31 2090.38 1715.22 2095.47 Q1720.14 2100.53 1720.14 2109.47 Q1720.14 2116.72 1717.94 2120.89 Q1715.79 2125.03 1711.61 2127.33 Q1707.48 2129.63 1702.56 2129.63 Q1694.68 2129.63 1689.8 2124.57 Q1684.95 2119.52 1684.95 2110 M1691.49 2110 Q1691.49 2117.22 1694.64 2120.82 Q1697.79 2124.4 1702.56 2124.4 Q1707.3 2124.4 1710.45 2120.79 Q1713.59 2117.18 1713.59 2109.79 Q1713.59 2102.82 1710.41 2099.25 Q1707.26 2095.65 1702.56 2095.65 Q1697.79 2095.65 1694.64 2099.22 Q1691.49 2102.79 1691.49 2110 Z" fill="#000000" fill-rule="nonzero" fill-opacity="1" /><path clip-path="url(#clip690)" d="M1727.6 2128.78 L1727.6 2091.23 L1733.33 2091.23 L1733.33 2096.57 Q1737.46 2090.38 1745.28 2090.38 Q1748.67 2090.38 1751.5 2091.61 Q1754.37 2092.82 1755.78 2094.8 Q1757.19 2096.78 1757.76 2099.5 Q1758.11 2101.27 1758.11 2105.69 L1758.11 2128.78 L1751.75 2128.78 L1751.75 2105.94 Q1751.75 2102.05 1751.01 2100.14 Q1750.26 2098.19 1748.35 2097.06 Q1746.48 2095.89 1743.93 2095.89 Q1739.87 2095.89 1736.9 2098.48 Q1733.96 2101.06 1733.96 2108.27 L1733.96 2128.78 L1727.6 2128.78 Z" fill="#000000" fill-rule="nonzero" fill-opacity="1" /><path clip-path="url(#clip690)" d="M1785.45 2117.57 L1791.74 2116.58 Q1792.27 2120.36 1794.68 2122.38 Q1797.12 2124.4 1801.47 2124.4 Q1805.85 2124.4 1807.97 2122.63 Q1810.1 2120.82 1810.1 2118.42 Q1810.1 2116.26 1808.22 2115.02 Q1806.91 2114.18 1801.72 2112.87 Q1794.71 2111.1 1791.99 2109.83 Q1789.3 2108.52 1787.89 2106.25 Q1786.51 2103.96 1786.51 2101.2 Q1786.51 2098.69 1787.64 2096.57 Q1788.81 2094.41 1790.79 2092.99 Q1792.27 2091.9 1794.82 2091.16 Q1797.4 2090.38 1800.34 2090.38 Q1804.76 2090.38 1808.08 2091.65 Q1811.44 2092.92 1813.03 2095.12 Q1814.62 2097.27 1815.22 2100.91 L1809 2101.76 Q1808.58 2098.86 1806.52 2097.24 Q1804.51 2095.61 1800.8 2095.61 Q1796.41 2095.61 1794.54 2097.06 Q1792.66 2098.51 1792.66 2100.46 Q1792.66 2101.69 1793.44 2102.68 Q1794.22 2103.71 1795.88 2104.38 Q1796.84 2104.73 1801.5 2106.01 Q1808.26 2107.81 1810.91 2108.98 Q1813.6 2110.11 1815.12 2112.3 Q1816.64 2114.49 1816.64 2117.75 Q1816.64 2120.93 1814.76 2123.76 Q1812.92 2126.55 1809.42 2128.11 Q1805.92 2129.63 1801.5 2129.63 Q1794.18 2129.63 1790.33 2126.59 Q1786.51 2123.55 1785.45 2117.57 Z" fill="#000000" fill-rule="nonzero" fill-opacity="1" /><path clip-path="url(#clip690)" d="M1821.84 2110 Q1821.84 2099.57 1827.64 2094.55 Q1832.48 2090.38 1839.45 2090.38 Q1847.19 2090.38 1852.11 2095.47 Q1857.02 2100.53 1857.02 2109.47 Q1857.02 2116.72 1854.83 2120.89 Q1852.67 2125.03 1848.5 2127.33 Q1844.36 2129.63 1839.45 2129.63 Q1831.56 2129.63 1826.68 2124.57 Q1821.84 2119.52 1821.84 2110 M1828.38 2110 Q1828.38 2117.22 1831.52 2120.82 Q1834.67 2124.4 1839.45 2124.4 Q1844.18 2124.4 1847.33 2120.79 Q1850.48 2117.18 1850.48 2109.79 Q1850.48 2102.82 1847.3 2099.25 Q1844.15 2095.65 1839.45 2095.65 Q1834.67 2095.65 1831.52 2099.22 Q1828.38 2102.79 1828.38 2110 Z" fill="#000000" fill-rule="nonzero" fill-opacity="1" /><path clip-path="url(#clip690)" d="M1864.34 2128.78 L1864.34 2076.94 L1870.71 2076.94 L1870.71 2128.78 L1864.34 2128.78 Z" fill="#000000" fill-rule="nonzero" fill-opacity="1" /><path clip-path="url(#clip690)" d="M1906.28 2116.69 L1912.86 2117.5 Q1911.3 2123.26 1907.09 2126.45 Q1902.88 2129.63 1896.34 2129.63 Q1888.1 2129.63 1883.26 2124.57 Q1878.45 2119.48 1878.45 2110.32 Q1878.45 2100.84 1883.33 2095.61 Q1888.21 2090.38 1895.99 2090.38 Q1903.52 2090.38 1908.29 2095.5 Q1913.07 2100.63 1913.07 2109.93 Q1913.07 2110.5 1913.03 2111.63 L1885.03 2111.63 Q1885.38 2117.82 1888.53 2121.11 Q1891.67 2124.4 1896.38 2124.4 Q1899.88 2124.4 1902.35 2122.56 Q1904.83 2120.72 1906.28 2116.69 M1885.38 2106.4 L1906.35 2106.4 Q1905.93 2101.66 1903.95 2099.29 Q1900.9 2095.61 1896.06 2095.61 Q1891.67 2095.61 1888.67 2098.55 Q1885.7 2101.48 1885.38 2106.4 Z" fill="#000000" fill-rule="nonzero" fill-opacity="1" /><path clip-path="url(#clip690)" d="M1920.71 2128.78 L1920.71 2076.94 L1927.07 2076.94 L1927.07 2128.78 L1920.71 2128.78 Z" fill="#000000" fill-rule="nonzero" fill-opacity="1" /><path clip-path="url(#clip690)" d="M1936.65 2143.24 L1935.95 2137.27 Q1938.03 2137.83 1939.59 2137.83 Q1941.71 2137.83 1942.98 2137.13 Q1944.26 2136.42 1945.07 2135.14 Q1945.67 2134.19 1947.02 2130.41 Q1947.19 2129.88 1947.58 2128.85 L1933.33 2091.23 L1940.19 2091.23 L1948.01 2112.97 Q1949.53 2117.11 1950.73 2121.67 Q1951.82 2117.29 1953.35 2113.11 L1961.37 2091.23 L1967.74 2091.23 L1953.45 2129.42 Q1951.15 2135.6 1949.88 2137.94 Q1948.18 2141.09 1945.99 2142.54 Q1943.8 2144.02 1940.76 2144.02 Q1938.92 2144.02 1936.65 2143.24 Z" fill="#000000" fill-rule="nonzero" fill-opacity="1" /><path clip-path="url(#clip690)" d="M1990.9 2110 Q1990.9 2099.57 1996.7 2094.55 Q2001.54 2090.38 2008.51 2090.38 Q2016.25 2090.38 2021.17 2095.47 Q2026.08 2100.53 2026.08 2109.47 Q2026.08 2116.72 2023.89 2120.89 Q2021.73 2125.03 2017.56 2127.33 Q2013.42 2129.63 2008.51 2129.63 Q2000.62 2129.63 1995.74 2124.57 Q1990.9 2119.52 1990.9 2110 M1997.44 2110 Q1997.44 2117.22 2000.59 2120.82 Q2003.74 2124.4 2008.51 2124.4 Q2013.25 2124.4 2016.39 2120.79 Q2019.54 2117.18 2019.54 2109.79 Q2019.54 2102.82 2016.36 2099.25 Q2013.21 2095.65 2008.51 2095.65 Q2003.74 2095.65 2000.59 2099.22 Q1997.44 2102.79 1997.44 2110 Z" fill="#000000" fill-rule="nonzero" fill-opacity="1" /><path clip-path="url(#clip690)" d="M2035.07 2128.78 L2035.07 2096.18 L2029.44 2096.18 L2029.44 2091.23 L2035.07 2091.23 L2035.07 2087.23 Q2035.07 2083.45 2035.74 2081.61 Q2036.66 2079.13 2038.96 2077.61 Q2041.29 2076.06 2045.46 2076.06 Q2048.15 2076.06 2051.4 2076.69 L2050.45 2082.24 Q2048.47 2081.89 2046.7 2081.89 Q2043.8 2081.89 2042.6 2083.13 Q2041.4 2084.37 2041.4 2087.76 L2041.4 2091.23 L2048.72 2091.23 L2048.72 2096.18 L2041.4 2096.18 L2041.4 2128.78 L2035.07 2128.78 Z" fill="#000000" fill-rule="nonzero" fill-opacity="1" /><path clip-path="url(#clip690)" d="M2101.65 2091.23 L2108.16 2091.23 Q2105.68 2099.01 2103.6 2110 Q2106.07 2123.65 2108.16 2128.78 L2101.83 2128.78 Q2100.31 2125.24 2099.53 2121.92 Q2096.59 2129.63 2087.26 2129.63 Q2080.19 2129.63 2075.87 2124.32 Q2071.56 2119.02 2071.56 2109.93 Q2071.56 2100.6 2075.87 2095.5 Q2080.22 2090.38 2087.37 2090.38 Q2091.79 2090.38 2094.58 2092.18 Q2097.37 2093.95 2099.78 2097.59 Q2100.02 2096.35 2101.65 2091.23 M2088.43 2095.65 Q2083.86 2095.65 2081.21 2099.32 Q2078.56 2103 2078.56 2109.93 Q2078.56 2116.69 2081.07 2120.54 Q2083.58 2124.4 2088.07 2124.4 Q2092.46 2124.4 2095.39 2120.61 Q2098.33 2116.79 2098.33 2109.65 Q2098.33 2102.72 2095.57 2099.18 Q2092.85 2095.65 2088.43 2095.65 Z" fill="#000000" fill-rule="nonzero" fill-opacity="1" /></svg>
