<?xml version="1.0" encoding="utf-8"?>
<svg xmlns="http://www.w3.org/2000/svg" xmlns:xlink="http://www.w3.org/1999/xlink" width="800" height="600" viewBox="0 0 3200 2400">
<defs>
  <clipPath id="clip490">
    <rect x="0" y="0" width="3200" height="2400"/>
  </clipPath>
</defs>
<path clip-path="url(#clip490)" d="M0 2400 L3200 2400 L3200 0 L0 0  Z" fill="#ffffff" fill-rule="evenodd" fill-opacity="1"/>
<defs>
  <clipPath id="clip491">
    <rect x="640" y="0" width="2241" height="2241"/>
  </clipPath>
</defs>
<path clip-path="url(#clip490)" d="M446.722 1642.95 L3152.76 1642.95 L3152.76 47.2441 L446.722 47.2441  Z" fill="#ffffff" fill-rule="evenodd" fill-opacity="1"/>
<defs>
  <clipPath id="clip492">
    <rect x="446" y="47" width="2707" height="1597"/>
  </clipPath>
</defs>
<polyline clip-path="url(#clip492)" style="stroke:#000000; stroke-linecap:round; stroke-linejoin:round; stroke-width:2; stroke-opacity:0.1; fill:none" points="523.308,1642.95 523.308,47.2441 "/>
<polyline clip-path="url(#clip492)" style="stroke:#000000; stroke-linecap:round; stroke-linejoin:round; stroke-width:2; stroke-opacity:0.1; fill:none" points="1033.88,1642.95 1033.88,47.2441 "/>
<polyline clip-path="url(#clip492)" style="stroke:#000000; stroke-linecap:round; stroke-linejoin:round; stroke-width:2; stroke-opacity:0.1; fill:none" points="1544.45,1642.95 1544.45,47.2441 "/>
<polyline clip-path="url(#clip492)" style="stroke:#000000; stroke-linecap:round; stroke-linejoin:round; stroke-width:2; stroke-opacity:0.1; fill:none" points="2055.03,1642.95 2055.03,47.2441 "/>
<polyline clip-path="url(#clip492)" style="stroke:#000000; stroke-linecap:round; stroke-linejoin:round; stroke-width:2; stroke-opacity:0.1; fill:none" points="2565.6,1642.95 2565.6,47.2441 "/>
<polyline clip-path="url(#clip492)" style="stroke:#000000; stroke-linecap:round; stroke-linejoin:round; stroke-width:2; stroke-opacity:0.1; fill:none" points="3076.17,1642.95 3076.17,47.2441 "/>
<polyline clip-path="url(#clip490)" style="stroke:#000000; stroke-linecap:round; stroke-linejoin:round; stroke-width:4; stroke-opacity:1; fill:none" points="446.722,1642.95 3152.76,1642.95 "/>
<polyline clip-path="url(#clip490)" style="stroke:#000000; stroke-linecap:round; stroke-linejoin:round; stroke-width:4; stroke-opacity:1; fill:none" points="523.308,1642.95 523.308,1628.81 "/>
<polyline clip-path="url(#clip490)" style="stroke:#000000; stroke-linecap:round; stroke-linejoin:round; stroke-width:4; stroke-opacity:1; fill:none" points="1033.88,1642.95 1033.88,1628.81 "/>
<polyline clip-path="url(#clip490)" style="stroke:#000000; stroke-linecap:round; stroke-linejoin:round; stroke-width:4; stroke-opacity:1; fill:none" points="1544.45,1642.95 1544.45,1628.81 "/>
<polyline clip-path="url(#clip490)" style="stroke:#000000; stroke-linecap:round; stroke-linejoin:round; stroke-width:4; stroke-opacity:1; fill:none" points="2055.03,1642.95 2055.03,1628.81 "/>
<polyline clip-path="url(#clip490)" style="stroke:#000000; stroke-linecap:round; stroke-linejoin:round; stroke-width:4; stroke-opacity:1; fill:none" points="2565.6,1642.95 2565.6,1628.81 "/>
<polyline clip-path="url(#clip490)" style="stroke:#000000; stroke-linecap:round; stroke-linejoin:round; stroke-width:4; stroke-opacity:1; fill:none" points="3076.17,1642.95 3076.17,1628.81 "/>
<path clip-path="url(#clip490)" d="M506.405 1707.78 Q506.405 1698.59 508.279 1693 Q510.189 1687.38 513.902 1684.34 Q517.65 1681.3 523.308 1681.3 Q527.481 1681.3 530.628 1682.99 Q533.775 1684.65 535.826 1687.84 Q537.877 1690.98 539.044 1695.55 Q540.211 1700.07 540.211 1707.78 Q540.211 1716.9 538.337 1722.53 Q536.463 1728.11 532.714 1731.19 Q529.001 1734.23 523.308 1734.23 Q515.811 1734.23 511.533 1728.86 Q506.405 1722.39 506.405 1707.78 M512.947 1707.78 Q512.947 1720.55 515.917 1724.79 Q518.923 1729 523.308 1729 Q527.693 1729 530.663 1724.75 Q533.669 1720.51 533.669 1707.78 Q533.669 1694.98 530.663 1690.77 Q527.693 1686.56 523.237 1686.56 Q518.852 1686.56 516.236 1690.28 Q512.947 1695.02 512.947 1707.78 Z" fill="#000000" fill-rule="nonzero" fill-opacity="1" /><path clip-path="url(#clip490)" d="M1043.43 1733.35 L1037.06 1733.35 L1037.06 1692.79 Q1034.76 1694.98 1031.02 1697.17 Q1027.3 1699.36 1024.33 1700.46 L1024.33 1694.31 Q1029.67 1691.8 1033.67 1688.23 Q1037.66 1684.65 1039.33 1681.3 L1043.43 1681.3 L1043.43 1733.35 Z" fill="#000000" fill-rule="nonzero" fill-opacity="1" /><path clip-path="url(#clip490)" d="M1561.62 1727.23 L1561.62 1733.35 L1527.36 1733.35 Q1527.28 1731.05 1528.1 1728.93 Q1529.41 1725.43 1532.27 1722.03 Q1535.17 1718.64 1540.62 1714.18 Q1549.07 1707.25 1552.04 1703.22 Q1555.01 1699.15 1555.01 1695.55 Q1555.01 1691.76 1552.29 1689.18 Q1549.6 1686.56 1545.25 1686.56 Q1540.65 1686.56 1537.89 1689.32 Q1535.14 1692.08 1535.1 1696.96 L1528.56 1696.29 Q1529.23 1688.97 1533.61 1685.15 Q1538 1681.3 1545.39 1681.3 Q1552.85 1681.3 1557.2 1685.43 Q1561.55 1689.57 1561.55 1695.69 Q1561.55 1698.8 1560.28 1701.8 Q1559 1704.81 1556.03 1708.13 Q1553.1 1711.46 1546.24 1717.26 Q1540.51 1722.07 1538.88 1723.8 Q1537.26 1725.5 1536.2 1727.23 L1561.62 1727.23 Z" fill="#000000" fill-rule="nonzero" fill-opacity="1" /><path clip-path="url(#clip490)" d="M2038.05 1719.66 L2044.42 1718.81 Q2045.51 1724.22 2048.13 1726.63 Q2050.78 1729 2054.57 1729 Q2059.06 1729 2062.13 1725.89 Q2065.24 1722.77 2065.24 1718.18 Q2065.24 1713.79 2062.38 1710.96 Q2059.52 1708.1 2055.1 1708.1 Q2053.29 1708.1 2050.61 1708.81 L2051.31 1703.22 Q2051.95 1703.29 2052.34 1703.29 Q2056.4 1703.29 2059.66 1701.17 Q2062.91 1699.05 2062.91 1694.63 Q2062.91 1691.13 2060.54 1688.83 Q2058.17 1686.53 2054.42 1686.53 Q2050.71 1686.53 2048.24 1688.86 Q2045.76 1691.2 2045.05 1695.86 L2038.69 1694.73 Q2039.86 1688.33 2043.99 1684.83 Q2048.13 1681.3 2054.28 1681.3 Q2058.53 1681.3 2062.1 1683.13 Q2065.67 1684.94 2067.54 1688.08 Q2069.45 1691.23 2069.45 1694.77 Q2069.45 1698.13 2067.65 1700.89 Q2065.85 1703.64 2062.31 1705.27 Q2066.91 1706.33 2069.45 1709.69 Q2072 1713.01 2072 1718.04 Q2072 1724.83 2067.05 1729.56 Q2062.1 1734.27 2054.53 1734.27 Q2047.71 1734.27 2043.18 1730.2 Q2038.69 1726.13 2038.05 1719.66 Z" fill="#000000" fill-rule="nonzero" fill-opacity="1" /><path clip-path="url(#clip490)" d="M2570.16 1733.35 L2570.16 1720.94 L2547.67 1720.94 L2547.67 1715.1 L2571.33 1681.51 L2576.52 1681.51 L2576.52 1715.1 L2583.53 1715.1 L2583.53 1720.94 L2576.52 1720.94 L2576.52 1733.35 L2570.16 1733.35 M2570.16 1715.1 L2570.16 1691.73 L2553.93 1715.1 L2570.16 1715.1 Z" fill="#000000" fill-rule="nonzero" fill-opacity="1" /><path clip-path="url(#clip490)" d="M3058.98 1719.77 L3065.67 1719.2 Q3066.41 1724.08 3069.1 1726.56 Q3071.82 1729 3075.64 1729 Q3080.24 1729 3083.42 1725.53 Q3086.6 1722.07 3086.6 1716.34 Q3086.6 1710.89 3083.53 1707.75 Q3080.48 1704.6 3075.53 1704.6 Q3072.46 1704.6 3069.98 1706.01 Q3067.51 1707.39 3066.09 1709.62 L3060.12 1708.84 L3065.14 1682.21 L3090.92 1682.21 L3090.92 1688.3 L3070.23 1688.3 L3067.44 1702.23 Q3072.1 1698.98 3077.23 1698.98 Q3084.02 1698.98 3088.69 1703.68 Q3093.36 1708.38 3093.36 1715.77 Q3093.36 1722.81 3089.25 1727.94 Q3084.27 1734.23 3075.64 1734.23 Q3068.57 1734.23 3064.08 1730.27 Q3059.62 1726.31 3058.98 1719.77 Z" fill="#000000" fill-rule="nonzero" fill-opacity="1" /><path clip-path="url(#clip490)" d="M1698.39 1825.22 L1699.31 1830.84 Q1696.62 1831.41 1694.5 1831.41 Q1691.04 1831.41 1689.13 1830.31 Q1687.22 1829.22 1686.44 1827.45 Q1685.66 1825.65 1685.66 1819.92 L1685.66 1798.31 L1681 1798.31 L1681 1793.36 L1685.66 1793.36 L1685.66 1784.06 L1691.99 1780.24 L1691.99 1793.36 L1698.39 1793.36 L1698.39 1798.31 L1691.99 1798.31 L1691.99 1820.27 Q1691.99 1822.99 1692.31 1823.77 Q1692.66 1824.55 1693.41 1825.01 Q1694.18 1825.47 1695.6 1825.47 Q1696.66 1825.47 1698.39 1825.22 Z" fill="#000000" fill-rule="nonzero" fill-opacity="1" /><path clip-path="url(#clip490)" d="M1704.65 1786.4 L1704.65 1779.08 L1711.02 1779.08 L1711.02 1786.4 L1704.65 1786.4 M1704.65 1830.92 L1704.65 1793.36 L1711.02 1793.36 L1711.02 1830.92 L1704.65 1830.92 Z" fill="#000000" fill-rule="nonzero" fill-opacity="1" /><path clip-path="url(#clip490)" d="M1720.71 1830.92 L1720.71 1793.36 L1726.4 1793.36 L1726.4 1798.63 Q1728.17 1795.87 1731.1 1794.21 Q1734.04 1792.51 1737.79 1792.51 Q1741.96 1792.51 1744.61 1794.25 Q1747.3 1795.98 1748.39 1799.09 Q1752.85 1792.51 1759.99 1792.51 Q1765.58 1792.51 1768.59 1795.62 Q1771.59 1798.7 1771.59 1805.14 L1771.59 1830.92 L1765.26 1830.92 L1765.26 1807.26 Q1765.26 1803.44 1764.63 1801.78 Q1764.02 1800.08 1762.4 1799.05 Q1760.77 1798.03 1758.58 1798.03 Q1754.62 1798.03 1752 1800.68 Q1749.38 1803.3 1749.38 1809.1 L1749.38 1830.92 L1743.02 1830.92 L1743.02 1806.52 Q1743.02 1802.27 1741.46 1800.15 Q1739.91 1798.03 1736.37 1798.03 Q1733.68 1798.03 1731.39 1799.44 Q1729.12 1800.86 1728.1 1803.58 Q1727.07 1806.3 1727.07 1811.43 L1727.07 1830.92 L1720.71 1830.92 Z" fill="#000000" fill-rule="nonzero" fill-opacity="1" /><path clip-path="url(#clip490)" d="M1806.74 1818.82 L1813.32 1819.63 Q1811.76 1825.4 1807.55 1828.58 Q1803.35 1831.76 1796.8 1831.76 Q1788.56 1831.76 1783.72 1826.71 Q1778.91 1821.62 1778.91 1812.46 Q1778.91 1802.98 1783.79 1797.75 Q1788.67 1792.51 1796.45 1792.51 Q1803.98 1792.51 1808.76 1797.64 Q1813.53 1802.77 1813.53 1812.07 Q1813.53 1812.63 1813.49 1813.76 L1785.49 1813.76 Q1785.84 1819.95 1788.99 1823.24 Q1792.14 1826.53 1796.84 1826.53 Q1800.34 1826.53 1802.82 1824.69 Q1805.29 1822.85 1806.74 1818.82 M1785.84 1808.53 L1806.81 1808.53 Q1806.39 1803.79 1804.41 1801.42 Q1801.37 1797.75 1796.52 1797.75 Q1792.14 1797.75 1789.13 1800.68 Q1786.16 1803.62 1785.84 1808.53 Z" fill="#000000" fill-rule="nonzero" fill-opacity="1" /><path clip-path="url(#clip490)" d="M1853.59 1846.16 Q1848.33 1839.51 1844.68 1830.6 Q1841.04 1821.69 1841.04 1812.14 Q1841.04 1803.72 1843.76 1796.01 Q1846.95 1787.07 1853.59 1778.19 L1858.16 1778.19 Q1853.88 1785.55 1852.5 1788.69 Q1850.34 1793.57 1849.1 1798.88 Q1847.58 1805.49 1847.58 1812.17 Q1847.58 1829.18 1858.16 1846.16 L1853.59 1846.16 Z" fill="#000000" fill-rule="nonzero" fill-opacity="1" /><path clip-path="url(#clip490)" d="M1865.26 1845.38 L1864.56 1839.4 Q1866.64 1839.97 1868.2 1839.97 Q1870.32 1839.97 1871.59 1839.26 Q1872.87 1838.55 1873.68 1837.28 Q1874.28 1836.33 1875.62 1832.54 Q1875.8 1832.01 1876.19 1830.99 L1861.94 1793.36 L1868.8 1793.36 L1876.61 1815.11 Q1878.14 1819.25 1879.34 1823.81 Q1880.43 1819.42 1881.95 1815.25 L1889.98 1793.36 L1896.35 1793.36 L1882.06 1831.55 Q1879.76 1837.74 1878.49 1840.07 Q1876.79 1843.22 1874.6 1844.67 Q1872.41 1846.16 1869.37 1846.16 Q1867.53 1846.16 1865.26 1845.38 Z" fill="#000000" fill-rule="nonzero" fill-opacity="1" /><path clip-path="url(#clip490)" d="M1905.93 1846.16 L1901.37 1846.16 Q1911.94 1829.18 1911.94 1812.17 Q1911.94 1805.53 1910.42 1798.98 Q1909.22 1793.68 1907.06 1788.8 Q1905.68 1785.62 1901.37 1778.19 L1905.93 1778.19 Q1912.58 1787.07 1915.76 1796.01 Q1918.48 1803.72 1918.48 1812.14 Q1918.48 1821.69 1914.81 1830.6 Q1911.16 1839.51 1905.93 1846.16 Z" fill="#000000" fill-rule="nonzero" fill-opacity="1" /><polyline clip-path="url(#clip492)" style="stroke:#000000; stroke-linecap:round; stroke-linejoin:round; stroke-width:2; stroke-opacity:0.1; fill:none" points="446.722,1630.94 3152.76,1630.94 "/>
<polyline clip-path="url(#clip492)" style="stroke:#000000; stroke-linecap:round; stroke-linejoin:round; stroke-width:2; stroke-opacity:0.1; fill:none" points="446.722,1399.1 3152.76,1399.1 "/>
<polyline clip-path="url(#clip492)" style="stroke:#000000; stroke-linecap:round; stroke-linejoin:round; stroke-width:2; stroke-opacity:0.1; fill:none" points="446.722,1167.27 3152.76,1167.27 "/>
<polyline clip-path="url(#clip492)" style="stroke:#000000; stroke-linecap:round; stroke-linejoin:round; stroke-width:2; stroke-opacity:0.1; fill:none" points="446.722,935.434 3152.76,935.434 "/>
<polyline clip-path="url(#clip492)" style="stroke:#000000; stroke-linecap:round; stroke-linejoin:round; stroke-width:2; stroke-opacity:0.1; fill:none" points="446.722,703.599 3152.76,703.599 "/>
<polyline clip-path="url(#clip492)" style="stroke:#000000; stroke-linecap:round; stroke-linejoin:round; stroke-width:2; stroke-opacity:0.1; fill:none" points="446.722,471.764 3152.76,471.764 "/>
<polyline clip-path="url(#clip492)" style="stroke:#000000; stroke-linecap:round; stroke-linejoin:round; stroke-width:2; stroke-opacity:0.1; fill:none" points="446.722,239.929 3152.76,239.929 "/>
<polyline clip-path="url(#clip490)" style="stroke:#000000; stroke-linecap:round; stroke-linejoin:round; stroke-width:4; stroke-opacity:1; fill:none" points="446.722,1642.95 446.722,47.2441 "/>
<polyline clip-path="url(#clip490)" style="stroke:#000000; stroke-linecap:round; stroke-linejoin:round; stroke-width:4; stroke-opacity:1; fill:none" points="446.722,1630.94 465.62,1630.94 "/>
<polyline clip-path="url(#clip490)" style="stroke:#000000; stroke-linecap:round; stroke-linejoin:round; stroke-width:4; stroke-opacity:1; fill:none" points="446.722,1399.1 465.62,1399.1 "/>
<polyline clip-path="url(#clip490)" style="stroke:#000000; stroke-linecap:round; stroke-linejoin:round; stroke-width:4; stroke-opacity:1; fill:none" points="446.722,1167.27 465.62,1167.27 "/>
<polyline clip-path="url(#clip490)" style="stroke:#000000; stroke-linecap:round; stroke-linejoin:round; stroke-width:4; stroke-opacity:1; fill:none" points="446.722,935.434 465.62,935.434 "/>
<polyline clip-path="url(#clip490)" style="stroke:#000000; stroke-linecap:round; stroke-linejoin:round; stroke-width:4; stroke-opacity:1; fill:none" points="446.722,703.599 465.62,703.599 "/>
<polyline clip-path="url(#clip490)" style="stroke:#000000; stroke-linecap:round; stroke-linejoin:round; stroke-width:4; stroke-opacity:1; fill:none" points="446.722,471.764 465.62,471.764 "/>
<polyline clip-path="url(#clip490)" style="stroke:#000000; stroke-linecap:round; stroke-linejoin:round; stroke-width:4; stroke-opacity:1; fill:none" points="446.722,239.929 465.62,239.929 "/>
<path clip-path="url(#clip490)" d="M288.217 1656.86 L281.852 1656.86 L281.852 1616.3 Q279.554 1618.49 275.805 1620.68 Q272.093 1622.88 269.122 1623.97 L269.122 1617.82 Q274.462 1615.31 278.458 1611.74 Q282.453 1608.17 284.115 1604.81 L288.217 1604.81 L288.217 1656.86 Z" fill="#000000" fill-rule="nonzero" fill-opacity="1" /><path clip-path="url(#clip490)" d="M308.091 1656.86 L308.091 1649.61 L315.34 1649.61 L315.34 1656.86 L308.091 1656.86 Z" fill="#000000" fill-rule="nonzero" fill-opacity="1" /><path clip-path="url(#clip490)" d="M324.64 1643.28 L331.323 1642.71 Q332.066 1647.59 334.753 1650.07 Q337.476 1652.51 341.295 1652.51 Q345.892 1652.51 349.075 1649.04 Q352.257 1645.58 352.257 1639.85 Q352.257 1634.4 349.181 1631.26 Q346.14 1628.11 341.189 1628.11 Q338.112 1628.11 335.637 1629.52 Q333.162 1630.9 331.747 1633.13 L325.771 1632.35 L330.793 1605.73 L356.571 1605.73 L356.571 1611.81 L335.885 1611.81 L333.091 1625.74 Q337.759 1622.49 342.886 1622.49 Q349.676 1622.49 354.343 1627.19 Q359.011 1631.89 359.011 1639.28 Q359.011 1646.32 354.909 1651.45 Q349.923 1657.74 341.295 1657.74 Q334.223 1657.74 329.732 1653.78 Q325.276 1649.82 324.64 1643.28 Z" fill="#000000" fill-rule="nonzero" fill-opacity="1" /><path clip-path="url(#clip490)" d="M364.917 1631.29 Q364.917 1622.1 366.791 1616.51 Q368.7 1610.89 372.413 1607.85 Q376.161 1604.81 381.819 1604.81 Q385.992 1604.81 389.139 1606.5 Q392.286 1608.17 394.337 1611.35 Q396.388 1614.5 397.555 1619.06 Q398.722 1623.58 398.722 1631.29 Q398.722 1640.42 396.848 1646.04 Q394.974 1651.62 391.226 1654.7 Q387.513 1657.74 381.819 1657.74 Q374.323 1657.74 370.044 1652.37 Q364.917 1645.9 364.917 1631.29 M371.458 1631.29 Q371.458 1644.06 374.429 1648.3 Q377.435 1652.51 381.819 1652.51 Q386.204 1652.51 389.175 1648.27 Q392.18 1644.02 392.18 1631.29 Q392.18 1618.49 389.175 1614.28 Q386.204 1610.07 381.749 1610.07 Q377.364 1610.07 374.747 1613.79 Q371.458 1618.53 371.458 1631.29 Z" fill="#000000" fill-rule="nonzero" fill-opacity="1" /><path clip-path="url(#clip490)" d="M287.652 1425.02 L281.287 1425.02 L281.287 1384.46 Q278.988 1386.66 275.24 1388.85 Q271.527 1391.04 268.556 1392.14 L268.556 1385.98 Q273.896 1383.47 277.892 1379.9 Q281.888 1376.33 283.55 1372.97 L287.652 1372.97 L287.652 1425.02 Z" fill="#000000" fill-rule="nonzero" fill-opacity="1" /><path clip-path="url(#clip490)" d="M307.525 1425.02 L307.525 1417.77 L314.774 1417.77 L314.774 1425.02 L307.525 1425.02 Z" fill="#000000" fill-rule="nonzero" fill-opacity="1" /><path clip-path="url(#clip490)" d="M324.498 1379.97 L324.498 1373.86 L358.056 1373.86 L358.056 1378.81 Q353.106 1384.07 348.226 1392.81 Q343.381 1401.54 340.729 1410.77 Q338.82 1417.28 338.289 1425.02 L331.747 1425.02 Q331.854 1418.91 334.152 1410.24 Q336.451 1401.58 340.729 1393.55 Q345.043 1385.49 349.888 1379.97 L324.498 1379.97 Z" fill="#000000" fill-rule="nonzero" fill-opacity="1" /><path clip-path="url(#clip490)" d="M364.351 1411.44 L371.034 1410.88 Q371.777 1415.76 374.464 1418.23 Q377.187 1420.67 381.006 1420.67 Q385.603 1420.67 388.786 1417.21 Q391.968 1413.74 391.968 1408.01 Q391.968 1402.57 388.892 1399.42 Q385.851 1396.27 380.9 1396.27 Q377.823 1396.27 375.348 1397.69 Q372.873 1399.07 371.458 1401.3 L365.482 1400.52 L370.504 1373.89 L396.282 1373.89 L396.282 1379.97 L375.596 1379.97 L372.802 1393.91 Q377.47 1390.65 382.597 1390.65 Q389.387 1390.65 394.054 1395.35 Q398.722 1400.06 398.722 1407.45 Q398.722 1414.49 394.62 1419.61 Q389.634 1425.91 381.006 1425.91 Q373.934 1425.91 369.443 1421.95 Q364.987 1417.99 364.351 1411.44 Z" fill="#000000" fill-rule="nonzero" fill-opacity="1" /><path clip-path="url(#clip490)" d="M297.694 1187.07 L297.694 1193.19 L263.429 1193.19 Q263.358 1190.89 264.172 1188.77 Q265.48 1185.27 268.344 1181.87 Q271.244 1178.48 276.69 1174.02 Q285.141 1167.09 288.111 1163.06 Q291.082 1158.99 291.082 1155.39 Q291.082 1151.6 288.359 1149.02 Q285.671 1146.41 281.322 1146.41 Q276.725 1146.41 273.967 1149.16 Q271.208 1151.92 271.173 1156.8 L264.631 1156.13 Q265.303 1148.81 269.688 1144.99 Q274.073 1141.14 281.463 1141.14 Q288.925 1141.14 293.274 1145.27 Q297.624 1149.41 297.624 1155.53 Q297.624 1158.64 296.351 1161.65 Q295.078 1164.65 292.107 1167.98 Q289.172 1171.3 282.312 1177.1 Q276.583 1181.91 274.957 1183.64 Q273.33 1185.34 272.269 1187.07 L297.694 1187.07 Z" fill="#000000" fill-rule="nonzero" fill-opacity="1" /><path clip-path="url(#clip490)" d="M308.091 1193.19 L308.091 1185.94 L315.34 1185.94 L315.34 1193.19 L308.091 1193.19 Z" fill="#000000" fill-rule="nonzero" fill-opacity="1" /><path clip-path="url(#clip490)" d="M324.64 1167.62 Q324.64 1158.43 326.514 1152.84 Q328.423 1147.22 332.136 1144.18 Q335.885 1141.14 341.543 1141.14 Q345.715 1141.14 348.862 1142.83 Q352.01 1144.5 354.061 1147.68 Q356.112 1150.83 357.278 1155.39 Q358.445 1159.91 358.445 1167.62 Q358.445 1176.75 356.571 1182.37 Q354.697 1187.95 350.949 1191.03 Q347.236 1194.07 341.543 1194.07 Q334.046 1194.07 329.767 1188.7 Q324.64 1182.23 324.64 1167.62 M331.182 1167.62 Q331.182 1180.39 334.152 1184.63 Q337.158 1188.84 341.543 1188.84 Q345.927 1188.84 348.898 1184.6 Q351.903 1180.35 351.903 1167.62 Q351.903 1154.82 348.898 1150.61 Q345.927 1146.41 341.472 1146.41 Q337.087 1146.41 334.47 1150.12 Q331.182 1154.86 331.182 1167.62 Z" fill="#000000" fill-rule="nonzero" fill-opacity="1" /><path clip-path="url(#clip490)" d="M364.917 1167.62 Q364.917 1158.43 366.791 1152.84 Q368.7 1147.22 372.413 1144.18 Q376.161 1141.14 381.819 1141.14 Q385.992 1141.14 389.139 1142.83 Q392.286 1144.5 394.337 1147.68 Q396.388 1150.83 397.555 1155.39 Q398.722 1159.91 398.722 1167.62 Q398.722 1176.75 396.848 1182.37 Q394.974 1187.95 391.226 1191.03 Q387.513 1194.07 381.819 1194.07 Q374.323 1194.07 370.044 1188.7 Q364.917 1182.23 364.917 1167.62 M371.458 1167.62 Q371.458 1180.39 374.429 1184.63 Q377.435 1188.84 381.819 1188.84 Q386.204 1188.84 389.175 1184.6 Q392.18 1180.35 392.18 1167.62 Q392.18 1154.82 389.175 1150.61 Q386.204 1146.41 381.749 1146.41 Q377.364 1146.41 374.747 1150.12 Q371.458 1154.86 371.458 1167.62 Z" fill="#000000" fill-rule="nonzero" fill-opacity="1" /><path clip-path="url(#clip490)" d="M297.128 955.236 L297.128 961.354 L262.863 961.354 Q262.792 959.055 263.606 956.933 Q264.914 953.433 267.778 950.038 Q270.678 946.643 276.124 942.188 Q284.575 935.257 287.546 931.225 Q290.516 927.159 290.516 923.552 Q290.516 919.768 287.793 917.187 Q285.106 914.57 280.756 914.57 Q276.159 914.57 273.401 917.328 Q270.643 920.087 270.607 924.966 L264.065 924.295 Q264.737 916.975 269.122 913.156 Q273.507 909.301 280.898 909.301 Q288.359 909.301 292.708 913.439 Q297.058 917.576 297.058 923.693 Q297.058 926.805 295.785 929.811 Q294.512 932.817 291.541 936.141 Q288.606 939.465 281.746 945.264 Q276.018 950.073 274.391 951.806 Q272.764 953.503 271.704 955.236 L297.128 955.236 Z" fill="#000000" fill-rule="nonzero" fill-opacity="1" /><path clip-path="url(#clip490)" d="M307.525 961.354 L307.525 954.104 L314.774 954.104 L314.774 961.354 L307.525 961.354 Z" fill="#000000" fill-rule="nonzero" fill-opacity="1" /><path clip-path="url(#clip490)" d="M357.526 955.236 L357.526 961.354 L323.261 961.354 Q323.19 959.055 324.003 956.933 Q325.312 953.433 328.176 950.038 Q331.076 946.643 336.521 942.188 Q344.973 935.257 347.943 931.225 Q350.913 927.159 350.913 923.552 Q350.913 919.768 348.191 917.187 Q345.503 914.57 341.154 914.57 Q336.557 914.57 333.798 917.328 Q331.04 920.087 331.005 924.966 L324.463 924.295 Q325.135 916.975 329.52 913.156 Q333.904 909.301 341.295 909.301 Q348.756 909.301 353.106 913.439 Q357.455 917.576 357.455 923.693 Q357.455 926.805 356.182 929.811 Q354.909 932.817 351.939 936.141 Q349.004 939.465 342.144 945.264 Q336.415 950.073 334.789 951.806 Q333.162 953.503 332.101 955.236 L357.526 955.236 Z" fill="#000000" fill-rule="nonzero" fill-opacity="1" /><path clip-path="url(#clip490)" d="M364.351 947.775 L371.034 947.209 Q371.777 952.089 374.464 954.564 Q377.187 957.004 381.006 957.004 Q385.603 957.004 388.786 953.539 Q391.968 950.073 391.968 944.345 Q391.968 938.899 388.892 935.752 Q385.851 932.605 380.9 932.605 Q377.823 932.605 375.348 934.019 Q372.873 935.398 371.458 937.626 L365.482 936.848 L370.504 910.221 L396.282 910.221 L396.282 916.303 L375.596 916.303 L372.802 930.235 Q377.47 926.982 382.597 926.982 Q389.387 926.982 394.054 931.685 Q398.722 936.388 398.722 943.779 Q398.722 950.816 394.62 955.943 Q389.634 962.238 381.006 962.238 Q373.934 962.238 369.443 958.277 Q364.987 954.317 364.351 947.775 Z" fill="#000000" fill-rule="nonzero" fill-opacity="1" /><path clip-path="url(#clip490)" d="M297.694 723.401 L297.694 729.519 L263.429 729.519 Q263.358 727.22 264.172 725.098 Q265.48 721.598 268.344 718.203 Q271.244 714.808 276.69 710.353 Q285.141 703.422 288.111 699.391 Q291.082 695.324 291.082 691.717 Q291.082 687.933 288.359 685.352 Q285.671 682.735 281.322 682.735 Q276.725 682.735 273.967 685.493 Q271.208 688.252 271.173 693.132 L264.631 692.46 Q265.303 685.14 269.688 681.321 Q274.073 677.466 281.463 677.466 Q288.925 677.466 293.274 681.604 Q297.624 685.741 297.624 691.859 Q297.624 694.97 296.351 697.976 Q295.078 700.982 292.107 704.306 Q289.172 707.63 282.312 713.429 Q276.583 718.238 274.957 719.971 Q273.33 721.668 272.269 723.401 L297.694 723.401 Z" fill="#000000" fill-rule="nonzero" fill-opacity="1" /><path clip-path="url(#clip490)" d="M308.091 729.519 L308.091 722.269 L315.34 722.269 L315.34 729.519 L308.091 729.519 Z" fill="#000000" fill-rule="nonzero" fill-opacity="1" /><path clip-path="url(#clip490)" d="M324.64 715.94 L331.323 715.374 Q332.066 720.254 334.753 722.729 Q337.476 725.169 341.295 725.169 Q345.892 725.169 349.075 721.704 Q352.257 718.238 352.257 712.51 Q352.257 707.064 349.181 703.917 Q346.14 700.77 341.189 700.77 Q338.112 700.77 335.637 702.184 Q333.162 703.563 331.747 705.791 L325.771 705.013 L330.793 678.386 L356.571 678.386 L356.571 684.468 L335.885 684.468 L333.091 698.4 Q337.759 695.147 342.886 695.147 Q349.676 695.147 354.343 699.85 Q359.011 704.553 359.011 711.944 Q359.011 718.981 354.909 724.108 Q349.923 730.403 341.295 730.403 Q334.223 730.403 329.732 726.442 Q325.276 722.482 324.64 715.94 Z" fill="#000000" fill-rule="nonzero" fill-opacity="1" /><path clip-path="url(#clip490)" d="M364.917 703.952 Q364.917 694.758 366.791 689.171 Q368.7 683.549 372.413 680.508 Q376.161 677.466 381.819 677.466 Q385.992 677.466 389.139 679.164 Q392.286 680.826 394.337 684.008 Q396.388 687.155 397.555 691.717 Q398.722 696.243 398.722 703.952 Q398.722 713.075 396.848 718.698 Q394.974 724.285 391.226 727.362 Q387.513 730.403 381.819 730.403 Q374.323 730.403 370.044 725.028 Q364.917 718.557 364.917 703.952 M371.458 703.952 Q371.458 716.718 374.429 720.961 Q377.435 725.169 381.819 725.169 Q386.204 725.169 389.175 720.926 Q392.18 716.682 392.18 703.952 Q392.18 691.151 389.175 686.943 Q386.204 682.735 381.749 682.735 Q377.364 682.735 374.747 686.448 Q371.458 691.187 371.458 703.952 Z" fill="#000000" fill-rule="nonzero" fill-opacity="1" /><path clip-path="url(#clip490)" d="M297.128 491.566 L297.128 497.684 L262.863 497.684 Q262.792 495.385 263.606 493.264 Q264.914 489.763 267.778 486.368 Q270.678 482.973 276.124 478.518 Q284.575 471.587 287.546 467.556 Q290.516 463.489 290.516 459.882 Q290.516 456.099 287.793 453.517 Q285.106 450.9 280.756 450.9 Q276.159 450.9 273.401 453.659 Q270.643 456.417 270.607 461.297 L264.065 460.625 Q264.737 453.305 269.122 449.486 Q273.507 445.632 280.898 445.632 Q288.359 445.632 292.708 449.769 Q297.058 453.906 297.058 460.024 Q297.058 463.135 295.785 466.141 Q294.512 469.147 291.541 472.471 Q288.606 475.795 281.746 481.594 Q276.018 486.403 274.391 488.136 Q272.764 489.833 271.704 491.566 L297.128 491.566 Z" fill="#000000" fill-rule="nonzero" fill-opacity="1" /><path clip-path="url(#clip490)" d="M307.525 497.684 L307.525 490.435 L314.774 490.435 L314.774 497.684 L307.525 497.684 Z" fill="#000000" fill-rule="nonzero" fill-opacity="1" /><path clip-path="url(#clip490)" d="M324.498 452.633 L324.498 446.516 L358.056 446.516 L358.056 451.466 Q353.106 456.735 348.226 465.469 Q343.381 474.204 340.729 483.433 Q338.82 489.94 338.289 497.684 L331.747 497.684 Q331.854 491.566 334.152 482.903 Q336.451 474.239 340.729 466.212 Q345.043 458.15 349.888 452.633 L324.498 452.633 Z" fill="#000000" fill-rule="nonzero" fill-opacity="1" /><path clip-path="url(#clip490)" d="M364.351 484.105 L371.034 483.539 Q371.777 488.419 374.464 490.894 Q377.187 493.334 381.006 493.334 Q385.603 493.334 388.786 489.869 Q391.968 486.403 391.968 480.675 Q391.968 475.229 388.892 472.082 Q385.851 468.935 380.9 468.935 Q377.823 468.935 375.348 470.349 Q372.873 471.728 371.458 473.956 L365.482 473.178 L370.504 446.551 L396.282 446.551 L396.282 452.633 L375.596 452.633 L372.802 466.566 Q377.47 463.312 382.597 463.312 Q389.387 463.312 394.054 468.015 Q398.722 472.718 398.722 480.109 Q398.722 487.146 394.62 492.273 Q389.634 498.568 381.006 498.568 Q373.934 498.568 369.443 494.607 Q364.987 490.647 364.351 484.105 Z" fill="#000000" fill-rule="nonzero" fill-opacity="1" /><path clip-path="url(#clip490)" d="M264.278 252.164 L270.643 251.315 Q271.739 256.726 274.356 259.13 Q277.008 261.499 280.791 261.499 Q285.282 261.499 288.359 258.388 Q291.471 255.276 291.471 250.679 Q291.471 246.294 288.606 243.465 Q285.742 240.601 281.322 240.601 Q279.518 240.601 276.831 241.308 L277.538 235.721 Q278.175 235.792 278.564 235.792 Q282.63 235.792 285.884 233.67 Q289.137 231.548 289.137 227.128 Q289.137 223.627 286.768 221.329 Q284.398 219.03 280.65 219.03 Q276.937 219.03 274.462 221.364 Q271.986 223.698 271.279 228.366 L264.914 227.234 Q266.081 220.834 270.218 217.333 Q274.356 213.797 280.509 213.797 Q284.752 213.797 288.323 215.635 Q291.895 217.439 293.769 220.586 Q295.679 223.733 295.679 227.269 Q295.679 230.629 293.875 233.387 Q292.072 236.145 288.536 237.772 Q293.133 238.833 295.679 242.192 Q298.225 245.516 298.225 250.537 Q298.225 257.327 293.274 262.065 Q288.323 266.768 280.756 266.768 Q273.931 266.768 269.405 262.702 Q264.914 258.635 264.278 252.164 Z" fill="#000000" fill-rule="nonzero" fill-opacity="1" /><path clip-path="url(#clip490)" d="M308.091 265.849 L308.091 258.6 L315.34 258.6 L315.34 265.849 L308.091 265.849 Z" fill="#000000" fill-rule="nonzero" fill-opacity="1" /><path clip-path="url(#clip490)" d="M324.64 240.282 Q324.64 231.088 326.514 225.501 Q328.423 219.879 332.136 216.838 Q335.885 213.797 341.543 213.797 Q345.715 213.797 348.862 215.494 Q352.01 217.156 354.061 220.339 Q356.112 223.486 357.278 228.047 Q358.445 232.574 358.445 240.282 Q358.445 249.406 356.571 255.028 Q354.697 260.615 350.949 263.692 Q347.236 266.733 341.543 266.733 Q334.046 266.733 329.767 261.358 Q324.64 254.887 324.64 240.282 M331.182 240.282 Q331.182 253.048 334.152 257.291 Q337.158 261.499 341.543 261.499 Q345.927 261.499 348.898 257.256 Q351.903 253.013 351.903 240.282 Q351.903 227.482 348.898 223.274 Q345.927 219.065 341.472 219.065 Q337.087 219.065 334.47 222.778 Q331.182 227.517 331.182 240.282 Z" fill="#000000" fill-rule="nonzero" fill-opacity="1" /><path clip-path="url(#clip490)" d="M364.917 240.282 Q364.917 231.088 366.791 225.501 Q368.7 219.879 372.413 216.838 Q376.161 213.797 381.819 213.797 Q385.992 213.797 389.139 215.494 Q392.286 217.156 394.337 220.339 Q396.388 223.486 397.555 228.047 Q398.722 232.574 398.722 240.282 Q398.722 249.406 396.848 255.028 Q394.974 260.615 391.226 263.692 Q387.513 266.733 381.819 266.733 Q374.323 266.733 370.044 261.358 Q364.917 254.887 364.917 240.282 M371.458 240.282 Q371.458 253.048 374.429 257.291 Q377.435 261.499 381.819 261.499 Q386.204 261.499 389.175 257.256 Q392.18 253.013 392.18 240.282 Q392.18 227.482 389.175 223.274 Q386.204 219.065 381.749 219.065 Q377.364 219.065 374.747 222.778 Q371.458 227.517 371.458 240.282 Z" fill="#000000" fill-rule="nonzero" fill-opacity="1" /><path clip-path="url(#clip490)" d="M213.703 872.784 L207.727 873.491 Q208.293 871.405 208.293 869.849 Q208.293 867.727 207.586 866.454 Q206.879 865.181 205.606 864.368 Q204.651 863.767 200.867 862.423 Q200.337 862.246 199.311 861.857 L161.686 876.108 L161.686 869.248 L183.434 861.433 Q187.571 859.912 192.133 858.71 Q187.748 857.614 183.575 856.093 L161.686 848.066 L161.686 841.701 L199.877 855.987 Q206.065 858.286 208.399 859.559 Q211.546 861.256 212.996 863.448 Q214.481 865.641 214.481 868.682 Q214.481 870.521 213.703 872.784 Z" fill="#000000" fill-rule="nonzero" fill-opacity="1" /><path clip-path="url(#clip490)" d="M199.24 814.084 L199.24 820.449 L158.681 820.449 Q160.873 822.747 163.066 826.496 Q165.258 830.209 166.354 833.179 L160.201 833.179 Q157.691 827.839 154.119 823.843 Q150.548 819.848 147.188 818.186 L147.188 814.084 L199.24 814.084 Z" fill="#000000" fill-rule="nonzero" fill-opacity="1" /><polyline clip-path="url(#clip492)" style="stroke:#90ee90; stroke-linecap:round; stroke-linejoin:round; stroke-width:40; stroke-opacity:1; fill:none" points="523.308,104.335 528.414,106.898 533.519,109.75 538.625,112.89 543.731,116.319 548.837,120.036 553.942,124.04 559.048,128.333 564.154,132.911 569.26,137.776 574.365,142.925 579.471,148.356 584.577,154.069 589.682,160.062 594.788,166.332 599.894,172.877 605,179.695 610.105,186.783 615.211,194.137 620.317,201.756 625.422,209.635 630.528,217.771 635.634,226.16 640.74,234.799 645.845,243.683 650.951,252.807 656.057,262.168 661.163,271.76 666.268,281.579 671.374,291.619 676.48,301.876 681.585,312.343 686.691,323.016 691.797,333.888 696.903,344.954 702.008,356.207 707.114,367.643 712.22,379.253 717.326,391.033 722.431,402.975 727.537,415.073 732.643,427.321 737.748,439.712 742.854,452.239 747.96,464.896 753.066,477.675 758.171,490.57 763.277,503.574 768.383,516.68 773.488,529.881 778.594,543.171 783.7,556.542 788.806,569.988 793.911,583.502 799.017,597.078 804.123,610.707 809.229,624.385 814.334,638.104 819.44,651.858 824.546,665.64 829.651,679.444 834.757,693.264 839.863,707.093 844.969,720.926 850.074,734.756 855.18,748.577 860.286,762.384 865.392,776.171 870.497,789.933 875.603,803.663 880.709,817.357 885.814,831.009 890.92,844.615 896.026,858.169 901.132,871.666 906.237,885.103 911.343,898.473 916.449,911.773 921.554,924.999 926.66,938.146 931.766,951.21 936.872,964.187 941.977,977.074 947.083,989.866 952.189,1002.56 957.295,1015.16 962.4,1027.65 967.506,1040.03 972.612,1052.3 977.717,1064.46 982.823,1076.5 987.929,1088.43 993.035,1100.23 998.14,1111.91 1003.25,1123.46 1008.35,1134.89 1013.46,1146.19 1018.56,1157.35 1023.67,1168.39 1028.77,1179.28 1033.88,1190.04 1038.99,1200.67 1044.09,1211.15 1049.2,1221.49 1054.3,1231.7 1059.41,1241.75 1064.51,1251.67 1069.62,1261.44 1074.73,1271.07 1079.83,1280.55 1084.94,1289.88 1090.04,1299.07 1095.15,1308.11 1100.25,1317 1105.36,1325.74 1110.47,1334.34 1115.57,1342.78 1120.68,1351.08 1125.78,1359.23 1130.89,1367.24 1135.99,1375.09 1141.1,1382.8 1146.21,1390.36 1151.31,1397.77 1156.42,1405.03 1161.52,1412.15 1166.63,1419.12 1171.73,1425.94 1176.84,1432.62 1181.95,1439.16 1187.05,1445.55 1192.16,1451.8 1197.26,1457.9 1202.37,1463.86 1207.48,1469.68 1212.58,1475.36 1217.69,1480.9 1222.79,1486.29 1227.9,1491.55 1233,1496.67 1238.11,1501.66 1243.22,1506.5 1248.32,1511.22 1253.43,1515.79 1258.53,1520.23 1263.64,1524.54 1268.74,1528.72 1273.85,1532.77 1278.96,1536.68 1284.06,1540.46 1289.17,1544.12 1294.27,1547.65 1299.38,1551.05 1304.48,1554.32 1309.59,1557.47 1314.7,1560.49 1319.8,1563.39 1324.91,1566.16 1330.01,1568.81 1335.12,1571.35 1340.22,1573.76 1345.33,1576.05 1350.44,1578.22 1355.54,1580.27 1360.65,1582.21 1365.75,1584.02 1370.86,1585.72 1375.96,1587.31 1381.07,1588.78 1386.18,1590.14 1391.28,1591.38 1396.39,1592.52 1401.49,1593.54 1406.6,1594.44 1411.7,1595.24 1416.81,1595.93 1421.92,1596.51 1427.02,1596.98 1432.13,1597.34 1437.23,1597.6 1442.34,1597.74 1447.44,1597.79 1452.55,1597.72 1457.66,1597.55 1462.76,1597.28 1467.87,1596.9 1472.97,1596.42 1478.08,1595.84 1483.18,1595.15 1488.29,1594.36 1493.4,1593.47 1498.5,1592.48 1503.61,1591.39 1508.71,1590.2 1513.82,1588.91 1518.92,1587.53 1524.03,1586.04 1529.14,1584.45 1534.24,1582.77 1539.35,1580.99 1544.45,1579.12 1549.56,1577.14 1554.66,1575.07 1559.77,1572.91 1564.88,1570.65 1569.98,1568.3 1575.09,1565.85 1580.19,1563.3 1585.3,1560.67 1590.4,1557.94 1595.51,1555.12 1600.62,1552.2 1605.72,1549.19 1610.83,1546.09 1615.93,1542.9 1621.04,1539.62 1626.14,1536.25 1631.25,1532.79 1636.36,1529.23 1641.46,1525.59 1646.57,1521.86 1651.67,1518.03 1656.78,1514.12 1661.88,1510.12 1666.99,1506.03 1672.1,1501.86 1677.2,1497.59 1682.31,1493.24 1687.41,1488.8 1692.52,1484.28 1697.62,1479.66 1702.73,1474.96 1707.84,1470.18 1712.94,1465.31 1718.05,1460.35 1723.15,1455.31 1728.26,1450.18 1733.36,1444.97 1738.47,1439.68 1743.58,1434.3 1748.68,1428.83 1753.79,1423.29 1758.89,1417.65 1764,1411.94 1769.1,1406.14 1774.21,1400.26 1779.32,1394.3 1784.42,1388.26 1789.53,1382.13 1794.63,1375.93 1799.74,1369.64 1804.84,1363.27 1809.95,1356.82 1815.06,1350.29 1820.16,1343.69 1825.27,1337 1830.37,1330.23 1835.48,1323.38 1840.58,1316.46 1845.69,1309.45 1850.8,1302.37 1855.9,1295.21 1861.01,1287.98 1866.11,1280.66 1871.22,1273.27 1876.32,1265.81 1881.43,1258.27 1886.54,1250.65 1891.64,1242.96 1896.75,1235.19 1901.85,1227.35 1906.96,1219.44 1912.06,1211.45 1917.17,1203.4 1922.28,1195.26 1927.38,1187.06 1932.49,1178.79 1937.59,1170.44 1942.7,1162.03 1947.81,1153.55 1952.91,1144.99 1958.02,1136.37 1963.12,1127.69 1968.23,1118.93 1973.33,1110.11 1978.44,1101.22 1983.55,1092.27 1988.65,1083.26 1993.76,1074.18 1998.86,1065.04 2003.97,1055.84 2009.07,1046.57 2014.18,1037.25 2019.29,1027.87 2024.39,1018.43 2029.5,1008.94 2034.6,999.383 2039.71,989.776 2044.81,980.114 2049.92,970.401 2055.03,960.635 2060.13,950.819 2065.24,940.954 2070.34,931.04 2075.45,921.08 2080.55,911.075 2085.66,901.025 2090.77,890.932 2095.87,880.799 2100.98,870.625 2106.08,860.413 2111.19,850.164 2116.29,839.88 2121.4,829.562 2126.51,819.212 2131.61,808.832 2136.72,798.423 2141.82,787.988 2146.93,777.527 2152.03,767.044 2157.14,756.539 2162.25,746.016 2167.35,735.475 2172.46,724.919 2177.56,714.35 2182.67,703.77 2187.77,693.181 2192.88,682.586 2197.99,671.987 2203.09,661.386 2208.2,650.785 2213.3,640.187 2218.41,629.595 2223.51,619.011 2228.62,608.437 2233.73,597.876 2238.83,587.331 2243.94,576.804 2249.04,566.298 2254.15,555.817 2259.25,545.362 2264.36,534.938 2269.47,524.545 2274.57,514.189 2279.68,503.872 2284.78,493.596 2289.89,483.365 2294.99,473.183 2300.1,463.052 2305.21,452.976 2310.31,442.957 2315.42,433.001 2320.52,423.109 2325.63,413.286 2330.73,403.534 2335.84,393.858 2340.95,384.261 2346.05,374.747 2351.16,365.32 2356.26,355.983 2361.37,346.739 2366.47,337.594 2371.58,328.55 2376.69,319.612 2381.79,310.784 2386.9,302.069 2392,293.472 2397.11,284.997 2402.21,276.647 2407.32,268.427 2412.43,260.342 2417.53,252.394 2422.64,244.589 2427.74,236.93 2432.85,229.422 2437.95,222.07 2443.06,214.876 2448.17,207.846 2453.27,200.984 2458.38,194.294 2463.48,187.781 2468.59,181.448 2473.69,175.3 2478.8,169.341 2483.91,163.575 2489.01,158.007 2494.12,152.641 2499.22,147.481 2504.33,142.53 2509.43,137.793 2514.54,133.275 2519.65,128.978 2524.75,124.908 2529.86,121.067 2534.96,117.459 2540.07,114.089 2545.17,110.959 2550.28,108.074 2555.39,105.436 2560.49,103.05 2565.6,100.918 2570.7,99.0431 2575.81,97.4289 2580.91,96.0779 2586.02,94.9931 2591.13,94.177 2596.23,93.6321 2601.34,93.3607 2606.44,93.365 2611.55,93.6471 2616.65,94.2089 2621.76,95.052 2626.87,96.178 2631.97,97.5883 2637.08,99.2839 2642.18,101.266 2647.29,103.536 2652.39,106.093 2657.5,108.939 2662.61,112.073 2667.71,115.496 2672.82,119.208 2677.92,123.207 2683.03,127.495 2688.13,132.069 2693.24,136.929 2698.35,142.074 2703.45,147.501 2708.56,153.211 2713.66,159.2 2718.77,165.467 2723.88,172.009 2728.98,178.824 2734.09,185.909 2739.19,193.262 2744.3,200.878 2749.4,208.756 2754.51,216.89 2759.62,225.279 2764.72,233.916 2769.83,242.8 2774.93,251.924 2780.04,261.284 2785.14,270.877 2790.25,280.696 2795.36,290.737 2800.46,300.995 2805.57,311.463 2810.67,322.138 2815.78,333.011 2820.88,344.08 2825.99,355.336 2831.1,366.774 2836.2,378.388 2841.31,390.171 2846.41,402.117 2851.52,414.219 2856.62,426.471 2861.73,438.866 2866.84,451.399 2871.94,464.06 2877.05,476.845 2882.15,489.745 2887.26,502.756 2892.36,515.867 2897.47,529.076 2902.58,542.372 2907.68,555.75 2912.79,569.203 2917.89,582.725 2923,596.308 2928.1,609.946 2933.21,623.631 2938.32,637.359 2943.42,651.121 2948.53,664.912 2953.63,678.725 2958.74,692.554 2963.84,706.393 2968.95,720.234 2974.06,734.074 2979.16,747.905 2984.27,761.722 2989.37,775.519 2994.48,789.291 2999.58,803.032 3004.69,816.736 3009.8,830.399 3014.9,844.016 3020.01,857.58 3025.11,871.089 3030.22,884.536 3035.32,897.917 3040.43,911.228 3045.54,924.465 3050.64,937.623 3055.75,950.699 3060.85,963.687 3065.96,976.586 3071.06,989.39 3076.17,1002.1 "/>
<polyline clip-path="url(#clip492)" style="stroke:#0000ff; stroke-linecap:round; stroke-linejoin:round; stroke-width:12; stroke-opacity:1; fill:none" points="523.308,104.106 528.414,106.695 533.519,109.572 538.625,112.737 543.731,116.19 548.837,119.931 553.942,123.96 559.048,128.275 564.154,132.875 569.26,137.761 574.365,142.93 579.471,148.381 584.577,154.112 589.682,160.122 594.788,166.408 599.894,172.968 605,179.8 610.105,186.9 615.211,194.266 620.317,201.894 625.422,209.782 630.528,217.925 635.634,226.32 640.74,234.963 645.845,243.85 650.951,252.976 656.057,262.337 661.163,271.928 666.268,281.745 671.374,291.781 676.48,302.033 681.585,312.494 686.691,323.16 691.797,334.024 696.903,345.08 702.008,356.324 707.114,367.748 712.22,379.346 717.326,391.114 722.431,403.043 727.537,415.127 732.643,427.361 737.748,439.738 742.854,452.25 747.96,464.891 753.066,477.656 758.171,490.535 763.277,503.524 768.383,516.616 773.488,529.803 778.594,543.078 783.7,556.436 788.806,569.868 793.911,583.369 799.017,596.932 804.123,610.551 809.229,624.217 814.334,637.926 819.44,651.67 824.546,665.443 829.651,679.239 834.757,693.052 839.863,706.874 844.969,720.701 850.074,734.526 855.18,748.343 860.286,762.147 865.392,775.931 870.497,789.69 875.603,803.419 880.709,817.112 885.814,830.764 890.92,844.37 896.026,857.925 901.132,871.424 906.237,884.862 911.343,898.235 916.449,911.537 921.554,924.765 926.66,937.915 931.766,950.983 936.872,963.963 941.977,976.853 947.083,989.649 952.189,1002.35 957.295,1014.95 962.4,1027.44 967.506,1039.82 972.612,1052.1 977.717,1064.26 982.823,1076.31 987.929,1088.23 993.035,1100.04 998.14,1111.72 1003.25,1123.28 1008.35,1134.7 1013.46,1146 1018.56,1157.17 1023.67,1168.2 1028.77,1179.1 1033.88,1189.86 1038.99,1200.48 1044.09,1210.96 1049.2,1221.3 1054.3,1231.5 1059.41,1241.55 1064.51,1251.47 1069.62,1261.23 1074.73,1270.85 1079.83,1280.33 1084.94,1289.66 1090.04,1298.84 1095.15,1307.87 1100.25,1316.76 1105.36,1325.5 1110.47,1334.09 1115.57,1342.53 1120.68,1350.82 1125.78,1358.96 1130.89,1366.96 1135.99,1374.8 1141.1,1382.5 1146.21,1390.05 1151.31,1397.46 1156.42,1404.71 1161.52,1411.82 1166.63,1418.78 1171.73,1425.6 1176.84,1432.27 1181.95,1438.8 1187.05,1445.18 1192.16,1451.42 1197.26,1457.52 1202.37,1463.47 1207.48,1469.28 1212.58,1474.95 1217.69,1480.48 1222.79,1485.88 1227.9,1491.13 1233,1496.24 1238.11,1501.22 1243.22,1506.06 1248.32,1510.77 1253.43,1515.34 1258.53,1519.78 1263.64,1524.08 1268.74,1528.25 1273.85,1532.29 1278.96,1536.21 1284.06,1539.99 1289.17,1543.64 1294.27,1547.16 1299.38,1550.56 1304.48,1553.83 1309.59,1556.98 1314.7,1560 1319.8,1562.9 1324.91,1565.67 1330.01,1568.32 1335.12,1570.85 1340.22,1573.26 1345.33,1575.56 1350.44,1577.73 1355.54,1579.78 1360.65,1581.72 1365.75,1583.54 1370.86,1585.24 1375.96,1586.83 1381.07,1588.31 1386.18,1589.67 1391.28,1590.91 1396.39,1592.05 1401.49,1593.07 1406.6,1593.99 1411.7,1594.79 1416.81,1595.48 1421.92,1596.07 1427.02,1596.54 1432.13,1596.91 1437.23,1597.17 1442.34,1597.32 1447.44,1597.37 1452.55,1597.31 1457.66,1597.15 1462.76,1596.89 1467.87,1596.52 1472.97,1596.04 1478.08,1595.46 1483.18,1594.79 1488.29,1594.01 1493.4,1593.12 1498.5,1592.14 1503.61,1591.06 1508.71,1589.88 1513.82,1588.59 1518.92,1587.21 1524.03,1585.73 1529.14,1584.16 1534.24,1582.48 1539.35,1580.71 1544.45,1578.84 1549.56,1576.88 1554.66,1574.81 1559.77,1572.66 1564.88,1570.41 1569.98,1568.06 1575.09,1565.62 1580.19,1563.08 1585.3,1560.45 1590.4,1557.73 1595.51,1554.92 1600.62,1552.01 1605.72,1549.01 1610.83,1545.92 1615.93,1542.73 1621.04,1539.46 1626.14,1536.09 1631.25,1532.63 1636.36,1529.09 1641.46,1525.45 1646.57,1521.72 1651.67,1517.91 1656.78,1514 1661.88,1510.01 1666.99,1505.92 1672.1,1501.75 1677.2,1497.5 1682.31,1493.15 1687.41,1488.72 1692.52,1484.19 1697.62,1479.59 1702.73,1474.89 1707.84,1470.11 1712.94,1465.25 1718.05,1460.3 1723.15,1455.26 1728.26,1450.14 1733.36,1444.93 1738.47,1439.64 1743.58,1434.26 1748.68,1428.81 1753.79,1423.26 1758.89,1417.64 1764,1411.93 1769.1,1406.14 1774.21,1400.26 1779.32,1394.3 1784.42,1388.27 1789.53,1382.15 1794.63,1375.94 1799.74,1369.66 1804.84,1363.3 1809.95,1356.86 1815.06,1350.33 1820.16,1343.73 1825.27,1337.05 1830.37,1330.28 1835.48,1323.44 1840.58,1316.53 1845.69,1309.53 1850.8,1302.45 1855.9,1295.3 1861.01,1288.07 1866.11,1280.77 1871.22,1273.38 1876.32,1265.93 1881.43,1258.39 1886.54,1250.79 1891.64,1243.1 1896.75,1235.35 1901.85,1227.51 1906.96,1219.61 1912.06,1211.63 1917.17,1203.58 1922.28,1195.46 1927.38,1187.27 1932.49,1179.01 1937.59,1170.68 1942.7,1162.27 1947.81,1153.8 1952.91,1145.26 1958.02,1136.65 1963.12,1127.98 1968.23,1119.24 1973.33,1110.43 1978.44,1101.56 1983.55,1092.62 1988.65,1083.62 1993.76,1074.55 1998.86,1065.43 2003.97,1056.24 2009.07,1046.99 2014.18,1037.68 2019.29,1028.32 2024.39,1018.89 2029.5,1009.41 2034.6,999.876 2039.71,990.284 2044.81,980.639 2049.92,970.941 2055.03,961.191 2060.13,951.39 2065.24,941.54 2070.34,931.643 2075.45,921.698 2080.55,911.707 2085.66,901.673 2090.77,891.595 2095.87,881.476 2100.98,871.316 2106.08,861.118 2111.19,850.883 2116.29,840.612 2121.4,830.307 2126.51,819.97 2131.61,809.602 2136.72,799.205 2141.82,788.78 2146.93,778.331 2152.03,767.857 2157.14,757.362 2162.25,746.847 2167.35,736.314 2172.46,725.765 2177.56,715.203 2182.67,704.628 2187.77,694.045 2192.88,683.454 2197.99,672.858 2203.09,662.259 2208.2,651.66 2213.3,641.062 2218.41,630.47 2223.51,619.884 2228.62,609.308 2233.73,598.744 2238.83,588.194 2243.94,577.662 2249.04,567.15 2254.15,556.661 2259.25,546.198 2264.36,535.764 2269.47,525.361 2274.57,514.994 2279.68,504.663 2284.78,494.374 2289.89,484.129 2294.99,473.931 2300.1,463.783 2305.21,453.689 2310.31,443.653 2315.42,433.676 2320.52,423.764 2325.63,413.919 2330.73,404.146 2335.84,394.447 2340.95,384.826 2346.05,375.287 2351.16,365.834 2356.26,356.471 2361.37,347.2 2366.47,338.027 2371.58,328.956 2376.69,319.989 2381.79,311.131 2386.9,302.386 2392,293.759 2397.11,285.253 2402.21,276.872 2407.32,268.62 2412.43,260.503 2417.53,252.523 2422.64,244.686 2427.74,236.994 2432.85,229.454 2437.95,222.069 2443.06,214.842 2448.17,207.78 2453.27,200.885 2458.38,194.162 2463.48,187.616 2468.59,181.251 2473.69,175.07 2478.8,169.079 2483.91,163.282 2489.01,157.682 2494.12,152.284 2499.22,147.093 2504.33,142.111 2509.43,137.344 2514.54,132.796 2519.65,128.469 2524.75,124.369 2529.86,120.499 2534.96,116.863 2540.07,113.465 2545.17,110.308 2550.28,107.395 2555.39,104.73 2560.49,102.317 2565.6,100.159 2570.7,98.2581 2575.81,96.6182 2580.91,95.2418 2586.02,94.1319 2591.13,93.2909 2596.23,92.7214 2601.34,92.4255 2606.44,92.4055 2611.55,92.6634 2616.65,93.201 2621.76,94.02 2626.87,95.1219 2631.97,96.5081 2637.08,98.1795 2642.18,100.137 2647.29,102.382 2652.39,104.915 2657.5,107.736 2662.61,110.845 2667.71,114.242 2672.82,117.928 2677.92,121.902 2683.03,126.162 2688.13,130.709 2693.24,135.541 2698.35,140.658 2703.45,146.057 2708.56,151.737 2713.66,157.696 2718.77,163.932 2723.88,170.443 2728.98,177.226 2734.09,184.279 2739.19,191.598 2744.3,199.181 2749.4,207.024 2754.51,215.124 2759.62,223.476 2764.72,232.078 2769.83,240.924 2774.93,250.011 2780.04,259.334 2785.14,268.889 2790.25,278.67 2795.36,288.672 2800.46,298.891 2805.57,309.321 2810.67,319.956 2815.78,330.791 2820.88,341.821 2825.99,353.039 2831.1,364.438 2836.2,376.014 2841.31,387.759 2846.41,399.669 2851.52,411.735 2856.62,423.952 2861.73,436.313 2866.84,448.812 2871.94,461.441 2877.05,474.194 2882.15,487.065 2887.26,500.046 2892.36,513.131 2897.47,526.314 2902.58,539.586 2907.68,552.942 2912.79,566.375 2917.89,579.877 2923,593.443 2928.1,607.066 2933.21,620.738 2938.32,634.454 2943.42,648.207 2948.53,661.99 2953.63,675.798 2958.74,689.622 2963.84,703.459 2968.95,717.301 2974.06,731.143 2979.16,744.977 2984.27,758.8 2989.37,772.604 2994.48,786.385 2999.58,800.136 3004.69,813.853 3009.8,827.529 3014.9,841.161 3020.01,854.742 3025.11,868.269 3030.22,881.735 3035.32,895.137 3040.43,908.469 3045.54,921.729 3050.64,934.91 3055.75,948.01 3060.85,961.023 3065.96,973.948 3071.06,986.778 3076.17,999.512 "/>
<polyline clip-path="url(#clip492)" style="stroke:#ff0000; stroke-linecap:round; stroke-linejoin:round; stroke-width:12; stroke-opacity:1; fill:none" points="523.308,104.335 528.414,104.552 533.519,105.056 538.625,105.847 543.731,106.926 548.837,108.294 553.942,109.952 559.048,111.9 564.154,114.138 569.26,116.665 574.365,119.482 579.471,122.588 584.577,125.983 589.682,129.665 594.788,133.633 599.894,137.886 605,142.422 610.105,147.24 615.211,152.337 620.317,157.712 625.422,163.362 630.528,169.284 635.634,175.476 640.74,181.936 645.845,188.658 650.951,195.642 656.057,202.882 661.163,210.375 666.268,218.118 671.374,226.106 676.48,234.335 681.585,242.802 686.691,251.5 691.797,260.426 696.903,269.576 702.008,278.943 707.114,288.524 712.22,298.312 717.326,308.303 722.431,318.491 727.537,328.87 732.643,339.436 737.748,350.182 742.854,361.103 747.96,372.192 753.066,383.444 758.171,394.854 763.277,406.414 768.383,418.118 773.488,429.962 778.594,441.937 783.7,454.04 788.806,466.262 793.911,478.598 799.017,491.042 804.123,503.587 809.229,516.228 814.334,528.957 819.44,541.77 824.546,554.659 829.651,567.618 834.757,580.642 839.863,593.725 844.969,606.86 850.074,620.041 855.18,633.263 860.286,646.519 865.392,659.804 870.497,673.112 875.603,686.438 880.709,699.776 885.814,713.119 890.92,726.464 896.026,739.804 901.132,753.135 906.237,766.45 911.343,779.746 916.449,793.016 921.554,806.256 926.66,819.462 931.766,832.628 936.872,845.75 941.977,858.824 947.083,871.844 952.189,884.807 957.295,897.709 962.4,910.545 967.506,923.311 972.612,936.004 977.717,948.62 982.823,961.154 987.929,973.604 993.035,985.967 998.14,998.238 1003.25,1010.41 1008.35,1022.49 1013.46,1034.47 1018.56,1046.35 1023.67,1058.12 1028.77,1069.78 1033.88,1081.32 1038.99,1092.76 1044.09,1104.08 1049.2,1115.28 1054.3,1126.36 1059.41,1137.31 1064.51,1148.14 1069.62,1158.85 1074.73,1169.42 1079.83,1179.87 1084.94,1190.19 1090.04,1200.37 1095.15,1210.42 1100.25,1220.33 1105.36,1230.11 1110.47,1239.74 1115.57,1249.24 1120.68,1258.6 1125.78,1267.82 1130.89,1276.9 1135.99,1285.83 1141.1,1294.62 1146.21,1303.27 1151.31,1311.78 1156.42,1320.14 1161.52,1328.36 1166.63,1336.43 1171.73,1344.36 1176.84,1352.14 1181.95,1359.77 1187.05,1367.26 1192.16,1374.61 1197.26,1381.81 1202.37,1388.87 1207.48,1395.78 1212.58,1402.55 1217.69,1409.17 1222.79,1415.65 1227.9,1421.98 1233,1428.17 1238.11,1434.22 1243.22,1440.13 1248.32,1445.89 1253.43,1451.52 1258.53,1457 1263.64,1462.34 1268.74,1467.54 1273.85,1472.61 1278.96,1477.53 1284.06,1482.32 1289.17,1486.97 1294.27,1491.49 1299.38,1495.87 1304.48,1500.11 1309.59,1504.22 1314.7,1508.2 1319.8,1512.04 1324.91,1515.76 1330.01,1519.34 1335.12,1522.79 1340.22,1526.11 1345.33,1529.31 1350.44,1532.37 1355.54,1535.31 1360.65,1538.13 1365.75,1540.81 1370.86,1543.38 1375.96,1545.82 1381.07,1548.13 1386.18,1550.33 1391.28,1552.4 1396.39,1554.35 1401.49,1556.19 1406.6,1557.9 1411.7,1559.5 1416.81,1560.97 1421.92,1562.33 1427.02,1563.58 1432.13,1564.71 1437.23,1565.72 1442.34,1566.62 1447.44,1567.41 1452.55,1568.09 1457.66,1568.65 1462.76,1569.1 1467.87,1569.45 1472.97,1569.68 1478.08,1569.8 1483.18,1569.82 1488.29,1569.72 1493.4,1569.52 1498.5,1569.22 1503.61,1568.8 1508.71,1568.29 1513.82,1567.66 1518.92,1566.94 1524.03,1566.11 1529.14,1565.17 1534.24,1564.14 1539.35,1563 1544.45,1561.76 1549.56,1560.42 1554.66,1558.98 1559.77,1557.44 1564.88,1555.8 1569.98,1554.06 1575.09,1552.22 1580.19,1550.29 1585.3,1548.26 1590.4,1546.13 1595.51,1543.91 1600.62,1541.58 1605.72,1539.17 1610.83,1536.66 1615.93,1534.05 1621.04,1531.35 1626.14,1528.56 1631.25,1525.67 1636.36,1522.69 1641.46,1519.62 1646.57,1516.45 1651.67,1513.2 1656.78,1509.85 1661.88,1506.41 1666.99,1502.89 1672.1,1499.27 1677.2,1495.56 1682.31,1491.76 1687.41,1487.88 1692.52,1483.9 1697.62,1479.84 1702.73,1475.69 1707.84,1471.46 1712.94,1467.13 1718.05,1462.72 1723.15,1458.22 1728.26,1453.64 1733.36,1448.97 1738.47,1444.22 1743.58,1439.38 1748.68,1434.46 1753.79,1429.45 1758.89,1424.36 1764,1419.19 1769.1,1413.94 1774.21,1408.6 1779.32,1403.18 1784.42,1397.68 1789.53,1392.09 1794.63,1386.43 1799.74,1380.68 1804.84,1374.86 1809.95,1368.95 1815.06,1362.97 1820.16,1356.9 1825.27,1350.76 1830.37,1344.54 1835.48,1338.24 1840.58,1331.87 1845.69,1325.41 1850.8,1318.88 1855.9,1312.28 1861.01,1305.6 1866.11,1298.84 1871.22,1292.01 1876.32,1285.1 1881.43,1278.12 1886.54,1271.07 1891.64,1263.94 1896.75,1256.74 1901.85,1249.47 1906.96,1242.13 1912.06,1234.72 1917.17,1227.23 1922.28,1219.68 1927.38,1212.06 1932.49,1204.37 1937.59,1196.61 1942.7,1188.78 1947.81,1180.89 1952.91,1172.93 1958.02,1164.9 1963.12,1156.81 1968.23,1148.66 1973.33,1140.44 1978.44,1132.16 1983.55,1123.82 1988.65,1115.41 1993.76,1106.95 1998.86,1098.42 2003.97,1089.84 2009.07,1081.2 2014.18,1072.5 2019.29,1063.75 2024.39,1054.94 2029.5,1046.08 2034.6,1037.16 2039.71,1028.19 2044.81,1019.17 2049.92,1010.1 2055.03,1000.99 2060.13,991.82 2065.24,982.607 2070.34,973.349 2075.45,964.047 2080.55,954.702 2085.66,945.316 2090.77,935.889 2095.87,926.424 2100.98,916.921 2106.08,907.383 2111.19,897.81 2116.29,888.204 2121.4,878.566 2126.51,868.9 2131.61,859.205 2136.72,849.484 2141.82,839.739 2146.93,829.971 2152.03,820.182 2157.14,810.374 2162.25,800.549 2167.35,790.709 2172.46,780.856 2177.56,770.992 2182.67,761.12 2187.77,751.24 2192.88,741.357 2197.99,731.471 2203.09,721.585 2208.2,711.702 2213.3,701.823 2218.41,691.952 2223.51,682.091 2228.62,672.243 2233.73,662.41 2238.83,652.594 2243.94,642.799 2249.04,633.027 2254.15,623.281 2259.25,613.564 2264.36,603.88 2269.47,594.23 2274.57,584.618 2279.68,575.047 2284.78,565.52 2289.89,556.04 2294.99,546.611 2300.1,537.236 2305.21,527.917 2310.31,518.66 2315.42,509.466 2320.52,500.34 2325.63,491.285 2330.73,482.304 2335.84,473.401 2340.95,464.58 2346.05,455.844 2351.16,447.197 2356.26,438.644 2361.37,430.187 2366.47,421.83 2371.58,413.578 2376.69,405.434 2381.79,397.403 2386.9,389.487 2392,381.692 2397.11,374.021 2402.21,366.477 2407.32,359.066 2412.43,351.792 2417.53,344.657 2422.64,337.667 2427.74,330.825 2432.85,324.136 2437.95,317.603 2443.06,311.231 2448.17,305.023 2453.27,298.984 2458.38,293.117 2463.48,287.427 2468.59,281.917 2473.69,276.592 2478.8,271.456 2483.91,266.511 2489.01,261.762 2494.12,257.213 2499.22,252.867 2504.33,248.728 2509.43,244.8 2514.54,241.086 2519.65,237.588 2524.75,234.312 2529.86,231.259 2534.96,228.433 2540.07,225.836 2545.17,223.473 2550.28,221.345 2555.39,219.455 2560.49,217.806 2565.6,216.4 2570.7,215.239 2575.81,214.326 2580.91,213.662 2586.02,213.25 2591.13,213.09 2596.23,213.185 2601.34,213.536 2606.44,214.144 2611.55,215.01 2616.65,216.134 2621.76,217.518 2626.87,219.163 2631.97,221.067 2637.08,223.232 2642.18,225.658 2647.29,228.343 2652.39,231.288 2657.5,234.493 2662.61,237.955 2667.71,241.675 2672.82,245.651 2677.92,249.881 2683.03,254.364 2688.13,259.099 2693.24,264.083 2698.35,269.314 2703.45,274.79 2708.56,280.508 2713.66,286.465 2718.77,292.659 2723.88,299.087 2728.98,305.745 2734.09,312.63 2739.19,319.739 2744.3,327.067 2749.4,334.611 2754.51,342.366 2759.62,350.33 2764.72,358.496 2769.83,366.862 2774.93,375.422 2780.04,384.171 2785.14,393.105 2790.25,402.22 2795.36,411.509 2800.46,420.968 2805.57,430.592 2810.67,440.375 2815.78,450.313 2820.88,460.399 2825.99,470.629 2831.1,480.995 2836.2,491.495 2841.31,502.12 2846.41,512.868 2851.52,523.73 2856.62,534.702 2861.73,545.777 2866.84,556.952 2871.94,568.218 2877.05,579.572 2882.15,591.007 2887.26,602.518 2892.36,614.099 2897.47,625.744 2902.58,637.448 2907.68,649.205 2912.79,661.01 2917.89,672.858 2923,684.742 2928.1,696.659 2933.21,708.602 2938.32,720.566 2943.42,732.545 2948.53,744.537 2953.63,756.534 2958.74,768.532 2963.84,780.526 2968.95,792.511 2974.06,804.484 2979.16,816.438 2984.27,828.37 2989.37,840.275 2994.48,852.149 2999.58,863.988 3004.69,875.787 3009.8,887.542 3014.9,899.25 3020.01,910.905 3025.11,922.506 3030.22,934.048 3035.32,945.527 3040.43,956.94 3045.54,968.284 3050.64,979.555 3055.75,990.75 3060.85,1001.87 3065.96,1012.9 3071.06,1023.85 3076.17,1034.71 "/>
<path clip-path="url(#clip490)" d="M997.713 2180.62 L2601.76 2180.62 L2601.76 1869.58 L997.713 1869.58  Z" fill="#ffffff" fill-rule="evenodd" fill-opacity="1"/>
<polyline clip-path="url(#clip490)" style="stroke:#000000; stroke-linecap:round; stroke-linejoin:round; stroke-width:4; stroke-opacity:1; fill:none" points="997.713,2180.62 2601.76,2180.62 2601.76,1869.58 997.713,1869.58 997.713,2180.62 "/>
<polyline clip-path="url(#clip490)" style="stroke:#90ee90; stroke-linecap:round; stroke-linejoin:round; stroke-width:30; stroke-opacity:1; fill:none" points="1027.78,1947.34 1208.18,1947.34 "/>
<path clip-path="url(#clip490)" d="M1238.25 1948.01 Q1238.25 1935.1 1245.18 1927.82 Q1252.11 1920.5 1263.07 1920.5 Q1270.25 1920.5 1276.02 1923.93 Q1281.78 1927.36 1284.79 1933.51 Q1287.83 1939.63 1287.83 1947.41 Q1287.83 1955.3 1284.64 1961.52 Q1281.46 1967.74 1275.63 1970.96 Q1269.79 1974.14 1263.04 1974.14 Q1255.72 1974.14 1249.95 1970.61 Q1244.19 1967.07 1241.22 1960.95 Q1238.25 1954.84 1238.25 1948.01 M1245.32 1948.12 Q1245.32 1957.49 1250.34 1962.9 Q1255.4 1968.27 1263 1968.27 Q1270.75 1968.27 1275.73 1962.83 Q1280.75 1957.38 1280.75 1947.38 Q1280.75 1941.05 1278.6 1936.34 Q1276.48 1931.6 1272.34 1929.02 Q1268.24 1926.41 1263.11 1926.41 Q1255.82 1926.41 1250.56 1931.43 Q1245.32 1936.41 1245.32 1948.12 Z" fill="#000000" fill-rule="nonzero" fill-opacity="1" /><path clip-path="url(#clip490)" d="M1295.78 1973.26 L1295.78 1935.71 L1301.51 1935.71 L1301.51 1941.4 Q1303.7 1937.4 1305.54 1936.13 Q1307.42 1934.86 1309.64 1934.86 Q1312.86 1934.86 1316.19 1936.91 L1313.99 1942.81 Q1311.66 1941.43 1309.33 1941.43 Q1307.24 1941.43 1305.58 1942.71 Q1303.92 1943.95 1303.21 1946.17 Q1302.15 1949.57 1302.15 1953.6 L1302.15 1973.26 L1295.78 1973.26 Z" fill="#000000" fill-rule="nonzero" fill-opacity="1" /><path clip-path="url(#clip490)" d="M1320.01 1928.74 L1320.01 1921.42 L1326.37 1921.42 L1326.37 1928.74 L1320.01 1928.74 M1320.01 1973.26 L1320.01 1935.71 L1326.37 1935.71 L1326.37 1973.26 L1320.01 1973.26 Z" fill="#000000" fill-rule="nonzero" fill-opacity="1" /><path clip-path="url(#clip490)" d="M1334.89 1976.37 L1341.08 1977.29 Q1341.47 1980.16 1343.24 1981.46 Q1345.61 1983.23 1349.71 1983.23 Q1354.13 1983.23 1356.53 1981.46 Q1358.94 1979.7 1359.79 1976.51 Q1360.28 1974.57 1360.25 1968.34 Q1356.07 1973.26 1349.85 1973.26 Q1342.11 1973.26 1337.86 1967.67 Q1333.62 1962.09 1333.62 1954.27 Q1333.62 1948.9 1335.56 1944.37 Q1337.51 1939.81 1341.19 1937.33 Q1344.9 1934.86 1349.89 1934.86 Q1356.53 1934.86 1360.85 1940.23 L1360.85 1935.71 L1366.72 1935.71 L1366.72 1968.17 Q1366.72 1976.94 1364.91 1980.58 Q1363.15 1984.26 1359.26 1986.38 Q1355.4 1988.5 1349.74 1988.5 Q1343.03 1988.5 1338.89 1985.46 Q1334.75 1982.45 1334.89 1976.37 M1340.16 1953.81 Q1340.16 1961.2 1343.1 1964.6 Q1346.03 1967.99 1350.45 1967.99 Q1354.84 1967.99 1357.81 1964.63 Q1360.78 1961.24 1360.78 1954.02 Q1360.78 1947.13 1357.7 1943.63 Q1354.66 1940.13 1350.35 1940.13 Q1346.1 1940.13 1343.13 1943.59 Q1340.16 1947.02 1340.16 1953.81 Z" fill="#000000" fill-rule="nonzero" fill-opacity="1" /><path clip-path="url(#clip490)" d="M1376.37 1928.74 L1376.37 1921.42 L1382.74 1921.42 L1382.74 1928.74 L1376.37 1928.74 M1376.37 1973.26 L1376.37 1935.71 L1382.74 1935.71 L1382.74 1973.26 L1376.37 1973.26 Z" fill="#000000" fill-rule="nonzero" fill-opacity="1" /><path clip-path="url(#clip490)" d="M1392.43 1973.26 L1392.43 1935.71 L1398.15 1935.71 L1398.15 1941.05 Q1402.29 1934.86 1410.11 1934.86 Q1413.5 1934.86 1416.33 1936.09 Q1419.19 1937.3 1420.61 1939.28 Q1422.02 1941.26 1422.59 1943.98 Q1422.94 1945.75 1422.94 1950.17 L1422.94 1973.26 L1416.58 1973.26 L1416.58 1950.42 Q1416.58 1946.53 1415.84 1944.62 Q1415.09 1942.67 1413.18 1941.54 Q1411.31 1940.37 1408.76 1940.37 Q1404.7 1940.37 1401.73 1942.96 Q1398.79 1945.54 1398.79 1952.75 L1398.79 1973.26 L1392.43 1973.26 Z" fill="#000000" fill-rule="nonzero" fill-opacity="1" /><path clip-path="url(#clip490)" d="M1457.21 1968.63 Q1453.67 1971.63 1450.38 1972.87 Q1447.13 1974.11 1443.38 1974.11 Q1437.19 1974.11 1433.87 1971.1 Q1430.55 1968.06 1430.55 1963.36 Q1430.55 1960.6 1431.78 1958.34 Q1433.06 1956.04 1435.07 1954.66 Q1437.12 1953.28 1439.67 1952.57 Q1441.54 1952.08 1445.33 1951.62 Q1453.04 1950.7 1456.68 1949.43 Q1456.71 1948.12 1456.71 1947.76 Q1456.71 1943.87 1454.91 1942.28 Q1452.47 1940.13 1447.66 1940.13 Q1443.17 1940.13 1441.01 1941.72 Q1438.89 1943.27 1437.87 1947.27 L1431.64 1946.42 Q1432.49 1942.42 1434.44 1939.98 Q1436.38 1937.51 1440.06 1936.2 Q1443.74 1934.86 1448.58 1934.86 Q1453.39 1934.86 1456.4 1935.99 Q1459.4 1937.12 1460.82 1938.85 Q1462.23 1940.55 1462.8 1943.17 Q1463.11 1944.79 1463.11 1949.04 L1463.11 1957.52 Q1463.11 1966.4 1463.5 1968.77 Q1463.93 1971.1 1465.13 1973.26 L1458.48 1973.26 Q1457.49 1971.28 1457.21 1968.63 M1456.68 1954.41 Q1453.21 1955.83 1446.28 1956.82 Q1442.36 1957.38 1440.73 1958.09 Q1439.1 1958.8 1438.22 1960.18 Q1437.34 1961.52 1437.34 1963.18 Q1437.34 1965.73 1439.24 1967.43 Q1441.19 1969.12 1444.9 1969.12 Q1448.58 1969.12 1451.44 1967.53 Q1454.31 1965.9 1455.65 1963.11 Q1456.68 1960.95 1456.68 1956.75 L1456.68 1954.41 Z" fill="#000000" fill-rule="nonzero" fill-opacity="1" /><path clip-path="url(#clip490)" d="M1472.84 1973.26 L1472.84 1921.42 L1479.2 1921.42 L1479.2 1973.26 L1472.84 1973.26 Z" fill="#000000" fill-rule="nonzero" fill-opacity="1" /><polyline clip-path="url(#clip490)" style="stroke:#0000ff; stroke-linecap:round; stroke-linejoin:round; stroke-width:18; stroke-opacity:1; fill:none" points="1027.78,2025.1 1208.18,2025.1 "/>
<path clip-path="url(#clip490)" d="M1257.34 2051.02 L1250.98 2051.02 L1250.98 2010.46 Q1248.68 2012.65 1244.93 2014.84 Q1241.22 2017.04 1238.25 2018.13 L1238.25 2011.98 Q1243.59 2009.47 1247.59 2005.9 Q1251.58 2002.33 1253.24 1998.97 L1257.34 1998.97 L1257.34 2051.02 Z" fill="#000000" fill-rule="nonzero" fill-opacity="1" /><path clip-path="url(#clip490)" d="M1273.65 2025.45 Q1273.65 2016.26 1275.52 2010.67 Q1277.43 2005.05 1281.14 2002.01 Q1284.89 1998.97 1290.55 1998.97 Q1294.72 1998.97 1297.87 2000.67 Q1301.02 2002.33 1303.07 2005.51 Q1305.12 2008.66 1306.29 2013.22 Q1307.45 2017.74 1307.45 2025.45 Q1307.45 2034.58 1305.58 2040.2 Q1303.7 2045.79 1299.96 2048.86 Q1296.24 2051.9 1290.55 2051.9 Q1283.05 2051.9 1278.77 2046.53 Q1273.65 2040.06 1273.65 2025.45 M1280.19 2025.45 Q1280.19 2038.22 1283.16 2042.46 Q1286.16 2046.67 1290.55 2046.67 Q1294.93 2046.67 1297.9 2042.43 Q1300.91 2038.18 1300.91 2025.45 Q1300.91 2012.65 1297.9 2008.44 Q1294.93 2004.24 1290.48 2004.24 Q1286.09 2004.24 1283.48 2007.95 Q1280.19 2012.69 1280.19 2025.45 Z" fill="#000000" fill-rule="nonzero" fill-opacity="1" /><path clip-path="url(#clip490)" d="M1315.13 2011.63 Q1315.13 2006.08 1317.92 2002.19 Q1320.71 1998.3 1326.02 1998.3 Q1330.9 1998.3 1334.08 2001.8 Q1337.3 2005.26 1337.3 2012.02 Q1337.3 2018.59 1334.04 2022.16 Q1330.83 2025.7 1326.09 2025.7 Q1321.38 2025.7 1318.24 2022.2 Q1315.13 2018.7 1315.13 2011.63 M1326.19 2002.68 Q1323.82 2002.68 1322.23 2004.73 Q1320.68 2006.78 1320.68 2012.26 Q1320.68 2017.25 1322.27 2019.3 Q1323.86 2021.32 1326.19 2021.32 Q1328.6 2021.32 1330.15 2019.27 Q1331.75 2017.21 1331.75 2011.77 Q1331.75 2006.75 1330.15 2004.73 Q1328.56 2002.68 1326.19 2002.68 M1326.23 2052.93 L1354.59 1998.3 L1359.75 1998.3 L1331.5 2052.93 L1326.23 2052.93 M1348.65 2038.86 Q1348.65 2033.27 1351.44 2029.41 Q1354.24 2025.52 1359.58 2025.52 Q1364.46 2025.52 1367.64 2029.02 Q1370.86 2032.49 1370.86 2039.24 Q1370.86 2045.82 1367.6 2049.39 Q1364.38 2052.93 1359.61 2052.93 Q1354.91 2052.93 1351.76 2049.43 Q1348.65 2045.89 1348.65 2038.86 M1359.75 2029.91 Q1357.35 2029.91 1355.76 2031.96 Q1354.2 2034.01 1354.2 2039.49 Q1354.2 2044.44 1355.79 2046.49 Q1357.38 2048.54 1359.72 2048.54 Q1362.16 2048.54 1363.71 2046.49 Q1365.3 2044.44 1365.3 2039 Q1365.3 2033.98 1363.71 2031.96 Q1362.12 2029.91 1359.75 2029.91 Z" fill="#000000" fill-rule="nonzero" fill-opacity="1" /><path clip-path="url(#clip490)" d="M1400.21 2065.41 L1400.21 2013.47 L1406 2013.47 L1406 2018.35 Q1408.06 2015.48 1410.64 2014.07 Q1413.22 2012.62 1416.9 2012.62 Q1421.71 2012.62 1425.38 2015.09 Q1429.06 2017.57 1430.93 2022.09 Q1432.81 2026.59 1432.81 2031.96 Q1432.81 2037.72 1430.72 2042.36 Q1428.67 2046.95 1424.71 2049.43 Q1420.79 2051.87 1416.44 2051.87 Q1413.25 2051.87 1410.71 2050.52 Q1408.2 2049.18 1406.57 2047.13 L1406.57 2065.41 L1400.21 2065.41 M1405.97 2032.46 Q1405.97 2039.7 1408.9 2043.17 Q1411.84 2046.64 1416.01 2046.64 Q1420.26 2046.64 1423.26 2043.06 Q1426.3 2039.46 1426.3 2031.92 Q1426.3 2024.75 1423.33 2021.17 Q1420.4 2017.6 1416.3 2017.6 Q1412.23 2017.6 1409.08 2021.42 Q1405.97 2025.21 1405.97 2032.46 Z" fill="#000000" fill-rule="nonzero" fill-opacity="1" /><path clip-path="url(#clip490)" d="M1466.19 2038.93 L1472.77 2039.74 Q1471.21 2045.5 1467 2048.69 Q1462.8 2051.87 1456.25 2051.87 Q1448.01 2051.87 1443.17 2046.81 Q1438.36 2041.72 1438.36 2032.56 Q1438.36 2023.08 1443.24 2017.85 Q1448.12 2012.62 1455.9 2012.62 Q1463.43 2012.62 1468.21 2017.74 Q1472.98 2022.87 1472.98 2032.17 Q1472.98 2032.74 1472.94 2033.87 L1444.94 2033.87 Q1445.29 2040.06 1448.44 2043.35 Q1451.59 2046.64 1456.29 2046.64 Q1459.79 2046.64 1462.27 2044.8 Q1464.74 2042.96 1466.19 2038.93 M1445.29 2028.64 L1466.26 2028.64 Q1465.84 2023.9 1463.86 2021.53 Q1460.82 2017.85 1455.97 2017.85 Q1451.59 2017.85 1448.58 2020.79 Q1445.61 2023.72 1445.29 2028.64 Z" fill="#000000" fill-rule="nonzero" fill-opacity="1" /><path clip-path="url(#clip490)" d="M1480.69 2051.02 L1480.69 2013.47 L1486.42 2013.47 L1486.42 2019.16 Q1488.61 2015.16 1490.45 2013.89 Q1492.32 2012.62 1494.55 2012.62 Q1497.77 2012.62 1501.09 2014.67 L1498.9 2020.57 Q1496.57 2019.19 1494.23 2019.19 Q1492.15 2019.19 1490.48 2020.47 Q1488.82 2021.71 1488.11 2023.93 Q1487.05 2027.33 1487.05 2031.36 L1487.05 2051.02 L1480.69 2051.02 Z" fill="#000000" fill-rule="nonzero" fill-opacity="1" /><path clip-path="url(#clip490)" d="M1518.77 2045.33 L1519.69 2050.95 Q1517 2051.51 1514.88 2051.51 Q1511.42 2051.51 1509.51 2050.42 Q1507.6 2049.32 1506.82 2047.55 Q1506.04 2045.75 1506.04 2040.02 L1506.04 2018.42 L1501.37 2018.42 L1501.37 2013.47 L1506.04 2013.47 L1506.04 2004.17 L1512.37 2000.35 L1512.37 2013.47 L1518.77 2013.47 L1518.77 2018.42 L1512.37 2018.42 L1512.37 2040.38 Q1512.37 2043.1 1512.69 2043.88 Q1513.04 2044.65 1513.79 2045.11 Q1514.56 2045.57 1515.98 2045.57 Q1517.04 2045.57 1518.77 2045.33 Z" fill="#000000" fill-rule="nonzero" fill-opacity="1" /><path clip-path="url(#clip490)" d="M1549.61 2051.02 L1549.61 2045.5 Q1545.22 2051.87 1537.69 2051.87 Q1534.37 2051.87 1531.47 2050.6 Q1528.6 2049.32 1527.19 2047.41 Q1525.81 2045.47 1525.24 2042.67 Q1524.85 2040.8 1524.85 2036.73 L1524.85 2013.47 L1531.22 2013.47 L1531.22 2034.29 Q1531.22 2039.28 1531.61 2041.01 Q1532.21 2043.52 1534.16 2044.97 Q1536.1 2046.39 1538.96 2046.39 Q1541.83 2046.39 1544.34 2044.94 Q1546.85 2043.45 1547.88 2040.94 Q1548.94 2038.4 1548.94 2033.59 L1548.94 2013.47 L1555.3 2013.47 L1555.3 2051.02 L1549.61 2051.02 Z" fill="#000000" fill-rule="nonzero" fill-opacity="1" /><path clip-path="url(#clip490)" d="M1565.2 2051.02 L1565.2 2013.47 L1570.93 2013.47 L1570.93 2019.16 Q1573.12 2015.16 1574.96 2013.89 Q1576.84 2012.62 1579.06 2012.62 Q1582.28 2012.62 1585.61 2014.67 L1583.41 2020.57 Q1581.08 2019.19 1578.75 2019.19 Q1576.66 2019.19 1575 2020.47 Q1573.34 2021.71 1572.63 2023.93 Q1571.57 2027.33 1571.57 2031.36 L1571.57 2051.02 L1565.2 2051.02 Z" fill="#000000" fill-rule="nonzero" fill-opacity="1" /><path clip-path="url(#clip490)" d="M1595.26 2051.02 L1589.35 2051.02 L1589.35 1999.18 L1595.72 1999.18 L1595.72 2017.67 Q1599.75 2012.62 1606.01 2012.62 Q1609.48 2012.62 1612.55 2014.03 Q1615.66 2015.41 1617.64 2017.96 Q1619.66 2020.47 1620.79 2024.04 Q1621.92 2027.61 1621.92 2031.68 Q1621.92 2041.33 1617.15 2046.6 Q1612.37 2051.87 1605.69 2051.87 Q1599.04 2051.87 1595.26 2046.32 L1595.26 2051.02 M1595.19 2031.96 Q1595.19 2038.71 1597.03 2041.72 Q1600.03 2046.64 1605.16 2046.64 Q1609.33 2046.64 1612.37 2043.03 Q1615.42 2039.39 1615.42 2032.21 Q1615.42 2024.85 1612.48 2021.35 Q1609.58 2017.85 1605.44 2017.85 Q1601.27 2017.85 1598.23 2021.49 Q1595.19 2025.1 1595.19 2031.96 Z" fill="#000000" fill-rule="nonzero" fill-opacity="1" /><path clip-path="url(#clip490)" d="M1654.17 2046.39 Q1650.64 2049.39 1647.35 2050.63 Q1644.09 2051.87 1640.35 2051.87 Q1634.16 2051.87 1630.83 2048.86 Q1627.51 2045.82 1627.51 2041.12 Q1627.51 2038.36 1628.75 2036.1 Q1630.02 2033.8 1632.04 2032.42 Q1634.09 2031.04 1636.63 2030.33 Q1638.51 2029.84 1642.29 2029.38 Q1650 2028.46 1653.64 2027.19 Q1653.68 2025.88 1653.68 2025.52 Q1653.68 2021.63 1651.87 2020.04 Q1649.43 2017.89 1644.62 2017.89 Q1640.13 2017.89 1637.98 2019.48 Q1635.85 2021.03 1634.83 2025.03 L1628.61 2024.18 Q1629.45 2020.18 1631.4 2017.74 Q1633.34 2015.27 1637.02 2013.96 Q1640.7 2012.62 1645.54 2012.62 Q1650.35 2012.62 1653.36 2013.75 Q1656.36 2014.88 1657.78 2016.61 Q1659.19 2018.31 1659.76 2020.93 Q1660.08 2022.55 1660.08 2026.8 L1660.08 2035.28 Q1660.08 2044.16 1660.47 2046.53 Q1660.89 2048.86 1662.09 2051.02 L1655.45 2051.02 Q1654.45 2049.04 1654.17 2046.39 M1653.64 2032.17 Q1650.18 2033.59 1643.25 2034.58 Q1639.32 2035.14 1637.69 2035.85 Q1636.07 2036.56 1635.18 2037.94 Q1634.3 2039.28 1634.3 2040.94 Q1634.3 2043.49 1636.21 2045.19 Q1638.15 2046.88 1641.87 2046.88 Q1645.54 2046.88 1648.41 2045.29 Q1651.27 2043.66 1652.62 2040.87 Q1653.64 2038.71 1653.64 2034.51 L1653.64 2032.17 Z" fill="#000000" fill-rule="nonzero" fill-opacity="1" /><path clip-path="url(#clip490)" d="M1683.84 2045.33 L1684.76 2050.95 Q1682.07 2051.51 1679.95 2051.51 Q1676.49 2051.51 1674.58 2050.42 Q1672.67 2049.32 1671.89 2047.55 Q1671.11 2045.75 1671.11 2040.02 L1671.11 2018.42 L1666.44 2018.42 L1666.44 2013.47 L1671.11 2013.47 L1671.11 2004.17 L1677.44 2000.35 L1677.44 2013.47 L1683.84 2013.47 L1683.84 2018.42 L1677.44 2018.42 L1677.44 2040.38 Q1677.44 2043.1 1677.76 2043.88 Q1678.11 2044.65 1678.85 2045.11 Q1679.63 2045.57 1681.05 2045.57 Q1682.11 2045.57 1683.84 2045.33 Z" fill="#000000" fill-rule="nonzero" fill-opacity="1" /><path clip-path="url(#clip490)" d="M1690.1 2006.5 L1690.1 1999.18 L1696.46 1999.18 L1696.46 2006.5 L1690.1 2006.5 M1690.1 2051.02 L1690.1 2013.47 L1696.46 2013.47 L1696.46 2051.02 L1690.1 2051.02 Z" fill="#000000" fill-rule="nonzero" fill-opacity="1" /><path clip-path="url(#clip490)" d="M1703.78 2032.24 Q1703.78 2021.81 1709.58 2016.79 Q1714.43 2012.62 1721.39 2012.62 Q1729.14 2012.62 1734.05 2017.71 Q1738.97 2022.77 1738.97 2031.71 Q1738.97 2038.96 1736.78 2043.13 Q1734.62 2047.27 1730.45 2049.57 Q1726.31 2051.87 1721.39 2051.87 Q1713.51 2051.87 1708.63 2046.81 Q1703.78 2041.76 1703.78 2032.24 M1710.33 2032.24 Q1710.33 2039.46 1713.47 2043.06 Q1716.62 2046.64 1721.39 2046.64 Q1726.13 2046.64 1729.28 2043.03 Q1732.43 2039.42 1732.43 2032.03 Q1732.43 2025.06 1729.24 2021.49 Q1726.1 2017.89 1721.39 2017.89 Q1716.62 2017.89 1713.47 2021.46 Q1710.33 2025.03 1710.33 2032.24 Z" fill="#000000" fill-rule="nonzero" fill-opacity="1" /><path clip-path="url(#clip490)" d="M1746.43 2051.02 L1746.43 2013.47 L1752.16 2013.47 L1752.16 2018.81 Q1756.3 2012.62 1764.11 2012.62 Q1767.51 2012.62 1770.33 2013.85 Q1773.2 2015.06 1774.61 2017.04 Q1776.03 2019.02 1776.59 2021.74 Q1776.95 2023.51 1776.95 2027.93 L1776.95 2051.02 L1770.58 2051.02 L1770.58 2028.18 Q1770.58 2024.29 1769.84 2022.38 Q1769.1 2020.43 1767.19 2019.3 Q1765.31 2018.13 1762.77 2018.13 Q1758.7 2018.13 1755.73 2020.72 Q1752.8 2023.3 1752.8 2030.51 L1752.8 2051.02 L1746.43 2051.02 Z" fill="#000000" fill-rule="nonzero" fill-opacity="1" /><path clip-path="url(#clip490)" d="M1804.46 2032.24 Q1804.46 2021.81 1810.26 2016.79 Q1815.1 2012.62 1822.07 2012.62 Q1829.81 2012.62 1834.73 2017.71 Q1839.64 2022.77 1839.64 2031.71 Q1839.64 2038.96 1837.45 2043.13 Q1835.29 2047.27 1831.12 2049.57 Q1826.98 2051.87 1822.07 2051.87 Q1814.18 2051.87 1809.3 2046.81 Q1804.46 2041.76 1804.46 2032.24 M1811 2032.24 Q1811 2039.46 1814.15 2043.06 Q1817.29 2046.64 1822.07 2046.64 Q1826.81 2046.64 1829.95 2043.03 Q1833.1 2039.42 1833.1 2032.03 Q1833.1 2025.06 1829.92 2021.49 Q1826.77 2017.89 1822.07 2017.89 Q1817.29 2017.89 1814.15 2021.46 Q1811 2025.03 1811 2032.24 Z" fill="#000000" fill-rule="nonzero" fill-opacity="1" /><path clip-path="url(#clip490)" d="M1848.63 2051.02 L1848.63 2018.42 L1843 2018.42 L1843 2013.47 L1848.63 2013.47 L1848.63 2009.47 Q1848.63 2005.69 1849.3 2003.85 Q1850.22 2001.37 1852.51 1999.85 Q1854.85 1998.3 1859.02 1998.3 Q1861.71 1998.3 1864.96 1998.93 L1864.01 2004.48 Q1862.03 2004.13 1860.26 2004.13 Q1857.36 2004.13 1856.16 2005.37 Q1854.95 2006.61 1854.95 2010 L1854.95 2013.47 L1862.27 2013.47 L1862.27 2018.42 L1854.95 2018.42 L1854.95 2051.02 L1848.63 2051.02 Z" fill="#000000" fill-rule="nonzero" fill-opacity="1" /><path clip-path="url(#clip490)" d="M1915.21 2013.47 L1921.72 2013.47 Q1919.24 2021.25 1917.16 2032.24 Q1919.63 2045.89 1921.72 2051.02 L1915.39 2051.02 Q1913.87 2047.48 1913.09 2044.16 Q1910.15 2051.87 1900.82 2051.87 Q1893.75 2051.87 1889.43 2046.56 Q1885.12 2041.26 1885.12 2032.17 Q1885.12 2022.84 1889.43 2017.74 Q1893.78 2012.62 1900.92 2012.62 Q1905.34 2012.62 1908.14 2014.42 Q1910.93 2016.19 1913.34 2019.83 Q1913.58 2018.59 1915.21 2013.47 M1901.99 2017.89 Q1897.42 2017.89 1894.77 2021.56 Q1892.12 2025.24 1892.12 2032.17 Q1892.12 2038.93 1894.63 2042.78 Q1897.14 2046.64 1901.63 2046.64 Q1906.02 2046.64 1908.95 2042.85 Q1911.89 2039.03 1911.89 2031.89 Q1911.89 2024.96 1909.13 2021.42 Q1906.41 2017.89 1901.99 2017.89 Z" fill="#000000" fill-rule="nonzero" fill-opacity="1" /><path clip-path="url(#clip490)" d="M1973.84 2046.39 Q1970.3 2049.39 1967.02 2050.63 Q1963.76 2051.87 1960.01 2051.87 Q1953.83 2051.87 1950.5 2048.86 Q1947.18 2045.82 1947.18 2041.12 Q1947.18 2038.36 1948.42 2036.1 Q1949.69 2033.8 1951.7 2032.42 Q1953.75 2031.04 1956.3 2030.33 Q1958.18 2029.84 1961.96 2029.38 Q1969.67 2028.46 1973.31 2027.19 Q1973.35 2025.88 1973.35 2025.52 Q1973.35 2021.63 1971.54 2020.04 Q1969.1 2017.89 1964.29 2017.89 Q1959.8 2017.89 1957.64 2019.48 Q1955.52 2021.03 1954.5 2025.03 L1948.27 2024.18 Q1949.12 2020.18 1951.07 2017.74 Q1953.01 2015.27 1956.69 2013.96 Q1960.37 2012.62 1965.21 2012.62 Q1970.02 2012.62 1973.03 2013.75 Q1976.03 2014.88 1977.45 2016.61 Q1978.86 2018.31 1979.43 2020.93 Q1979.75 2022.55 1979.75 2026.8 L1979.75 2035.28 Q1979.75 2044.16 1980.13 2046.53 Q1980.56 2048.86 1981.76 2051.02 L1975.11 2051.02 Q1974.12 2049.04 1973.84 2046.39 M1973.31 2032.17 Q1969.84 2033.59 1962.91 2034.58 Q1958.99 2035.14 1957.36 2035.85 Q1955.74 2036.56 1954.85 2037.94 Q1953.97 2039.28 1953.97 2040.94 Q1953.97 2043.49 1955.88 2045.19 Q1957.82 2046.88 1961.53 2046.88 Q1965.21 2046.88 1968.08 2045.29 Q1970.94 2043.66 1972.28 2040.87 Q1973.31 2038.71 1973.31 2034.51 L1973.31 2032.17 Z" fill="#000000" fill-rule="nonzero" fill-opacity="1" /><path clip-path="url(#clip490)" d="M1989.47 2051.02 L1989.47 1999.18 L1995.84 1999.18 L1995.84 2051.02 L1989.47 2051.02 Z" fill="#000000" fill-rule="nonzero" fill-opacity="1" /><path clip-path="url(#clip490)" d="M2003.33 2032.24 Q2003.33 2021.81 2009.13 2016.79 Q2013.98 2012.62 2020.94 2012.62 Q2028.69 2012.62 2033.6 2017.71 Q2038.52 2022.77 2038.52 2031.71 Q2038.52 2038.96 2036.32 2043.13 Q2034.17 2047.27 2029.99 2049.57 Q2025.86 2051.87 2020.94 2051.87 Q2013.06 2051.87 2008.18 2046.81 Q2003.33 2041.76 2003.33 2032.24 M2009.87 2032.24 Q2009.87 2039.46 2013.02 2043.06 Q2016.17 2046.64 2020.94 2046.64 Q2025.68 2046.64 2028.83 2043.03 Q2031.97 2039.42 2031.97 2032.03 Q2031.97 2025.06 2028.79 2021.49 Q2025.64 2017.89 2020.94 2017.89 Q2016.17 2017.89 2013.02 2021.46 Q2009.87 2025.03 2009.87 2032.24 Z" fill="#000000" fill-rule="nonzero" fill-opacity="1" /><path clip-path="url(#clip490)" d="M2045.98 2051.02 L2045.98 2013.47 L2051.71 2013.47 L2051.71 2018.81 Q2055.84 2012.62 2063.66 2012.62 Q2067.05 2012.62 2069.88 2013.85 Q2072.75 2015.06 2074.16 2017.04 Q2075.58 2019.02 2076.14 2021.74 Q2076.49 2023.51 2076.49 2027.93 L2076.49 2051.02 L2070.13 2051.02 L2070.13 2028.18 Q2070.13 2024.29 2069.39 2022.38 Q2068.64 2020.43 2066.73 2019.3 Q2064.86 2018.13 2062.31 2018.13 Q2058.25 2018.13 2055.28 2020.72 Q2052.34 2023.3 2052.34 2030.51 L2052.34 2051.02 L2045.98 2051.02 Z" fill="#000000" fill-rule="nonzero" fill-opacity="1" /><path clip-path="url(#clip490)" d="M2085.09 2054.13 L2091.28 2055.05 Q2091.66 2057.92 2093.43 2059.22 Q2095.8 2060.99 2099.9 2060.99 Q2104.32 2060.99 2106.73 2059.22 Q2109.13 2057.46 2109.98 2054.27 Q2110.48 2052.33 2110.44 2046.1 Q2106.27 2051.02 2100.05 2051.02 Q2092.3 2051.02 2088.06 2045.43 Q2083.81 2039.85 2083.81 2032.03 Q2083.81 2026.66 2085.76 2022.13 Q2087.7 2017.57 2091.38 2015.09 Q2095.09 2012.62 2100.08 2012.62 Q2106.73 2012.62 2111.04 2017.99 L2111.04 2013.47 L2116.91 2013.47 L2116.91 2045.93 Q2116.91 2054.7 2115.11 2058.34 Q2113.34 2062.02 2109.45 2064.14 Q2105.6 2066.26 2099.94 2066.26 Q2093.22 2066.26 2089.08 2063.22 Q2084.95 2060.21 2085.09 2054.13 M2090.36 2031.57 Q2090.36 2038.96 2093.29 2042.36 Q2096.23 2045.75 2100.65 2045.75 Q2105.03 2045.75 2108 2042.39 Q2110.97 2039 2110.97 2031.78 Q2110.97 2024.89 2107.9 2021.39 Q2104.85 2017.89 2100.54 2017.89 Q2096.3 2017.89 2093.33 2021.35 Q2090.36 2024.78 2090.36 2031.57 Z" fill="#000000" fill-rule="nonzero" fill-opacity="1" /><path clip-path="url(#clip490)" d="M2160.55 2045.33 L2161.47 2050.95 Q2158.78 2051.51 2156.66 2051.51 Q2153.19 2051.51 2151.28 2050.42 Q2149.37 2049.32 2148.6 2047.55 Q2147.82 2045.75 2147.82 2040.02 L2147.82 2018.42 L2143.15 2018.42 L2143.15 2013.47 L2147.82 2013.47 L2147.82 2004.17 L2154.15 2000.35 L2154.15 2013.47 L2160.55 2013.47 L2160.55 2018.42 L2154.15 2018.42 L2154.15 2040.38 Q2154.15 2043.1 2154.47 2043.88 Q2154.82 2044.65 2155.56 2045.11 Q2156.34 2045.57 2157.76 2045.57 Q2158.82 2045.57 2160.55 2045.33 Z" fill="#000000" fill-rule="nonzero" fill-opacity="1" /><path clip-path="url(#clip490)" d="M2166.77 2051.02 L2166.77 1999.18 L2173.14 1999.18 L2173.14 2017.78 Q2177.59 2012.62 2184.38 2012.62 Q2188.56 2012.62 2191.63 2014.28 Q2194.71 2015.91 2196.02 2018.81 Q2197.36 2021.71 2197.36 2027.22 L2197.36 2051.02 L2191 2051.02 L2191 2027.22 Q2191 2022.45 2188.91 2020.29 Q2186.86 2018.1 2183.07 2018.1 Q2180.25 2018.1 2177.73 2019.58 Q2175.26 2021.03 2174.2 2023.54 Q2173.14 2026.05 2173.14 2030.47 L2173.14 2051.02 L2166.77 2051.02 Z" fill="#000000" fill-rule="nonzero" fill-opacity="1" /><path clip-path="url(#clip490)" d="M2232.76 2038.93 L2239.33 2039.74 Q2237.78 2045.5 2233.57 2048.69 Q2229.36 2051.87 2222.82 2051.87 Q2214.58 2051.87 2209.74 2046.81 Q2204.93 2041.72 2204.93 2032.56 Q2204.93 2023.08 2209.81 2017.85 Q2214.69 2012.62 2222.47 2012.62 Q2230 2012.62 2234.77 2017.74 Q2239.55 2022.87 2239.55 2032.17 Q2239.55 2032.74 2239.51 2033.87 L2211.51 2033.87 Q2211.86 2040.06 2215.01 2043.35 Q2218.15 2046.64 2222.86 2046.64 Q2226.36 2046.64 2228.83 2044.8 Q2231.31 2042.96 2232.76 2038.93 M2211.86 2028.64 L2232.83 2028.64 Q2232.4 2023.9 2230.42 2021.53 Q2227.38 2017.85 2222.54 2017.85 Q2218.15 2017.85 2215.15 2020.79 Q2212.18 2023.72 2211.86 2028.64 Z" fill="#000000" fill-rule="nonzero" fill-opacity="1" /><path clip-path="url(#clip490)" d="M2267.45 2065.41 L2267.45 2013.47 L2273.25 2013.47 L2273.25 2018.35 Q2275.3 2015.48 2277.88 2014.07 Q2280.46 2012.62 2284.14 2012.62 Q2288.95 2012.62 2292.62 2015.09 Q2296.3 2017.57 2298.18 2022.09 Q2300.05 2026.59 2300.05 2031.96 Q2300.05 2037.72 2297.96 2042.36 Q2295.91 2046.95 2291.95 2049.43 Q2288.03 2051.87 2283.68 2051.87 Q2280.5 2051.87 2277.95 2050.52 Q2275.44 2049.18 2273.81 2047.13 L2273.81 2065.41 L2267.45 2065.41 M2273.21 2032.46 Q2273.21 2039.7 2276.15 2043.17 Q2279.08 2046.64 2283.25 2046.64 Q2287.5 2046.64 2290.5 2043.06 Q2293.54 2039.46 2293.54 2031.92 Q2293.54 2024.75 2290.57 2021.17 Q2287.64 2017.6 2283.54 2017.6 Q2279.47 2017.6 2276.32 2021.42 Q2273.21 2025.21 2273.21 2032.46 Z" fill="#000000" fill-rule="nonzero" fill-opacity="1" /><path clip-path="url(#clip490)" d="M2307.65 2051.02 L2307.65 2013.47 L2313.38 2013.47 L2313.38 2019.16 Q2315.57 2015.16 2317.41 2013.89 Q2319.29 2012.62 2321.51 2012.62 Q2324.73 2012.62 2328.06 2014.67 L2325.86 2020.57 Q2323.53 2019.19 2321.2 2019.19 Q2319.11 2019.19 2317.45 2020.47 Q2315.79 2021.71 2315.08 2023.93 Q2314.02 2027.33 2314.02 2031.36 L2314.02 2051.02 L2307.65 2051.02 Z" fill="#000000" fill-rule="nonzero" fill-opacity="1" /><path clip-path="url(#clip490)" d="M2329.47 2032.24 Q2329.47 2021.81 2335.27 2016.79 Q2340.11 2012.62 2347.08 2012.62 Q2354.83 2012.62 2359.74 2017.71 Q2364.66 2022.77 2364.66 2031.71 Q2364.66 2038.96 2362.46 2043.13 Q2360.31 2047.27 2356.13 2049.57 Q2352 2051.87 2347.08 2051.87 Q2339.2 2051.87 2334.32 2046.81 Q2329.47 2041.76 2329.47 2032.24 M2336.01 2032.24 Q2336.01 2039.46 2339.16 2043.06 Q2342.31 2046.64 2347.08 2046.64 Q2351.82 2046.64 2354.97 2043.03 Q2358.11 2039.42 2358.11 2032.03 Q2358.11 2025.06 2354.93 2021.49 Q2351.78 2017.89 2347.08 2017.89 Q2342.31 2017.89 2339.16 2021.46 Q2336.01 2025.03 2336.01 2032.24 Z" fill="#000000" fill-rule="nonzero" fill-opacity="1" /><path clip-path="url(#clip490)" d="M2372.08 2006.57 L2372.08 1999.18 L2378.45 1999.18 L2378.45 2006.57 L2372.08 2006.57 M2364.02 2065.59 L2365.22 2060.18 Q2367.13 2060.67 2368.23 2060.67 Q2370.17 2060.67 2371.13 2059.37 Q2372.08 2058.09 2372.08 2052.93 L2372.08 2013.47 L2378.45 2013.47 L2378.45 2053.07 Q2378.45 2060 2376.64 2062.72 Q2374.34 2066.26 2369.01 2066.26 Q2366.42 2066.26 2364.02 2065.59 Z" fill="#000000" fill-rule="nonzero" fill-opacity="1" /><path clip-path="url(#clip490)" d="M2413.91 2038.93 L2420.49 2039.74 Q2418.94 2045.5 2414.73 2048.69 Q2410.52 2051.87 2403.98 2051.87 Q2395.74 2051.87 2390.89 2046.81 Q2386.08 2041.72 2386.08 2032.56 Q2386.08 2023.08 2390.96 2017.85 Q2395.84 2012.62 2403.62 2012.62 Q2411.16 2012.62 2415.93 2017.74 Q2420.7 2022.87 2420.7 2032.17 Q2420.7 2032.74 2420.67 2033.87 L2392.66 2033.87 Q2393.02 2040.06 2396.16 2043.35 Q2399.31 2046.64 2404.01 2046.64 Q2407.51 2046.64 2409.99 2044.8 Q2412.46 2042.96 2413.91 2038.93 M2393.02 2028.64 L2413.99 2028.64 Q2413.56 2023.9 2411.58 2021.53 Q2408.54 2017.85 2403.69 2017.85 Q2399.31 2017.85 2396.3 2020.79 Q2393.33 2023.72 2393.02 2028.64 Z" fill="#000000" fill-rule="nonzero" fill-opacity="1" /><path clip-path="url(#clip490)" d="M2452.99 2037.26 L2459.25 2038.08 Q2458.22 2044.55 2453.98 2048.23 Q2449.77 2051.87 2443.62 2051.87 Q2435.91 2051.87 2431.21 2046.85 Q2426.54 2041.79 2426.54 2032.38 Q2426.54 2026.3 2428.55 2021.74 Q2430.57 2017.18 2434.67 2014.92 Q2438.81 2012.62 2443.65 2012.62 Q2449.77 2012.62 2453.66 2015.73 Q2457.55 2018.81 2458.65 2024.5 L2452.46 2025.45 Q2451.57 2021.67 2449.31 2019.76 Q2447.08 2017.85 2443.9 2017.85 Q2439.09 2017.85 2436.09 2021.32 Q2433.08 2024.75 2433.08 2032.21 Q2433.08 2039.77 2435.98 2043.2 Q2438.88 2046.64 2443.55 2046.64 Q2447.3 2046.64 2449.81 2044.34 Q2452.32 2042.04 2452.99 2037.26 Z" fill="#000000" fill-rule="nonzero" fill-opacity="1" /><path clip-path="url(#clip490)" d="M2478.59 2045.33 L2479.51 2050.95 Q2476.82 2051.51 2474.7 2051.51 Q2471.24 2051.51 2469.33 2050.42 Q2467.42 2049.32 2466.64 2047.55 Q2465.86 2045.75 2465.86 2040.02 L2465.86 2018.42 L2461.19 2018.42 L2461.19 2013.47 L2465.86 2013.47 L2465.86 2004.17 L2472.19 2000.35 L2472.19 2013.47 L2478.59 2013.47 L2478.59 2018.42 L2472.19 2018.42 L2472.19 2040.38 Q2472.19 2043.1 2472.51 2043.88 Q2472.86 2044.65 2473.6 2045.11 Q2474.38 2045.57 2475.8 2045.57 Q2476.86 2045.57 2478.59 2045.33 Z" fill="#000000" fill-rule="nonzero" fill-opacity="1" /><path clip-path="url(#clip490)" d="M2484.85 2006.5 L2484.85 1999.18 L2491.21 1999.18 L2491.21 2006.5 L2484.85 2006.5 M2484.85 2051.02 L2484.85 2013.47 L2491.21 2013.47 L2491.21 2051.02 L2484.85 2051.02 Z" fill="#000000" fill-rule="nonzero" fill-opacity="1" /><path clip-path="url(#clip490)" d="M2498.53 2032.24 Q2498.53 2021.81 2504.33 2016.79 Q2509.18 2012.62 2516.14 2012.62 Q2523.89 2012.62 2528.8 2017.71 Q2533.72 2022.77 2533.72 2031.71 Q2533.72 2038.96 2531.53 2043.13 Q2529.37 2047.27 2525.2 2049.57 Q2521.06 2051.87 2516.14 2051.87 Q2508.26 2051.87 2503.38 2046.81 Q2498.53 2041.76 2498.53 2032.24 M2505.08 2032.24 Q2505.08 2039.46 2508.22 2043.06 Q2511.37 2046.64 2516.14 2046.64 Q2520.88 2046.64 2524.03 2043.03 Q2527.18 2039.42 2527.18 2032.03 Q2527.18 2025.06 2523.99 2021.49 Q2520.85 2017.89 2516.14 2017.89 Q2511.37 2017.89 2508.22 2021.46 Q2505.08 2025.03 2505.08 2032.24 Z" fill="#000000" fill-rule="nonzero" fill-opacity="1" /><path clip-path="url(#clip490)" d="M2541.18 2051.02 L2541.18 2013.47 L2546.91 2013.47 L2546.91 2018.81 Q2551.05 2012.62 2558.86 2012.62 Q2562.26 2012.62 2565.08 2013.85 Q2567.95 2015.06 2569.36 2017.04 Q2570.78 2019.02 2571.34 2021.74 Q2571.7 2023.51 2571.7 2027.93 L2571.7 2051.02 L2565.33 2051.02 L2565.33 2028.18 Q2565.33 2024.29 2564.59 2022.38 Q2563.85 2020.43 2561.94 2019.3 Q2560.06 2018.13 2557.52 2018.13 Q2553.45 2018.13 2550.48 2020.72 Q2547.55 2023.3 2547.55 2030.51 L2547.55 2051.02 L2541.18 2051.02 Z" fill="#000000" fill-rule="nonzero" fill-opacity="1" /><polyline clip-path="url(#clip490)" style="stroke:#ff0000; stroke-linecap:round; stroke-linejoin:round; stroke-width:18; stroke-opacity:1; fill:none" points="1027.78,2102.86 1208.18,2102.86 "/>
<path clip-path="url(#clip490)" d="M1257.34 2128.78 L1250.98 2128.78 L1250.98 2088.22 Q1248.68 2090.41 1244.93 2092.6 Q1241.22 2094.8 1238.25 2095.89 L1238.25 2089.74 Q1243.59 2087.23 1247.59 2083.66 Q1251.58 2080.09 1253.24 2076.73 L1257.34 2076.73 L1257.34 2128.78 Z" fill="#000000" fill-rule="nonzero" fill-opacity="1" /><path clip-path="url(#clip490)" d="M1273.65 2103.21 Q1273.65 2094.02 1275.52 2088.43 Q1277.43 2082.81 1281.14 2079.77 Q1284.89 2076.73 1290.55 2076.73 Q1294.72 2076.73 1297.87 2078.43 Q1301.02 2080.09 1303.07 2083.27 Q1305.12 2086.42 1306.29 2090.98 Q1307.45 2095.5 1307.45 2103.21 Q1307.45 2112.34 1305.58 2117.96 Q1303.7 2123.55 1299.96 2126.62 Q1296.24 2129.66 1290.55 2129.66 Q1283.05 2129.66 1278.77 2124.29 Q1273.65 2117.82 1273.65 2103.21 M1280.19 2103.21 Q1280.19 2115.98 1283.16 2120.22 Q1286.16 2124.43 1290.55 2124.43 Q1294.93 2124.43 1297.9 2120.19 Q1300.91 2115.94 1300.91 2103.21 Q1300.91 2090.41 1297.9 2086.2 Q1294.93 2082 1290.48 2082 Q1286.09 2082 1283.48 2085.71 Q1280.19 2090.45 1280.19 2103.21 Z" fill="#000000" fill-rule="nonzero" fill-opacity="1" /><path clip-path="url(#clip490)" d="M1315.13 2089.39 Q1315.13 2083.84 1317.92 2079.95 Q1320.71 2076.06 1326.02 2076.06 Q1330.9 2076.06 1334.08 2079.56 Q1337.3 2083.02 1337.3 2089.78 Q1337.3 2096.35 1334.04 2099.92 Q1330.83 2103.46 1326.09 2103.46 Q1321.38 2103.46 1318.24 2099.96 Q1315.13 2096.46 1315.13 2089.39 M1326.19 2080.44 Q1323.82 2080.44 1322.23 2082.49 Q1320.68 2084.54 1320.68 2090.02 Q1320.68 2095.01 1322.27 2097.06 Q1323.86 2099.08 1326.19 2099.08 Q1328.6 2099.08 1330.15 2097.03 Q1331.75 2094.97 1331.75 2089.53 Q1331.75 2084.51 1330.15 2082.49 Q1328.56 2080.44 1326.19 2080.44 M1326.23 2130.69 L1354.59 2076.06 L1359.75 2076.06 L1331.5 2130.69 L1326.23 2130.69 M1348.65 2116.62 Q1348.65 2111.03 1351.44 2107.17 Q1354.24 2103.28 1359.58 2103.28 Q1364.46 2103.28 1367.64 2106.78 Q1370.86 2110.25 1370.86 2117 Q1370.86 2123.58 1367.6 2127.15 Q1364.38 2130.69 1359.61 2130.69 Q1354.91 2130.69 1351.76 2127.19 Q1348.65 2123.65 1348.65 2116.62 M1359.75 2107.67 Q1357.35 2107.67 1355.76 2109.72 Q1354.2 2111.77 1354.2 2117.25 Q1354.2 2122.2 1355.79 2124.25 Q1357.38 2126.3 1359.72 2126.3 Q1362.16 2126.3 1363.71 2124.25 Q1365.3 2122.2 1365.3 2116.76 Q1365.3 2111.74 1363.71 2109.72 Q1362.12 2107.67 1359.75 2107.67 Z" fill="#000000" fill-rule="nonzero" fill-opacity="1" /><path clip-path="url(#clip490)" d="M1400.21 2143.17 L1400.21 2091.23 L1406 2091.23 L1406 2096.11 Q1408.06 2093.24 1410.64 2091.83 Q1413.22 2090.38 1416.9 2090.38 Q1421.71 2090.38 1425.38 2092.85 Q1429.06 2095.33 1430.93 2099.85 Q1432.81 2104.35 1432.81 2109.72 Q1432.81 2115.48 1430.72 2120.12 Q1428.67 2124.71 1424.71 2127.19 Q1420.79 2129.63 1416.44 2129.63 Q1413.25 2129.63 1410.71 2128.28 Q1408.2 2126.94 1406.57 2124.89 L1406.57 2143.17 L1400.21 2143.17 M1405.97 2110.22 Q1405.97 2117.46 1408.9 2120.93 Q1411.84 2124.4 1416.01 2124.4 Q1420.26 2124.4 1423.26 2120.82 Q1426.3 2117.22 1426.3 2109.68 Q1426.3 2102.51 1423.33 2098.93 Q1420.4 2095.36 1416.3 2095.36 Q1412.23 2095.36 1409.08 2099.18 Q1405.97 2102.97 1405.97 2110.22 Z" fill="#000000" fill-rule="nonzero" fill-opacity="1" /><path clip-path="url(#clip490)" d="M1466.19 2116.69 L1472.77 2117.5 Q1471.21 2123.26 1467 2126.45 Q1462.8 2129.63 1456.25 2129.63 Q1448.01 2129.63 1443.17 2124.57 Q1438.36 2119.48 1438.36 2110.32 Q1438.36 2100.84 1443.24 2095.61 Q1448.12 2090.38 1455.9 2090.38 Q1463.43 2090.38 1468.21 2095.5 Q1472.98 2100.63 1472.98 2109.93 Q1472.98 2110.5 1472.94 2111.63 L1444.94 2111.63 Q1445.29 2117.82 1448.44 2121.11 Q1451.59 2124.4 1456.29 2124.4 Q1459.79 2124.4 1462.27 2122.56 Q1464.74 2120.72 1466.19 2116.69 M1445.29 2106.4 L1466.26 2106.4 Q1465.84 2101.66 1463.86 2099.29 Q1460.82 2095.61 1455.97 2095.61 Q1451.59 2095.61 1448.58 2098.55 Q1445.61 2101.48 1445.29 2106.4 Z" fill="#000000" fill-rule="nonzero" fill-opacity="1" /><path clip-path="url(#clip490)" d="M1480.69 2128.78 L1480.69 2091.23 L1486.42 2091.23 L1486.42 2096.92 Q1488.61 2092.92 1490.45 2091.65 Q1492.32 2090.38 1494.55 2090.38 Q1497.77 2090.38 1501.09 2092.43 L1498.9 2098.33 Q1496.57 2096.95 1494.23 2096.95 Q1492.15 2096.95 1490.48 2098.23 Q1488.82 2099.47 1488.11 2101.69 Q1487.05 2105.09 1487.05 2109.12 L1487.05 2128.78 L1480.69 2128.78 Z" fill="#000000" fill-rule="nonzero" fill-opacity="1" /><path clip-path="url(#clip490)" d="M1518.77 2123.09 L1519.69 2128.71 Q1517 2129.27 1514.88 2129.27 Q1511.42 2129.27 1509.51 2128.18 Q1507.6 2127.08 1506.82 2125.31 Q1506.04 2123.51 1506.04 2117.78 L1506.04 2096.18 L1501.37 2096.18 L1501.37 2091.23 L1506.04 2091.23 L1506.04 2081.93 L1512.37 2078.11 L1512.37 2091.23 L1518.77 2091.23 L1518.77 2096.18 L1512.37 2096.18 L1512.37 2118.14 Q1512.37 2120.86 1512.69 2121.64 Q1513.04 2122.41 1513.79 2122.87 Q1514.56 2123.33 1515.98 2123.33 Q1517.04 2123.33 1518.77 2123.09 Z" fill="#000000" fill-rule="nonzero" fill-opacity="1" /><path clip-path="url(#clip490)" d="M1549.61 2128.78 L1549.61 2123.26 Q1545.22 2129.63 1537.69 2129.63 Q1534.37 2129.63 1531.47 2128.36 Q1528.6 2127.08 1527.19 2125.17 Q1525.81 2123.23 1525.24 2120.43 Q1524.85 2118.56 1524.85 2114.49 L1524.85 2091.23 L1531.22 2091.23 L1531.22 2112.05 Q1531.22 2117.04 1531.61 2118.77 Q1532.21 2121.28 1534.16 2122.73 Q1536.1 2124.15 1538.96 2124.15 Q1541.83 2124.15 1544.34 2122.7 Q1546.85 2121.21 1547.88 2118.7 Q1548.94 2116.16 1548.94 2111.35 L1548.94 2091.23 L1555.3 2091.23 L1555.3 2128.78 L1549.61 2128.78 Z" fill="#000000" fill-rule="nonzero" fill-opacity="1" /><path clip-path="url(#clip490)" d="M1565.2 2128.78 L1565.2 2091.23 L1570.93 2091.23 L1570.93 2096.92 Q1573.12 2092.92 1574.96 2091.65 Q1576.84 2090.38 1579.06 2090.38 Q1582.28 2090.38 1585.61 2092.43 L1583.41 2098.33 Q1581.08 2096.95 1578.75 2096.95 Q1576.66 2096.95 1575 2098.23 Q1573.34 2099.47 1572.63 2101.69 Q1571.57 2105.09 1571.57 2109.12 L1571.57 2128.78 L1565.2 2128.78 Z" fill="#000000" fill-rule="nonzero" fill-opacity="1" /><path clip-path="url(#clip490)" d="M1595.26 2128.78 L1589.35 2128.78 L1589.35 2076.94 L1595.72 2076.94 L1595.72 2095.43 Q1599.75 2090.38 1606.01 2090.38 Q1609.48 2090.38 1612.55 2091.79 Q1615.66 2093.17 1617.64 2095.72 Q1619.66 2098.23 1620.79 2101.8 Q1621.92 2105.37 1621.92 2109.44 Q1621.92 2119.09 1617.15 2124.36 Q1612.37 2129.63 1605.69 2129.63 Q1599.04 2129.63 1595.26 2124.08 L1595.26 2128.78 M1595.19 2109.72 Q1595.19 2116.47 1597.03 2119.48 Q1600.03 2124.4 1605.16 2124.4 Q1609.33 2124.4 1612.37 2120.79 Q1615.42 2117.15 1615.42 2109.97 Q1615.42 2102.61 1612.48 2099.11 Q1609.58 2095.61 1605.44 2095.61 Q1601.27 2095.61 1598.23 2099.25 Q1595.19 2102.86 1595.19 2109.72 Z" fill="#000000" fill-rule="nonzero" fill-opacity="1" /><path clip-path="url(#clip490)" d="M1654.17 2124.15 Q1650.64 2127.15 1647.35 2128.39 Q1644.09 2129.63 1640.35 2129.63 Q1634.16 2129.63 1630.83 2126.62 Q1627.51 2123.58 1627.51 2118.88 Q1627.51 2116.12 1628.75 2113.86 Q1630.02 2111.56 1632.04 2110.18 Q1634.09 2108.8 1636.63 2108.09 Q1638.51 2107.6 1642.29 2107.14 Q1650 2106.22 1653.64 2104.95 Q1653.68 2103.64 1653.68 2103.28 Q1653.68 2099.39 1651.87 2097.8 Q1649.43 2095.65 1644.62 2095.65 Q1640.13 2095.65 1637.98 2097.24 Q1635.85 2098.79 1634.83 2102.79 L1628.61 2101.94 Q1629.45 2097.94 1631.4 2095.5 Q1633.34 2093.03 1637.02 2091.72 Q1640.7 2090.38 1645.54 2090.38 Q1650.35 2090.38 1653.36 2091.51 Q1656.36 2092.64 1657.78 2094.37 Q1659.19 2096.07 1659.76 2098.69 Q1660.08 2100.31 1660.08 2104.56 L1660.08 2113.04 Q1660.08 2121.92 1660.47 2124.29 Q1660.89 2126.62 1662.09 2128.78 L1655.45 2128.78 Q1654.45 2126.8 1654.17 2124.15 M1653.64 2109.93 Q1650.18 2111.35 1643.25 2112.34 Q1639.32 2112.9 1637.69 2113.61 Q1636.07 2114.32 1635.18 2115.7 Q1634.3 2117.04 1634.3 2118.7 Q1634.3 2121.25 1636.21 2122.95 Q1638.15 2124.64 1641.87 2124.64 Q1645.54 2124.64 1648.41 2123.05 Q1651.27 2121.42 1652.62 2118.63 Q1653.64 2116.47 1653.64 2112.27 L1653.64 2109.93 Z" fill="#000000" fill-rule="nonzero" fill-opacity="1" /><path clip-path="url(#clip490)" d="M1683.84 2123.09 L1684.76 2128.71 Q1682.07 2129.27 1679.95 2129.27 Q1676.49 2129.27 1674.58 2128.18 Q1672.67 2127.08 1671.89 2125.31 Q1671.11 2123.51 1671.11 2117.78 L1671.11 2096.18 L1666.44 2096.18 L1666.44 2091.23 L1671.11 2091.23 L1671.11 2081.93 L1677.44 2078.11 L1677.44 2091.23 L1683.84 2091.23 L1683.84 2096.18 L1677.44 2096.18 L1677.44 2118.14 Q1677.44 2120.86 1677.76 2121.64 Q1678.11 2122.41 1678.85 2122.87 Q1679.63 2123.33 1681.05 2123.33 Q1682.11 2123.33 1683.84 2123.09 Z" fill="#000000" fill-rule="nonzero" fill-opacity="1" /><path clip-path="url(#clip490)" d="M1690.1 2084.26 L1690.1 2076.94 L1696.46 2076.94 L1696.46 2084.26 L1690.1 2084.26 M1690.1 2128.78 L1690.1 2091.23 L1696.46 2091.23 L1696.46 2128.78 L1690.1 2128.78 Z" fill="#000000" fill-rule="nonzero" fill-opacity="1" /><path clip-path="url(#clip490)" d="M1703.78 2110 Q1703.78 2099.57 1709.58 2094.55 Q1714.43 2090.38 1721.39 2090.38 Q1729.14 2090.38 1734.05 2095.47 Q1738.97 2100.53 1738.97 2109.47 Q1738.97 2116.72 1736.78 2120.89 Q1734.62 2125.03 1730.45 2127.33 Q1726.31 2129.63 1721.39 2129.63 Q1713.51 2129.63 1708.63 2124.57 Q1703.78 2119.52 1703.78 2110 M1710.33 2110 Q1710.33 2117.22 1713.47 2120.82 Q1716.62 2124.4 1721.39 2124.4 Q1726.13 2124.4 1729.28 2120.79 Q1732.43 2117.18 1732.43 2109.79 Q1732.43 2102.82 1729.24 2099.25 Q1726.1 2095.65 1721.39 2095.65 Q1716.62 2095.65 1713.47 2099.22 Q1710.33 2102.79 1710.33 2110 Z" fill="#000000" fill-rule="nonzero" fill-opacity="1" /><path clip-path="url(#clip490)" d="M1746.43 2128.78 L1746.43 2091.23 L1752.16 2091.23 L1752.16 2096.57 Q1756.3 2090.38 1764.11 2090.38 Q1767.51 2090.38 1770.33 2091.61 Q1773.2 2092.82 1774.61 2094.8 Q1776.03 2096.78 1776.59 2099.5 Q1776.95 2101.27 1776.95 2105.69 L1776.95 2128.78 L1770.58 2128.78 L1770.58 2105.94 Q1770.58 2102.05 1769.84 2100.14 Q1769.1 2098.19 1767.19 2097.06 Q1765.31 2095.89 1762.77 2095.89 Q1758.7 2095.89 1755.73 2098.48 Q1752.8 2101.06 1752.8 2108.27 L1752.8 2128.78 L1746.43 2128.78 Z" fill="#000000" fill-rule="nonzero" fill-opacity="1" /><path clip-path="url(#clip490)" d="M1804.28 2117.57 L1810.58 2116.58 Q1811.11 2120.36 1813.51 2122.38 Q1815.95 2124.4 1820.3 2124.4 Q1824.69 2124.4 1826.81 2122.63 Q1828.93 2120.82 1828.93 2118.42 Q1828.93 2116.26 1827.05 2115.02 Q1825.75 2114.18 1820.55 2112.87 Q1813.55 2111.1 1810.82 2109.83 Q1808.14 2108.52 1806.72 2106.25 Q1805.34 2103.96 1805.34 2101.2 Q1805.34 2098.69 1806.47 2096.57 Q1807.64 2094.41 1809.62 2092.99 Q1811.11 2091.9 1813.65 2091.16 Q1816.23 2090.38 1819.17 2090.38 Q1823.59 2090.38 1826.91 2091.65 Q1830.27 2092.92 1831.86 2095.12 Q1833.45 2097.27 1834.06 2100.91 L1827.83 2101.76 Q1827.41 2098.86 1825.36 2097.24 Q1823.34 2095.61 1819.63 2095.61 Q1815.24 2095.61 1813.37 2097.06 Q1811.5 2098.51 1811.5 2100.46 Q1811.5 2101.69 1812.27 2102.68 Q1813.05 2103.71 1814.71 2104.38 Q1815.67 2104.73 1820.34 2106.01 Q1827.09 2107.81 1829.74 2108.98 Q1832.43 2110.11 1833.95 2112.3 Q1835.47 2114.49 1835.47 2117.75 Q1835.47 2120.93 1833.6 2123.76 Q1831.76 2126.55 1828.26 2128.11 Q1824.76 2129.63 1820.34 2129.63 Q1813.02 2129.63 1809.16 2126.59 Q1805.34 2123.55 1804.28 2117.57 Z" fill="#000000" fill-rule="nonzero" fill-opacity="1" /><path clip-path="url(#clip490)" d="M1840.67 2110 Q1840.67 2099.57 1846.47 2094.55 Q1851.31 2090.38 1858.28 2090.38 Q1866.02 2090.38 1870.94 2095.47 Q1875.85 2100.53 1875.85 2109.47 Q1875.85 2116.72 1873.66 2120.89 Q1871.5 2125.03 1867.33 2127.33 Q1863.19 2129.63 1858.28 2129.63 Q1850.39 2129.63 1845.51 2124.57 Q1840.67 2119.52 1840.67 2110 M1847.21 2110 Q1847.21 2117.22 1850.36 2120.82 Q1853.5 2124.4 1858.28 2124.4 Q1863.02 2124.4 1866.16 2120.79 Q1869.31 2117.18 1869.31 2109.79 Q1869.31 2102.82 1866.13 2099.25 Q1862.98 2095.65 1858.28 2095.65 Q1853.5 2095.65 1850.36 2099.22 Q1847.21 2102.79 1847.21 2110 Z" fill="#000000" fill-rule="nonzero" fill-opacity="1" /><path clip-path="url(#clip490)" d="M1883.17 2128.78 L1883.17 2076.94 L1889.54 2076.94 L1889.54 2128.78 L1883.17 2128.78 Z" fill="#000000" fill-rule="nonzero" fill-opacity="1" /><path clip-path="url(#clip490)" d="M1925.11 2116.69 L1931.69 2117.5 Q1930.13 2123.26 1925.93 2126.45 Q1921.72 2129.63 1915.18 2129.63 Q1906.94 2129.63 1902.09 2124.57 Q1897.28 2119.48 1897.28 2110.32 Q1897.28 2100.84 1902.16 2095.61 Q1907.04 2090.38 1914.82 2090.38 Q1922.35 2090.38 1927.13 2095.5 Q1931.9 2100.63 1931.9 2109.93 Q1931.9 2110.5 1931.87 2111.63 L1903.86 2111.63 Q1904.21 2117.82 1907.36 2121.11 Q1910.51 2124.4 1915.21 2124.4 Q1918.71 2124.4 1921.19 2122.56 Q1923.66 2120.72 1925.11 2116.69 M1904.21 2106.4 L1925.18 2106.4 Q1924.76 2101.66 1922.78 2099.29 Q1919.74 2095.61 1914.89 2095.61 Q1910.51 2095.61 1907.5 2098.55 Q1904.53 2101.48 1904.21 2106.4 Z" fill="#000000" fill-rule="nonzero" fill-opacity="1" /><path clip-path="url(#clip490)" d="M1939.54 2128.78 L1939.54 2076.94 L1945.9 2076.94 L1945.9 2128.78 L1939.54 2128.78 Z" fill="#000000" fill-rule="nonzero" fill-opacity="1" /><path clip-path="url(#clip490)" d="M1955.49 2143.24 L1954.78 2137.27 Q1956.87 2137.83 1958.42 2137.83 Q1960.54 2137.83 1961.82 2137.13 Q1963.09 2136.42 1963.9 2135.14 Q1964.5 2134.19 1965.85 2130.41 Q1966.03 2129.88 1966.41 2128.85 L1952.16 2091.23 L1959.02 2091.23 L1966.84 2112.97 Q1968.36 2117.11 1969.56 2121.67 Q1970.66 2117.29 1972.18 2113.11 L1980.21 2091.23 L1986.57 2091.23 L1972.28 2129.42 Q1969.99 2135.6 1968.71 2137.94 Q1967.02 2141.09 1964.82 2142.54 Q1962.63 2144.02 1959.59 2144.02 Q1957.75 2144.02 1955.49 2143.24 Z" fill="#000000" fill-rule="nonzero" fill-opacity="1" /><path clip-path="url(#clip490)" d="M2009.73 2110 Q2009.73 2099.57 2015.53 2094.55 Q2020.38 2090.38 2027.34 2090.38 Q2035.09 2090.38 2040 2095.47 Q2044.92 2100.53 2044.92 2109.47 Q2044.92 2116.72 2042.72 2120.89 Q2040.57 2125.03 2036.39 2127.33 Q2032.26 2129.63 2027.34 2129.63 Q2019.46 2129.63 2014.58 2124.57 Q2009.73 2119.52 2009.73 2110 M2016.27 2110 Q2016.27 2117.22 2019.42 2120.82 Q2022.57 2124.4 2027.34 2124.4 Q2032.08 2124.4 2035.23 2120.79 Q2038.38 2117.18 2038.38 2109.79 Q2038.38 2102.82 2035.19 2099.25 Q2032.05 2095.65 2027.34 2095.65 Q2022.57 2095.65 2019.42 2099.22 Q2016.27 2102.79 2016.27 2110 Z" fill="#000000" fill-rule="nonzero" fill-opacity="1" /><path clip-path="url(#clip490)" d="M2053.9 2128.78 L2053.9 2096.18 L2048.28 2096.18 L2048.28 2091.23 L2053.9 2091.23 L2053.9 2087.23 Q2053.9 2083.45 2054.57 2081.61 Q2055.49 2079.13 2057.79 2077.61 Q2060.12 2076.06 2064.3 2076.06 Q2066.98 2076.06 2070.24 2076.69 L2069.28 2082.24 Q2067.3 2081.89 2065.53 2081.89 Q2062.63 2081.89 2061.43 2083.13 Q2060.23 2084.37 2060.23 2087.76 L2060.23 2091.23 L2067.55 2091.23 L2067.55 2096.18 L2060.23 2096.18 L2060.23 2128.78 L2053.9 2128.78 Z" fill="#000000" fill-rule="nonzero" fill-opacity="1" /><path clip-path="url(#clip490)" d="M2120.48 2091.23 L2126.99 2091.23 Q2124.52 2099.01 2122.43 2110 Q2124.9 2123.65 2126.99 2128.78 L2120.66 2128.78 Q2119.14 2125.24 2118.36 2121.92 Q2115.43 2129.63 2106.09 2129.63 Q2099.02 2129.63 2094.71 2124.32 Q2090.39 2119.02 2090.39 2109.93 Q2090.39 2100.6 2094.71 2095.5 Q2099.06 2090.38 2106.2 2090.38 Q2110.62 2090.38 2113.41 2092.18 Q2116.21 2093.95 2118.61 2097.59 Q2118.86 2096.35 2120.48 2091.23 M2107.26 2095.65 Q2102.7 2095.65 2100.05 2099.32 Q2097.39 2103 2097.39 2109.93 Q2097.39 2116.69 2099.9 2120.54 Q2102.41 2124.4 2106.91 2124.4 Q2111.29 2124.4 2114.23 2120.61 Q2117.16 2116.79 2117.16 2109.65 Q2117.16 2102.72 2114.4 2099.18 Q2111.68 2095.65 2107.26 2095.65 Z" fill="#000000" fill-rule="nonzero" fill-opacity="1" /></svg>
