<?xml version="1.0" encoding="utf-8"?>
<svg xmlns="http://www.w3.org/2000/svg" xmlns:xlink="http://www.w3.org/1999/xlink" width="850" height="450" viewBox="0 0 3400 1800">
<defs>
  <clipPath id="clip940">
    <rect x="0" y="0" width="3400" height="1800"/>
  </clipPath>
</defs>
<path clip-path="url(#clip940)" d="M0 1800 L3400 1800 L3400 0 L0 0  Z" fill="#ffffff" fill-rule="evenodd" fill-opacity="1"/>
<defs>
  <clipPath id="clip941">
    <rect x="680" y="0" width="2381" height="1800"/>
  </clipPath>
</defs>
<path clip-path="url(#clip940)" d="M356.319 1512.18 L2645 1512.18 L2645 47.2441 L356.319 47.2441  Z" fill="#ffffff" fill-rule="evenodd" fill-opacity="1"/>
<defs>
  <clipPath id="clip942">
    <rect x="356" y="47" width="2290" height="1466"/>
  </clipPath>
</defs>
<polyline clip-path="url(#clip942)" style="stroke:#d3d3d3; stroke-linecap:round; stroke-linejoin:round; stroke-width:2; stroke-opacity:0.1; fill:none" points="411.696,1512.18 411.696,47.2441 "/>
<polyline clip-path="url(#clip942)" style="stroke:#d3d3d3; stroke-linecap:round; stroke-linejoin:round; stroke-width:2; stroke-opacity:0.1; fill:none" points="1134.54,1512.18 1134.54,47.2441 "/>
<polyline clip-path="url(#clip942)" style="stroke:#d3d3d3; stroke-linecap:round; stroke-linejoin:round; stroke-width:2; stroke-opacity:0.1; fill:none" points="1857.38,1512.18 1857.38,47.2441 "/>
<polyline clip-path="url(#clip942)" style="stroke:#d3d3d3; stroke-linecap:round; stroke-linejoin:round; stroke-width:2; stroke-opacity:0.1; fill:none" points="2580.23,1512.18 2580.23,47.2441 "/>
<polyline clip-path="url(#clip940)" style="stroke:#000000; stroke-linecap:round; stroke-linejoin:round; stroke-width:4; stroke-opacity:1; fill:none" points="356.319,1512.18 2645,1512.18 "/>
<polyline clip-path="url(#clip940)" style="stroke:#000000; stroke-linecap:round; stroke-linejoin:round; stroke-width:4; stroke-opacity:1; fill:none" points="411.696,1512.18 411.696,1493.29 "/>
<polyline clip-path="url(#clip940)" style="stroke:#000000; stroke-linecap:round; stroke-linejoin:round; stroke-width:4; stroke-opacity:1; fill:none" points="1134.54,1512.18 1134.54,1493.29 "/>
<polyline clip-path="url(#clip940)" style="stroke:#000000; stroke-linecap:round; stroke-linejoin:round; stroke-width:4; stroke-opacity:1; fill:none" points="1857.38,1512.18 1857.38,1493.29 "/>
<polyline clip-path="url(#clip940)" style="stroke:#000000; stroke-linecap:round; stroke-linejoin:round; stroke-width:4; stroke-opacity:1; fill:none" points="2580.23,1512.18 2580.23,1493.29 "/>
<path clip-path="url(#clip940)" d="M386.342 1598.23 Q386.342 1584.44 389.153 1576.06 Q392.017 1567.63 397.587 1563.07 Q403.209 1558.51 411.696 1558.51 Q417.955 1558.51 422.676 1561.05 Q427.396 1563.54 430.473 1568.32 Q433.549 1573.04 435.3 1579.88 Q437.05 1586.67 437.05 1598.23 Q437.05 1611.92 434.239 1620.35 Q431.427 1628.73 425.805 1633.35 Q420.236 1637.91 411.696 1637.91 Q400.451 1637.91 394.033 1629.85 Q386.342 1620.14 386.342 1598.23 M396.154 1598.23 Q396.154 1617.38 400.61 1623.75 Q405.119 1630.06 411.696 1630.06 Q418.273 1630.06 422.729 1623.69 Q427.237 1617.33 427.237 1598.23 Q427.237 1579.03 422.729 1572.72 Q418.273 1566.41 411.59 1566.41 Q405.012 1566.41 401.087 1571.98 Q396.154 1579.09 396.154 1598.23 Z" fill="#000000" fill-rule="nonzero" fill-opacity="1" /><path clip-path="url(#clip940)" d="M1148.86 1636.58 L1139.31 1636.58 L1139.31 1575.74 Q1135.87 1579.03 1130.24 1582.32 Q1124.67 1585.61 1120.22 1587.25 L1120.22 1578.03 Q1128.23 1574.26 1134.22 1568.9 Q1140.21 1563.54 1142.71 1558.51 L1148.86 1558.51 L1148.86 1636.58 Z" fill="#000000" fill-rule="nonzero" fill-opacity="1" /><path clip-path="url(#clip940)" d="M1883.13 1627.41 L1883.13 1636.58 L1831.74 1636.58 Q1831.63 1633.14 1832.85 1629.95 Q1834.81 1624.7 1839.11 1619.61 Q1843.46 1614.52 1851.63 1607.83 Q1864.3 1597.44 1868.76 1591.39 Q1873.22 1585.29 1873.22 1579.88 Q1873.22 1574.21 1869.13 1570.33 Q1865.1 1566.41 1858.58 1566.41 Q1851.68 1566.41 1847.54 1570.55 Q1843.41 1574.68 1843.35 1582 L1833.54 1581 Q1834.55 1570.02 1841.13 1564.29 Q1847.7 1558.51 1858.79 1558.51 Q1869.98 1558.51 1876.5 1564.71 Q1883.03 1570.92 1883.03 1580.09 Q1883.03 1584.76 1881.12 1589.27 Q1879.21 1593.78 1874.75 1598.76 Q1870.35 1603.75 1860.06 1612.45 Q1851.47 1619.66 1849.03 1622.26 Q1846.59 1624.81 1845 1627.41 L1883.13 1627.41 Z" fill="#000000" fill-rule="nonzero" fill-opacity="1" /><path clip-path="url(#clip940)" d="M2554.77 1616.06 L2564.31 1614.78 Q2565.96 1622.9 2569.88 1626.51 Q2573.86 1630.06 2579.54 1630.06 Q2586.27 1630.06 2590.89 1625.39 Q2595.56 1620.72 2595.56 1613.83 Q2595.56 1607.25 2591.26 1603.01 Q2586.96 1598.71 2580.33 1598.71 Q2577.63 1598.71 2573.6 1599.77 L2574.66 1591.39 Q2575.61 1591.5 2576.19 1591.5 Q2582.29 1591.5 2587.17 1588.32 Q2592.05 1585.13 2592.05 1578.5 Q2592.05 1573.25 2588.5 1569.8 Q2584.95 1566.36 2579.32 1566.36 Q2573.75 1566.36 2570.04 1569.86 Q2566.33 1573.36 2565.27 1580.36 L2555.72 1578.66 Q2557.47 1569.06 2563.68 1563.81 Q2569.88 1558.51 2579.11 1558.51 Q2585.48 1558.51 2590.83 1561.26 Q2596.19 1563.97 2599 1568.69 Q2601.87 1573.41 2601.87 1578.71 Q2601.87 1583.75 2599.16 1587.89 Q2596.46 1592.03 2591.15 1594.47 Q2598.05 1596.06 2601.87 1601.1 Q2605.69 1606.08 2605.69 1613.62 Q2605.69 1623.8 2598.26 1630.91 Q2590.83 1637.96 2579.48 1637.96 Q2569.25 1637.96 2562.46 1631.86 Q2555.72 1625.76 2554.77 1616.06 Z" fill="#000000" fill-rule="nonzero" fill-opacity="1" /><path clip-path="url(#clip940)" d="M1518.35 1716.8 L1528.11 1716.8 Q1524.4 1728.47 1521.27 1744.97 Q1524.98 1765.44 1528.11 1773.14 L1518.61 1773.14 Q1516.33 1767.83 1515.17 1762.85 Q1510.76 1774.41 1496.76 1774.41 Q1486.15 1774.41 1479.68 1766.45 Q1473.21 1758.5 1473.21 1744.86 Q1473.21 1730.86 1479.68 1723.22 Q1486.21 1715.53 1496.92 1715.53 Q1503.55 1715.53 1507.74 1718.24 Q1511.93 1720.89 1515.54 1726.35 Q1515.91 1724.5 1518.35 1716.8 M1498.51 1723.44 Q1491.67 1723.44 1487.69 1728.95 Q1483.71 1734.47 1483.71 1744.86 Q1483.71 1755 1487.48 1760.78 Q1491.24 1766.56 1497.98 1766.56 Q1504.56 1766.56 1508.96 1760.88 Q1513.36 1755.15 1513.36 1744.44 Q1513.36 1734.04 1509.23 1728.74 Q1505.14 1723.44 1498.51 1723.44 Z" fill="#000000" fill-rule="nonzero" fill-opacity="1" /><polyline clip-path="url(#clip942)" style="stroke:#d3d3d3; stroke-linecap:round; stroke-linejoin:round; stroke-width:2; stroke-opacity:0.1; fill:none" points="356.319,1362.53 2645,1362.53 "/>
<polyline clip-path="url(#clip942)" style="stroke:#d3d3d3; stroke-linecap:round; stroke-linejoin:round; stroke-width:2; stroke-opacity:0.1; fill:none" points="356.319,1034.63 2645,1034.63 "/>
<polyline clip-path="url(#clip942)" style="stroke:#d3d3d3; stroke-linecap:round; stroke-linejoin:round; stroke-width:2; stroke-opacity:0.1; fill:none" points="356.319,706.729 2645,706.729 "/>
<polyline clip-path="url(#clip942)" style="stroke:#d3d3d3; stroke-linecap:round; stroke-linejoin:round; stroke-width:2; stroke-opacity:0.1; fill:none" points="356.319,378.83 2645,378.83 "/>
<polyline clip-path="url(#clip942)" style="stroke:#d3d3d3; stroke-linecap:round; stroke-linejoin:round; stroke-width:2; stroke-opacity:0.1; fill:none" points="356.319,50.9307 2645,50.9307 "/>
<polyline clip-path="url(#clip940)" style="stroke:#000000; stroke-linecap:round; stroke-linejoin:round; stroke-width:4; stroke-opacity:1; fill:none" points="356.319,1512.18 356.319,47.2441 "/>
<polyline clip-path="url(#clip940)" style="stroke:#000000; stroke-linecap:round; stroke-linejoin:round; stroke-width:4; stroke-opacity:1; fill:none" points="356.319,1362.53 370.753,1362.53 "/>
<polyline clip-path="url(#clip940)" style="stroke:#000000; stroke-linecap:round; stroke-linejoin:round; stroke-width:4; stroke-opacity:1; fill:none" points="356.319,1034.63 370.753,1034.63 "/>
<polyline clip-path="url(#clip940)" style="stroke:#000000; stroke-linecap:round; stroke-linejoin:round; stroke-width:4; stroke-opacity:1; fill:none" points="356.319,706.729 370.753,706.729 "/>
<polyline clip-path="url(#clip940)" style="stroke:#000000; stroke-linecap:round; stroke-linejoin:round; stroke-width:4; stroke-opacity:1; fill:none" points="356.319,378.83 370.753,378.83 "/>
<polyline clip-path="url(#clip940)" style="stroke:#000000; stroke-linecap:round; stroke-linejoin:round; stroke-width:4; stroke-opacity:1; fill:none" points="356.319,50.9307 370.753,50.9307 "/>
<path clip-path="url(#clip940)" d="M230.158 1401.41 L220.61 1401.41 L220.61 1340.57 Q217.162 1343.86 211.54 1347.14 Q205.971 1350.43 201.515 1352.08 L201.515 1342.85 Q209.524 1339.08 215.518 1333.72 Q221.512 1328.37 224.005 1323.33 L230.158 1323.33 L230.158 1401.41 Z" fill="#000000" fill-rule="nonzero" fill-opacity="1" /><path clip-path="url(#clip940)" d="M254.61 1363.06 Q254.61 1349.27 257.422 1340.89 Q260.286 1332.45 265.855 1327.89 Q271.478 1323.33 279.965 1323.33 Q286.224 1323.33 290.944 1325.87 Q295.665 1328.37 298.741 1333.14 Q301.818 1337.86 303.568 1344.7 Q305.319 1351.49 305.319 1363.06 Q305.319 1376.74 302.507 1385.18 Q299.696 1393.56 294.074 1398.17 Q288.504 1402.73 279.965 1402.73 Q268.72 1402.73 262.301 1394.67 Q254.61 1384.96 254.61 1363.06 M264.423 1363.06 Q264.423 1382.21 268.879 1388.57 Q273.387 1394.88 279.965 1394.88 Q286.542 1394.88 290.997 1388.52 Q295.506 1382.15 295.506 1363.06 Q295.506 1343.86 290.997 1337.54 Q286.542 1331.23 279.858 1331.23 Q273.281 1331.23 269.356 1336.8 Q264.423 1343.91 264.423 1363.06 Z" fill="#000000" fill-rule="nonzero" fill-opacity="1" /><path clip-path="url(#clip940)" d="M244.373 1064.33 L244.373 1073.51 L192.975 1073.51 Q192.869 1070.06 194.089 1066.88 Q196.052 1061.63 200.348 1056.53 Q204.698 1051.44 212.866 1044.76 Q225.543 1034.36 229.999 1028.32 Q234.454 1022.22 234.454 1016.81 Q234.454 1011.13 230.37 1007.26 Q226.339 1003.33 219.815 1003.33 Q212.919 1003.33 208.782 1007.47 Q204.644 1011.61 204.591 1018.93 L194.779 1017.92 Q195.786 1006.94 202.364 1001.21 Q208.941 995.429 220.027 995.429 Q231.219 995.429 237.743 1001.64 Q244.267 1007.84 244.267 1017.02 Q244.267 1021.69 242.358 1026.19 Q240.448 1030.7 235.992 1035.69 Q231.59 1040.67 221.3 1049.37 Q212.707 1056.59 210.267 1059.19 Q207.827 1061.73 206.236 1064.33 L244.373 1064.33 Z" fill="#000000" fill-rule="nonzero" fill-opacity="1" /><path clip-path="url(#clip940)" d="M254.61 1035.16 Q254.61 1021.37 257.422 1012.99 Q260.286 1004.55 265.855 999.991 Q271.478 995.429 279.965 995.429 Q286.224 995.429 290.944 997.975 Q295.665 1000.47 298.741 1005.24 Q301.818 1009.96 303.568 1016.81 Q305.319 1023.59 305.319 1035.16 Q305.319 1048.84 302.507 1057.28 Q299.696 1065.66 294.074 1070.27 Q288.504 1074.83 279.965 1074.83 Q268.72 1074.83 262.301 1066.77 Q254.61 1057.06 254.61 1035.16 M264.423 1035.16 Q264.423 1054.31 268.879 1060.67 Q273.387 1066.98 279.965 1066.98 Q286.542 1066.98 290.997 1060.62 Q295.506 1054.25 295.506 1035.16 Q295.506 1015.96 290.997 1009.64 Q286.542 1003.33 279.858 1003.33 Q273.281 1003.33 269.356 1008.9 Q264.423 1016.01 264.423 1035.16 Z" fill="#000000" fill-rule="nonzero" fill-opacity="1" /><path clip-path="url(#clip940)" d="M194.248 725.081 L203.796 723.808 Q205.44 731.924 209.365 735.531 Q213.343 739.085 219.019 739.085 Q225.755 739.085 230.37 734.417 Q235.038 729.749 235.038 722.854 Q235.038 716.276 230.741 712.033 Q226.445 707.737 219.815 707.737 Q217.109 707.737 213.078 708.797 L214.139 700.417 Q215.094 700.523 215.677 700.523 Q221.777 700.523 226.657 697.34 Q231.537 694.158 231.537 687.527 Q231.537 682.276 227.983 678.828 Q224.429 675.381 218.807 675.381 Q213.237 675.381 209.524 678.882 Q205.811 682.382 204.751 689.384 L195.203 687.687 Q196.953 678.086 203.159 672.835 Q209.365 667.53 218.595 667.53 Q224.96 667.53 230.317 670.289 Q235.674 672.994 238.485 677.715 Q241.35 682.435 241.35 687.74 Q241.35 692.779 238.645 696.916 Q235.939 701.053 230.635 703.493 Q237.531 705.084 241.35 710.123 Q245.169 715.109 245.169 722.641 Q245.169 732.826 237.743 739.933 Q230.317 746.988 218.966 746.988 Q208.729 746.988 201.939 740.888 Q195.203 734.788 194.248 725.081 Z" fill="#000000" fill-rule="nonzero" fill-opacity="1" /><path clip-path="url(#clip940)" d="M254.61 707.259 Q254.61 693.468 257.422 685.087 Q260.286 676.654 265.855 672.092 Q271.478 667.53 279.965 667.53 Q286.224 667.53 290.944 670.076 Q295.665 672.569 298.741 677.343 Q301.818 682.064 303.568 688.907 Q305.319 695.696 305.319 707.259 Q305.319 720.944 302.507 729.378 Q299.696 737.758 294.074 742.373 Q288.504 746.935 279.965 746.935 Q268.72 746.935 262.301 738.872 Q254.61 729.166 254.61 707.259 M264.423 707.259 Q264.423 726.407 268.879 732.772 Q273.387 739.085 279.965 739.085 Q286.542 739.085 290.997 732.719 Q295.506 726.354 295.506 707.259 Q295.506 688.058 290.997 681.746 Q286.542 675.434 279.858 675.434 Q273.281 675.434 269.356 681.003 Q264.423 688.111 264.423 707.259 Z" fill="#000000" fill-rule="nonzero" fill-opacity="1" /><path clip-path="url(#clip940)" d="M224.801 417.71 L224.801 399.092 L191.066 399.092 L191.066 390.34 L226.551 339.95 L234.348 339.95 L234.348 390.34 L244.851 390.34 L244.851 399.092 L234.348 399.092 L234.348 417.71 L224.801 417.71 M224.801 390.34 L224.801 355.279 L200.454 390.34 L224.801 390.34 Z" fill="#000000" fill-rule="nonzero" fill-opacity="1" /><path clip-path="url(#clip940)" d="M254.61 379.36 Q254.61 365.569 257.422 357.188 Q260.286 348.755 265.855 344.193 Q271.478 339.631 279.965 339.631 Q286.224 339.631 290.944 342.177 Q295.665 344.67 298.741 349.444 Q301.818 354.165 303.568 361.007 Q305.319 367.797 305.319 379.36 Q305.319 393.045 302.507 401.479 Q299.696 409.859 294.074 414.474 Q288.504 419.036 279.965 419.036 Q268.72 419.036 262.301 410.973 Q254.61 401.267 254.61 379.36 M264.423 379.36 Q264.423 398.508 268.879 404.873 Q273.387 411.186 279.965 411.186 Q286.542 411.186 290.997 404.82 Q295.506 398.455 295.506 379.36 Q295.506 360.159 290.997 353.847 Q286.542 347.535 279.858 347.535 Q273.281 347.535 269.356 353.104 Q264.423 360.212 264.423 379.36 Z" fill="#000000" fill-rule="nonzero" fill-opacity="1" /><path clip-path="url(#clip940)" d="M194.195 69.4425 L204.22 68.5938 Q205.334 75.9136 209.365 79.6266 Q213.449 83.2865 219.178 83.2865 Q226.074 83.2865 230.847 78.0884 Q235.621 72.8902 235.621 64.2974 Q235.621 56.1288 231.006 51.4081 Q226.445 46.6873 219.019 46.6873 Q214.404 46.6873 210.691 48.809 Q206.978 50.8777 204.857 54.2193 L195.892 53.0524 L203.424 13.1115 L242.092 13.1115 L242.092 22.2348 L211.063 22.2348 L206.872 43.1335 Q213.874 38.2536 221.565 38.2536 Q231.749 38.2536 238.751 45.3082 Q245.752 52.3628 245.752 63.4487 Q245.752 74.0041 239.599 81.6952 Q232.12 91.1368 219.178 91.1368 Q208.57 91.1368 201.833 85.196 Q195.15 79.2553 194.195 69.4425 Z" fill="#000000" fill-rule="nonzero" fill-opacity="1" /><path clip-path="url(#clip940)" d="M254.61 51.4611 Q254.61 37.6701 257.422 29.2894 Q260.286 20.8557 265.855 16.2941 Q271.478 11.7324 279.965 11.7324 Q286.224 11.7324 290.944 14.2785 Q295.665 16.7715 298.741 21.5453 Q301.818 26.266 303.568 33.1085 Q305.319 39.8979 305.319 51.4611 Q305.319 65.146 302.507 73.5798 Q299.696 81.9604 294.074 86.5751 Q288.504 91.1368 279.965 91.1368 Q268.72 91.1368 262.301 83.0743 Q254.61 73.3676 254.61 51.4611 M264.423 51.4611 Q264.423 70.6094 268.879 76.9745 Q273.387 83.2865 279.965 83.2865 Q286.542 83.2865 290.997 76.9214 Q295.506 70.5563 295.506 51.4611 Q295.506 32.2598 290.997 25.9478 Q286.542 19.6357 279.858 19.6357 Q273.281 19.6357 269.356 25.2052 Q264.423 32.3129 264.423 51.4611 Z" fill="#000000" fill-rule="nonzero" fill-opacity="1" /><path clip-path="url(#clip940)" d="M116.738 1195.86 L38.9776 1195.86 L38.9776 1161.38 Q38.9776 1150.98 41.0993 1145.57 Q43.168 1140.16 48.4722 1136.93 Q53.7764 1133.69 60.1945 1133.69 Q68.4691 1133.69 74.1447 1139.05 Q79.8202 1144.41 81.3584 1155.6 Q83.321 1151.51 85.2305 1149.39 Q89.3678 1144.88 95.5738 1140.85 L116.738 1127.33 L116.738 1140.27 L100.56 1150.56 Q93.5582 1155.07 89.8452 1157.99 Q86.1322 1160.9 84.647 1163.24 Q83.1619 1165.52 82.5784 1167.9 Q82.2071 1169.65 82.2071 1173.63 L82.2071 1185.57 L116.738 1185.57 L116.738 1195.86 M73.296 1185.57 L73.296 1163.45 Q73.296 1156.39 71.8639 1152.42 Q70.3787 1148.44 67.1961 1146.37 Q63.9606 1144.3 60.1945 1144.3 Q54.6782 1144.3 51.1243 1148.33 Q47.5705 1152.31 47.5705 1160.96 L47.5705 1185.57 L73.296 1185.57 Z" fill="#000000" fill-rule="nonzero" fill-opacity="1" /><path clip-path="url(#clip940)" d="M98.5972 1080.23 L99.8171 1070.36 Q108.463 1072.69 113.237 1079.01 Q118.011 1085.32 118.011 1095.13 Q118.011 1107.49 110.426 1114.76 Q102.788 1121.97 89.0496 1121.97 Q74.8342 1121.97 66.984 1114.65 Q59.1337 1107.33 59.1337 1095.66 Q59.1337 1084.36 66.8248 1077.2 Q74.516 1070.04 88.4661 1070.04 Q89.3148 1070.04 91.0121 1070.09 L91.0121 1112.1 Q100.295 1111.57 105.227 1106.85 Q110.16 1102.13 110.16 1095.08 Q110.16 1089.83 107.402 1086.11 Q104.644 1082.4 98.5972 1080.23 M83.1619 1111.57 L83.1619 1080.12 Q76.0542 1080.76 72.5004 1083.73 Q66.984 1088.29 66.984 1095.55 Q66.984 1102.13 71.3865 1106.64 Q75.789 1111.1 83.1619 1111.57 Z" fill="#000000" fill-rule="nonzero" fill-opacity="1" /><path clip-path="url(#clip940)" d="M121.405 1060.12 L122.784 1050.84 Q127.081 1050.26 129.043 1047.6 Q131.696 1044.05 131.696 1037.9 Q131.696 1031.27 129.043 1027.66 Q126.391 1024.05 121.618 1022.78 Q118.7 1022.04 109.365 1022.09 Q116.738 1028.35 116.738 1037.69 Q116.738 1049.3 108.357 1055.67 Q99.9763 1062.03 88.2539 1062.03 Q80.1915 1062.03 73.4021 1059.11 Q66.5596 1056.2 62.8467 1050.68 Q59.1337 1045.11 59.1337 1037.63 Q59.1337 1027.66 67.1961 1021.19 L60.4067 1021.19 L60.4067 1012.38 L109.1 1012.38 Q122.254 1012.38 127.717 1015.09 Q133.234 1017.74 136.416 1023.58 Q139.599 1029.36 139.599 1037.84 Q139.599 1047.92 135.037 1054.13 Q130.529 1060.33 121.405 1060.12 M87.5644 1052.22 Q98.6502 1052.22 103.742 1047.82 Q108.834 1043.41 108.834 1036.78 Q108.834 1030.21 103.795 1025.75 Q98.7033 1021.3 87.8826 1021.3 Q77.5394 1021.3 72.2882 1025.91 Q67.037 1030.47 67.037 1036.94 Q67.037 1043.31 72.2351 1047.76 Q77.3803 1052.22 87.5644 1052.22 Z" fill="#000000" fill-rule="nonzero" fill-opacity="1" /><path clip-path="url(#clip940)" d="M116.738 961.039 L108.463 961.039 Q118.011 967.616 118.011 978.914 Q118.011 983.9 116.101 988.25 Q114.192 992.546 111.327 994.668 Q108.41 996.736 104.22 997.585 Q101.408 998.169 95.3085 998.169 L60.4067 998.169 L60.4067 988.621 L91.6486 988.621 Q99.1276 988.621 101.727 988.038 Q105.493 987.136 107.667 984.218 Q109.789 981.301 109.789 977.005 Q109.789 972.708 107.614 968.942 Q105.387 965.176 101.621 963.638 Q97.8015 962.047 90.5878 962.047 L60.4067 962.047 L60.4067 952.499 L116.738 952.499 L116.738 961.039 Z" fill="#000000" fill-rule="nonzero" fill-opacity="1" /><path clip-path="url(#clip940)" d="M116.738 937.753 L38.9776 937.753 L38.9776 928.206 L116.738 928.206 L116.738 937.753 Z" fill="#000000" fill-rule="nonzero" fill-opacity="1" /><path clip-path="url(#clip940)" d="M109.789 876.649 Q114.298 881.953 116.154 886.886 Q118.011 891.766 118.011 897.388 Q118.011 906.671 113.502 911.657 Q108.94 916.643 101.886 916.643 Q97.7485 916.643 94.3538 914.786 Q90.906 912.877 88.8374 909.853 Q86.7687 906.777 85.7079 902.958 Q84.9653 900.146 84.2757 894.471 Q82.8966 882.908 80.9871 877.444 Q79.0246 877.391 78.4941 877.391 Q72.6595 877.391 70.2726 880.096 Q67.037 883.756 67.037 890.97 Q67.037 897.707 69.4239 900.942 Q71.7578 904.125 77.7515 905.663 L76.4785 914.998 Q70.4848 913.725 66.8248 910.808 Q63.1119 907.891 61.1493 902.374 Q59.1337 896.858 59.1337 889.591 Q59.1337 882.377 60.8311 877.869 Q62.5284 873.36 65.1275 871.238 Q67.6735 869.117 71.5986 868.268 Q74.0386 867.791 80.4037 867.791 L93.1338 867.791 Q106.447 867.791 110.001 867.207 Q113.502 866.571 116.738 864.767 L116.738 874.739 Q113.767 876.224 109.789 876.649 M88.4661 877.444 Q90.5878 882.643 92.073 893.039 Q92.9216 898.926 93.9825 901.366 Q95.0433 903.806 97.112 905.132 Q99.1276 906.458 101.621 906.458 Q105.44 906.458 107.986 903.594 Q110.532 900.677 110.532 895.107 Q110.532 889.591 108.145 885.295 Q105.705 880.998 101.514 878.983 Q98.2789 877.444 91.9669 877.444 L88.4661 877.444 Z" fill="#000000" fill-rule="nonzero" fill-opacity="1" /><path clip-path="url(#clip940)" d="M116.738 853.098 L60.4067 853.098 L60.4067 844.505 L68.9465 844.505 Q62.9527 841.216 61.0432 838.458 Q59.1337 835.647 59.1337 832.305 Q59.1337 827.479 62.2102 822.493 L71.0682 825.781 Q68.9996 829.282 68.9996 832.783 Q68.9996 835.912 70.9091 838.405 Q72.7656 840.898 76.1072 841.959 Q81.1993 843.55 87.2461 843.55 L116.738 843.55 L116.738 853.098 Z" fill="#000000" fill-rule="nonzero" fill-opacity="1" /><path clip-path="url(#clip940)" d="M49.9574 816.764 L38.9776 816.764 L38.9776 807.216 L49.9574 807.216 L49.9574 816.764 M116.738 816.764 L60.4067 816.764 L60.4067 807.216 L116.738 807.216 L116.738 816.764 Z" fill="#000000" fill-rule="nonzero" fill-opacity="1" /><path clip-path="url(#clip940)" d="M116.738 797.722 L108.993 797.722 L67.8326 761.865 Q68.1509 767.965 68.1509 772.633 L68.1509 795.6 L60.4067 795.6 L60.4067 749.559 L66.7188 749.559 L102.469 780.059 L108.993 785.946 Q108.516 779.528 108.516 773.906 L108.516 747.862 L116.738 747.862 L116.738 797.722 Z" fill="#000000" fill-rule="nonzero" fill-opacity="1" /><path clip-path="url(#clip940)" d="M98.5972 699.806 L99.8171 689.94 Q108.463 692.274 113.237 698.586 Q118.011 704.898 118.011 714.711 Q118.011 727.069 110.426 734.336 Q102.788 741.55 89.0496 741.55 Q74.8342 741.55 66.984 734.23 Q59.1337 726.91 59.1337 715.241 Q59.1337 703.943 66.8248 696.782 Q74.516 689.622 88.4661 689.622 Q89.3148 689.622 91.0121 689.675 L91.0121 731.684 Q100.295 731.154 105.227 726.433 Q110.16 721.712 110.16 714.658 Q110.16 709.406 107.402 705.693 Q104.644 701.98 98.5972 699.806 M83.1619 731.154 L83.1619 699.7 Q76.0542 700.336 72.5004 703.307 Q66.984 707.868 66.984 715.135 Q66.984 721.712 71.3865 726.221 Q75.789 730.676 83.1619 731.154 Z" fill="#000000" fill-rule="nonzero" fill-opacity="1" /><path clip-path="url(#clip940)" d="M116.738 678.058 L60.4067 678.058 L60.4067 669.466 L68.9465 669.466 Q62.9527 666.177 61.0432 663.419 Q59.1337 660.607 59.1337 657.266 Q59.1337 652.439 62.2102 647.453 L71.0682 650.742 Q68.9996 654.242 68.9996 657.743 Q68.9996 660.873 70.9091 663.366 Q72.7656 665.859 76.1072 666.92 Q81.1993 668.511 87.2461 668.511 L116.738 668.511 L116.738 678.058 Z" fill="#000000" fill-rule="nonzero" fill-opacity="1" /><path clip-path="url(#clip940)" d="M116.738 595.949 L60.4067 617.378 L60.4067 607.3 L94.1416 595.206 Q99.605 593.244 105.493 591.599 Q101.037 590.326 94.7781 588.046 L60.4067 575.528 L60.4067 565.715 L116.738 587.038 L116.738 595.949 Z" fill="#000000" fill-rule="nonzero" fill-opacity="1" /><path clip-path="url(#clip940)" d="M109.789 520.523 Q114.298 525.827 116.154 530.76 Q118.011 535.64 118.011 541.262 Q118.011 550.545 113.502 555.531 Q108.94 560.517 101.886 560.517 Q97.7485 560.517 94.3538 558.66 Q90.906 556.751 88.8374 553.727 Q86.7687 550.651 85.7079 546.832 Q84.9653 544.021 84.2757 538.345 Q82.8966 526.782 80.9871 521.318 Q79.0246 521.265 78.4941 521.265 Q72.6595 521.265 70.2726 523.971 Q67.037 527.63 67.037 534.844 Q67.037 541.581 69.4239 544.816 Q71.7578 547.999 77.7515 549.537 L76.4785 558.872 Q70.4848 557.599 66.8248 554.682 Q63.1119 551.765 61.1493 546.248 Q59.1337 540.732 59.1337 533.465 Q59.1337 526.251 60.8311 521.743 Q62.5284 517.234 65.1275 515.112 Q67.6735 512.991 71.5986 512.142 Q74.0386 511.665 80.4037 511.665 L93.1338 511.665 Q106.447 511.665 110.001 511.081 Q113.502 510.445 116.738 508.641 L116.738 518.613 Q113.767 520.098 109.789 520.523 M88.4661 521.318 Q90.5878 526.517 92.073 536.913 Q92.9216 542.801 93.9825 545.24 Q95.0433 547.68 97.112 549.006 Q99.1276 550.333 101.621 550.333 Q105.44 550.333 107.986 547.468 Q110.532 544.551 110.532 538.981 Q110.532 533.465 108.145 529.169 Q105.705 524.872 101.514 522.857 Q98.2789 521.318 91.9669 521.318 L88.4661 521.318 Z" fill="#000000" fill-rule="nonzero" fill-opacity="1" /><path clip-path="url(#clip940)" d="M116.738 497.078 L38.9776 497.078 L38.9776 487.53 L116.738 487.53 L116.738 497.078 Z" fill="#000000" fill-rule="nonzero" fill-opacity="1" /><path clip-path="url(#clip940)" d="M116.738 435.814 L108.463 435.814 Q118.011 442.391 118.011 453.689 Q118.011 458.675 116.101 463.025 Q114.192 467.321 111.327 469.443 Q108.41 471.512 104.22 472.36 Q101.408 472.944 95.3085 472.944 L60.4067 472.944 L60.4067 463.396 L91.6486 463.396 Q99.1276 463.396 101.727 462.813 Q105.493 461.911 107.667 458.994 Q109.789 456.076 109.789 451.78 Q109.789 447.484 107.614 443.718 Q105.387 439.952 101.621 438.413 Q97.8015 436.822 90.5878 436.822 L60.4067 436.822 L60.4067 427.274 L116.738 427.274 L116.738 435.814 Z" fill="#000000" fill-rule="nonzero" fill-opacity="1" /><path clip-path="url(#clip940)" d="M98.5972 373.755 L99.8171 363.889 Q108.463 366.223 113.237 372.535 Q118.011 378.847 118.011 388.66 Q118.011 401.018 110.426 408.285 Q102.788 415.499 89.0496 415.499 Q74.8342 415.499 66.984 408.179 Q59.1337 400.859 59.1337 389.19 Q59.1337 377.892 66.8248 370.731 Q74.516 363.571 88.4661 363.571 Q89.3148 363.571 91.0121 363.624 L91.0121 405.633 Q100.295 405.103 105.227 400.382 Q110.16 395.661 110.16 388.607 Q110.16 383.355 107.402 379.642 Q104.644 375.929 98.5972 373.755 M83.1619 405.103 L83.1619 373.649 Q76.0542 374.285 72.5004 377.256 Q66.984 381.817 66.984 389.084 Q66.984 395.661 71.3865 400.17 Q75.789 404.625 83.1619 405.103 Z" fill="#000000" fill-rule="nonzero" fill-opacity="1" /><circle clip-path="url(#clip942)" cx="421.093" cy="1467.34" r="14.4" fill="#43cd80" fill-rule="evenodd" fill-opacity="1" stroke="none"/>
<circle clip-path="url(#clip942)" cx="465.157" cy="1467.38" r="14.4" fill="#43cd80" fill-rule="evenodd" fill-opacity="1" stroke="none"/>
<circle clip-path="url(#clip942)" cx="509.221" cy="1465.24" r="14.4" fill="#43cd80" fill-rule="evenodd" fill-opacity="1" stroke="none"/>
<circle clip-path="url(#clip942)" cx="553.285" cy="1463.32" r="14.4" fill="#43cd80" fill-rule="evenodd" fill-opacity="1" stroke="none"/>
<circle clip-path="url(#clip942)" cx="597.348" cy="1459" r="14.4" fill="#43cd80" fill-rule="evenodd" fill-opacity="1" stroke="none"/>
<circle clip-path="url(#clip942)" cx="641.412" cy="1454.49" r="14.4" fill="#43cd80" fill-rule="evenodd" fill-opacity="1" stroke="none"/>
<circle clip-path="url(#clip942)" cx="685.476" cy="1447.37" r="14.4" fill="#43cd80" fill-rule="evenodd" fill-opacity="1" stroke="none"/>
<circle clip-path="url(#clip942)" cx="729.54" cy="1441.72" r="14.4" fill="#43cd80" fill-rule="evenodd" fill-opacity="1" stroke="none"/>
<circle clip-path="url(#clip942)" cx="773.604" cy="1434.17" r="14.4" fill="#43cd80" fill-rule="evenodd" fill-opacity="1" stroke="none"/>
<circle clip-path="url(#clip942)" cx="817.668" cy="1423.58" r="14.4" fill="#43cd80" fill-rule="evenodd" fill-opacity="1" stroke="none"/>
<circle clip-path="url(#clip942)" cx="861.732" cy="1414.83" r="14.4" fill="#43cd80" fill-rule="evenodd" fill-opacity="1" stroke="none"/>
<circle clip-path="url(#clip942)" cx="905.796" cy="1403.3" r="14.4" fill="#43cd80" fill-rule="evenodd" fill-opacity="1" stroke="none"/>
<circle clip-path="url(#clip942)" cx="949.86" cy="1389.94" r="14.4" fill="#43cd80" fill-rule="evenodd" fill-opacity="1" stroke="none"/>
<circle clip-path="url(#clip942)" cx="993.924" cy="1377.43" r="14.4" fill="#43cd80" fill-rule="evenodd" fill-opacity="1" stroke="none"/>
<circle clip-path="url(#clip942)" cx="1037.99" cy="1363.56" r="14.4" fill="#43cd80" fill-rule="evenodd" fill-opacity="1" stroke="none"/>
<circle clip-path="url(#clip942)" cx="1082.05" cy="1347.46" r="14.4" fill="#43cd80" fill-rule="evenodd" fill-opacity="1" stroke="none"/>
<circle clip-path="url(#clip942)" cx="1126.12" cy="1330.21" r="14.4" fill="#43cd80" fill-rule="evenodd" fill-opacity="1" stroke="none"/>
<circle clip-path="url(#clip942)" cx="1170.18" cy="1313.41" r="14.4" fill="#43cd80" fill-rule="evenodd" fill-opacity="1" stroke="none"/>
<circle clip-path="url(#clip942)" cx="1214.24" cy="1294" r="14.4" fill="#43cd80" fill-rule="evenodd" fill-opacity="1" stroke="none"/>
<circle clip-path="url(#clip942)" cx="1258.31" cy="1273.86" r="14.4" fill="#43cd80" fill-rule="evenodd" fill-opacity="1" stroke="none"/>
<circle clip-path="url(#clip942)" cx="1302.37" cy="1253.13" r="14.4" fill="#43cd80" fill-rule="evenodd" fill-opacity="1" stroke="none"/>
<circle clip-path="url(#clip942)" cx="1346.44" cy="1231.18" r="14.4" fill="#43cd80" fill-rule="evenodd" fill-opacity="1" stroke="none"/>
<circle clip-path="url(#clip942)" cx="1390.5" cy="1207.22" r="14.4" fill="#43cd80" fill-rule="evenodd" fill-opacity="1" stroke="none"/>
<circle clip-path="url(#clip942)" cx="1434.56" cy="1183.32" r="14.4" fill="#43cd80" fill-rule="evenodd" fill-opacity="1" stroke="none"/>
<circle clip-path="url(#clip942)" cx="1478.63" cy="1157.14" r="14.4" fill="#43cd80" fill-rule="evenodd" fill-opacity="1" stroke="none"/>
<circle clip-path="url(#clip942)" cx="1522.69" cy="1128.48" r="14.4" fill="#43cd80" fill-rule="evenodd" fill-opacity="1" stroke="none"/>
<circle clip-path="url(#clip942)" cx="1566.76" cy="1103.32" r="14.4" fill="#43cd80" fill-rule="evenodd" fill-opacity="1" stroke="none"/>
<circle clip-path="url(#clip942)" cx="1610.82" cy="1075.68" r="14.4" fill="#43cd80" fill-rule="evenodd" fill-opacity="1" stroke="none"/>
<circle clip-path="url(#clip942)" cx="1654.88" cy="1049.43" r="14.4" fill="#43cd80" fill-rule="evenodd" fill-opacity="1" stroke="none"/>
<circle clip-path="url(#clip942)" cx="1698.95" cy="1012.46" r="14.4" fill="#43cd80" fill-rule="evenodd" fill-opacity="1" stroke="none"/>
<circle clip-path="url(#clip942)" cx="1743.01" cy="983.843" r="14.4" fill="#43cd80" fill-rule="evenodd" fill-opacity="1" stroke="none"/>
<circle clip-path="url(#clip942)" cx="1787.07" cy="950.357" r="14.4" fill="#43cd80" fill-rule="evenodd" fill-opacity="1" stroke="none"/>
<circle clip-path="url(#clip942)" cx="1831.14" cy="914.032" r="14.4" fill="#43cd80" fill-rule="evenodd" fill-opacity="1" stroke="none"/>
<circle clip-path="url(#clip942)" cx="1875.2" cy="877.049" r="14.4" fill="#43cd80" fill-rule="evenodd" fill-opacity="1" stroke="none"/>
<circle clip-path="url(#clip942)" cx="1919.27" cy="844.069" r="14.4" fill="#43cd80" fill-rule="evenodd" fill-opacity="1" stroke="none"/>
<circle clip-path="url(#clip942)" cx="1963.33" cy="803.756" r="14.4" fill="#43cd80" fill-rule="evenodd" fill-opacity="1" stroke="none"/>
<circle clip-path="url(#clip942)" cx="2007.39" cy="764.163" r="14.4" fill="#43cd80" fill-rule="evenodd" fill-opacity="1" stroke="none"/>
<circle clip-path="url(#clip942)" cx="2051.46" cy="727.074" r="14.4" fill="#43cd80" fill-rule="evenodd" fill-opacity="1" stroke="none"/>
<circle clip-path="url(#clip942)" cx="2095.52" cy="684.979" r="14.4" fill="#43cd80" fill-rule="evenodd" fill-opacity="1" stroke="none"/>
<circle clip-path="url(#clip942)" cx="2139.59" cy="643.733" r="14.4" fill="#43cd80" fill-rule="evenodd" fill-opacity="1" stroke="none"/>
<circle clip-path="url(#clip942)" cx="2183.65" cy="600.639" r="14.4" fill="#43cd80" fill-rule="evenodd" fill-opacity="1" stroke="none"/>
<circle clip-path="url(#clip942)" cx="2227.71" cy="557.271" r="14.4" fill="#43cd80" fill-rule="evenodd" fill-opacity="1" stroke="none"/>
<circle clip-path="url(#clip942)" cx="2271.78" cy="512.456" r="14.4" fill="#43cd80" fill-rule="evenodd" fill-opacity="1" stroke="none"/>
<circle clip-path="url(#clip942)" cx="2315.84" cy="466.523" r="14.4" fill="#43cd80" fill-rule="evenodd" fill-opacity="1" stroke="none"/>
<circle clip-path="url(#clip942)" cx="2359.91" cy="416.728" r="14.4" fill="#43cd80" fill-rule="evenodd" fill-opacity="1" stroke="none"/>
<circle clip-path="url(#clip942)" cx="2403.97" cy="369.419" r="14.4" fill="#43cd80" fill-rule="evenodd" fill-opacity="1" stroke="none"/>
<circle clip-path="url(#clip942)" cx="2448.03" cy="317.241" r="14.4" fill="#43cd80" fill-rule="evenodd" fill-opacity="1" stroke="none"/>
<circle clip-path="url(#clip942)" cx="2492.1" cy="268.018" r="14.4" fill="#43cd80" fill-rule="evenodd" fill-opacity="1" stroke="none"/>
<circle clip-path="url(#clip942)" cx="2536.16" cy="219.696" r="14.4" fill="#43cd80" fill-rule="evenodd" fill-opacity="1" stroke="none"/>
<circle clip-path="url(#clip942)" cx="2580.23" cy="165.257" r="14.4" fill="#43cd80" fill-rule="evenodd" fill-opacity="1" stroke="none"/>
<polyline clip-path="url(#clip942)" style="stroke:#43cd80; stroke-linecap:round; stroke-linejoin:round; stroke-width:4; stroke-opacity:1; fill:none" points="421.093,1467.34 465.157,1467.38 509.221,1465.24 553.285,1463.32 597.348,1459 641.412,1454.49 685.476,1447.37 729.54,1441.72 773.604,1434.17 817.668,1423.58 861.732,1414.83 905.796,1403.3 949.86,1389.94 993.924,1377.43 1037.99,1363.56 1082.05,1347.46 1126.12,1330.21 1170.18,1313.41 1214.24,1294 1258.31,1273.86 1302.37,1253.13 1346.44,1231.18 1390.5,1207.22 1434.56,1183.32 1478.63,1157.14 1522.69,1128.48 1566.76,1103.32 1610.82,1075.68 1654.88,1049.43 1698.95,1012.46 1743.01,983.843 1787.07,950.357 1831.14,914.032 1875.2,877.049 1919.27,844.069 1963.33,803.756 2007.39,764.163 2051.46,727.074 2095.52,684.979 2139.59,643.733 2183.65,600.639 2227.71,557.271 2271.78,512.456 2315.84,466.523 2359.91,416.728 2403.97,369.419 2448.03,317.241 2492.1,268.018 2536.16,219.696 2580.23,165.257 "/>
<circle clip-path="url(#clip942)" cx="421.093" cy="1470.18" r="14.4" fill="#ee9a00" fill-rule="evenodd" fill-opacity="1" stroke="none"/>
<circle clip-path="url(#clip942)" cx="465.157" cy="1470.72" r="14.4" fill="#ee9a00" fill-rule="evenodd" fill-opacity="1" stroke="none"/>
<circle clip-path="url(#clip942)" cx="509.221" cy="1470.05" r="14.4" fill="#ee9a00" fill-rule="evenodd" fill-opacity="1" stroke="none"/>
<circle clip-path="url(#clip942)" cx="553.285" cy="1468.15" r="14.4" fill="#ee9a00" fill-rule="evenodd" fill-opacity="1" stroke="none"/>
<circle clip-path="url(#clip942)" cx="597.348" cy="1465.41" r="14.4" fill="#ee9a00" fill-rule="evenodd" fill-opacity="1" stroke="none"/>
<circle clip-path="url(#clip942)" cx="641.412" cy="1459.47" r="14.4" fill="#ee9a00" fill-rule="evenodd" fill-opacity="1" stroke="none"/>
<circle clip-path="url(#clip942)" cx="685.476" cy="1456.15" r="14.4" fill="#ee9a00" fill-rule="evenodd" fill-opacity="1" stroke="none"/>
<circle clip-path="url(#clip942)" cx="729.54" cy="1448.31" r="14.4" fill="#ee9a00" fill-rule="evenodd" fill-opacity="1" stroke="none"/>
<circle clip-path="url(#clip942)" cx="773.604" cy="1440.56" r="14.4" fill="#ee9a00" fill-rule="evenodd" fill-opacity="1" stroke="none"/>
<circle clip-path="url(#clip942)" cx="817.668" cy="1430.49" r="14.4" fill="#ee9a00" fill-rule="evenodd" fill-opacity="1" stroke="none"/>
<circle clip-path="url(#clip942)" cx="861.732" cy="1422.52" r="14.4" fill="#ee9a00" fill-rule="evenodd" fill-opacity="1" stroke="none"/>
<circle clip-path="url(#clip942)" cx="905.796" cy="1411.39" r="14.4" fill="#ee9a00" fill-rule="evenodd" fill-opacity="1" stroke="none"/>
<circle clip-path="url(#clip942)" cx="949.86" cy="1396.89" r="14.4" fill="#ee9a00" fill-rule="evenodd" fill-opacity="1" stroke="none"/>
<circle clip-path="url(#clip942)" cx="993.924" cy="1383.83" r="14.4" fill="#ee9a00" fill-rule="evenodd" fill-opacity="1" stroke="none"/>
<circle clip-path="url(#clip942)" cx="1037.99" cy="1366.62" r="14.4" fill="#ee9a00" fill-rule="evenodd" fill-opacity="1" stroke="none"/>
<circle clip-path="url(#clip942)" cx="1082.05" cy="1355.22" r="14.4" fill="#ee9a00" fill-rule="evenodd" fill-opacity="1" stroke="none"/>
<circle clip-path="url(#clip942)" cx="1126.12" cy="1328.81" r="14.4" fill="#ee9a00" fill-rule="evenodd" fill-opacity="1" stroke="none"/>
<circle clip-path="url(#clip942)" cx="1170.18" cy="1315.39" r="14.4" fill="#ee9a00" fill-rule="evenodd" fill-opacity="1" stroke="none"/>
<circle clip-path="url(#clip942)" cx="1302.37" cy="1267" r="14.4" fill="#ee9a00" fill-rule="evenodd" fill-opacity="1" stroke="none"/>
<circle clip-path="url(#clip942)" cx="1434.56" cy="1175.08" r="14.4" fill="#ee9a00" fill-rule="evenodd" fill-opacity="1" stroke="none"/>
<circle clip-path="url(#clip942)" cx="1478.63" cy="1150.16" r="14.4" fill="#ee9a00" fill-rule="evenodd" fill-opacity="1" stroke="none"/>
<circle clip-path="url(#clip942)" cx="1522.69" cy="1122.83" r="14.4" fill="#ee9a00" fill-rule="evenodd" fill-opacity="1" stroke="none"/>
<circle clip-path="url(#clip942)" cx="1566.76" cy="1093.13" r="14.4" fill="#ee9a00" fill-rule="evenodd" fill-opacity="1" stroke="none"/>
<circle clip-path="url(#clip942)" cx="1610.82" cy="1052.83" r="14.4" fill="#ee9a00" fill-rule="evenodd" fill-opacity="1" stroke="none"/>
<circle clip-path="url(#clip942)" cx="1654.88" cy="1031.28" r="14.4" fill="#ee9a00" fill-rule="evenodd" fill-opacity="1" stroke="none"/>
<circle clip-path="url(#clip942)" cx="1698.95" cy="1000.48" r="14.4" fill="#ee9a00" fill-rule="evenodd" fill-opacity="1" stroke="none"/>
<circle clip-path="url(#clip942)" cx="1743.01" cy="924.926" r="14.4" fill="#ee9a00" fill-rule="evenodd" fill-opacity="1" stroke="none"/>
<circle clip-path="url(#clip942)" cx="1787.07" cy="928.333" r="14.4" fill="#ee9a00" fill-rule="evenodd" fill-opacity="1" stroke="none"/>
<circle clip-path="url(#clip942)" cx="1831.14" cy="865.164" r="14.4" fill="#ee9a00" fill-rule="evenodd" fill-opacity="1" stroke="none"/>
<circle clip-path="url(#clip942)" cx="1875.2" cy="851.877" r="14.4" fill="#ee9a00" fill-rule="evenodd" fill-opacity="1" stroke="none"/>
<circle clip-path="url(#clip942)" cx="1919.27" cy="801.956" r="14.4" fill="#ee9a00" fill-rule="evenodd" fill-opacity="1" stroke="none"/>
<circle clip-path="url(#clip942)" cx="1963.33" cy="792.161" r="14.4" fill="#ee9a00" fill-rule="evenodd" fill-opacity="1" stroke="none"/>
<circle clip-path="url(#clip942)" cx="2007.39" cy="769.051" r="14.4" fill="#ee9a00" fill-rule="evenodd" fill-opacity="1" stroke="none"/>
<circle clip-path="url(#clip942)" cx="2051.46" cy="699.807" r="14.4" fill="#ee9a00" fill-rule="evenodd" fill-opacity="1" stroke="none"/>
<circle clip-path="url(#clip942)" cx="2095.52" cy="644.898" r="14.4" fill="#ee9a00" fill-rule="evenodd" fill-opacity="1" stroke="none"/>
<circle clip-path="url(#clip942)" cx="2139.59" cy="622.058" r="14.4" fill="#ee9a00" fill-rule="evenodd" fill-opacity="1" stroke="none"/>
<circle clip-path="url(#clip942)" cx="2183.65" cy="551.984" r="14.4" fill="#ee9a00" fill-rule="evenodd" fill-opacity="1" stroke="none"/>
<circle clip-path="url(#clip942)" cx="2227.71" cy="486.953" r="14.4" fill="#ee9a00" fill-rule="evenodd" fill-opacity="1" stroke="none"/>
<circle clip-path="url(#clip942)" cx="2271.78" cy="404.615" r="14.4" fill="#ee9a00" fill-rule="evenodd" fill-opacity="1" stroke="none"/>
<circle clip-path="url(#clip942)" cx="2359.91" cy="300.515" r="14.4" fill="#ee9a00" fill-rule="evenodd" fill-opacity="1" stroke="none"/>
<circle clip-path="url(#clip942)" cx="2403.97" cy="315.57" r="14.4" fill="#ee9a00" fill-rule="evenodd" fill-opacity="1" stroke="none"/>
<circle clip-path="url(#clip942)" cx="2448.03" cy="790.972" r="14.4" fill="#ee9a00" fill-rule="evenodd" fill-opacity="1" stroke="none"/>
<circle clip-path="url(#clip942)" cx="2492.1" cy="88.7047" r="14.4" fill="#ee9a00" fill-rule="evenodd" fill-opacity="1" stroke="none"/>
<circle clip-path="url(#clip942)" cx="2580.23" cy="726.574" r="14.4" fill="#ee9a00" fill-rule="evenodd" fill-opacity="1" stroke="none"/>
<polyline clip-path="url(#clip942)" style="stroke:#ee9a00; stroke-linecap:round; stroke-linejoin:round; stroke-width:4; stroke-opacity:1; fill:none" points="421.093,1470.18 465.157,1470.72 509.221,1470.05 553.285,1468.15 597.348,1465.41 641.412,1459.47 685.476,1456.15 729.54,1448.31 773.604,1440.56 817.668,1430.49 861.732,1422.52 905.796,1411.39 949.86,1396.89 993.924,1383.83 1037.99,1366.62 1082.05,1355.22 1126.12,1328.81 1170.18,1315.39 1302.37,1267 1434.56,1175.08 1478.63,1150.16 1522.69,1122.83 1566.76,1093.13 1610.82,1052.83 1654.88,1031.28 1698.95,1000.48 1743.01,924.926 1787.07,928.333 1831.14,865.164 1875.2,851.877 1919.27,801.956 1963.33,792.161 2007.39,769.051 2051.46,699.807 2095.52,644.898 2139.59,622.058 2183.65,551.984 2227.71,486.953 2271.78,404.615 2359.91,300.515 2403.97,315.57 2448.03,790.972 2492.1,88.7047 2580.23,726.574 "/>
<polyline clip-path="url(#clip942)" style="stroke:#808080; stroke-linecap:round; stroke-linejoin:round; stroke-width:4; stroke-opacity:1; fill:none" stroke-dasharray="16, 10" points="1351.39,2977.12 1351.39,-1417.7 "/>
<path clip-path="url(#clip940)" d="M2744.88 945.185 L3352.76 945.185 L3352.76 595.265 L2744.88 595.265  Z" fill="#ffffff" fill-rule="evenodd" fill-opacity="1"/>
<polyline clip-path="url(#clip940)" style="stroke:#000000; stroke-linecap:round; stroke-linejoin:round; stroke-width:4; stroke-opacity:0; fill:none" points="2744.88,945.185 3352.76,945.185 3352.76,595.265 2744.88,595.265 2744.88,945.185 "/>
<circle clip-path="url(#clip940)" cx="2878.06" cy="711.905" r="51.84" fill="#43cd80" fill-rule="evenodd" fill-opacity="1" stroke="none"/>
<path clip-path="url(#clip940)" d="M3093.71 686.218 Q3093.71 694.913 3089.97 703.451 Q3086.28 711.936 3080.27 718.365 Q3074.31 724.742 3066.25 728.694 Q3058.19 732.647 3049.97 732.647 L3014.24 732.647 Q3012.97 732.647 3012.44 732.594 Q3011.97 732.542 3011.6 732.278 Q3011.23 731.962 3011.23 731.33 Q3011.23 730.328 3011.65 729.907 Q3012.07 729.432 3012.55 729.38 Q3013.02 729.327 3014.24 729.327 Q3016.87 729.327 3018.45 729.169 Q3020.03 729.011 3021.03 728.8 Q3022.09 728.536 3022.61 727.799 Q3023.19 727.061 3023.46 726.428 Q3023.72 725.743 3024.09 724.215 L3038.53 666.244 Q3038.95 664.505 3038.95 664.242 Q3038.95 663.346 3038.42 663.03 Q3037.95 662.661 3036.58 662.503 Q3033.95 662.292 3031.94 662.292 Q3030.62 662.292 3030.1 662.239 Q3029.62 662.186 3029.2 661.923 Q3028.83 661.607 3028.83 660.974 Q3028.83 659.973 3029.25 659.551 Q3029.73 659.077 3030.26 659.024 Q3030.78 658.919 3032.05 658.919 L3068.31 658.919 Q3076.16 658.919 3082.01 662.608 Q3087.86 666.244 3090.76 672.41 Q3093.71 678.524 3093.71 686.218 M3084.27 682.265 Q3084.27 672.2 3078.79 667.246 Q3073.37 662.292 3064.77 662.292 L3053.23 662.292 Q3049.81 662.292 3048.96 662.924 Q3048.12 663.504 3047.38 666.403 L3032.57 725.638 Q3032.05 727.588 3032.05 728.115 Q3032.05 728.694 3032.31 728.905 Q3032.63 729.063 3033.47 729.169 Q3034.42 729.327 3035.84 729.327 L3048.02 729.327 Q3052.71 729.327 3056.98 728.062 Q3061.3 726.745 3064.41 724.689 Q3067.52 722.581 3069.52 720.789 Q3071.52 718.945 3072.94 717.1 Q3076.16 712.937 3078.53 707.509 Q3080.95 702.081 3082.06 697.127 Q3083.22 692.12 3083.75 688.431 Q3084.27 684.69 3084.27 682.265 Z" fill="#000000" fill-rule="nonzero" fill-opacity="1" /><path clip-path="url(#clip940)" d="M3163.73 657.654 L3157.88 681.264 Q3157.56 682.687 3157.3 683.056 Q3157.04 683.425 3156.3 683.425 Q3155.72 683.425 3155.35 683.161 Q3155.03 682.898 3155.03 682.634 L3154.98 682.371 Q3154.98 682.213 3155.09 681.422 Q3155.19 680.579 3155.3 679.209 Q3155.4 677.839 3155.4 676.31 Q3155.4 667.667 3151.19 663.662 Q3147.02 659.604 3139.86 659.604 Q3134.9 659.604 3130.48 662.239 Q3126.05 664.874 3123.52 669.038 Q3120.99 673.148 3120.99 677.47 Q3120.99 681.422 3122.99 683.952 Q3125 686.481 3127.58 687.325 L3134.8 689.275 Q3142.39 691.224 3144.55 692.068 Q3146.71 692.858 3148.5 694.65 Q3153.82 699.604 3153.82 707.298 Q3153.82 713.938 3150.08 720.368 Q3146.34 726.745 3139.91 730.908 Q3133.48 735.019 3126.37 735.019 Q3113.88 735.019 3108.13 727.272 L3102.86 733.385 Q3101.86 734.544 3101.54 734.755 Q3101.28 735.019 3100.91 735.019 Q3100.44 735.019 3100.07 734.702 Q3099.7 734.439 3099.7 733.965 Q3099.7 733.596 3102.81 721.211 Q3105.92 708.826 3106.18 708.563 Q3106.6 708.141 3107.29 708.141 Q3108.55 708.141 3108.55 709.353 Q3108.45 709.67 3108.34 710.091 Q3107.71 713.886 3107.71 715.941 Q3107.71 719.788 3109.03 722.739 Q3110.34 725.638 3112.29 727.324 Q3114.3 728.958 3116.98 730.012 Q3119.67 731.013 3121.94 731.382 Q3124.2 731.698 3126.58 731.698 Q3131.69 731.698 3136.22 728.747 Q3140.81 725.796 3143.39 721.211 Q3146.02 716.626 3146.02 711.83 Q3146.02 709.301 3145.34 707.351 Q3144.65 705.348 3143.7 704.241 Q3142.81 703.135 3141.28 702.292 Q3139.75 701.448 3138.7 701.132 Q3137.7 700.763 3136.11 700.394 L3124.57 697.338 Q3119.94 695.967 3116.62 692.015 Q3113.35 688.062 3113.35 682.002 Q3113.35 675.625 3117.09 669.723 Q3120.88 663.767 3127.05 660.184 Q3133.27 656.548 3139.96 656.548 Q3145.23 656.548 3149.29 658.603 Q3153.35 660.605 3155.4 664.347 L3160.62 658.181 Q3161.67 656.969 3161.89 656.758 Q3162.15 656.548 3162.52 656.548 Q3163.15 656.548 3163.41 656.916 Q3163.73 657.285 3163.73 657.654 Z" fill="#000000" fill-rule="nonzero" fill-opacity="1" /><path clip-path="url(#clip940)" d="M3174.61 740.729 Q3174.61 729.625 3177.42 723.575 Q3181.33 714.574 3190.55 714.574 Q3192.51 714.574 3194.54 715.127 Q3196.6 715.644 3199.18 717.672 Q3201.8 719.701 3203.39 723.022 Q3206.41 729.441 3206.41 740.729 Q3206.41 751.759 3203.61 757.772 Q3199.52 766.552 3190.48 766.552 Q3187.08 766.552 3183.62 764.818 Q3180.19 763.085 3178.01 758.916 Q3174.61 752.681 3174.61 740.729 M3180.89 739.807 Q3180.89 751.206 3181.7 755.743 Q3182.62 760.65 3185.13 762.789 Q3187.67 764.892 3190.48 764.892 Q3193.5 764.892 3196.01 762.642 Q3198.56 760.355 3199.33 755.448 Q3200.18 750.616 3200.14 739.807 Q3200.14 729.293 3199.4 725.087 Q3198.41 720.181 3195.75 718.226 Q3193.13 716.234 3190.48 716.234 Q3189.48 716.234 3188.41 716.529 Q3187.38 716.824 3185.87 717.672 Q3184.35 718.521 3183.17 720.624 Q3182.03 722.726 3181.48 725.899 Q3180.89 729.994 3180.89 739.807 Z" fill="#000000" fill-rule="nonzero" fill-opacity="1" /><path clip-path="url(#clip940)" d="M3213.17 763.675 Q3212.03 762.457 3212.03 760.871 Q3212.03 759.285 3213.17 758.141 Q3214.31 756.961 3216.05 756.961 Q3217.71 756.961 3218.81 758.067 Q3219.96 759.137 3219.96 760.908 Q3219.96 762.642 3218.74 763.785 Q3217.56 764.892 3216.05 764.892 Q3214.31 764.892 3213.17 763.675 Z" fill="#000000" fill-rule="nonzero" fill-opacity="1" /><path clip-path="url(#clip940)" d="M3232.82 740.729 Q3232.82 729.625 3235.62 723.575 Q3239.53 714.574 3248.75 714.574 Q3250.71 714.574 3252.74 715.127 Q3254.8 715.644 3257.38 717.672 Q3260 719.701 3261.59 723.022 Q3264.61 729.441 3264.61 740.729 Q3264.61 751.759 3261.81 757.772 Q3257.72 766.552 3248.68 766.552 Q3245.28 766.552 3241.82 764.818 Q3238.39 763.085 3236.21 758.916 Q3232.82 752.681 3232.82 740.729 M3239.09 739.807 Q3239.09 751.206 3239.9 755.743 Q3240.82 760.65 3243.33 762.789 Q3245.87 764.892 3248.68 764.892 Q3251.7 764.892 3254.21 762.642 Q3256.76 760.355 3257.53 755.448 Q3258.38 750.616 3258.34 739.807 Q3258.34 729.293 3257.61 725.087 Q3256.61 720.181 3253.95 718.226 Q3251.33 716.234 3248.68 716.234 Q3247.68 716.234 3246.61 716.529 Q3245.58 716.824 3244.07 717.672 Q3242.55 718.521 3241.37 720.624 Q3240.23 722.726 3239.68 725.899 Q3239.09 729.994 3239.09 739.807 Z" fill="#000000" fill-rule="nonzero" fill-opacity="1" /><path clip-path="url(#clip940)" d="M3270.53 740.729 Q3270.53 729.625 3273.33 723.575 Q3277.24 714.574 3286.47 714.574 Q3288.42 714.574 3290.45 715.127 Q3292.52 715.644 3295.1 717.672 Q3297.72 719.701 3299.3 723.022 Q3302.33 729.441 3302.33 740.729 Q3302.33 751.759 3299.53 757.772 Q3295.43 766.552 3286.39 766.552 Q3283 766.552 3279.53 764.818 Q3276.1 763.085 3273.92 758.916 Q3270.53 752.681 3270.53 740.729 M3276.8 739.807 Q3276.8 751.206 3277.61 755.743 Q3278.54 760.65 3281.04 762.789 Q3283.59 764.892 3286.39 764.892 Q3289.42 764.892 3291.93 762.642 Q3294.47 760.355 3295.25 755.448 Q3296.09 750.616 3296.06 739.807 Q3296.06 729.293 3295.32 725.087 Q3294.32 720.181 3291.67 718.226 Q3289.05 716.234 3286.39 716.234 Q3285.4 716.234 3284.33 716.529 Q3283.29 716.824 3281.78 717.672 Q3280.27 718.521 3279.09 720.624 Q3277.94 722.726 3277.39 725.899 Q3276.8 729.994 3276.8 739.807 Z" fill="#000000" fill-rule="nonzero" fill-opacity="1" /><circle clip-path="url(#clip940)" cx="2878.06" cy="828.545" r="51.84" fill="#ee9a00" fill-rule="evenodd" fill-opacity="1" stroke="none"/>
<path clip-path="url(#clip940)" d="M3093.71 802.858 Q3093.71 811.553 3089.97 820.091 Q3086.28 828.576 3080.27 835.005 Q3074.31 841.382 3066.25 845.334 Q3058.19 849.287 3049.97 849.287 L3014.24 849.287 Q3012.97 849.287 3012.44 849.234 Q3011.97 849.182 3011.6 848.918 Q3011.23 848.602 3011.23 847.97 Q3011.23 846.968 3011.65 846.547 Q3012.07 846.072 3012.55 846.02 Q3013.02 845.967 3014.24 845.967 Q3016.87 845.967 3018.45 845.809 Q3020.03 845.651 3021.03 845.44 Q3022.09 845.176 3022.61 844.439 Q3023.19 843.701 3023.46 843.068 Q3023.72 842.383 3024.09 840.855 L3038.53 782.884 Q3038.95 781.145 3038.95 780.882 Q3038.95 779.986 3038.42 779.67 Q3037.95 779.301 3036.58 779.143 Q3033.95 778.932 3031.94 778.932 Q3030.62 778.932 3030.1 778.879 Q3029.62 778.826 3029.2 778.563 Q3028.83 778.247 3028.83 777.614 Q3028.83 776.613 3029.25 776.191 Q3029.73 775.717 3030.26 775.664 Q3030.78 775.559 3032.05 775.559 L3068.31 775.559 Q3076.16 775.559 3082.01 779.248 Q3087.86 782.884 3090.76 789.05 Q3093.71 795.164 3093.71 802.858 M3084.27 798.905 Q3084.27 788.84 3078.79 783.886 Q3073.37 778.932 3064.77 778.932 L3053.23 778.932 Q3049.81 778.932 3048.96 779.564 Q3048.12 780.144 3047.38 783.043 L3032.57 842.278 Q3032.05 844.228 3032.05 844.755 Q3032.05 845.334 3032.31 845.545 Q3032.63 845.703 3033.47 845.809 Q3034.42 845.967 3035.84 845.967 L3048.02 845.967 Q3052.71 845.967 3056.98 844.702 Q3061.3 843.385 3064.41 841.329 Q3067.52 839.221 3069.52 837.429 Q3071.52 835.585 3072.94 833.74 Q3076.16 829.577 3078.53 824.149 Q3080.95 818.721 3082.06 813.767 Q3083.22 808.76 3083.75 805.071 Q3084.27 801.33 3084.27 798.905 Z" fill="#000000" fill-rule="nonzero" fill-opacity="1" /><path clip-path="url(#clip940)" d="M3163.73 774.294 L3157.88 797.904 Q3157.56 799.327 3157.3 799.696 Q3157.04 800.065 3156.3 800.065 Q3155.72 800.065 3155.35 799.801 Q3155.03 799.538 3155.03 799.274 L3154.98 799.011 Q3154.98 798.853 3155.09 798.062 Q3155.19 797.219 3155.3 795.849 Q3155.4 794.479 3155.4 792.95 Q3155.4 784.307 3151.19 780.302 Q3147.02 776.244 3139.86 776.244 Q3134.9 776.244 3130.48 778.879 Q3126.05 781.514 3123.52 785.678 Q3120.99 789.788 3120.99 794.11 Q3120.99 798.062 3122.99 800.592 Q3125 803.121 3127.58 803.965 L3134.8 805.915 Q3142.39 807.864 3144.55 808.708 Q3146.71 809.498 3148.5 811.29 Q3153.82 816.244 3153.82 823.938 Q3153.82 830.578 3150.08 837.008 Q3146.34 843.385 3139.91 847.548 Q3133.48 851.659 3126.37 851.659 Q3113.88 851.659 3108.13 843.912 L3102.86 850.025 Q3101.86 851.184 3101.54 851.395 Q3101.28 851.659 3100.91 851.659 Q3100.44 851.659 3100.07 851.342 Q3099.7 851.079 3099.7 850.605 Q3099.7 850.236 3102.81 837.851 Q3105.92 825.466 3106.18 825.203 Q3106.6 824.781 3107.29 824.781 Q3108.55 824.781 3108.55 825.993 Q3108.45 826.31 3108.34 826.731 Q3107.71 830.526 3107.71 832.581 Q3107.71 836.428 3109.03 839.379 Q3110.34 842.278 3112.29 843.964 Q3114.3 845.598 3116.98 846.652 Q3119.67 847.653 3121.94 848.022 Q3124.2 848.338 3126.58 848.338 Q3131.69 848.338 3136.22 845.387 Q3140.81 842.436 3143.39 837.851 Q3146.02 833.266 3146.02 828.47 Q3146.02 825.941 3145.34 823.991 Q3144.65 821.988 3143.7 820.881 Q3142.81 819.775 3141.28 818.932 Q3139.75 818.088 3138.7 817.772 Q3137.7 817.403 3136.11 817.034 L3124.57 813.978 Q3119.94 812.607 3116.62 808.655 Q3113.35 804.702 3113.35 798.642 Q3113.35 792.265 3117.09 786.363 Q3120.88 780.407 3127.05 776.824 Q3133.27 773.188 3139.96 773.188 Q3145.23 773.188 3149.29 775.243 Q3153.35 777.245 3155.4 780.987 L3160.62 774.821 Q3161.67 773.609 3161.89 773.398 Q3162.15 773.188 3162.52 773.188 Q3163.15 773.188 3163.41 773.556 Q3163.73 773.925 3163.73 774.294 Z" fill="#000000" fill-rule="nonzero" fill-opacity="1" /><path clip-path="url(#clip940)" d="M3174.61 857.369 Q3174.61 846.265 3177.42 840.215 Q3181.33 831.214 3190.55 831.214 Q3192.51 831.214 3194.54 831.767 Q3196.6 832.284 3199.18 834.312 Q3201.8 836.341 3203.39 839.662 Q3206.41 846.081 3206.41 857.369 Q3206.41 868.399 3203.61 874.412 Q3199.52 883.192 3190.48 883.192 Q3187.08 883.192 3183.62 881.458 Q3180.19 879.725 3178.01 875.556 Q3174.61 869.321 3174.61 857.369 M3180.89 856.447 Q3180.89 867.846 3181.7 872.383 Q3182.62 877.29 3185.13 879.429 Q3187.67 881.532 3190.48 881.532 Q3193.5 881.532 3196.01 879.282 Q3198.56 876.995 3199.33 872.088 Q3200.18 867.256 3200.14 856.447 Q3200.14 845.933 3199.4 841.727 Q3198.41 836.821 3195.75 834.866 Q3193.13 832.874 3190.48 832.874 Q3189.48 832.874 3188.41 833.169 Q3187.38 833.464 3185.87 834.312 Q3184.35 835.161 3183.17 837.264 Q3182.03 839.366 3181.48 842.539 Q3180.89 846.634 3180.89 856.447 Z" fill="#000000" fill-rule="nonzero" fill-opacity="1" /><path clip-path="url(#clip940)" d="M3213.17 880.315 Q3212.03 879.097 3212.03 877.511 Q3212.03 875.925 3213.17 874.781 Q3214.31 873.601 3216.05 873.601 Q3217.71 873.601 3218.81 874.707 Q3219.96 875.777 3219.96 877.548 Q3219.96 879.282 3218.74 880.425 Q3217.56 881.532 3216.05 881.532 Q3214.31 881.532 3213.17 880.315 Z" fill="#000000" fill-rule="nonzero" fill-opacity="1" /><path clip-path="url(#clip940)" d="M3232.82 857.369 Q3232.82 846.265 3235.62 840.215 Q3239.53 831.214 3248.75 831.214 Q3250.71 831.214 3252.74 831.767 Q3254.8 832.284 3257.38 834.312 Q3260 836.341 3261.59 839.662 Q3264.61 846.081 3264.61 857.369 Q3264.61 868.399 3261.81 874.412 Q3257.72 883.192 3248.68 883.192 Q3245.28 883.192 3241.82 881.458 Q3238.39 879.725 3236.21 875.556 Q3232.82 869.321 3232.82 857.369 M3239.09 856.447 Q3239.09 867.846 3239.9 872.383 Q3240.82 877.29 3243.33 879.429 Q3245.87 881.532 3248.68 881.532 Q3251.7 881.532 3254.21 879.282 Q3256.76 876.995 3257.53 872.088 Q3258.38 867.256 3258.34 856.447 Q3258.34 845.933 3257.61 841.727 Q3256.61 836.821 3253.95 834.866 Q3251.33 832.874 3248.68 832.874 Q3247.68 832.874 3246.61 833.169 Q3245.58 833.464 3244.07 834.312 Q3242.55 835.161 3241.37 837.264 Q3240.23 839.366 3239.68 842.539 Q3239.09 846.634 3239.09 856.447 Z" fill="#000000" fill-rule="nonzero" fill-opacity="1" /><path clip-path="url(#clip940)" d="M3270.53 869.358 Q3270.53 867.108 3271.75 866.26 Q3272.96 865.374 3274.26 865.374 Q3275.99 865.374 3276.99 866.481 Q3278.02 867.551 3278.02 869.063 Q3278.02 870.576 3276.99 871.682 Q3275.99 872.752 3274.26 872.752 Q3273.41 872.752 3272.96 872.605 Q3273.96 876.072 3276.99 878.581 Q3280.05 881.089 3284.07 881.089 Q3289.12 881.089 3292.15 876.183 Q3293.96 873.01 3293.96 865.817 Q3293.96 859.472 3292.59 856.299 Q3290.49 851.466 3286.17 851.466 Q3280.05 851.466 3276.43 856.742 Q3275.99 857.406 3275.47 857.443 Q3274.74 857.443 3274.55 857.037 Q3274.4 856.594 3274.4 855.451 L3274.4 833.095 Q3274.4 831.287 3275.14 831.287 Q3275.44 831.287 3276.06 831.509 Q3280.82 833.612 3286.1 833.648 Q3291.52 833.648 3296.39 831.435 Q3296.76 831.214 3296.98 831.214 Q3297.72 831.214 3297.76 832.062 Q3297.76 832.357 3297.13 833.243 Q3296.54 834.091 3295.25 835.235 Q3293.96 836.341 3292.3 837.411 Q3290.64 838.481 3288.2 839.219 Q3285.8 839.92 3283.15 839.92 Q3279.97 839.92 3276.73 838.924 L3276.73 853.643 Q3280.64 849.806 3286.32 849.806 Q3292.37 849.806 3296.54 854.676 Q3300.71 859.545 3300.71 866.333 Q3300.71 873.453 3295.76 878.323 Q3290.86 883.192 3284.22 883.192 Q3278.17 883.192 3274.33 878.876 Q3270.53 874.56 3270.53 869.358 Z" fill="#000000" fill-rule="nonzero" fill-opacity="1" /></svg>
