<?xml version="1.0" encoding="utf-8"?>
<svg xmlns="http://www.w3.org/2000/svg" xmlns:xlink="http://www.w3.org/1999/xlink" width="750" height="450" viewBox="0 0 3000 1800">
<defs>
  <clipPath id="clip980">
    <rect x="0" y="0" width="3000" height="1800"/>
  </clipPath>
</defs>
<path clip-path="url(#clip980)" d="M0 1800 L3000 1800 L3000 0 L0 0  Z" fill="#ffffff" fill-rule="evenodd" fill-opacity="1"/>
<defs>
  <clipPath id="clip981">
    <rect x="600" y="0" width="2101" height="1800"/>
  </clipPath>
</defs>
<path clip-path="url(#clip980)" d="M450.353 1495.72 L2952.76 1495.72 L2952.76 47.2441 L450.353 47.2441  Z" fill="#ffffff" fill-rule="evenodd" fill-opacity="1"/>
<defs>
  <clipPath id="clip982">
    <rect x="450" y="47" width="2503" height="1449"/>
  </clipPath>
</defs>
<polyline clip-path="url(#clip982)" style="stroke:#000000; stroke-linecap:round; stroke-linejoin:round; stroke-width:2; stroke-opacity:0.1; fill:none" points="510.901,1495.72 510.901,47.2441 "/>
<polyline clip-path="url(#clip982)" style="stroke:#000000; stroke-linecap:round; stroke-linejoin:round; stroke-width:2; stroke-opacity:0.1; fill:none" points="1301.25,1495.72 1301.25,47.2441 "/>
<polyline clip-path="url(#clip982)" style="stroke:#000000; stroke-linecap:round; stroke-linejoin:round; stroke-width:2; stroke-opacity:0.1; fill:none" points="2091.59,1495.72 2091.59,47.2441 "/>
<polyline clip-path="url(#clip982)" style="stroke:#000000; stroke-linecap:round; stroke-linejoin:round; stroke-width:2; stroke-opacity:0.1; fill:none" points="2881.93,1495.72 2881.93,47.2441 "/>
<polyline clip-path="url(#clip980)" style="stroke:#000000; stroke-linecap:round; stroke-linejoin:round; stroke-width:4; stroke-opacity:1; fill:none" points="450.353,1495.72 2952.76,1495.72 "/>
<polyline clip-path="url(#clip980)" style="stroke:#000000; stroke-linecap:round; stroke-linejoin:round; stroke-width:4; stroke-opacity:1; fill:none" points="510.901,1495.72 510.901,1476.82 "/>
<polyline clip-path="url(#clip980)" style="stroke:#000000; stroke-linecap:round; stroke-linejoin:round; stroke-width:4; stroke-opacity:1; fill:none" points="1301.25,1495.72 1301.25,1476.82 "/>
<polyline clip-path="url(#clip980)" style="stroke:#000000; stroke-linecap:round; stroke-linejoin:round; stroke-width:4; stroke-opacity:1; fill:none" points="2091.59,1495.72 2091.59,1476.82 "/>
<polyline clip-path="url(#clip980)" style="stroke:#000000; stroke-linecap:round; stroke-linejoin:round; stroke-width:4; stroke-opacity:1; fill:none" points="2881.93,1495.72 2881.93,1476.82 "/>
<path clip-path="url(#clip980)" d="M485.547 1578.57 Q485.547 1564.78 488.358 1556.4 Q491.222 1547.96 496.792 1543.4 Q502.414 1538.84 510.901 1538.84 Q517.16 1538.84 521.881 1541.38 Q526.602 1543.88 529.678 1548.65 Q532.754 1553.37 534.505 1560.21 Q536.255 1567 536.255 1578.57 Q536.255 1592.25 533.444 1600.69 Q530.633 1609.07 525.01 1613.68 Q519.441 1618.24 510.901 1618.24 Q499.656 1618.24 493.238 1610.18 Q485.547 1600.47 485.547 1578.57 M495.36 1578.57 Q495.36 1597.72 499.815 1604.08 Q504.324 1610.39 510.901 1610.39 Q517.478 1610.39 521.934 1604.03 Q526.442 1597.66 526.442 1578.57 Q526.442 1559.37 521.934 1553.05 Q517.478 1546.74 510.795 1546.74 Q504.218 1546.74 500.293 1552.31 Q495.36 1559.42 495.36 1578.57 Z" fill="#000000" fill-rule="nonzero" fill-opacity="1" /><path clip-path="url(#clip980)" d="M1315.57 1616.92 L1306.02 1616.92 L1306.02 1556.08 Q1302.57 1559.37 1296.95 1562.65 Q1291.38 1565.94 1286.92 1567.59 L1286.92 1558.36 Q1294.93 1554.59 1300.93 1549.23 Q1306.92 1543.88 1309.41 1538.84 L1315.57 1538.84 L1315.57 1616.92 Z" fill="#000000" fill-rule="nonzero" fill-opacity="1" /><path clip-path="url(#clip980)" d="M2117.34 1607.74 L2117.34 1616.92 L2065.94 1616.92 Q2065.84 1613.47 2067.06 1610.29 Q2069.02 1605.04 2073.32 1599.94 Q2077.67 1594.85 2085.83 1588.17 Q2098.51 1577.77 2102.97 1571.72 Q2107.42 1565.63 2107.42 1560.21 Q2107.42 1554.54 2103.34 1550.67 Q2099.31 1546.74 2092.78 1546.74 Q2085.89 1546.74 2081.75 1550.88 Q2077.61 1555.02 2077.56 1562.34 L2067.75 1561.33 Q2068.75 1550.35 2075.33 1544.62 Q2081.91 1538.84 2092.99 1538.84 Q2104.19 1538.84 2110.71 1545.04 Q2117.24 1551.25 2117.24 1560.43 Q2117.24 1565.09 2115.33 1569.6 Q2113.42 1574.11 2108.96 1579.1 Q2104.56 1584.08 2094.27 1592.78 Q2085.67 1600 2083.23 1602.6 Q2080.8 1605.14 2079.2 1607.74 L2117.34 1607.74 Z" fill="#000000" fill-rule="nonzero" fill-opacity="1" /><path clip-path="url(#clip980)" d="M2856.47 1596.39 L2866.02 1595.12 Q2867.66 1603.23 2871.59 1606.84 Q2875.57 1610.39 2881.24 1610.39 Q2887.98 1610.39 2892.59 1605.73 Q2897.26 1601.06 2897.26 1594.16 Q2897.26 1587.58 2892.97 1583.34 Q2888.67 1579.04 2882.04 1579.04 Q2879.33 1579.04 2875.3 1580.11 L2876.36 1571.72 Q2877.32 1571.83 2877.9 1571.83 Q2884 1571.83 2888.88 1568.65 Q2893.76 1565.47 2893.76 1558.84 Q2893.76 1553.58 2890.21 1550.14 Q2886.65 1546.69 2881.03 1546.69 Q2875.46 1546.69 2871.75 1550.19 Q2868.04 1553.69 2866.98 1560.69 L2857.43 1558.99 Q2859.18 1549.39 2865.38 1544.14 Q2871.59 1538.84 2880.82 1538.84 Q2887.18 1538.84 2892.54 1541.6 Q2897.9 1544.3 2900.71 1549.02 Q2903.57 1553.74 2903.57 1559.05 Q2903.57 1564.09 2900.87 1568.22 Q2898.16 1572.36 2892.86 1574.8 Q2899.76 1576.39 2903.57 1581.43 Q2907.39 1586.42 2907.39 1593.95 Q2907.39 1604.13 2899.97 1611.24 Q2892.54 1618.3 2881.19 1618.3 Q2870.95 1618.3 2864.16 1612.2 Q2857.43 1606.1 2856.47 1596.39 Z" fill="#000000" fill-rule="nonzero" fill-opacity="1" /><path clip-path="url(#clip980)" d="M1719.24 1694.34 L1729 1694.34 Q1725.29 1706.01 1722.16 1722.5 Q1725.87 1742.98 1729 1750.67 L1719.51 1750.67 Q1717.23 1745.36 1716.06 1740.38 Q1711.66 1751.94 1697.66 1751.94 Q1687.05 1751.94 1680.58 1743.99 Q1674.1 1736.03 1674.1 1722.4 Q1674.1 1708.39 1680.58 1700.76 Q1687.1 1693.07 1697.81 1693.07 Q1704.45 1693.07 1708.64 1695.77 Q1712.83 1698.42 1716.43 1703.89 Q1716.8 1702.03 1719.24 1694.34 M1699.41 1700.97 Q1692.56 1700.97 1688.59 1706.48 Q1684.61 1712 1684.61 1722.4 Q1684.61 1732.53 1688.37 1738.31 Q1692.14 1744.09 1698.88 1744.09 Q1705.45 1744.09 1709.86 1738.42 Q1714.26 1732.69 1714.26 1721.97 Q1714.26 1711.58 1710.12 1706.27 Q1706.04 1700.97 1699.41 1700.97 Z" fill="#000000" fill-rule="nonzero" fill-opacity="1" /><polyline clip-path="url(#clip982)" style="stroke:#000000; stroke-linecap:round; stroke-linejoin:round; stroke-width:2; stroke-opacity:0.1; fill:none" points="450.353,1484.23 2952.76,1484.23 "/>
<polyline clip-path="url(#clip982)" style="stroke:#000000; stroke-linecap:round; stroke-linejoin:round; stroke-width:2; stroke-opacity:0.1; fill:none" points="450.353,1207.25 2952.76,1207.25 "/>
<polyline clip-path="url(#clip982)" style="stroke:#000000; stroke-linecap:round; stroke-linejoin:round; stroke-width:2; stroke-opacity:0.1; fill:none" points="450.353,930.26 2952.76,930.26 "/>
<polyline clip-path="url(#clip982)" style="stroke:#000000; stroke-linecap:round; stroke-linejoin:round; stroke-width:2; stroke-opacity:0.1; fill:none" points="450.353,653.275 2952.76,653.275 "/>
<polyline clip-path="url(#clip982)" style="stroke:#000000; stroke-linecap:round; stroke-linejoin:round; stroke-width:2; stroke-opacity:0.1; fill:none" points="450.353,376.289 2952.76,376.289 "/>
<polyline clip-path="url(#clip982)" style="stroke:#000000; stroke-linecap:round; stroke-linejoin:round; stroke-width:2; stroke-opacity:0.1; fill:none" points="450.353,99.3043 2952.76,99.3043 "/>
<polyline clip-path="url(#clip980)" style="stroke:#000000; stroke-linecap:round; stroke-linejoin:round; stroke-width:4; stroke-opacity:1; fill:none" points="450.353,1495.72 450.353,47.2441 "/>
<polyline clip-path="url(#clip980)" style="stroke:#000000; stroke-linecap:round; stroke-linejoin:round; stroke-width:4; stroke-opacity:1; fill:none" points="450.353,1484.23 469.25,1484.23 "/>
<polyline clip-path="url(#clip980)" style="stroke:#000000; stroke-linecap:round; stroke-linejoin:round; stroke-width:4; stroke-opacity:1; fill:none" points="450.353,1207.25 469.25,1207.25 "/>
<polyline clip-path="url(#clip980)" style="stroke:#000000; stroke-linecap:round; stroke-linejoin:round; stroke-width:4; stroke-opacity:1; fill:none" points="450.353,930.26 469.25,930.26 "/>
<polyline clip-path="url(#clip980)" style="stroke:#000000; stroke-linecap:round; stroke-linejoin:round; stroke-width:4; stroke-opacity:1; fill:none" points="450.353,653.275 469.25,653.275 "/>
<polyline clip-path="url(#clip980)" style="stroke:#000000; stroke-linecap:round; stroke-linejoin:round; stroke-width:4; stroke-opacity:1; fill:none" points="450.353,376.289 469.25,376.289 "/>
<polyline clip-path="url(#clip980)" style="stroke:#000000; stroke-linecap:round; stroke-linejoin:round; stroke-width:4; stroke-opacity:1; fill:none" points="450.353,99.3043 469.25,99.3043 "/>
<path clip-path="url(#clip980)" d="M252.644 1489.22 L201.299 1489.22 L201.299 1480.31 L252.644 1480.31 L252.644 1489.22 Z" fill="#000000" fill-rule="nonzero" fill-opacity="1" /><path clip-path="url(#clip980)" d="M263.199 1502.74 L273.224 1501.89 Q274.338 1509.21 278.369 1512.93 Q282.454 1516.59 288.182 1516.59 Q295.078 1516.59 299.852 1511.39 Q304.625 1506.19 304.625 1497.6 Q304.625 1489.43 300.011 1484.71 Q295.449 1479.99 288.023 1479.99 Q283.409 1479.99 279.696 1482.11 Q275.983 1484.18 273.861 1487.52 L264.897 1486.35 L272.429 1446.41 L311.097 1446.41 L311.097 1455.53 L280.067 1455.53 L275.877 1476.43 Q282.878 1471.55 290.569 1471.55 Q300.753 1471.55 307.755 1478.61 Q314.757 1485.66 314.757 1496.75 Q314.757 1507.3 308.604 1514.99 Q301.125 1524.44 288.182 1524.44 Q277.574 1524.44 270.837 1518.5 Q264.154 1512.55 263.199 1502.74 Z" fill="#000000" fill-rule="nonzero" fill-opacity="1" /><path clip-path="url(#clip980)" d="M328.972 1523.11 L328.972 1512.24 L339.846 1512.24 L339.846 1523.11 L328.972 1523.11 Z" fill="#000000" fill-rule="nonzero" fill-opacity="1" /><path clip-path="url(#clip980)" d="M353.796 1502.74 L363.821 1501.89 Q364.935 1509.21 368.966 1512.93 Q373.05 1516.59 378.779 1516.59 Q385.674 1516.59 390.448 1511.39 Q395.222 1506.19 395.222 1497.6 Q395.222 1489.43 390.607 1484.71 Q386.045 1479.99 378.619 1479.99 Q374.005 1479.99 370.292 1482.11 Q366.579 1484.18 364.457 1487.52 L355.493 1486.35 L363.025 1446.41 L401.693 1446.41 L401.693 1455.53 L370.663 1455.53 L366.473 1476.43 Q373.474 1471.55 381.165 1471.55 Q391.35 1471.55 398.351 1478.61 Q405.353 1485.66 405.353 1496.75 Q405.353 1507.3 399.2 1514.99 Q391.721 1524.44 378.779 1524.44 Q368.17 1524.44 361.434 1518.5 Q354.75 1512.55 353.796 1502.74 Z" fill="#000000" fill-rule="nonzero" fill-opacity="1" /><path clip-path="url(#clip980)" d="M253.493 1212.23 L202.148 1212.23 L202.148 1203.32 L253.493 1203.32 L253.493 1212.23 Z" fill="#000000" fill-rule="nonzero" fill-opacity="1" /><path clip-path="url(#clip980)" d="M264.048 1225.76 L274.073 1224.91 Q275.187 1232.23 279.218 1235.94 Q283.302 1239.6 289.031 1239.6 Q295.926 1239.6 300.7 1234.4 Q305.474 1229.2 305.474 1220.61 Q305.474 1212.44 300.859 1207.72 Q296.298 1203 288.872 1203 Q284.257 1203 280.544 1205.12 Q276.831 1207.19 274.71 1210.53 L265.745 1209.37 L273.277 1169.43 L311.945 1169.43 L311.945 1178.55 L280.916 1178.55 L276.725 1199.45 Q283.727 1194.57 291.418 1194.57 Q301.602 1194.57 308.604 1201.62 Q315.605 1208.68 315.605 1219.76 Q315.605 1230.32 309.452 1238.01 Q301.973 1247.45 289.031 1247.45 Q278.423 1247.45 271.686 1241.51 Q265.003 1235.57 264.048 1225.76 Z" fill="#000000" fill-rule="nonzero" fill-opacity="1" /><path clip-path="url(#clip980)" d="M329.821 1246.13 L329.821 1235.25 L340.694 1235.25 L340.694 1246.13 L329.821 1246.13 Z" fill="#000000" fill-rule="nonzero" fill-opacity="1" /><path clip-path="url(#clip980)" d="M354.644 1207.78 Q354.644 1193.98 357.456 1185.6 Q360.32 1177.17 365.889 1172.61 Q371.512 1168.05 379.999 1168.05 Q386.258 1168.05 390.978 1170.59 Q395.699 1173.09 398.775 1177.86 Q401.852 1182.58 403.602 1189.42 Q405.353 1196.21 405.353 1207.78 Q405.353 1221.46 402.541 1229.89 Q399.73 1238.27 394.108 1242.89 Q388.538 1247.45 379.999 1247.45 Q368.754 1247.45 362.335 1239.39 Q354.644 1229.68 354.644 1207.78 M364.457 1207.78 Q364.457 1226.92 368.913 1233.29 Q373.421 1239.6 379.999 1239.6 Q386.576 1239.6 391.031 1233.24 Q395.54 1226.87 395.54 1207.78 Q395.54 1188.57 391.031 1182.26 Q386.576 1175.95 379.892 1175.95 Q373.315 1175.95 369.39 1181.52 Q364.457 1188.63 364.457 1207.78 Z" fill="#000000" fill-rule="nonzero" fill-opacity="1" /><path clip-path="url(#clip980)" d="M252.644 935.246 L201.299 935.246 L201.299 926.335 L252.644 926.335 L252.644 935.246 Z" fill="#000000" fill-rule="nonzero" fill-opacity="1" /><path clip-path="url(#clip980)" d="M293.805 969.14 L293.805 950.522 L260.07 950.522 L260.07 941.77 L295.555 891.38 L303.352 891.38 L303.352 941.77 L313.855 941.77 L313.855 950.522 L303.352 950.522 L303.352 969.14 L293.805 969.14 M293.805 941.77 L293.805 906.709 L269.458 941.77 L293.805 941.77 Z" fill="#000000" fill-rule="nonzero" fill-opacity="1" /><path clip-path="url(#clip980)" d="M328.972 969.14 L328.972 958.266 L339.846 958.266 L339.846 969.14 L328.972 969.14 Z" fill="#000000" fill-rule="nonzero" fill-opacity="1" /><path clip-path="url(#clip980)" d="M353.796 948.772 L363.821 947.923 Q364.935 955.243 368.966 958.956 Q373.05 962.616 378.779 962.616 Q385.674 962.616 390.448 957.418 Q395.222 952.219 395.222 943.627 Q395.222 935.458 390.607 930.737 Q386.045 926.017 378.619 926.017 Q374.005 926.017 370.292 928.138 Q366.579 930.207 364.457 933.549 L355.493 932.382 L363.025 892.441 L401.693 892.441 L401.693 901.564 L370.663 901.564 L366.473 922.463 Q373.474 917.583 381.165 917.583 Q391.35 917.583 398.351 924.637 Q405.353 931.692 405.353 942.778 Q405.353 953.333 399.2 961.024 Q391.721 970.466 378.779 970.466 Q368.17 970.466 361.434 964.525 Q354.75 958.585 353.796 948.772 Z" fill="#000000" fill-rule="nonzero" fill-opacity="1" /><path clip-path="url(#clip980)" d="M253.493 658.261 L202.148 658.261 L202.148 649.35 L253.493 649.35 L253.493 658.261 Z" fill="#000000" fill-rule="nonzero" fill-opacity="1" /><path clip-path="url(#clip980)" d="M294.653 692.155 L294.653 673.537 L260.919 673.537 L260.919 664.785 L296.404 614.395 L304.201 614.395 L304.201 664.785 L314.703 664.785 L314.703 673.537 L304.201 673.537 L304.201 692.155 L294.653 692.155 M294.653 664.785 L294.653 629.724 L270.307 664.785 L294.653 664.785 Z" fill="#000000" fill-rule="nonzero" fill-opacity="1" /><path clip-path="url(#clip980)" d="M329.821 692.155 L329.821 681.281 L340.694 681.281 L340.694 692.155 L329.821 692.155 Z" fill="#000000" fill-rule="nonzero" fill-opacity="1" /><path clip-path="url(#clip980)" d="M354.644 653.805 Q354.644 640.014 357.456 631.633 Q360.32 623.2 365.889 618.638 Q371.512 614.076 379.999 614.076 Q386.258 614.076 390.978 616.622 Q395.699 619.115 398.775 623.889 Q401.852 628.61 403.602 635.453 Q405.353 642.242 405.353 653.805 Q405.353 667.49 402.541 675.924 Q399.73 684.304 394.108 688.919 Q388.538 693.481 379.999 693.481 Q368.754 693.481 362.335 685.418 Q354.644 675.712 354.644 653.805 M364.457 653.805 Q364.457 672.953 368.913 679.318 Q373.421 685.631 379.999 685.631 Q386.576 685.631 391.031 679.265 Q395.54 672.9 395.54 653.805 Q395.54 634.604 391.031 628.292 Q386.576 621.98 379.892 621.98 Q373.315 621.98 369.39 627.549 Q364.457 634.657 364.457 653.805 Z" fill="#000000" fill-rule="nonzero" fill-opacity="1" /><path clip-path="url(#clip980)" d="M252.644 381.275 L201.299 381.275 L201.299 372.364 L252.644 372.364 L252.644 381.275 Z" fill="#000000" fill-rule="nonzero" fill-opacity="1" /><path clip-path="url(#clip980)" d="M263.252 394.642 L272.8 393.369 Q274.444 401.485 278.369 405.091 Q282.348 408.645 288.023 408.645 Q294.76 408.645 299.374 403.978 Q304.042 399.31 304.042 392.414 Q304.042 385.837 299.746 381.594 Q295.449 377.297 288.819 377.297 Q286.114 377.297 282.082 378.358 L283.143 369.977 Q284.098 370.084 284.682 370.084 Q290.781 370.084 295.661 366.901 Q300.541 363.718 300.541 357.088 Q300.541 351.837 296.987 348.389 Q293.434 344.941 287.811 344.941 Q282.242 344.941 278.529 348.442 Q274.816 351.943 273.755 358.945 L264.207 357.247 Q265.958 347.647 272.164 342.395 Q278.369 337.091 287.599 337.091 Q293.964 337.091 299.321 339.849 Q304.678 342.555 307.49 347.275 Q310.354 351.996 310.354 357.3 Q310.354 362.339 307.649 366.477 Q304.944 370.614 299.639 373.054 Q306.535 374.645 310.354 379.684 Q314.173 384.67 314.173 392.202 Q314.173 402.386 306.747 409.494 Q299.321 416.549 287.97 416.549 Q277.733 416.549 270.944 410.449 Q264.207 404.349 263.252 394.642 Z" fill="#000000" fill-rule="nonzero" fill-opacity="1" /><path clip-path="url(#clip980)" d="M328.972 415.169 L328.972 404.296 L339.846 404.296 L339.846 415.169 L328.972 415.169 Z" fill="#000000" fill-rule="nonzero" fill-opacity="1" /><path clip-path="url(#clip980)" d="M353.796 394.801 L363.821 393.953 Q364.935 401.272 368.966 404.985 Q373.05 408.645 378.779 408.645 Q385.674 408.645 390.448 403.447 Q395.222 398.249 395.222 389.656 Q395.222 381.488 390.607 376.767 Q386.045 372.046 378.619 372.046 Q374.005 372.046 370.292 374.168 Q366.579 376.236 364.457 379.578 L355.493 378.411 L363.025 338.47 L401.693 338.47 L401.693 347.594 L370.663 347.594 L366.473 368.492 Q373.474 363.612 381.165 363.612 Q391.35 363.612 398.351 370.667 Q405.353 377.722 405.353 388.807 Q405.353 399.363 399.2 407.054 Q391.721 416.496 378.779 416.496 Q368.17 416.496 361.434 410.555 Q354.75 404.614 353.796 394.801 Z" fill="#000000" fill-rule="nonzero" fill-opacity="1" /><path clip-path="url(#clip980)" d="M253.493 104.29 L202.148 104.29 L202.148 95.3791 L253.493 95.3791 L253.493 104.29 Z" fill="#000000" fill-rule="nonzero" fill-opacity="1" /><path clip-path="url(#clip980)" d="M264.101 117.657 L273.649 116.384 Q275.293 124.499 279.218 128.106 Q283.196 131.66 288.872 131.66 Q295.608 131.66 300.223 126.992 Q304.891 122.325 304.891 115.429 Q304.891 108.852 300.594 104.608 Q296.298 100.312 289.668 100.312 Q286.962 100.312 282.931 101.373 L283.992 92.9922 Q284.947 93.0983 285.53 93.0983 Q291.63 93.0983 296.51 89.9158 Q301.39 86.7332 301.39 80.103 Q301.39 74.8518 297.836 71.404 Q294.282 67.9563 288.66 67.9563 Q283.09 67.9563 279.377 71.4571 Q275.664 74.9578 274.603 81.9594 L265.056 80.2621 Q266.806 70.6614 273.012 65.4102 Q279.218 60.106 288.448 60.106 Q294.813 60.106 300.17 62.8642 Q305.527 65.5694 308.338 70.2901 Q311.203 75.0109 311.203 80.3151 Q311.203 85.3541 308.498 89.4914 Q305.792 93.6287 300.488 96.0687 Q307.384 97.6599 311.203 102.699 Q315.022 107.685 315.022 115.217 Q315.022 125.401 307.596 132.509 Q300.17 139.563 288.819 139.563 Q278.582 139.563 271.792 133.463 Q265.056 127.364 264.101 117.657 Z" fill="#000000" fill-rule="nonzero" fill-opacity="1" /><path clip-path="url(#clip980)" d="M329.821 138.184 L329.821 127.311 L340.694 127.311 L340.694 138.184 L329.821 138.184 Z" fill="#000000" fill-rule="nonzero" fill-opacity="1" /><path clip-path="url(#clip980)" d="M354.644 99.8347 Q354.644 86.0437 357.456 77.663 Q360.32 69.2293 365.889 64.6676 Q371.512 60.106 379.999 60.106 Q386.258 60.106 390.978 62.652 Q395.699 65.145 398.775 69.9188 Q401.852 74.6396 403.602 81.4821 Q405.353 88.2715 405.353 99.8347 Q405.353 113.52 402.541 121.953 Q399.73 130.334 394.108 134.949 Q388.538 139.51 379.999 139.51 Q368.754 139.51 362.335 131.448 Q354.644 121.741 354.644 99.8347 M364.457 99.8347 Q364.457 118.983 368.913 125.348 Q373.421 131.66 379.999 131.66 Q386.576 131.66 391.031 125.295 Q395.54 118.93 395.54 99.8347 Q395.54 80.6334 391.031 74.3213 Q386.576 68.0093 379.892 68.0093 Q373.315 68.0093 369.39 73.5787 Q364.457 80.6864 364.457 99.8347 Z" fill="#000000" fill-rule="nonzero" fill-opacity="1" /><path clip-path="url(#clip980)" d="M132.971 1067.35 L55.211 1067.35 L55.211 1051.86 L110.269 1033.46 Q117.96 1030.91 121.779 1029.74 Q117.536 1028.42 109.314 1025.61 L55.211 1006.99 L55.211 993.144 L132.971 993.144 L132.971 1003.06 L67.8882 1003.06 L132.971 1025.66 L132.971 1034.94 L66.7743 1057.43 L132.971 1057.43 L132.971 1067.35 Z" fill="#000000" fill-rule="nonzero" fill-opacity="1" /><path clip-path="url(#clip980)" d="M107.988 980.043 L107.139 970.336 Q112.974 969.647 116.74 967.154 Q120.453 964.608 122.787 959.303 Q125.068 953.999 125.068 947.369 Q125.068 941.481 123.317 936.972 Q121.567 932.464 118.544 930.289 Q115.467 928.061 111.86 928.061 Q108.2 928.061 105.495 930.183 Q102.737 932.305 100.88 937.185 Q99.6605 940.314 97.1145 951.029 Q94.5154 961.743 92.2346 966.04 Q89.3172 971.609 85.0208 974.367 Q80.6713 977.072 75.3141 977.072 Q69.4264 977.072 64.3343 973.731 Q59.1892 970.389 56.5371 963.971 Q53.885 957.553 53.885 949.703 Q53.885 941.057 56.6962 934.479 Q59.4544 927.849 64.8647 924.295 Q70.2751 920.742 77.1175 920.476 L77.8601 930.342 Q70.4872 931.138 66.7212 935.753 Q62.9552 940.314 62.9552 949.278 Q62.9552 958.614 66.403 962.91 Q69.7977 967.154 74.6245 967.154 Q78.8149 967.154 81.52 964.13 Q84.2252 961.16 87.0895 948.642 Q89.9007 936.071 92.0224 931.403 Q95.1519 924.614 99.9787 921.378 Q104.753 918.142 111.012 918.142 Q117.217 918.142 122.734 921.696 Q128.197 925.25 131.274 931.933 Q134.297 938.564 134.297 946.891 Q134.297 957.447 131.221 964.608 Q128.144 971.715 121.991 975.799 Q115.785 979.831 107.988 980.043 Z" fill="#000000" fill-rule="nonzero" fill-opacity="1" /><path clip-path="url(#clip980)" d="M132.971 903.874 L55.211 903.874 L55.211 847.649 L64.3874 847.649 L64.3874 893.584 L88.2033 893.584 L88.2033 850.567 L97.3266 850.567 L97.3266 893.584 L123.795 893.584 L123.795 845.846 L132.971 845.846 L132.971 903.874 Z" fill="#000000" fill-rule="nonzero" fill-opacity="1" /><path clip-path="url(#clip980)" d="M155.832 784.423 Q145.86 792.326 132.494 797.79 Q119.127 803.253 104.806 803.253 Q92.1815 803.253 80.6183 799.169 Q67.1986 794.395 53.885 784.423 L53.885 777.58 Q64.9178 783.999 69.6385 786.067 Q76.9584 789.303 84.9147 791.159 Q94.8336 793.44 104.859 793.44 Q130.372 793.44 155.832 777.58 L155.832 784.423 Z" fill="#000000" fill-rule="nonzero" fill-opacity="1" /><path clip-path="url(#clip980)" d="M132.971 766.707 L55.211 766.707 L55.211 757.159 L132.971 757.159 L132.971 766.707 Z" fill="#000000" fill-rule="nonzero" fill-opacity="1" /><path clip-path="url(#clip980)" d="M104.806 745.914 Q89.1581 745.914 81.6261 737.215 Q75.3671 729.948 75.3671 719.499 Q75.3671 707.883 83.0052 700.51 Q90.5903 693.137 104.01 693.137 Q114.884 693.137 121.143 696.426 Q127.349 699.661 130.796 705.92 Q134.244 712.126 134.244 719.499 Q134.244 731.328 126.659 738.647 Q119.074 745.914 104.806 745.914 M104.806 736.101 Q115.626 736.101 121.037 731.381 Q126.394 726.66 126.394 719.499 Q126.394 712.391 120.983 707.671 Q115.573 702.95 104.487 702.95 Q94.038 702.95 88.6807 707.724 Q83.2704 712.444 83.2704 719.499 Q83.2704 726.66 88.6277 731.381 Q93.985 736.101 104.806 736.101 Z" fill="#000000" fill-rule="nonzero" fill-opacity="1" /><path clip-path="url(#clip980)" d="M137.639 683.696 L139.018 674.413 Q143.314 673.83 145.277 671.178 Q147.929 667.624 147.929 661.471 Q147.929 654.841 145.277 651.234 Q142.625 647.627 137.851 646.354 Q134.934 645.611 125.598 645.664 Q132.971 651.923 132.971 661.259 Q132.971 672.875 124.59 679.24 Q116.21 685.605 104.487 685.605 Q96.4249 685.605 89.6355 682.688 Q82.793 679.77 79.0801 674.254 Q75.3671 668.685 75.3671 661.206 Q75.3671 651.234 83.4295 644.762 L76.6401 644.762 L76.6401 635.957 L125.333 635.957 Q138.487 635.957 143.951 638.663 Q149.467 641.315 152.65 647.149 Q155.832 652.931 155.832 661.418 Q155.832 671.496 151.271 677.702 Q146.762 683.908 137.639 683.696 M103.798 675.792 Q114.884 675.792 119.976 671.39 Q125.068 666.987 125.068 660.357 Q125.068 653.78 120.029 649.324 Q114.937 644.869 104.116 644.869 Q93.7728 644.869 88.5216 649.483 Q83.2704 654.045 83.2704 660.516 Q83.2704 666.881 88.4686 671.337 Q93.6137 675.792 103.798 675.792 Z" fill="#000000" fill-rule="nonzero" fill-opacity="1" /><path clip-path="url(#clip980)" d="M132.971 588.219 L132.971 597.767 L72.1315 597.767 Q75.4202 601.215 78.7088 606.837 Q81.9974 612.407 83.6417 616.862 L74.4124 616.862 Q70.6464 608.853 65.2891 602.859 Q59.9318 596.865 54.8928 594.372 L54.8928 588.219 L132.971 588.219 Z" fill="#000000" fill-rule="nonzero" fill-opacity="1" /><path clip-path="url(#clip980)" d="M94.6215 563.767 Q80.8305 563.767 72.4498 560.956 Q64.0161 558.091 59.4544 552.522 Q54.8928 546.899 54.8928 538.413 Q54.8928 532.154 57.4388 527.433 Q59.9318 522.712 64.7056 519.636 Q69.4264 516.559 76.2688 514.809 Q83.0582 513.058 94.6215 513.058 Q108.306 513.058 116.74 515.87 Q125.121 518.681 129.735 524.303 Q134.297 529.873 134.297 538.413 Q134.297 549.658 126.235 556.076 Q116.528 563.767 94.6215 563.767 M94.6215 553.954 Q113.77 553.954 120.135 549.499 Q126.447 544.99 126.447 538.413 Q126.447 531.835 120.082 527.38 Q113.717 522.871 94.6215 522.871 Q75.4202 522.871 69.1081 527.38 Q62.7961 531.835 62.7961 538.519 Q62.7961 545.096 68.3655 549.021 Q75.4732 553.954 94.6215 553.954 Z" fill="#000000" fill-rule="nonzero" fill-opacity="1" /><path clip-path="url(#clip980)" d="M155.832 494.441 L155.832 501.283 Q130.372 485.423 104.859 485.423 Q94.8867 485.423 85.0739 487.704 Q77.1175 489.508 69.7977 492.743 Q65.0239 494.812 53.885 501.283 L53.885 494.441 Q67.1986 484.469 80.6183 479.695 Q92.1815 475.611 104.806 475.611 Q119.127 475.611 132.494 481.127 Q145.86 486.59 155.832 494.441 Z" fill="#000000" fill-rule="nonzero" fill-opacity="1" /><circle clip-path="url(#clip982)" cx="521.175" cy="560.79" r="10.8" fill="#0000ff" fill-rule="evenodd" fill-opacity="1" stroke="none"/>
<circle clip-path="url(#clip982)" cx="569.354" cy="688.986" r="10.8" fill="#0000ff" fill-rule="evenodd" fill-opacity="1" stroke="none"/>
<circle clip-path="url(#clip982)" cx="617.533" cy="1007.54" r="10.8" fill="#0000ff" fill-rule="evenodd" fill-opacity="1" stroke="none"/>
<circle clip-path="url(#clip982)" cx="665.712" cy="769.734" r="10.8" fill="#0000ff" fill-rule="evenodd" fill-opacity="1" stroke="none"/>
<circle clip-path="url(#clip982)" cx="713.89" cy="1042.9" r="10.8" fill="#0000ff" fill-rule="evenodd" fill-opacity="1" stroke="none"/>
<circle clip-path="url(#clip982)" cx="762.069" cy="1288.06" r="10.8" fill="#0000ff" fill-rule="evenodd" fill-opacity="1" stroke="none"/>
<circle clip-path="url(#clip982)" cx="810.248" cy="289.663" r="10.8" fill="#0000ff" fill-rule="evenodd" fill-opacity="1" stroke="none"/>
<circle clip-path="url(#clip982)" cx="858.427" cy="1191.19" r="10.8" fill="#0000ff" fill-rule="evenodd" fill-opacity="1" stroke="none"/>
<circle clip-path="url(#clip982)" cx="906.605" cy="429.978" r="10.8" fill="#0000ff" fill-rule="evenodd" fill-opacity="1" stroke="none"/>
<circle clip-path="url(#clip982)" cx="954.784" cy="326.466" r="10.8" fill="#0000ff" fill-rule="evenodd" fill-opacity="1" stroke="none"/>
<circle clip-path="url(#clip982)" cx="1002.96" cy="1262.84" r="10.8" fill="#0000ff" fill-rule="evenodd" fill-opacity="1" stroke="none"/>
<circle clip-path="url(#clip982)" cx="1051.14" cy="1252.69" r="10.8" fill="#0000ff" fill-rule="evenodd" fill-opacity="1" stroke="none"/>
<circle clip-path="url(#clip982)" cx="1099.32" cy="566.531" r="10.8" fill="#0000ff" fill-rule="evenodd" fill-opacity="1" stroke="none"/>
<circle clip-path="url(#clip982)" cx="1147.5" cy="879.763" r="10.8" fill="#0000ff" fill-rule="evenodd" fill-opacity="1" stroke="none"/>
<circle clip-path="url(#clip982)" cx="1195.68" cy="1033.06" r="10.8" fill="#0000ff" fill-rule="evenodd" fill-opacity="1" stroke="none"/>
<circle clip-path="url(#clip982)" cx="1243.86" cy="888.404" r="10.8" fill="#0000ff" fill-rule="evenodd" fill-opacity="1" stroke="none"/>
<circle clip-path="url(#clip982)" cx="1292.04" cy="949.628" r="10.8" fill="#0000ff" fill-rule="evenodd" fill-opacity="1" stroke="none"/>
<circle clip-path="url(#clip982)" cx="1340.21" cy="1023" r="10.8" fill="#0000ff" fill-rule="evenodd" fill-opacity="1" stroke="none"/>
<circle clip-path="url(#clip982)" cx="1388.39" cy="694.924" r="10.8" fill="#0000ff" fill-rule="evenodd" fill-opacity="1" stroke="none"/>
<circle clip-path="url(#clip982)" cx="1436.57" cy="342.895" r="10.8" fill="#0000ff" fill-rule="evenodd" fill-opacity="1" stroke="none"/>
<circle clip-path="url(#clip982)" cx="1484.75" cy="105.021" r="10.8" fill="#0000ff" fill-rule="evenodd" fill-opacity="1" stroke="none"/>
<circle clip-path="url(#clip982)" cx="1532.93" cy="1121.86" r="10.8" fill="#0000ff" fill-rule="evenodd" fill-opacity="1" stroke="none"/>
<circle clip-path="url(#clip982)" cx="1581.11" cy="254.321" r="10.8" fill="#0000ff" fill-rule="evenodd" fill-opacity="1" stroke="none"/>
<circle clip-path="url(#clip982)" cx="1629.29" cy="977.832" r="10.8" fill="#0000ff" fill-rule="evenodd" fill-opacity="1" stroke="none"/>
<circle clip-path="url(#clip982)" cx="1677.46" cy="704.607" r="10.8" fill="#0000ff" fill-rule="evenodd" fill-opacity="1" stroke="none"/>
<circle clip-path="url(#clip982)" cx="1725.64" cy="88.2386" r="10.8" fill="#0000ff" fill-rule="evenodd" fill-opacity="1" stroke="none"/>
<circle clip-path="url(#clip982)" cx="1773.82" cy="1454.72" r="10.8" fill="#0000ff" fill-rule="evenodd" fill-opacity="1" stroke="none"/>
<circle clip-path="url(#clip982)" cx="1822" cy="355.923" r="10.8" fill="#0000ff" fill-rule="evenodd" fill-opacity="1" stroke="none"/>
<circle clip-path="url(#clip982)" cx="1870.18" cy="231.425" r="10.8" fill="#0000ff" fill-rule="evenodd" fill-opacity="1" stroke="none"/>
<circle clip-path="url(#clip982)" cx="1918.36" cy="546.824" r="10.8" fill="#0000ff" fill-rule="evenodd" fill-opacity="1" stroke="none"/>
<circle clip-path="url(#clip982)" cx="1966.54" cy="488.022" r="10.8" fill="#0000ff" fill-rule="evenodd" fill-opacity="1" stroke="none"/>
<circle clip-path="url(#clip982)" cx="2014.72" cy="597.124" r="10.8" fill="#0000ff" fill-rule="evenodd" fill-opacity="1" stroke="none"/>
<circle clip-path="url(#clip982)" cx="2062.89" cy="586.853" r="10.8" fill="#0000ff" fill-rule="evenodd" fill-opacity="1" stroke="none"/>
<circle clip-path="url(#clip982)" cx="2111.07" cy="594.19" r="10.8" fill="#0000ff" fill-rule="evenodd" fill-opacity="1" stroke="none"/>
<circle clip-path="url(#clip982)" cx="2159.25" cy="657.472" r="10.8" fill="#0000ff" fill-rule="evenodd" fill-opacity="1" stroke="none"/>
<circle clip-path="url(#clip982)" cx="2207.43" cy="948.6" r="10.8" fill="#0000ff" fill-rule="evenodd" fill-opacity="1" stroke="none"/>
<circle clip-path="url(#clip982)" cx="2255.61" cy="786.3" r="10.8" fill="#0000ff" fill-rule="evenodd" fill-opacity="1" stroke="none"/>
<circle clip-path="url(#clip982)" cx="2303.79" cy="608.667" r="10.8" fill="#0000ff" fill-rule="evenodd" fill-opacity="1" stroke="none"/>
<circle clip-path="url(#clip982)" cx="2351.97" cy="343.408" r="10.8" fill="#0000ff" fill-rule="evenodd" fill-opacity="1" stroke="none"/>
<circle clip-path="url(#clip982)" cx="2400.15" cy="1295.11" r="10.8" fill="#0000ff" fill-rule="evenodd" fill-opacity="1" stroke="none"/>
<circle clip-path="url(#clip982)" cx="2448.32" cy="768.254" r="10.8" fill="#0000ff" fill-rule="evenodd" fill-opacity="1" stroke="none"/>
<circle clip-path="url(#clip982)" cx="2496.5" cy="1351.73" r="10.8" fill="#0000ff" fill-rule="evenodd" fill-opacity="1" stroke="none"/>
<circle clip-path="url(#clip982)" cx="2544.68" cy="1230.92" r="10.8" fill="#0000ff" fill-rule="evenodd" fill-opacity="1" stroke="none"/>
<circle clip-path="url(#clip982)" cx="2592.86" cy="1005.61" r="10.8" fill="#0000ff" fill-rule="evenodd" fill-opacity="1" stroke="none"/>
<circle clip-path="url(#clip982)" cx="2641.04" cy="790.159" r="10.8" fill="#0000ff" fill-rule="evenodd" fill-opacity="1" stroke="none"/>
<circle clip-path="url(#clip982)" cx="2689.22" cy="945.843" r="10.8" fill="#0000ff" fill-rule="evenodd" fill-opacity="1" stroke="none"/>
<circle clip-path="url(#clip982)" cx="2737.4" cy="670.651" r="10.8" fill="#0000ff" fill-rule="evenodd" fill-opacity="1" stroke="none"/>
<circle clip-path="url(#clip982)" cx="2785.58" cy="1001.81" r="10.8" fill="#0000ff" fill-rule="evenodd" fill-opacity="1" stroke="none"/>
<circle clip-path="url(#clip982)" cx="2833.75" cy="306.654" r="10.8" fill="#0000ff" fill-rule="evenodd" fill-opacity="1" stroke="none"/>
<circle clip-path="url(#clip982)" cx="2881.93" cy="1372.06" r="10.8" fill="#0000ff" fill-rule="evenodd" fill-opacity="1" stroke="none"/>
</svg>
