<?xml version="1.0" encoding="utf-8"?>
<svg xmlns="http://www.w3.org/2000/svg" xmlns:xlink="http://www.w3.org/1999/xlink" width="750" height="450" viewBox="0 0 3000 1800">
<defs>
  <clipPath id="clip100">
    <rect x="0" y="0" width="3000" height="1800"/>
  </clipPath>
</defs>
<path clip-path="url(#clip100)" d="M0 1800 L3000 1800 L3000 0 L0 0  Z" fill="#ffffff" fill-rule="evenodd" fill-opacity="1"/>
<defs>
  <clipPath id="clip101">
    <rect x="600" y="0" width="2101" height="1800"/>
  </clipPath>
</defs>
<path clip-path="url(#clip100)" d="M423.142 1495.72 L2952.76 1495.72 L2952.76 47.2441 L423.142 47.2441  Z" fill="#ffffff" fill-rule="evenodd" fill-opacity="1"/>
<defs>
  <clipPath id="clip102">
    <rect x="423" y="47" width="2531" height="1449"/>
  </clipPath>
</defs>
<polyline clip-path="url(#clip102)" style="stroke:#000000; stroke-linecap:round; stroke-linejoin:round; stroke-width:2; stroke-opacity:0.1; fill:none" points="484.349,1495.72 484.349,47.2441 "/>
<polyline clip-path="url(#clip102)" style="stroke:#000000; stroke-linecap:round; stroke-linejoin:round; stroke-width:2; stroke-opacity:0.1; fill:none" points="1283.29,1495.72 1283.29,47.2441 "/>
<polyline clip-path="url(#clip102)" style="stroke:#000000; stroke-linecap:round; stroke-linejoin:round; stroke-width:2; stroke-opacity:0.1; fill:none" points="2082.22,1495.72 2082.22,47.2441 "/>
<polyline clip-path="url(#clip102)" style="stroke:#000000; stroke-linecap:round; stroke-linejoin:round; stroke-width:2; stroke-opacity:0.1; fill:none" points="2881.16,1495.72 2881.16,47.2441 "/>
<polyline clip-path="url(#clip100)" style="stroke:#000000; stroke-linecap:round; stroke-linejoin:round; stroke-width:4; stroke-opacity:1; fill:none" points="423.142,1495.72 2952.76,1495.72 "/>
<polyline clip-path="url(#clip100)" style="stroke:#000000; stroke-linecap:round; stroke-linejoin:round; stroke-width:4; stroke-opacity:1; fill:none" points="484.349,1495.72 484.349,1476.82 "/>
<polyline clip-path="url(#clip100)" style="stroke:#000000; stroke-linecap:round; stroke-linejoin:round; stroke-width:4; stroke-opacity:1; fill:none" points="1283.29,1495.72 1283.29,1476.82 "/>
<polyline clip-path="url(#clip100)" style="stroke:#000000; stroke-linecap:round; stroke-linejoin:round; stroke-width:4; stroke-opacity:1; fill:none" points="2082.22,1495.72 2082.22,1476.82 "/>
<polyline clip-path="url(#clip100)" style="stroke:#000000; stroke-linecap:round; stroke-linejoin:round; stroke-width:4; stroke-opacity:1; fill:none" points="2881.16,1495.72 2881.16,1476.82 "/>
<path clip-path="url(#clip100)" d="M458.994 1578.57 Q458.994 1564.78 461.806 1556.4 Q464.67 1547.96 470.239 1543.4 Q475.862 1538.84 484.349 1538.84 Q490.608 1538.84 495.328 1541.38 Q500.049 1543.88 503.126 1548.65 Q506.202 1553.37 507.953 1560.21 Q509.703 1567 509.703 1578.57 Q509.703 1592.25 506.892 1600.69 Q504.08 1609.07 498.458 1613.68 Q492.889 1618.24 484.349 1618.24 Q473.104 1618.24 466.686 1610.18 Q458.994 1600.47 458.994 1578.57 M468.807 1578.57 Q468.807 1597.72 473.263 1604.08 Q477.771 1610.39 484.349 1610.39 Q490.926 1610.39 495.381 1604.03 Q499.89 1597.66 499.89 1578.57 Q499.89 1559.37 495.381 1553.05 Q490.926 1546.74 484.243 1546.74 Q477.665 1546.74 473.74 1552.31 Q468.807 1559.42 468.807 1578.57 Z" fill="#000000" fill-rule="nonzero" fill-opacity="1" /><path clip-path="url(#clip100)" d="M1297.61 1616.92 L1288.06 1616.92 L1288.06 1556.08 Q1284.61 1559.37 1278.99 1562.65 Q1273.42 1565.94 1268.97 1567.59 L1268.97 1558.36 Q1276.97 1554.59 1282.97 1549.23 Q1288.96 1543.88 1291.46 1538.84 L1297.61 1538.84 L1297.61 1616.92 Z" fill="#000000" fill-rule="nonzero" fill-opacity="1" /><path clip-path="url(#clip100)" d="M2107.98 1607.74 L2107.98 1616.92 L2056.58 1616.92 Q2056.47 1613.47 2057.69 1610.29 Q2059.66 1605.04 2063.95 1599.94 Q2068.3 1594.85 2076.47 1588.17 Q2089.15 1577.77 2093.6 1571.72 Q2098.06 1565.63 2098.06 1560.21 Q2098.06 1554.54 2093.97 1550.67 Q2089.94 1546.74 2083.42 1546.74 Q2076.52 1546.74 2072.39 1550.88 Q2068.25 1555.02 2068.2 1562.34 L2058.38 1561.33 Q2059.39 1550.35 2065.97 1544.62 Q2072.54 1538.84 2083.63 1538.84 Q2094.82 1538.84 2101.35 1545.04 Q2107.87 1551.25 2107.87 1560.43 Q2107.87 1565.09 2105.96 1569.6 Q2104.05 1574.11 2099.6 1579.1 Q2095.19 1584.08 2084.9 1592.78 Q2076.31 1600 2073.87 1602.6 Q2071.43 1605.14 2069.84 1607.74 L2107.98 1607.74 Z" fill="#000000" fill-rule="nonzero" fill-opacity="1" /><path clip-path="url(#clip100)" d="M2855.7 1596.39 L2865.25 1595.12 Q2866.89 1603.23 2870.82 1606.84 Q2874.8 1610.39 2880.47 1610.39 Q2887.21 1610.39 2891.82 1605.73 Q2896.49 1601.06 2896.49 1594.16 Q2896.49 1587.58 2892.2 1583.34 Q2887.9 1579.04 2881.27 1579.04 Q2878.56 1579.04 2874.53 1580.11 L2875.59 1571.72 Q2876.55 1571.83 2877.13 1571.83 Q2883.23 1571.83 2888.11 1568.65 Q2892.99 1565.47 2892.99 1558.84 Q2892.99 1553.58 2889.44 1550.14 Q2885.88 1546.69 2880.26 1546.69 Q2874.69 1546.69 2870.98 1550.19 Q2867.27 1553.69 2866.21 1560.69 L2856.66 1558.99 Q2858.41 1549.39 2864.61 1544.14 Q2870.82 1538.84 2880.05 1538.84 Q2886.41 1538.84 2891.77 1541.6 Q2897.13 1544.3 2899.94 1549.02 Q2902.8 1553.74 2902.8 1559.05 Q2902.8 1564.09 2900.1 1568.22 Q2897.39 1572.36 2892.09 1574.8 Q2898.99 1576.39 2902.8 1581.43 Q2906.62 1586.42 2906.62 1593.95 Q2906.62 1604.13 2899.2 1611.24 Q2891.77 1618.3 2880.42 1618.3 Q2870.18 1618.3 2863.39 1612.2 Q2856.66 1606.1 2855.7 1596.39 Z" fill="#000000" fill-rule="nonzero" fill-opacity="1" /><path clip-path="url(#clip100)" d="M1705.64 1694.34 L1715.4 1694.34 Q1711.69 1706.01 1708.56 1722.5 Q1712.27 1742.98 1715.4 1750.67 L1705.9 1750.67 Q1703.62 1745.36 1702.46 1740.38 Q1698.05 1751.94 1684.05 1751.94 Q1673.44 1751.94 1666.97 1743.99 Q1660.5 1736.03 1660.5 1722.4 Q1660.5 1708.39 1666.97 1700.76 Q1673.49 1693.07 1684.21 1693.07 Q1690.84 1693.07 1695.03 1695.77 Q1699.22 1698.42 1702.83 1703.89 Q1703.2 1702.03 1705.64 1694.34 M1685.8 1700.97 Q1678.96 1700.97 1674.98 1706.48 Q1671 1712 1671 1722.4 Q1671 1732.53 1674.77 1738.31 Q1678.53 1744.09 1685.27 1744.09 Q1691.85 1744.09 1696.25 1738.42 Q1700.65 1732.69 1700.65 1721.97 Q1700.65 1711.58 1696.52 1706.27 Q1692.43 1700.97 1685.8 1700.97 Z" fill="#000000" fill-rule="nonzero" fill-opacity="1" /><polyline clip-path="url(#clip102)" style="stroke:#000000; stroke-linecap:round; stroke-linejoin:round; stroke-width:2; stroke-opacity:0.1; fill:none" points="423.142,1316.62 2952.76,1316.62 "/>
<polyline clip-path="url(#clip102)" style="stroke:#000000; stroke-linecap:round; stroke-linejoin:round; stroke-width:2; stroke-opacity:0.1; fill:none" points="423.142,1075.8 2952.76,1075.8 "/>
<polyline clip-path="url(#clip102)" style="stroke:#000000; stroke-linecap:round; stroke-linejoin:round; stroke-width:2; stroke-opacity:0.1; fill:none" points="423.142,834.981 2952.76,834.981 "/>
<polyline clip-path="url(#clip102)" style="stroke:#000000; stroke-linecap:round; stroke-linejoin:round; stroke-width:2; stroke-opacity:0.1; fill:none" points="423.142,594.162 2952.76,594.162 "/>
<polyline clip-path="url(#clip102)" style="stroke:#000000; stroke-linecap:round; stroke-linejoin:round; stroke-width:2; stroke-opacity:0.1; fill:none" points="423.142,353.343 2952.76,353.343 "/>
<polyline clip-path="url(#clip102)" style="stroke:#000000; stroke-linecap:round; stroke-linejoin:round; stroke-width:2; stroke-opacity:0.1; fill:none" points="423.142,112.524 2952.76,112.524 "/>
<polyline clip-path="url(#clip100)" style="stroke:#000000; stroke-linecap:round; stroke-linejoin:round; stroke-width:4; stroke-opacity:1; fill:none" points="423.142,1495.72 423.142,47.2441 "/>
<polyline clip-path="url(#clip100)" style="stroke:#000000; stroke-linecap:round; stroke-linejoin:round; stroke-width:4; stroke-opacity:1; fill:none" points="423.142,1316.62 442.04,1316.62 "/>
<polyline clip-path="url(#clip100)" style="stroke:#000000; stroke-linecap:round; stroke-linejoin:round; stroke-width:4; stroke-opacity:1; fill:none" points="423.142,1075.8 442.04,1075.8 "/>
<polyline clip-path="url(#clip100)" style="stroke:#000000; stroke-linecap:round; stroke-linejoin:round; stroke-width:4; stroke-opacity:1; fill:none" points="423.142,834.981 442.04,834.981 "/>
<polyline clip-path="url(#clip100)" style="stroke:#000000; stroke-linecap:round; stroke-linejoin:round; stroke-width:4; stroke-opacity:1; fill:none" points="423.142,594.162 442.04,594.162 "/>
<polyline clip-path="url(#clip100)" style="stroke:#000000; stroke-linecap:round; stroke-linejoin:round; stroke-width:4; stroke-opacity:1; fill:none" points="423.142,353.343 442.04,353.343 "/>
<polyline clip-path="url(#clip100)" style="stroke:#000000; stroke-linecap:round; stroke-linejoin:round; stroke-width:4; stroke-opacity:1; fill:none" points="423.142,112.524 442.04,112.524 "/>
<path clip-path="url(#clip100)" d="M236.837 1317.15 Q236.837 1303.36 239.649 1294.98 Q242.513 1286.54 248.082 1281.98 Q253.705 1277.42 262.192 1277.42 Q268.451 1277.42 273.171 1279.97 Q277.892 1282.46 280.969 1287.23 Q284.045 1291.95 285.795 1298.8 Q287.546 1305.59 287.546 1317.15 Q287.546 1330.83 284.735 1339.27 Q281.923 1347.65 276.301 1352.26 Q270.731 1356.82 262.192 1356.82 Q250.947 1356.82 244.529 1348.76 Q236.837 1339.06 236.837 1317.15 M246.65 1317.15 Q246.65 1336.3 251.106 1342.66 Q255.614 1348.97 262.192 1348.97 Q268.769 1348.97 273.224 1342.61 Q277.733 1336.24 277.733 1317.15 Q277.733 1297.95 273.224 1291.64 Q268.769 1285.32 262.086 1285.32 Q255.508 1285.32 251.583 1290.89 Q246.65 1298 246.65 1317.15 Z" fill="#000000" fill-rule="nonzero" fill-opacity="1" /><path clip-path="url(#clip100)" d="M302.61 1355.5 L302.61 1344.63 L313.483 1344.63 L313.483 1355.5 L302.61 1355.5 Z" fill="#000000" fill-rule="nonzero" fill-opacity="1" /><path clip-path="url(#clip100)" d="M327.434 1317.15 Q327.434 1303.36 330.245 1294.98 Q333.109 1286.54 338.679 1281.98 Q344.301 1277.42 352.788 1277.42 Q359.047 1277.42 363.768 1279.97 Q368.488 1282.46 371.565 1287.23 Q374.641 1291.95 376.392 1298.8 Q378.142 1305.59 378.142 1317.15 Q378.142 1330.83 375.331 1339.27 Q372.52 1347.65 366.897 1352.26 Q361.328 1356.82 352.788 1356.82 Q341.543 1356.82 335.125 1348.76 Q327.434 1339.06 327.434 1317.15 M337.246 1317.15 Q337.246 1336.3 341.702 1342.66 Q346.211 1348.97 352.788 1348.97 Q359.365 1348.97 363.821 1342.61 Q368.329 1336.24 368.329 1317.15 Q368.329 1297.95 363.821 1291.64 Q359.365 1285.32 352.682 1285.32 Q346.105 1285.32 342.179 1290.89 Q337.246 1298 337.246 1317.15 Z" fill="#000000" fill-rule="nonzero" fill-opacity="1" /><path clip-path="url(#clip100)" d="M235.989 1076.33 Q235.989 1062.54 238.8 1054.16 Q241.664 1045.72 247.234 1041.16 Q252.856 1036.6 261.343 1036.6 Q267.602 1036.6 272.323 1039.15 Q277.043 1041.64 280.12 1046.41 Q283.196 1051.14 284.947 1057.98 Q286.697 1064.77 286.697 1076.33 Q286.697 1090.02 283.886 1098.45 Q281.075 1106.83 275.452 1111.44 Q269.883 1116.01 261.343 1116.01 Q250.098 1116.01 243.68 1107.94 Q235.989 1098.24 235.989 1076.33 M245.802 1076.33 Q245.802 1095.48 250.257 1101.84 Q254.766 1108.16 261.343 1108.16 Q267.92 1108.16 272.376 1101.79 Q276.884 1095.43 276.884 1076.33 Q276.884 1057.13 272.376 1050.82 Q267.92 1044.5 261.237 1044.5 Q254.66 1044.5 250.734 1050.07 Q245.802 1057.18 245.802 1076.33 Z" fill="#000000" fill-rule="nonzero" fill-opacity="1" /><path clip-path="url(#clip100)" d="M301.761 1114.68 L301.761 1103.81 L312.635 1103.81 L312.635 1114.68 L301.761 1114.68 Z" fill="#000000" fill-rule="nonzero" fill-opacity="1" /><path clip-path="url(#clip100)" d="M326.585 1094.31 L336.61 1093.46 Q337.724 1100.78 341.755 1104.5 Q345.839 1108.16 351.568 1108.16 Q358.463 1108.16 363.237 1102.96 Q368.011 1097.76 368.011 1089.17 Q368.011 1081 363.396 1076.28 Q358.835 1071.56 351.409 1071.56 Q346.794 1071.56 343.081 1073.68 Q339.368 1075.75 337.246 1079.09 L328.282 1077.92 L335.814 1037.98 L374.482 1037.98 L374.482 1047.1 L343.452 1047.1 L339.262 1068 Q346.264 1063.12 353.955 1063.12 Q364.139 1063.12 371.14 1070.18 Q378.142 1077.23 378.142 1088.32 Q378.142 1098.87 371.989 1106.56 Q364.51 1116.01 351.568 1116.01 Q340.959 1116.01 334.223 1110.07 Q327.54 1104.12 326.585 1094.31 Z" fill="#000000" fill-rule="nonzero" fill-opacity="1" /><path clip-path="url(#clip100)" d="M272.8 873.861 L263.252 873.861 L263.252 813.021 Q259.805 816.31 254.182 819.599 Q248.613 822.887 244.157 824.532 L244.157 815.302 Q252.167 811.536 258.16 806.179 Q264.154 800.822 266.647 795.783 L272.8 795.783 L272.8 873.861 Z" fill="#000000" fill-rule="nonzero" fill-opacity="1" /><path clip-path="url(#clip100)" d="M302.61 873.861 L302.61 862.987 L313.483 862.987 L313.483 873.861 L302.61 873.861 Z" fill="#000000" fill-rule="nonzero" fill-opacity="1" /><path clip-path="url(#clip100)" d="M327.434 835.511 Q327.434 821.72 330.245 813.34 Q333.109 804.906 338.679 800.344 Q344.301 795.783 352.788 795.783 Q359.047 795.783 363.768 798.329 Q368.488 800.822 371.565 805.596 Q374.641 810.316 376.392 817.159 Q378.142 823.948 378.142 835.511 Q378.142 849.196 375.331 857.63 Q372.52 866.011 366.897 870.625 Q361.328 875.187 352.788 875.187 Q341.543 875.187 335.125 867.125 Q327.434 857.418 327.434 835.511 M337.246 835.511 Q337.246 854.66 341.702 861.025 Q346.211 867.337 352.788 867.337 Q359.365 867.337 363.821 860.972 Q368.329 854.607 368.329 835.511 Q368.329 816.31 363.821 809.998 Q359.365 803.686 352.682 803.686 Q346.105 803.686 342.179 809.255 Q337.246 816.363 337.246 835.511 Z" fill="#000000" fill-rule="nonzero" fill-opacity="1" /><path clip-path="url(#clip100)" d="M271.951 633.042 L262.404 633.042 L262.404 572.203 Q258.956 575.491 253.334 578.78 Q247.764 582.068 243.309 583.713 L243.309 574.483 Q251.318 570.717 257.312 565.36 Q263.305 560.003 265.798 554.964 L271.951 554.964 L271.951 633.042 Z" fill="#000000" fill-rule="nonzero" fill-opacity="1" /><path clip-path="url(#clip100)" d="M301.761 633.042 L301.761 622.168 L312.635 622.168 L312.635 633.042 L301.761 633.042 Z" fill="#000000" fill-rule="nonzero" fill-opacity="1" /><path clip-path="url(#clip100)" d="M326.585 612.674 L336.61 611.825 Q337.724 619.145 341.755 622.858 Q345.839 626.518 351.568 626.518 Q358.463 626.518 363.237 621.32 Q368.011 616.122 368.011 607.529 Q368.011 599.36 363.396 594.639 Q358.835 589.919 351.409 589.919 Q346.794 589.919 343.081 592.04 Q339.368 594.109 337.246 597.451 L328.282 596.284 L335.814 556.343 L374.482 556.343 L374.482 565.466 L343.452 565.466 L339.262 586.365 Q346.264 581.485 353.955 581.485 Q364.139 581.485 371.14 588.54 Q378.142 595.594 378.142 606.68 Q378.142 617.236 371.989 624.927 Q364.51 634.368 351.568 634.368 Q340.959 634.368 334.223 628.427 Q327.54 622.487 326.585 612.674 Z" fill="#000000" fill-rule="nonzero" fill-opacity="1" /><path clip-path="url(#clip100)" d="M287.015 383.047 L287.015 392.223 L235.617 392.223 Q235.511 388.775 236.731 385.593 Q238.694 380.342 242.99 375.25 Q247.34 370.158 255.508 363.474 Q268.185 353.078 272.641 347.031 Q277.096 340.931 277.096 335.521 Q277.096 329.846 273.012 325.973 Q268.981 322.048 262.457 322.048 Q255.561 322.048 251.424 326.186 Q247.287 330.323 247.234 337.643 L237.421 336.635 Q238.429 325.655 245.006 319.927 Q251.583 314.145 262.669 314.145 Q273.861 314.145 280.385 320.351 Q286.909 326.557 286.909 335.733 Q286.909 340.401 285 344.91 Q283.09 349.418 278.635 354.404 Q274.232 359.39 263.942 368.089 Q255.349 375.303 252.909 377.902 Q250.469 380.448 248.878 383.047 L287.015 383.047 Z" fill="#000000" fill-rule="nonzero" fill-opacity="1" /><path clip-path="url(#clip100)" d="M302.61 392.223 L302.61 381.35 L313.483 381.35 L313.483 392.223 L302.61 392.223 Z" fill="#000000" fill-rule="nonzero" fill-opacity="1" /><path clip-path="url(#clip100)" d="M327.434 353.874 Q327.434 340.083 330.245 331.702 Q333.109 323.268 338.679 318.707 Q344.301 314.145 352.788 314.145 Q359.047 314.145 363.768 316.691 Q368.488 319.184 371.565 323.958 Q374.641 328.679 376.392 335.521 Q378.142 342.31 378.142 353.874 Q378.142 367.559 375.331 375.992 Q372.52 384.373 366.897 388.988 Q361.328 393.549 352.788 393.549 Q341.543 393.549 335.125 385.487 Q327.434 375.78 327.434 353.874 M337.246 353.874 Q337.246 373.022 341.702 379.387 Q346.211 385.699 352.788 385.699 Q359.365 385.699 363.821 379.334 Q368.329 372.969 368.329 353.874 Q368.329 334.672 363.821 328.36 Q359.365 322.048 352.682 322.048 Q346.105 322.048 342.179 327.618 Q337.246 334.725 337.246 353.874 Z" fill="#000000" fill-rule="nonzero" fill-opacity="1" /><path clip-path="url(#clip100)" d="M286.167 142.228 L286.167 151.404 L234.769 151.404 Q234.663 147.957 235.883 144.774 Q237.845 139.523 242.142 134.431 Q246.491 129.339 254.66 122.655 Q267.337 112.259 271.792 106.212 Q276.248 100.112 276.248 94.7022 Q276.248 89.0266 272.164 85.1546 Q268.132 81.2294 261.608 81.2294 Q254.713 81.2294 250.575 85.3667 Q246.438 89.504 246.385 96.8239 L236.572 95.8161 Q237.58 84.8363 244.157 79.1077 Q250.734 73.3261 261.82 73.3261 Q273.012 73.3261 279.536 79.5321 Q286.061 85.738 286.061 94.9143 Q286.061 99.5821 284.151 104.091 Q282.242 108.599 277.786 113.585 Q273.384 118.571 263.093 127.27 Q254.5 134.484 252.061 137.083 Q249.621 139.629 248.029 142.228 L286.167 142.228 Z" fill="#000000" fill-rule="nonzero" fill-opacity="1" /><path clip-path="url(#clip100)" d="M301.761 151.404 L301.761 140.531 L312.635 140.531 L312.635 151.404 L301.761 151.404 Z" fill="#000000" fill-rule="nonzero" fill-opacity="1" /><path clip-path="url(#clip100)" d="M326.585 131.036 L336.61 130.187 Q337.724 137.507 341.755 141.22 Q345.839 144.88 351.568 144.88 Q358.463 144.88 363.237 139.682 Q368.011 134.484 368.011 125.891 Q368.011 117.723 363.396 113.002 Q358.835 108.281 351.409 108.281 Q346.794 108.281 343.081 110.403 Q339.368 112.471 337.246 115.813 L328.282 114.646 L335.814 74.7052 L374.482 74.7052 L374.482 83.8285 L343.452 83.8285 L339.262 104.727 Q346.264 99.8473 353.955 99.8473 Q364.139 99.8473 371.14 106.902 Q378.142 113.957 378.142 125.042 Q378.142 135.598 371.989 143.289 Q364.51 152.73 351.568 152.73 Q340.959 152.73 334.223 146.79 Q327.54 140.849 326.585 131.036 Z" fill="#000000" fill-rule="nonzero" fill-opacity="1" /><path clip-path="url(#clip100)" d="M132.971 1067.35 L55.211 1067.35 L55.211 1051.86 L110.269 1033.46 Q117.96 1030.91 121.779 1029.74 Q117.536 1028.42 109.314 1025.61 L55.211 1006.99 L55.211 993.144 L132.971 993.144 L132.971 1003.06 L67.8882 1003.06 L132.971 1025.66 L132.971 1034.94 L66.7743 1057.43 L132.971 1057.43 L132.971 1067.35 Z" fill="#000000" fill-rule="nonzero" fill-opacity="1" /><path clip-path="url(#clip100)" d="M107.988 980.043 L107.139 970.336 Q112.974 969.647 116.74 967.154 Q120.453 964.608 122.787 959.303 Q125.068 953.999 125.068 947.369 Q125.068 941.481 123.317 936.972 Q121.567 932.464 118.544 930.289 Q115.467 928.061 111.86 928.061 Q108.2 928.061 105.495 930.183 Q102.737 932.305 100.88 937.185 Q99.6605 940.314 97.1145 951.029 Q94.5154 961.743 92.2346 966.04 Q89.3172 971.609 85.0208 974.367 Q80.6713 977.072 75.3141 977.072 Q69.4264 977.072 64.3343 973.731 Q59.1892 970.389 56.5371 963.971 Q53.885 957.553 53.885 949.703 Q53.885 941.057 56.6962 934.479 Q59.4544 927.849 64.8647 924.295 Q70.2751 920.742 77.1175 920.476 L77.8601 930.342 Q70.4872 931.138 66.7212 935.753 Q62.9552 940.314 62.9552 949.278 Q62.9552 958.614 66.403 962.91 Q69.7977 967.154 74.6245 967.154 Q78.8149 967.154 81.52 964.13 Q84.2252 961.16 87.0895 948.642 Q89.9007 936.071 92.0224 931.403 Q95.1519 924.614 99.9787 921.378 Q104.753 918.142 111.012 918.142 Q117.217 918.142 122.734 921.696 Q128.197 925.25 131.274 931.933 Q134.297 938.564 134.297 946.891 Q134.297 957.447 131.221 964.608 Q128.144 971.715 121.991 975.799 Q115.785 979.831 107.988 980.043 Z" fill="#000000" fill-rule="nonzero" fill-opacity="1" /><path clip-path="url(#clip100)" d="M132.971 903.874 L55.211 903.874 L55.211 847.649 L64.3874 847.649 L64.3874 893.584 L88.2033 893.584 L88.2033 850.567 L97.3266 850.567 L97.3266 893.584 L123.795 893.584 L123.795 845.846 L132.971 845.846 L132.971 903.874 Z" fill="#000000" fill-rule="nonzero" fill-opacity="1" /><path clip-path="url(#clip100)" d="M155.832 784.423 Q145.86 792.326 132.494 797.79 Q119.127 803.253 104.806 803.253 Q92.1815 803.253 80.6183 799.169 Q67.1986 794.395 53.885 784.423 L53.885 777.58 Q64.9178 783.999 69.6385 786.067 Q76.9584 789.303 84.9147 791.159 Q94.8336 793.44 104.859 793.44 Q130.372 793.44 155.832 777.58 L155.832 784.423 Z" fill="#000000" fill-rule="nonzero" fill-opacity="1" /><path clip-path="url(#clip100)" d="M132.971 766.707 L55.211 766.707 L55.211 757.159 L132.971 757.159 L132.971 766.707 Z" fill="#000000" fill-rule="nonzero" fill-opacity="1" /><path clip-path="url(#clip100)" d="M104.806 745.914 Q89.1581 745.914 81.6261 737.215 Q75.3671 729.948 75.3671 719.499 Q75.3671 707.883 83.0052 700.51 Q90.5903 693.137 104.01 693.137 Q114.884 693.137 121.143 696.426 Q127.349 699.661 130.796 705.92 Q134.244 712.126 134.244 719.499 Q134.244 731.328 126.659 738.647 Q119.074 745.914 104.806 745.914 M104.806 736.101 Q115.626 736.101 121.037 731.381 Q126.394 726.66 126.394 719.499 Q126.394 712.391 120.983 707.671 Q115.573 702.95 104.487 702.95 Q94.038 702.95 88.6807 707.724 Q83.2704 712.444 83.2704 719.499 Q83.2704 726.66 88.6277 731.381 Q93.985 736.101 104.806 736.101 Z" fill="#000000" fill-rule="nonzero" fill-opacity="1" /><path clip-path="url(#clip100)" d="M137.639 683.696 L139.018 674.413 Q143.314 673.83 145.277 671.178 Q147.929 667.624 147.929 661.471 Q147.929 654.841 145.277 651.234 Q142.625 647.627 137.851 646.354 Q134.934 645.611 125.598 645.664 Q132.971 651.923 132.971 661.259 Q132.971 672.875 124.59 679.24 Q116.21 685.605 104.487 685.605 Q96.4249 685.605 89.6355 682.688 Q82.793 679.77 79.0801 674.254 Q75.3671 668.685 75.3671 661.206 Q75.3671 651.234 83.4295 644.762 L76.6401 644.762 L76.6401 635.957 L125.333 635.957 Q138.487 635.957 143.951 638.663 Q149.467 641.315 152.65 647.149 Q155.832 652.931 155.832 661.418 Q155.832 671.496 151.271 677.702 Q146.762 683.908 137.639 683.696 M103.798 675.792 Q114.884 675.792 119.976 671.39 Q125.068 666.987 125.068 660.357 Q125.068 653.78 120.029 649.324 Q114.937 644.869 104.116 644.869 Q93.7728 644.869 88.5216 649.483 Q83.2704 654.045 83.2704 660.516 Q83.2704 666.881 88.4686 671.337 Q93.6137 675.792 103.798 675.792 Z" fill="#000000" fill-rule="nonzero" fill-opacity="1" /><path clip-path="url(#clip100)" d="M132.971 588.219 L132.971 597.767 L72.1315 597.767 Q75.4202 601.215 78.7088 606.837 Q81.9974 612.407 83.6417 616.862 L74.4124 616.862 Q70.6464 608.853 65.2891 602.859 Q59.9318 596.865 54.8928 594.372 L54.8928 588.219 L132.971 588.219 Z" fill="#000000" fill-rule="nonzero" fill-opacity="1" /><path clip-path="url(#clip100)" d="M94.6215 563.767 Q80.8305 563.767 72.4498 560.956 Q64.0161 558.091 59.4544 552.522 Q54.8928 546.899 54.8928 538.413 Q54.8928 532.154 57.4388 527.433 Q59.9318 522.712 64.7056 519.636 Q69.4264 516.559 76.2688 514.809 Q83.0582 513.058 94.6215 513.058 Q108.306 513.058 116.74 515.87 Q125.121 518.681 129.735 524.303 Q134.297 529.873 134.297 538.413 Q134.297 549.658 126.235 556.076 Q116.528 563.767 94.6215 563.767 M94.6215 553.954 Q113.77 553.954 120.135 549.499 Q126.447 544.99 126.447 538.413 Q126.447 531.835 120.082 527.38 Q113.717 522.871 94.6215 522.871 Q75.4202 522.871 69.1081 527.38 Q62.7961 531.835 62.7961 538.519 Q62.7961 545.096 68.3655 549.021 Q75.4732 553.954 94.6215 553.954 Z" fill="#000000" fill-rule="nonzero" fill-opacity="1" /><path clip-path="url(#clip100)" d="M155.832 494.441 L155.832 501.283 Q130.372 485.423 104.859 485.423 Q94.8867 485.423 85.0739 487.704 Q77.1175 489.508 69.7977 492.743 Q65.0239 494.812 53.885 501.283 L53.885 494.441 Q67.1986 484.469 80.6183 479.695 Q92.1815 475.611 104.806 475.611 Q119.127 475.611 132.494 481.127 Q145.86 486.59 155.832 494.441 Z" fill="#000000" fill-rule="nonzero" fill-opacity="1" /><circle clip-path="url(#clip102)" cx="494.735" cy="1447.2" r="10.8" fill="#0000ff" fill-rule="evenodd" fill-opacity="1" stroke="none"/>
<circle clip-path="url(#clip102)" cx="543.438" cy="1429.23" r="10.8" fill="#0000ff" fill-rule="evenodd" fill-opacity="1" stroke="none"/>
<circle clip-path="url(#clip102)" cx="592.14" cy="1434.19" r="10.8" fill="#0000ff" fill-rule="evenodd" fill-opacity="1" stroke="none"/>
<circle clip-path="url(#clip102)" cx="640.843" cy="1406.15" r="10.8" fill="#0000ff" fill-rule="evenodd" fill-opacity="1" stroke="none"/>
<circle clip-path="url(#clip102)" cx="689.545" cy="1411.8" r="10.8" fill="#0000ff" fill-rule="evenodd" fill-opacity="1" stroke="none"/>
<circle clip-path="url(#clip102)" cx="738.248" cy="1443.54" r="10.8" fill="#0000ff" fill-rule="evenodd" fill-opacity="1" stroke="none"/>
<circle clip-path="url(#clip102)" cx="786.951" cy="1397.28" r="10.8" fill="#0000ff" fill-rule="evenodd" fill-opacity="1" stroke="none"/>
<circle clip-path="url(#clip102)" cx="835.653" cy="1409.61" r="10.8" fill="#0000ff" fill-rule="evenodd" fill-opacity="1" stroke="none"/>
<circle clip-path="url(#clip102)" cx="884.356" cy="1387.18" r="10.8" fill="#0000ff" fill-rule="evenodd" fill-opacity="1" stroke="none"/>
<circle clip-path="url(#clip102)" cx="933.058" cy="1424.71" r="10.8" fill="#0000ff" fill-rule="evenodd" fill-opacity="1" stroke="none"/>
<circle clip-path="url(#clip102)" cx="981.761" cy="1390.32" r="10.8" fill="#0000ff" fill-rule="evenodd" fill-opacity="1" stroke="none"/>
<circle clip-path="url(#clip102)" cx="1030.46" cy="1377.79" r="10.8" fill="#0000ff" fill-rule="evenodd" fill-opacity="1" stroke="none"/>
<circle clip-path="url(#clip102)" cx="1079.17" cy="1374.39" r="10.8" fill="#0000ff" fill-rule="evenodd" fill-opacity="1" stroke="none"/>
<circle clip-path="url(#clip102)" cx="1127.87" cy="1355.74" r="10.8" fill="#0000ff" fill-rule="evenodd" fill-opacity="1" stroke="none"/>
<circle clip-path="url(#clip102)" cx="1176.57" cy="1353.54" r="10.8" fill="#0000ff" fill-rule="evenodd" fill-opacity="1" stroke="none"/>
<circle clip-path="url(#clip102)" cx="1225.27" cy="1360.68" r="10.8" fill="#0000ff" fill-rule="evenodd" fill-opacity="1" stroke="none"/>
<circle clip-path="url(#clip102)" cx="1273.98" cy="1362.42" r="10.8" fill="#0000ff" fill-rule="evenodd" fill-opacity="1" stroke="none"/>
<circle clip-path="url(#clip102)" cx="1322.68" cy="1339.29" r="10.8" fill="#0000ff" fill-rule="evenodd" fill-opacity="1" stroke="none"/>
<circle clip-path="url(#clip102)" cx="1468.79" cy="1307.83" r="10.8" fill="#0000ff" fill-rule="evenodd" fill-opacity="1" stroke="none"/>
<circle clip-path="url(#clip102)" cx="1614.9" cy="1321.64" r="10.8" fill="#0000ff" fill-rule="evenodd" fill-opacity="1" stroke="none"/>
<circle clip-path="url(#clip102)" cx="1663.6" cy="1360.34" r="10.8" fill="#0000ff" fill-rule="evenodd" fill-opacity="1" stroke="none"/>
<circle clip-path="url(#clip102)" cx="1712.3" cy="1357.22" r="10.8" fill="#0000ff" fill-rule="evenodd" fill-opacity="1" stroke="none"/>
<circle clip-path="url(#clip102)" cx="1761" cy="1394.42" r="10.8" fill="#0000ff" fill-rule="evenodd" fill-opacity="1" stroke="none"/>
<circle clip-path="url(#clip102)" cx="1809.71" cy="1448.39" r="10.8" fill="#0000ff" fill-rule="evenodd" fill-opacity="1" stroke="none"/>
<circle clip-path="url(#clip102)" cx="1858.41" cy="1448.45" r="10.8" fill="#0000ff" fill-rule="evenodd" fill-opacity="1" stroke="none"/>
<circle clip-path="url(#clip102)" cx="1907.11" cy="1399.37" r="10.8" fill="#0000ff" fill-rule="evenodd" fill-opacity="1" stroke="none"/>
<circle clip-path="url(#clip102)" cx="1955.81" cy="1336.83" r="10.8" fill="#0000ff" fill-rule="evenodd" fill-opacity="1" stroke="none"/>
<circle clip-path="url(#clip102)" cx="2004.52" cy="1369.68" r="10.8" fill="#0000ff" fill-rule="evenodd" fill-opacity="1" stroke="none"/>
<circle clip-path="url(#clip102)" cx="2053.22" cy="1344.98" r="10.8" fill="#0000ff" fill-rule="evenodd" fill-opacity="1" stroke="none"/>
<circle clip-path="url(#clip102)" cx="2101.92" cy="1420.75" r="10.8" fill="#0000ff" fill-rule="evenodd" fill-opacity="1" stroke="none"/>
<circle clip-path="url(#clip102)" cx="2150.62" cy="1380.51" r="10.8" fill="#0000ff" fill-rule="evenodd" fill-opacity="1" stroke="none"/>
<circle clip-path="url(#clip102)" cx="2199.33" cy="1450.67" r="10.8" fill="#0000ff" fill-rule="evenodd" fill-opacity="1" stroke="none"/>
<circle clip-path="url(#clip102)" cx="2248.03" cy="1416.21" r="10.8" fill="#0000ff" fill-rule="evenodd" fill-opacity="1" stroke="none"/>
<circle clip-path="url(#clip102)" cx="2296.73" cy="1392.3" r="10.8" fill="#0000ff" fill-rule="evenodd" fill-opacity="1" stroke="none"/>
<circle clip-path="url(#clip102)" cx="2345.43" cy="1384.42" r="10.8" fill="#0000ff" fill-rule="evenodd" fill-opacity="1" stroke="none"/>
<circle clip-path="url(#clip102)" cx="2394.14" cy="1454.72" r="10.8" fill="#0000ff" fill-rule="evenodd" fill-opacity="1" stroke="none"/>
<circle clip-path="url(#clip102)" cx="2442.84" cy="1407.77" r="10.8" fill="#0000ff" fill-rule="evenodd" fill-opacity="1" stroke="none"/>
<circle clip-path="url(#clip102)" cx="2491.54" cy="1347.89" r="10.8" fill="#0000ff" fill-rule="evenodd" fill-opacity="1" stroke="none"/>
<circle clip-path="url(#clip102)" cx="2540.24" cy="1422.66" r="10.8" fill="#0000ff" fill-rule="evenodd" fill-opacity="1" stroke="none"/>
<circle clip-path="url(#clip102)" cx="2637.65" cy="1437.2" r="10.8" fill="#0000ff" fill-rule="evenodd" fill-opacity="1" stroke="none"/>
<circle clip-path="url(#clip102)" cx="2686.35" cy="1422.03" r="10.8" fill="#0000ff" fill-rule="evenodd" fill-opacity="1" stroke="none"/>
<circle clip-path="url(#clip102)" cx="2735.06" cy="483.802" r="10.8" fill="#0000ff" fill-rule="evenodd" fill-opacity="1" stroke="none"/>
<circle clip-path="url(#clip102)" cx="2783.76" cy="1337.3" r="10.8" fill="#0000ff" fill-rule="evenodd" fill-opacity="1" stroke="none"/>
<circle clip-path="url(#clip102)" cx="2881.16" cy="88.2386" r="10.8" fill="#0000ff" fill-rule="evenodd" fill-opacity="1" stroke="none"/>
</svg>
